<?xml version="1.0" encoding="UTF-8"?>
<svg xmlns="http://www.w3.org/2000/svg" id="Layer_1" data-name="Layer 1" viewBox="0 0 24 24">
  <path d="M19.57,21h-2.163c3.477-2.982,3.497-8.114,.027-12.544-1.077-1.375-2.384-2.444-3.388-3.152,.51-.641,.507-1.455,.505-1.737-.008-2.225-1.604-2.563-2.554-2.567-.819,.031-1.456,.219-1.897,.66-.658,.658-.654,1.595-.653,1.902,.003,.796,.209,1.35,.516,1.735-1.005,.708-2.318,1.78-3.398,3.159-3.47,4.43-3.45,9.562,.027,12.544h-2.163c-.552,0-1,.448-1,1s.448,1,1,1h15.141c.552,0,1-.448,1-1s-.448-1-1-1Zm-11.582-1.438c-3.184-2.622-2.218-6.847,.151-9.872,1.298-1.657,3.039-2.834,3.86-3.337,.803,.491,2.484,1.628,3.772,3.227-.471,1.47-1.421,2.744-2.707,3.616-.457,.31-.576,.932-.266,1.389,.193,.285,.508,.438,.829,.438,.193,0,.389-.056,.561-.172,1.227-.832,2.217-1.949,2.895-3.241,1.366,2.718,1.481,5.85-1.071,7.952-1.127,.928-2.551,1.438-4.011,1.438s-2.884-.511-4.011-1.438Z"/>
</svg>
