<?xml version="1.0" encoding="UTF-8"?>
<svg xmlns="http://www.w3.org/2000/svg" id="Layer_1" data-name="Layer 1" viewBox="0 0 24 24">
  <path d="M2.249,7.292c.038-.01,3.853-.968,9.751-.968,5.863,0,9.715,.96,9.754,.968,.672,.142,1.1-.271,1.215-.723,.136-.535-.187-1.079-.722-1.215-.165-.042-4.114-1.03-10.247-1.03-6.173,0-10.085,.988-10.249,1.031-.535,.137-.856,.682-.719,1.217,.137,.535,.683,.855,1.217,.72Z"/>
  <path d="M2.249,15.764c.038-.01,3.853-.968,9.751-.968,5.863,0,9.715,.96,9.754,.968,.672,.142,1.1-.271,1.215-.723,.136-.535-.187-1.079-.722-1.215-.165-.042-4.114-1.03-10.247-1.03-6.173,0-10.085,.988-10.249,1.031-.535,.137-.856,.682-.719,1.217,.137,.535,.683,.855,1.217,.72Z"/>
  <path d="M6.298,8.868c-.549,.058-.947,.55-.89,1.1,.058,.549,.554,.947,1.1,.89,3.544-.375,7.417-.376,10.985,.002,.036,.003,.99,.055,1.1-.889,.064-.549-.34-1.042-.889-1.1-3.708-.392-7.723-.391-11.406-.002Z"/>
  <path d="M6.298,17.679c-.549,.058-.947,.55-.89,1.1,.058,.549,.554,.947,1.1,.89,3.544-.375,7.417-.376,10.985,.002,.036,.003,.99,.055,1.1-.889,.064-.549-.34-1.042-.889-1.1-3.708-.392-7.723-.391-11.406-.002Z"/>
</svg>
