<?xml version="1.0" encoding="UTF-8"?>
<svg xmlns="http://www.w3.org/2000/svg" id="Layer_1" data-name="Layer 1" viewBox="0 0 24 24">
  <path d="M22.662,3.393c-.411-.363-1.045-.327-1.411,.087l-2.412,2.726c-.162,.184-.251,.419-.251,.663v1.959c0,3.924-.341,7.142-.497,8.408-.394,.122-1.026,.275-1.871,.346,.152-1.531,.278-3.444,.278-5.576,0-5.286-.764-9.166-.796-9.329-.076-.381-.366-.684-.743-.775-.118-.028-2.911-.7-6.21-.7S2.658,1.872,2.54,1.901c-.379,.092-.669,.396-.745,.777-.032,.165-.795,4.086-.795,9.327,0,5.287,.764,9.167,.796,9.33,.076,.382,.368,.686,.747,.776,.117,.028,2.909,.688,6.206,.688s6.088-.659,6.205-.688c.38-.091,.673-.396,.749-.778,.012-.064,.134-.688,.278-1.731,2.173-.115,3.411-.717,3.467-.746,.293-.146,.497-.425,.545-.748,.024-.164,.595-4.063,.595-9.281v-1.58l2.161-2.443c.366-.413,.327-1.045-.087-1.411Zm-13.913-.192c2.166,0,4.135,.321,5.104,.51,.174,1.071,.5,3.395,.608,6.347h-2.006c-.048-1.143-.384-2.005-1.004-2.58l.673-.734c.373-.407,.346-1.039-.062-1.413-.405-.373-1.039-.346-1.413,.062l-1.159,1.264c-.234-.028-.481-.043-.742-.043-2.366,0-3.611,1.159-3.707,3.444H3.037c.109-2.936,.435-5.271,.609-6.347,.972-.188,2.943-.51,5.104-.51Zm-1.706,6.856c.066-1.235,.581-1.444,1.706-1.444,1.177,0,1.647,.227,1.707,1.444h-3.413Zm1.706,10.742c-2.165,0-4.135-.315-5.105-.501-.21-1.29-.64-4.396-.643-8.241H14.498c-.004,3.81-.435,6.941-.645,8.242-.971,.186-2.937,.5-5.104,.5Z"/>
</svg>
