<?xml version="1.0" encoding="UTF-8"?>
<svg xmlns="http://www.w3.org/2000/svg" id="Layer_1" data-name="Layer 1" viewBox="0 0 24 24">
  <path d="M22.058,7.473c-.015-.298-.161-.574-.402-.753-3.382-2.514-5.466-3.774-9.289-5.621-.265-.129-.571-.133-.839-.014C7.492,2.87,5.349,4.076,2.354,6.25c-.242,.175-.391,.449-.41,.745-.002,.019-.003,9.988-.003,9.988,0,.229,.079,.452,.224,.63,2.158,2.662,8.756,5.064,9.501,5.329,0,0,.002,0,.002,0,.107,.038,.219,.058,.333,.058s.227-.019,.335-.058c.745-.265,7.343-2.667,9.501-5.329,.145-.178,.224-.4,.224-.63,0,0,0-9.498-.002-9.51ZM11.914,3.103c3.016,1.473,4.912,2.59,7.459,4.425-2.058,1.463-3.967,2.447-7.364,3.84-3.288-1.413-5.183-2.486-7.419-4.253,2.269-1.572,4.147-2.592,7.324-4.012ZM3.94,16.604v-7.462c2.09,1.585,4,2.644,7.06,3.969v7.437c-2.213-.891-5.639-2.472-7.06-3.944Zm9.06,3.943v-7.425c3.168-1.308,5.092-2.285,7.06-3.634v7.116c-1.42,1.47-4.847,3.052-7.06,3.943Z"/>
</svg>
