<?xml version="1.0" encoding="UTF-8"?>
<svg xmlns="http://www.w3.org/2000/svg" id="Layer_1" data-name="Layer 1" viewBox="0 0 24 24">
  <path d="M22.277,6.308L17.683,1.712c-.641-.64-1.596-.87-2.491-.594-.213,.065-.509,.038-.85,.007-.719-.064-1.804-.163-2.74,.772-.938,.938-.838,2.021-.772,2.739,.061,.655,.059,.888-.194,1.14-.254,.253-.487,.256-1.144,.194-.717-.066-1.802-.167-2.74,.771-.939,.938-.839,2.022-.772,2.739,.06,.655,.059,.888-.195,1.141-.255,.255-.489,.256-1.146,.197-.72-.066-1.804-.165-2.742,.773-.939,.938-.84,2.023-.774,2.741,.031,.34,.058,.634-.007,.846-.275,.897-.048,1.854,.593,2.495l4.597,4.599c.47,.471,1.11,.724,1.763,.723,.285,0,.574-.048,.851-.148,.875-.314,1.472-1.073,1.559-1.979,.02-.205,.08-.334,.223-.478,.254-.255,.489-.256,1.147-.196,.718,.064,1.803,.164,2.742-.773,.938-.938,.838-2.021,.772-2.739-.061-.655-.059-.888,.195-1.141,.254-.253,.486-.256,1.144-.194,.716,.065,1.801,.166,2.74-.771,.938-.938,.838-2.021,.772-2.739-.061-.655-.059-.888,.194-1.14,.141-.141,.267-.2,.465-.219,.909-.09,1.667-.689,1.98-1.564,.325-.908,.099-1.93-.575-2.605ZM3.027,15.764c.18-.588,.13-1.134,.086-1.615-.06-.656-.058-.889,.196-1.143,.172-.172,.335-.229,.626-.229,.139,0,.308,.013,.521,.032,.716,.066,1.803,.165,2.742-.773,.939-.938,.839-2.022,.772-2.739-.06-.655-.059-.888,.194-1.141,.253-.253,.487-.254,1.144-.194,.718,.066,1.803,.166,2.74-.771,.938-.938,.838-2.021,.772-2.739-.061-.655-.059-.888,.194-1.14,.253-.253,.486-.256,1.147-.195,.479,.043,1.025,.092,1.615-.086,.189-.06,.375-.022,.493,.095l1.686,1.687c-.715-.065-1.754-.125-2.657,.777-.938,.938-.838,2.021-.772,2.739,.061,.655,.059,.888-.194,1.14-.253,.253-.489,.254-1.144,.194-.719-.069-1.803-.167-2.74,.771-.939,.938-.839,2.022-.773,2.74,.061,.655,.059,.888-.194,1.141-.254,.254-.489,.257-1.147,.196-.717-.067-1.804-.165-2.742,.773-.907,.906-.846,1.948-.781,2.665l-1.688-1.689c-.119-.119-.154-.304-.096-.496Zm17.942-7.525c-.054,.15-.153,.234-.293,.248-.662,.064-1.212,.324-1.683,.794-.938,.938-.838,2.021-.772,2.739,.061,.655,.059,.888-.194,1.14-.253,.253-.487,.254-1.144,.194-.716-.065-1.803-.165-2.74,.771-.939,.938-.839,2.022-.773,2.739,.061,.655,.059,.888-.194,1.141-.255,.255-.489,.257-1.147,.196-.72-.064-1.803-.165-2.742,.773-.475,.474-.736,1.03-.801,1.702-.013,.138-.095,.235-.244,.288-.147,.054-.364,.053-.523-.107h0l-1.106-1.107c.307-.692,.245-1.379,.197-1.91-.06-.656-.058-.889,.196-1.143,.255-.255,.49-.257,1.146-.197,.719,.065,1.803,.165,2.742-.773,.938-.938,.838-2.022,.772-2.739-.061-.655-.059-.888,.194-1.141,.254-.252,.489-.254,1.144-.194,.718,.068,1.803,.167,2.74-.771,.938-.938,.838-2.021,.772-2.739-.061-.655-.059-.888,.194-1.14,.253-.252,.487-.254,1.142-.193,.536,.049,1.219,.112,1.908-.192l1.102,1.102c.159,.158,.159,.371,.107,.517Z"/>
</svg>
