<?xml version="1.0" encoding="UTF-8"?>
<svg xmlns="http://www.w3.org/2000/svg" id="Layer_1" data-name="Layer 1" viewBox="0 0 24 24">
  <path d="M21.878,4.466c-.993-2.209-3.157-3.313-3.249-3.359-.283-.143-.613-.142-.896,0-.092,.047-2.258,1.151-3.249,3.361-.227,.504,0,1.096,.503,1.321,.505,.227,1.097,0,1.321-.503,.224-.498,.543-.922,.873-1.27v5.755c0,.553,.447,1,1,1s1-.447,1-1V4.016c.33,.347,.649,.772,.873,1.27,.167,.37,.531,.59,.913,.59,.137,0,.275-.028,.409-.088,.504-.227,.729-.818,.502-1.322Z"/>
  <path d="M13.307,10.101c-.01-1.584-.037-4.534-.081-5.199-.142-2.188-2.001-3.901-4.233-3.901s-4.093,1.714-4.234,3.901c-.042,.651-.07,3.505-.081,5.201-1.776,1.069-2.643,3.029-2.643,5.968,0,6.211,3.971,6.93,6.958,6.93s6.957-.719,6.957-6.93c0-2.939-.866-4.899-2.643-5.97Zm-4.314,10.899c-3.061,0-4.958-.824-4.958-4.93,0-3.163,1.17-4.055,2.05-4.45,.357-.161,.588-.516,.59-.908,.009-1.944,.042-5.086,.08-5.682,.073-1.139,1.057-2.03,2.238-2.03s2.164,.892,2.237,2.031c.039,.598,.071,3.743,.081,5.681,.002,.392,.232,.746,.59,.907,.88,.396,2.049,1.287,2.049,4.451,0,4.105-1.896,4.93-4.957,4.93Z"/>
  <path d="M9.992,13.303V7.128c0-.553-.447-1-1-1s-1,.447-1,1v6.175c-1.136,.409-1.95,1.495-1.95,2.767,0,1.622,1.323,2.941,2.95,2.941s2.95-1.319,2.95-2.941c0-1.272-.814-2.358-1.95-2.767Zm-1,3.709c-.524,0-.95-.422-.95-.941s.426-.941,.95-.941,.95,.422,.95,.941-.426,.941-.95,.941Z"/>
</svg>
