<?xml version="1.0" encoding="UTF-8"?>
<svg xmlns="http://www.w3.org/2000/svg" id="Layer_1" data-name="Layer 1" viewBox="0 0 24 24">
  <path d="M10.664,8.157c0-1.342-.868-2.484-2.073-2.9v-.488c.491-.307,1.081-.879,1.42-1.934,.169-.525-.119-1.089-.645-1.259-.527-.166-1.089,.12-1.258,.646-.148,.46-.363,.696-.514,.813-.16-.12-.373-.356-.521-.813-.169-.526-.733-.812-1.259-.646-.525,.17-.814,.733-.645,1.259,.34,1.055,.93,1.627,1.421,1.934v.488c-.366,.126-.701,.32-.991,.565l-.418-.246c-.015-.58-.208-1.378-.943-2.207-.366-.412-.998-.449-1.412-.084-.413,.367-.451,.999-.084,1.412,.321,.361,.416,.668,.439,.858-.183,.077-.495,.141-.964,.036-.537-.121-1.073,.219-1.194,.757-.121,.539,.219,1.074,.758,1.194,.329,.074,.631,.104,.907,.104,.63,0,1.121-.162,1.478-.348l.413,.243c-.041,.198-.062,.404-.062,.614s.021,.416,.062,.614l-.41,.242c-.514-.269-1.306-.487-2.387-.243-.539,.12-.878,.655-.758,1.194,.121,.538,.657,.879,1.194,.757,.472-.104,.784-.04,.961,.032-.021,.198-.116,.503-.436,.864-.367,.413-.329,1.045,.084,1.411,.19,.169,.427,.252,.663,.252,.276,0,.551-.113,.749-.337,.735-.829,.929-1.627,.943-2.206l.418-.246c.289,.246,.624,.439,.991,.565v.488c-.491,.308-1.081,.88-1.421,1.935-.169,.525,.119,1.089,.645,1.259,.102,.032,.206,.048,.307,.048,.422,0,.815-.27,.952-.693,.249-.772,.686-.914,.694-.919,.477-.086,.823-.5,.823-.984v-1.133c1.205-.415,2.073-1.558,2.073-2.9Zm-3.073,1.067c-.592,0-1.073-.479-1.073-1.067s.481-1.067,1.073-1.067,1.073,.479,1.073,1.067-.481,1.067-1.073,1.067Z"/>
  <path d="M20.383,10.115c-.011-1.714-.039-4.502-.081-5.141-.14-2.17-1.987-3.87-4.204-3.87s-4.063,1.7-4.203,3.87c-.042,.639-.07,3.459-.08,5.141-1.76,1.062-2.618,3.004-2.618,5.913,0,6.156,3.938,6.868,6.901,6.868s6.901-.712,6.901-6.868c0-2.91-.857-4.853-2.617-5.913Zm-4.284,10.781c-3.104,0-4.901-.797-4.901-4.868,0-3.124,1.155-4.005,2.024-4.396,.357-.161,.588-.516,.59-.908,.008-1.927,.042-5.037,.08-5.621,.072-1.121,1.042-1.999,2.207-1.999s2.135,.878,2.208,1.999c.038,.584,.071,3.64,.08,5.622,.002,.392,.232,.747,.59,.907,.869,.391,2.023,1.271,2.023,4.396,0,4.054-1.875,4.868-4.901,4.868Z"/>
  <path d="M17.099,13.282v-3.058c0-.553-.448-1-1-1s-1,.447-1,1v3.058c-1.126,.408-1.932,1.485-1.932,2.746,0,1.61,1.315,2.921,2.932,2.921s2.932-1.311,2.932-2.921c0-1.261-.806-2.337-1.932-2.746Zm-1,3.667c-.514,0-.932-.413-.932-.921s.418-.921,.932-.921,.932,.413,.932,.921-.418,.921-.932,.921Z"/>
</svg>
