<?xml version="1.0" encoding="UTF-8"?>
<svg xmlns="http://www.w3.org/2000/svg" id="Layer_1" data-name="Layer 1" viewBox="0 0 24 24">
  <path d="M13,6.131v-1.618c0-.446,.364-.81,.812-.81s.812,.363,.812,.81c0,.552,.448,1,1,1s1-.448,1-1c0-1.549-1.261-2.81-2.812-2.81-1.088,0-2.033,.621-2.501,1.527-.524-.316-1.138-.498-1.793-.498-.552,0-1,.448-1,1s.448,1,1,1c.791,0,1.438,.62,1.48,1.399-4.856,.132-9.998,1.37-9.998,8.077,0,7.251,6.278,8.089,11,8.089,5.122,0,11-.919,11-8.089,0-6.707-5.144-7.945-10-8.077Zm-4.136,2.552c-.521,1.52-.632,3.533-.632,5.525,0,1.904,.11,3.95,.649,5.508-1.444-.742-2.301-2.331-2.301-5.508,0-3.206,.829-4.791,2.284-5.525Zm1.368,5.525c0-5.884,1.199-6.083,1.716-6.09,.017,0,.034,0,.052,0s.034,0,.052,0c.517,.007,1.716,.206,1.716,6.09s-1.245,6.083-1.723,6.089c-.015,0-.03,0-.046,0-1.173,0-1.768-2.049-1.768-6.089Zm4.904,5.524c.521-1.52,.632-3.533,.632-5.524s-.111-4.005-.632-5.525c1.455,.733,2.284,2.319,2.284,5.525s-.829,4.791-2.283,5.524ZM3,14.208c0-2.445,.786-4.056,2.604-5.004-.688,1.263-1.024,2.924-1.024,5.004,0,2.056,.347,3.713,1.047,4.979-1.819-.958-2.627-2.572-2.627-4.979Zm15.396,5.004c.688-1.263,1.023-2.924,1.023-5.004s-.335-3.742-1.024-5.004c1.818,.948,2.604,2.56,2.604,5.004s-.786,4.056-2.604,5.004Z"/>
</svg>
