<?xml version="1.0" encoding="UTF-8"?>
<svg xmlns="http://www.w3.org/2000/svg" id="Layer_1" data-name="Layer 1" viewBox="0 0 24 24">
  <path d="M16.599,8.234c-1.391-1.765-4.44-5.061-7.807-5.061-.493,0-.927,.249-1.161,.666-.566,1.007,.355,3.17,1.216,4.791-.831,.094-1.643,.223-2.146,.308-1.201-1.033-3.159-1.885-4.404-1.619-.594,.127-1.038,.503-1.22,1.034-.089,.259-.318,.928,.91,3.647-1.226,2.716-.999,3.384-.911,3.643,.182,.534,.63,.915,1.232,1.043,1.258,.268,3.198-.568,4.38-1.587,.501,.079,1.312,.199,2.141,.287-.854,1.618-1.765,3.773-1.2,4.774,.235,.416,.669,.665,1.162,.665,3.367,0,6.417-3.296,7.807-5.061,5.276-.512,6.401-2.319,6.401-3.766s-1.125-3.253-6.401-3.766Zm-.604,5.576c-.285,.023-.547,.167-.719,.396-1.492,1.979-3.693,4.079-5.716,4.531,.289-.906,1.027-2.479,1.777-3.72,.185-.307,.192-.689,.019-1.003-.174-.312-.502-.51-.86-.515-1.464-.021-3.939-.448-3.964-.453-.057-.01-.114-.015-.171-.015-.276,0-.543,.114-.734,.321-.678,.733-1.877,1.252-2.536,1.366,.159-.553,.515-1.465,.904-2.294,.126-.27,.126-.582,0-.851-.387-.822-.74-1.727-.901-2.28,.666,.128,1.867,.661,2.555,1.399,.234,.25,.581,.364,.915,.301,.025-.004,2.494-.463,3.951-.483,.359-.005,.688-.202,.861-.516,.174-.314,.166-.697-.021-1.003-.754-1.24-1.499-2.817-1.79-3.728,2.021,.454,4.221,2.552,5.712,4.53,.172,.228,.434,.372,.719,.395,3.959,.317,5.005,1.324,5.005,1.812s-1.046,1.495-5.005,1.811Z"/>
</svg>
