<?xml version="1.0" encoding="UTF-8"?>
<svg xmlns="http://www.w3.org/2000/svg" id="Layer_1" data-name="Layer 1" viewBox="0 0 24 24">
  <path d="M21.401,2.437c-.127-.307-.396-.53-.721-.598-.163-.034-4.064-.838-8.681-.838S3.483,1.804,3.319,1.838c-.326,.068-.596,.293-.722,.602-.048,.118-1.176,2.93-1.176,6.665,0,3.768,1.129,6.552,1.177,6.668,.126,.306,.396,.53,.72,.598,.094,.02,1.416,.291,3.393,.52l.912,5.279c.084,.486,.506,.83,.984,.83,.056,0,.114-.005,.171-.015,.544-.094,.909-.611,.815-1.156l-.163-.942c.839,.061,1.729,.098,2.506,.098,.816,0,1.761-.039,2.632-.102l-.163,.946c-.094,.544,.271,1.062,.815,1.156,.543,.095,1.062-.271,1.155-.815l.912-5.279c1.975-.229,3.299-.5,3.392-.52,.326-.068,.597-.293,.722-.602,.048-.118,1.177-2.93,1.177-6.665,0-3.768-1.13-6.552-1.178-6.668Zm-6.481,16.412c-.941,.083-2.065,.137-2.983,.137-.89,0-1.933-.051-2.857-.132l-.305-1.766c1.003,.074,2.092,.123,3.225,.123s2.222-.049,3.225-.123l-.304,1.762Zm-6.73-5.147c.8-.172,2.135-.388,3.81-.388s3.012,.215,3.81,.388l-.233,1.35c-1.095,.093-2.311,.159-3.576,.159s-2.482-.066-3.577-.159l-.233-1.349Zm11.536,.814c-.456,.081-1.177,.199-2.081,.315l.293-1.697c.084-.487-.2-.962-.669-1.119-.085-.029-2.135-.702-5.269-.702s-5.182,.672-5.268,.701c-.469,.156-.753,.632-.669,1.119l.293,1.697c-.906-.116-1.629-.235-2.085-.315-.294-.893-.85-2.914-.85-5.411,0-2.463,.559-4.506,.853-5.411,1.216-.215,4.305-.694,7.727-.694s6.516,.479,7.728,.694c.294,.898,.852,2.93,.852,5.411,0,2.463-.559,4.507-.854,5.411Z"/>
  <path d="M17.228,5.346c-1.819-.229-3.578-.346-5.228-.346s-3.407,.116-5.225,.345c-.431,.054-.777,.38-.857,.807-.188,.995-.283,1.989-.283,2.954,0,.552,.448,1,1,1s1-.448,1-1c0-.609,.044-1.233,.131-1.863,1.472-.161,2.893-.242,4.235-.242,1.321,0,2.772,.083,4.237,.243,.086,.625,.129,1.249,.129,1.862,0,.552,.447,1,1,1s1-.448,1-1c0-.973-.095-1.966-.281-2.953-.08-.427-.427-.752-.857-.807Z"/>
</svg>
