<?xml version="1.0" encoding="UTF-8"?>
<svg xmlns="http://www.w3.org/2000/svg" id="Layer_1" data-name="Layer 1" viewBox="0 0 24 24">
  <path d="M21.483,7.196c-.121-.312-.389-.543-.716-.617-.116-.026-2.797-.618-6.348-.831l-.385-.532c-.148-.204-.324-.383-.52-.534l.591-.325c.368-.202,.596-.587,.596-1.005s-.228-.804-.595-1.005l-2.188-1.204c-.36-.198-.787-.192-1.141,.018-.353,.208-.564,.578-.564,.987v2.631c-.149,.129-.284,.275-.401,.438l-.392,.542c-3.469,.221-6.076,.796-6.189,.821-.328,.073-.598,.306-.717,.62-.048,.126-1.177,3.135-1.177,7.137,0,4.037,1.13,7.016,1.178,7.141,.12,.312,.389,.543,.715,.617,.166,.037,4.107,.905,8.768,.905s8.602-.868,8.768-.905c.328-.073,.597-.306,.717-.62,.048-.126,1.177-3.135,1.177-7.138,0-4.036-1.13-7.016-1.178-7.141Zm-1.698,1.226c.089,.29,.205,.697,.323,1.198h-1.036c-1.16,0-2.255-.556-2.929-1.488l-.184-.254c1.721,.17,3.104,.407,3.825,.544Zm-11.909-.527l-.172,.237c-.674,.932-1.769,1.488-2.929,1.488h-.881c.117-.5,.232-.907,.322-1.198,.699-.133,2.015-.358,3.66-.527Zm2.973,13.087v-1.517c0-.629,.517-1.141,1.151-1.141s1.151,.512,1.151,1.141v1.517c-.378,.012-.762,.018-1.151,.018s-.773-.007-1.151-.019Zm8.936-.729c-.832,.158-2.538,.447-4.633,.615v-1.404c0-1.732-1.414-3.141-3.151-3.141s-3.151,1.409-3.151,3.141v1.404c-2.097-.169-3.805-.459-4.636-.616-.296-.955-.875-3.171-.875-5.915,0-.98,.076-1.898,.187-2.717h1.249c1.8,0,3.5-.866,4.549-2.316l2.109-2.915c.162-.224,.397-.248,.49-.248s.329,.024,.49,.248l2.109,2.915c1.049,1.45,2.75,2.316,4.55,2.316h1.403c.11,.817,.186,1.734,.186,2.717,0,2.709-.581,4.95-.877,5.916Z"/>
  <path d="M18.024,12.939h-1.007c-.553,0-1,.448-1,1s.447,1,1,1h1.007c.553,0,1-.448,1-1s-.447-1-1-1Z"/>
  <path d="M18.024,16.546h-1.007c-.553,0-1,.448-1,1s.447,1,1,1h1.007c.553,0,1-.448,1-1s-.447-1-1-1Z"/>
  <path d="M6.982,12.939h-1.007c-.552,0-1,.448-1,1s.448,1,1,1h1.007c.552,0,1-.448,1-1s-.448-1-1-1Z"/>
  <path d="M6.982,16.546h-1.007c-.552,0-1,.448-1,1s.448,1,1,1h1.007c.552,0,1-.448,1-1s-.448-1-1-1Z"/>
  <path d="M12,10.677c-.95,0-1.724,.77-1.724,1.716s.773,1.716,1.724,1.716,1.724-.77,1.724-1.716-.773-1.716-1.724-1.716Z"/>
</svg>
