<?xml version="1.0" encoding="UTF-8"?>
<svg xmlns="http://www.w3.org/2000/svg" id="Layer_1" data-name="Layer 1" viewBox="0 0 24 24">
  <path d="M19.621,5.79l.318-2.553c.065-.519-.281-1-.793-1.104-.154-.031-3.825-.766-8.147-.766s-7.993,.735-8.146,.766c-.512,.104-.858,.585-.793,1.104l1.796,14.423c.045,.362,.283,.67,.622,.805,.084,.034,2.101,.817,6.522,.817s6.438-.784,6.522-.817c.338-.135,.577-.443,.622-.805l.377-3.028s.007,0,.011,0c2.465,0,4.47-2.014,4.47-4.488,0-2.1-1.412-3.866-3.379-4.354Zm-8.622,11.492c-2.738,0-4.441-.318-5.24-.518L4.161,3.933c1.328-.214,3.953-.566,6.838-.566s5.508,.353,6.838,.566l-1.598,12.832c-.802,.2-2.504,.518-5.24,.518Zm7.772-4.662l.6-4.818c.961,.345,1.63,1.264,1.63,2.342,0,1.29-.98,2.354-2.23,2.476Z"/>
  <path d="M19.998,20.633H2c-.552,0-1,.448-1,1s.448,1,1,1H19.998c.552,0,1-.448,1-1s-.448-1-1-1Z"/>
</svg>
