<?xml version="1.0" encoding="UTF-8"?>
<svg xmlns="http://www.w3.org/2000/svg" id="Layer_1" data-name="Layer 1" viewBox="0 0 24 24">
  <path d="M17.557,8.015c-.553,0-1,.447-1,1v.438h-1.203c-1.452,0-2.633,1.181-2.633,2.633v1.562c0,.553,.447,1,1,1h2.203c1.452,0,2.633-1.181,2.633-2.633v-3c0-.553-.447-1-1-1Zm-1,4c0,.349-.284,.633-.633,.633h-1.203v-.562c0-.349,.284-.633,.633-.633h1.203v.562Z"/>
  <path d="M8.646,9.453h-1.203v-.438c0-.553-.447-1-1-1s-1,.447-1,1v3c0,1.452,1.181,2.633,2.633,2.633h2.203c.553,0,1-.447,1-1v-1.562c0-1.452-1.181-2.633-2.633-2.633Zm.633,3.194h-1.203c-.349,0-.633-.284-.633-.633v-.562h1.203c.349,0,.633,.284,.633,.633v.562Z"/>
  <path d="M11.991,1c-3.403-.004-5.9,.804-7.627,2.522-1.939,1.931-2.84,4.941-2.834,9.477,.005,3.664,.508,7.66,4.204,9.525,1.562,.79,3.493,.438,4.815-.89,.58-.58,1.06-.862,1.464-.862h.002c.411,0,.902,.286,1.522,.91,.832,.862,1.935,1.32,3.036,1.32,.593,0,1.186-.133,1.736-.405,3.674-1.817,4.164-5.814,4.159-9.483-.008-5.609-1.205-12.056-10.479-12.114Zm5.433,19.805c-.79,.395-1.773,.188-2.446-.511-.004-.004-.079-.08-.083-.084-.959-.965-1.899-1.436-2.875-1.438h-.006c-1.28,0-2.255,.825-2.895,1.463-.696,.701-1.696,.9-2.483,.504-2.2-1.11-3.1-3.354-3.105-7.742-.005-3.968,.708-6.527,2.245-8.057,1.329-1.324,3.381-1.938,6.204-1.94,6.1,.039,8.48,2.875,8.49,10.116,.006,4.445-.848,6.602-3.046,7.688Z"/>
</svg>
