<?xml version="1.0" encoding="UTF-8"?>
<svg xmlns="http://www.w3.org/2000/svg" id="Layer_1" data-name="Layer 1" viewBox="0 0 24 24">
  <path d="M19.303,10.071c-.089-4.032-3.337-7.284-7.316-7.284-4.035,0-7.317,3.344-7.317,7.454,0,.27,.014,.54,.042,.807-2.151,.612-3.712,2.622-3.712,4.986,0,2.855,2.283,5.178,5.09,5.178h11.264c3.113,0,5.646-2.578,5.646-5.747,0-2.428-1.512-4.575-3.697-5.395Zm-1.949,9.141H6.09c-1.704,0-3.09-1.425-3.09-3.178,0-1.691,1.285-3.085,2.925-3.174,.298-.016,.574-.165,.751-.406,.177-.241,.237-.549,.164-.838-.113-.446-.17-.909-.17-1.375,0-3.007,2.385-5.454,5.317-5.454s5.318,2.446,5.318,5.454c0,.163-.008,.325-.021,.484-.045,.506,.297,.964,.794,1.067,1.693,.35,2.923,1.895,2.923,3.673,0,2.066-1.636,3.747-3.646,3.747Z"/>
</svg>
