<?xml version="1.0" encoding="UTF-8"?>
<svg xmlns="http://www.w3.org/2000/svg" id="Layer_1" data-name="Layer 1" viewBox="0 0 24 24">
  <path d="M22.999,8.69c-.056-4.715-3.462-6.827-11.034-6.843h-.093c-4.665,0-7.617,.78-9.284,2.454-1.081,1.085-1.6,2.528-1.588,4.413,0,.005,0,.01,0,.015h0v6.552c.042,4.736,3.445,6.856,11.035,6.873h.093c4.666,0,7.618-.78,9.285-2.455,1.08-1.085,1.6-2.528,1.588-4.427v-6.543c0-.013,0-.026,0-.038ZM4.006,5.712c1.25-1.255,3.823-1.865,7.866-1.865h.089c7.917,.018,9.023,2.37,9.04,4.911,.009,1.341-.311,2.29-1.005,2.987-1.251,1.256-3.824,1.866-7.867,1.866h-.089c-7.917-.018-9.023-2.37-9.04-4.91-.008-1.342,.311-2.292,1.006-2.989Zm15.989,12.575c-1.251,1.256-3.824,1.866-7.867,1.866h-.089c-7.906-.018-9.017-2.361-9.04-4.882v-1.822c1.761,1.463,4.721,2.153,9.035,2.162h.093c4.303,0,7.148-.664,8.873-2.081v1.769c.009,1.341-.311,2.29-1.005,2.987Z"/>
</svg>
