<?xml version="1.0" encoding="UTF-8"?>
<svg xmlns="http://www.w3.org/2000/svg" id="Layer_1" data-name="Layer 1" viewBox="0 0 24 24">
  <path d="M21.745,6.11c-.142-.285-.411-.486-.725-.541-.17-.029-4.224-.723-9.021-.723s-8.85,.693-9.02,.723c-.315,.055-.586,.257-.727,.544-.051,.104-1.253,2.589-1.253,5.886,0,3.325,1.204,5.787,1.255,5.89,.142,.285,.411,.486,.725,.541,.17,.029,4.224,.723,9.021,.723s8.85-.693,9.02-.723c.315-.055,.586-.257,.727-.544,.051-.104,1.253-2.589,1.253-5.886,0-3.325-1.204-5.787-1.255-5.89ZM3,12c0-2.05,.551-3.759,.854-4.543,.404-.06,1.022-.145,1.796-.233-.362,1.106-.775,2.801-.775,4.777s.411,3.674,.772,4.776c-.775-.088-1.393-.174-1.797-.233-.303-.774-.851-2.462-.851-4.543Zm4.856,4.987c-.284-.678-.981-2.583-.981-4.987,0-2.364,.698-4.296,.983-4.987,1.245-.096,2.663-.166,4.142-.166s2.898,.071,4.144,.167c.284,.678,.981,2.583,.981,4.987,0,2.364-.698,4.296-.983,4.987-1.245,.096-2.663,.166-4.142,.166s-2.898-.071-4.144-.167Zm12.29-.443c-.404,.06-1.022,.145-1.796,.233,.362-1.106,.775-2.801,.775-4.777s-.411-3.674-.772-4.776c.775,.088,1.393,.174,1.797,.233,.303,.774,.851,2.462,.851,4.543,0,2.05-.551,3.759-.854,4.543Z"/>
  <g>
    <g>
      <circle cx="14" cy="10" r=".987"/>
      <circle cx="10" cy="10" r=".987"/>
    </g>
    <g>
      <circle cx="14" cy="14" r=".987"/>
      <circle cx="10" cy="14" r=".987"/>
    </g>
  </g>
</svg>
