<?xml version="1.0" encoding="UTF-8"?>
<svg xmlns="http://www.w3.org/2000/svg" id="Layer_1" data-name="Layer 1" viewBox="0 0 24 24">
  <ellipse cx="15.545" cy="3.67" rx="2.471" ry="2.44" transform="translate(9.676 18.525) rotate(-81.727)"/>
  <path d="M22,18.113c-.552,0-1,.448-1,1,0,.886-.678,1.615-1.54,1.693l2.288-11.431c.108-.542-.243-1.068-.784-1.177-.545-.109-1.068,.243-1.177,.784l-.166,.83c-1.299-.219-2.44-.974-3.147-2.086-.147-.232-.384-.393-.654-.445l-5.925-1.142c-1.461-.239-2.963,.159-4.113,1.097-.428,.349-.492,.979-.143,1.407,.35,.429,.979,.493,1.407,.143,.706-.576,1.625-.821,2.497-.678l.992,.191c-.893,1.722-1.428,3.589-1.59,5.55-.037,.333,.1,.674,.358,.889,.069,.058,.145,.105,.227,.143,2.446,1.11,4.213,3.333,4.776,5.932h-4.535l1.459-2.011c.324-.447,.225-1.072-.223-1.396-.446-.323-1.071-.225-1.396,.223l-2.31,3.185h-3.048l1.866-9.321c.108-.542-.243-1.068-.784-1.177-.546-.11-1.068,.243-1.177,.784l-1.944,9.714h-.212c-.552,0-1,.448-1,1s.448,1,1,1H19.308c2.036,0,3.692-1.66,3.692-3.7,0-.552-.448-1-1-1Zm-10.994-4.73c.221-1.688,.746-3.231,1.592-4.686l1.729,.333-1.073,3.272c-.172,.525,.129,1.112,.639,1.262,.633,.186,1.124-.217,1.262-.639l.878-2.679c.891,.772,1.986,1.302,3.196,1.524l-1.81,9.043h-1.077c-.548-3.155-2.525-5.908-5.337-7.431Z"/>
</svg>
