<?xml version="1.0" encoding="UTF-8"?>
<svg xmlns="http://www.w3.org/2000/svg" id="Layer_1" data-name="Layer 1" viewBox="0 0 24 24">
  <path d="M22.136,14.723c-1.992-4.587-4.888-8.979-8.605-13.052-.779-.854-2.281-.854-3.061,0C6.752,5.745,3.856,10.136,1.864,14.723c-.148,.341-.095,.735,.138,1.025l.117,.146c2.406,2.981,5.688,5.411,9.49,7.026,.124,.053,.258,.08,.391,.08s.267-.026,.391-.08c3.803-1.616,7.084-4.045,9.491-7.028l.116-.145c.232-.29,.286-.684,.138-1.025Zm-18.19,.241c1.715-3.79,4.084-7.442,7.055-10.879V20.434c-2.751-1.385-5.209-3.286-7.055-5.47Zm9.055,5.47V4.085c2.97,3.437,5.339,7.089,7.055,10.879-1.846,2.184-4.304,4.085-7.055,5.47Z"/>
</svg>
