<?xml version="1.0" encoding="UTF-8"?>
<svg xmlns="http://www.w3.org/2000/svg" id="Layer_1" data-name="Layer 1" viewBox="0 0 24 24">
  <path d="M22.436,10.38c-.139-.312-.427-.532-.765-.584-.017-.003-.068-.01-.152-.022-1.249-3.085-3.096-5.35-3.175-5.447-.121-.147-.281-.257-.462-.315-.078-.026-1.941-.627-4.362-.769-.271-.009-.544,.081-.745,.271-.2,.189-.313,.452-.313,.728v4.882c-.155-.001-.31-.002-.467-.002-5.136,0-9.493,.647-9.677,.675-.347,.053-.641,.283-.774,.607-.022,.054-.543,1.332-.543,2.956,0,1.651,.532,2.854,.555,2.905,.137,.304,.416,.521,.746,.576,.055,.009,.484,.081,1.197,.176v.778c0,1.635,1.322,2.964,2.947,2.964s2.947-1.329,2.947-2.964v-.257c.831,.036,1.704,.058,2.602,.058s1.778-.022,2.613-.059v.257c0,1.635,1.322,2.964,2.947,2.964s2.947-1.329,2.947-2.964v-.78c.706-.095,1.131-.165,1.186-.174,.332-.057,.614-.275,.75-.584,.022-.053,.563-1.301,.563-2.937,0-1.65-.541-2.889-.564-2.94Zm-7.975-5.044c1.156,.142,2.08,.372,2.521,.494,.399,.525,1.382,1.893,2.231,3.669-1.253-.127-2.901-.261-4.751-.331v-3.832Zm-7.068,12.459c0,.531-.425,.964-.947,.964s-.947-.433-.947-.964v-.543c.575,.059,1.211,.116,1.895,.167v.375Zm11.109,0c0,.531-.425,.964-.947,.964s-.947-.433-.947-.964v-.377c.684-.051,1.32-.109,1.895-.168v.544Zm2.269-2.838c-1.35,.194-4.865,.64-8.776,.64s-7.429-.445-8.777-.64c-.103-.374-.217-.938-.217-1.598,0-.67,.118-1.267,.226-1.668,1.37-.176,4.879-.57,8.769-.57s7.421,.396,8.781,.571c.106,.384,.225,.96,.225,1.628s-.121,1.25-.229,1.637Z"/>
</svg>
