<?xml version="1.0" encoding="UTF-8"?>
<svg xmlns="http://www.w3.org/2000/svg" id="Layer_1" data-name="Layer 1" viewBox="0 0 24 24">
  <path d="M5.469,12.86c-2.965,0-4.469,1.507-4.469,4.48,0,3.015,1.462,4.48,4.469,4.48,2.965,0,4.469-1.507,4.469-4.48,0-3.015-1.462-4.48-4.469-4.48Zm0,6.96c-1.673,0-2.469-.371-2.469-2.48s.796-2.48,2.469-2.48,2.469,.371,2.469,2.48-.796,2.48-2.469,2.48Z"/>
  <path d="M18.531,12.86c-2.965,0-4.469,1.507-4.469,4.48,0,3.015,1.462,4.48,4.469,4.48,2.965,0,4.469-1.507,4.469-4.48,0-3.015-1.462-4.48-4.469-4.48Zm0,6.96c-1.673,0-2.469-.371-2.469-2.48s.796-2.48,2.469-2.48,2.469,.371,2.469,2.48-.796,2.48-2.469,2.48Z"/>
  <path d="M15.736,6.444c1.353,0,2.128-.777,2.128-2.132s-.775-2.132-2.128-2.132-2.129,.777-2.129,2.132,.776,2.132,2.129,2.132Z"/>
  <path d="M12.577,8.643l.905,.892c.974,.96,2.262,1.489,3.627,1.489h1.057c.553,0,1-.448,1-1s-.447-1-1-1h-1.057c-.837,0-1.626-.324-2.223-.913l-1.278-1.259c-.217-.214-.52-.315-.821-.28-2.162,.26-3.956,1.86-4.464,3.982-.076,.317,.008,.652,.224,.896l1.583,1.786c.566,.596,.879,1.378,.879,2.202v1.903c0,.552,.447,1,1,1s1-.448,1-1v-1.903c0-1.339-.508-2.611-1.405-3.554l-1.184-1.335c.383-.933,1.186-1.643,2.157-1.905Z"/>
</svg>
