<?xml version="1.0" encoding="UTF-8"?>
<svg xmlns="http://www.w3.org/2000/svg" id="Layer_1" data-name="Layer 1" viewBox="0 0 24 24">
  <path d="M21.402,16.488c.235-1.547,.354-3.1,.354-4.625,0-4.629-1.081-8.04-1.127-8.183-.104-.323-.365-.572-.693-.659-.162-.043-4.009-1.058-8.558-1.058S2.983,2.977,2.821,3.02c-.33,.088-.591,.338-.695,.663-.046,.145-1.126,3.589-1.126,8.18,0,4.63,1.081,8.04,1.127,8.183,.104,.323,.365,.572,.693,.66,.162,.043,4.009,1.058,8.557,1.058,.951,0,1.943-.045,2.95-.134,.55-.049,.957-.534,.908-1.084-.048-.55-.524-.946-1.084-.908-.948,.084-1.881,.126-2.773,.126-3.318,0-6.307-.59-7.496-.859-.087-.332-.203-.81-.322-1.408H13.808c1.481,0,2.687-1.205,2.687-2.687V4.374c1.043,.16,1.874,.333,2.38,.447,.286,1.089,.881,3.756,.881,7.041,0,1.445-.115,2.917-.341,4.385-1.29,.304-2.253,1.469-2.253,2.856,0,1.618,1.31,2.934,2.919,2.934s2.919-1.316,2.919-2.934c0-1.14-.651-2.13-1.598-2.615Zm-6.907-5.441H3.012c.026-.874,.092-1.697,.179-2.448H14.494v2.448Zm-.687,4.448H3.234c-.095-.743-.171-1.566-.209-2.448H14.494v1.762c0,.378-.308,.687-.687,.687Zm.687-8.896H3.492c.143-.77,.288-1.379,.392-1.778,1.192-.269,4.185-.859,7.495-.859,1.092,0,2.148,.064,3.116,.159v2.478Zm5.587,13.438c-.507,0-.919-.419-.919-.934s.413-.934,.919-.934,.919,.419,.919,.934-.412,.934-.919,.934Z"/>
</svg>
