<?xml version="1.0" encoding="UTF-8"?>
<svg xmlns="http://www.w3.org/2000/svg" id="Layer_1" data-name="Layer 1" viewBox="0 0 24 24">
  <path d="M12,1.798C6.879,1.798,1,3.048,1,12.798c0,3.87,.905,6.631,2.767,8.44,.123,.12,.274,.205,.44,.25,.109,.028,2.742,.714,7.793,.714s7.697-.685,7.808-.714c.167-.044,.319-.131,.442-.251,1.851-1.806,2.75-4.565,2.75-8.439C23,3.048,17.121,1.798,12,1.798Zm7.042,17.814c-.752,.159-3.145,.59-7.042,.59s-6.28-.431-7.026-.59c-1.328-1.425-1.974-3.658-1.974-6.814C3,5.328,6.598,3.798,12,3.798s9,1.53,9,9c0,3.159-.642,5.393-1.958,6.814Z"/>
  <path d="M12,10.585c-.257,0-.504,.045-.734,.126l-2.977-2.621c-.415-.364-1.045-.325-1.412,.09-.364,.415-.324,1.047,.09,1.412l2.915,2.566c-.061,.203-.095,.417-.095,.64,0,1.22,.993,2.213,2.213,2.213s2.213-.993,2.213-2.213-.993-2.213-2.213-2.213Z"/>
  <path d="M7,12.798c0-.553-.447-1-1-1s-1,.447-1,1c0,1.501,.165,2.763,.489,3.749,.139,.421,.53,.688,.95,.688,.104,0,.209-.016,.312-.05,.524-.173,.811-.738,.638-1.263-.255-.773-.39-1.854-.39-3.124Z"/>
  <path d="M12,5.798c-.553,0-1,.447-1,1s.447,1,1,1c3.988,0,5,.491,5,5,0,1.271-.133,2.353-.385,3.128-.171,.525,.117,1.089,.643,1.26,.103,.033,.206,.049,.309,.049,.422,0,.813-.269,.951-.691,.32-.985,.482-2.246,.482-3.745,0-5.952-2.257-7-7-7Z"/>
</svg>
