<?xml version="1.0" encoding="UTF-8"?>
<svg xmlns="http://www.w3.org/2000/svg" id="Layer_1" data-name="Layer 1" viewBox="0 0 24 24">
  <path d="M20.49,6.899c-.438-.41-.92-.749-1.439-1.014,.366-1.799-.15-3.594-.66-4.108-.507-.509-1.82-.776-2.854-.777h-.005c-1.065,0-2.583,.253-3.784,1.454-.354,.354-.631,.746-.845,1.156-.916-1.048-2.218-1.761-3.709-1.899-.548-.057-1.037,.354-1.088,.904-.051,.55,.354,1.036,.903,1.088,1.275,.118,2.336,.889,2.886,1.953-.499-.187-1.04-.306-1.612-.352-1.771-.129-3.556,.458-4.773,1.595-1.113,1.041-2.401,3.153-2.368,5.681,.033,2.552,1.338,4.99,3.879,7.245,2.373,2.106,4.721,3.175,6.979,3.175s4.607-1.068,6.979-3.175c2.541-2.255,3.846-4.693,3.879-7.245,.033-2.527-1.255-4.64-2.368-5.681Zm-7.328-3.031c1.193-1.195,3.178-.871,3.785-.65,.222,.61,.55,2.611-.647,3.81-1.189,1.191-3.174,.864-3.778,.643-.223-.606-.556-2.604,.641-3.802Zm4.489,14.461c-1.996,1.772-3.897,2.671-5.651,2.671s-3.656-.898-5.652-2.671c-2.102-1.866-3.181-3.809-3.207-5.775-.026-2.005,1.078-3.579,1.734-4.193,.802-.749,2.039-1.156,3.25-1.062,.997,.078,1.828,.483,2.359,1.164,1.654,1.994,1.374,4.968-.624,6.629-.425,.353-.483,.983-.13,1.408,.353,.424,.984,.481,1.408,.129,2.041-1.697,2.822-4.357,2.237-6.765,.19,.016,.378,.025,.557,.025h.01c1.064,0,2.579-.252,3.772-1.447,.219-.219,.409-.453,.572-.696,.298,.168,.578,.374,.836,.615,.657,.614,1.761,2.188,1.735,4.193-.026,1.967-1.105,3.909-3.208,5.775Z"/>
</svg>
