<?xml version="1.0" encoding="UTF-8"?>
<svg xmlns="http://www.w3.org/2000/svg" id="Layer_1" data-name="Layer 1" viewBox="0 0 24 24">
  <path d="M18.76,18.004c-.15-.225-.384-.379-.65-.428-.074-.014-.149-.027-.223-.04l-2.045-9.9c.424-.116,.735-.504,.735-.964,0-.212-.066-.408-.179-.57,.696-1.324,.897-2.866,.546-4.335-.068-.284-.256-.523-.515-.657-.259-.133-.562-.146-.833-.038l-2.078,.841-.903-.703c-.361-.282-.868-.282-1.229,0l-.903,.703-2.078-.841c-.272-.109-.579-.092-.84,.043-.26,.137-.448,.383-.512,.67-.326,1.453-.114,2.973,.579,4.276-.13,.169-.208,.38-.208,.61,0,.46,.311,.848,.735,.964l-2.045,9.9c-.074,.013-.149,.026-.223,.04-.267,.049-.503,.206-.653,.432-.038,.058-.937,1.439-.937,3.263,0,.307,.025,.6,.066,.875,.073,.49,.494,.853,.989,.853h13.288c.495,0,.915-.362,.989-.851,.042-.277,.067-.57,.067-.877,0-1.84-.901-3.21-.939-3.268ZM10.267,3.985c.331,.135,.708,.082,.99-.138l.743-.579,.743,.579c.283,.22,.66,.274,.99,.138l1.375-.557c-.041,.776-.296,1.535-.748,2.187l-.04,.058h-4.576l-.064-.09c-.45-.633-.711-1.373-.764-2.145l1.351,.547Zm-.073,3.688h3.613l1.975,9.56c-2.503-.28-5.06-.28-7.563,0l1.975-9.56Zm-3.882,13.327c.047-.649,.254-1.203,.411-1.539,3.464-.584,7.095-.584,10.56,0,.156,.333,.361,.882,.408,1.539H6.311Z"/>
</svg>
