<?xml version="1.0" encoding="UTF-8"?>
<svg xmlns="http://www.w3.org/2000/svg" id="Layer_1" data-name="Layer 1" viewBox="0 0 24 24">
  <path d="M15.825,14.852h-1.657l.466-2.08c.083-.369-.05-.754-.343-.993-.125-.103-1.266-1.001-2.686-1.001-1.448,0-2.585,.9-2.71,1.003-.166,.137-.284,.323-.335,.532l-1.354,5.473c-.074,.299-.006,.614,.183,.856s.48,.384,.788,.384h1.617l-.383,2.841c-.045,.337,.075,.684,.342,.895,.42,.331,.842,.226,.937,.197,4.23-1.269,6.013-6.569,6.087-6.795,.1-.305,.048-.639-.14-.898-.188-.26-.489-.413-.81-.413Zm-4.181,5.41l.283-2.103c.039-.286-.048-.575-.238-.792s-.464-.342-.753-.342h-1.483l.957-3.865c.267-.161,.721-.383,1.195-.383,.323,0,.655,.116,.922,.246l-.584,2.609c-.066,.297,.006,.607,.196,.844,.189,.237,.477,.375,.78,.375h1.395c-.517,1.041-1.398,2.472-2.67,3.41Z"/>
  <path d="M19.133,8.114c-.095-3.939-3.264-7.114-7.146-7.114-3.941,0-7.147,3.272-7.147,7.296,0,.258,.013,.515,.04,.77-2.094,.608-3.61,2.572-3.61,4.882,0,2.287,1.511,4.301,3.674,4.898,.089,.024,.179,.036,.267,.036,.438,0,.841-.291,.963-.733,.147-.533-.166-1.084-.698-1.23-1.299-.358-2.206-1.58-2.206-2.971,0-1.637,1.239-2.985,2.82-3.072,.299-.016,.574-.165,.751-.405,.177-.241,.237-.549,.164-.839-.109-.432-.165-.882-.165-1.335,0-2.92,2.309-5.296,5.147-5.296s5.147,2.376,5.147,5.296c0,.16-.008,.317-.021,.475-.042,.504,.298,.961,.794,1.063,1.636,.339,2.823,1.835,2.823,3.559,0,1.512-.923,2.88-2.297,3.404-.516,.197-.774,.775-.577,1.292,.198,.517,.778,.771,1.291,.577,2.143-.819,3.583-2.938,3.583-5.273,0-2.373-1.471-4.472-3.598-5.278Z"/>
</svg>
