<?xml version="1.0" encoding="UTF-8"?>
<svg xmlns="http://www.w3.org/2000/svg" id="Layer_1" data-name="Layer 1" viewBox="0 0 24 24">
  <path d="M21.854,11.343c-.186-.275-.496-.439-.828-.439h-.552c-.06-.571-.191-1.385-.474-2.251-.186-.572-.434-1.132-.663-1.598,.211-.005,.424-.008,.639-.008,.348,0,.69,.007,1.023,.02,.32,.012,.585-.112,.783-.333,.198-.223,.287-.521,.242-.816-.342-2.261-.929-3.013-1.165-3.231-.129-.119-.286-.202-.458-.241-.165-.038-4.101-.918-8.756-.918S3.055,2.407,2.889,2.444c-.328,.075-.597,.309-.715,.624-.048,.127-1.173,3.171-1.173,7.22,0,4.083,1.126,7.097,1.174,7.223,.064,.17,.174,.318,.316,.431,.098,.077,.397,.283,1.03,.496v.855c0,1.754,1.422,3.181,3.17,3.181s3.17-1.427,3.17-3.181v-.245c1.584-.005,3.126-.018,3.676-.045,.012,0,.024,0,.036,0h.365v.289c0,1.754,1.422,3.181,3.17,3.181s3.171-1.427,3.171-3.181v-.289h.746c.278,0,.543-.115,.732-.319,.127-.137,1.242-1.403,1.242-3.707,0-1.917-1.1-3.564-1.146-3.633Zm-3.755-2.07c.198,.607,.304,1.188,.361,1.63h-4.689c.143-1.376,.396-2.622,.555-3.324,.598-.11,1.601-.274,2.818-.391,.231,.406,.682,1.248,.955,2.085Zm-15.099,1.015c0-.828,.053-1.612,.135-2.331H7.598c.126,.277,.263,.706,.263,1.265,0,.63-.12,1.035-.22,1.265H3.001c0-.066-.001-.132-.001-.199Zm3.691,10.185c-.646,0-1.17-.529-1.17-1.181v-.418c.647,.086,1.42,.148,2.34,.168v.25c0,.651-.525,1.181-1.17,1.181Zm1.803-3.424c-2.791,0-4.104-.401-4.565-.587-.2-.625-.609-2.071-.811-3.975h5.042c.24,0,.471-.086,.653-.243,.175-.151,1.048-1.006,1.048-3.022,0-1.75-.841-2.797-.938-2.91-.19-.225-.469-.354-.764-.354H3.456c.15-.721,.308-1.295,.422-1.674,1.221-.234,4.327-.757,7.766-.757,3.595,0,6.813,.568,7.913,.785,.068,.151,.158,.387,.252,.735-3.476,.021-6.401,.673-6.526,.701-.362,.082-.649,.358-.745,.717-.036,.134-.875,3.305-.875,6.369,0,1.723,.261,3.199,.503,4.198-.922,.011-2.22,.018-3.672,.018Zm9.785,2.243c0,.651-.525,1.181-1.171,1.181s-1.17-.529-1.17-1.181v-.289h2.341v.289Zm2.229-2.289h-6.282c-.226-.818-.554-2.307-.562-4.099h6.781c.236,.468,.556,1.254,.556,2.073,0,.979-.284,1.659-.492,2.026Z"/>
</svg>
