<?xml version="1.0" encoding="UTF-8"?>
<svg xmlns="http://www.w3.org/2000/svg" id="Layer_1" data-name="Layer 1" viewBox="0 0 24 24">
  <path d="M22.26,2.23c-.101-.216-.274-.39-.491-.488-.065-.03-6.097-2.689-11.908,2.508-1.663-.191-4.461-.171-6.057,1.718-1.435,1.697-2.628,5.454-2.759,5.877-.094,.303-.039,.633,.149,.889,.188,.256,.485,.407,.802,.408l1.727,.006c.335,.782,1.015,2.113,2.213,3.495l-.904,.904c-.391,.39-.401,1.034,0,1.414,.584,.555,1.219,.195,1.415,0l.904-.904c1.39,1.206,2.717,1.882,3.499,2.214l.006,1.722c0,.317,.154,.612,.408,.803,.361,.271,.791,.179,.888,.148,.423-.131,4.184-1.324,5.881-2.757,1.893-1.597,1.913-4.391,1.717-6.071,5.222-5.824,2.54-11.82,2.51-11.886ZM5.332,7.259c.635-.75,1.687-1.018,2.691-1.077-1.057,1.259-3.273,3.972-4.084,4.967l-.539-.002c.485-1.31,1.225-3.051,1.932-3.888Zm4.5-.119C14.376,1.83,19.237,2.97,20.582,3.426c.461,1.343,1.602,6.169-3.731,10.725h0c-.965,.825-4.037,3.344-5.192,4.29-.729-.308-2.192-1.046-3.626-2.479-1.422-1.421-2.168-2.894-2.48-3.627,.945-1.158,3.457-4.232,4.281-5.195Zm6.911,11.52c-.837,.706-2.581,1.446-3.893,1.932l-.002-.539c.995-.815,3.714-3.043,4.968-4.097-.059,.989-.318,2.069-1.073,2.705Z"/>
  <g>
    <path d="M16.49,6.511c-.552,0-.999,.447-.999,.999s.447,.999,.999,.999,.999-.447,.999-.999-.447-.999-.999-.999Z"/>
    <path d="M13.68,9.327c-.552,0-.999,.447-.999,.999s.447,.999,.999,.999,.999-.447,.999-.999-.447-.999-.999-.999Z"/>
    <path d="M10.87,12.137c-.552,0-.999,.447-.999,.999s.447,.999,.999,.999,.999-.447,.999-.999-.447-.999-.999-.999Z"/>
  </g>
</svg>
