<?xml version="1.0" encoding="UTF-8"?>
<svg xmlns="http://www.w3.org/2000/svg" id="Layer_1" data-name="Layer 1" viewBox="0 0 24 24">
  <path d="M17.953,8.949c-1.021,0-1.964,.212-2.806,.496,.558-.601,1.53-1.031,3.12-1.464,1.54-.419,2.471-1.933,2.164-3.522-.282-1.462-1.711-2.808-4.233-2.51-1.179,.137-2.298,.681-3.198,1.482v-.563c0-.552-.447-1-1-1s-1,.448-1,1v.563c-.901-.8-2.019-1.345-3.198-1.482-2.53-.293-3.95,1.048-4.233,2.51-.307,1.589,.624,3.104,2.164,3.522,1.59,.433,2.562,.862,3.12,1.463-.843-.284-1.786-.496-2.805-.496-5.047,0-5.047,2.203-5.047,6.592,0,4.128,2.896,6.592,7.749,6.592,1.129,0,1.976-.569,2.595-.984,.219-.147,.549-.369,.651-.387,.129,.012,.484,.25,.72,.406,.611,.407,1.448,.965,2.536,.965,4.853,0,7.749-2.464,7.749-6.592,0-4.389,0-6.592-5.047-6.592Zm-1.524-5.014c1.141-.135,1.904,.205,2.039,.903,.09,.468-.133,1.053-.726,1.214-1.869,.509-3.84,1.209-4.742,3.016v-1.913c.331-1.626,1.822-3.033,3.429-3.22ZM6.258,6.051c-.593-.161-.815-.746-.726-1.214,.134-.698,.896-1.039,2.039-.903,1.607,.187,3.098,1.594,3.429,3.22v1.913c-.902-1.807-2.874-2.508-4.742-3.016Zm8.993,14.082c-.482,0-.941-.306-1.427-.629-.548-.365-1.114-.742-1.824-.742-.69,0-1.24,.369-1.771,.727-.494,.332-.96,.645-1.479,.645-2.623,0-5.749-.797-5.749-4.592,0-4.506,0-4.592,3.047-4.592,1.52,0,2.966,.676,4.022,1.169,.799,.373,1.376,.643,1.931,.643s1.136-.271,1.937-.645c1.113-.52,2.498-1.167,4.017-1.167,3.047,0,3.047,.086,3.047,4.592,0,3.795-3.126,4.592-5.749,4.592Z"/>
  <path d="M17.953,12.949c-1.073,0-2.188,.52-3.171,.979-.916,.428-1.781,.833-2.782,.833s-1.862-.403-2.777-.831c-.936-.438-2.099-.981-3.212-.981-.544,0-.988,.435-1,.979-.011,.507-.011,1.091-.011,1.613,0,1.708,1.028,2.505,3.334,2.585,.011,0,.368,.019,.589-.167l.191-.131c.632-.424,1.588-1.065,2.886-1.065,1.315,0,2.289,.648,3.005,1.126l.099,.067c.176,.118,.384,.18,.596,.169,2.282-.086,3.301-.883,3.301-2.584,0-.522,0-1.106-.011-1.613-.012-.544-.492-.979-1.036-.979Z"/>
</svg>
