<?xml version="1.0" encoding="UTF-8"?>
<svg xmlns="http://www.w3.org/2000/svg" id="Layer_1" data-name="Layer 1" viewBox="0 0 24 24">
  <path d="M19.51,1.296c-.331-.335-.849-.393-1.245-.141-.182,.115-4.51,2.878-9.338,7.75C4.099,13.775,1.354,18.147,1.239,18.331c-.245,.394-.188,.904,.139,1.233,2.1,2.119,5.531,3.436,8.955,3.436,2.395,0,5.886-.642,8.916-3.699,5.83-5.881,3.854-14.379,.261-18.005Zm-1.681,16.597c-2.546,2.568-5.481,3.107-7.496,3.107-2.556,0-5.185-.888-6.938-2.306,.958-1.41,3.383-4.781,6.951-8.381,3.549-3.58,6.88-6.023,8.286-6.997,2.692,3.38,3.652,10.081-.804,14.576Z"/>
  <path d="M18.529,7.398c-.516-.514-1.294-.493-1.517-.451-.942,.175-.9,1.023-.9,1.125,0,.337,.069,.888,.465,1.28,.554,.554,1.391,.551,1.947-.006,.267-.266,.419-.625,.419-.984v-.003c0-.356-.148-.698-.414-.961Z"/>
  <path d="M7.84,16.108c-.942,.175-.9,1.023-.9,1.125,0,.337,.069,.888,.465,1.28,.554,.554,1.391,.551,1.947-.006,.267-.266,.419-.625,.419-.984v-.003c0-.356-.148-.698-.414-.961-.516-.514-1.294-.493-1.517-.451Z"/>
  <path d="M15.413,11.458c-.942,.175-.9,1.023-.9,1.125,0,.337,.069,.888,.465,1.28,.554,.554,1.391,.551,1.947-.006,.267-.266,.419-.625,.419-.984v-.003c0-.356-.148-.698-.414-.961-.516-.514-1.294-.493-1.517-.451Z"/>
  <path d="M12.363,14.519c-.942,.175-.9,1.023-.9,1.125,0,.337,.069,.888,.465,1.28,.554,.554,1.391,.551,1.947-.006,.267-.266,.419-.625,.419-.984v-.003c0-.356-.148-.698-.414-.961-.516-.514-1.294-.493-1.517-.451Z"/>
</svg>
