<?xml version="1.0" encoding="UTF-8"?>
<svg xmlns="http://www.w3.org/2000/svg" id="Layer_1" data-name="Layer 1" viewBox="0 0 24 24">
  <path d="M21.457,7.122h-1.177c-.088-.767-.283-1.422-.588-1.968l.657-.65c.393-.389,.396-1.021,.008-1.414-.388-.393-1.022-.397-1.414-.008l-.669,.661c-.554-.307-1.221-.502-2.002-.59v-1.154c0-.552-.447-1-1-1s-1,.448-1,1v1.153c-.785,.087-1.451,.283-2.006,.592l-.662-.66c-.392-.39-1.024-.389-1.414,.002-.39,.391-.39,1.024,.002,1.414l1.267,1.263c.389,.388,1.016,.39,1.406,.006,.453-.444,1.263-.669,2.407-.669,2.574,0,3.062,1.062,3.062,3.021,0,.694-.075,1.236-.229,1.656-.19,.518,.075,1.093,.594,1.283,.114,.042,.23,.062,.345,.062,.407,0,.79-.251,.938-.656,.146-.398,.246-.842,.301-1.344h1.174c.553,0,1-.448,1-1s-.447-1-1-1Z"/>
  <path d="M19.446,15.449c-.189-2.585-2.355-4.63-4.989-4.63-2.759,0-5.004,2.243-5.004,5,0,.076,.002,.153,.005,.229-1.366,.511-2.329,1.828-2.329,3.362,0,1.979,1.61,3.59,3.591,3.59h7.138c2.175,0,3.944-1.769,3.944-3.942,0-1.582-.952-2.99-2.355-3.609Zm-1.589,5.551h-7.138c-.877,0-1.591-.713-1.591-1.59,0-.846,.661-1.542,1.505-1.587,.3-.016,.576-.165,.754-.407,.177-.242,.236-.551,.161-.841-.063-.247-.096-.501-.096-.755,0-1.654,1.348-3,3.004-3s3.003,1.346,3.003,3c0,.091-.005,.182-.012,.271-.043,.506,.301,.963,.798,1.063,.901,.183,1.556,.983,1.556,1.904,0,1.071-.872,1.942-1.944,1.942Z"/>
  <path d="M8.872,8.954c.8,0,1.553,.311,2.121,.876,.391,.39,1.025,.388,1.414-.003,.39-.392,.388-1.025-.004-1.415-.944-.94-2.199-1.458-3.531-1.458-2.759,0-5.004,2.243-5.004,5,0,.076,.002,.152,.005,.229-1.366,.512-2.33,1.829-2.33,3.362,0,1.979,1.611,3.59,3.592,3.59,.553,0,1-.448,1-1s-.447-1-1-1c-.878,0-1.592-.713-1.592-1.59,0-.845,.661-1.542,1.506-1.587,.3-.016,.576-.166,.754-.407,.178-.242,.236-.551,.161-.842-.063-.246-.096-.5-.096-.754,0-1.654,1.348-3,3.004-3Z"/>
</svg>
