<?xml version="1.0" encoding="UTF-8"?>
<svg xmlns="http://www.w3.org/2000/svg" id="Layer_1" data-name="Layer 1" viewBox="0 0 24 24">
  <path d="M16.788,11.551c-.056-.109-1.373-2.68-4.006-3.857-.503-.224-1.095,0-1.321,.505-.225,.504,0,1.096,.505,1.321,1.396,.624,2.333,1.827,2.765,2.481-.432,.655-1.369,1.856-2.765,2.48-.504,.226-.73,.817-.505,1.321,.167,.372,.531,.592,.914,.592,.136,0,.275-.028,.408-.087,2.633-1.177,3.95-3.748,4.006-3.856,.142-.283,.142-.617,0-.899Z"/>
  <path d="M12.461,12.55c.219-.333,.219-.766,0-1.099-.055-.083-1.373-2.056-3.948-3.208-.504-.224-1.095,0-1.321,.505-.225,.504,0,1.096,.505,1.321,1.265,.565,2.155,1.39,2.646,1.931-.491,.541-1.382,1.366-2.646,1.931-.504,.226-.73,.817-.505,1.321,.167,.372,.531,.592,.914,.592,.137,0,.275-.028,.408-.087,2.575-1.152,3.893-3.124,3.948-3.207Z"/>
</svg>
