<?xml version="1.0" encoding="UTF-8"?>
<svg xmlns="http://www.w3.org/2000/svg" id="Layer_1" data-name="Layer 1" viewBox="0 0 24 24">
  <path d="M22.641,18.941c-.426-.354-1.056-.295-1.408,.127-.674,.806-1.791,.806-2.465,0-.379-.455-1.156-.455-1.535,0-.674,.806-1.791,.806-2.465,0-.379-.455-1.156-.455-1.535,0-.674,.806-1.791,.806-2.465,0-.379-.455-1.156-.455-1.535,0-.674,.806-1.791,.806-2.465,0-.379-.455-1.156-.455-1.535,0-.674,.806-1.791,.806-2.465,0-.353-.422-.982-.481-1.408-.127-.424,.354-.481,.984-.127,1.409,1.195,1.434,3.297,1.727,4.768,.705,1.189,.826,2.811,.826,4,0,1.189,.826,2.811,.826,4,0,1.189,.826,2.811,.826,4,0,.595,.413,1.289,.639,2,.639,1.047,0,2.056-.49,2.768-1.344,.354-.424,.297-1.055-.127-1.409Z"/>
  <path d="M4,16.693c1.047,0,2.056-.49,2.768-1.344,.354-.424,.297-1.055-.127-1.409-.426-.354-1.056-.295-1.408,.127-.674,.806-1.791,.806-2.465,0-.353-.423-.982-.481-1.408-.127-.424,.354-.481,.984-.127,1.409,.712,.854,1.721,1.344,2.768,1.344Z"/>
  <path d="M20,16.693c1.047,0,2.056-.49,2.768-1.344,.354-.424,.297-1.055-.127-1.409-.426-.354-1.056-.295-1.408,.127-.674,.806-1.791,.806-2.465,0-.353-.423-.982-.481-1.408-.127-.424,.354-.481,.984-.127,1.409,.712,.854,1.721,1.344,2.768,1.344Z"/>
  <path d="M12,16.982c1.836,0,3.33-1.494,3.33-3.33,0-1.617-1.16-2.969-2.691-3.268-.068-.42-.13-.912-.17-1.457h1.861c.553,0,1-.448,1-1s-.447-1-1-1h-1.885c.019-.369,.049-.719,.085-1.042h1.799c.553,0,1-.448,1-1s-.447-1-1-1h-1.449c.045-.184,.075-.286,.077-.29,.157-.529-.142-1.086-.67-1.245-.529-.158-1.086,.139-1.245,.668-.025,.083-.618,2.075-.618,4.714,0,1.107,.103,2.096,.225,2.878-1.165,.519-1.98,1.688-1.98,3.043,0,1.836,1.494,3.33,3.33,3.33Zm1.33-3.33c0,.733-.597,1.33-1.33,1.33s-1.33-.597-1.33-1.33,.597-1.33,1.33-1.33,1.33,.597,1.33,1.33Z"/>
</svg>
