<?xml version="1.0" encoding="UTF-8"?>
<svg xmlns="http://www.w3.org/2000/svg" id="Layer_1" data-name="Layer 1" viewBox="0 0 24 24">
  <path d="M12.034,14.48c-1.396-.624-2.333-1.827-2.764-2.481,.432-.655,1.369-1.856,2.764-2.48,.504-.226,.73-.817,.505-1.321-.226-.503-.817-.729-1.321-.505-2.632,1.177-3.951,3.748-4.005,3.856-.143,.283-.143,.617,0,.899,.055,.109,1.373,2.68,4.005,3.857,.133,.059,.271,.087,.408,.087,.382,0,.747-.221,.914-.592,.225-.504,0-1.096-.505-1.321Z"/>
  <path d="M16.303,13.931c-1.265-.565-2.155-1.39-2.646-1.931,.491-.541,1.382-1.366,2.646-1.931,.504-.226,.73-.817,.505-1.321-.227-.505-.819-.729-1.321-.505-2.575,1.152-3.893,3.124-3.948,3.207-.219,.333-.219,.766,0,1.099,.055,.083,1.373,2.056,3.948,3.208,.133,.059,.271,.087,.408,.087,.382,0,.747-.221,.914-.592,.225-.504,0-1.096-.505-1.321Z"/>
</svg>
