<?xml version="1.0" encoding="UTF-8"?>
<svg xmlns="http://www.w3.org/2000/svg" id="Layer_1" data-name="Layer 1" viewBox="0 0 24 24">
  <path d="M19.257,4.785c-6.432-6.385-11.136-3.354-14.515,0-2.553,2.535-3.743,4.815-3.743,7.177,0,2.38,1.224,4.752,3.743,7.252,2.748,2.728,5.18,3.737,7.328,3.736,2.88,0,5.251-1.815,7.187-3.737,2.553-2.535,3.743-4.815,3.743-7.177,0-2.38-1.224-4.752-3.743-7.252Zm1.463,5.589c-.367,.032-.755,.049-1.163,.049-4.97,0-5.968-2.264-5.968-5.918,0-.416,.015-.799,.044-1.157,1.288,.418,2.675,1.327,4.216,2.856h0c1.485,1.475,2.435,2.852,2.872,4.17ZM3.281,13.628c.361-.029,.749-.044,1.169-.044,3.685,0,5.969,.99,5.969,5.917,0,.404-.017,.789-.049,1.151-1.289-.417-2.677-1.327-4.218-2.857-1.485-1.473-2.434-2.85-2.871-4.167Zm14.567,4.168c-1.802,1.789-3.557,3.01-5.494,3.124,.043-.448,.065-.922,.065-1.418,0-7.097-4.548-7.917-7.969-7.917-.516,0-.993,.02-1.439,.06,.112-1.693,1.118-3.431,3.141-5.439,1.802-1.789,3.558-3.01,5.496-3.124-.04,.443-.06,.914-.06,1.425,0,3.399,.826,7.918,7.968,7.918,.501,0,.979-.022,1.432-.065-.113,1.692-1.119,3.43-3.141,5.437Z"/>
</svg>
