<?xml version="1.0" encoding="UTF-8"?>
<svg xmlns="http://www.w3.org/2000/svg" id="Layer_1" data-name="Layer 1" viewBox="0 0 24 24">
  <path d="M22.616,10.255c-.183-.309-1.985-3.052-8.731-4.327-2.435-.461-5.228-.763-7.165-.936,.164-.356,.256-.75,.256-1.165,0-1.559-1.286-2.826-2.866-2.826S1.244,2.268,1.244,3.826c0,1.212,.777,2.247,1.866,2.648v15.525c0,.553,.448,1,1,1s1-.447,1-1v-2.222c1.641-.122,5.527-.455,8.774-1.069,6.747-1.275,8.549-4.019,8.732-4.327,.092-.154,.14-.331,.14-.511v-3.105c0-.18-.048-.356-.14-.511ZM4.11,3c.478,0,.866,.371,.866,.826s-.388,.826-.866,.826-.866-.371-.866-.826,.389-.826,.866-.826Zm1,3.865c.893,.068,2.356,.193,3.984,.38v10.146c-1.628,.187-3.091,.312-3.984,.381V6.865Zm8.403,9.879c-.777,.147-1.598,.277-2.419,.393V7.5c.821,.115,1.642,.246,2.419,.393,.502,.095,.972,.199,1.412,.308v8.235c-.44,.11-.91,.214-1.412,.308Zm7.244-3.213c-.362,.41-1.438,1.42-3.832,2.297v-7.019c2.406,.881,3.479,1.895,3.832,2.294v2.429Z"/>
</svg>
