<?xml version="1.0" encoding="UTF-8"?>
<svg xmlns="http://www.w3.org/2000/svg" id="Layer_1" data-name="Layer 1" viewBox="0 0 24 24">
  <path d="M22.461,5.485l-.465-.241,.465-.241c.49-.254,.681-.858,.427-1.349-.256-.489-.858-.681-1.349-.426l-.711,.37v-.797c0-.552-.447-1-1-1s-1,.448-1,1v.796l-.71-.369c-.49-.255-1.094-.063-1.349,.426-.254,.49-.063,1.094,.427,1.349l.465,.241-.465,.241c-.49,.254-.681,.858-.427,1.349,.179,.342,.527,.539,.889,.539,.155,0,.312-.036,.46-.113l.71-.369v.796c0,.552,.447,1,1,1s1-.448,1-1v-.797l.711,.37c.147,.077,.305,.113,.46,.113,.361,0,.71-.196,.889-.539,.254-.49,.063-1.094-.427-1.349Z"/>
  <path d="M15.825,12.835c.339,0,.705-.038,1.098-.125,.539-.12,.879-.655,.758-1.194-.119-.539-.653-.876-1.193-.758-.871,.193-1.408-.015-1.652-.161-.011-.295,.067-.86,.656-1.521,.367-.413,.33-1.044-.082-1.412-.411-.367-1.043-.331-1.412,.082-.918,1.032-1.175,2.086-1.164,2.865l-.903,.531c-.438-.418-.978-.732-1.578-.898v-1.044c.678-.386,1.459-1.141,1.883-2.455,.17-.526-.118-1.089-.644-1.259-.528-.167-1.089,.119-1.259,.644-.274,.848-.728,1.202-.978,1.339-.261-.14-.711-.495-.984-1.339-.169-.524-.735-.813-1.259-.643-.525,.17-.813,.734-.644,1.259,.425,1.314,1.206,2.069,1.884,2.455v1.044c-.601,.167-1.141,.48-1.579,.899l-.903-.531c.011-.78-.245-1.833-1.163-2.865-.367-.413-1.001-.45-1.412-.083-.412,.367-.449,.999-.082,1.412,.592,.665,.668,1.232,.659,1.517-.253,.153-.787,.36-1.655,.166-.535-.117-1.073,.219-1.193,.758-.121,.539,.219,1.074,.758,1.194,.393,.087,.759,.125,1.098,.125,.829,0,1.495-.225,1.976-.5l.896,.527c-.082,.305-.126,.626-.126,.957s.044,.651,.126,.956l-.896,.527c-.677-.388-1.724-.676-3.073-.374-.539,.12-.879,.654-.758,1.193,.12,.54,.657,.879,1.193,.758,.873-.193,1.407,.016,1.652,.16,.011,.296-.067,.861-.656,1.522-.367,.413-.33,1.045,.082,1.412,.191,.17,.429,.253,.665,.253,.275,0,.55-.113,.747-.335,.918-1.032,1.174-2.086,1.163-2.866l.903-.531c.438,.419,.978,.732,1.579,.898v1.044c-.679,.386-1.458,1.14-1.884,2.455-.17,.525,.118,1.089,.644,1.259,.102,.033,.206,.049,.308,.049,.422,0,.814-.269,.951-.692,.274-.849,.729-1.202,.979-1.339,.26,.141,.71,.494,.983,1.339,.17,.524,.73,.814,1.259,.644,.525-.17,.813-.733,.644-1.259-.424-1.314-1.204-2.069-1.883-2.455v-1.045c.601-.167,1.141-.48,1.578-.898l.903,.531c-.011,.78,.245,1.834,1.164,2.866,.197,.222,.472,.335,.747,.335,.237,0,.475-.083,.665-.253,.412-.367,.449-.999,.082-1.412-.592-.665-.668-1.232-.66-1.517,.254-.151,.789-.357,1.656-.166,.541,.122,1.074-.218,1.193-.758,.121-.539-.219-1.073-.758-1.193-1.349-.302-2.397-.014-3.074,.374l-.896-.526c.082-.305,.126-.626,.126-.956s-.044-.652-.126-.957l.896-.526c.48,.275,1.147,.5,1.976,.5Zm-6.473,2.693c-.952,0-1.727-.767-1.727-1.71s.774-1.711,1.727-1.711,1.727,.768,1.727,1.711-.774,1.71-1.727,1.71Z"/>
</svg>
