<?xml version="1.0" encoding="UTF-8"?>
<svg xmlns="http://www.w3.org/2000/svg" id="Layer_1" data-name="Layer 1" viewBox="0 0 24 24">
  <path d="M18.874,10.692c-.446-.003-.867-.191-1.185-.527-.347-.367-.531-.876-.506-1.395,.056-1.092,.876-2.129,1.688-2.133,.553-.003,.998-.453,.995-1.005-.003-.55-.45-.995-1-.995h-.005c-1.882,.01-3.564,1.856-3.676,4.034-.052,1.062,.331,2.107,1.05,2.868,.694,.735,1.626,1.145,2.621,1.153,1.163,.011,2.124,.987,2.144,2.171,.008,.644-.292,1.354-.782,1.855-.402,.411-.886,.64-1.361,.645-.552,.005-.995,.457-.99,1.009,.005,.549,.452,.991,1,.991h.01c1.01-.009,1.994-.452,2.771-1.245,.861-.88,1.367-2.105,1.354-3.282-.037-2.263-1.887-4.122-4.126-4.144Z"/>
  <path d="M11.784,10.692c-.447-.003-.868-.191-1.185-.527-.347-.367-.531-.876-.506-1.394,.056-1.092,.876-2.129,1.688-2.134,.552-.003,.998-.453,.995-1.005-.003-.55-.45-.995-1-.995h-.005c-1.88,.01-3.562,1.856-3.675,4.034-.051,1.062,.331,2.107,1.05,2.868,.694,.735,1.626,1.145,2.621,1.153,1.164,.011,2.125,.987,2.144,2.171,.008,.644-.292,1.354-.782,1.855-.403,.411-.886,.64-1.361,.645-.552,.005-.996,.457-.991,1.009,.005,.549,.452,.991,1,.991h.009c1.01-.009,1.995-.452,2.771-1.245,.861-.88,1.367-2.105,1.354-3.282-.036-2.264-1.886-4.123-4.125-4.144Z"/>
  <path d="M4.693,10.692c-.447-.003-.868-.191-1.186-.527-.347-.367-.531-.876-.506-1.394,.056-1.092,.877-2.129,1.688-2.134,.552-.003,.998-.453,.995-1.005-.003-.55-.45-.995-1-.995h-.005c-1.88,.01-3.563,1.856-3.675,4.034-.051,1.062,.331,2.107,1.05,2.868,.695,.735,1.626,1.145,2.621,1.153,1.163,.011,2.125,.987,2.144,2.171,.008,.644-.292,1.354-.783,1.855-.402,.411-.885,.64-1.36,.645-.552,.005-.996,.457-.991,1.009,.005,.549,.452,.991,1,.991h.009c1.01-.009,1.994-.452,2.771-1.245,.861-.88,1.367-2.105,1.354-3.282-.037-2.263-1.886-4.122-4.125-4.144Z"/>
</svg>
