<?xml version="1.0" encoding="UTF-8"?>
<svg xmlns="http://www.w3.org/2000/svg" id="Layer_1" data-name="Layer 1" viewBox="0 0 24 24">
  <path d="M21.729,16.967h-.181c-.067-.415-.178-.786-.335-1.114l.028-.028c.393-.389,.395-1.021,.006-1.414-.391-.394-1.022-.395-1.414-.006l-.036,.036c-.333-.158-.712-.271-1.136-.338v-.17c0-.553-.447-1-1-1s-1,.447-1,1v.17c-.424,.067-.803,.18-1.136,.338l-.038-.037c-.392-.388-1.024-.386-1.414,.008-.389,.392-.385,1.025,.008,1.414l.028,.027c-.152,.318-.261,.678-.329,1.078-1.158,.038-2.403,.038-3.559,0-.068-.401-.177-.761-.329-1.08l.028-.027c.393-.389,.396-1.021,.007-1.414-.388-.392-1.022-.395-1.414-.006l-.037,.036c-.333-.158-.712-.271-1.136-.338v-.17c0-.553-.448-1-1-1s-1,.447-1,1v.17c-.424,.067-.802,.18-1.136,.338l-.037-.036c-.394-.39-1.025-.387-1.415,.006-.389,.393-.386,1.025,.006,1.414l.028,.028c-.156,.327-.268,.699-.335,1.114h-.181c-.552,0-1,.447-1,1s.448,1,1,1h.181c.067,.415,.178,.786,.335,1.113l-.028,.027c-.393,.389-.396,1.021-.007,1.414,.196,.198,.453,.297,.711,.297,.254,0,.508-.097,.704-.289l.037-.037c.333,.158,.712,.271,1.135,.338v.17c0,.553,.448,1,1,1s1-.447,1-1v-.17c.424-.067,.803-.18,1.136-.338l.036,.036c.195,.193,.45,.29,.704,.29,.257,0,.515-.099,.71-.296,.389-.393,.386-1.025-.006-1.414l-.028-.028c.16-.336,.274-.717,.34-1.145,.57,.02,1.161,.031,1.764,.031,.606,0,1.2-.011,1.774-.031,.066,.427,.18,.809,.34,1.144l-.028,.027c-.393,.389-.396,1.021-.008,1.414,.195,.198,.453,.297,.711,.297,.254,0,.509-.097,.703-.289l.038-.037c.333,.158,.712,.271,1.136,.338v.17c0,.553,.447,1,1,1s1-.447,1-1v-.17c.424-.067,.802-.18,1.136-.338l.036,.036c.195,.193,.449,.29,.704,.29,.258,0,.515-.099,.71-.296,.389-.393,.387-1.025-.006-1.414l-.028-.028c.156-.328,.268-.699,.335-1.114h.181c.553,0,1-.447,1-1s-.447-1-1-1Zm-15.391,2.938c-1.384,0-1.963-.27-1.963-1.938,0-1.658,.605-1.938,1.963-1.938,1.385,0,1.963,.27,1.963,1.938,0,1.658-.605,1.938-1.963,1.938Zm11.322,0c-1.384,0-1.963-.27-1.963-1.938,0-1.658,.605-1.938,1.963-1.938,1.384,0,1.963,.27,1.963,1.938,0,1.658-.605,1.938-1.963,1.938Z"/>
  <path d="M2.42,11.993c.045,.006,.091,.009,.136,.009,.492,0,.921-.364,.989-.865,.117-.863,.286-1.567,.412-2.021,1.295-.173,4.49-.545,8.037-.545s6.749,.373,8.042,.546c.127,.45,.299,1.153,.417,2.021,.075,.547,.578,.923,1.127,.855,.547-.075,.93-.579,.855-1.127-.243-1.776-.683-2.954-.701-3.003-.127-.337-.424-.579-.779-.635-.047-.008-.391-.062-.966-.136l-1.479-4.717c-.087-.276-.289-.502-.555-.618-.07-.03-1.767-.758-4.323-.758-2.533,0-4.371,.714-4.448,.745-.382,.15-.633,.52-.633,.93v3.999c-3.118,.18-5.391,.534-5.518,.555-.358,.057-.657,.302-.782,.642-.018,.05-.448,1.231-.688,2.997-.074,.548,.309,1.052,.856,1.126ZM10.551,3.405c.647-.176,1.747-.405,3.081-.405,1.445,0,2.557,.274,3.119,.449l1.067,3.404c-1.578-.147-3.622-.282-5.824-.282-.49,0-.972,.007-1.443,.019V3.405Z"/>
</svg>
