<?xml version="1.0" encoding="UTF-8"?>
<svg xmlns="http://www.w3.org/2000/svg" id="Layer_1" data-name="Layer 1" viewBox="0 0 24 24">
  <path d="M12,1.991C6.878,1.991,1,3.241,1,12.991c0,3.077,.561,5.425,1.715,7.181,.126,.192,.315,.335,.535,.404,3.017,.951,5.961,1.434,8.75,1.434s5.72-.481,8.737-1.431c.219-.069,.407-.211,.534-.402,1.164-1.759,1.729-4.109,1.729-7.186C23,3.241,17.122,1.991,12,1.991Zm7.785,16.788c-2.667,.806-5.352,1.23-7.785,1.23-3.031,0-5.857-.646-7.797-1.232-.809-1.396-1.203-3.293-1.203-5.787C3,5.521,6.598,3.991,12,3.991s9,1.53,9,9c0,2.492-.398,4.391-1.215,5.788Z"/>
  <path d="M17.417,9.683c.415-.364,.456-.996,.092-1.411-.363-.415-.996-.458-1.411-.092l-4.193,3.679c-.057-.007-.116-.01-.175-.01-.828,0-1.5,.672-1.5,1.5s.672,1.5,1.5,1.5,1.495-.667,1.5-1.491l4.188-3.674Z"/>
  <path d="M12,7.991c.422,0,.816,.008,1.185,.027,.546,.03,1.022-.396,1.049-.948,.028-.552-.396-1.021-.948-1.049-.4-.021-.828-.03-1.286-.03-4.743,0-7,1.047-7,7,0,1.406,.143,2.604,.425,3.56,.128,.436,.526,.718,.958,.718,.094,0,.189-.014,.283-.042,.53-.156,.833-.712,.676-1.242-.228-.772-.343-1.78-.343-2.994,0-4.509,1.012-5,5-5Z"/>
  <path d="M18.004,12.087h-.005c-.55,0-.997,.444-1,.995-.006,1.172-.123,2.148-.347,2.9-.158,.529,.144,1.086,.673,1.244,.095,.028,.191,.042,.286,.042,.431,0,.829-.281,.958-.715,.278-.935,.423-2.099,.43-3.461,.003-.552-.443-1.002-.995-1.005Z"/>
</svg>
