<?xml version="1.0" encoding="UTF-8"?>
<svg xmlns="http://www.w3.org/2000/svg" id="Layer_1" data-name="Layer 1" viewBox="0 0 24 24">
  <path d="M22.625,11.2l-4.116-6.079c-.148-.218-.375-.369-.634-.42-.094-.019-1.401-.275-3.13-.493v-.561c0-1.46-1.188-2.647-2.664-2.647-1.46,0-2.647,1.188-2.647,2.647v.272c-3.053,.122-6.16,.754-6.304,.783-.32,.065-.587,.283-.717,.583-.05,.114-1.21,2.845-1.21,6.471,0,3.658,1.162,6.362,1.211,6.476,.131,.301,.401,.518,.723,.581,.04,.008,.299,.058,.735,.131-.058,.245-.089,.498-.089,.752,0,1.822,1.492,3.304,3.326,3.304s3.326-1.482,3.326-3.304c0-.034,0-.068-.002-.102,.512,.018,1.038,.028,1.573,.028,.53,0,1.051-.01,1.559-.027-.001,.034-.002,.067-.002,.101,0,1.822,1.492,3.304,3.326,3.304s3.326-1.482,3.326-3.304c0-.256-.029-.507-.086-.75,.442-.073,.705-.124,.745-.132,.353-.069,.641-.322,.755-.663,.042-.126,1.034-3.116,1.165-6.35,.009-.213-.051-.424-.171-.601Zm-2.713-.439h-3.944c-.428,0-.776-.341-.776-.759v-3.714c.821,.115,1.495,.23,1.895,.301l2.825,4.172Zm-11.476,8.936c0,.719-.595,1.304-1.326,1.304s-1.326-.585-1.326-1.304c0-.162,.03-.318,.087-.465,.741,.091,1.603,.182,2.548,.252,.012,.07,.017,.141,.017,.213Zm-4.371-2.749c-.3-.863-.861-2.799-.861-5.19,0-2.364,.568-4.327,.867-5.198,1.146-.208,3.922-.661,6.341-.661,.906,0,1.867,.062,2.781,.15v3.953c0,1.521,1.246,2.759,2.776,2.759h4.755c-.178,1.772-.587,3.38-.819,4.194-1.264,.21-4.412,.667-7.897,.667-3.534,0-6.712-.468-7.942-.675Zm14.152,2.749c0,.719-.595,1.304-1.326,1.304s-1.326-.585-1.326-1.304c0-.072,.006-.143,.017-.212,.944-.071,1.806-.161,2.548-.252,.057,.147,.086,.303,.086,.464Z"/>
  <path d="M10.191,10.761h-.669v-.654c0-.552-.448-1-1-1s-1,.448-1,1v.654h-.67c-.552,0-1,.448-1,1s.448,1,1,1h.67v.654c0,.552,.448,1,1,1s1-.448,1-1v-.654h.669c.552,0,1-.448,1-1s-.448-1-1-1Z"/>
</svg>
