<?xml version="1.0" encoding="UTF-8"?>
<svg xmlns="http://www.w3.org/2000/svg" id="Layer_1" data-name="Layer 1" viewBox="0 0 24 24">
  <path d="M12.848,1.841c-3.767,0-8.69,.78-9.882,7.015-.023-.045-.046-.091-.07-.139-.246-.495-.847-.696-1.341-.45-.495,.246-.696,.846-.45,1.341,.599,1.203,.94,1.608,1.992,2.458,.279,.226,.7,.29,1.057,.118,1.228-.59,1.651-.921,2.518-1.96,.354-.424,.297-1.054-.127-1.408-.423-.354-1.055-.297-1.408,.127-.076,.091-.145,.173-.211,.249,.702-3.816,3.064-5.349,7.923-5.349,4.894,0,8.152,1.387,8.152,8.159s-3.259,8.159-8.152,8.159c-4.473,0-6.771-1.31-7.686-4.38-.158-.531-.718-.83-1.244-.673-.53,.158-.831,.714-.673,1.244,1.551,5.208,6.223,5.81,9.603,5.81,4.358,0,10.152-1.053,10.152-10.159C23,2.996,17.574,1.841,12.848,1.841Z"/>
</svg>
