<?xml version="1.0" encoding="UTF-8"?>
<svg xmlns="http://www.w3.org/2000/svg" id="Layer_1" data-name="Layer 1" viewBox="0 0 24 24">
  <path d="M16.322,10.101c-.011-1.732-.04-4.557-.081-5.199-.142-2.188-2.005-3.901-4.241-3.901s-4.1,1.714-4.241,3.901c-.041,.643-.07,3.468-.081,5.2-1.78,1.069-2.648,3.03-2.648,5.969,0,6.211,3.979,6.93,6.971,6.93s6.971-.719,6.971-6.93c0-2.939-.868-4.9-2.648-5.97Zm-4.322,10.899c-3.068,0-4.971-.824-4.971-4.93,0-3.162,1.172-4.054,2.054-4.45,.358-.16,.589-.516,.591-.907,.01-2.006,.043-5.097,.081-5.683,.073-1.139,1.06-2.03,2.245-2.03s2.172,.892,2.245,2.03c.038,.586,.071,3.677,.081,5.682,.002,.393,.232,.747,.591,.907,.882,.396,2.054,1.288,2.054,4.451,0,4.105-1.902,4.93-4.971,4.93Z"/>
  <path d="M13,13.303v-3.579c0-.553-.447-1-1-1s-1,.447-1,1v3.579c-1.138,.409-1.954,1.495-1.954,2.768,0,1.622,1.325,2.941,2.954,2.941s2.954-1.319,2.954-2.941c0-1.273-.816-2.359-1.954-2.768Zm-1,3.709c-.526,0-.954-.422-.954-.941s.428-.941,.954-.941,.954,.422,.954,.941-.428,.941-.954,.941Z"/>
</svg>
