<?xml version="1.0" encoding="UTF-8"?>
<svg xmlns="http://www.w3.org/2000/svg" id="Layer_1" data-name="Layer 1" viewBox="0 0 24 24">
  <path d="M12,1C7.105,1,1.486,1.896,1.486,8.88c0,2.148,.553,3.866,1.647,5.132-1.094,.876-1.647,2.194-1.647,3.935,0,2.792,1.41,4.485,4.191,5.034,.065,.013,.13,.019,.194,.019,.468,0,.886-.33,.98-.807,.107-.542-.246-1.068-.788-1.174-1.855-.366-2.578-1.227-2.578-3.072,0-1.339,.42-2.021,.951-2.421,.061,.198,.14,.392,.238,.58,.431,.828,1.166,1.437,2.068,1.714,.354,.109,.726,.155,1.101,.155,1.611,0,3.289-.849,3.939-1.216h.217c4.895,0,10.514-.895,10.514-7.879S16.895,1,12,1ZM7.332,15.909c-.387-.119-.701-.377-.883-.728-.174-.334-.207-.714-.092-1.071,.247-.766,1.09-1.189,1.887-.946,.731,.225,1.473,1.248,1.959,2.16-.889,.414-2.113,.817-2.872,.585Zm4.827-1.149c-.506-1.042-1.65-2.991-3.327-3.507-1.593-.491-3.281,.203-4.078,1.572-.86-.911-1.267-2.193-1.267-3.944,0-4.231,2.387-5.88,8.514-5.88s8.514,1.649,8.514,5.88c0,4.195-2.347,5.851-8.355,5.88Z"/>
</svg>
