<?xml version="1.0" encoding="UTF-8"?>
<svg xmlns="http://www.w3.org/2000/svg" id="Layer_1" data-name="Layer 1" viewBox="0 0 24 24">
  <path d="M12,4.241c.552,0,1-.448,1-1v-1.241c0-.552-.448-1-1-1s-1,.448-1,1v1.241c0,.552,.448,1,1,1Z"/>
  <path d="M16.305,4.861c.553,0,1-.448,1-1v-1.241c0-.552-.447-1-1-1s-1,.448-1,1v1.241c0,.552,.447,1,1,1Z"/>
  <path d="M7.695,4.861c.552,0,1-.448,1-1v-1.241c0-.552-.448-1-1-1s-1,.448-1,1v1.241c0,.552,.448,1,1,1Z"/>
  <path d="M22.276,12.525c0-3.339-4.489-7.221-10.276-7.221S1.724,9.186,1.724,12.525c0,.988,.344,1.753,1.026,2.292,.119,5.505,3.148,8.184,9.25,8.184,3.913,0,9.094-.857,9.25-8.184,.682-.538,1.026-1.304,1.026-2.291ZM12,7.304c4.801,0,8.276,3.119,8.276,5.221,0,.402,0,.903-1.445,1.141-.483,.08-.835,.593-.835,1.083,0,.905-.733,1.641-1.634,1.641-.431,0-.837-.167-1.145-.471-.248-.246-.606-.345-.946-.258-.339,.085-.608,.341-.712,.675-.212,.69-.839,1.154-1.56,1.154s-1.347-.463-1.56-1.154c-.103-.333-.373-.589-.711-.675-.081-.021-.163-.03-.244-.03-.26,0-.513,.101-.702,.288-.308,.304-.714,.471-1.145,.471-.901,0-1.634-.736-1.632-1.706,.016-.501-.342-.936-.837-1.018-1.445-.238-1.445-.739-1.445-1.141,0-2.102,3.475-5.221,8.276-5.221Zm0,13.696c-3.898,0-6.049-1.082-6.866-3.616,.652,.622,1.534,1.005,2.504,1.005,.519,0,1.021-.109,1.482-.315,.671,.877,1.721,1.416,2.88,1.416s2.208-.538,2.88-1.416c.461,.207,.964,.315,1.482,.315,.982,0,1.873-.392,2.528-1.028-.789,2.578-2.917,3.639-6.89,3.639Z"/>
  <path d="M15.063,13.855h0c.456,0,.916-.198,1.258-.542,.156-.155,.431-.488,.517-.97,.098-.547-.08-1.081-.501-1.503-.729-.732-1.972-.643-2.214-.618-.47,.049-.841,.419-.891,.888-.026,.241-.117,1.479,.615,2.214,.436,.438,.901,.529,1.215,.53Z"/>
  <path d="M8.936,13.855c.313,0,.779-.092,1.216-.53,.731-.735,.64-1.973,.614-2.214-.05-.469-.421-.839-.89-.888-.244-.024-1.484-.114-2.214,.618-.805,.808-.602,1.855,.014,2.471,.344,.345,.804,.543,1.26,.543Z"/>
</svg>
