<?xml version="1.0" encoding="UTF-8"?>
<svg xmlns="http://www.w3.org/2000/svg" id="Layer_1" data-name="Layer 1" viewBox="0 0 24 24">
  <path d="M18.405,10.602c-.337-.426-.783-.906-1.425-1.335-.026-2.078-.48-3.603-.5-3.669-.098-.326-.355-.579-.683-.672-.027-.008-.288-.081-.711-.17v-1.293h.164c.553,0,1-.448,1-1s-.447-1-1-1h-.975c-.406-.153-1.336-.463-2.192-.463-1.213,0-2.419,.483-2.553,.539-.374,.154-.618,.52-.618,.924v2.293c-.422,.088-.683,.162-.71,.169-.329,.094-.587,.349-.685,.676-.02,.067-.472,1.606-.499,3.666-.642,.43-1.088,.909-1.425,1.335-1.146,1.449-1.656,3.314-1.656,6.048,0,2.766,.879,4.569,.917,4.645,.109,.22,.296,.393,.525,.484,.125,.05,3.103,1.221,6.619,1.221s6.494-1.171,6.619-1.221c.228-.09,.414-.261,.523-.48,.037-.075,.919-1.861,.919-4.648,0-2.734-.511-4.599-1.656-6.048ZM10.913,3.184c.338-.094,.769-.184,1.171-.184,.309,0,.684,.082,1.003,.175v1.293c-.346-.027-.711-.044-1.087-.044s-.741,.017-1.087,.044v-1.284Zm-1.609,3.535c.596-.125,1.604-.295,2.696-.295s2.103,.17,2.697,.295c.082,.386,.181,.958,.238,1.644-.801-.215-1.766-.348-2.936-.348s-2.134,.132-2.935,.348c.057-.683,.157-1.256,.239-1.644Zm8.191,13.34c-.86,.291-3.06,.942-5.495,.942s-4.632-.65-5.494-.941c-.207-.566-.567-1.784-.567-3.408,0-2.284,.366-3.721,1.225-4.807,.674-.852,1.832-1.829,4.837-1.829s4.163,.977,4.837,1.828c.858,1.086,1.225,2.524,1.225,4.808,0,1.637-.36,2.849-.566,3.408Z"/>
  <path d="M12,12.015c-2.136,0-2.851,.54-3.268,1.068-.393,.497-.794,1.309-.794,3.567,0,.371,.023,.747,.07,1.118,.053,.418,.361,.758,.772,.851,1.124,.253,2.206,.381,3.219,.381s2.096-.128,3.219-.38c.412-.092,.721-.433,.773-.851,.046-.366,.069-.742,.069-1.118,0-2.272-.424-3.1-.792-3.565-.418-.529-1.134-1.07-3.27-1.07Zm2.06,4.797c-1.438,.25-2.682,.25-4.119,0,0-.053-.002-.106-.002-.161,0-1.188,.132-2.036,.362-2.327,.148-.188,.815-.309,1.699-.309,.897,0,1.549,.119,1.7,.311,.229,.29,.361,1.138,.361,2.325,0,.055,0,.109-.002,.162Z"/>
</svg>
