<?xml version="1.0" encoding="UTF-8"?>
<svg xmlns="http://www.w3.org/2000/svg" id="Layer_1" data-name="Layer 1" viewBox="0 0 24 24">
  <ellipse cx="18.138" cy="3.448" rx="2.426" ry="2.396" transform="translate(6.874 18.076) rotate(-63.165)"/>
  <path d="M21.522,11.484c-1.379-.665-2.355-1.44-2.64-3.066-.05-.285-.222-.535-.47-.685l-6.592-3.965c-1.278-.655-2.779-.729-4.122-.198-.514,.203-.765,.784-.562,1.298,.203,.514,.785,.765,1.298,.562,.801-.318,1.704-.275,2.414,.086l.786,.473c-2.883,1.811-3.612,5.678-3.647,5.873-.061,.339,.058,.686,.312,.917,.91,.825,.863,1.406,.849,1.597-.068,.843-.968,1.878-2.539,2.925l-1.591-.509c-.837-.268-1.3-1.173-1.033-2.019,.167-.526-.125-1.088-.651-1.255-.53-.167-1.088,.126-1.255,.652-.599,1.894,.446,3.924,2.33,4.526l12.784,4.089c.358,.114,.727,.171,1.092,.171,.564,0,1.124-.135,1.639-.401,.855-.442,1.487-1.193,1.779-2.115,.167-.527-.125-1.089-.651-1.255-.528-.169-1.088,.125-1.255,.651-.131,.411-.411,.746-.791,.942-.376,.194-.805,.23-1.203,.102l-.25-.08c-.074-.675-.384-3.461-.622-4.859-.26-1.532-.742-2.252-1.712-3.016,.224-.868,.787-2.497,1.963-3.133,.689,1.924,2.184,2.873,3.473,3.494,.14,.067,.287,.099,.433,.099,.372,0,.729-.208,.902-.566,.239-.498,.03-1.095-.468-1.335Zm-7.99,2.681c1.015,.712,1.231,.953,1.428,2.112,.167,.979,.378,2.738,.506,3.856l-6.517-2.084c1.362-1.148,2.098-2.325,2.194-3.513,.08-.997-.279-1.94-1.068-2.81,.307-1.117,1.277-3.811,3.63-4.492l1.943,1.169c-2.031,1.553-2.505,4.635-2.529,4.8-.055,.373,.105,.745,.414,.962Z"/>
</svg>
