<?xml version="1.0" encoding="UTF-8"?>
<svg xmlns="http://www.w3.org/2000/svg" id="Layer_1" data-name="Layer 1" viewBox="0 0 24 24">
  <path d="M22.111,6.787c-.132-.332-.43-.567-.782-.62-.177-.026-4.368-.641-9.329-.641s-9.152,.615-9.328,.641c-.354,.053-.653,.291-.784,.624-.036,.092-.888,2.294-.888,5.21,0,2.941,.853,5.122,.889,5.213,.132,.332,.43,.567,.782,.62,.177,.026,4.368,.641,9.329,.641s9.152-.615,9.328-.641c.354-.053,.653-.291,.784-.624,.036-.092,.888-2.294,.888-5.21,0-2.941-.853-5.122-.889-5.213Zm-1.683,9.149c-1.332,.168-4.694,.538-8.429,.538s-7.1-.371-8.43-.538c-.222-.745-.57-2.194-.57-3.936,0-1.729,.35-3.186,.571-3.936,1.332-.168,4.694-.538,8.429-.538s7.1,.371,8.43,.538c.222,.745,.57,2.194,.57,3.936,0,1.729-.35,3.186-.571,3.936Z"/>
</svg>
