<?xml version="1.0" encoding="UTF-8"?>
<svg xmlns="http://www.w3.org/2000/svg" id="Layer_1" data-name="Layer 1" viewBox="0 0 24 24">
  <path d="M21.221,7.862c-.112-.138-.259-.244-.426-.307-.063-.023-1.428-.527-3.497-.624-.252-1.904-.609-3.126-.632-3.204-.098-.326-.354-.581-.681-.676-.127-.036-3.147-.899-6.714-.899s-6.585,.863-6.712,.899c-.329,.095-.586,.352-.682,.679-.036,.122-.878,3.031-.878,6.903,0,3.905,.843,6.785,.878,6.906,.104,.351,.392,.616,.749,.692,.024,.005,.158,.034,.384,.076v.672c0,1.581,1.286,2.867,2.867,2.867,.713,0,1.365-.262,1.867-.694,.502,.432,1.154,.694,1.867,.694,1.581,0,2.867-1.286,2.867-2.867v-.248c.64-.062,1.218-.134,1.709-.204h.66v.452c0,1.581,1.286,2.867,2.867,2.867s2.868-1.286,2.868-2.867v-.452h.859c.446,0,.839-.296,.961-.725,.024-.085,.596-2.109,.596-4.793,0-2.917-1.707-5.059-1.779-5.148Zm-1.396,1.481c.231,.346,.664,1.074,.935,2.02h-3.226c.006-.239,.01-.482,.01-.729,0-.588-.019-1.152-.052-1.687,1.101,.077,1.93,.281,2.332,.397ZM3.659,4.835c.986-.234,3.189-.683,5.612-.683s4.631,.448,5.614,.683c.228,.965,.658,3.14,.658,5.799,0,2.602-.419,4.765-.649,5.757-1.021,.178-3.213,.502-5.623,.502s-4.605-.324-5.623-.502c-.23-.986-.648-3.137-.648-5.757,0-2.64,.432-4.827,.659-5.799Zm2.219,15.013c-.479,0-.867-.389-.867-.867v-.364c.519,.065,1.103,.127,1.734,.175v.188c0,.479-.389,.867-.867,.867Zm4.602-.867c0,.479-.389,.867-.867,.867s-.867-.389-.867-.867v-.093c.174,.003,.349,.005,.526,.005,.411,0,.815-.009,1.208-.024v.112Zm8.104,0c0,.479-.39,.867-.868,.867s-.867-.389-.867-.867v-.452h1.735v.452Zm-1.669-2.452c.16-.734,.362-1.831,.493-3.165h3.588c-.028,1.337-.207,2.472-.347,3.165h-3.734Z"/>
</svg>
