<?xml version="1.0" encoding="UTF-8"?>
<svg xmlns="http://www.w3.org/2000/svg" id="Layer_1" data-name="Layer 1" viewBox="0 0 24 24">
  <path d="M12,1.798C6.878,1.798,1,3.048,1,12.798c0,3.874,.899,6.635,2.75,8.439,.124,.12,.276,.207,.442,.251,.11,.029,2.758,.714,7.808,.714s7.684-.686,7.793-.714c.166-.045,.317-.13,.44-.25,1.861-1.81,2.767-4.57,2.767-8.44C23,3.048,17.121,1.798,12,1.798Zm7.026,17.814c-.746,.159-3.129,.59-7.026,.59s-6.291-.431-7.042-.59c-1.317-1.422-1.958-3.655-1.958-6.814C3,5.328,6.598,3.798,12,3.798s9,1.53,9,9c0,3.156-.646,5.39-1.974,6.814Z"/>
  <path d="M12,5.798c-4.743,0-7,1.048-7,7,0,1.93,.266,3.448,.791,4.513,.174,.353,.529,.558,.898,.558,.148,0,.299-.033,.441-.104,.495-.244,.699-.844,.455-1.339-.383-.776-.585-2.03-.585-3.628,0-4.509,1.012-5,5-5,3.864,0,4.854,.499,4.987,4.237,.019,.54,.463,.965,.998,.965,.013,0,.024,0,.036,0,.553-.02,.983-.482,.964-1.034-.185-5.213-2.497-6.167-6.985-6.167Z"/>
  <path d="M16.961,14.913l-2.784-1.72c.023-.128,.036-.26,.036-.395,0-1.22-.993-2.213-2.213-2.213s-2.213,.993-2.213,2.213,.993,2.213,2.213,2.213c.344,0,.669-.079,.959-.219l2.951,1.823c.164,.102,.345,.149,.524,.149,.335,0,.663-.168,.852-.475,.29-.47,.145-1.086-.325-1.376Z"/>
</svg>
