<?xml version="1.0" encoding="UTF-8"?>
<svg xmlns="http://www.w3.org/2000/svg" id="Layer_1" data-name="Layer 1" viewBox="0 0 24 24">
  <path d="M20.875,5.683c-.08-.352-.342-.633-.687-.737l-.829-.249c-3.454-.918-6.708-3.457-6.74-3.482-.364-.287-.878-.286-1.24,.002-.032,.025-3.208,2.52-6.771,3.489l-.797,.24c-.345,.104-.606,.385-.687,.737-.398,1.763-2.263,10.686,.265,13.243,2.413,2.443,8.1,3.975,8.354,4.041,.167,.044,.334,.048,.514,0,.241-.065,5.94-1.598,8.354-4.041,2.527-2.557,.663-11.48,.265-13.243Zm-1.687,11.837c-1.598,1.617-5.508,2.967-7.188,3.443-1.68-.475-5.588-1.823-7.188-3.443-1.237-1.253-.686-6.891,.141-10.83l.208-.062c2.998-.816,5.671-2.551,6.841-3.383,1.182,.84,3.889,2.599,6.812,3.376l.234,.07c.827,3.937,1.379,9.575,.141,10.829Z"/>
</svg>
