<?xml version="1.0" encoding="UTF-8"?>
<svg xmlns="http://www.w3.org/2000/svg" id="Layer_1" data-name="Layer 1" viewBox="0 0 24 24">
  <path d="M22.926,5.844c0-2.444-2.575-4.271-4.877-4.271-.307,0-.61,.033-.907,.098-1.474-.914-3.673-.9-5.668,.092-.149-.155-.346-.259-.561-.295-.132-.022-3.244-.481-6.55,2.848C1.062,7.643,1.519,10.77,1.54,10.901c.034,.217,.14,.415,.297,.565-.988,2.009-1.003,4.226-.094,5.709-.065,.3-.099,.608-.099,.918,0,2.316,1.816,4.906,4.247,4.906,2.242,0,3.506-2.323,3.63-4.678,.093-.09,.183-.184,.268-.281,.308-.354,.613-.867,.932-1.568,.994-.232,2.324-.793,3.634-2.112h0c1.311-1.321,1.866-2.661,2.095-3.66,.697-.322,1.208-.63,1.558-.941,.095-.084,.187-.173,.276-.266,2.338-.126,4.643-1.397,4.643-3.649Zm-14.646,10.881c-.408,.468-1.937,1.836-4.476-.184-.858-.682-.958-2.326-.32-3.864l5.052,3.677c-.116,.196-.202,.309-.256,.371Zm-2.391,4.274c-.946,0-1.808-1.028-2.122-2.093,.906,.482,1.784,.692,2.596,.692,.319,0,.629-.033,.925-.094-.256,.81-.719,1.495-1.4,1.495Zm7.044-8.049c-1.45,1.461-2.842,1.661-3.368,1.679L3.505,10.219c.026-.751,.32-2.52,2.278-4.493,1.954-1.968,3.702-2.265,4.44-2.292l4.38,6.107c-.018,.539-.217,1.946-1.669,3.41Zm3.746-4.688c-.06,.053-.168,.137-.353,.249l-3.655-5.097c1.523-.643,3.152-.546,3.827,.318,2.012,2.57,.648,4.117,.182,4.53Zm2.775-1.005c.217-1.061,.074-2.282-.598-3.557,1.054,.318,2.069,1.188,2.069,2.143,0,.687-.673,1.154-1.471,1.414Z"/>
</svg>
