<?xml version="1.0" encoding="UTF-8"?>
<svg xmlns="http://www.w3.org/2000/svg" id="Layer_1" data-name="Layer 1" viewBox="0 0 24 24">
  <path d="M20.387,10.163c-1.218-3.516-3.408-6.205-3.504-6.322-.121-.146-.281-.256-.461-.315-.1-.032-2.475-.798-5.356-.798-3.925,0-6.116,.989-6.207,1.031-.245,.113-.435,.32-.524,.575-.04,.115-.957,2.737-1.252,6.053-1.241,.633-2.078,1.922-2.081,3.384q0,.046,.169,2.6c.031,.46,.372,.84,.827,.919,.063,.011,.608,.104,1.502,.224v.796c0,1.634,1.322,2.964,2.947,2.964s2.947-1.33,2.947-2.964v-.275c.835,.037,1.709,.059,2.607,.059s1.773-.022,2.607-.059v.275c0,1.634,1.322,2.964,2.947,2.964s2.947-1.33,2.947-2.964v-.796c.894-.119,1.439-.212,1.502-.223,.455-.079,.796-.458,.827-.919q.169-2.553,.169-2.603c-.004-1.661-1.086-3.099-2.613-3.604Zm-2.27-.334c-1.691-.167-3.833-.316-6.117-.316-.243,0-.484,.002-.724,.005V4.729c1.926,.029,3.599,.437,4.243,.615,.459,.605,1.69,2.325,2.598,4.484ZM9.276,4.806v4.773c-1.566,.074-2.987,.201-4.135,.327,.24-2.023,.706-3.714,.938-4.475,.538-.181,1.624-.483,3.196-.625Zm11.612,10.632c-1.502,.217-5.007,.654-8.888,.654s-7.387-.437-8.888-.654c-.047-.707-.109-1.632-.112-1.666,.002-.909,.686-1.678,1.59-1.789,1.757-.215,4.469-.471,7.41-.471s5.657,.256,7.411,.471c.904,.11,1.587,.879,1.591,1.732-.004,.069-.066,1.01-.113,1.723Z"/>
</svg>
