<?xml version="1.0" encoding="UTF-8"?>
<svg xmlns="http://www.w3.org/2000/svg" id="Layer_1" data-name="Layer 1" viewBox="0 0 24 24">
  <path d="M22.321,2.498c-.171-.058-4.248-1.417-10.321-1.417S1.848,2.44,1.678,2.499c-.492,.167-.774,.685-.648,1.188,1.775,7.102,7.855,9.99,9.97,10.795v6.437h-3.499c-.552,0-1,.447-1,1s.448,1,1,1h8.998c.553,0,1-.447,1-1s-.447-1-1-1h-3.499v-6.437c2.121-.808,8.232-3.708,9.972-10.798,.123-.504-.159-1.019-.65-1.186ZM12,12.716c-.968-.348-4.23-1.691-6.649-4.716H13.984c.553,0,1-.447,1-1s-.447-1-1-1H4.038c-.305-.578-.575-1.2-.798-1.869,1.482-.383,4.653-1.05,8.76-1.05s7.282,.668,8.764,1.051c-1.908,5.807-7.45,8.111-8.764,8.584Z"/>
</svg>
