<?xml version="1.0" encoding="UTF-8"?>
<svg xmlns="http://www.w3.org/2000/svg" id="Layer_1" data-name="Layer 1" viewBox="0 0 24 24">
  <path d="M15.802,11.461c-.504-.224-1.095,0-1.321,.505-.624,1.396-1.827,2.333-2.481,2.764-.655-.432-1.856-1.369-2.48-2.764-.226-.504-.817-.729-1.321-.505-.504,.226-.73,.817-.505,1.321,1.177,2.632,3.748,3.951,3.856,4.005,.141,.071,.295,.107,.45,.107s.308-.036,.45-.107c.109-.055,2.68-1.373,3.857-4.005,.225-.504,0-1.096-.505-1.321Z"/>
  <path d="M11.45,12.461c.167,.11,.358,.165,.55,.165s.383-.055,.549-.165c.083-.055,2.056-1.373,3.208-3.948,.225-.504,0-1.096-.505-1.321-.505-.224-1.095,0-1.321,.505-.565,1.265-1.39,2.155-1.931,2.646-.541-.491-1.366-1.382-1.931-2.646-.225-.504-.817-.729-1.321-.505-.504,.226-.73,.817-.505,1.321,1.152,2.575,3.124,3.893,3.207,3.948Z"/>
</svg>
