<?xml version="1.0" encoding="UTF-8"?>
<svg xmlns="http://www.w3.org/2000/svg" id="Layer_1" data-name="Layer 1" viewBox="0 0 24 24">
  <path d="M14.437,9.596h-1.437v-1.436c0-.552-.447-1-1-1s-1,.448-1,1v1.436h-1.437c-.553,0-1,.448-1,1s.447,1,1,1h1.437v1.436c0,.552,.447,1,1,1s1-.448,1-1v-1.436h1.437c.553,0,1-.448,1-1s-.447-1-1-1Z"/>
  <path d="M11.986,1C7.159,1.066,2.309,5.808,2.309,10.456c0,6.416,8.776,12.141,9.145,12.382,.167,.108,.356,.163,.547,.163,.198,0,.395-.059,.565-.175,.368-.252,9.021-6.25,9.126-12.418-.146-4.77-4.85-9.341-9.705-9.407Zm.001,19.773c-1.838-1.324-7.576-5.816-7.679-10.329,.13-3.709,3.938-7.393,7.677-7.444,3.774,.051,7.592,3.75,7.705,7.42-.074,4.302-5.864,8.976-7.704,10.353Z"/>
</svg>
