<?xml version="1.0" encoding="UTF-8"?>
<svg xmlns="http://www.w3.org/2000/svg" id="Layer_1" data-name="Layer 1" viewBox="0 0 24 24">
  <path d="M19.998,15.968l.499-10.658c.041-.883,.561-1.667,1.357-2.046l.576-.275c.499-.237,.71-.834,.473-1.332-.238-.5-.834-.707-1.333-.474l-.576,.275c-1.463,.697-2.419,2.138-2.495,3.758l-.516,11.013c-.19,.086-.372,.189-.542,.307-.417,.176-.953,.393-1.575,.624,.021-.99-.016-2.286-.218-3.712-.46-3.231-1.519-5.517-1.563-5.612-.145-.309-.436-.522-.773-.567-.111-.015-2.778-.361-5.804,.066-3.02,.43-5.489,1.508-5.592,1.554-.312,.138-.533,.426-.585,.764-.016,.105-.391,2.619,.064,5.823,.215,1.509,.564,2.818,.87,3.773-.15-.002-.234-.004-.241-.004-.533-.012-1.01,.424-1.023,.976-.013,.553,.423,1.011,.976,1.024,.049,0,.359,.008,.858,.008,1.636,0,5.298-.075,8.392-.674,1.694-.328,3.348-.834,4.707-1.315-.002,.05-.003,.099-.003,.15,0,1.929,1.564,3.493,3.493,3.493s3.493-1.564,3.493-3.493c0-1.733-1.262-3.171-2.918-3.446Zm-9.153,2.648c-2.161,.418-4.684,.565-6.477,.614-.311-.872-.748-2.309-.994-4.035-.293-2.06-.205-3.828-.129-4.687,.834-.317,2.571-.912,4.543-1.192,1.97-.279,3.809-.191,4.698-.12,.311,.794,.884,2.45,1.18,4.534,.241,1.696,.224,3.19,.171,4.123-.94,.291-1.96,.563-2.993,.763Zm8.577,2.29c-.824,0-1.492-.668-1.492-1.492s.668-1.492,1.492-1.492,1.492,.668,1.492,1.492-.668,1.492-1.492,1.492Z"/>
  <path d="M9.728,11.1l-3.302,.47c-.547,.078-.927,.584-.85,1.131,.071,.499,.499,.859,.989,.859,.047,0,.095-.003,.142-.01l3.302-.47c.547-.078,.927-.584,.85-1.131-.078-.547-.586-.925-1.131-.85Z"/>
</svg>
