<?xml version="1.0" encoding="UTF-8"?>
<svg xmlns="http://www.w3.org/2000/svg" id="Layer_1" data-name="Layer 1" viewBox="0 0 24 24">
  <path d="M21.806,2.858c-.1-.325-.358-.578-.686-.67-.172-.049-4.272-1.188-9.121-1.188S3.052,2.139,2.88,2.188c-.329,.093-.588,.347-.687,.674-.049,.161-1.193,4.007-1.193,9.139,0,5.175,1.146,8.982,1.194,9.142,.1,.325,.358,.578,.686,.67,.172,.049,4.272,1.188,9.121,1.188s8.948-1.139,9.12-1.188c.329-.093,.588-.347,.687-.674,.049-.161,1.193-4.007,1.193-9.139,0-5.175-1.146-8.982-1.194-9.142Zm-.876,11.271c-.101,1.559-.296,2.929-.49,4.001h-2.67v2.354c-1.062,.181-2.359,.356-3.77,.449v-2.804h-4v2.804c-1.413-.092-2.709-.267-3.77-.448v-2.355H3.556c-.194-1.067-.388-2.435-.487-4.001h3.163v-4H3.054c.088-1.541,.271-2.908,.46-3.999h2.716V3.516c1.062-.181,2.359-.356,3.77-.449v3.062h4V3.067c1.413,.092,2.709,.267,3.77,.448v2.615h2.721c.188,1.086,.37,2.451,.457,3.999h-3.178v4h3.162Z"/>
  <rect x="6.231" y="6.129" width="3.769" height="4"/>
  <rect x="14" y="6.129" width="3.769" height="4"/>
  <rect x="10" y="10.129" width="4" height="4"/>
  <rect x="6.231" y="14.129" width="3.769" height="4"/>
  <rect x="14" y="14.129" width="3.769" height="4"/>
</svg>
