<?xml version="1.0" encoding="UTF-8"?>
<svg xmlns="http://www.w3.org/2000/svg" id="Layer_1" data-name="Layer 1" viewBox="0 0 24 24">
  <path d="M21.806,2.858c-.1-.325-.357-.578-.685-.67-.173-.049-4.273-1.188-9.121-1.188S3.052,2.139,2.88,2.188c-.329,.093-.588,.347-.687,.674-.049,.161-1.193,4.007-1.193,9.139,0,5.175,1.146,8.982,1.194,9.142,.1,.325,.358,.578,.686,.67,.172,.049,4.272,1.188,9.121,1.188s8.947-1.139,9.12-1.188c.329-.093,.588-.347,.687-.674,.049-.161,1.193-4.007,1.193-9.139,0-5.175-1.146-8.982-1.194-9.142Zm-1.771,17.167c-1.242,.298-4.458,.975-8.035,.975s-6.796-.678-8.038-.976c-.3-1.184-.962-4.23-.962-8.024,0-3.752,.665-6.829,.964-8.024,1.245-.298,4.467-.976,8.036-.976s6.797,.678,8.037,.976c.301,1.185,.963,4.23,.963,8.024,0,3.752-.665,6.829-.965,8.025Z"/>
</svg>
