<?xml version="1.0" encoding="UTF-8"?>
<svg xmlns="http://www.w3.org/2000/svg" id="Layer_1" data-name="Layer 1" viewBox="0 0 24 24">
  <path d="M22,17.567h-2.05c.311-1.363,.722-3.682,.722-6.438,0-4.38-1.021-7.608-1.064-7.744-.104-.324-.365-.572-.693-.66-.152-.041-3.785-1.001-8.078-1.001S2.911,2.684,2.758,2.725c-.329,.088-.591,.338-.694,.663-.043,.137-1.063,3.397-1.063,7.741,0,4.381,1.021,7.609,1.064,7.744,.104,.324,.365,.572,.693,.66,.031,.008,.7,.186,1.79,.391,.379,1.355,1.626,2.352,3.102,2.352,1.247,0,2.33-.711,2.865-1.748,.766,.004,2.259,.006,2.451,.006,1.925,0,5.131-.792,5.817-.967h3.217c.553,0,1-.448,1-1s-.447-1-1-1ZM3,11.129c0-.79,.037-1.544,.097-2.246h3.891v3.02H3.012c-.008-.253-.012-.512-.012-.774Zm4.649,9.147c-.673,0-1.22-.545-1.22-1.215s.547-1.214,1.22-1.214,1.221,.545,1.221,1.214-.548,1.215-1.221,1.215Zm3.177-1.746c-.254-1.521-1.581-2.683-3.177-2.683-1.368,0-2.539,.856-3.005,2.059-.328-.065-.606-.125-.824-.174-.183-.706-.493-2.072-.675-3.83H7.988c.553,0,1-.448,1-1V7.883c0-.552-.447-1-1-1H3.34c.165-1.044,.354-1.862,.482-2.357,1.143-.257,3.932-.803,7.014-.803s5.877,.546,7.017,.803c.271,1.042,.819,3.525,.819,6.603,0,3.047-.553,5.56-.823,6.609-1.075,.26-3.465,.796-4.883,.796-.169,0-1.351-.001-2.14-.004Z"/>
  <path d="M16.382,6.883h-4.372c-.553,0-1,.448-1,1v5.02c0,.552,.447,1,1,1h4.372c.553,0,1-.448,1-1V7.883c0-.552-.447-1-1-1Zm-1,5.02h-2.372v-3.02h2.372v3.02Z"/>
</svg>
