<?xml version="1.0" encoding="UTF-8"?>
<svg xmlns="http://www.w3.org/2000/svg" id="Layer_1" data-name="Layer 1" viewBox="0 0 24 24">
  <path d="M12,1.798C6.878,1.798,1,3.048,1,12.798c0,3.874,.899,6.635,2.75,8.439,.124,.12,.276,.207,.442,.251,.11,.029,2.758,.714,7.808,.714s7.684-.686,7.793-.714c.166-.045,.317-.13,.439-.25,1.862-1.81,2.767-4.57,2.767-8.44C23,3.048,17.122,1.798,12,1.798Zm7.027,17.814c-.747,.159-3.129,.59-7.027,.59s-6.291-.431-7.042-.59c-1.317-1.422-1.958-3.655-1.958-6.814C3,5.328,6.598,3.798,12,3.798s9,1.53,9,9c0,3.156-.646,5.39-1.973,6.814Z"/>
  <path d="M15.296,8.162l-2.599,2.536c-.219-.073-.454-.113-.697-.113-1.22,0-2.213,.993-2.213,2.213s.993,2.213,2.213,2.213,2.213-.993,2.213-2.213c0-.237-.038-.465-.107-.679l2.587-2.525c.396-.386,.403-1.019,.018-1.414-.386-.396-1.019-.401-1.414-.018Z"/>
</svg>
