<?xml version="1.0" encoding="UTF-8"?>
<svg xmlns="http://www.w3.org/2000/svg" id="Layer_1" data-name="Layer 1" viewBox="0 0 24 24">
  <path d="M20.557,17.777c-2.117,2.026-4.223,3.14-6.07,3.222-3.153,.104-6.743-2.805-8.231-6.112h6.646c.553,0,1-.448,1-1s-.447-1-1-1H5.638c-.047-.289-.076-.576-.083-.861,.008-.302,.038-.606,.089-.911h7.257c.553,0,1-.448,1-1s-.447-1-1-1H6.264c1.485-3.306,5.042-6.177,8.203-6.113,1.868,.082,3.974,1.196,6.09,3.222,.397,.381,1.03,.369,1.414-.031,.382-.399,.368-1.032-.031-1.414-2.507-2.4-4.991-3.67-7.404-3.776-.058-.001-.116-.002-.175-.002-4.227,0-8.702,3.755-10.246,8.114h-1.362c-.553,0-1,.448-1,1s.447,1,1,1h.875c-.04,.303-.065,.607-.073,.911,.007,.287,.03,.574,.067,.861h-.87c-.553,0-1,.448-1,1s.447,1,1,1h1.353c1.535,4.343,6.022,8.113,10.273,8.113,.059,0,.118,0,.177-.002,2.393-.105,4.877-1.375,7.385-3.775,.399-.382,.413-1.015,.031-1.414-.382-.4-1.017-.412-1.414-.031Z"/>
</svg>
