<?xml version="1.0" encoding="UTF-8"?>
<svg xmlns="http://www.w3.org/2000/svg" id="Layer_1" data-name="Layer 1" viewBox="0 0 24 24">
  <path d="M19.303,8.816c-.089-4.032-3.336-7.284-7.316-7.284-4.035,0-7.317,3.344-7.317,7.454,0,.271,.014,.54,.042,.807-2.151,.612-3.712,2.621-3.712,4.986s1.565,4.419,3.806,5.012c.086,.022,.172,.034,.256,.034,.443,0,.848-.296,.966-.745,.141-.534-.177-1.082-.711-1.223-1.365-.361-2.318-1.626-2.318-3.078,0-1.691,1.285-3.085,2.924-3.173,.299-.016,.575-.165,.752-.406,.177-.241,.237-.549,.164-.838-.113-.446-.17-.909-.17-1.376,0-3.007,2.385-5.454,5.317-5.454s5.318,2.446,5.318,5.454c0,.165-.008,.327-.022,.488-.043,.505,.298,.962,.794,1.064,1.693,.35,2.923,1.895,2.923,3.673,0,.552,.448,1,1,1s1-.448,1-1c0-2.429-1.512-4.576-3.697-5.395Z"/>
  <path d="M18.99,15.406c-.195-2.395-2.174-4.283-4.579-4.283-2.533,0-4.594,2.096-4.594,4.671,0,.053,0,.106,.002,.16-1.229,.5-2.09,1.72-2.09,3.137,0,1.862,1.492,3.377,3.327,3.377h6.409c2.009,0,3.644-1.66,3.644-3.701,0-1.462-.854-2.767-2.118-3.361Zm-1.525,5.062h-6.409c-.731,0-1.327-.618-1.327-1.377,0-.733,.552-1.337,1.256-1.375,.298-.016,.574-.165,.751-.406,.177-.241,.237-.548,.164-.838-.056-.22-.084-.447-.084-.676,0-1.473,1.164-2.671,2.594-2.671s2.595,1.198,2.595,2.671c0,.081-.004,.161-.011,.239-.044,.505,.297,.963,.794,1.066,.765,.158,1.319,.859,1.319,1.667,0,.938-.737,1.701-1.644,1.701Z"/>
</svg>
