<?xml version="1.0" encoding="UTF-8"?>
<svg xmlns="http://www.w3.org/2000/svg" id="Layer_1" data-name="Layer 1" viewBox="0 0 24 24">
  <path d="M20.915,21h-1.919c-.115-1.515-.497-2.654-1.05-3.507l1.064-1.059c.391-.39,.393-1.023,.003-1.415-.39-.39-1.023-.394-1.415-.003l-1.058,1.053c-1.063-.703-2.334-.963-3.54-1.043v-1.901c0-.553-.448-1-1-1s-1,.447-1,1v1.901c-1.205,.08-2.477,.34-3.54,1.043l-1.059-1.054c-.392-.391-1.024-.387-1.415,.004-.389,.391-.388,1.024,.003,1.414l1.064,1.059c-.553,.854-.935,1.992-1.05,3.507h-1.919c-.552,0-1,.447-1,1s.448,1,1,1h2.883c.552,0,1-.447,1-1,0-4.168,1.925-5.005,5.032-5.005s5.032,.837,5.032,5.005c0,.553,.447,1,1,1h2.883c.553,0,1-.447,1-1s-.447-1-1-1Z"/>
  <path d="M8.213,6.4c.133,.06,.272,.088,.409,.088,.382,0,.746-.22,.913-.59,.365-.813,.93-1.469,1.465-1.958v5.121c0,.553,.448,1,1,1s1-.447,1-1V3.94c.535,.489,1.1,1.145,1.465,1.958,.226,.504,.815,.728,1.321,.503,.504-.226,.729-.818,.503-1.321-1.172-2.611-3.732-3.919-3.84-3.973-.282-.143-.614-.143-.896,0-.108,.054-2.669,1.361-3.842,3.972-.227,.504-.001,1.096,.502,1.322Z"/>
</svg>
