<?xml version="1.0" encoding="UTF-8"?>
<svg xmlns="http://www.w3.org/2000/svg" id="Layer_1" data-name="Layer 1" viewBox="0 0 24 24">
  <path d="M22,20.953h-.026c.077-.913,.117-1.823,.117-2.717,0-4.694-1.046-8.151-1.09-8.296-.1-.325-.358-.577-.687-.669-.144-.041-3.344-.925-7.314-1.06v-1.204c1.03-.4,1.762-1.398,1.762-2.564,0-1.784-2-3.096-2.229-3.24-.328-.206-.746-.204-1.072,.004-.228,.146-2.223,1.474-2.223,3.236,0,1.166,.732,2.164,1.762,2.565v1.204c-3.962,.135-7.169,1.02-7.314,1.06-.329,.092-.588,.345-.688,.672-.044,.146-1.089,3.638-1.089,8.292,0,.896,.039,1.806,.116,2.717h-.025c-.552,0-1,.448-1,1s.448,1,1,1H22c.553,0,1-.448,1-1s-.447-1-1-1ZM12,10.193c3.193,0,6.071,.593,7.232,.867,.165,.657,.437,1.884,.63,3.474-1.152,1.212-3.107,1.196-4.235-.054-.379-.42-1.105-.42-1.484,0-1.145,1.268-3.145,1.266-4.286,0-.189-.21-.459-.331-.743-.331s-.553,.12-.743,.33c-1.126,1.249-3.082,1.266-4.233,.055,.194-1.585,.466-2.816,.63-3.476,1.164-.274,4.045-.867,7.231-.867Zm-7.968,10.76c-.082-.911-.123-1.822-.123-2.717,0-.463,.011-.915,.032-1.352,.698,.38,1.477,.581,2.289,.581,1.051,0,2.048-.337,2.885-.964,1.674,1.254,4.095,1.254,5.771,0,.837,.627,1.834,.964,2.885,.964,.812,0,1.591-.201,2.289-.581,.02,.437,.031,.889,.031,1.353,0,.894-.042,1.804-.124,2.717H4.032Z"/>
</svg>
