<?xml version="1.0" encoding="UTF-8"?>
<svg xmlns="http://www.w3.org/2000/svg" id="Layer_1" data-name="Layer 1" viewBox="0 0 24 24">
  <path d="M22.642,1.291c-.392-.389-1.025-.386-1.414,.003l-5.155,5.181c-1.494-1.308-3.253-2.33-5.192-2.977-.361-.119-.759-.027-1.027,.243L3.532,10.093c-1.971,1.98-2.839,4.806-2.322,7.557l.414,2.203c.249,1.32,1.258,2.335,2.574,2.584l2.192,.415c.522,.1,1.046,.147,1.567,.147,2.216,0,4.365-.878,5.962-2.483l6.32-6.352c.265-.266,.358-.657,.242-1.014-.636-1.959-1.663-3.743-2.994-5.262l5.158-5.184c.39-.392,.388-1.025-.004-1.415ZM6.762,20.887h0l-2.192-.415c-.5-.095-.885-.483-.98-.988l-.414-2.203c-.254-1.353-.07-2.729,.494-3.941l.403,.405c1.019,1.024,2.365,1.588,3.791,1.588h0c.304,0,.605-.026,.9-.076-.271,1.666,.231,3.435,1.506,4.717l.412,.414c-1.206,.568-2.575,.754-3.921,.5Zm5.601-1.646l-.674-.678c-1.33-1.336-1.33-3.511,0-4.847l1.718-1.726c.39-.392,.388-1.025-.004-1.415-.39-.389-1.023-.389-1.414,.003,0,0-1.743,1.752-1.756,1.765-.643,.638-1.482,.988-2.368,.988h0c-.89,0-1.732-.354-2.374-.999l-.681-.684c.046-.049,6.015-6.05,6.015-6.05,3.473,1.324,6.241,4.109,7.556,7.599,0,0-5.971,5.998-6.017,6.042Z"/>
</svg>
