<?xml version="1.0" encoding="UTF-8"?>
<svg xmlns="http://www.w3.org/2000/svg" id="Layer_1" data-name="Layer 1" viewBox="0 0 24 24">
  <path d="M20.127,4.365l-2.629-.772v-.526c0-.329-.161-.636-.432-.823-.073-.051-1.838-1.244-5.074-1.244-3.189,0-4.989,1.186-5.064,1.237-.275,.186-.441,.497-.441,.83v.527l-2.615,.771c-.425,.125-.717,.516-.717,.959v3.324c0,.524,.403,.954,.916,.996l1.443,11.799c.044,.36,.279,.668,.616,.805,.076,.031,1.898,.751,5.87,.751s5.794-.721,5.87-.751c.337-.137,.572-.445,.616-.805l1.443-11.799c.513-.043,.916-.472,.916-.996v-3.324c0-.444-.292-.834-.719-.959Zm-12.357,.936c.425-.125,.717-.516,.717-.959v-.67c.602-.267,1.797-.671,3.506-.671,1.731,0,2.917,.403,3.506,.667v.675c0,.444,.292,.834,.719,.959l2.629,.772v1.075c-1.047-.187-3.762-.613-6.846-.613s-5.799,.425-6.846,.613v-1.076l2.615-.771Zm7.277,8.306c-.405-1.37-1.618-2.368-3.047-2.368s-2.642,.997-3.047,2.368h-2.384l-.56-4.574c1.209-.195,3.489-.497,5.99-.497s4.779,.303,5.99,.498l-.56,4.574h-2.384Zm-1.856,1c0,.754-.534,1.368-1.19,1.368s-1.19-.614-1.19-1.368,.534-1.368,1.19-1.368,1.19,.614,1.19,1.368Zm-1.19,6.394c-2.359,0-3.851-.27-4.581-.449l-.605-4.944h2.139c.405,1.37,1.618,2.368,3.047,2.368s2.642-.997,3.047-2.368h2.139l-.605,4.944c-.732,.18-2.224,.45-4.581,.45Z"/>
</svg>
