<?xml version="1.0" encoding="UTF-8"?>
<svg xmlns="http://www.w3.org/2000/svg" id="Layer_1" data-name="Layer 1" viewBox="0 0 24 24">
  <path d="M19.302,9.125c-.105-3.899-3.346-7.039-7.314-7.039-4.035,0-7.318,3.246-7.318,7.235,0,.25,.013,.5,.039,.748-2.149,.597-3.708,2.55-3.708,4.849s1.564,4.297,3.804,4.875c.535,.139,1.08-.183,1.219-.719,.138-.535-.185-1.08-.719-1.218-1.356-.35-2.304-1.558-2.304-2.938,0-1.615,1.283-2.946,2.922-3.032,.301-.016,.578-.166,.756-.408,.177-.243,.236-.552,.16-.843-.112-.428-.169-.87-.169-1.313,0-2.887,2.386-5.235,5.318-5.235s5.317,2.348,5.317,5.235c0,.156-.008,.31-.021,.462-.046,.509,.299,.971,.801,1.071,1.689,.337,2.916,1.815,2.916,3.514,0,1.978-1.636,3.586-3.646,3.586h-1.801c-.553,0-1,.448-1,1s.447,1,1,1h1.801c3.113,0,5.646-2.506,5.646-5.586,0-2.361-1.513-4.448-3.698-5.244Z"/>
  <path d="M14.738,14.278l.276,.144c.147,.077,.306,.113,.461,.113,.361,0,.71-.196,.888-.538,.255-.49,.065-1.094-.425-1.349l-.034-.018,.034-.018c.49-.255,.68-.859,.425-1.349s-.858-.68-1.349-.425l-.276,.144v-.311c0-.552-.447-1-1-1s-1,.448-1,1v.311l-.276-.144c-.491-.256-1.095-.065-1.349,.425-.255,.49-.065,1.094,.425,1.349l.034,.018-.034,.018c-.49,.255-.68,.859-.425,1.349,.178,.342,.526,.538,.888,.538,.155,0,.313-.036,.461-.113l.276-.144v.311c0,.552,.447,1,1,1s1-.448,1-1v-.311Z"/>
  <path d="M12.865,17.587c-.254-.489-.857-.681-1.349-.425l-.276,.144v-.311c0-.552-.447-1-1-1s-1,.448-1,1v.311l-.275-.143c-.491-.257-1.096-.065-1.349,.425-.255,.49-.065,1.094,.425,1.349l.036,.019-.036,.019c-.49,.255-.68,.859-.425,1.349,.178,.342,.526,.538,.888,.538,.155,0,.313-.036,.461-.113l.275-.143v.311c0,.552,.447,1,1,1s1-.448,1-1v-.311l.276,.144c.147,.077,.306,.113,.461,.113,.361,0,.71-.196,.888-.538,.255-.49,.065-1.094-.425-1.349l-.036-.019,.036-.019c.49-.255,.68-.859,.425-1.349Z"/>
</svg>
