<?xml version="1.0" encoding="UTF-8"?>
<svg xmlns="http://www.w3.org/2000/svg" id="Layer_1" data-name="Layer 1" viewBox="0 0 24 24">
  <path d="M21.985,12.524c-1.641-3.783-5.81-8.349-8.148-10.734-.977-.996-2.696-.996-3.673,0C7.825,4.175,3.656,8.741,2.015,12.524c-.14,.324-.1,.697,.106,.983,.202,.28,4.982,6.875,8.544,9.11,.405,.254,.87,.381,1.334,.381s.929-.127,1.334-.381c3.562-2.235,8.343-8.83,8.544-9.11,.206-.286,.247-.659,.106-.983Zm-2.416-.376c-2.119,.777-4.322,1.255-6.569,1.426V3.801c1.796,1.877,4.894,5.318,6.569,8.348ZM11,3.801V13.575c-2.247-.17-4.45-.649-6.569-1.426,1.674-3.03,4.772-6.47,6.569-8.348ZM5.477,14.596c1.8,.523,3.648,.853,5.523,.984v4.832c-1.868-1.435-4.044-3.968-5.523-5.816Zm7.523,5.816v-4.832c1.875-.131,3.723-.461,5.523-.984-1.478,1.848-3.654,4.381-5.523,5.816Z"/>
</svg>
