<?xml version="1.0" encoding="UTF-8"?>
<svg xmlns="http://www.w3.org/2000/svg" id="Layer_1" data-name="Layer 1" viewBox="0 0 24 24">
  <path d="M10.909,4.074c-.309-.172-.685-.167-.989,.012-.325,.191-7.963,4.733-8.057,10.37,.13,4.332,4.283,8.484,8.576,8.544,4.266-.06,8.55-4.431,8.55-8.544,0-5.685-7.754-10.203-8.08-10.382Zm-.47,16.926c-3.221-.045-6.479-3.316-6.576-6.557,.062-3.762,4.981-7.279,6.576-8.321,1.593,.992,6.461,4.344,6.55,8.299-.113,3.279-3.363,6.535-6.55,6.58Z"/>
  <path d="M19.049,1c-2.552,0-3.088,1.67-3.088,3.071s.536,3.071,3.088,3.071,3.088-1.67,3.088-3.071-.536-3.071-3.088-3.071Zm0,4.143c-.869,0-1.088-.126-1.088-1.071s.219-1.071,1.088-1.071,1.088,.126,1.088,1.071-.219,1.071-1.088,1.071Z"/>
</svg>
