<?xml version="1.0" encoding="UTF-8"?>
<svg xmlns="http://www.w3.org/2000/svg" id="Layer_1" data-name="Layer 1" viewBox="0 0 24 24">
  <path d="M21.888,12.253c-.072-.128-.172-.238-.292-.323-.158-.112-1.412-.977-2.717-1.197l.069-1.115c.353-.659,.486-1.271,.403-1.862-.316-2.287-2.061-3.652-4.666-3.652-.137,0-.271,.007-.406,.021-.645-1.822-2.399-3.125-4.409-3.125-2.251,0-4.136,1.596-4.576,3.714-2.996,.33-3.657,2.146-3.657,3.685,0,.572,.132,1.136,.384,1.648l.736,11.395c.028,.441,.343,.811,.773,.91,.115,.026,2.86,.648,6.954,.648s6.84-.622,6.955-.648c.432-.1,.746-.471,.773-.913l.161-2.581c1.162-.014,2.236-.307,2.292-.323,.209-.058,.394-.182,.525-.354,.086-.111,.846-1.141,1.104-2.858,.271-1.807-.337-2.946-.407-3.069ZM6.209,6.661c.548-.007,.988-.453,.988-1,0-1.467,1.199-2.661,2.673-2.661,1.379,0,2.548,1.071,2.663,2.438,.026,.324,.21,.615,.49,.779,.279,.165,.623,.182,.92,.048,.234-.106,.483-.161,.742-.161,2.419,0,2.619,1.45,2.686,1.927h0c.007,.049,.006,.102-.003,.16-.888-.158-2.341-.368-3.567-.309-.533,.025-.952,.465-.952,.999v2.686c0,.663-.543,1.202-1.21,1.202s-1.209-.539-1.209-1.202v-2.835c0-.523-.403-.958-.925-.997-.549-.042-1.061-.06-1.538-.06-2.032,0-3.437,.334-4.33,.666,.016-1.046,.459-1.655,2.572-1.68Zm4.275,14.339c-2.664,0-4.744-.283-5.781-.46l-.659-10.201c.646-.281,2.037-.715,4.386-.657v1.885c0,1.766,1.439,3.202,3.209,3.202s3.21-1.437,3.21-3.202v-1.676c.745,.043,1.508,.155,2.063,.251l-.647,10.398c-1.037,.176-3.117,.459-5.78,.459Zm9.832-5.974c-.116,.776-.377,1.354-.548,1.668-.334,.069-.802,.143-1.27,.161l.255-4.107c.494,.127,1.064,.418,1.462,.667,.092,.273,.218,.829,.101,1.611Z"/>
</svg>
