<?xml version="1.0" encoding="UTF-8"?>
<svg xmlns="http://www.w3.org/2000/svg" id="Layer_1" data-name="Layer 1" viewBox="0 0 24 24">
  <path d="M19.862,2.398c-.101-.287-.327-.512-.614-.613-5.346-1.864-10.419,.151-10.632,.238-.238,.097-.429,.281-.535,.514-2.161,4.781-1.756,9.529-1.535,11.11l-1.917,1.911c-.826,.824-1.281,1.918-1.281,3.083s.455,2.259,1.281,3.083c.851,.848,1.97,1.272,3.088,1.272s2.237-.424,3.089-1.273c1.157-1.153,3.041-1.154,4.199,0l.865,.862c.39,.389,1.024,.388,1.414-.003,.39-.391,.389-1.024-.003-1.414l-.865-.861c-1.936-1.93-5.086-1.931-7.022,0-.925,.921-2.43,.921-3.354,0-.447-.445-.693-1.037-.693-1.666s.246-1.221,.693-1.666l1.919-1.913c.567,.079,1.544,.182,2.787,.182,2.22,0,5.284-.329,8.361-1.71,.234-.105,.418-.296,.516-.533,.087-.213,2.112-5.272,.239-10.604Zm-1.644,8.359l-2.969-2.959,3.158-3.147c.479,2.428,.148,4.693-.189,6.106Zm-1.23-7.516l-3.156,3.145-2.969-2.959c1.415-.338,3.682-.667,6.125-.186Zm-7.634,1.507l3.061,3.051-4.025,4.011c-.079-1.712,.024-4.332,.964-7.062Zm.46,8.468l4.018-4.005,3.059,3.049c-2.728,.929-5.356,1.032-7.077,.956Z"/>
</svg>
