<?xml version="1.0" encoding="UTF-8"?>
<svg xmlns="http://www.w3.org/2000/svg" id="Layer_1" data-name="Layer 1" viewBox="0 0 24 24">
  <g>
    <path d="M22.466,10.33c-.067-.325-.292-.594-.599-.72-.081-.034-2.03-.824-4.327-.824-.539,0-1.097,.044-1.667,.129-.215-3.012-.604-4.994-.627-5.107-.063-.322-.282-.592-.584-.723-.116-.05-2.885-1.23-6.155-1.23S2.47,3.034,2.354,3.084c-.303,.13-.521,.402-.586,.725-.031,.159-.768,3.952-.768,9.021,0,4.032,.469,7.272,.67,8.479,.08,.482,.498,.835,.986,.835H21.643c.495,0,.915-.362,.989-.852,.168-1.119,.368-2.895,.368-4.997,0-3.375-.512-5.862-.534-5.966ZM3.514,20.145c-.215-1.499-.514-4.15-.514-7.314,0-3.789,.438-6.893,.636-8.097,.865-.306,2.768-.879,4.871-.879s4.006,.575,4.873,.88c.197,1.197,.634,4.28,.634,8.096,0,3.147-.3,5.808-.515,7.314H3.514Zm17.255,0h-5.251c.22-1.607,.496-4.24,.496-7.314,0-.66-.012-1.298-.034-1.908,.539-.091,1.061-.137,1.56-.137,1.267,0,2.431,.3,3.066,.5,.144,.878,.394,2.736,.394,5.011,0,1.508-.109,2.836-.231,3.849Z"/>
    <path d="M6.725,6.1h-.997c-.553,0-1,.448-1,1s.447,1,1,1h.997c.553,0,1-.448,1-1s-.447-1-1-1Z"/>
    <path d="M11.286,6.1h-.996c-.553,0-1,.448-1,1s.447,1,1,1h.996c.553,0,1-.448,1-1s-.447-1-1-1Z"/>
    <path d="M6.725,9.675h-.997c-.553,0-1,.448-1,1s.447,1,1,1h.997c.553,0,1-.448,1-1s-.447-1-1-1Z"/>
    <path d="M11.286,9.675h-.996c-.553,0-1,.448-1,1s.447,1,1,1h.996c.553,0,1-.448,1-1s-.447-1-1-1Z"/>
    <path d="M6.725,13.249h-.997c-.553,0-1,.448-1,1s.447,1,1,1h.997c.553,0,1-.448,1-1s-.447-1-1-1Z"/>
    <path d="M11.286,13.249h-.996c-.553,0-1,.448-1,1s.447,1,1,1h.996c.553,0,1-.448,1-1s-.447-1-1-1Z"/>
    <path d="M6.725,16.824h-.997c-.553,0-1,.448-1,1s.447,1,1,1h.997c.553,0,1-.448,1-1s-.447-1-1-1Z"/>
    <path d="M11.286,16.824h-.996c-.553,0-1,.448-1,1s.447,1,1,1h.996c.553,0,1-.448,1-1s-.447-1-1-1Z"/>
  </g>
  <circle cx="18.03" cy="13.686" r=".999"/>
  <circle cx="18.03" cy="17.257" r=".999"/>
</svg>
