<?xml version="1.0" encoding="UTF-8"?>
<svg xmlns="http://www.w3.org/2000/svg" id="Layer_1" data-name="Layer 1" viewBox="0 0 24 24">
  <path d="M22.877,12.662c-.07-.171-1.757-4.216-4.545-7.017C15.592,2.892,12.617,1.2,12.491,1.129c-.299-.168-.664-.172-.965-.009-.119,.064-2.951,1.604-5.858,4.525C2.694,8.633,1.177,12.52,1.114,12.684c-.132,.344-.065,.733,.176,1.012,.068,.079,1.704,1.972,4.378,4.66,2.74,2.753,5.716,4.445,5.841,4.516,.152,.086,.322,.129,.491,.129,.163,0,.326-.04,.474-.12,.119-.064,2.951-1.604,5.858-4.525,2.854-2.869,4.322-4.594,4.383-4.666,.242-.286,.304-.682,.162-1.028Zm-2.736-1.06l-3.377-.968-2.602-5.968c.856,.651,1.824,1.458,2.752,2.39,1.398,1.404,2.512,3.214,3.227,4.546Zm-8.142,2.534l-2.857-2.871,2.857-6.554,2.857,6.554-2.857,2.871ZM7.085,7.056c.963-.968,1.924-1.776,2.763-2.416l-2.613,5.994-3.411,.978c.685-1.293,1.779-3.066,3.261-4.555Zm-3.144,6.602l3.705-1.062,3.353,3.369v4.21c-1.059-.728-2.531-1.841-3.915-3.231-1.326-1.332-2.402-2.477-3.144-3.286Zm12.973,3.286c-1.445,1.452-2.886,2.545-3.915,3.248v-4.227l3.353-3.369,3.709,1.063c-.718,.783-1.772,1.903-3.148,3.285Z"/>
</svg>
