<?xml version="1.0" encoding="UTF-8"?>
<svg xmlns="http://www.w3.org/2000/svg" id="Layer_1" data-name="Layer 1" viewBox="0 0 24 24">
  <path d="M22.204,5.655c-.181-.038-4.235-.871-9.204-.975v-1.431h1.485c.553,0,1-.447,1-1s-.447-1-1-1h-4.971c-.553,0-1,.447-1,1s.447,1,1,1h1.485v1.431c-4.969,.103-9.023,.936-9.204,.975-.54,.112-.888,.642-.774,1.183,.111,.54,.634,.879,1.183,.775,.002,0,.011-.002,.027-.005l-.094,12.669c-.003,.456,.302,.856,.742,.974,.174,.047,4.326,1.142,9.121,1.142s8.947-1.095,9.121-1.142c.44-.117,.745-.518,.742-.974l-.094-12.669c.015,.003,.025,.005,.027,.005,.069,.014,.138,.021,.205,.021,.464,0,.88-.324,.978-.796,.113-.541-.234-1.07-.774-1.183Zm-2.347,13.841c-1.375,.305-4.476,.896-7.857,.896s-6.479-.592-7.857-.896l.091-12.227c1.823-.269,4.681-.598,7.767-.598s5.944,.329,7.767,.598l.091,12.228Z"/>
</svg>
