<?xml version="1.0" encoding="UTF-8"?>
<svg xmlns="http://www.w3.org/2000/svg" id="Layer_1" data-name="Layer 1" viewBox="0 0 24 24">
  <path d="M2.171,17.66c-1.184,1.106-1.043,3.906-.995,4.417,.046,.483,.433,.863,.917,.902,.13,.01,.395,.027,.738,.027,1.011,0,2.702-.147,3.618-1.046,.968-1.05,1.216-3.186,.065-4.387-1.157-1.145-3.311-.878-4.343,.086Zm2.843,2.908c-.255,.25-1.058,.398-1.871,.431,.022-.77,.15-1.591,.427-1.909,.37-.324,1.246-.383,1.519-.113,.298,.312,.234,1.254-.075,1.592Z"/>
  <path d="M13.936,12.87c.657,0,1.299-.314,1.91-.935,.703-.714,1.637-2.161,0-3.822-.619-.629-1.239-.936-1.896-.936s-1.3,.315-1.911,.935c-.703,.714-1.637,2.16,0,3.823,.619,.629,1.239,.935,1.896,.935Z"/>
  <path d="M22.498,2.023c-.096-.323-.348-.576-.67-.673-.266-.081-6.087-1.753-11.94,2.912-1.613-1.072-3.623-.814-4.709-.304-1.689,.795-2.937,2.845-3.074,3.076-.075,.126-.121,.268-.135,.415-.027,.28-.201,2.572,.967,4.209-.102,.394-.115,.812-.032,1.225,.175,.863,.758,1.577,1.559,1.909,1.154,.479,2.129,1.117,2.897,1.897,.769,.781,1.397,1.773,1.87,2.951,.33,.819,1.043,1.412,1.91,1.586,.175,.035,.75,.105,1.191-.033,1.2,.869,2.75,1.002,3.582,1.002,.738,0,.863-.086,.993-.165,.228-.139,2.247-1.406,3.027-3.119,.501-1.098,.751-3.136-.312-4.767,4.626-5.961,2.957-11.851,2.876-12.12ZM3.948,7.857c.373-.567,1.231-1.689,2.082-2.09,.516-.243,1.444-.397,2.276-.081-.013,.013-.025,.025-.038,.038l-4.039,4.104c-.249-.696-.294-1.495-.28-1.971Zm7.138,11.038c-.571-1.425-1.345-2.639-2.3-3.608-.957-.973-2.154-1.761-3.557-2.343-.257-.107-.338-.333-.364-.459-.048-.235,.021-.475,.186-.641l4.642-4.716C14.814,1.96,20.288,3.069,20.698,3.143c.28,1.624,.651,6.572-3.926,11.222l-4.645,4.717c-.225,.228-.49,.207-.595,.184-.121-.024-.34-.104-.447-.37Zm7.028-.814c-.394,.864-1.474,1.722-2.049,2.111-.48,.006-1.259-.043-1.934-.294l4.067-4.13,.007-.007c.303,.85,.15,1.794-.09,2.32Z"/>
</svg>
