<?xml version="1.0" encoding="UTF-8"?>
<svg xmlns="http://www.w3.org/2000/svg" id="Layer_1" data-name="Layer 1" viewBox="0 0 24 24">
  <path d="M16.187,12c1.519-1.258,3.145-3.338,3.988-6.732,.052-.209,.035-.429-.049-.628-.062-.149-1.602-3.64-8.126-3.64S3.936,4.492,3.874,4.64c-.083,.199-.1,.419-.048,.628,.843,3.394,2.469,5.474,3.988,6.732-1.519,1.258-3.146,3.338-3.988,6.732-.052,.209-.035,.429,.048,.628,.062,.148,1.602,3.64,8.126,3.64s8.063-3.491,8.126-3.64c.084-.199,.101-.419,.049-.628-.844-3.394-2.47-5.474-3.988-6.732Zm-4.187,9c-4.165,0-5.692-1.558-6.132-2.171,.944-3.4,2.782-5.123,4.183-5.974,.299-.181,.481-.505,.481-.854s-.182-.673-.481-.854c-1.401-.851-3.238-2.573-4.182-5.972,.45-.627,1.981-2.174,6.131-2.174s5.692,1.558,6.132,2.171c-.943,3.4-2.781,5.123-4.183,5.974-.298,.181-.48,.505-.48,.854s.183,.673,.48,.854c1.401,.851,3.238,2.573,4.183,5.972-.451,.628-1.982,2.174-6.132,2.174Z"/>
</svg>
