<?xml version="1.0" encoding="UTF-8"?>
<svg xmlns="http://www.w3.org/2000/svg" id="Layer_1" data-name="Layer 1" viewBox="0 0 24 24">
  <path d="M19.512,3.085c-.309-.169-.683-.165-.987,.013-.35,.205-3.423,2.071-3.465,4.602,.061,2.031,1.946,3.906,3.983,3.935,2.011-.028,3.957-1.953,3.957-3.935,0-2.636-3.136-4.42-3.488-4.615Zm-.469,6.549c-.936-.013-1.955-1.038-1.983-1.948,.015-.882,1.138-1.93,1.98-2.537,.779,.541,1.924,1.542,1.96,2.515-.045,.949-1.056,1.958-1.957,1.97Z"/>
  <path d="M12.639,9.93c-.309-.169-.683-.165-.987,.013-.528,.309-5.172,3.125-5.232,6.81,.088,2.942,2.816,5.658,5.751,5.698,2.908-.041,5.725-2.876,5.725-5.698,0-3.795-5.044-6.706-5.256-6.822Zm-.469,10.521c-1.803-.025-3.696-1.921-3.751-3.711,.031-1.881,2.389-3.847,3.75-4.759,1.349,.867,3.672,2.765,3.726,4.736-.071,1.829-1.956,3.709-3.725,3.734Z"/>
  <path d="M10.039,6.927c.078-2.703-3.629-5.029-4.037-5.253-.309-.169-.684-.166-.986,.013-.406,.237-3.969,2.398-4.016,5.289,.07,2.314,2.218,4.45,4.533,4.481,2.288-.032,4.437-2.137,4.506-4.529Zm-4.506,2.529c-1.218-.017-2.496-1.299-2.533-2.495,.02-1.217,1.567-2.553,2.533-3.229,.951,.641,2.465,1.924,2.506,3.207-.054,1.235-1.323,2.501-2.506,2.518Z"/>
</svg>
