<?xml version="1.0" encoding="UTF-8"?>
<svg xmlns="http://www.w3.org/2000/svg" id="Layer_1" data-name="Layer 1" viewBox="0 0 24 24">
  <path d="M4.15,10.993c.458,0,.87-.315,.975-.781,.121-.539-.217-1.074-.756-1.195-.776-.175-1.34-.884-1.34-1.687,0-.761,.484-1.424,1.205-1.65,.257-.081,.471-.263,.593-.503,.678-1.343,2.031-2.177,3.53-2.177,.871,0,1.696,.278,2.388,.805,.276,.21,.643,.262,.968,.136,1.093-.426,2.366-.233,3.287,.504,.431,.346,1.062,.276,1.406-.155,.346-.431,.276-1.061-.155-1.406-1.315-1.054-3.132-1.421-4.74-.98-.944-.593-2.023-.904-3.153-.904-2.125,0-4.053,1.11-5.123,2.924-1.334,.592-2.205,1.913-2.205,3.407,0,1.73,1.22,3.26,2.902,3.638,.074,.017,.147,.024,.22,.024Z"/>
  <path d="M22.971,12.009c-.052-1.493-.968-2.783-2.322-3.328-1.133-1.775-3.1-2.824-5.221-2.744-1.129,.04-2.198,.388-3.121,1.014-.462-.11-.936-.153-1.415-.14-1.641,.057-3.14,.85-4.114,2.175-.327,.445-.231,1.071,.213,1.398,.446,.329,1.071,.232,1.398-.213,.609-.83,1.547-1.325,2.572-1.361,.421-.017,.824,.047,1.213,.183,.328,.113,.693,.05,.962-.17,.673-.55,1.488-.856,2.359-.887,1.509-.057,2.879,.734,3.604,2.053,.13,.236,.35,.411,.61,.482,.728,.201,1.234,.847,1.261,1.607,.019,.54,.463,.965,.999,.965,.012,0,.023,0,.035,0,.552-.019,.984-.482,.965-1.034Z"/>
  <path d="M20.007,13.996c-1.071-1.813-2.999-2.924-5.123-2.924-1.13,0-2.209,.311-3.154,.904-1.984-.545-4.215,.164-5.527,1.758-1.748,.314-3.054,1.84-3.054,3.669,0,2.026,1.62,3.68,3.629,3.727,1.386,1.231,3.425,1.656,5.169,1.096,.892,.508,1.896,.774,2.936,.774,1.695,0,3.279-.707,4.407-1.954,1.692-.367,2.921-1.864,2.921-3.643,0-1.494-.871-2.815-2.205-3.407Zm-1.339,5.126c-.27,.027-.517,.162-.686,.375-.755,.955-1.884,1.503-3.099,1.503-.811,0-1.589-.244-2.251-.706-.171-.119-.371-.18-.572-.18-.137,0-.274,.028-.403,.085-1.261,.557-2.806,.246-3.763-.771-.215-.229-.526-.341-.836-.309-.98,.113-1.909-.699-1.909-1.717,0-.927,.72-1.685,1.64-1.727,.313-.015,.602-.175,.78-.434,.859-1.256,2.555-1.773,3.96-1.229,.324,.125,.691,.075,.967-.137,.692-.526,1.518-.805,2.388-.805,1.5,0,2.852,.834,3.53,2.177,.122,.241,.335,.423,.593,.504,.721,.227,1.205,.89,1.205,1.65,0,.893-.664,1.631-1.544,1.719Z"/>
</svg>
