<?xml version="1.0" encoding="UTF-8"?>
<svg xmlns="http://www.w3.org/2000/svg" id="Layer_1" data-name="Layer 1" viewBox="0 0 24 24">
  <path d="M22.988,9.671c.013-.127,.271-3.155-2.597-5.195-2.207-1.531-5.342-2.445-8.387-2.445-2.354,0-5.795,.643-8.403,2.452C.742,6.516,1,9.543,1.007,9.575c0,2.75,2.362,4.395,4.646,4.395,2.115,0,4.383-1.418,4.613-4.518,.313-.176,.884-.405,1.734-.405s1.426,.231,1.734,.404c.229,3.101,2.497,4.52,4.613,4.52,1.158,0,2.307-.411,3.152-1.128,.963-.816,1.493-1.976,1.488-3.17Zm-1.995-.096c0,1.555-1.363,2.395-2.646,2.395-1.272,0-2.632-.799-2.632-3.042,0-.266-.105-.52-.293-.708-.12-.12-1.239-1.174-3.422-1.174s-3.302,1.054-3.422,1.174c-.188,.188-.293,.442-.293,.708,0,2.243-1.359,3.042-2.632,3.042-.692,0-1.37-.238-1.859-.653-.359-.304-.787-.853-.792-1.837-.001-.02-.169-1.996,1.748-3.359,2.221-1.542,5.296-2.089,7.253-2.089,2.653,0,5.362,.781,7.237,2.082,1.893,1.346,1.762,3.292,1.752,3.462Z"/>
  <path d="M2.739,15.969h-.739c-.552,0-1,.448-1,1s.448,1,1,1h.739c.552,0,1-.448,1-1s-.448-1-1-1Z"/>
  <path d="M6.815,17.969h.74c.552,0,1-.448,1-1s-.448-1-1-1h-.74c-.552,0-1,.448-1,1s.448,1,1,1Z"/>
  <path d="M12.37,17.969c.552,0,1-.448,1-1s-.448-1-1-1h-.739c-.552,0-1,.448-1,1s.448,1,1,1h.739Z"/>
  <path d="M17.185,15.969h-.74c-.552,0-1,.448-1,1s.448,1,1,1h.74c.552,0,1-.448,1-1s-.448-1-1-1Z"/>
  <path d="M22,15.969h-.739c-.552,0-1,.448-1,1s.448,1,1,1h.739c.552,0,1-.448,1-1s-.448-1-1-1Z"/>
  <path d="M2.739,19.969h-.739c-.552,0-1,.448-1,1s.448,1,1,1h.739c.552,0,1-.448,1-1s-.448-1-1-1Z"/>
  <path d="M17.185,19.969H6.815c-.552,0-1,.448-1,1s.448,1,1,1h10.37c.552,0,1-.448,1-1s-.448-1-1-1Z"/>
  <path d="M22,19.969h-.739c-.552,0-1,.448-1,1s.448,1,1,1h.739c.552,0,1-.448,1-1s-.448-1-1-1Z"/>
</svg>
