<?xml version="1.0" encoding="UTF-8"?>
<svg xmlns="http://www.w3.org/2000/svg" id="Layer_1" data-name="Layer 1" viewBox="0 0 24 24">
  <path d="M14.415,2.1c-2.252-1.356-2.617-1.156-2.941-.967-2.725,1.594-4.333,3.803-4.6,6.438l-.403-.405c-.206-.206-.493-.307-.782-.292-.291,.021-.557,.168-.73,.403-1.471,1.987-2.273,4.452-2.319,7.179,.141,4.486,4.507,8.479,9.371,8.543,4.838-.064,9.204-4.057,9.345-8.547,.187-7-4.269-10.744-6.94-12.353Zm-4.996,16.096c.02-1.117,1.409-2.828,2.585-3.975,1.021,.978,2.527,2.687,2.57,3.951-.055,1.178-1.357,2.812-2.564,2.828-1.242-.017-2.555-1.674-2.591-2.804Zm9.937-3.801c-.063,1.996-1.295,3.903-3.053,5.15,.163-.447,.258-.901,.272-1.335v-.05c-.052-2.778-3.544-5.733-3.942-6.061-.375-.309-.917-.304-1.285,.012-.397,.339-3.882,3.393-3.928,6.099,.014,.434,.109,.888,.272,1.335-1.761-1.243-2.991-3.136-3.053-5.101,.032-1.857,.465-3.53,1.287-4.989l1.412,1.417c.313,.314,.797,.383,1.185,.172,.39-.211,.594-.655,.501-1.088-.002-.012-.256-1.216-.162-2.17,.186-1.873,1.26-3.441,3.195-4.669,1.59,.722,7.495,3.908,7.298,11.278Z"/>
</svg>
