<?xml version="1.0" encoding="UTF-8"?>
<svg xmlns="http://www.w3.org/2000/svg" id="Layer_1" data-name="Layer 1" viewBox="0 0 24 24">
  <path d="M21.964,2.252c-.131-.332-.43-.568-.783-.621-.173-.025-4.298-.631-9.181-.631S2.993,1.605,2.819,1.631c-.354,.053-.653,.291-.784,.624-.036,.091-.874,2.263-.874,5.14,0,2.899,.84,5.052,.875,5.142,.139,.35,.461,.592,.835,.627,.042,.005,4.254,.399,9.082,.624,2.334,.108,5.485,.288,6.643,.354,.056,.168,.12,.472,.12,.979,0,.518-.067,.822-.125,.988-.94,.072-3.344,.243-6.364,.345-2.824,.094-5.297,.294-5.322,.296-.301,.025-.575,.185-.745,.435-.066,.097-.644,.989-.644,2.541,0,1.566,.581,2.453,.647,2.549,.163,.235,.418,.39,.703,.425,.102,.012,2.526,.301,5.394,.301,.552,0,1-.447,1-1s-.448-1-1-1c-1.957,0-3.733-.145-4.599-.229-.074-.238-.145-.588-.145-1.046,0-.445,.068-.789,.14-1.026,.888-.063,2.676-.181,4.637-.247,3.951-.132,6.869-.382,6.898-.385,.113-.01,.224-.039,.327-.086,.36-.163,1.197-.77,1.197-2.86,0-2.116-.849-2.712-1.214-2.869-.107-.046-.221-.073-.338-.08,0,0-4.196-.247-7.118-.383-3.672-.17-6.984-.44-8.339-.559-.217-.739-.547-2.139-.547-3.836s.341-3.125,.559-3.866c1.317-.166,4.617-.528,8.28-.528s6.969,.363,8.284,.528c.177,.596,.434,1.642,.523,2.938-1.545,.104-4.721,.289-7.658,.289-2.854,0-5.772-.35-5.802-.354-.549-.067-1.046,.324-1.113,.873-.066,.548,.324,1.046,.872,1.113,.124,.015,3.064,.367,6.042,.367,4.137,0,8.724-.359,8.77-.363,.52-.041,.921-.476,.921-.997,0-2.9-.84-5.053-.875-5.143Z"/>
</svg>
