<?xml version="1.0" encoding="UTF-8"?>
<svg xmlns="http://www.w3.org/2000/svg" id="Layer_1" data-name="Layer 1" viewBox="0 0 24 24">
  <path d="M21.236,6.405c-.112-.318-.378-.558-.706-.638-.116-.028-2.13-.512-4.938-.781v-.403c0-1.976-1.607-3.583-3.601-3.583-1.975,0-3.582,1.607-3.582,3.583v.403c-2.805,.27-4.822,.753-4.938,.781-.33,.08-.596,.321-.708,.642-.046,.132-1.135,3.291-1.135,7.495,0,4.24,1.089,7.368,1.136,7.499,.113,.318,.378,.558,.707,.638,.161,.039,3.995,.96,8.53,.96s8.368-.921,8.53-.96c.329-.08,.596-.321,.708-.642,.046-.132,1.134-3.291,1.134-7.495,0-4.24-1.089-7.368-1.136-7.499Zm-10.828-1.822c0-.873,.709-1.583,1.601-1.583,.873,0,1.583,.71,1.583,1.583v.261c-.517-.023-1.049-.037-1.592-.037s-1.074,.013-1.591,.037v-.261Zm1.591,2.225c3.325,0,6.319,.538,7.512,.784,.189,.66,.501,1.911,.693,3.525-1.407,.277-4.634,.822-8.205,.822s-6.793-.545-8.202-.822c.193-1.604,.505-2.861,.693-3.526,1.194-.246,4.185-.783,7.509-.783Zm7.509,13.409c-1.193,.246-4.185,.784-7.509,.784s-6.319-.539-7.511-.784c-.288-1.004-.861-3.375-.861-6.312,0-.264,.005-.523,.014-.778,1.436,.275,4.188,.719,7.358,.8v.857c0,.552,.448,1,1,1s1-.448,1-1v-.857c3.166-.081,5.921-.525,7.359-.8,.009,.254,.013,.514,.013,.778,0,2.902-.575,5.298-.863,6.313Z"/>
</svg>
