<?xml version="1.0" encoding="UTF-8"?>
<svg xmlns="http://www.w3.org/2000/svg" id="Layer_1" data-name="Layer 1" viewBox="0 0 24 24">
  <path d="M21.823,3.636l.882-.877c.392-.39,.394-1.023,.004-1.415s-1.022-.393-1.414-.003l-.899,.895c-.878-.671-2.29-1.534-3.015-.821-.394,.388-.397,1.021-.01,1.415,.166,.168,.378,.266,.596,.291,.159,.051,.546,.214,1.007,.531l-1.143,1.137c-1.18-1.017-3.208-2.266-5.09-.395-.646,.643-.973,1.367-.973,2.154,0,1.082,.638,2.08,1.365,2.915l-1.141,1.135c-.417-.618-.564-1.121-.57-1.141-.143-.53-.688-.847-1.22-.707-.534,.14-.854,.687-.714,1.221,.032,.122,.289,1.031,1.067,2.057l-1.277,1.271c-.414-.613-.563-1.114-.571-1.141-.144-.532-.692-.846-1.22-.707-.534,.141-.854,.688-.713,1.222,.031,.122,.289,1.031,1.067,2.056l-1.204,1.198c-1.451-1.011-2.916-.796-4.361,.645-.858,.854-1.275,1.693-1.275,2.568,0,1.146,.728,2.001,1.275,2.546,.85,.846,1.706,1.269,2.562,1.269s1.712-.423,2.562-1.27c.392-.389,.394-1.022,.004-1.414-.39-.392-1.024-.394-1.414-.003-.979,.974-1.454,.844-2.304,0-.461-.459-.686-.828-.686-1.128,0-.387,.373-.839,.686-1.15,.979-.975,1.454-.845,2.304,0,.389,.388,1.021,.388,1.41,0l1.869-1.86c.645,.493,1.578,1.089,2.315,1.089,.267,0,.508-.078,.7-.268,.394-.388,.397-1.021,.01-1.415-.166-.168-.378-.266-.596-.291-.159-.051-.546-.214-1.007-.531l1.279-1.273c.943,.72,1.884,1.098,2.316,1.098h.004c.266,0,.53-.11,.717-.3,.388-.394,.384-1.027-.01-1.415-.165-.162-.372-.256-.586-.281-.159-.051-.546-.214-1.006-.531l1.143-1.138c.737,.635,1.804,1.362,2.96,1.362,.695,0,1.423-.263,2.13-.966,.636-.632,.958-1.353,.958-2.141,0-.91-.434-1.854-1.353-2.925l1.144-1.139c.416,.615,.563,1.118,.57,1.141,.301,.922,1.135,.73,1.22,.708,.534-.14,.854-.687,.714-1.221-.032-.122-.289-1.031-1.067-2.057Zm-3.596,6.216c-.404,.402-.955,.953-2.994-1.077-.973-.968-1.466-1.718-1.466-2.229,0-.152,.04-.395,.383-.736,.403-.401,.954-.953,2.995,1.077,1.199,1.193,1.45,1.878,1.45,2.242,0,.153-.038,.395-.368,.723Z"/>
</svg>
