<?xml version="1.0" encoding="UTF-8"?>
<svg xmlns="http://www.w3.org/2000/svg" id="Layer_1" data-name="Layer 1" viewBox="0 0 24 24">
  <path d="M12,11.141c-.244,0-.478,.04-.697,.113l-2.599-2.536c-.395-.384-1.026-.379-1.414,.018-.386,.396-.378,1.028,.018,1.414l2.588,2.525c-.069,.214-.107,.442-.107,.679,0,1.22,.993,2.213,2.213,2.213s2.213-.993,2.213-2.213-.993-2.213-2.213-2.213Z"/>
  <path d="M12,1.994C6.879,1.994,1,3.244,1,12.994c0,2.447,.37,4.788,1.042,6.592,.356,.958,1.101,1.734,2.039,2.13,.461,.195,.945,.292,1.429,.292,.505,0,1.01-.106,1.489-.318l2.076-.92c.505-.224,.732-.814,.509-1.319-.223-.505-.812-.735-1.319-.509l-2.075,.92c-.427,.188-.901,.194-1.332,.012-.439-.185-.773-.535-.941-.985-.591-1.586-.916-3.679-.916-5.894C3,5.524,6.598,3.994,12,3.994s9,1.53,9,9c0,2.218-.322,4.31-.906,5.891-.167,.451-.5,.802-.938,.987-.432,.182-.903,.18-1.334-.011l-2.088-.921c-.504-.221-1.095,.007-1.318,.512-.223,.505,.006,1.096,.512,1.318l2.088,.921c.938,.414,1.977,.424,2.92,.022,.938-.397,1.68-1.176,2.034-2.136,.665-1.797,1.031-4.136,1.031-6.584C23,3.244,17.121,1.994,12,1.994Z"/>
</svg>
