<?xml version="1.0" encoding="UTF-8"?>
<svg xmlns="http://www.w3.org/2000/svg" id="Layer_1" data-name="Layer 1" viewBox="0 0 24 24">
  <path d="M12,1C6.878,1,1,2.25,1,12c0,7.505,3.495,11,11,11,5.121,0,11-1.25,11-11S17.121,1,12,1Zm0,20c-6.393,0-9-2.607-9-9C3,4.53,6.598,3,12,3s9,1.53,9,9-3.598,9-9,9Z"/>
  <path d="M18,11c-.553,0-1,.447-1,1,0,4.509-1.012,5-5,5-4.159,0-5-.841-5-5,0-4.509,1.012-5,5-5,.552,0,1-.447,1-1s-.448-1-1-1c-4.743,0-7,1.048-7,7,0,5.233,1.767,7,7,7,4.743,0,7-1.048,7-7,0-.553-.447-1-1-1Z"/>
</svg>
