<?xml version="1.0" encoding="UTF-8"?>
<svg xmlns="http://www.w3.org/2000/svg" id="Layer_1" data-name="Layer 1" viewBox="0 0 24 24">
  <path d="M21.065,13.829c-.963-4.187-3.087-6.022-3.947-6.612l.453-2.581c.825,.785,1.307,1.881,1.307,3.061,0,.552,.447,1,1,1s1-.448,1-1c0-2.356-1.304-4.484-3.404-5.554,0,0-2.185-1.143-6.194-1.143-3.857,0-6.459,.972-6.568,1.013-.267,.102-.477,.312-.579,.578-.102,.266-.085,.563,.047,.816l2.176,4.205c-.984,.841-2.613,2.699-3.422,6.217-.812,3.527,.081,7.26,.119,7.417,.09,.366,.377,.65,.743,.736,.177,.042,4.375,1.018,8.203,1.018s8.026-.976,8.203-1.018c.366-.086,.653-.371,.743-.736,.038-.157,.931-3.891,.119-7.417ZM11.28,3c2.091,0,3.616,.351,4.442,.602l-.526,2.99c-.765-.132-1.821-.245-3.197-.245-1.81,0-3.067,.196-3.851,.38l-1.637-3.163c1.021-.253,2.699-.564,4.768-.564Zm7.843,17.169c-1.289,.266-4.36,.831-7.123,.831s-5.836-.565-7.124-.831c-.195-1.09-.507-3.487-.025-5.743H13.206c.553,0,1-.448,1-1s-.447-1-1-1H5.449c.972-2.484,2.332-3.43,2.61-3.603,.261-.09,1.526-.478,3.94-.478,2.428,0,3.694,.392,3.939,.477,.334,.208,2.282,1.563,3.177,5.454,.526,2.289,.205,4.775,.007,5.893Z"/>
</svg>
