<?xml version="1.0" encoding="UTF-8"?>
<svg xmlns="http://www.w3.org/2000/svg" id="Layer_1" data-name="Layer 1" viewBox="0 0 24 24">
  <path d="M20.975,11.505c-.653-5.072-2.461-8.729-2.537-8.881-.109-.219-.295-.39-.521-.48-.116-.047-2.88-1.143-5.916-1.143s-5.8,1.096-5.916,1.143c-.227,.091-.412,.262-.521,.48-.076,.153-1.884,3.81-2.537,8.881-.653,5.076-.49,9.208-.482,9.382,.018,.428,.307,.797,.718,.918,.167,.049,4.132,1.195,8.739,1.195s8.572-1.146,8.739-1.195c.411-.121,.7-.49,.718-.918,.008-.174,.171-4.307-.482-9.382Zm-1.5,8.563c-1.3,.315-4.245,.932-7.475,.932s-6.173-.616-7.475-.933c-.017-1.398,.01-4.629,.484-8.308,.496-3.857,1.734-6.893,2.18-7.892,.788-.271,2.76-.868,4.811-.868s4.022,.597,4.811,.868c.445,.999,1.684,4.035,2.18,7.892,.475,3.679,.501,6.91,.484,8.308Z"/>
  <path d="M12,10.554c-.553,0-1,.448-1,1v.892c0,.552,.447,1,1,1s1-.447,1-1v-.892c0-.552-.447-1-1-1Z"/>
  <path d="M12,5.379c-.553,0-1,.448-1,1v.892c0,.552,.447,1,1,1s1-.448,1-1v-.892c0-.552-.447-1-1-1Z"/>
  <path d="M12,15.729c-.553,0-1,.447-1,1v.891c0,.553,.447,1,1,1s1-.447,1-1v-.891c0-.553-.447-1-1-1Z"/>
</svg>
