<?xml version="1.0" encoding="UTF-8"?>
<svg xmlns="http://www.w3.org/2000/svg" id="Layer_1" data-name="Layer 1" viewBox="0 0 24 24">
  <path d="M23,5.138c0-1.337-.375-2.718-.873-3.214-.817-.812-4.859-1.684-7.204,.646-.516,.513-.905,1.129-1.16,1.829-.937-.889-2.22-1.594-2.925-1.594h-.002c-1.161,.002-4.649,2.12-4.651,5.246-.198-.061-.379-.095-.532-.095h-.002c-1.159,.002-4.65,2.124-4.65,5.249,0,1.262,.551,2.479,1.592,3.518,.552,.552,1.248,1.043,1.878,1.356l-1.861,1.849c-.392,.389-.394,1.022-.004,1.414,.195,.196,.452,.295,.709,.295,.255,0,.51-.097,.705-.291l1.874-1.862c.31,.619,.794,1.302,1.337,1.847,1.052,1.054,2.284,1.61,3.563,1.61,3.141,0,5.274-3.474,5.276-4.627,0-.151-.033-.329-.094-.524,0,0,.001,0,.002,0,3.146,0,5.276-3.475,5.276-4.629,0-.698-.709-1.98-1.6-2.908,.659-.236,1.288-.602,1.826-1.137,.994-.987,1.52-2.364,1.52-3.979Zm-12.161-.311c.587,.213,2.636,1.413,2.636,3.217,0,.683-.428,1.478-1.034,2.084-.7,.7-1.365,1.043-1.617,1.134-.586-.212-2.639-1.41-2.639-3.207,0-1.777,2.075-3.013,2.654-3.228ZM3,13.206c0-1.776,2.074-3.012,2.653-3.228,.588,.214,2.636,1.413,2.636,3.217,0,.703-.522,1.574-1.057,2.109-.507,.507-1.336,1.013-1.595,1.109-.587-.213-2.637-1.411-2.637-3.207Zm7.793,7.736c-1.805,0-3.015-2.027-3.233-2.614,.094-.253,.482-.944,1.126-1.588,.657-.657,1.421-1.04,2.118-1.04,1.812,0,3.023,2.026,3.243,2.613-.221,.589-1.438,2.629-3.254,2.629Zm5.185-5.151c-1.804,0-3.014-2.028-3.233-2.615,.094-.253,.213-.672,1.131-1.591,.668-.668,1.419-1.037,2.113-1.037,1.812,0,3.024,2.028,3.243,2.614-.22,.589-1.437,2.629-3.254,2.629Zm4.093-8.092c-1.378,1.369-3.748,.868-4.356,.618-.253-.604-.759-2.959,.619-4.329,1.395-1.385,3.73-.901,4.362-.629,.252,.604,.756,2.967-.625,4.34Z"/>
</svg>
