<?xml version="1.0" encoding="UTF-8"?>
<svg xmlns="http://www.w3.org/2000/svg" id="Layer_1" data-name="Layer 1" viewBox="0 0 24 24">
  <path d="M10.804,12.398c-.007,0-.014-.002-.021-.003-.644-.095-3.979-.462-7.259,1.539-.384,.234-.564,.697-.44,1.13,.022,.076,.462,1.578,1.452,2.915l-3.235,3.171c-.394,.387-.409,1.029-.014,1.415,.508,.497,1.169,.285,1.415,.014l3.253-3.188c1.445,1.051,3.04,1.47,3.273,1.466,.34-.005,.665-.174,.85-.473,2.142-3.453,1.589-7.01,1.564-7.16-.07-.428-.408-.761-.836-.827Z"/>
  <path d="M13.196,11.602c.007,0,.014,.002,.021,.003,.644,.095,3.979,.462,7.259-1.539,.384-.234,.564-.697,.44-1.13-.022-.076-.462-1.578-1.452-2.915l3.235-3.171c.394-.387,.409-1.029,.014-1.415-.508-.497-1.169-.285-1.415-.014l-3.253,3.188c-1.445-1.051-3.04-1.47-3.273-1.466-.34,.005-.665,.174-.85,.473-2.142,3.453-1.589,7.01-1.564,7.16,.07,.428,.408,.761,.836,.827Z"/>
</svg>
