<?xml version="1.0" encoding="UTF-8"?>
<svg xmlns="http://www.w3.org/2000/svg" id="Layer_1" data-name="Layer 1" viewBox="0 0 24 24">
  <path d="M8.628,10.842v-.456c.353-.123,.677-.31,.957-.546l.392,.231c.017,.572,.21,1.355,.931,2.168,.198,.222,.473,.336,.749,.336,.236,0,.473-.083,.664-.252,.413-.367,.45-.999,.084-1.412-.305-.344-.399-.634-.425-.818,.179-.07,.479-.129,.924-.029,.544,.12,1.075-.219,1.194-.758,.121-.539-.219-1.074-.758-1.194-1.058-.235-1.836-.024-2.344,.237l-.388-.228c.038-.192,.059-.39,.059-.593s-.021-.401-.059-.593l.387-.228c.352,.182,.835,.34,1.452,.34,.272,0,.57-.031,.894-.103,.539-.121,.879-.655,.758-1.194-.12-.539-.65-.876-1.194-.758-.447,.101-.747,.042-.921-.024,.024-.192,.119-.481,.422-.823,.366-.413,.329-1.045-.084-1.412s-1.045-.328-1.412,.084c-.721,.813-.914,1.596-.931,2.168l-.392,.231c-.28-.236-.604-.423-.957-.546v-.456c.484-.304,1.061-.869,1.395-1.903,.169-.525-.119-1.089-.645-1.259-.527-.169-1.089,.12-1.259,.645-.141,.437-.343,.666-.489,.781-.153-.118-.354-.346-.494-.781-.169-.525-.731-.813-1.259-.645-.525,.169-.814,.733-.645,1.259,.334,1.034,.911,1.598,1.395,1.902v.457c-.353,.123-.677,.31-.957,.546l-.392-.231c-.017-.572-.21-1.355-.931-2.168-.366-.412-.999-.45-1.412-.084-.413,.367-.45,.999-.084,1.412,.305,.343,.4,.634,.426,.818-.179,.071-.478,.13-.924,.029-.538-.117-1.073,.219-1.194,.758-.12,.539,.219,1.074,.758,1.194,.324,.072,.623,.103,.895,.103,.617,0,1.099-.157,1.452-.339l.386,.228c-.038,.192-.059,.39-.059,.593s.021,.401,.059,.593l-.386,.228c-.508-.262-1.287-.473-2.346-.237-.539,.121-.878,.655-.758,1.194,.121,.539,.655,.877,1.194,.758,.448-.101,.748-.041,.921,.024-.024,.192-.119,.481-.423,.823-.366,.413-.329,1.045,.084,1.412,.19,.169,.428,.252,.664,.252,.276,0,.551-.114,.749-.336,.721-.812,.914-1.596,.931-2.168l.392-.231c.28,.236,.604,.423,.957,.546v.457c-.484,.305-1.061,.869-1.395,1.903-.169,.526,.119,1.089,.645,1.259,.528,.167,1.089-.119,1.259-.646,.141-.437,.343-.666,.488-.781,.153,.118,.354,.347,.495,.781,.137,.424,.529,.693,.952,.693,.102,0,.205-.016,.307-.048,.525-.17,.814-.733,.645-1.259-.334-1.034-.911-1.599-1.395-1.903Zm-2.037-3.316c0-.567,.465-1.029,1.037-1.029s1.037,.462,1.037,1.029-.465,1.029-1.037,1.029-1.037-.461-1.037-1.029Z"/>
  <path d="M17.906,9.771c-2,0-3.673,1.557-3.809,3.545-.037,.552,.379,1.028,.93,1.066,.565,.027,1.029-.38,1.066-.93,.063-.943,.86-1.682,1.812-1.682,1.002,0,1.817,.811,1.817,1.807s-.815,1.808-1.817,1.808h-6.736c-.552,0-1,.447-1,1s.448,1,1,1h6.736c2.104,0,3.817-1.708,3.817-3.808s-1.713-3.807-3.817-3.807Z"/>
  <path d="M8.368,18.389c-.547-.027-1.028,.379-1.065,.93-.064,.943-.861,1.682-1.813,1.682-1.002,0-1.817-.811-1.817-1.808s.815-1.807,1.817-1.807h1.894c.552,0,1-.447,1-1s-.448-1-1-1h-1.894c-2.104,0-3.817,1.708-3.817,3.807s1.712,3.808,3.817,3.808c2,0,3.673-1.558,3.809-3.545,.038-.552-.378-1.028-.93-1.066Z"/>
  <path d="M19.731,2.306c-1.48,0-2.771,1.049-3.068,2.495-.111,.541,.237,1.07,.778,1.181,.539,.112,1.069-.237,1.181-.778,.107-.521,.573-.898,1.109-.898,.625,0,1.133,.504,1.133,1.125s-.654,1.066-1.279,1.066l-3.203,.059c-.553,0-1,.448-1,1s.447,1,1,1h3.35c1.728,0,3.133-1.402,3.133-3.125s-1.405-3.125-3.133-3.125Z"/>
</svg>
