<?xml version="1.0" encoding="UTF-8"?>
<svg xmlns="http://www.w3.org/2000/svg" id="Layer_1" data-name="Layer 1" viewBox="0 0 24 24">
  <path d="M12.513,11.487c-1.069-1.066-2.296-1.066-3.363,0-.536,.536-.808,1.104-.808,1.688,0,.869,.608,1.477,.808,1.677,.535,.533,1.108,.8,1.682,.8s1.147-.267,1.682-.8c.582-.581,.852-1.197,.802-1.832-.041-.532-.303-1.034-.803-1.533Z"/>
  <path d="M22.917,3.032c-.026-.062-.276-.615-.799-1.137-.528-.528-1.081-.775-1.142-.802-.256-.108-.546-.109-.802,.005-.105,.047-1.053,.481-1.884,1.312,0,0,0,0,0,0-.83,.829-1.266,1.777-1.313,1.883-.115,.257-.116,.55-.003,.808,.012,.028,.071,.158,.18,.34l-1.124,1.123c-2.425-1.827-5.382-1.745-7.93,.302-.143,.12-.275,.242-.4,.365-.347,.345-.914,.6-1.643,.739-1.225,.237-2.278,.871-3.247,1.969C.191,13.168,.428,17.436,3.434,20.598c1.674,1.589,3.677,2.395,5.678,2.395,1.734,0,3.468-.605,4.983-1.833,1.071-.944,1.708-1.998,1.945-3.224,0,0,0-.002,0-.003,.138-.725,.394-1.291,.741-1.641,.118-.119,.236-.248,.374-.409,2.028-2.522,2.115-5.468,.285-7.902l1.126-1.125c.186,.112,.319,.171,.347,.183,.126,.054,.261,.081,.396,.081,.138,0,.277-.028,.406-.086,.105-.047,1.054-.481,1.885-1.312,.83-.829,1.266-1.777,1.313-1.883,.115-.257,.116-.549,.003-.807Zm-7.299,11.573c-.086,.101-.173,.194-.256,.279-.635,.64-1.067,1.538-1.283,2.67-.153,.786-.567,1.454-1.272,2.077-2.792,2.256-6.027,1.382-7.958-.448-2.281-2.4-2.471-5.534-.512-7.951,.647-.733,1.314-1.146,2.098-1.297,1.136-.217,2.036-.648,2.672-1.281,.087-.086,.182-.173,.265-.243,.96-.771,1.962-1.154,2.942-1.154,.786,0,1.559,.247,2.286,.738l-1.041,1.039c-.391,.39-.391,1.023,0,1.414,.195,.195,.452,.293,.708,.293s.512-.098,.707-.293l1.039-1.038c1.106,1.639,.975,3.494-.392,5.195Z"/>
  <path d="M6.884,15.402c-.391-.391-1.024-.391-1.415,0-.39,.391-.39,1.024,0,1.414l1.712,1.711c.195,.195,.451,.293,.707,.293s.512-.098,.708-.293c.39-.391,.39-1.024,0-1.414l-1.712-1.711Z"/>
</svg>
