<?xml version="1.0" encoding="UTF-8"?>
<svg xmlns="http://www.w3.org/2000/svg" id="Layer_1" data-name="Layer 1" viewBox="0 0 24 24">
  <path d="M22.195,6.692c.975-1.398,.844-3.349-.394-4.598-1.202-1.214-3.223-1.37-4.585-.397C11.964,.232,7.374,1.121,4.274,4.213,1.136,7.345,.252,11.981,1.776,17.29c-.978,1.398-.848,3.352,.391,4.603,1.202,1.213,3.222,1.37,4.583,.398,1.67,.469,3.271,.701,4.779,.701,3.247,0,6.055-1.076,8.164-3.18,3.186-3.178,4.07-7.83,2.503-13.12Zm-3.915,11.704c-2.632,2.627-6.509,3.287-11.215,1.905-.17-.05-.372-.109-.582-.109-.228,0-.466,.069-.688,.294-.591,.597-1.617,.596-2.207,0-.616-.623-.616-1.635-.001-2.256,.428-.431,.281-.921,.174-1.279-1.417-4.736-.751-8.651,1.926-11.322,2.645-2.641,6.527-3.312,11.219-1.942,.355,.104,.838,.243,1.265-.186,0,0,0,0,.002,0,.59-.597,1.617-.597,2.207,0,.616,.622,.616,1.635,.002,2.255-.433,.436-.28,.928-.17,1.288,1.457,4.711,.789,8.637-1.932,11.352Z"/>
  <g>
    <circle cx="14.13" cy="12.172" r="1.001"/>
    <circle cx="17.975" cy="11.209" r="1.001"/>
    <circle cx="16.479" cy="15.346" r="1.001"/>
  </g>
</svg>
