<?xml version="1.0" encoding="UTF-8"?>
<svg xmlns="http://www.w3.org/2000/svg" id="Layer_1" data-name="Layer 1" viewBox="0 0 24 24">
  <path d="M20.604,3.42c-1.47-1.457-6.888-5.6-14.898,2.348C2.583,8.866,1,11.96,1,14.963c0,2.122,.831,4.115,2.34,5.612,.8,.794,2.771,2.385,5.695,2.385,2.444,0,5.556-1.112,9.203-4.732,3.16-3.136,4.762-6.225,4.762-9.181,0-2.096-.852-4.094-2.396-5.627Zm-3.773,13.388c-6.521,6.471-10.622,3.796-12.082,2.348-.652-.647-1.748-2.054-1.748-4.193,0-2.415,1.423-5.104,4.113-7.774,3.194-3.169,5.808-4.145,7.814-4.145,2.09,0,3.522,1.058,4.268,1.797,.823,.816,1.805,2.21,1.805,4.207,0,2.403-1.403,5.015-4.17,7.761Z"/>
  <path d="M13.689,6.833c-.522,.179-.802,.747-.623,1.27,.178,.523,.751,.799,1.27,.623,1.284-.437,2.13,.048,2.618,.531,.195,.193,.449,.29,.704,.29,.257,0,.515-.099,.71-.296,.389-.392,.387-1.025-.006-1.414-1.24-1.229-2.943-1.595-4.673-1.004Z"/>
  <path d="M9.825,10.668c-.522,.18-.801,.748-.622,1.271,.18,.521,.746,.798,1.271,.622,1.277-.439,2.129,.048,2.616,.531,.195,.193,.449,.29,.704,.29,.257,0,.515-.099,.71-.296,.389-.392,.387-1.025-.006-1.414-1.239-1.229-2.94-1.597-4.673-1.004Z"/>
  <path d="M5.962,14.502c-.522,.179-.802,.747-.623,1.27,.18,.523,.751,.798,1.27,.623,1.351-.465,2.217,.134,2.616,.53,.195,.194,.45,.291,.705,.291,.257,0,.514-.099,.709-.295,.39-.393,.388-1.025-.004-1.414-1.24-1.231-2.943-1.596-4.673-1.005Z"/>
</svg>
