<?xml version="1.0" encoding="UTF-8"?>
<svg xmlns="http://www.w3.org/2000/svg" id="Layer_1" data-name="Layer 1" viewBox="0 0 24 24">
  <path d="M22.862,6.771c-.203-1.363-1.351-4.123-1.481-4.433-.129-.308-.403-.531-.73-.595-.327-.064-.665,.04-.9,.276L1.291,20.57c-.39,.392-.393,1.03,.003,1.414,.56,.542,1.219,.192,1.415-.004l4.524-4.546c.331,.479,.805,1.006,1.478,1.465,1.342,.916,2.555,1.115,3.356,1.115,.537,0,.889-.09,.972-.113,.037-.01,3.1-1.189,6.764-5.283,3.363-3.758,3.39-5.622,3.059-7.848Zm-4.549,6.514c-2.896,3.234-5.418,4.495-5.859,4.7-.255,.048-1.31,.154-2.615-.737-.607-.414-.961-.911-1.156-1.269L20.091,4.512c.344,.914,.707,1.974,.792,2.553h0c.239,1.604,.428,2.872-2.571,6.22Z"/>
</svg>
