<?xml version="1.0" encoding="UTF-8"?>
<svg xmlns="http://www.w3.org/2000/svg" id="Layer_1" data-name="Layer 1" viewBox="0 0 24 24">
  <path d="M22.972,18.717C20.558,8.862,12.918,3.124,12.595,2.885c-.354-.261-.836-.261-1.189,0-.323,.239-7.963,5.978-10.377,15.832-.128,.525,.185,1.058,.706,1.202,3.357,.927,6.812,1.39,10.266,1.39s6.908-.463,10.266-1.39c.521-.144,.834-.676,.706-1.202Zm-13.712,.489c.696-1.984,1.987-3.426,2.743-4.145,.756,.716,2.043,2.15,2.739,4.145-1.825,.137-3.657,.137-5.482,0Zm7.518-.21c-1.138-3.774-4.053-5.964-4.182-6.06-.354-.261-.836-.261-1.189,0-.129,.096-3.044,2.286-4.182,6.06-1.342-.177-2.677-.428-3.998-.754,2.055-7.068,7.053-11.8,8.775-13.266,1.723,1.462,6.716,6.18,8.773,13.266-1.321,.326-2.656,.577-3.998,.754Z"/>
</svg>
