<?xml version="1.0" encoding="UTF-8"?>
<svg xmlns="http://www.w3.org/2000/svg" id="Layer_1" data-name="Layer 1" viewBox="0 0 24 24">
  <path d="M15.859,8.374c-1.898,0-4.183,.285-5.648,2.025-.129-.043-.259-.082-.39-.117l.947-1.693c.187-.333,.167-.743-.05-1.057-.054-.078-1.343-1.908-3.391-1.908-2.059,0-3.339,1.833-3.393,1.911-.215,.313-.234,.722-.048,1.054l.947,1.693c-2.022,.535-3.834,2.041-3.834,6.07,0,5.689,3.611,6.347,6.328,6.347,1.329,0,2.871-.158,4.101-.984,1.353,.823,3.001,.984,4.431,.984,3.065,0,7.141-.743,7.141-7.163s-4.075-7.163-7.141-7.163Zm-5.141,7.163c0-.88,.083-1.616,.241-2.23,.455,.659,.696,1.631,.696,3.046,0,.99-.118,1.763-.345,2.364-.386-.759-.592-1.789-.592-3.18Zm-7.719,.816c0-3.635,1.587-4.347,4.328-4.347,.709,0,1.34,.048,1.887,.181-.315,.895-.496,1.996-.496,3.35,0,2.161,.462,3.679,1.191,4.742-.682,.32-1.55,.421-2.583,.421-2.741,0-4.328-.711-4.328-4.347Zm12.859,4.347c-1.197,0-2.222-.123-3.035-.507,.515-.915,.831-2.158,.831-3.84,0-2.462-.677-3.981-1.664-4.913,.891-.831,2.216-1.065,3.868-1.065,3.174,0,5.141,.864,5.141,5.163s-1.967,5.163-5.141,5.163Z"/>
  <path d="M7.328,3.831c.552,0,1-.448,1-1v-.53c0-.552-.448-1-1-1s-1,.448-1,1v.53c0,.552,.448,1,1,1Z"/>
  <path d="M2.274,5.343c.483,.429,1.05,.351,1.414,.003,.399-.382,.393-1.023,.003-1.414l-.374-.375c-.389-.391-1.023-.392-1.414-.003-.392,.39-.393,1.023-.003,1.414l.374,.375Z"/>
  <path d="M12.382,5.343c-.483,.429-1.05,.351-1.414,.003-.399-.382-.393-1.023-.003-1.414l.374-.375c.389-.391,1.023-.392,1.414-.003,.392,.39,.393,1.023,.003,1.414l-.374,.375Z"/>
</svg>
