<?xml version="1.0" encoding="UTF-8"?>
<svg xmlns="http://www.w3.org/2000/svg" id="Layer_1" data-name="Layer 1" viewBox="0 0 24 24">
  <path d="M22.997,11.491c-.419-5.276-4.263-5.887-7.118-5.888-1.202-.005-4.065-.004-5.77,1.974-.487-.515-1.251-.862-2.429-.862-2.655,0-3.213,1.763-3.213,3.243,0,.541,.075,1.119,.299,1.635-.728,.076-1.329,.151-1.766,.209V5.316c0-.552-.448-1-1-1s-1,.448-1,1v13.368c0,.552,.448,1,1,1s1-.448,1-1v-.493c1.52,.202,5.024,.601,9,.601s7.478-.399,9-.602v.4c0,.552,.448,1,1,1s1-.448,1-1l-.003-7.1Zm-7.124-3.888h.005c3.502,0,4.891,1.098,5.122,3.967v.232c-1.52-.202-5.024-.601-9-.601-.408,0-.811,.004-1.208,.012,.204-2.589,1.663-3.609,5.082-3.609Zm-8.193,1.112c.939,0,1.212,.163,1.212,1.243s-.273,1.243-1.212,1.243-1.213-.163-1.213-1.243,.273-1.243,1.213-1.243Zm4.32,8.077c-4.073,0-7.721-.445-9-.621v-2.351c1.28-.175,4.929-.621,9-.621s7.721,.445,9,.621v2.351c-1.28,.175-4.929,.621-9,.621Z"/>
</svg>
