<?xml version="1.0" encoding="UTF-8"?>
<svg xmlns="http://www.w3.org/2000/svg" id="Layer_1" data-name="Layer 1" viewBox="0 0 24 24">
  <path d="M20.582,15.637c.215-.055,.406-.181,.543-.356,.147-.191,.906-1.332,1.328-5.056,.33-2.908-.316-5.478-.344-5.586-.096-.375-.399-.661-.779-.734-.139-.026-3.441-.653-7.329-.653-2.881,0-5.99,.345-7.46,.531-.392-1.222-.756-1.879-.775-1.912-.104-.186-.265-.334-.459-.422-.137-.062-1.378-.597-2.973-.408-.548,.066-.939,.563-.874,1.112,.066,.548,.563,.944,1.112,.874,.668-.081,1.26,.041,1.602,.14,.159,.355,.418,1.003,.668,1.922,.002,.006,.426,2.661,.707,5.137,.349,3.08,.668,4.292,.795,4.683,.431,2.799,1.047,3.736,1.167,3.896,.137,.183,.332,.312,.554,.369,.106,.027,2.654,.667,6.58,.667s6.475-.64,6.581-.667c.535-.137,.857-.681,.722-1.215-.137-.535-.683-.864-1.215-.723-.024,.006-2.433,.604-6.088,.604-2.759,0-4.808-.342-5.656-.512-.108-.263-.264-.716-.424-1.422,1.234,.184,3.158,.398,5.437,.398,3.927,0,6.474-.64,6.581-.667ZM14.001,5.252c2.709,0,5.17,.33,6.3,.508,.152,.855,.364,2.489,.166,4.241-.252,2.214-.614,3.331-.802,3.791-.844,.169-2.896,.513-5.664,.513-2.686,0-4.882-.321-5.882-.497-.133-.581-.348-1.729-.584-3.807-.19-1.683-.417-3.27-.564-4.256,1.489-.183,4.396-.493,7.03-.493Z"/>
  <path d="M10.47,21.002c-.552,0-.999,.447-.999,.999s.447,.999,.999,.999,.999-.447,.999-.999-.447-.999-.999-.999Z"/>
  <path d="M17.83,21.002c-.552,0-.999,.447-.999,.999s.447,.999,.999,.999,.999-.447,.999-.999-.447-.999-.999-.999Z"/>
</svg>
