<?xml version="1.0" encoding="UTF-8"?>
<svg xmlns="http://www.w3.org/2000/svg" id="Layer_1" data-name="Layer 1" viewBox="0 0 24 24">
  <path d="M21.963,1.01c-.549-.079-1.053,.303-1.131,.85l-1.481,10.46c-4.737-2.073-9.945-3.165-15.21-3.165-.298,0-.581,.133-.771,.363C.434,13.073,.434,19.081,3.369,22.637c.19,.23,.474,.363,.771,.363H12.734c4.643,0,8.419-3.685,8.419-8.214v-.927l1.659-11.718c.077-.547-.303-1.054-.85-1.131Zm-2.81,13.776c0,3.427-2.88,6.214-6.419,6.214H4.633c-1.953-2.736-1.953-7.106-.002-9.844,5.003,.059,10.001,1.183,14.522,3.265v.365Z"/>
  <path d="M6.771,15.275l7.646,.983c.044,.005,.087,.008,.129,.008,.496,0,.926-.368,.991-.872,.07-.548-.316-1.049-.864-1.12l-7.646-.983c-.558-.059-1.049,.317-1.12,.864-.07,.548,.316,1.05,.864,1.12Z"/>
  <path d="M6.389,18.86l4.486,.577c.044,.005,.087,.008,.129,.008,.496,0,.926-.368,.991-.872,.07-.548-.316-1.049-.864-1.12l-4.486-.577c-.558-.059-1.049,.318-1.12,.864-.07,.548,.316,1.049,.864,1.12Z"/>
</svg>
