<?xml version="1.0" encoding="UTF-8"?>
<svg xmlns="http://www.w3.org/2000/svg" id="Layer_1" data-name="Layer 1" viewBox="0 0 24 24">
  <path d="M19.109,7.836c-.113-3.789-3.265-6.836-7.122-6.836-3.929,0-7.125,3.162-7.125,7.047,0,.235,.012,.47,.035,.704-2.084,.59-3.593,2.49-3.593,4.726,0,2.71,2.228,4.915,4.965,4.915,.553,0,1-.448,1-1s-.447-1-1-1c-1.635,0-2.965-1.308-2.965-2.915,0-1.55,1.231-2.829,2.804-2.911,.301-.016,.578-.166,.756-.408,.177-.243,.236-.552,.16-.843-.107-.411-.162-.836-.162-1.267,0-2.783,2.299-5.047,5.125-5.047s5.125,2.264,5.125,5.047c0,.151-.008,.301-.021,.449-.045,.508,.3,.969,.8,1.068,1.625,.325,2.804,1.746,2.804,3.379,0,1.901-1.572,3.448-3.505,3.448-.553,0-1,.448-1,1s.447,1,1,1c3.035,0,5.505-2.444,5.505-5.448,0-2.296-1.466-4.326-3.586-5.107Z"/>
  <path d="M7.39,20.295c-.553,0-1,.448-1,1v.705c0,.552,.447,1,1,1s1-.448,1-1v-.705c0-.552-.447-1-1-1Z"/>
  <path d="M12,20.295c-.553,0-1,.448-1,1v.705c0,.552,.447,1,1,1s1-.448,1-1v-.705c0-.552-.447-1-1-1Z"/>
  <path d="M16.61,20.295c-.553,0-1,.448-1,1v.705c0,.552,.447,1,1,1s1-.448,1-1v-.705c0-.552-.447-1-1-1Z"/>
  <path d="M9.694,13.485c-.553,0-1,.448-1,1v.705c0,.552,.447,1,1,1s1-.448,1-1v-.705c0-.552-.447-1-1-1Z"/>
  <path d="M14.306,13.485c-.553,0-1,.448-1,1v.705c0,.552,.447,1,1,1s1-.448,1-1v-.705c0-.552-.447-1-1-1Z"/>
</svg>
