<?xml version="1.0" encoding="UTF-8"?>
<svg xmlns="http://www.w3.org/2000/svg" id="Layer_1" data-name="Layer 1" viewBox="0 0 24 24">
  <path d="M22.371,8.173c-.492-.246-1.094-.044-1.34,.449-.009,.017-.869,1.722-2.56,3.425-1.245,1.255-2.508,2.064-3.081,2.4-.59-.174-1.838-.611-2.966-1.455l7.818-7.875c.389-.392,.387-1.025-.006-1.414-.39-.389-1.024-.387-1.414,.005l-7.806,7.864c-.839-1.143-1.271-2.402-1.441-2.99,.328-.572,1.128-1.842,2.388-3.111,1.677-1.689,3.384-2.57,3.401-2.579,.491-.25,.688-.852,.438-1.344-.249-.493-.854-.688-1.342-.439-.081,.041-2.001,1.023-3.917,2.953-1.931,1.946-2.892,3.864-2.932,3.945-.1,.201-.128,.429-.082,.649,.022,.108,.514,2.379,2.064,4.349L1.363,21.296c-.389,.392-.377,1.015,.006,1.414,.509,.529,1.19,.222,1.414-.006L11.004,14.423c1.952,1.553,4.203,2.05,4.311,2.073,.068,.015,.139,.022,.209,.022,.156,0,.311-.036,.451-.107,.081-.041,2-1.023,3.916-2.954,1.931-1.946,2.892-3.864,2.932-3.945,.244-.494,.042-1.093-.452-1.338Z"/>
</svg>
