<?xml version="1.0" encoding="UTF-8"?>
<svg xmlns="http://www.w3.org/2000/svg" id="Layer_1" data-name="Layer 1" viewBox="0 0 24 24">
  <path d="M21.703,15.637c.618-3.437-.111-6.231-.143-6.352-.062-.23-.203-.432-.4-.566-.075-.052-1.874-1.269-4.849-1.875-2.985-.608-5.108-.188-5.196-.171-.232,.047-.441,.176-.587,.363-.076,.098-1.828,2.362-2.6,5.797-.308,.083-.563,.309-.677,.615-.011,.03-.278,.747-.478,1.738-.199,.982-.233,1.753-.234,1.786-.018,.428,.238,.82,.638,.975,.018,.007,.096,.037,.226,.085l-.075,.372c-.273,1.349,.598,2.668,1.942,2.942,.167,.034,1.119,.211,1.867-.364,.506-.389,.901-.884,1.048-1.502,.483,.118,.986,.232,1.503,.337,.518,.106,1.026,.198,1.517,.278-.221,1.319,.641,2.59,1.958,2.858,.166,.034,1.054,.183,1.872-.367,.551-.371,.93-.931,1.062-1.583l.075-.371c.137,.006,.219,.009,.238,.01,.01,0,.021,0,.031,0,.416,0,.79-.258,.937-.649,.011-.03,.278-.748,.479-1.738,.198-.982,.233-1.754,.234-1.787,.014-.327-.133-.635-.385-.831Zm-9.821-7.056c.659-.075,2.146-.162,4.03,.223,1.882,.383,3.221,1.047,3.799,1.373,.144,.741,.399,2.503,.104,4.601-1.192-.473-2.902-1.064-4.814-1.454-1.916-.39-3.72-.514-5.001-.545,.544-2.05,1.463-3.573,1.882-4.198Zm-3.275,7.756c.029-.22,.07-.478,.125-.755,.062-.306,.131-.581,.194-.807,.478-.01,1.178-.006,2.013,.043l-.115,.572c-.109,.541,.241,1.069,.782,1.178,.067,.013,.919,.169,1.178-.783l.157-.778c.536,.071,1.095,.161,1.661,.276,.567,.115,1.116,.251,1.639,.397l-.158,.781c-.109,.541,.24,1.069,.782,1.178,.066,.014,.927,.158,1.179-.782l.115-.565c.788,.283,1.435,.552,1.87,.744-.029,.234-.072,.516-.135,.822-.056,.277-.118,.53-.177,.743-1.103-.073-3.281-.267-5.632-.746-2.342-.477-4.432-1.154-5.478-1.519Z"/>
  <path d="M5.386,10.423l-1.462,.026,.903-1.119c.636-.788,.688-1.885,.13-2.731l-.758-1.258,1.418,.224c1.004,.158,1.978-.346,2.43-1.254l.705-1.284,.516,1.343c.198,.516,.777,.774,1.292,.575,.516-.198,.772-.777,.575-1.292l-.516-1.343c-.294-.765-.985-1.264-1.803-1.303-.81-.038-1.552,.393-1.917,1.125l-.642,1.288c-.061,.123-.195,.189-.328,.169l-1.418-.224c-.809-.128-1.584,.221-2.027,.909-.444,.689-.439,1.542,.013,2.226l.792,1.2c.077,.116,.07,.267-.018,.375l-.903,1.119c-.515,.638-.601,1.487-.225,2.215,.355,.688,1.038,1.102,1.801,1.102,.043,0,.086,0,.13-.004l1.434-.087c.551-.033,.971-.507,.938-1.059-.033-.551-.51-.975-1.059-.938Z"/>
</svg>
