<?xml version="1.0" encoding="UTF-8"?>
<svg xmlns="http://www.w3.org/2000/svg" id="Layer_1" data-name="Layer 1" viewBox="0 0 24 24">
  <path d="M21.185,1.853c-.174-.035-4.312-.853-9.185-.853S2.989,1.818,2.815,1.853c-.508,.102-.854,.575-.798,1.091l2.031,18.334c.041,.369,.283,.685,.628,.82,.094,.037,2.351,.902,7.324,.902s7.23-.866,7.324-.902c.345-.136,.587-.452,.628-.82L21.983,2.943c.057-.516-.29-.989-.798-1.091Zm-3.148,18.546c-.885,.225-2.843,.601-6.037,.601s-5.154-.376-6.037-.601l-1.2-10.83H15.297c.552,0,1-.448,1-1s-.448-1-1-1H4.542l-.434-3.913c1.461-.237,4.525-.656,7.892-.656s6.43,.419,7.892,.656l-1.855,16.743Z"/>
</svg>
