<?xml version="1.0" encoding="UTF-8"?>
<svg xmlns="http://www.w3.org/2000/svg" id="Layer_1" data-name="Layer 1" viewBox="0 0 24 24">
  <path d="M20.677,2.909c-1.339-1.312-2.771-1.95-4.329-1.908-1.334,.023-2.764,.519-4.348,1.524-1.584-1.005-3.014-1.501-4.349-1.524-1.559-.037-2.989,.597-4.329,1.908-2.515,2.463-2.7,5.368-.461,9.091-2.239,3.723-2.054,6.628,.461,9.091,1.311,1.284,2.696,1.909,4.229,1.909,1.349,0,2.864-.52,4.448-1.525,1.584,1.005,3.075,1.525,4.447,1.525,1.534,0,2.919-.625,4.229-1.909,2.516-2.463,2.701-5.368,.462-9.091,2.239-3.723,2.054-6.628-.462-9.091Zm-4.231,.091c1,0,1.901,.426,2.833,1.338,1.293,1.266,2.125,2.884,.615,5.832-.759-1.007-1.672-2.069-2.743-3.194-1.205-1.265-2.33-2.321-3.387-3.174,.882-.506,1.976-.802,2.682-.802Zm-.744,12.645c-1.349,1.417-2.58,2.547-3.701,3.398-1.121-.85-2.352-1.981-3.702-3.398-1.309-1.375-2.313-2.58-3.066-3.645,.753-1.064,1.757-2.27,3.066-3.645,1.35-1.417,2.58-2.547,3.702-3.398,1.121,.85,2.352,1.981,3.701,3.398,1.309,1.375,2.313,2.58,3.066,3.645-.753,1.064-1.757,2.27-3.066,3.645ZM4.722,4.338c1.379-1.428,2.874-1.338,2.895-1.337,.782,.014,1.653,.279,2.62,.802-1.057,.854-2.181,1.909-3.386,3.174-1.071,1.125-1.984,2.187-2.743,3.194-1.51-2.948-.641-4.531,.615-5.833Zm2.895,16.662c-1.046,.026-1.945-.407-2.895-1.337-1.293-1.266-2.125-2.884-.615-5.833,.759,1.007,1.672,2.069,2.743,3.194,1.205,1.265,2.329,2.321,3.386,3.174-.967,.522-1.838,.788-2.62,.802Zm11.662-1.337c-.95,.931-1.876,1.359-2.896,1.337-.782-.014-1.652-.279-2.619-.802,1.057-.854,2.182-1.909,3.387-3.174,1.071-1.125,1.984-2.187,2.743-3.194,1.51,2.948,.678,4.566-.615,5.832Z"/>
  <circle cx="12" cy="12" r=".995"/>
</svg>
