<?xml version="1.0" encoding="UTF-8"?>
<svg xmlns="http://www.w3.org/2000/svg" id="Layer_1" data-name="Layer 1" viewBox="0 0 24 24">
  <path d="M7.273,13.871c.272-.48,.103-1.091-.377-1.363-.556-.314-1.294-.997-1.294-3.284,0-3.132,1.354-3.745,3.692-3.745,1.734,0,2.69,.379,3.197,1.268,.273,.479,.883,.647,1.364,.373,.479-.274,.646-.885,.373-1.364-.012-.021-.024-.042-.037-.063l.864-.874c.389-.393,.385-1.026-.008-1.414-.393-.389-1.026-.385-1.414,.008l-.843,.853c-.784-.478-1.674-.672-2.496-.746v-1.52c0-.552-.448-1-1-1s-1,.448-1,1v1.526c-.985,.098-1.812,.347-2.485,.752l-.855-.865c-.388-.393-1.021-.396-1.414-.008-.393,.388-.396,1.021-.008,1.414l.868,.878c-.406,.682-.655,1.524-.752,2.528h-1.497c-.552,0-1,.448-1,1s.448,1,1,1h1.496c.095,1.011,.342,1.854,.745,2.536l-.859,.869c-.388,.393-.385,1.026,.008,1.414,.195,.193,.449,.289,.703,.289,.258,0,.515-.099,.711-.297l.845-.854c.037,.022,.074,.045,.112,.066,.156,.088,.325,.13,.492,.13,.349,0,.687-.182,.871-.507Z"/>
  <path d="M11.198,19.706c-.552,0-1,.448-1,1v1.294c0,.552,.448,1,1,1s1-.448,1-1v-1.294c0-.552-.448-1-1-1Z"/>
  <path d="M14.806,19.706c-.552,0-1,.448-1,1v1.294c0,.552,.448,1,1,1s1-.448,1-1v-1.294c0-.552-.448-1-1-1Z"/>
  <path d="M18.415,19.706c-.552,0-1,.448-1,1v1.294c0,.552,.448,1,1,1s1-.448,1-1v-1.294c0-.552-.448-1-1-1Z"/>
  <path d="M20.225,13.829c-.173-2.863-2.555-5.139-5.459-5.139-3.016,0-5.469,2.455-5.469,5.472,0,.112,.003,.225,.01,.337-1.524,.533-2.606,1.983-2.606,3.677,0,.775,.228,1.524,.658,2.167,.193,.288,.509,.443,.832,.443,.191,0,.385-.055,.556-.169,.459-.307,.582-.929,.274-1.387-.209-.312-.319-.676-.319-1.053,0-1.008,.787-1.839,1.791-1.892,.3-.016,.576-.165,.754-.407,.177-.242,.237-.551,.162-.841-.073-.284-.11-.578-.11-.874,0-1.915,1.556-3.472,3.469-3.472s3.469,1.558,3.469,3.472c0,.104-.005,.208-.014,.311-.043,.506,.299,.965,.797,1.065,1.061,.215,1.831,1.159,1.831,2.244,0,.426-.117,.841-.339,1.201-.291,.47-.145,1.086,.325,1.376,.469,.292,1.086,.145,1.376-.325,.417-.676,.638-1.454,.638-2.252,0-1.745-1.064-3.295-2.625-3.954Z"/>
</svg>
