<?xml version="1.0" encoding="UTF-8"?>
<svg xmlns="http://www.w3.org/2000/svg" id="Layer_1" data-name="Layer 1" viewBox="0 0 24 24">
  <path d="M21.809,9.439c.75-2.187-.024-3.815-2.308-4.847-1.485-.671-2.738-.696-3.744-.08-.643-1.23-1.899-1.851-3.757-1.851-1.888,0-3.137,.606-3.77,1.841-1.003-.608-2.252-.58-3.732,.089-2.288,1.034-3.06,2.668-2.308,4.847-1.181,1.457-1.504,3.13-.858,4.568,.68,1.517,1.624,2.375,2.812,2.562,.079,.248,.177,.504,.298,.771,.497,1.105,1.321,1.903,2.384,2.306,.525,.199,1.097,.298,1.686,.298,.699,0,1.422-.139,2.121-.414,.146,.333,.302,.737,.432,1.125,.137,.407,.519,.682,.948,.682h.003c.431-.002,.812-.279,.947-.688,.126-.383,.277-.781,.418-1.112,.693,.271,1.411,.408,2.106,.408,.589,0,1.161-.099,1.687-.298,1.062-.402,1.887-1.2,2.384-2.306,.12-.269,.22-.524,.298-.771,1.188-.188,2.132-1.046,2.812-2.562,.645-1.435,.324-3.104-.859-4.569ZM12,4.662c1.532,0,2.262,.34,2.262,2.271,0,.411,.29,.796,.672,.946,.623,.246,2.072,.967,2.072,2.349,0,1.772-.672,1.995-1.033,2.115-.512,.17-.797,.716-.644,1.232,.093,.313,.14,.707,.14,1.169,0,1.931-.729,2.271-2.261,2.271-.068,0-.138,.003-.208,.013v-6.794c0-.553-.448-1-1-1s-1,.447-1,1v6.793c-.07-.01-.14-.013-.208-.013-1.712,0-2.261-.552-2.261-2.271,0-.466,.047-.86,.142-1.174,.154-.515-.125-1.059-.634-1.233-.339-.116-1.045-.358-1.045-2.109,0-1.388,1.448-2.104,2.07-2.348,.384-.149,.675-.535,.675-.947,0-1.943,.698-2.271,2.261-2.271Zm-5.734,11.859c-.179-.398-.291-.755-.332-1.061-.072-.536-.559-.904-1.095-.861-.353,.04-1.003,.104-1.684-1.411-.53-1.18,.439-2.364,.88-2.818,.285-.294,.391-.764,.223-1.138-.747-1.662-.276-2.212,1.062-2.817,1.136-.513,1.703-.45,2.148,.012-1.566,.877-2.475,2.25-2.475,3.801,0,1.717,.534,2.928,1.589,3.613-.035,.281-.052,.581-.052,.903,0,1.277,.292,2.27,.871,2.976-.497-.227-.879-.629-1.135-1.2Zm14.578-3.333c-.681,1.516-1.335,1.451-1.684,1.411-.539-.04-1.022,.327-1.095,.862-.04,.303-.152,.659-.332,1.06-.256,.57-.638,.972-1.135,1.2,.579-.706,.871-1.699,.871-2.976,0-.316-.017-.611-.05-.889,1.054-.679,1.587-1.896,1.587-3.628,0-1.543-.906-2.913-2.477-3.799,.445-.465,1.013-.529,2.149-.015,1.339,.605,1.811,1.155,1.067,2.809-.173,.375-.068,.85,.22,1.146,.44,.455,1.408,1.641,.879,2.818Z"/>
</svg>
