<?xml version="1.0" encoding="UTF-8"?>
<svg xmlns="http://www.w3.org/2000/svg" id="Layer_1" data-name="Layer 1" viewBox="0 0 24 24">
  <path d="M21.766,8.742c1.574-1.609,1.343-4.181-.55-6.114-1.028-1.05-2.268-1.628-3.49-1.628-.974,0-1.882,.379-2.555,1.067-.675,.688-.9,1.724-.98,2.501l-.364,.372c-2.94-1.249-5.331,.021-6.332,1.044l-1.57,1.609c-.148,.151-.244,.347-.274,.557-.02,.142-.429,3.286,2.316,6.55L1.485,21.299c-.387,.394-.381,1.027,.014,1.414,.194,.191,.447,.287,.7,.287,.259,0,.518-.1,.714-.299l6.461-6.58c2.486,2.128,4.876,2.388,5.894,2.388,.299,0,.48-.022,.512-.026,.221-.03,.426-.133,.582-.293l1.568-1.607c.997-1.017,2.237-3.453,1.003-6.447l.388-.394c.739-.072,1.764-.304,2.444-1Zm-3.878-.397l-.867,.885c-.304,.31-.373,.781-.172,1.165,1.197,2.28,.346,4.082-.348,4.79l-1.296,1.328c-.791-.006-2.937-.252-5.153-2.491-2.252-2.274-2.447-4.509-2.438-5.295l1.312-1.344c.685-.698,2.431-1.557,4.632-.352,.393,.215,.881,.143,1.194-.177l.868-.886c.326-.333,.529-.774,.573-1.242,.054-.575,.21-1.058,.407-1.259,.303-.31,.682-.466,1.126-.466,.681,0,1.412,.365,2.061,1.027,1.1,1.123,1.331,2.518,.551,3.316-.194,.198-.658,.354-1.21,.408-.47,.045-.91,.257-1.239,.593Z"/>
</svg>
