<?xml version="1.0" encoding="UTF-8"?>
<svg xmlns="http://www.w3.org/2000/svg" id="Layer_1" data-name="Layer 1" viewBox="0 0 24 24">
  <path d="M22.225,8.944c-.201-3.623-1.072-6.334-1.109-6.448-.11-.339-.393-.594-.742-.668-.158-.034-3.921-.827-8.373-.827S3.786,1.793,3.628,1.827c-.349,.074-.632,.329-.742,.668-.037,.114-.909,2.825-1.109,6.448-.191,3.448-.225,5.631,1.416,7.014,1.297,1.093,2.889,1.632,5.646,1.864l-.214,.88c-.254,1.043-.019,2.125,.645,2.97,.663,.844,1.659,1.328,2.732,1.328s2.069-.484,2.732-1.328c.664-.844,.898-1.927,.645-2.97l-.214-.88c2.762-.232,4.354-.772,5.647-1.865,1.639-1.386,1.605-3.568,1.415-7.013ZM4.627,3.672c.746-.134,2.151-.36,3.883-.512v1.754c0,.552,.448,1,1,1s1-.448,1-1v-1.883c.485-.02,.984-.031,1.49-.031,.107,0,.213,0,.318,.002v2.875c0,.552,.448,1,1,1s1-.448,1-1V3.073c.637,.039,1.245,.09,1.809,.148v3.618c0,.552,.448,1,1,1s1-.448,1-1V3.469c.513,.075,.936,.147,1.246,.202,.25,.934,.719,2.952,.854,5.382,.009,.156,.017,.307,.024,.454-1.279,.241-4.58,.787-8.251,.787s-6.972-.546-8.251-.787c.007-.147,.015-.298,.024-.454,.135-2.43,.604-4.448,.854-5.382Zm14.892,10.758c-.95,.803-2.181,1.302-5.658,1.474-.298,.015-.574,.162-.752,.401-.178,.239-.241,.545-.17,.834l.496,2.036c.108,.443,.008,.903-.273,1.261-.563,.717-1.757,.717-2.32,0-.282-.358-.381-.818-.273-1.261l.496-2.036c.07-.29,.008-.596-.17-.834-.179-.239-.454-.386-.752-.401-3.473-.17-4.705-.67-5.659-1.475-.575-.485-.784-1.284-.791-2.896,1.52,.276,4.712,.762,8.311,.762s6.789-.487,8.311-.763c-.008,1.611-.216,2.41-.792,2.898Z"/>
</svg>
