<?xml version="1.0" encoding="UTF-8"?>
<svg xmlns="http://www.w3.org/2000/svg" id="Layer_1" data-name="Layer 1" viewBox="0 0 24 24">
  <path d="M16.475,13.988c.285,.058,.525-.015,.667-.087,.066-.034,1.641-.849,3.207-2.442,1.579-1.607,2.366-3.195,2.399-3.263,.242-.495,.038-1.092-.457-1.336-.493-.241-1.094-.039-1.339,.455-.007,.014-.689,1.378-2.029,2.741-.939,.956-1.89,1.589-2.37,1.88-.457-.143-1.296-.456-2.086-1.013l6.164-6.257c.388-.394,.384-1.027-.01-1.414-.395-.389-1.027-.383-1.414,.01l-6.135,6.227c-.54-.807-.839-1.653-.974-2.106,.28-.482,.901-1.456,1.858-2.43,1.328-1.352,2.68-2.058,2.693-2.064,.49-.252,.685-.854,.434-1.345-.251-.49-.854-.685-1.346-.436-.066,.034-1.641,.849-3.207,2.442-1.579,1.606-2.366,3.195-2.399,3.263-.098,.199-.126,.426-.081,.643,.018,.087,.401,1.875,1.596,3.48L1.438,21.298c-.388,.394-.383,1.027,.011,1.414,.195,.192,.448,.288,.702,.288,.258,0,.517-.1,.712-.298L13.049,12.363c1.579,1.213,3.34,1.608,3.426,1.625Z"/>
  <path d="M22.72,20.581l-4.738-4.914c-.383-.396-1.017-.408-1.414-.025-.139,.134-.231,.299-.275,.474-.032,.108-.335,1.049-1.412,1.783-1.061,.708-2.501,.723-3.669,.039-.478-.28-1.09-.119-1.368,.358-.279,.477-.118,1.089,.358,1.368,.874,.511,1.851,.769,2.824,.769,1.059,0,2.114-.304,3.03-.915,.665-.453,1.135-.972,1.465-1.447l3.759,3.899c.196,.203,.458,.306,.72,.306,.25,0,.5-.093,.694-.28,.397-.383,.409-1.017,.025-1.414Z"/>
  <path d="M4.943,14.951c.237,0,.476-.084,.667-.255,.412-.368,.446-1.001,.078-1.412-2.999-3.348-2.81-4.615-2.571-6.22,.086-.578,.449-1.639,.792-2.552l3.162,3.178c.389,.391,1.023,.394,1.414,.004,.392-.39,.394-1.022,.004-1.414L4.25,2.02c-.235-.236-.573-.341-.9-.276-.328,.063-.602,.287-.73,.595-.13,.31-1.278,3.07-1.481,4.433-.331,2.226-.306,4.091,3.059,7.848,.198,.221,.471,.333,.746,.333Z"/>
</svg>
