<?xml version="1.0" encoding="UTF-8"?>
<svg xmlns="http://www.w3.org/2000/svg" id="Layer_1" data-name="Layer 1" viewBox="0 0 24 24">
  <path d="M22.377,9.201c-.073-.03-.9-.361-2.369-.715-.309-4.164-3.782-7.456-8.008-7.456S4.301,4.323,3.992,8.486c-1.47,.354-2.297,.685-2.37,.715-.388,.158-.636,.541-.622,.959,.058,1.726,.526,10.403,4.087,11.839,2.236,.9,5.856,.971,6.912,.971s4.677-.07,6.912-.971c3.561-1.436,4.029-10.113,4.087-11.839,.015-.418-.234-.802-.622-.959ZM12,3.03c2.979,0,5.459,2.182,5.944,5.038-1.604-.268-3.605-.477-5.944-.477s-4.341,.209-5.944,.477c.485-2.856,2.965-5.038,5.944-5.038Zm5.495,6.996c-.949,1.329-2.312,2.273-3.012,2.703-.774-.473-2.354-1.569-3.293-3.129,.265-.006,.535-.009,.81-.009,2.152,0,4.006,.191,5.495,.435Zm.669,10.118c-1.512,.61-4.266,.826-6.164,.826s-4.651-.217-6.165-.826c-1.634-.658-2.583-5.61-2.802-9.316,.992-.312,3.066-.863,5.97-1.11,1.383,3.174,4.874,4.976,5.028,5.055,.143,.072,.298,.108,.453,.108s.311-.036,.453-.108c.135-.069,3.108-1.603,4.659-4.322,.574,.139,1.035,.273,1.371,.378-.217,3.705-1.166,8.656-2.803,9.315Z"/>
</svg>
