<?xml version="1.0" encoding="UTF-8"?>
<svg xmlns="http://www.w3.org/2000/svg" id="Layer_1" data-name="Layer 1" viewBox="0 0 24 24">
  <path d="M15.674,11.723c-2.563-.303-4.777-.303-7.345,0-.439,.052-.792,.386-.868,.821-.143,.818-.216,1.634-.216,2.423s.072,1.607,.213,2.422c.076,.437,.429,.771,.868,.822,1.283,.151,2.519,.228,3.674,.228s2.389-.076,3.671-.228c.439-.052,.792-.386,.868-.821,.143-.818,.216-1.634,.216-2.423s-.072-1.607-.213-2.422c-.076-.437-.429-.771-.869-.822Zm-.997,4.583c-1.865,.176-3.493,.176-5.355,0-.051-.452-.077-.899-.077-1.339s.026-.886,.079-1.339c1.865-.176,3.492-.176,5.355,0,.051,.452,.077,.899,.077,1.339s-.026,.886-.079,1.339Z"/>
  <path d="M19.758,8.879c-.081-.234-.247-.431-.464-.55-.075-.041-1.674-.906-3.944-1.261V3h.017c.552,0,1-.447,1-1s-.448-1-1-1h-6.732c-.552,0-1,.447-1,1s.448,1,1,1h.017V7.069c-2.268,.354-3.869,1.218-3.944,1.26-.219,.119-.385,.316-.466,.553-.039,.112-.939,2.782-.939,6.331,0,3.578,.902,6.223,.94,6.333,.111,.32,.375,.562,.704,.644,.133,.033,3.306,.811,7.054,.811s6.92-.777,7.054-.811c.33-.082,.595-.325,.705-.646,.039-.112,.939-2.782,.939-6.33,0-3.579-.902-6.224-.94-6.334Zm-1.736,11.49c-1.037,.213-3.409,.631-6.021,.631s-4.99-.419-6.024-.631c-.24-.881-.674-2.798-.674-5.156,0-2.461,.487-4.485,.716-5.3,.62-.279,2.005-.82,3.715-.96,.519-.043,.918-.477,.918-.997V3h2.698V7.956c0,.521,.399,.954,.918,.997,1.699,.139,3.094,.683,3.716,.962,.229,.809,.714,2.819,.714,5.298,0,2.328-.436,4.265-.677,5.156Z"/>
</svg>
