<?xml version="1.0" encoding="UTF-8"?>
<svg xmlns="http://www.w3.org/2000/svg" id="Layer_1" data-name="Layer 1" viewBox="0 0 24 24">
  <path d="M21.496,2.323c-.391-.391-1.023-.391-1.414,0L10.927,11.479c-.471-.632-.918-1.372-1.139-1.977l.168-.17c1.259-1.274,1.708-3.132,1.174-4.85-.467-1.499-1.631-2.676-3.114-3.149-1.694-.542-3.524-.096-4.788,1.161-.373,.326-2.765,2.575-2.116,6.073,.615,3.114,2.666,6.32,4.4,8.329l-3.188,3.188c-.391,.391-.391,1.023,0,1.414,.195,.195,.451,.293,.707,.293s.512-.098,.707-.293L21.496,3.737c.391-.391,.391-1.023,0-1.414ZM3.076,8.189c-.468-2.52,1.395-4.128,1.47-4.192,.026-.021,.051-.044,.075-.068,.733-.742,1.8-1.007,2.787-.692,.862,.275,1.54,.962,1.812,1.838,.315,1.011,.051,2.103-.688,2.851l-.569,.577c-.224,.227-.326,.547-.275,.862,.188,1.157,1.021,2.533,1.811,3.541l-2.57,2.57c-1.633-1.923-3.357-4.772-3.854-7.287Z"/>
  <path d="M22.772,15.935c-.479-1.47-1.669-2.622-3.182-3.083-1.728-.528-3.596-.082-4.879,1.158l-.104,.1c-.123-.062-.218-.113-.221-.114-.492-.254-1.094-.064-1.349,.427-.254,.49-.063,1.093,.427,1.348,.882,.458,1.09,.491,1.202,.509,.312,.049,.626-.05,.852-.269l.583-.563c.761-.736,1.876-.997,2.907-.683,.889,.271,1.586,.94,1.863,1.79,.315,.965,.048,2.012-.697,2.731-.024,.023-.047,.048-.069,.074-.017,.019-1.661,1.93-4.249,1.46-1.686-.326-4.171-1.639-5.788-2.664-.466-.296-1.084-.158-1.38,.309-.296,.466-.158,1.084,.309,1.38,.897,.569,4.016,2.463,6.491,2.941,.414,.075,.81,.108,1.188,.108,2.829,0,4.628-1.874,4.919-2.2,1.276-1.254,1.728-3.074,1.178-4.759Z"/>
</svg>
