<?xml version="1.0" encoding="UTF-8"?>
<svg xmlns="http://www.w3.org/2000/svg" id="Layer_1" data-name="Layer 1" viewBox="0 0 24 24">
  <path d="M20.322,2.954c-.08-.333-.326-.604-.649-.716-.146-.051-3.642-1.238-7.673-1.238-2.21,0-4.248,.359-5.569,.66-1.65,.376-2.896,1.756-3.174,3.515-.256,1.618-.561,4.167-.561,7.119,0,2.83,.278,5.271,.512,6.82,.289,1.915,1.785,3.393,3.639,3.595,1.778,.194,3.513,.292,5.153,.292,3.989,0,7.379-.588,7.521-.613,.392-.069,.705-.362,.799-.748,.04-.165,.983-4.096,.983-9.346,0-5.093-.881-8.917-.981-9.339Zm-1.825,1.011c.256,1.241,.807,4.37,.807,8.329,0,1.187-.052,2.308-.131,3.329H8.832V3.244c.951-.14,2.037-.244,3.168-.244,2.868,0,5.428,.65,6.497,.965Zm-13.266,1.522c.148-.93,.773-1.657,1.601-1.865V15.833c-.717,.234-1.36,.653-1.875,1.206-.144-1.326-.261-2.954-.261-4.745,0-2.823,.291-5.26,.535-6.807Zm6.769,15.513c-1.547,0-3.254-.097-4.937-.28-.537-.059-1.017-.333-1.36-.744,.151-1.33,1.203-2.353,2.45-2.353h10.82c-.158,1.286-.338,2.291-.458,2.897-1.16,.167-3.709,.48-6.515,.48Z"/>
</svg>
