<?xml version="1.0" encoding="UTF-8"?>
<svg xmlns="http://www.w3.org/2000/svg" id="Layer_1" data-name="Layer 1" viewBox="0 0 24 24">
  <path d="M18.438,1.015c-2.682,0-3.245,1.763-3.245,3.242s.563,3.241,3.245,3.241,3.244-1.763,3.244-3.241-.563-3.242-3.244-3.242Zm0,4.483c-.964,0-1.245-.163-1.245-1.241s.28-1.242,1.245-1.242,1.244,.163,1.244,1.242-.28,1.241-1.244,1.241Z"/>
  <path d="M13.61,10.101c-.011-1.732-.039-4.556-.081-5.199-.142-2.188-2.005-3.901-4.241-3.901s-4.099,1.714-4.241,3.901c-.041,.643-.07,3.5-.081,5.2-1.78,1.069-2.648,3.03-2.648,5.969,0,6.211,3.978,6.93,6.97,6.93s6.971-.719,6.971-6.93c0-2.939-.868-4.9-2.648-5.97Zm-4.322,10.899c-3.068,0-4.97-.824-4.97-4.93,0-3.163,1.172-4.055,2.054-4.45,.358-.16,.589-.516,.591-.907,.009-2,.042-5.088,.081-5.683,.074-1.139,1.06-2.03,2.245-2.03s2.171,.892,2.245,2.031c.039,.587,.071,3.676,.081,5.681,.002,.392,.233,.747,.591,.907,.882,.396,2.054,1.287,2.054,4.451,0,4.105-1.902,4.93-4.971,4.93Z"/>
  <path d="M10.288,13.303V5.933c0-.553-.448-1-1-1s-1,.447-1,1v7.37c-1.138,.409-1.954,1.495-1.954,2.768,0,1.622,1.325,2.941,2.954,2.941s2.955-1.319,2.955-2.941c0-1.273-.816-2.359-1.955-2.768Zm-1,3.709c-.526,0-.954-.422-.954-.941s.428-.941,.954-.941,.955,.422,.955,.941-.428,.941-.955,.941Z"/>
</svg>
