<?xml version="1.0" encoding="UTF-8"?>
<svg xmlns="http://www.w3.org/2000/svg" id="Layer_1" data-name="Layer 1" viewBox="0 0 24 24">
  <path d="M22.934,9.385c-.043-.113-1.09-2.801-3.3-5.007-2.204-2.199-4.9-3.248-5.015-3.291-.303-.118-.647-.078-.919,.106-.131,.089-3.259,2.223-6.778,5.735C3.371,10.472,1.261,13.565,1.172,13.695c-.183,.271-.223,.614-.105,.92,.043,.113,1.09,2.801,3.3,5.007,2.204,2.199,4.9,3.248,5.015,3.291,.115,.045,.236,.066,.357,.066,.197,0,.394-.059,.562-.173,.131-.089,3.259-2.223,6.778-5.735,3.551-3.543,5.661-6.637,5.75-6.767,.183-.271,.223-.614,.105-.92ZM14.38,3.163c.66,.308,1.905,.959,3.1,1.956l-2.176,2.171-2.74-2.734c.789-.635,1.422-1.107,1.816-1.393Zm-1.404,14.993l-2.865-2.859,1.888-1.884,2.95,2.944c-.687,.659-1.353,1.261-1.973,1.8Zm-4.28-4.272l-2.866-2.86c.539-.618,1.142-1.281,1.804-1.968l2.95,2.944-1.888,1.884Zm.354-6.241c.687-.659,1.353-1.262,1.974-1.8l2.865,2.859-1.889,1.885-2.95-2.944Zm-4.511,4.917l2.742,2.736-2.176,2.172c-1.001-1.193-1.652-2.436-1.962-3.095,.285-.392,.758-1.024,1.396-1.813Zm5.081,8.276c-.66-.308-1.905-.959-3.1-1.956l2.176-2.172,2.74,2.734c-.789,.635-1.423,1.108-1.816,1.393Zm6.745-5.893l-2.95-2.944,1.889-1.885,2.866,2.86c-.539,.618-1.143,1.282-1.805,1.969Zm3.097-3.505l-2.742-2.736,2.176-2.172c1.001,1.193,1.652,2.436,1.962,3.095-.285,.392-.758,1.024-1.396,1.813Z"/>
</svg>
