<?xml version="1.0" encoding="UTF-8"?>
<svg xmlns="http://www.w3.org/2000/svg" id="Layer_1" data-name="Layer 1" viewBox="0 0 24 24">
  <circle cx="10.59" cy="21.856" r="1"/>
  <circle cx="9.23" cy="15.202" r="1"/>
  <circle cx="16.07" cy="15.202" r="1"/>
  <g>
    <path d="M12.947,14.248c-.529-.164-1.088,.131-1.251,.659l-1.031,3.324c-.164,.527,.131,1.088,.659,1.251,.099,.031,.912,.222,1.251-.659l1.031-3.324c.164-.527-.131-1.088-.659-1.251Z"/>
    <path d="M19.302,8.212c-.104-3.913-3.345-7.064-7.315-7.064-4.035,0-7.317,3.256-7.317,7.257,0,.252,.013,.504,.039,.754-2.15,.599-3.708,2.558-3.708,4.863,0,1.992,1.186,3.804,3.02,4.615,.502,.222,1.095-.005,1.319-.51,.223-.505-.005-1.096-.51-1.319-1.111-.491-1.829-1.585-1.829-2.786,0-1.623,1.284-2.96,2.922-3.047,.3-.016,.577-.166,.755-.408,.177-.242,.236-.552,.161-.843-.112-.428-.168-.872-.168-1.319,0-2.899,2.385-5.257,5.317-5.257s5.318,2.358,5.318,5.257c0,.158-.008,.313-.021,.467-.045,.508,.3,.968,.8,1.068,1.69,.339,2.917,1.823,2.917,3.53,0,1.495-.952,2.852-2.369,3.375-.518,.191-.783,.767-.591,1.285,.149,.404,.531,.654,.938,.654,.115,0,.232-.02,.347-.062,2.198-.812,3.675-2.923,3.675-5.251,0-2.368-1.512-4.461-3.698-5.259Z"/>
    <path d="M15.339,17.576c-.529-.164-1.088,.131-1.251,.659l-1.031,3.324c-.164,.527,.131,1.088,.659,1.251,.099,.031,.912,.222,1.251-.659l1.031-3.324c.164-.527-.131-1.088-.659-1.251Z"/>
    <path d="M8.492,17.576c-.529-.164-1.088,.131-1.251,.659l-1.031,3.324c-.164,.527,.131,1.088,.659,1.251,.099,.031,.912,.222,1.251-.659l1.031-3.324c.164-.527-.131-1.088-.659-1.251Z"/>
  </g>
</svg>
