<?xml version="1.0" encoding="UTF-8"?>
<svg xmlns="http://www.w3.org/2000/svg" id="Layer_1" data-name="Layer 1" viewBox="0 0 24 24">
  <path d="M20.952,3.366c-1.726-2.084-5.492-2.366-8.949-2.366S4.763,1.284,3.032,3.388c-.848,1.03-1.116,2.371-.799,3.983,.915,4.649,3.863,7.15,8.767,7.443v6.186H6.408c-.552,0-1,.448-1,1s.448,1,1,1h11.185c.553,0,1-.448,1-1s-.447-1-1-1h-4.593v-6.185c4.941-.29,7.891-2.793,8.773-7.45,.308-1.624,.032-2.969-.821-3.999Zm-8.949-.366c2.598,0,6.191,.17,7.409,1.641,.277,.335,.434,.748,.473,1.246H4.114c.037-.49,.19-.897,.464-1.229,1.222-1.486,4.823-1.658,7.426-1.658Zm0,9.843c-4.183,0-6.618-1.581-7.59-4.956h15.187c-.948,3.375-3.385,4.956-7.597,4.956Z"/>
</svg>
