<?xml version="1.0" encoding="UTF-8"?>
<svg xmlns="http://www.w3.org/2000/svg" id="Layer_1" data-name="Layer 1" viewBox="0 0 24 24">
  <path d="M15.323,5.909c.502,.248,.941,.35,1.324,.35,1.122,0,1.759-.874,2.072-1.509,.362-.732,.445-1.402,.246-1.99-.295-.871-1.117-1.277-1.388-1.41-1.969-.974-2.975,.307-3.396,1.158-.391,.79-.457,1.505-.195,2.125,.221,.523,.657,.94,1.337,1.276Z"/>
  <path d="M21.65,14.575c-.161-.528-.719-.827-1.249-.663-.528,.162-.825,.722-.663,1.249,.056,.182,.037,.374-.052,.541-.089,.168-.238,.291-.421,.347l-9.661,2.956v-6.213c.002-.484,.08-.914,.234-1.274,.623-1.458,1.496-2.763,2.6-3.885l1.502,.741-2.181,3.369c-.315,.486-.701,.908-1.141,1.253v2.359c1.142-.554,2.117-1.42,2.83-2.519l2.792-4.312c.302-.465,.168-1.088-.299-1.39-.062-.04-3.202-1.582-3.202-1.582-.234-.131-.521-.168-.799-.076l-.961,.313c-1.27,.399-2.636,.226-3.758-.477-.467-.293-1.084-.151-1.378,.317-.293,.468-.151,1.085,.317,1.378,1.022,.64,2.187,.975,3.369,.99-.604,.848-1.116,1.762-1.532,2.736-.26,.609-.393,1.302-.394,2.058v6.827s-4.668,1.428-4.668,1.428c-.527,.161-.825,.721-.663,1.249,.132,.431,.527,.707,.956,.707,.097,0,.195-.014,.293-.044l16.327-4.995c.693-.212,1.262-.68,1.602-1.319,.341-.64,.411-1.374,.198-2.066Z"/>
</svg>
