<?xml version="1.0" encoding="UTF-8"?>
<svg xmlns="http://www.w3.org/2000/svg" id="Layer_1" data-name="Layer 1" viewBox="0 0 24 24">
  <path d="M18.189,10.597c-.096-.33-.203-.678-.323-1.043h1.21c.553,0,1-.448,1-1v-2.783c0-.552-.447-1-1-1h-1.933c-.459,0-.881,.16-1.214,.427-.551-.924-.955-1.396-.987-1.433-.141-.161-.328-.273-.536-.319-.149-.034-1.498-.312-3.035,.214-.522,.178-.802,.746-.624,1.269,.178,.522,.746,.803,1.269,.624,.651-.222,1.268-.222,1.629-.196,.228,.316,.616,.899,1.055,1.753-.446,.433-.945,.865-1.396,1.249-.633,.539-1.261,1.016-1.87,1.421h-3.548c-.126-1.234-.289-2.152-.297-2.199-.054-.302-.245-.563-.516-.707-.091-.048-.914-.451-2.024-.456-1.031,.012-1.681,.497-1.801,.594-.42,.341-.479,.943-.152,1.373,.327,.429,.951,.512,1.391,.197,.009-.007,.229-.161,.586-.165,.239-.004,.461,.033,.638,.076,.073,.488,.174,1.248,.243,2.099-3.332,.026-4.953,1.672-4.953,5.03,0,3.385,1.647,5.03,5.035,5.03s5.035-1.645,5.035-5.03c0-.093-.002-.183-.004-.273l1.36-3.829c.712-.466,1.444-1.017,2.177-1.641,.307-.261,.635-.545,.961-.84,.101,.263,.202,.538,.3,.827,.109,.321,.208,.627,.297,.919-2.168,.525-3.228,2.121-3.228,4.836,0,3.385,1.647,5.03,5.035,5.03s5.034-1.645,5.034-5.03c0-3.31-1.574-4.956-4.811-5.028Zm-8.826,3.571h-2.516l.834-2.388h2.529l-.848,2.388Zm-3.329,4.486c-2.013,0-3.035-.469-3.035-3.03,0-2.194,.791-2.857,2.268-2.998l-.772,2.212c-.107,.306-.059,.645,.128,.909s.492,.421,.815,.421h3.612c-.148,2.074-1.197,2.486-3.016,2.486Zm11.931,0c-2.013,0-3.035-.469-3.035-3.03,0-1.91,.599-2.659,1.729-2.915,.371,1.747,.3,2.614,.297,2.645-.061,.545,.329,1.038,.875,1.103,.04,.005,.08,.007,.12,.007,.499,0,.931-.373,.992-.88,.017-.146,.108-1.105-.258-2.965,1.536,.127,2.314,.769,2.314,3.004,0,2.547-1.066,3.03-3.034,3.03Z"/>
</svg>
