<?xml version="1.0" encoding="UTF-8"?>
<svg xmlns="http://www.w3.org/2000/svg" id="Layer_1" data-name="Layer 1" viewBox="0 0 24 24">
  <path d="M13.136,17.149h-2.271c-.553,0-1,.448-1,1s.447,1,1,1h2.271c.553,0,1-.448,1-1s-.447-1-1-1Z"/>
  <path d="M19.041,2.945c-.067-.324-.292-.594-.599-.72-.121-.05-3.02-1.226-6.442-1.226-3.362,0-6.313,1.173-6.437,1.223-.311,.125-.538,.398-.605,.727-.033,.161-.809,3.997-.809,9.051s.775,8.89,.809,9.051c.067,.331,.298,.605,.612,.729,.126,.05,3.129,1.22,6.43,1.22,3.416,0,6.32-1.175,6.442-1.225,.308-.126,.532-.397,.6-.723,.033-.16,.809-3.966,.809-9.052,0-5.129-.776-8.896-.81-9.055Zm-12.224,.952c.922-.307,2.979-.897,5.183-.897,2.24,0,4.275,.588,5.184,.895,.208,1.197,.667,4.276,.667,8.105,0,.327-.003,.649-.01,.966-1.008,.136-3.306,.403-5.841,.403-2.459,0-4.81-.269-5.841-.405-.006-.316-.01-.637-.01-.963,0-3.767,.461-6.887,.668-8.103Zm5.183,17.103c-2.166,0-4.249-.593-5.184-.901-.15-.874-.429-2.73-.574-5.108,1.202,.15,3.408,.377,5.758,.377,2.41,0,4.574-.224,5.758-.374-.145,2.387-.426,4.242-.575,5.111-.907,.307-2.936,.894-5.183,.894Z"/>
</svg>
