<?xml version="1.0" encoding="UTF-8"?>
<svg xmlns="http://www.w3.org/2000/svg" id="Layer_1" data-name="Layer 1" viewBox="0 0 24 24">
  <path d="M21.618,7c-.04-.226-.155-.431-.328-.582L15.644,1.49c-.131-.114-.289-.192-.459-.227-.876-.177-1.879-.263-3.065-.263C7.734,1,4.009,1.774,3.853,1.807c-.368,.078-.661,.354-.76,.718-.044,.164-1.083,4.068-1.083,9.281,0,5.257,1.04,9.123,1.084,9.285,.09,.328,.34,.588,.664,.69,.158,.05,3.918,1.219,8.361,1.219s8.203-1.169,8.361-1.219c.346-.109,.605-.396,.679-.75,.034-.163,.831-4.041,.831-9.225,0-1.798-.122-3.37-.372-4.806Zm-3.515-.709c-.827-.01-1.562-.071-2.068-.127-.046-.407-.093-.998-.102-1.767l2.17,1.894Zm1.208,13.743c-1.179,.312-4.037,.967-7.191,.967-3.193,0-6.072-.668-7.227-.976-.273-1.21-.883-4.342-.883-8.218,0-3.785,.591-6.897,.871-8.158,1.215-.213,4.078-.648,7.238-.648,.682,0,1.288,.031,1.833,.093-.103,2.704,.22,4.129,.236,4.193,.092,.394,.411,.693,.811,.759,.082,.014,1.522,.248,3.323,.248,.469,0,.962-.016,1.461-.056,.139,1.081,.208,2.257,.208,3.569,0,3.827-.464,6.97-.68,8.227Z"/>
  <path d="M16.24,9.581H7.76c-.553,0-1,.448-1,1s.447,1,1,1h8.48c.553,0,1-.448,1-1s-.447-1-1-1Z"/>
  <path d="M16.24,13.346H7.76c-.553,0-1,.448-1,1s.447,1,1,1h8.48c.553,0,1-.448,1-1s-.447-1-1-1Z"/>
  <path d="M15.245,17.61c-.136,0-.159-.008-.404-.234-.311-.285-.828-.762-1.76-.762s-1.45,.477-1.76,.762c-.246,.226-.27,.234-.405,.234-.135,0-.158-.007-.403-.233-.31-.285-.827-.763-1.758-.763-.553,0-1,.448-1,1s.447,1,1,1c.135,0,.157,.007,.402,.233,.31,.286,.827,.763,1.759,.763s1.449-.477,1.759-.762c.246-.226,.27-.234,.406-.234,.136,0,.159,.008,.404,.234,.311,.285,.828,.762,1.76,.762,.553,0,1-.448,1-1s-.447-1-1-1Z"/>
</svg>
