<?xml version="1.0" encoding="UTF-8"?>
<svg xmlns="http://www.w3.org/2000/svg" id="Layer_1" data-name="Layer 1" viewBox="0 0 24 24">
  <path d="M20.247,20.67h-.007c.772-2.191,2.334-7.012,2.334-10.135,0-.397-.235-.757-.599-.916-3.861-1.69-6.491-2.635-8.976-2.836v-1.824h1.524c.553,0,1-.448,1-1s-.447-1-1-1h-1.524V1.67c0-.552-.447-1-1-1s-1,.448-1,1v1.288h-1.524c-.553,0-1,.448-1,1s.447,1,1,1h1.524v1.824c-2.484,.201-5.115,1.146-8.976,2.836-.363,.159-.599,.519-.599,.916,0,3.146,1.56,7.949,2.332,10.135h-.005c-.553,0-1,.448-1,1s.447,1,1,1H20.247c.553,0,1-.448,1-1s-.447-1-1-1ZM3.449,11.181c7.58-3.279,9.52-3.279,17.102,0-.218,3.199-1.906,8.034-2.437,9.49H5.885c-.532-1.451-2.22-6.269-2.436-9.49Z"/>
</svg>
