<?xml version="1.0" encoding="UTF-8"?>
<svg xmlns="http://www.w3.org/2000/svg" id="Layer_1" data-name="Layer 1" viewBox="0 0 24 24">
  <path d="M19.835,16.312H4.165c-1.745,0-3.165,1.419-3.165,3.174,0,1.745,1.419,3.165,3.165,3.165h15.67c1.745,0,3.165-1.419,3.165-3.174,0-1.745-1.42-3.165-3.165-3.165Zm0,4.338H4.165c-.642,0-1.165-.522-1.165-1.174,0-.642,.522-1.165,1.165-1.165h15.67c.643,0,1.165,.522,1.165,1.174,0,.642-.522,1.165-1.165,1.165Z"/>
  <path d="M19.824,12.784c-.699,.439-1.573,.439-2.285-.007-1.339-.834-3.062-.834-4.402,.004-.703,.439-1.575,.439-2.28-.001-1.337-.837-3.064-.836-4.401,0-.703,.44-1.577,.44-2.279,0-.467-.293-1.084-.152-1.378,.316-.293,.468-.152,1.085,.316,1.378,1.338,.839,3.066,.839,4.403,0,.702-.439,1.576-.44,2.28,0,1.339,.837,3.065,.837,4.405-.002,.69-.432,1.585-.434,2.288,.006,.678,.423,1.438,.635,2.197,.635s1.52-.211,2.197-.635c.468-.293,.61-.91,.317-1.378-.292-.469-.908-.612-1.378-.318Z"/>
  <path d="M2.092,10.944H20.958c.468,0,.873-.324,.976-.78,.029-.13,.707-3.214-.279-5.368-1.112-2.425-4.158-3.366-4.287-3.404-.096-.029-.185-.046-.294-.042C7.438,1.349,1.618,7.224,1.375,7.474c-.181,.187-.283,.437-.283,.697v1.774c0,.552,.448,1,1,1Zm1-2.342c1.218-1.096,6.275-5.196,13.824-5.252,.491,.178,2.291,.908,2.92,2.28,.435,.949,.391,2.362,.274,3.315H3.092v-.342Z"/>
</svg>
