<?xml version="1.0" encoding="UTF-8"?>
<svg xmlns="http://www.w3.org/2000/svg" id="Layer_1" data-name="Layer 1" viewBox="0 0 24 24">
  <path d="M19.483,9.524l.352-2.194c.085-.529-.262-1.031-.787-1.138-.147-.03-3.644-.734-7.759-.734s-7.611,.704-7.758,.734c-.525,.106-.872,.608-.787,1.138l1.708,10.648c.056,.347,.289,.64,.615,.771,.08,.031,2.007,.784,6.222,.784s6.142-.753,6.222-.784c.326-.131,.56-.424,.615-.771l.25-1.561c.083,0,.439-.005,.439-.005,1.903,0,3.451-1.56,3.451-3.476,0-1.688-1.175-3.098-2.785-3.412Zm-8.194,8.009c-2.591,0-4.204-.301-4.961-.49l-1.453-9.057c1.284-.205,3.73-.528,6.415-.528s5.129,.323,6.415,.528l-1.453,9.056c-.761,.19-2.373,.491-4.962,.491Zm7.527-3.121h-.118s.467-2.909,.467-2.909c.641,.159,1.102,.741,1.102,1.433,0,.813-.651,1.476-1.451,1.476Z"/>
  <path d="M19.848,21H2.732c-.552,0-1,.447-1,1s.448,1,1,1H19.848c.552,0,1-.447,1-1s-.448-1-1-1Z"/>
  <path d="M11.29,4.22c.552,0,1-.447,1-1v-1.22c0-.553-.448-1-1-1s-1,.447-1,1v1.22c0,.553,.448,1,1,1Z"/>
  <path d="M15.513,4.524c.552,0,1-.447,1-1v-1.22c0-.553-.448-1-1-1s-1,.447-1,1v1.22c0,.553,.448,1,1,1Z"/>
  <path d="M7.066,4.524c.552,0,1-.447,1-1v-1.22c0-.553-.448-1-1-1s-1,.447-1,1v1.22c0,.553,.448,1,1,1Z"/>
</svg>
