<?xml version="1.0" encoding="UTF-8"?>
<svg xmlns="http://www.w3.org/2000/svg" id="Layer_1" data-name="Layer 1" viewBox="0 0 24 24">
  <path d="M22.247,11.53c-.16-.041-3.891-.974-9.726-1.027,.14-5.013,.938-8.222,.947-8.257,.136-.535-.188-1.079-.723-1.215-.533-.135-1.079,.187-1.215,.722-.039,.151-.872,3.485-1.01,8.767-5.313,.138-8.619,.973-8.769,1.012-.535,.137-.856,.682-.719,1.217,.137,.535,.683,.856,1.217,.72,.034-.009,3.215-.807,8.254-.947,.053,5.871,.978,9.572,1.028,9.728,.295,.908,1.133,.741,1.217,.719,.535-.137,.857-.682,.72-1.217-.009-.036-.913-3.637-.965-9.249,5.579,.052,9.214,.956,9.251,.966,.083,.021,.954,.188,1.215-.723,.152-.531-.187-1.079-.722-1.215Z"/>
</svg>
