<?xml version="1.0" encoding="UTF-8"?>
<svg xmlns="http://www.w3.org/2000/svg" id="Layer_1" data-name="Layer 1" viewBox="0 0 24 24">
  <path d="M4.959,12c0,.552,.447,1,1,1H15.996c-.726,.812-1.926,1.853-3.821,2.758-.498,.238-.71,.834-.472,1.333,.171,.359,.529,.57,.903,.569,.145,0,.291-.031,.43-.098,4.383-2.091,5.646-4.865,5.776-5.174,.102-.244,.104-.519,.005-.763-.05-.123-1.271-3.036-5.781-5.188-.498-.239-1.097-.027-1.333,.472-.238,.499-.026,1.095,.472,1.333,1.896,.905,3.096,1.946,3.822,2.758H5.959c-.553,0-1,.448-1,1Z"/>
  <path d="M21.73,2.858c-.1-.325-.357-.578-.685-.67-.173-.049-4.273-1.188-9.121-1.188C7.163,1,2.984,2.138,2.81,2.187c-.332,.091-.594,.347-.692,.677-.029,.098-.721,2.433-1.038,5.853-.051,.55,.354,1.037,.903,1.088,.584,.054,1.037-.354,1.089-.903,.211-2.284,.605-4.073,.818-4.923,1.259-.298,4.519-.978,8.035-.978,3.577,0,6.797,.678,8.037,.976,.301,1.185,.963,4.23,.963,8.024,0,3.752-.665,6.829-.965,8.025-1.242,.298-4.458,.975-8.035,.975-3.459,0-6.762-.683-8.036-.98-.213-.848-.605-2.631-.817-4.921-.052-.549-.512-.955-1.089-.903-.55,.051-.954,.538-.903,1.088,.317,3.42,1.009,5.755,1.038,5.853,.1,.332,.363,.588,.697,.678,.179,.048,4.436,1.185,9.11,1.185,4.837,0,8.947-1.139,9.12-1.188,.329-.093,.588-.347,.687-.674,.049-.161,1.193-4.007,1.193-9.139,0-5.175-1.146-8.982-1.194-9.142Z"/>
</svg>
