<?xml version="1.0" encoding="UTF-8"?>
<svg xmlns="http://www.w3.org/2000/svg" id="Layer_1" data-name="Layer 1" viewBox="0 0 24 24">
  <path d="M19.952,16.976l-1.017-.835c-.55-.453-.829-1.113-.764-1.812,.065-.705,.465-1.308,1.172-1.702,.12-.08,1.178-.823,1.422-2.117,.105-.561,.088-1.434-.591-2.412-.865-1.243-2.022-1.555-3.048-1.42,.012-.192,.018-.39,.018-.594,0-3.422-1.687-5.085-5.157-5.085-3.422,0-5.157,1.711-5.157,5.085,0,.199,.006,.392,.017,.58-1.005-.119-2.159,.194-3.021,1.434-.68,.978-.697,1.851-.591,2.412,.244,1.293,1.302,2.037,1.497,2.163,.632,.348,1.032,.951,1.097,1.656,.064,.699-.214,1.359-.764,1.812l-1.083,.895c-.109,.107-1.064,1.087-1.064,2.482,0,.606,.19,1.517,1.1,2.41,1.82,1.789,3.945,1.001,4.988-.031,.742-.873,1.833-1.373,2.994-1.373s2.252,.5,3.055,1.438c.555,.545,2.668,2.039,4.927-.035,.939-.862,1.1-1.803,1.1-2.41,0-1.395-.955-2.375-1.13-2.541ZM11.987,3c2.669,0,3.157,1.039,3.157,3.085,0,2.001-.503,3.085-3.157,3.085s-3.157-1.084-3.157-3.085c0-1.954,.517-3.085,3.157-3.085Zm6.594,17.5c-.956,.938-1.809,.333-2.063,.1-1.123-1.32-2.77-2.077-4.518-2.077s-3.395,.757-4.457,2.012c-.174,.172-1.096,.975-2.125-.035-.932-.917-.33-1.735-.101-1.979l1.017-.835c1.056-.868,1.611-2.191,1.486-3.541-.125-1.355-.92-2.561-2.041-3.171-.38-.268-.925-.849-.311-1.732,.654-.941,1.477-.561,1.722-.411l.271,.219c.777,1.423,2.277,2.122,4.525,2.122,2.229,0,3.723-.687,4.506-2.085l.238-.198c.324-.207,1.148-.587,1.801,.354,.614,.883,.069,1.465-.227,1.681-1.205,.663-1.999,1.868-2.125,3.223-.125,1.35,.475,2.622,1.486,3.541,.542,.493,2.257,1.498,.916,2.814Z"/>
  <g>
    <circle cx="12" cy="13.21" r="1"/>
    <circle cx="12" cy="16.424" r="1"/>
  </g>
</svg>
