<?xml version="1.0" encoding="UTF-8"?>
<svg xmlns="http://www.w3.org/2000/svg" id="Layer_1" data-name="Layer 1" viewBox="0 0 24 24">
  <path d="M6.659,10.441c1.747,.464,3.544,.696,5.341,.696s3.594-.232,5.341-.696c.529-.141,.848-.682,.712-1.213C16.719,3.988,12.568,1.174,12.526,1.147c-.325-.211-.785-.175-1.053,0-.041,.027-4.192,2.841-5.526,8.082-.136,.531,.183,1.072,.712,1.213ZM11.999,3.265c.924,.79,2.826,2.673,3.819,5.481-2.516,.521-5.121,.521-7.637,0,.995-2.812,2.9-4.697,3.817-5.481Z"/>
  <path d="M17.341,13.56c-1.747-.464-3.544-.696-5.341-.696s-3.594,.232-5.341,.696c-.529,.141-.848,.682-.712,1.213,1.334,5.241,5.485,8.055,5.526,8.082,.325,.211,.785,.175,1.053,0,.041-.027,4.192-2.841,5.526-8.082,.136-.531-.183-1.072-.712-1.213Zm-5.34,7.176c-.924-.79-2.826-2.673-3.819-5.481,2.516-.521,5.121-.521,7.637,0-.995,2.812-2.9,4.697-3.817,5.481Z"/>
</svg>
