<?xml version="1.0" encoding="UTF-8"?>
<svg xmlns="http://www.w3.org/2000/svg" id="Layer_1" data-name="Layer 1" viewBox="0 0 24 24">
  <path d="M9.482,9.984h-1.158c.196-.479,.448-.773,.448-.773,.37-.41,.337-1.042-.073-1.413-.412-.37-1.044-.338-1.413,.073-.053,.059-.53,.603-.864,1.483-.299,.789-.329,1.52-.331,1.601-.008,.27,.094,.532,.282,.726,.188,.194,.447,.304,.718,.304h1.158c-.193,.471-.441,.765-.454,.78-.364,.41-.33,1.038,.078,1.406,.191,.172,.431,.257,.669,.257,.273,0,.546-.111,.743-.33,.053-.059,.53-.603,.864-1.482,.299-.789,.329-1.52,.331-1.601,.008-.27-.094-.532-.282-.726-.188-.194-.447-.304-.718-.304Z"/>
  <path d="M22,2.032c-.552,0-1,.448-1,1v.818h-2.103v-.818c0-.552-.448-1-1-1s-1,.448-1,1v3.909c0,1.114,.906,2.021,2.021,2.021h.031c0,.035,0,.07,0,.105,0,3.498-.342,6.387-.516,7.625-.669,.141-1.811,.343-3.111,.408,.139-1.406,.253-3.153,.253-5.095,0-4.896-.712-8.492-.743-8.642-.077-.381-.368-.684-.746-.775-.109-.026-2.719-.648-5.799-.648s-5.688,.622-5.798,.648c-.379,.091-.67,.395-.747,.777-.03,.152-.742,3.786-.742,8.64,0,4.896,.712,8.492,.743,8.642,.077,.382,.37,.685,.749,.775,.109,.026,2.717,.638,5.795,.638s5.685-.612,5.795-.638c.38-.09,.673-.395,.75-.778,.011-.057,.12-.609,.25-1.533,2.435-.079,4.412-.611,4.501-.636,.375-.102,.656-.412,.722-.794,.026-.152,.643-3.773,.643-8.615,0-.035,0-.07,0-.105h.031c1.114,0,2.021-.906,2.021-2.021V3.032c0-.552-.448-1-1-1ZM8.287,20.061c-1.978,0-3.78-.281-4.697-.454-.189-1.161-.55-3.79-.587-7.061h.77c.552,0,1-.448,1-1s-.448-1-1-1h-.75c.086-2.822,.399-5.089,.569-6.146,.917-.175,2.722-.461,4.695-.461s3.78,.286,4.696,.461c.17,1.051,.483,3.307,.569,6.146h-.751c-.552,0-1,.448-1,1s.448,1,1,1h.77c-.037,3.242-.4,5.891-.588,7.061-.919,.172-2.723,.454-4.696,.454Z"/>
</svg>
