<?xml version="1.0" encoding="UTF-8"?>
<svg xmlns="http://www.w3.org/2000/svg" id="Layer_1" data-name="Layer 1" viewBox="0 0 24 24">
  <path d="M21.885,17.682c.671-1.55,.998-3.455,.998-5.788C22.883,2.238,17.066,1,12,1S1.118,2.238,1.118,11.894c0,2.337,.326,4.244,.992,5.793-.666,.479-.992,1.004-.992,1.589,0,1.391,1.414,3.725,10.882,3.725s10.883-2.334,10.883-3.725c0-.578-.335-1.112-.998-1.594Zm-2.265,.68c.081,.264,.269,.483,.517,.604,.35,.171,.553,.311,.667,.403-.339,.389-1.963,1.631-8.804,1.631-6.92,0-8.494-1.251-8.81-1.622,.112-.092,.315-.233,.668-.406,.248-.121,.434-.34,.515-.604s.049-.55-.087-.789c-.775-1.36-1.168-3.273-1.168-5.686C3.118,4.513,6.668,3,12,3s8.883,1.513,8.883,8.894c0,2.405-.396,4.315-1.175,5.677-.137,.24-.169,.526-.088,.791Z"/>
  <path d="M12,4.957c-4.695,0-6.93,1.038-6.93,6.937s2.234,6.936,6.93,6.936,6.93-1.038,6.93-6.936-2.234-6.937-6.93-6.937Zm4.734,4.387l-2.35,.889-1.384-1.007v-2.255c2.292,.078,3.342,.518,3.734,2.372Zm-5.388,3.646l-.405-1.247,1.059-.771,1.06,.771-.405,1.247h-1.309Zm-.346-6.018v2.255l-1.386,1.009-2.348-.888c.392-1.856,1.441-2.297,3.735-2.375Zm-3.925,4.442l1.888,.714,.565,1.739-1.455,2.174c-.751-.675-1.003-1.91-1.003-4.148,0-.166,.002-.325,.004-.48Zm2.932,5.333l1.175-1.756h1.651l1.174,1.754c-.564,.065-1.227,.084-2.007,.084-.773,0-1.432-.019-1.993-.083Zm5.929-.713l-1.459-2.181,.561-1.728,1.887-.714c.003,.156,.005,.317,.005,.484,0,2.228-.25,3.462-.994,4.139Z"/>
</svg>
