<?xml version="1.0" encoding="UTF-8"?>
<svg xmlns="http://www.w3.org/2000/svg" id="Layer_1" data-name="Layer 1" viewBox="0 0 24 24">
  <path d="M22.909,10.367c-.095-1.625-.235-3.04-.417-4.208-.302-1.916-1.78-3.42-3.678-3.744-.655-.112-1.314-.168-1.961-.168-.553,0-1,.448-1,1s.447,1,1,1c.534,0,1.08,.047,1.624,.14,1.052,.179,1.871,1.016,2.038,2.082,.173,1.104,.306,2.455,.397,4.016,.037,.639,.06,1.259,.073,1.844-.787-.481-1.818-.719-3.098-.719-2.837,0-4.45,1.169-4.895,3.563-.312-.086-.638-.131-.971-.131h0c-.348,0-.688,.049-1.012,.143-.442-2.402-2.056-3.575-4.897-3.575-1.28,0-2.311,.238-3.098,.719,.013-.585,.036-1.205,.073-1.844,.091-1.568,.225-2.919,.397-4.015,.167-1.066,.986-1.903,2.038-2.082,.544-.093,1.09-.14,1.624-.14,.552,0,1-.448,1-1s-.448-1-1-1c-.646,0-1.306,.057-1.96,.168-1.899,.324-3.377,1.829-3.677,3.744-.182,1.159-.323,2.575-.418,4.208-.192,3.281-.024,6.013-.002,6.352,.012,3.388,1.655,5.035,5.023,5.035,3.163,0,4.805-1.453,5.003-4.437,.267-.18,.58-.277,.907-.277h0c.309,0,.605,.086,.862,.247,.189,3.004,1.831,4.467,5.005,4.467,3.37,0,5.012-1.649,5.022-5.042,.025-.369,.19-3.086-.002-6.345ZM6.112,19.753c-2.005,0-3.023-.475-3.023-3.073,0-2.583,1.062-3.073,3.023-3.073,2.005,0,3.023,.475,3.023,3.073,0,2.583-1.062,3.073-3.023,3.073Zm11.777,0c-1.961,0-3.023-.49-3.023-3.073,0-2.598,1.019-3.073,3.023-3.073,1.96,0,3.022,.49,3.022,3.073,0,2.598-1.018,3.073-3.022,3.073Z"/>
</svg>
