<?xml version="1.0" encoding="UTF-8"?>
<svg xmlns="http://www.w3.org/2000/svg" id="Layer_1" data-name="Layer 1" viewBox="0 0 24 24">
  <path d="M21.744,8.618h-.616c-.553,0-1,.448-1,1s.447,1,1,1h.616c.553,0,1-.448,1-1s-.447-1-1-1Z"/>
  <path d="M19.954,6.955c.256,0,.513-.098,.707-.293l.436-.436c.391-.391,.391-1.024,0-1.414-.391-.39-1.023-.391-1.414,0l-.436,.436c-.391,.391-.391,1.024,0,1.414,.195,.195,.451,.292,.707,.292Z"/>
  <path d="M20.661,12.574c-.391-.391-1.023-.391-1.414,0s-.391,1.023,0,1.414l.436,.436c.195,.195,.451,.293,.707,.293s.512-.098,.707-.293c.391-.391,.391-1.023,0-1.414l-.436-.436Z"/>
  <path d="M15.942,1.018c-.325-.023-.685,.162-.881,.447-.099,.137-2.124,2.872-4.926,2.57-2.882-.316-4.943,.035-6.164,.383-1.448,.413-2.507,1.717-2.636,3.245-.051,.608-.079,1.1-.079,1.955s.028,1.346,.079,1.954c.082,.976,.545,1.86,1.245,2.48,.552,2.44,1.576,5.229,2.647,7.195,.59,1.082,1.67,1.754,2.822,1.754h.003c.679,0,1.289-.22,1.814-.651,.89-.732,1.299-1.939,1.066-3.151-.233-1.213-.624-2.588-1.124-3.965,.109-.01,.218-.021,.327-.033,2.833-.324,4.875,2.498,4.88,2.499,.174,.331,.516,.537,.887,.537,.017,0,.032,0,.049,0,.391-.02,.733-.264,.879-.626,.046-.114,1.129-2.865,1.129-7.99s-1.083-7.876-1.129-7.991c-.146-.362-.497-.59-.888-.609Zm-7.346,19.786c-.165,.135-.333,.196-.546,.196h-.001c-.406,0-.834-.286-1.066-.711-.787-1.444-1.548-3.377-2.085-5.249,.871,.174,1.814,.268,2.807,.281,.571,1.475,1.016,2.969,1.263,4.254,.091,.477-.058,.97-.372,1.229Zm6.827-5.584c-1.06-.956-2.728-2.044-4.833-2.044-.219,0-.444,.012-.672,.037-2.557,.281-4.347-.018-5.398-.317-.653-.187-1.132-.786-1.191-1.49-.048-.567-.072-.999-.072-1.786s.024-1.22,.072-1.787c.059-.705,.538-1.303,1.191-1.49,1.05-.3,2.838-.6,5.398-.318,2.43,.263,4.335-.952,5.505-2.008,.26,1.22,.536,3.104,.536,5.602s-.276,4.382-.536,5.602Z"/>
</svg>
