<?xml version="1.0" encoding="UTF-8"?>
<svg xmlns="http://www.w3.org/2000/svg" id="Layer_1" data-name="Layer 1" viewBox="0 0 24 24">
  <path d="M12,1C6.878,1,1,2.25,1,12s5.878,11,11,11,11-1.25,11-11S17.122,1,12,1Zm-.035,12.09c1.369,.614,2.98,1.164,4.642,1.164,1.465,0,2.97-.428,4.384-1.616-.018,.608-.061,1.173-.13,1.699-3.272,3.155-8.431,3.342-11.958,.544,.744-.67,1.757-1.255,3.062-1.791Zm8.918-3.254c-1.165,1.559-2.499,2.347-4.157,2.39,.877-1.357,1.348-2.939,1.348-4.594,0-1.328-.304-2.61-.878-3.766,1.988,.916,3.301,2.696,3.686,5.969ZM14.237,3.111c1.185,1.218,1.837,2.82,1.837,4.522,0,1.584-.564,3.082-1.598,4.264-.472-.138-.966-.318-1.485-.541-.085-2.956-.836-6.5-4.755-7.981,1.116-.275,2.381-.375,3.764-.375,.786,0,1.533,.032,2.237,.111Zm-8.833,1.648c1.547,.175,2.731,.585,3.603,1.292-1.939,.467-3.691,1.513-5.049,3.038-.325,.365-.619,.75-.883,1.15,.242-2.656,1.059-4.382,2.329-5.481Zm-1.921,11.287c-.118-2.068,.581-4.066,1.97-5.627,1.278-1.437,2.995-2.341,4.879-2.58,.399,.924,.608,2.076,.657,3.492-2.827,1.196-5.974,3.3-5.656,7.849-.826-.74-1.455-1.756-1.85-3.134Zm8.517,4.955c-1.679,0-3.183-.148-4.46-.576-.364-1.571-.328-2.856,.163-3.942,2.009,1.578,4.446,2.365,6.88,2.365,1.862,0,3.721-.461,5.383-1.381-1.437,2.823-4.282,3.535-7.966,3.535Z"/>
</svg>
