<?xml version="1.0" encoding="UTF-8"?>
<svg xmlns="http://www.w3.org/2000/svg" id="Layer_1" data-name="Layer 1" viewBox="0 0 24 24">
  <path d="M16.307,11.218c-1.178-2.632-3.748-3.951-3.856-4.005-.283-.143-.617-.143-.9,0-.109,.055-2.68,1.373-3.857,4.005-.225,.504,0,1.096,.505,1.321,.505,.224,1.095,0,1.321-.505,.624-1.395,1.826-2.333,2.48-2.764,.654,.433,1.859,1.374,2.481,2.764,.166,.372,.531,.592,.914,.592,.136,0,.274-.028,.407-.088,.504-.225,.73-.817,.505-1.321Z"/>
  <path d="M12.55,11.539c-.333-.22-.766-.22-1.099,0-.083,.055-2.056,1.373-3.208,3.948-.225,.504,0,1.096,.505,1.321,.133,.059,.271,.087,.408,.087,.382,0,.747-.221,.914-.592,.565-1.265,1.39-2.155,1.931-2.646,.542,.492,1.365,1.381,1.93,2.646,.225,.502,.812,.729,1.321,.505,.504-.226,.73-.817,.505-1.321-1.151-2.575-3.124-3.893-3.207-3.948Z"/>
</svg>
