<?xml version="1.0" encoding="UTF-8"?>
<svg xmlns="http://www.w3.org/2000/svg" id="Layer_1" data-name="Layer 1" viewBox="0 0 24 24">
  <path d="M23,5.124c0-1.947-1.676-3.692-3.659-3.811-1.73-.104-4.409-.227-7.341-.227s-5.61,.123-7.341,.227c-1.983,.119-3.659,1.864-3.659,3.811,0,1.516,.771,2.463,1.508,2.97-.22,1.309-.432,3.091-.432,5.095,0,4.5,1.029,7.815,1.072,7.955,.101,.318,.353,.564,.672,.659,.154,.045,3.833,1.112,8.18,1.112s8.025-1.066,8.18-1.112c.319-.094,.571-.341,.672-.659,.043-.139,1.072-3.455,1.072-7.955,0-2.004-.212-3.787-.432-5.095,.737-.507,1.508-1.454,1.508-2.97Zm-2.899,1.458c-.499,.143-.805,.643-.706,1.152,.241,1.244,.529,3.2,.529,5.456,0,3.185-.564,5.771-.837,6.833-1.136,.282-3.957,.892-7.087,.892s-5.951-.61-7.087-.892c-.272-1.062-.837-3.648-.837-6.833,0-2.255,.288-4.211,.529-5.456,.099-.509-.207-1.009-.706-1.152-.009-.002-.899-.271-.899-1.458,0-.878,.864-1.76,1.778-1.814,1.703-.102,4.339-.223,7.222-.223s5.519,.121,7.222,.223c.914,.055,1.778,.937,1.778,1.814,0,1.106-.764,1.413-.899,1.458Z"/>
  <g>
    <circle cx="12.04" cy="17.006" r="1"/>
    <circle cx="16.08" cy="12.966" r="1"/>
    <circle cx="16.08" cy="17.006" r="1"/>
  </g>
</svg>
