<?xml version="1.0" encoding="UTF-8"?>
<svg xmlns="http://www.w3.org/2000/svg" id="Layer_1" data-name="Layer 1" viewBox="0 0 24 24">
  <path d="M22.735,9.032c-.225-.243-.556-.36-.879-.312-.358,.052-.751,.08-1.201,.085-2.598,.031-4.139-.629-4.179-4.086-.008-.661,.045-1.247,.158-1.742,.072-.321-.018-.658-.241-.9-.224-.242-.555-.358-.878-.311-1.966,.285-3.27,1.167-3.986,2.696-.234,.5-.019,1.096,.481,1.33,.5,.233,1.097,.019,1.33-.481,.249-.532,.617-.918,1.145-1.183-.009,.2-.011,.405-.009,.615,.061,5.331,3.359,6.052,5.96,6.064-.147,.185-.319,.343-.518,.477-.458,.31-.578,.931-.269,1.389,.193,.286,.508,.44,.829,.44,.192,0,.388-.056,.559-.171,.981-.663,1.633-1.675,1.937-3.008,.073-.321-.017-.658-.239-.9Z"/>
  <path d="M18.86,14.707c-.19-2.579-2.351-4.62-4.979-4.62-2.753,0-4.993,2.239-4.993,4.99,0,.076,.002,.151,.005,.226-1.363,.511-2.324,1.826-2.324,3.356,0,1.976,1.608,3.583,3.584,3.583h7.119c2.171,0,3.937-1.765,3.937-3.935,0-1.578-.95-2.982-2.35-3.601Zm-1.587,5.536h-7.119c-.874,0-1.584-.71-1.584-1.583,0-.842,.658-1.537,1.499-1.581,.3-.016,.576-.165,.753-.407,.178-.242,.237-.55,.162-.841-.063-.246-.095-.499-.095-.753,0-1.649,1.342-2.99,2.993-2.99s2.992,1.341,2.992,2.99c0,.091-.005,.182-.012,.271-.043,.506,.301,.963,.798,1.063,.897,.182,1.55,.979,1.55,1.896,0,1.067-.869,1.935-1.937,1.935Z"/>
  <path d="M8.312,8.231c.798,0,1.548,.31,2.113,.873,.391,.389,1.024,.388,1.415-.002,.39-.391,.389-1.024-.002-1.415-.942-.939-2.194-1.456-3.525-1.456-2.753,0-4.993,2.239-4.993,4.99,0,.076,.001,.151,.005,.226-1.363,.511-2.324,1.826-2.324,3.356,0,1.976,1.608,3.583,3.584,3.583,.552,0,1-.448,1-1s-.448-1-1-1c-.874,0-1.584-.71-1.584-1.583,0-.842,.658-1.537,1.499-1.581,.3-.016,.576-.165,.753-.407,.178-.242,.237-.55,.162-.841-.063-.246-.095-.499-.095-.753,0-1.649,1.342-2.99,2.993-2.99Z"/>
</svg>
