<?xml version="1.0" encoding="UTF-8"?>
<svg xmlns="http://www.w3.org/2000/svg" id="Layer_1" data-name="Layer 1" viewBox="0 0 24 24">
  <path d="M21.728,9.963c-.148-.272-.415-.461-.722-.509-.079-.012-.991-.155-2.424-.304-.19-1.543-.407-2.496-.417-2.541-.075-.327-.31-.595-.624-.712-.104-.039-2.598-.96-5.541-.96-1.518,0-2.919,.246-3.933,.489l.15-.867,.615-.182c1.57-.463,3.244-.52,4.843-.167,.54,.124,1.073-.22,1.193-.759,.119-.54-.221-1.073-.76-1.193-1.928-.427-3.948-.358-5.843,.201l-1.211,.357c-.365,.107-.638,.414-.702,.789,0,0-.756,4.103-.934,5.545-1.432,.149-2.345,.291-2.424,.303-.309,.049-.577,.239-.726,.514-.052,.096-1.27,2.393-1.27,5.44,0,3.073,1.221,5.349,1.272,5.444,.148,.272,.415,.461,.722,.509,.17,.027,4.217,.658,9.006,.658s8.835-.631,9.005-.658c.309-.049,.577-.239,.726-.514,.052-.096,1.27-2.393,1.27-5.44,0-3.073-1.221-5.349-1.272-5.445ZM7.676,7.603c.814-.244,2.491-.666,4.324-.666s3.513,.422,4.325,.666c.06,.328,.139,.793,.217,1.367-1.342-.099-2.898-.173-4.542-.173s-3.198,.074-4.541,.173c.078-.573,.156-1.039,.217-1.367Zm4.324,3.193c3.656,0,6.939,.392,8.174,.559,.244,.573,.637,1.671,.776,3.053H3.052c.141-1.366,.535-2.474,.778-3.053,1.24-.167,4.525-.559,8.17-.559Zm0,9.223c-3.653,0-6.935-.391-8.172-.559-.243-.577-.637-1.68-.777-3.053H20.948c-.141,1.366-.535,2.473-.778,3.053-1.24,.167-4.525,.559-8.17,.559Z"/>
</svg>
