<?xml version="1.0" encoding="UTF-8"?>
<svg xmlns="http://www.w3.org/2000/svg" id="Layer_1" data-name="Layer 1" viewBox="0 0 24 24">
  <g>
    <path d="M9,18.291c-2.396,0-3.525-1.192-3.533-3.516-.004-1.171,.286-2.033,.888-2.634,.585-.585,1.464-.87,2.603-.87,2.315,0,3.493,1.191,3.501,3.516h0c.004,1.17-.286,2.032-.888,2.634-.775,.775-1.832,.871-2.571,.871Zm-1.533-3.523c0,1.298,.381,1.523,1.509,1.523,1.346,0,1.483-.453,1.483-1.498,0-1.298-.346-1.523-1.509-1.523-.976,0-1.483,.131-1.483,1.498Z"/>
    <path d="M8.948,22.768c-3.412,0-7.948-.828-7.948-7.987s4.536-7.988,7.948-7.988h12.437c.244,0,.479,.089,.663,.251,.158,.141,.952,.947,.952,3.004,0,1.88-.914,2.529-1.097,2.64-.028,.026-2.289,1.701-5.031,2.965-.354,6.36-4.664,7.114-7.924,7.114Zm0-13.975c-3.672,0-5.948,1.001-5.948,5.988s2.276,5.987,5.948,5.987c3.624,0,5.883-.968,5.946-5.787,.005-.396,.243-.751,.607-.906,2.733-1.168,5.19-2.973,5.283-3.042,.04-.05,.215-.311,.215-.985,0-.614-.093-1.015-.18-1.255H8.948Zm11.829,2.25h0Z"/>
  </g>
  <path d="M12.335,5.49c-.552,0-1-.448-1-1V2.232c0-.552,.448-1,1-1s1,.448,1,1v2.258c0,.552-.448,1-1,1Z"/>
  <g>
    <path d="M16.175,5.49c-.553,0-1-.448-1-1,0-1.457,1.182-2.642,2.634-2.642,.553,0,1,.448,1,1s-.447,1-1,1c-.35,0-.634,.288-.634,.642,0,.552-.447,1-1,1Z"/>
    <path d="M8.496,5.49c-.552,0-1-.448-1-1,0-.354-.284-.642-.633-.642-.552,0-1-.448-1-1s.448-1,1-1c1.452,0,2.633,1.185,2.633,2.642,0,.552-.448,1-1,1Z"/>
  </g>
</svg>
