<?xml version="1.0" encoding="UTF-8"?>
<svg xmlns="http://www.w3.org/2000/svg" id="Layer_1" data-name="Layer 1" viewBox="0 0 24 24">
  <path d="M12.346,9.955c-.223-.082-.469-.082-.691,0-.179,.066-1.777,.708-2.97,2.98-.257,.489-.068,1.094,.421,1.351,.49,.256,1.095,.067,1.351-.421,.176-.336,.361-.62,.544-.86v3.062c0,.552,.447,1,1,1s1-.448,1-1v-3.062c.183,.24,.352,.532,.544,.86,.453,.773,1.202,.499,1.351,.421,.489-.257,.678-.861,.421-1.351-1.192-2.272-2.791-2.914-2.97-2.98Z"/>
  <path d="M19.858,10.274c-.502-4.406-4.225-7.774-8.729-7.774C6.284,2.5,2.343,6.442,2.343,11.288c0,.918,.14,1.815,.415,2.677-1.091,.764-1.758,2.007-1.758,3.376,0,2.293,1.877,4.159,4.184,4.159h11.807c3.313,0,6.01-2.68,6.01-5.974,0-2.214-1.214-4.213-3.142-5.251Zm-2.868,9.225H5.184c-1.204,0-2.184-.969-2.184-2.159,0-.878,.537-1.657,1.368-1.985,.253-.1,.454-.298,.558-.55,.104-.252,.1-.535-.01-.784-.38-.863-.573-1.783-.573-2.734,0-3.742,3.045-6.787,6.787-6.787,3.638,0,6.615,2.844,6.779,6.474,.018,.389,.259,.731,.618,.88,1.502,.618,2.473,2.06,2.473,3.671,0,2.191-1.799,3.974-4.01,3.974Z"/>
</svg>
