<?xml version="1.0" encoding="UTF-8"?>
<svg xmlns="http://www.w3.org/2000/svg" id="Layer_1" data-name="Layer 1" viewBox="0 0 24 24">
  <path d="M16.002,15.526c-.985-.261-1.991-.424-3.003-.489l.002-6.076c1.011-.065,2.016-.227,3.001-.488,.529-.141,.848-.682,.712-1.213C15.692,3.246,12.559,1.167,12.527,1.148c-.276-.167-.681-.227-1.055,0-.031,.019-3.165,2.098-4.187,6.112-.136,.531,.183,1.073,.712,1.213,.985,.261,1.991,.424,3.003,.489l-.002,6.076c-1.011,.065-2.016,.227-3.001,.488-.529,.141-.848,.682-.712,1.213,1.021,4.014,4.155,6.093,4.187,6.112,.276,.167,.681,.227,1.055,0,.031-.019,3.165-2.098,4.187-6.112,.136-.531-.183-1.073-.712-1.213Z"/>
</svg>
