<?xml version="1.0" encoding="UTF-8"?>
<svg xmlns="http://www.w3.org/2000/svg" id="Layer_1" data-name="Layer 1" viewBox="0 0 24 24">
  <path d="M21.756,5.782c-.137-.293-.407-.502-.725-.561-.17-.031-4.229-.77-9.031-.77s-8.86,.738-9.031,.77c-.319,.059-.591,.269-.727,.564-.05,.11-1.242,2.732-1.242,6.214,0,3.512,1.193,6.109,1.244,6.218,.137,.293,.407,.502,.725,.561,.17,.031,4.229,.77,9.031,.77s8.86-.738,9.031-.77c.319-.059,.591-.269,.727-.564,.05-.11,1.242-2.732,1.242-6.214,0-3.512-1.193-6.109-1.244-6.218Zm-1.626,11.119c-1.248,.197-4.505,.647-8.13,.647s-6.886-.451-8.132-.647c-.304-.827-.868-2.664-.868-4.901,0-2.221,.566-4.068,.87-4.901,1.248-.197,4.505-.647,8.13-.647s6.886,.451,8.132,.647c.304,.827,.868,2.664,.868,4.901,0,2.221-.566,4.068-.87,4.901Z"/>
</svg>
