<?xml version="1.0" encoding="UTF-8"?>
<svg xmlns="http://www.w3.org/2000/svg" id="Layer_1" data-name="Layer 1" viewBox="0 0 24 24">
  <path d="M22.983,9.564c-.139-1.807-1.109-3.553-3.053-5.496-2.562-2.56-6.587-5.348-11.938,0-2.217,2.216-3.216,4.322-3.053,6.438,.121,1.579,.878,3.112,2.364,4.77L1.293,21.283c-.391,.391-.391,1.024,0,1.415,.195,.195,.452,.293,.708,.293s.512-.098,.707-.292l6.01-6.007c1.388,1.246,3.125,2.364,5.197,2.364,1.766,0,3.775-.813,6.016-3.053,2.217-2.216,3.215-4.321,3.053-6.438Zm-4.467,5.023c-3.793,3.792-6.298,2.811-9.11,0-1.587-1.585-2.373-2.931-2.473-4.234-.116-1.499,.693-3.092,2.473-4.87,1.758-1.757,3.239-2.489,4.603-2.489,1.575,0,2.994,.977,4.499,2.481,.003,.003,.005,.006,.008,.008,.458,.457,.981,1.256,.249,2.917-.481,1.091-1.434,2.365-2.754,3.684-1.724,1.723-1.761,1.72-3.79-.309-.74-.739-1.532-1.564-1.575-2.01-.041-.419,.703-1.215,1.266-1.778,1.543-1.541,1.734-1.702,3.207-.27-.291,.344-.751,.771-1.408,1.049-.509,.215-.747,.802-.531,1.311,.214,.509,.8,.747,1.311,.531,1.962-.83,2.787-2.517,2.821-2.588,.183-.382,.105-.839-.195-1.139-2.408-2.407-3.762-3.164-6.618-.309-1.222,1.221-1.956,2.213-1.843,3.385,.107,1.111,.959,2.041,2.152,3.232,1.324,1.323,2.329,2.148,3.44,2.148,.91,0,1.892-.554,3.178-1.839,1.515-1.514,2.581-2.958,3.169-4.292,.071-.162,.135-.32,.191-.474,.112,.333,.179,.66,.204,.985,.115,1.499-.693,3.092-2.473,4.87Z"/>
</svg>
