<?xml version="1.0" encoding="UTF-8"?>
<svg xmlns="http://www.w3.org/2000/svg" id="Layer_1" data-name="Layer 1" viewBox="0 0 24 24">
  <g>
    <path d="M15.01,22.994c.543,.061,1.042-.336,1.103-.886,.046-.422,.113-.823,.196-1.205h3.023c.083,.381,.155,.782,.196,1.205,.053,.558,.578,.943,1.103,.886,.549-.06,.946-.554,.886-1.103-.48-4.394-2.871-6.938-2.973-7.043-.189-.197-.45-.309-.723-.309s-.534,.111-.722,.309c-.102,.106-2.494,2.649-2.974,7.043-.06,.549,.336,1.042,.886,1.103Zm2.81-5.787c.276,.432,.593,1.002,.883,1.696h-1.766c.29-.694,.607-1.264,.883-1.696Z"/>
    <path d="M11.131,17.326c-.491-.252-1.094-.059-1.347,.432-.558,1.085-1.175,1.836-1.708,2.345V1.999c0-.552-.448-1-1-1s-1,.448-1,1V20.103c-.534-.509-1.15-1.261-1.708-2.345-.252-.49-.855-.685-1.347-.432-.491,.252-.685,.855-.432,1.347,1.708,3.32,4.036,4.227,4.135,4.263,.26,.095,.518,.078,.703,0,.097-.041,2.427-.943,4.135-4.263,.253-.491,.06-1.094-.432-1.347Z"/>
  </g>
  <path d="M21.043,1.879c-.134-.09-1.365-.879-3.223-.879-1.64,0-2.873,.787-3.008,.877-.458,.304-.583,.919-.281,1.379,.301,.461,.921,.59,1.382,.291,.008-.005,.859-.546,1.907-.546,.11,0,.218,.004,.321,.012-.538,.396-1.121,.88-1.648,1.437-1.662,1.75-2.181,2.748-2.235,2.856-.224,.449-.08,.994,.335,1.274,.133,.09,1.358,.881,3.227,.881,1.712,0,2.9-.801,3.03-.892,.449-.316,.556-.932,.244-1.384s-.932-.564-1.388-.257c-.008,.005-.797,.533-1.886,.533-.445,0-.838-.067-1.16-.153,.294-.381,.71-.878,1.283-1.481,1.263-1.33,2.98-2.215,2.998-2.224,.315-.162,.523-.478,.543-.832,.021-.354-.146-.692-.441-.89Z"/>
</svg>
