<?xml version="1.0" encoding="UTF-8"?>
<svg xmlns="http://www.w3.org/2000/svg" id="Layer_1" data-name="Layer 1" viewBox="0 0 24 24">
  <path d="M20.327,2.62c-.22-.521-.656-.938-1.333-1.272-1.969-.974-2.965,.307-3.385,1.155-.39,.788-.455,1.501-.194,2.119,.221,.521,.656,.938,1.332,1.271,.501,.247,.939,.35,1.321,.35,1.117,0,1.751-.872,2.064-1.505,.39-.787,.455-1.5,.194-2.118Z"/>
  <path d="M17.266,7.049l-3.127-1.545c-.191-.094-.402-.122-.603-.09-.039,.005-.081,.015-.127,.028l-.98,.32c-1.261,.396-2.619,.224-3.73-.474-.467-.292-1.085-.151-1.379,.316-.293,.468-.151,1.085,.316,1.379,1.016,.636,2.173,.969,3.349,.985-.775,1.092-1.4,2.289-1.85,3.554-.014,.036-.026,.074-.035,.113-.068,.273-.017,.573,.14,.808,.056,.084,.124,.158,.202,.222,2.383,1.935,3.478,5.004,2.843,8.094l-.026,.218-.785-.007h-.009c-.548,0-.995,.442-1,.991-.005,.552,.438,1.004,.991,1.009l3.323,.029h.021c1.303,0,2.368-1.054,2.38-2.359,.005-.552-.438-1.004-.991-1.009h-.009c-.548,0-.995,.441-1,.991-.002,.209-.172,.377-.38,.377h-.004l-.523-.005c.428-2.164,.144-4.35-.75-6.271,.281-.332,.543-.683,.778-1.047,0,0,3.407-5.27,3.416-5.289,.245-.495,.042-1.096-.453-1.34Zm-4.642,5.541c-.066,.101-.134,.201-.204,.3-.348-.461-.738-.895-1.168-1.298,.614-1.48,1.512-2.838,2.632-3.982l1.488,.735-2.748,4.245Z"/>
  <path d="M7.409,19.175c-.156,.079-.338,.039-.45-.081l3.673-2.004c.163-.089,.323-.182,.48-.28-.208-.642-.506-1.255-.89-1.818-.18,.118-.365,.229-.555,.333l-3.624,1.977-.635-1.266c-.247-.493-.848-.692-1.342-.445-.493,.247-.693,.848-.445,1.342l1.488,2.971c.417,.83,1.26,1.312,2.133,1.312,.357,0,.72-.081,1.061-.251,.494-.247,.694-.848,.447-1.342-.248-.494-.847-.692-1.342-.447Z"/>
</svg>
