<?xml version="1.0" encoding="UTF-8"?>
<svg xmlns="http://www.w3.org/2000/svg" id="Layer_1" data-name="Layer 1" viewBox="0 0 24 24">
  <path d="M22.954,9.28c-.137-2.566-1.786-4.607-4.034-5.218,.247-.958-.003-2.02-.752-2.768-.391-.391-1.024-.39-1.415,0-.391,.391-.391,1.024,0,1.415,.332,.332,.345,.862,.042,1.211-2.678,.346-4.755,2.642-4.755,5.415,0,.305,.004,.616,.009,.926,.024,1.667,.052,3.557-.781,3.772-.978,.252-2.562-1.057-3.719-2.014-1.285-1.064-2.301-1.904-3.355-1.738-1.077,.168-2.124,1.17-1.832,3.475,.499,3.941,4.397,9.246,10.266,9.246,.313,0,.633-.015,.958-.046,6.291-.607,9.793-5.719,9.369-13.673Zm-5.456-3.407c1.272,0,2.368,.703,2.971,1.786-.837,.722-1.892,1.116-3.008,1.116-1.11,0-2.16-.389-2.994-1.104,.589-1.071,1.727-1.798,3.032-1.798Zm-4.105,15.089c-5.094,.503-7.949-3.841-8.746-6.201-.545-1.615-.288-2.427-.208-2.504,.321,.047,1.232,.801,1.834,1.3,1.571,1.3,3.523,2.921,5.495,2.41,2.357-.608,2.314-3.453,2.281-5.738-.002-.135-.004-.269-.005-.403,1.021,.618,2.193,.948,3.417,.948,1.262,0,2.471-.352,3.514-1.008,.149,4.066-.717,10.533-7.581,11.195Z"/>
  <path d="M8.379,7.771c.114,0,.242,.113,.245,.258,.001,.094-.055,.218-.136,.301-.053,.055-.098,.072-.108,.072-.552,.005-.996,.457-.991,1.009,.005,.549,.452,.991,1,.991h.009c.56-.005,1.1-.244,1.52-.673,.456-.466,.714-1.095,.706-1.728-.019-1.218-1.018-2.218-2.258-2.248-.012-.012-.038-.046-.035-.103,.008-.148,.1-.261,.063-.267,.552-.003,.998-.453,.995-1.005-.003-.55-.45-.995-1-.995h-.005c-1.069,.006-1.989,.977-2.05,2.167-.028,.583,.183,1.158,.579,1.577,.388,.411,.91,.64,1.467,.644Z"/>
  <path d="M3.062,7.138c-.552,.005-.996,.457-.991,1.009,.005,.549,.452,.991,1,.991h.009c.56-.005,1.1-.244,1.52-.673,.457-.466,.714-1.095,.706-1.727-.019-1.218-1.018-2.219-2.258-2.248-.012-.012-.038-.046-.035-.103,.008-.148,.1-.261,.063-.267,.552-.003,.998-.453,.995-1.005-.003-.55-.45-.995-1-.995h-.005c-1.069,.006-1.989,.977-2.05,2.167-.028,.583,.183,1.157,.579,1.576,.388,.411,.91,.64,1.467,.644,.114,0,.242,.113,.245,.258,.001,.094-.055,.217-.135,.3-.054,.055-.099,.072-.109,.072Z"/>
</svg>
