<?xml version="1.0" encoding="UTF-8"?>
<svg xmlns="http://www.w3.org/2000/svg" id="Layer_1" data-name="Layer 1" viewBox="0 0 24 24">
  <path d="M22.796,8.148c-.347-.456-2.175-2.731-4.115-2.731-.61,0-1.215,.216-1.802,.642-.17-.09-.348-.17-.531-.238,.243-.277,.472-.567,.672-.841,.333-.455,.214-1.095-.264-1.396-.44-.277-1.017-.157-1.312,.271-.446,.645-1.178,1.483-1.943,1.483-.159,.019-3.071,.021-3.241,0-.766,0-1.498-.838-1.943-1.483-.296-.428-.872-.548-1.312-.271-.478,.3-.597,.94-.264,1.396,.216,.295,.465,.609,.729,.906-.126,.053-.249,.111-.368,.174-.587-.427-1.191-.643-1.801-.643-1.945,0-3.756,2.279-4.099,2.736-.268,.355-.268,.846,0,1.202,.319,.424,1.901,2.416,3.682,2.701,.303,2.814,1.13,4.793,1.847,6.037,.701,1.215,1.834,2.07,3.11,2.345,.241,.052,1.196,.078,2.15,.078s1.91-.026,2.151-.078h0c1.274-.274,2.407-1.129,3.108-2.344,.717-1.243,1.545-3.221,1.848-6.037,1.779-.284,3.376-2.273,3.698-2.696,.272-.358,.272-.853,0-1.211Zm-10.106,6.363c-.452-.006-.948-.006-1.4,0,.273-2.701-1.043-5.335-3.304-6.648,.28-.157,.583-.263,.884-.309,.636-.097,2.386-.184,3.069-.184,.661,0,2.504,.082,3.172,.184,.301,.046,.604,.152,.884,.309-2.261,1.313-3.576,3.947-3.304,6.648Zm-4.92,1.135c-.545-1.386-1.008-3.314-1.008-5.87,0-.099,.008-.196,.022-.291,.38,.194,.725,.441,1.031,.73-.264,.18-.438,.483-.438,.827,0,.552,.448,1,1,1h.636c.312,.841,.402,1.782,.221,2.719-.532,.197-1.027,.497-1.464,.885ZM3.31,8.753c.625-.666,1.451-1.336,1.99-1.336,.065,0,.136,.013,.211,.037-.473,.675-.748,1.477-.748,2.322,0,.053,0,.105,.001,.158-.47-.237-1.013-.71-1.454-1.18Zm10.435,9.723c-.447,.048-3.132,.048-3.485,.005-.577-.124-1.11-.472-1.514-.975,.396-.496,.923-.84,1.472-.96,.397-.051,3.147-.051,3.505-.007,.578,.124,1.108,.466,1.51,.968-.399,.495-.922,.84-1.488,.968Zm2.466-2.834c-.435-.384-.931-.684-1.465-.882-.182-.937-.091-1.877,.22-2.719h.636c.553,0,1-.448,1-1,0-.344-.173-.647-.438-.827,.305-.289,.65-.536,1.031-.73,.014,.095,.022,.192,.022,.291,0,2.555-.462,4.482-1.007,5.867Zm3.006-5.711c0-.052,.001-.103,.001-.156,0-.845-.275-1.647-.748-2.321,.075-.024,.146-.037,.211-.037,.539,0,1.372,.671,2.004,1.336-.452,.475-1,.942-1.468,1.178Z"/>
</svg>
