<?xml version="1.0" encoding="UTF-8"?>
<svg xmlns="http://www.w3.org/2000/svg" id="Layer_1" data-name="Layer 1" viewBox="0 0 24 24">
  <path d="M20.271,8.65c-1.245,0-2.728,.515-2.728,2.965s1.483,2.966,2.728,2.966,2.729-.515,2.729-2.966-1.484-2.965-2.729-2.965Zm0,3.931c-.53,0-.728,0-.728-.966s.198-.965,.728-.965,.729,0,.729,.965-.198,.966-.729,.966Z"/>
  <path d="M3.729,8.65c-1.245,0-2.729,.515-2.729,2.965s1.484,2.966,2.729,2.966,2.728-.515,2.728-2.966-1.483-2.965-2.728-2.965Zm0,3.931c-.53,0-.729,0-.729-.966s.198-.965,.729-.965,.728,0,.728,.965-.198,.966-.728,.966Z"/>
  <path d="M15.24,9.681c1.245,0,2.729-.515,2.729-2.965s-1.484-2.966-2.729-2.966-2.728,.515-2.728,2.966,1.483,2.965,2.728,2.965Zm0-3.931c.53,0,.729,0,.729,.966s-.198,.965-.729,.965-.728,0-.728-.965,.198-.966,.728-.966Z"/>
  <path d="M8.76,9.681c1.245,0,2.728-.515,2.728-2.965s-1.483-2.966-2.728-2.966-2.729,.515-2.729,2.966,1.484,2.965,2.729,2.965Zm0-3.931c.53,0,.728,0,.728,.966s-.198,.965-.728,.965-.729,0-.729-.965,.198-.966,.729-.966Z"/>
  <path d="M12,10.232c-3.506,0-5.862,2.777-5.862,6.91,0,1.389,.354,2.297,1.084,2.777,1.077,.709,2.43,.125,3.516-.344,.431-.187,1.022-.441,1.262-.441s.838,.239,1.262,.441c2.312,1.106,3.155,.581,3.516,.344,.729-.479,1.084-1.388,1.084-2.777,0-4.133-2.356-6.91-5.862-6.91Zm3.689,8.01c-.254,.09-1.187-.31-1.634-.503-.721-.311-1.402-.605-2.055-.605s-1.334,.294-2.055,.605c-.448,.193-1.383,.596-1.617,.514-.002-.001-.19-.211-.19-1.111,0-3.028,1.48-4.91,3.862-4.91s3.862,1.881,3.862,4.91c0,.878-.179,1.099-.173,1.1Z"/>
</svg>
