<?xml version="1.0" encoding="UTF-8"?>
<svg xmlns="http://www.w3.org/2000/svg" id="Layer_1" data-name="Layer 1" viewBox="0 0 24 24">
  <g>
    <path d="M5.791,17.652c-2.322-1.898-3.311-4.987-2.521-7.871,.822-3,3.318-5.096,6.246-5.501-.561,.81-1.008,1.832-1.349,3.079-.372,1.356-.499,2.522-.39,3.564,.058,.55,.551,.945,1.099,.89,.549-.058,.948-.55,.89-1.099-.082-.779,.029-1.73,.329-2.827,.532-1.942,1.315-3.134,2.394-3.643,.394-.186,.622-.606,.563-1.038-.058-.432-.389-.776-.818-.851C7.332,1.494,2.654,4.465,1.342,9.253c-1,3.645,.25,7.55,3.184,9.948,.186,.152,.41,.226,.632,.226,.29,0,.577-.125,.775-.367,.349-.427,.286-1.058-.142-1.407Z"/>
    <path d="M11.985,19.011c-.552,0-1,.448-1,1v.782c0,.552,.448,1,1,1s1-.448,1-1v-.782c0-.552-.448-1-1-1Z"/>
    <path d="M15.262,19.011c-.553,0-1,.448-1,1v.782c0,.552,.447,1,1,1s1-.448,1-1v-.782c0-.552-.447-1-1-1Z"/>
    <path d="M18.538,19.011c-.553,0-1,.448-1,1v.782c0,.552,.447,1,1,1s1-.448,1-1v-.782c0-.552-.447-1-1-1Z"/>
    <path d="M20.497,13.442c-.181-2.735-2.464-4.905-5.244-4.905-2.898,0-5.256,2.357-5.256,5.255,0,.096,.002,.191,.008,.287-1.452,.523-2.479,1.913-2.479,3.533,0,.779,.237,1.527,.687,2.163,.195,.276,.504,.423,.818,.423,.199,0,.401-.06,.576-.183,.451-.319,.559-.942,.24-1.394-.209-.297-.32-.646-.32-1.01,0-.933,.729-1.703,1.661-1.752,.299-.016,.576-.166,.753-.408s.237-.551,.162-.841c-.069-.266-.104-.542-.104-.818,0-1.795,1.461-3.255,3.256-3.255s3.256,1.46,3.256,3.255c0,.099-.005,.195-.013,.292-.044,.506,.3,.965,.798,1.066,.987,.2,1.704,1.078,1.704,2.087,0,.412-.118,.812-.342,1.157-.301,.463-.168,1.083,.295,1.383,.464,.3,1.083,.168,1.383-.295,.435-.67,.664-1.446,.664-2.245,0-1.67-1.013-3.155-2.501-3.795Z"/>
  </g>
  <g>
    <circle cx="17.699" cy="4.01" r="1"/>
    <circle cx="19.103" cy="7.324" r="1"/>
    <circle cx="14.398" cy="5.758" r="1"/>
  </g>
</svg>
