<?xml version="1.0" encoding="UTF-8"?>
<svg xmlns="http://www.w3.org/2000/svg" id="Layer_1" data-name="Layer 1" viewBox="0 0 24 24">
  <path d="M18.2,21.045c-.163-1.146-.596-2.11-.714-2.355l-.161-.426c-.736-1.961-1.233-4.013-1.476-6.098l-.378-3.246c.439-.105,.765-.5,.765-.972,0-.553-.448-1-1-1h-.043c.638-1.28,.401-2.923-.728-4.372-.171-.22-.36-.452-.547-.675-.951-1.143-2.882-1.145-3.835-.002-.188,.225-.377,.457-.548,.677-1.129,1.449-1.367,3.092-.728,4.372h-.043c-.552,0-1,.447-1,1,0,.472,.326,.867,.765,.972l-.378,3.246c-.243,2.085-.74,4.137-1.476,6.097l-.16,.426c-.113,.238-.549,1.21-.714,2.357-.408,.126-.705,.506-.705,.956,0,.553,.448,1,1,1h11.808c.552,0,1-.447,1-1,0-.45-.296-.829-.704-.955ZM11.114,3.804c.157-.202,.33-.415,.502-.622,0,0,0,0,.002-.002,.13-.156,.295-.18,.382-.18s.251,.023,.384,.182c.173,.207,.346,.42,.503,.622,.617,.793,1.027,1.976,.151,2.702-.582,.482-1.493,.482-2.075,0-.876-.727-.466-1.909,.151-2.702Zm-.574,5.144h2.921l.402,3.45c.215,1.841,.614,3.659,1.188,5.419-2.176-.305-3.925-.305-6.101,0,.574-1.76,.973-3.578,1.188-5.419l.402-3.45Zm-2.397,11.021c2.915-.507,4.802-.508,7.716,0,.101,.264,.222,.628,.305,1.03H7.837c.083-.401,.204-.766,.305-1.031Z"/>
</svg>
