<?xml version="1.0" encoding="UTF-8"?>
<svg xmlns="http://www.w3.org/2000/svg" id="Layer_1" data-name="Layer 1" viewBox="0 0 24 24">
  <path d="M20.731,2.891c-.088-.328-.337-.589-.66-.693-.152-.049-3.781-1.198-8.071-1.198S4.082,2.149,3.93,2.198c-.325,.104-.574,.366-.662,.696-.042,.161-1.043,3.992-1.043,9.106,0,5.157,1.001,8.95,1.044,9.109,.088,.328,.337,.589,.66,.693,.152,.049,3.781,1.198,8.071,1.198s7.918-1.149,8.07-1.198c.325-.104,.574-.366,.662-.696,.042-.161,1.043-3.992,1.043-9.106,0-5.157-1.001-8.95-1.044-9.109ZM5.073,3.95c1.125-.303,3.882-.95,6.927-.95s5.807,.647,6.928,.95c.266,1.193,.848,4.248,.848,8.05,0,1.088-.049,2.119-.125,3.064H4.347c-.075-.942-.123-1.972-.123-3.064,0-3.762,.584-6.846,.849-8.05Zm6.927,17.05c-3.053,0-5.807-.647-6.928-.95-.131-.588-.339-1.628-.516-2.986h6.443v.777c0,.552,.447,1,1,1s1-.448,1-1v-.777h6.44c-.177,1.353-.383,2.396-.513,2.986-1.125,.303-3.882,.95-6.927,.95Z"/>
</svg>
