<?xml version="1.0" encoding="UTF-8"?>
<svg xmlns="http://www.w3.org/2000/svg" id="Layer_1" data-name="Layer 1" viewBox="0 0 24 24">
  <path d="M21.022,21h-.006c1.1-3.371,2.768-11.535-4.125-17.493-2.866-2.479-6.186-2.507-6.326-2.507-.496,0-.917,.364-.989,.854-.271,1.837-.954,2.542-3.181,3.281l-2.286,.759c-.19,.063-.357,.182-.479,.341-1.044,1.361-1.044,4.466,0,5.828,.189,.247,.483,.392,.794,.392h4.272c-.886,.939-1.931,2.127-2.663,3.212-1.313,1.945-2.25,4.308-2.625,5.333h-.432c-.552,0-1,.448-1,1s.448,1,1,1H21.022c.552,0,1-.448,1-1s-.448-1-1-1Zm-13.332-4.213c1.363-2.017,4.066-4.579,4.094-4.604,.298-.281,.394-.716,.243-1.096-.151-.381-.52-.631-.929-.631H5.027c-.251-.767-.23-2.109,.063-2.779l1.935-.642c2.194-.728,3.717-1.679,4.338-3.955,.973,.154,2.68,.608,4.22,1.94,6.469,5.593,4.227,13.528,3.316,15.98H5.551c.437-1.101,1.19-2.806,2.14-4.213Z"/>
</svg>
