<?xml version="1.0" encoding="UTF-8"?>
<svg xmlns="http://www.w3.org/2000/svg" id="Layer_1" data-name="Layer 1" viewBox="0 0 24 24">
  <path d="M18.227,4.223c-1.982-1.997-4.318-3.052-6.754-3.052-2.596,0-5.208,1.191-7.355,3.354C.295,8.376,.299,13.704,2.494,16.431c1.498,1.859,3.601,3.102,5.922,3.497,.782,.134,1.536,.527,2.305,1.226,1.265,1.127,2.754,1.682,4.294,1.682,1.976,0,4.036-.913,5.811-2.701,4.935-4.972,.281-13.008-2.599-15.911Zm1.179,14.502c-1.819,1.833-4.836,3.177-7.401,.894-.994-.905-2.088-1.464-3.253-1.662-1.839-.314-3.509-1.302-4.7-2.78-1.389-1.725-1.877-5.855,1.485-9.243,1.769-1.782,3.876-2.763,5.935-2.763,1.918,0,3.713,.828,5.334,2.461,2.719,2.739,6.272,9.392,2.599,13.093Z"/>
  <path d="M9.556,6.165c-.393-.389-1.025-.387-1.415,.005l-2.715,2.736c-.389,.392-.386,1.025,.005,1.415,.195,.193,.45,.29,.705,.29,.257,0,.514-.099,.71-.295l2.715-2.736c.389-.392,.386-1.025-.005-1.415Z"/>
  <path d="M14.097,7.679c-.394-.389-1.025-.387-1.415,.005l-4.994,5.032c-.389,.392-.386,1.026,.005,1.415,.195,.193,.45,.29,.705,.29,.257,0,.514-.099,.71-.296l4.994-5.032c.389-.392,.386-1.025-.005-1.415Z"/>
  <path d="M17.12,10.724c-.393-.389-1.025-.387-1.415,.005l-4.234,4.267c-.389,.392-.387,1.024,.005,1.414,.195,.193,.45,.29,.705,.29,.257,0,.514-.099,.71-.296l4.234-4.266c.389-.392,.387-1.025-.005-1.415Z"/>
  <path d="M17.208,15.306l-1.196,1.205c-.389,.392-.386,1.025,.005,1.414,.195,.193,.45,.29,.705,.29,.257,0,.514-.099,.71-.296l1.196-1.205c.389-.392,.386-1.025-.005-1.414-.393-.389-1.025-.387-1.415,.006Z"/>
</svg>
