<?xml version="1.0" encoding="UTF-8"?>
<svg xmlns="http://www.w3.org/2000/svg" id="Layer_1" data-name="Layer 1" viewBox="0 0 24 24">
  <path d="M22.118,12.247c0-4.657-3.151-7.544-6.186-8.739-1.13-1.545-2.514-2.508-3.932-2.508s-2.805,.965-3.935,2.513C5.027,4.712,1.882,7.597,1.882,12.247c0,5.429,3.444,7.149,7.013,7.651-.216,.226-.417,.479-.591,.761-.291,.47-.146,1.086,.324,1.377,.164,.102,.346,.149,.525,.149,.335,0,.662-.168,.851-.474,.257-.416,.63-.739,.999-.983l.002,1.272c0,.552,.448,.999,1,.999h.001c.552,0,1-.449,.999-1.001l-.002-1.261c.366,.243,.736,.566,.995,.979,.293,.468,.91,.61,1.378,.315,.468-.293,.609-.91,.316-1.378-.175-.279-.376-.53-.591-.755,3.57-.502,7.017-2.222,7.017-7.652ZM12,3c1.804,0,4.568,4.143,4.568,9.247,0,2.786-.574,4.297-1.594,5.079,.296-1.144,.362-2.499,.362-3.776,0-4.711-1.341-7.876-3.337-7.876s-3.337,3.165-3.337,7.876c0,1.262,.065,2.602,.353,3.738-1.001-.794-1.584-2.303-1.584-5.042,0-5.104,2.764-9.247,4.568-9.247Zm-1.337,10.551c0-3.733,.927-5.511,1.338-5.842,.41,.33,1.336,2.105,1.336,5.842,0,4.38-.937,4.538-1.3,4.538-.931,0-1.374-1.526-1.374-4.538Zm-6.781-1.304c0-2.177,.895-4.079,2.486-5.439-.588,1.655-.936,3.53-.936,5.439,0,1.999,.309,3.609,.932,4.838-1.72-.911-2.482-2.476-2.482-4.838Zm13.775,4.861c.613-1.225,.911-2.839,.911-4.861,0-1.911-.349-3.788-.938-5.444,1.592,1.36,2.488,3.265,2.488,5.444,0,2.398-.741,3.96-2.461,4.861Z"/>
</svg>
