<?xml version="1.0" encoding="UTF-8"?>
<svg xmlns="http://www.w3.org/2000/svg" id="Layer_1" data-name="Layer 1" viewBox="0 0 24 24">
  <path d="M21.797,4.545c-.108-.321-.372-.565-.7-.649-.086-.022-2.095-.53-4.956-.84-.97-1.215-2.466-1.996-4.141-1.996s-3.171,.781-4.142,1.996c-2.857,.31-4.868,.817-4.955,.839-.33,.084-.594,.33-.702,.653-.049,.147-1.202,3.656-1.202,8.333,0,4.716,1.154,8.19,1.203,8.335,.108,.321,.372,.565,.701,.649,.171,.044,4.261,1.073,9.097,1.073s8.924-1.029,9.097-1.073c.329-.084,.594-.33,.701-.653,.05-.147,1.202-3.656,1.202-8.332,0-4.716-1.153-8.19-1.203-8.336Zm-9.797-1.484c1.814,0,3.291,1.469,3.291,3.275v.219c-.3,.15-.819,.35-1.612,.478l.367-.695c.259-.488,.072-1.093-.416-1.351-.49-.26-1.093-.072-1.352,.417l-.918,1.736c-1.401-.074-2.24-.382-2.651-.586v-.219c0-1.806,1.477-3.275,3.292-3.275Zm8.056,16.993c-1.248,.271-4.471,.885-8.056,.885s-6.811-.615-8.057-.886c-.303-1.099-.943-3.819-.943-7.172,0-3.329,.642-6.066,.944-7.173,.586-.127,1.605-.33,2.888-.509-.081,.366-.124,.747-.124,1.137v.763c0,.276,.115,.541,.316,.73,.145,.136,1.518,1.328,4.975,1.328,3.485,0,4.839-1.198,4.982-1.335,.197-.188,.309-.45,.309-.723v-.763c0-.39-.043-.771-.124-1.137,1.286,.179,2.307,.383,2.891,.51,.303,1.095,.942,3.805,.942,7.172,0,3.329-.642,6.066-.944,7.172Z"/>
</svg>
