<?xml version="1.0" encoding="UTF-8"?>
<svg xmlns="http://www.w3.org/2000/svg" id="Layer_1" data-name="Layer 1" viewBox="0 0 24 24">
  <path d="M21.236,6.405c-.112-.318-.378-.558-.706-.638-.102-.025-1.663-.399-3.938-.673v-1.155c0-1.621-1.318-2.939-2.939-2.939h-3.305c-1.621,0-2.939,1.318-2.939,2.939v1.155c-2.273,.274-3.836,.648-3.938,.672-.33,.08-.597,.321-.709,.642-.046,.132-1.134,3.291-1.134,7.495,0,4.24,1.089,7.368,1.136,7.499,.112,.318,.378,.558,.706,.638,.161,.039,3.996,.96,8.53,.96s8.368-.921,8.53-.96c.329-.08,.596-.321,.708-.642,.046-.132,1.134-3.291,1.134-7.495,0-4.24-1.089-7.368-1.136-7.499ZM9.408,3.939c0-.518,.422-.939,.939-.939h3.305c.518,0,.939,.421,.939,.939v.963c-.821-.058-1.693-.095-2.592-.095s-1.77,.036-2.592,.095v-.963Zm10.101,16.277c-1.193,.246-4.185,.784-7.509,.784s-6.319-.539-7.512-.784c-.287-1.004-.86-3.375-.86-6.312,0-2.901,.575-5.297,.863-6.313,1.193-.246,4.185-.783,7.509-.783s6.319,.538,7.512,.784c.287,1.004,.86,3.375,.86,6.312,0,2.902-.575,5.298-.863,6.313Z"/>
  <path d="M14.273,12.903h-1.273v-1.251c0-.552-.447-1-1-1s-1,.448-1,1v1.251h-1.273c-.553,0-1,.448-1,1s.447,1,1,1h1.273v1.252c0,.552,.447,1,1,1s1-.448,1-1v-1.252h1.273c.553,0,1-.448,1-1s-.447-1-1-1Z"/>
</svg>
