<?xml version="1.0" encoding="UTF-8"?>
<svg xmlns="http://www.w3.org/2000/svg" id="Layer_1" data-name="Layer 1" viewBox="0 0 24 24">
  <path d="M18.156,7.406c2.257,.273,3.651,.639,3.844,.637,.447-.005,.854-.301,.969-.754,.136-.535-.187-1.079-.722-1.215-.097-.025-1.496-.375-3.875-.66,.26-1.994,.547-3.147,.552-3.168,.136-.535-.188-1.079-.723-1.215-.534-.135-1.079,.187-1.215,.722-.023,.091-.335,1.335-.609,3.463-1.287-.102-2.756-.172-4.378-.172-1.683,0-3.198,.074-4.515,.181,.253-1.878,.522-2.96,.527-2.98,.136-.535-.188-1.079-.723-1.215-.536-.135-1.079,.187-1.215,.722-.024,.094-.356,1.421-.637,3.682-2.271,.281-3.593,.616-3.687,.64-.535,.137-.856,.682-.719,1.217,.137,.535,.683,.855,1.217,.72,.02-.005,1.096-.276,2.979-.529-.109,1.32-.183,2.836-.183,4.517,0,1.624,.068,3.092,.17,4.376-2.134,.275-3.373,.588-3.464,.612-.535,.137-.856,.682-.719,1.217,.137,.535,.683,.855,1.217,.72,.021-.005,1.167-.293,3.164-.554,.286,2.388,.635,3.783,.663,3.878,.26,.896,1.133,.741,1.217,.719,.535-.137,.857-.682,.72-1.217-.006-.022-.335-1.334-.608-3.597,1.326-.116,2.872-.198,4.596-.198,1.592,0,3.036,.071,4.296,.174,.29,2.535,.669,4.018,.691,4.119,.199,.873,1.133,.741,1.217,.719,.535-.137,.857-.682,.72-1.217-.006-.021-.317-1.262-.585-3.411,2.145,.268,3.496,.62,3.661,.615,.447-.013,.854-.301,.969-.754,.136-.535-.187-1.079-.722-1.215-.1-.025-1.592-.399-4.118-.689-.103-1.258-.173-2.701-.173-4.298,0-1.719,.083-3.266,.199-4.594Zm-6.156,8.55c-1.803,0-3.413,.084-4.794,.205-.097-1.225-.162-2.622-.162-4.161,0-1.785,.089-3.383,.213-4.744,1.358-.123,2.954-.211,4.743-.211,1.537,0,2.935,.066,4.163,.163-.121,1.383-.206,2.993-.206,4.792,0,1.512,.059,2.888,.15,4.107-1.221-.091-2.597-.151-4.106-.151Z"/>
</svg>
