<?xml version="1.0" encoding="UTF-8"?>
<svg xmlns="http://www.w3.org/2000/svg" id="Layer_1" data-name="Layer 1" viewBox="0 0 24 24">
  <path d="M20.19,6.879c-.39-.406-.821-.751-1.279-1.028,.348-1.751-.4-3.53-.494-3.745-.1-.226-.278-.407-.503-.508-.148-.067-3.652-1.616-5.759,.544-.201,.193-.37,.396-.511,.607-.059-.095-.119-.188-.181-.281-.308-.46-.929-.583-1.387-.274-.459,.307-.582,.928-.274,1.387,.515,.769,.87,1.621,1.053,2.513-.808-.637-1.769-1.001-2.792-1.042-1.538-.062-3.082,.604-4.255,1.827-1.353,1.411-5.319,6.569,.433,13.743,1.677,2.09,3.779,2.378,5.651,2.378,.369,0,.729-.011,1.075-.022,.692-.021,1.371-.021,2.063,0,2.099,.063,4.718,.146,6.726-2.356,5.752-7.173,1.786-12.332,.433-13.742Zm-6.625-3.318c.862-.885,2.446-.508,3.161-.274,.148,.461,.312,1.174,.267,1.836-.35-.061-.704-.086-1.057-.072-1.024,.042-1.986,.406-2.794,1.044-.207-.888-.25-1.886,.424-2.534Zm4.632,15.809c-1.382,1.723-3.106,1.667-5.103,1.608-.734-.022-1.453-.022-2.188,0-1.995,.062-3.721,.116-5.103-1.608-4.605-5.742-1.897-9.66-.55-11.107,1.13-1.215,2.494-1.215,2.73-1.213,.838,.009,1.584,.426,2.16,1.134,.43,.528,1.247,.639,1.857,.639s1.427-.111,1.857-.639c.576-.708,1.323-1.1,2.16-1.134,.951-.035,1.954,.403,2.73,1.213h0c1.369,1.427,4.055,5.365-.55,11.107Z"/>
</svg>
