<?xml version="1.0" encoding="UTF-8"?>
<svg xmlns="http://www.w3.org/2000/svg" id="Layer_1" data-name="Layer 1" viewBox="0 0 24 24">
  <path d="M18.323,15.1c-.999,0-1.735,.623-2.202,1.09-1.822,1.827-1.014,3.405-.014,4.408,.723,.725,1.442,1.078,2.201,1.078,.999,0,1.735-.623,2.202-1.091,1.823-1.827,1.014-3.405,.014-4.408-.723-.725-1.443-1.077-2.201-1.077Zm.771,4.072c-.328,.329-.601,.503-.786,.503-.191,0-.471-.174-.785-.49-.686-.687-.613-.955,.014-1.583,.328-.329,.601-.503,.786-.503,.191,0,.471,.174,.785,.489,.686,.687,.613,.955-.014,1.583Z"/>
  <path d="M22.705,3.9l-2.571-2.559c-.392-.389-1.024-.387-1.414,.003-.39,.392-.388,1.025,.004,1.415l.573,.57-3.257,3.241-.329,.016c-.67,.037-1.358-.262-1.795-.793-.345-.42-.964-.488-1.395-.148l-.861,.684c-3.894,3.089-7.41,6.647-10.45,10.573-.159,.205-.231,.463-.204,.721,.303,2.782,2.55,5.02,5.344,5.321,.036,.004,.072,.006,.107,.006,.219,0,.433-.072,.608-.207,3.945-3.024,7.521-6.522,10.628-10.398l.687-.857c.344-.429,.276-1.055-.149-1.401-.532-.432-.829-1.097-.795-1.778l.016-.322,3.263-3.247,.581,.578c.195,.194,.45,.291,.705,.291,.257,0,.514-.098,.709-.294,.39-.392,.388-1.025-.004-1.415Zm-9.617,3.849c.676,.507,1.497,.803,2.349,.837,.035,.846,.332,1.661,.838,2.332,0,0-.677,.836-.949,1.162-.737-.534-1.628-.838-2.549-.857-.02-.914-.324-1.798-.856-2.529,.325-.269,1.168-.944,1.168-.944Zm-6.902,13.147c-1.562-.323-2.805-1.557-3.131-3.108,2.207-2.807,4.666-5.415,7.339-7.786,.269,.424,.406,.926,.381,1.436l-.039,.776c-.014,.282,.092,.557,.292,.757,.2,.2,.478,.298,.756,.292l.78-.039c.517-.029,1.02,.108,1.445,.375-2.383,2.658-5.003,5.103-7.823,7.297Z"/>
</svg>
