<?xml version="1.0" encoding="UTF-8"?>
<svg xmlns="http://www.w3.org/2000/svg" id="Layer_1" data-name="Layer 1" viewBox="0 0 24 24">
  <path d="M21.084,6.758c-.07-.149-.176-.278-.308-.377C17.48,3.926,13.282,1,12,1c-1.299,0-5.49,2.927-8.777,5.382-.134,.1-.24,.231-.31,.382-.047,.103-1.155,2.563-1.155,7.578,0,2.165,.202,5.37,.433,6.858,.059,.38,.33,.692,.698,.804,.134,.041,3.345,.995,9.112,.995s8.976-.955,9.11-.995c.368-.112,.639-.424,.698-.804,.232-1.497,.435-4.702,.435-6.859,0-5.06-1.111-7.483-1.158-7.584Zm-12.917,14.084c-.166-.727-.431-2.154-.431-3.873,0-1.69,.261-3.114,.427-3.853,.764-.168,2.233-.438,3.836-.438s3.074,.269,3.837,.438c.167,.733,.426,2.15,.426,3.853s-.266,3.143-.432,3.874c-1.098,.093-2.378,.157-3.831,.157s-2.732-.064-3.832-.158Zm11.749-.597c-.438,.099-1.107,.233-1.994,.361,.167-.893,.34-2.17,.34-3.637,0-2.806-.622-4.885-.649-4.973-.099-.326-.356-.579-.684-.671-.093-.026-2.313-.646-4.93-.646s-4.836,.62-4.929,.646c-.329,.093-.588,.347-.686,.674-.026,.088-.648,2.187-.648,4.97,0,1.473,.171,2.746,.338,3.635-.885-.128-1.555-.261-1.994-.36-.178-1.559-.324-4.132-.324-5.901,0-3.725,.654-5.875,.889-6.527,2.937-2.181,6.457-4.55,7.352-4.804,.892,.258,4.415,2.627,7.357,4.806,.236,.648,.887,2.777,.887,6.525,0,1.764-.147,4.34-.326,5.903Z"/>
  <path d="M12.872,16.603h-1.744c-.552,0-1,.448-1,1s.448,1,1,1h1.744c.552,0,1-.448,1-1s-.448-1-1-1Z"/>
</svg>
