<?xml version="1.0" encoding="UTF-8"?>
<svg xmlns="http://www.w3.org/2000/svg" id="Layer_1" data-name="Layer 1" viewBox="0 0 24 24">
  <path d="M21.615,7.06c-.07-.149-.177-.278-.31-.376-3.502-2.593-7.96-5.684-9.306-5.684-1.363,0-5.813,3.091-9.307,5.685-.135,.099-.241,.23-.312,.382-.05,.108-1.226,2.703-1.226,8,0,1.86,.146,5.211,.355,7.046,.058,.505,.484,.887,.993,.887h3.52c.293,0,.571-.128,.761-.352,.19-.223,.273-.518,.227-.807-.131-.815-.272-2.559-.272-3.956,0-.462,.016-.916,.044-1.354h10.434c.027,.436,.044,.89,.044,1.354,0,1.392-.143,3.137-.274,3.956-.047,.289,.036,.584,.226,.808,.19,.223,.469,.352,.762,.352h3.519c.508,0,.936-.381,.993-.886,.205-1.784,.358-5.192,.358-7.047,0-5.345-1.179-7.9-1.229-8.007ZM6.993,14.532c.103-.714,.217-1.306,.302-1.707,.887-.199,2.709-.544,4.705-.544s3.821,.345,4.706,.544c.086,.4,.2,.991,.303,1.707H6.993Zm13.592,6.468h-1.482c.095-.989,.158-2.177,.158-3.115,0-3.274-.723-6.027-.753-6.143-.092-.341-.355-.609-.696-.705-.109-.031-2.725-.757-5.812-.757s-5.701,.726-5.812,.757c-.341,.096-.606,.365-.696,.708-.031,.117-.753,2.894-.753,6.14,0,.939,.062,2.128,.156,3.115h-1.483c-.15-1.804-.256-4.406-.256-5.933,0-3.98,.709-6.268,.956-6.945,3.166-2.337,6.96-4.874,7.886-5.113,.922,.243,4.72,2.78,7.892,5.115,.248,.673,.954,2.937,.954,6.943,0,1.526-.106,4.128-.259,5.933Z"/>
</svg>
