<?xml version="1.0" encoding="UTF-8"?>
<svg xmlns="http://www.w3.org/2000/svg" id="Layer_1" data-name="Layer 1" viewBox="0 0 24 24">
  <path d="M19.995,8.666c-.15-.032-3.745-.775-7.995-.775-.101,0-.201,0-.301,.001v-3.384c0-1.133-.928-2.055-2.069-2.055s-2.069,.922-2.069,2.055,.928,2.054,2.069,2.054c.023,0,.046-.001,.069-.002v1.4c-3.17,.185-5.571,.68-5.693,.707-.326,.068-.597,.294-.722,.603-.044,.109-1.086,2.717-1.086,6.177,0,3.49,1.043,6.072,1.087,6.181,.126,.307,.396,.531,.72,.599,.151,.032,3.745,.775,7.995,.775s7.844-.743,7.995-.775c.325-.068,.597-.294,.722-.603,.044-.109,1.086-2.716,1.086-6.177,0-3.49-1.043-6.072-1.088-6.181-.126-.307-.396-.531-.72-.599Zm-.192,6.779c0,.14-.002,.279-.006,.416h-3.421v-5.718c1.172,.129,2.111,.28,2.663,.377,.271,.845,.764,2.686,.764,4.925Zm-5.427-5.477v5.893h-4.752v-5.892c.754-.048,1.555-.078,2.376-.078s1.622,.03,2.376,.078Zm-9.413,.552c.553-.097,1.491-.247,2.661-.377v5.717h-3.421c-.004-.137-.006-.276-.006-.416,0-2.223,.494-4.074,.766-4.925Zm7.037,10.479c-3.101,0-5.896-.429-7.039-.63-.165-.513-.411-1.394-.579-2.509h15.234c-.169,1.11-.415,1.993-.579,2.509-1.144,.202-3.937,.63-7.037,.63Z"/>
  <path d="M16.048,5.418c1.141,0,2.069-.921,2.069-2.054s-.929-2.055-2.069-2.055-2.069,.922-2.069,2.055,.929,2.054,2.069,2.054Z"/>
  <path d="M22.852,1.812c-.104-.543-.631-.896-1.171-.794l-1.425,.273c-.542,.104-.897,.629-.794,1.171,.092,.479,.512,.812,.981,.812,.062,0,.126-.006,.189-.018l1.425-.273c.542-.104,.897-.629,.794-1.171Z"/>
  <path d="M4.539,6.528c.542-.104,.897-.628,.793-1.171-.104-.542-.625-.894-1.17-.794l-2.22,.426c-.542,.104-.897,.628-.793,1.171,.092,.479,.511,.812,.981,.812,.062,0,.125-.006,.189-.018l2.22-.426Z"/>
</svg>
