<?xml version="1.0" encoding="UTF-8"?>
<svg xmlns="http://www.w3.org/2000/svg" id="Layer_1" data-name="Layer 1" viewBox="0 0 24 24">
  <path d="M22,16.836c-.553,0-1,.447-1,1,0,.678-.552,1.229-1.229,1.229h-2.165v-2.566c1.703-.225,2.814-.463,2.9-.482,.328-.071,.598-.302,.72-.614,.048-.123,1.185-3.078,1.185-7.006,0-.712-.037-1.438-.11-2.156-.053-.511-.482-.898-.995-.898h-2.494c-1.241,0-2.316,.878-2.557,2.089-.051,.261-.101,.479-.141,.646-.366,.135-1.159,.338-2.608,.338-1.505,0-2.371-.219-2.771-.357-.08-.333-.191-.851-.288-1.501-.307-2.064-2.106-3.621-4.187-3.621H2.494c-.47,0-.876,.326-.977,.785-.344,1.56-.518,3.133-.518,4.676,0,3.961,1.138,6.888,1.187,7.01,.122,.311,.391,.539,.717,.61,.086,.019,1.198,.258,2.902,.482v2.565H2.428c-.553,0-1,.447-1,1s.447,1,1,1H19.771c1.78,0,3.229-1.448,3.229-3.229,0-.553-.447-1-1-1ZM3,8.396c0-1.141,.105-2.302,.313-3.461h2.945c1.097,0,2.046,.823,2.208,1.914,.197,1.328,.452,2.171,.463,2.206,.064,.213,.199,.398,.381,.526,.198,.139,1.331,.833,4.194,.833,2.831,0,3.857-.678,4.105-.886,.148-.125,.258-.292,.314-.478,0,0,.139-.457,.291-1.233,.056-.276,.306-.477,.595-.477h1.57c.02,.354,.029,.706,.029,1.055,0,2.639-.579,4.824-.876,5.772-1.228,.227-4.36,.733-7.829,.733s-6.608-.508-7.832-.733c-.297-.938-.873-3.099-.873-5.772Zm4.806,8.324c1.182,.106,2.509,.181,3.899,.181s2.717-.075,3.9-.182v2.344H7.806v-2.344Z"/>
</svg>
