<?xml version="1.0" encoding="UTF-8"?>
<svg xmlns="http://www.w3.org/2000/svg" id="Layer_1" data-name="Layer 1" viewBox="0 0 24 24">
  <path d="M20.196,8.853c-.69-.08-1.532-.167-2.48-.241-1.625-2.111-4.706-5.325-8.4-5.325-.5,0-.922,.238-1.16,.654-.322,.564-.468,1.401,1.279,4.59-.691,.042-1.391,.096-2.098,.162l-.13-.192c-.714-1.053-1.845-1.754-3.104-1.925l-1.97-.266c-.338-.044-.674,.084-.895,.342-.221,.259-.295,.611-.197,.937l1.993,6.637c.11,.369,.424,.643,.805,.701,.111,.018,2.411,.369,5.592,.551-1.743,3.181-1.597,4.018-1.276,4.583,.237,.416,.66,.654,1.16,.654,3.677,0,6.741-3.172,8.391-5.312,.94-.07,1.776-.15,2.461-.225,1.614-.175,2.832-1.535,2.832-3.164,0-1.615-1.205-2.974-2.804-3.16Zm-10.059-3.49c1.876,.344,3.601,1.787,4.823,3.091-.636-.022-1.293-.035-1.963-.035-.434,0-.874,.005-1.318,.016-.917-1.585-1.343-2.532-1.541-3.072Zm9.814,7.826c-.771,.084-1.739,.175-2.836,.249-.293,.021-.562,.168-.737,.404-.985,1.336-3.442,4.286-6.241,4.796,.218-.595,.713-1.683,1.837-3.576,.181-.305,.187-.682,.017-.991-.17-.311-.491-.508-.845-.519-2.857-.093-5.286-.373-6.38-.517l-1.362-4.536,.432,.059c.696,.094,1.322,.482,1.717,1.065l.463,.684c.206,.303,.558,.464,.929,.434,2.098-.214,4.133-.322,6.051-.322,2.77,0,5.319,.229,6.968,.421,.59,.069,1.035,.573,1.035,1.174,0,.605-.451,1.111-1.049,1.176Z"/>
</svg>
