<?xml version="1.0" encoding="UTF-8"?>
<svg xmlns="http://www.w3.org/2000/svg" id="Layer_1" data-name="Layer 1" viewBox="0 0 24 24">
  <path d="M21.121,9.097c0-2.464-1.247-3.714-3.707-3.714-1.186,0-2.089,.291-2.707,.868-.431-.402-1-.665-1.707-.787v-1.428c0-.57,.466-1.035,1.039-1.035,.313,0,.607,.139,.805,.381,.35,.429,.98,.49,1.407,.142,.428-.35,.491-.979,.142-1.407-.58-.709-1.437-1.115-2.354-1.115-1.224,0-2.281,.727-2.761,1.771-.602-.429-1.322-.679-2.094-.679-.552,0-1,.447-1,1s.448,1,1,1c.78,0,1.447,.581,1.704,1.393-.655,.13-1.186,.386-1.594,.766-.618-.577-1.521-.868-2.707-.868-2.46,0-3.707,1.25-3.707,3.714,0,1.53,.525,3.326,2.884,3.66-.117,.421-.177,.899-.177,1.435,0,1.53,.525,3.326,2.884,3.659-.118,.421-.177,.899-.177,1.436,0,1.694,.643,3.714,3.707,3.714,2.46,0,3.707-1.25,3.707-3.714,0-.536-.059-1.014-.176-1.434,1.914-.261,2.883-1.489,2.883-3.661,0-.535-.059-1.013-.176-1.433,1.914-.261,2.883-1.489,2.883-3.661Zm-9.121-1.714c1.26,0,1.707,.259,1.707,1.714,0,1.477-.503,1.715-1.707,1.715-1.324,0-1.707-.385-1.707-1.715,0-1.455,.447-1.714,1.707-1.714Zm-7.121,1.714c0-1.455,.447-1.714,1.707-1.714s1.707,.259,1.707,1.714c0,1.477-.503,1.715-1.707,1.715-1.324,0-1.707-.385-1.707-1.715Zm2.707,5.095c0-1.456,.447-1.715,1.707-1.715s1.707,.259,1.707,1.715c0,1.476-.503,1.714-1.707,1.714-1.324,0-1.707-.385-1.707-1.714Zm4.414,6.809c-1.324,0-1.707-.385-1.707-1.714,0-1.456,.447-1.715,1.707-1.715s1.707,.259,1.707,1.715c0,1.476-.503,1.714-1.707,1.714Zm2.707-5.095c-1.324,0-1.707-.385-1.707-1.714,0-1.456,.447-1.715,1.707-1.715s1.707,.259,1.707,1.715c0,1.476-.503,1.714-1.707,1.714Zm2.707-5.094c-1.324,0-1.707-.385-1.707-1.715,0-1.455,.447-1.714,1.707-1.714s1.707,.259,1.707,1.714c0,1.477-.503,1.715-1.707,1.715Z"/>
</svg>
