<?xml version="1.0" encoding="UTF-8"?>
<svg xmlns="http://www.w3.org/2000/svg" id="Layer_1" data-name="Layer 1" viewBox="0 0 24 24">
  <path d="M22.708,17.538c-.466-1.131-1.19-1.855-1.69-2.038-.45-.165-1.151-.358-2.061-.012-1.55,.591-3.223,2.749-3.939,3.754-.965-.144-1.974-.689-2.78-1.519-.523-.538-.908-1.144-1.116-1.734,.293,.075,.594,.113,.897,.113,.653,0,1.312-.178,1.903-.542,.47-.289,.617-.905,.328-1.375-.289-.471-.904-.618-1.375-.328-.506,.311-1.122,.318-1.625,.048,.392-.644,1.267-1.34,3.18-2.003,3.569-1.237,5.786-3.952,5.786-7.086v-.174s.872,.07,.899,.07c.516,0,.953-.396,.996-.919,.045-.55-.365-1.032-.915-1.078,0,0-6.39-.571-8.087-.571-4.321,0-7.558,1.091-9.623,3.241-1.772,1.847-2.604,4.41-2.471,7.621,.13,3.156,1.248,5.522,3.321,7.032,1.96,1.427,4.442,1.822,6.595,1.822,2.12,0,3.92-.384,4.587-.546,.662,.165,2.316,.534,3.837,.534,.686,0,1.345-.075,1.875-.277,1.603-.611,2.203-2.271,1.478-4.031ZM11.437,4.206c.533-.042,1.091-.064,1.672-.064,1.438,0,2.817,.1,5.108,.32v.353c0,2.29-1.66,4.232-4.441,5.195-.099,.034-.199,.07-.301,.107-1.367-1.126-2.172-2.829-2.172-4.636,0-.431,.045-.859,.134-1.275Zm-6.507,2.563c1.054-1.099,2.539-1.856,4.432-2.266-.039,.323-.059,.649-.059,.978,0,2.085,.807,4.067,2.21,5.538-.905,.535-1.719,1.247-2.177,2.221-1.948-.083-3.798-1.038-5.011-2.63-.338-.443-.62-.925-.84-1.434,.322-.935,.804-1.739,1.445-2.407Zm.58,11.646c-1.552-1.132-2.392-2.98-2.496-5.493-.011-.26-.014-.515-.01-.764,1.507,1.788,3.653,2.886,5.947,3.062,.058,1.328,.722,2.731,1.854,3.895,.256,.264,.526,.506,.808,.725-1.971,.089-4.358-.152-6.103-1.425Zm15.009,1.284c-.691,.264-2.074,.146-3.292-.068,.779-.983,1.748-2.01,2.444-2.274,.327-.126,.739-.222,1.16,.868l.002,.007c.435,1.182-.071,1.375-.315,1.468Z"/>
  <circle cx="14.1" cy="6.474" r="1.001"/>
</svg>
