<?xml version="1.0" encoding="UTF-8"?>
<svg xmlns="http://www.w3.org/2000/svg" id="Layer_1" data-name="Layer 1" viewBox="0 0 24 24">
  <path d="M21.073,2.815c-1.17-1.187-2.89-1.815-4.974-1.815-3.917,0-8.818,2.199-11.92,5.346-3.794,3.85-3.856,8.218-.211,12.38l-2.536,2.573c-.388,.394-.383,1.027,.01,1.415,.195,.192,.449,.288,.702,.288,.258,0,.517-.1,.712-.298l2.516-2.553c1.998,1.796,4.048,2.706,6.106,2.706,2.135,0,4.192-.989,6.114-2.939,4.604-4.673,7.184-13.343,3.479-17.101Zm-1.425,1.404c1.714,1.739,1.481,5.219,.158,8.56h-7.169l2.295-2.328c.388-.394,.383-1.027-.01-1.415s-1.026-.382-1.415,.01l-4.167,4.229V4.976c2.223-1.221,4.688-1.976,6.76-1.976,1.558,0,2.752,.41,3.549,1.219ZM5.603,7.75c.522-.53,1.107-1.031,1.736-1.497V15.305l-1.963,1.992c-2.836-3.306-2.762-6.514,.227-9.546Zm10.565,10.762c-3.014,3.059-6.151,3.087-9.39,.211l3.887-3.944h8.208c-.752,1.394-1.677,2.69-2.705,3.732Z"/>
</svg>
