<?xml version="1.0" encoding="UTF-8"?>
<svg xmlns="http://www.w3.org/2000/svg" id="Layer_1" data-name="Layer 1" viewBox="0 0 24 24">
  <path d="M21.197,7.189c-.447-2.783-2.416-5.008-5.015-5.669-1.342-.341-2.749-.516-4.185-.521-1.431,.004-2.837,.179-4.179,.521-2.599,.661-4.568,2.886-5.015,5.669-.654,4.07-.579,8.38,.23,13.176,.209,1.244,1.093,2.238,2.32,2.531,1.512,.361,2.644-.314,3.256-1.078,.633-.79,3.049-3.868,3.049-3.868,.114-.145,.264-.167,.342-.167s.228,.021,.342,.167c0,0,2.417,3.079,3.049,3.868,.788,.982,2.035,1.396,3.256,1.078,1.221-.317,2.11-1.287,2.319-2.53,.809-4.796,.885-9.106,.23-13.176Zm-2.203,12.844c-.115,.685-.68,.883-.851,.927-.169,.045-.759,.147-1.192-.394-.629-.784-1.295-1.633-1.967-2.491l-1.072-1.365c-.465-.59-1.162-.928-1.913-.928s-1.447,.338-1.913,.928l-1.072,1.365c-.672,.857-1.338,1.707-1.967,2.491-.432,.541-1.021,.439-1.192,.394-.17-.044-.735-.242-.851-.928-.772-4.577-.847-8.675-.228-12.526,.321-1.995,1.708-3.584,3.534-4.048,1.183-.301,2.425-.455,3.686-.459,1.267,.004,2.509,.158,3.692,.459,1.826,.464,3.213,2.053,3.534,4.048,.619,3.851,.544,7.949-.228,12.526Z"/>
</svg>
