<?xml version="1.0" encoding="UTF-8"?>
<svg xmlns="http://www.w3.org/2000/svg" id="Layer_1" data-name="Layer 1" viewBox="0 0 24 24">
  <path d="M21.208,8.064c-.003-.011-.007-.02-.011-.029-.042-.117-.105-.228-.191-.326-.063-.071-1.567-1.764-3.999-3.64-2.077-1.602-4.428-2.893-4.527-2.947-.299-.163-.66-.163-.959,0-.1,.054-2.45,1.346-4.527,2.947-2.432,1.876-3.936,3.569-3.999,3.64-.105,.12-.177,.258-.216,.403-.304,.968-.973,3.448-.973,6.472,0,3.851,1.074,6.788,1.12,6.911,.119,.319,.392,.556,.725,.629,.164,.036,4.065,.876,8.35,.876,4.433,0,8.199-.842,8.357-.878,.329-.074,.598-.309,.716-.625,.046-.122,1.121-3.037,1.121-6.914,0-3.119-.69-5.598-.986-6.52Zm-12.994-2.411c1.414-1.09,3.008-2.052,3.786-2.504,.778,.451,2.369,1.412,3.786,2.504,1.384,1.067,2.458,2.083,3.089,2.718-.631,.634-1.705,1.65-3.089,2.717-1.414,1.09-3.008,2.052-3.786,2.504-.778-.451-2.37-1.412-3.786-2.504-1.384-1.067-2.458-2.083-3.089-2.717,.631-.634,1.705-1.65,3.089-2.718Zm11.152,14.63c-1.179,.226-4.11,.717-7.366,.717-3.15,0-6.159-.495-7.367-.721-.284-.947-.827-3.1-.827-5.696,0-1.668,.223-3.15,.46-4.254,.677,.647,1.603,1.475,2.728,2.343,2.077,1.602,4.428,2.893,4.527,2.947,.149,.082,.314,.123,.479,.123s.33-.041,.479-.123c.1-.054,2.45-1.346,4.527-2.947,1.127-.869,2.054-1.699,2.732-2.346,.235,1.094,.456,2.57,.456,4.258,0,2.601-.545,4.755-.828,5.7Z"/>
</svg>
