<?xml version="1.0" encoding="UTF-8"?>
<svg xmlns="http://www.w3.org/2000/svg" id="Layer_1" data-name="Layer 1" viewBox="0 0 24 24">
  <path d="M22.275,20.28c-.424-.353-1.055-.299-1.41,.124-.428,.511-1.047,.676-1.599,.497,.322-.387,.595-.766,.816-1.132,1.26-2.076,1.494-4.403,1.503-4.501,.022-.225-.033-.45-.156-.639-.664-1.025-1.428-1.897-2.245-2.64V6.998c0-.317-.151-.616-.406-.805-.06-.044-1.02-.738-2.904-1.219v-.113c0-2.133-1.736-3.869-3.882-3.869-2.132,0-3.868,1.736-3.868,3.869v.114c-1.879,.481-2.841,1.173-2.902,1.217-.256,.189-.408,.488-.408,.806v4.99c-.817,.742-1.581,1.615-2.245,2.64-.123,.19-.178,.414-.156,.639,.009,.099,.243,2.426,1.502,4.5,.221,.367,.495,.745,.818,1.133-.552,.18-1.171,.015-1.599-.497-.355-.423-.985-.477-1.41-.124-.423,.356-.479,.987-.124,1.41,1.16,1.384,3.19,1.67,4.621,.696,1.147,.784,2.703,.784,3.853,0,1.149,.784,2.703,.784,3.853,0,1.149,.784,2.705,.784,3.853,0,.576,.392,1.243,.606,1.927,.606,1.017,0,2-.474,2.693-1.302,.355-.423,.299-1.055-.124-1.41ZM12.007,2.993c.945,0,1.728,.707,1.85,1.62-.569-.062-1.187-.098-1.857-.098s-1.287,.037-1.857,.099c.122-.913,.906-1.62,1.863-1.62ZM6.817,7.572c.737-.373,2.457-1.056,5.183-1.056s4.453,.684,5.183,1.055v2.896c-1.698-1.076-3.456-1.727-4.925-2.119-.17-.045-.346-.045-.516,0-1.469,.392-3.227,1.042-4.925,2.119v-2.895Zm4.024,12.832c-.19-.228-.471-.359-.766-.359h0c-.296,0-.577,.131-.767,.358-.633,.756-1.685,.755-2.318,0-.031-.038-.066-.072-.102-.105-.542-.556-.965-1.084-1.259-1.569-.764-1.26-1.069-2.683-1.174-3.318,1.786-2.571,4.352-3.976,6.545-4.743v9.9c-.055-.05-.108-.105-.158-.165Zm3.853,0c-.191-.227-.471-.358-.767-.358h0c-.295,0-.577,.131-.766,.359-.05,.06-.103,.114-.158,.165V10.669c2.193,.767,4.759,2.173,6.545,4.743-.105,.635-.41,2.058-1.175,3.319-.293,.483-.715,1.01-1.254,1.565-.037,.033-.073,.069-.105,.108-.633,.754-1.685,.755-2.318,0Z"/>
</svg>
