<?xml version="1.0" encoding="UTF-8"?>
<svg xmlns="http://www.w3.org/2000/svg" id="Layer_1" data-name="Layer 1" viewBox="0 0 24 24">
  <path d="M22.011,8.42c.117-.357,.176-.728,.176-1.11,0-.855-.316-2.183-1.801-3.679-1.61-1.621-3.287-2.128-4.81-1.612-.619-.512-1.623-.977-3.231-.977h-.043c-2.78,.01-4.511,1.471-4.517,3.812-.004,1.889,1.237,4.189,2.455,5.99-3.53-2.495-6.179-.84-7.532,.506-3.783,3.763-.173,9.396-.018,9.633,.075,.116,.175,.215,.29,.291,.156,.102,2.645,1.694,5.407,1.694,1.433,0,2.981-.387,4.231-1.715,3.124-3.318,1.36-6.316,.501-7.531,1.805,1.212,4.134,2.465,6.04,2.465h.01c2.352-.006,3.818-1.729,3.828-4.511,.005-1.626-.469-2.637-.989-3.256Zm-5.285-4.585c.576,0,1.288,.318,2.239,1.204,.917,.855,1.223,1.792,1.222,2.27,0,.483-.22,.936-.67,1.384-1.331,1.325-4.769,2.309-7.013,2.803,.495-2.238,1.482-5.662,2.812-6.985,.216-.215,.679-.675,1.409-.675Zm-4.408-.792h.033c.618,0,1.069,.09,1.399,.213-1.156,1.259-2,3.409-2.571,5.336-.9-1.52-1.396-2.83-1.393-3.731,0-.448,.005-1.81,2.532-1.818Zm-1.107,16.793c-2.333,2.321-6.09,.371-6.955-.129-.506-.866-2.472-4.615-.135-6.938,1.835-1.827,3.946-1.617,6.266,.821,3.507,3.687,1.622,5.453,.824,6.246Zm7.956-5.648h-.006c-.9,0-2.207-.488-3.724-1.372,1.937-.571,4.093-1.415,5.348-2.57,.128,.339,.216,.802,.214,1.436-.009,2.501-1.382,2.505-1.833,2.506Z"/>
</svg>
