<?xml version="1.0" encoding="UTF-8"?>
<svg xmlns="http://www.w3.org/2000/svg" id="Layer_1" data-name="Layer 1" viewBox="0 0 24 24">
  <path d="M21.993,15.927c-.154-.116-3.807-2.803-6.882-1.654-.859,.323-1.554,.903-2.111,1.574v-2.283c2.519-.55,4.675-2.985,4.755-5.597v-.048c-.069-3.884-5.06-6.677-5.272-6.794-.308-.169-.682-.164-.987,.013-.531,.31-5.189,3.135-5.25,6.829,.078,2.606,2.224,5.034,4.754,5.593v2.288c-.557-.672-1.252-1.251-2.112-1.574-3.073-1.151-6.728,1.538-6.881,1.654-.312,.233-.461,.628-.379,1.01,.04,.188,1.019,4.62,4.09,5.774,.54,.202,1.097,.286,1.651,.286,1.882,0,3.716-.969,4.632-1.539,.916,.57,2.75,1.539,4.632,1.539,.554,0,1.111-.084,1.65-.286,3.071-1.154,4.05-5.587,4.09-5.774,.082-.382-.066-.776-.379-1.01ZM8.246,7.952c.017-1.015,.709-2.055,1.558-2.942-.14,.826-.115,1.695,.257,2.47,.172,.358,.529,.567,.902,.567,.146,0,.292-.031,.432-.099,.498-.239,.708-.836,.469-1.334-.4-.834,.119-2.237,.578-3.154,1.366,.957,3.265,2.677,3.313,4.47-.071,1.836-1.966,3.724-3.741,3.749-1.812-.025-3.714-1.93-3.769-3.727Zm-1.825,12.886c-1.404-.527-2.281-2.466-2.663-3.678,1.085-.66,3.025-1.545,4.427-1.015,1.405,.527,2.282,2.468,2.664,3.68-1.083,.661-3.017,1.545-4.428,1.013Zm11.159,0c-1.408,.531-3.343-.354-4.427-1.015,.382-1.212,1.258-3.15,2.662-3.678,1.404-.531,3.343,.354,4.428,1.015-.382,1.212-1.258,3.15-2.663,3.678Z"/>
</svg>
