<?xml version="1.0" encoding="UTF-8"?>
<svg xmlns="http://www.w3.org/2000/svg" id="Layer_1" data-name="Layer 1" viewBox="0 0 24 24">
  <path d="M20.356,13.45c-.079-.043-.164-.075-.252-.096-.38-.089-.765-.166-1.153-.233,1.388-4.148,3.2-9.741,3.302-10.056,.152-.47-.061-.979-.5-1.201-1.497-.757-3.284-.764-4.799-.016l-.036,.019c-.216,.111-.384,.297-.474,.522l-4.253,10.786c-.138-.026-.276-.049-.414-.072L7.555,2.39c-.092-.23-.302-.438-.524-.548-1.5-.742-3.288-.732-4.784,.022-.439,.223-.652,.731-.5,1.201,0,0,1.88,5.802,3.303,10.058-.387,.066-.771,.143-1.153,.231-.088,.02-.172,.052-.252,.096-1.645,.895-2.633,2.591-2.644,4.537-.011,1.918,.984,3.669,2.596,4.569,.144,.08,.306,.124,.471,.127,.106,.002,1.788,.028,3.307,.028,.796,0,1.547-.008,2.003-.029,.923-.045,1.801-.194,2.619-.442,.822,.249,1.706,.398,2.628,.442,.457,.021,1.208,.029,2.004,.029,1.519,0,3.2-.026,3.307-.028,.165-.003,.327-.046,.471-.127,1.611-.9,2.606-2.651,2.596-4.569-.011-1.946-.999-3.643-2.644-4.537ZM3.947,3.367c.624-.134,1.284-.09,1.897,.14l3.687,9.355c-.817-.042-1.638-.036-2.454,.02-1.097-3.267-2.521-7.638-3.131-9.514Zm5.332,17.317c-1.067,.053-4.003,.016-4.91,.003-.867-.577-1.375-1.565-1.369-2.688,.007-1.161,.561-2.172,1.488-2.729,2.653-.594,5.45-.583,8.101,.031,.484,.114,.975-.146,1.156-.606L18.156,3.505c.607-.229,1.27-.273,1.897-.138-.851,2.614-3.28,10.064-4.193,12.614-.316,.884-.79,1.698-1.447,2.469-1.143,1.336-2.966,2.13-5.134,2.234Zm10.352,.003c-.847,.012-3.465,.045-4.677,.006,.369-.299,.71-.63,1.019-.992,.776-.909,1.371-1.935,1.77-3.047,.152-.424,.343-.976,.561-1.613,.405,.063,.809,.139,1.207,.229,.929,.557,1.482,1.567,1.489,2.729,.006,1.123-.502,2.111-1.369,2.688Z"/>
</svg>
