<?xml version="1.0" encoding="UTF-8"?>
<svg xmlns="http://www.w3.org/2000/svg" id="Layer_1" data-name="Layer 1" viewBox="0 0 24 24">
  <path d="M14.6,11.951c-.655,.021-1.31,.037-1.964,.051-.144-.004-.276-.088-.321-.232-.195-.627-.39-1.254-.588-1.88-.314-.996-1.218-1.64-2.302-1.64s-1.989,.644-2.302,1.639c-.199,.626-.394,1.253-.588,1.88-.045,.146-.162,.224-.321,.233-.655-.014-1.31-.03-1.954-.051-1.002-.06-1.872,.545-2.224,1.499-.382,1.038-.059,2.188,.814,2.868,.532,.407,1.061,.806,1.589,1.199,.13,.097,.177,.268,.119,.436-.218,.636-.445,1.276-.68,1.913-.377,.995-.105,2.035,.692,2.651,.834,.645,2.012,.642,2.934-.015l1.674-1.199c.149-.106,.342-.105,.492,0l1.678,1.202c.461,.327,.988,.491,1.504,.491,.51,0,1.01-.16,1.425-.48,.797-.616,1.069-1.656,.695-2.644-.238-.645-.464-1.285-.683-1.92-.058-.169-.011-.34,.119-.438,.528-.393,1.057-.791,1.596-1.203,.865-.675,1.189-1.825,.807-2.863-.352-.955-1.23-1.558-2.213-1.499Zm.184,2.779c-.525,.401-1.047,.794-1.568,1.182-.828,.617-1.157,1.698-.816,2.691,.223,.649,.455,1.304,.701,1.972,.095,.251-.01,.333-.045,.359-.103,.08-.308,.113-.544-.056l-1.676-1.2c-.417-.299-.904-.45-1.397-.45-.506,0-1.018,.159-1.466,.479l-1.63,1.168c-.24,.171-.445,.139-.548,.059-.035-.026-.14-.108-.042-.367,.244-.66,.475-1.314,.698-1.965,.34-.992,.012-2.073-.816-2.689-.521-.389-1.043-.781-1.561-1.178-.232-.181-.209-.458-.16-.594,.074-.2,.201-.194,.271-.192,.663,.022,1.326,.039,1.99,.053,1.054,.023,1.959-.639,2.271-1.639,.194-.624,.387-1.247,.586-1.872,.068-.218,.299-.241,.395-.241s.326,.023,.395,.241c0,0,0,.002,0,.003,.198,.622,.391,1.245,.585,1.869,.311,1.001,1.221,1.653,2.271,1.639,.664-.014,1.326-.03,2-.053,.06,0,.185-.009,.26,.192,.05,.136,.072,.413-.152,.589Z"/>
  <path d="M22.003,4.359c-.271-.736-.954-1.192-1.707-1.157-.336,.011-.673,.02-1.009,.027l-.303-.969h0s0-.003,0-.003c-.238-.752-.943-1.258-1.755-1.258s-1.519,.507-1.755,1.257l-.305,.973c-.336-.008-.671-.017-.995-.026-.772-.025-1.45,.419-1.722,1.156-.289,.783-.043,1.652,.618,2.166,.281,.216,.561,.427,.84,.636-.117,.338-.237,.677-.361,1.012-.289,.763-.076,1.563,.543,2.041,.638,.493,1.531,.496,2.229,0l.906-.65,.911,.653c.345,.245,.74,.367,1.129,.367,.391,0,.775-.123,1.095-.37,.618-.478,.832-1.279,.546-2.035-.126-.341-.247-.681-.364-1.019,.279-.208,.56-.42,.847-.64,.654-.51,.9-1.379,.611-2.162Zm-2.761,1.279c-.635,.472-.888,1.298-.628,2.057,.061,.178,.123,.356,.187,.536l-.499-.357c-.321-.229-.698-.345-1.075-.345s-.754,.115-1.076,.346l-.498,.356c.063-.18,.125-.358,.187-.536,.259-.759,.007-1.585-.627-2.056-.188-.14-.375-.28-.562-.422,.211,.005,.422,.01,.634,.015,.788-.008,1.505-.49,1.745-1.261l.196-.627,.197,.629c.24,.769,.929,1.277,1.746,1.259,.21-.004,.421-.01,.633-.015-.188,.142-.375,.282-.561,.421Z"/>
</svg>
