<?xml version="1.0" encoding="UTF-8"?>
<svg xmlns="http://www.w3.org/2000/svg" id="Layer_1" data-name="Layer 1" viewBox="0 0 24 24">
  <path d="M15.559,11.448c-.501,0-1.031,.018-1.564,.075l.45-5.821c.037-.475-.267-.91-.725-1.04-.094-.026-2.098-.585-4.637-.712v-1.951c0-.552-.447-1-1-1s-1,.448-1,1v1.951c-2.534,.127-4.542,.685-4.637,.712-.459,.129-.763,.564-.726,1.04l1.213,15.674c.026,.335,.219,.634,.512,.797,.152,.084,1.578,.826,4.638,.826,1.942,0,3.233-.307,3.921-.533,1.358,.533,2.803,.533,3.554,.533,2.886,0,6.723-.599,6.723-5.776s-3.837-5.776-6.723-5.776Zm4.615,4.53H10.943c.366-1.843,1.708-2.53,4.615-2.53s4.249,.687,4.615,2.53ZM8.084,5.925c1.763,0,3.382,.279,4.302,.475l-.175,2.261H3.956l-.175-2.262c.919-.196,2.535-.474,4.303-.474Zm-3.204,14.672l-.769-9.937h7.945l-.103,1.327c-1.732,.668-3.117,2.126-3.117,5.236,0,1.648,.412,2.826,1.04,3.668-.494,.064-1.089,.108-1.792,.108-1.609,0-2.655-.233-3.204-.402Zm10.679,.402c-3.108,0-4.453-.834-4.685-3.021h3.823l.903,.906c.35,.351,.815,.544,1.31,.544h.002c.495,0,.959-.194,1.307-.544l.903-.906h1.126c-.223,2.214-1.535,3.021-4.687,3.021Z"/>
</svg>
