<?xml version="1.0" encoding="UTF-8"?>
<svg xmlns="http://www.w3.org/2000/svg" id="Layer_1" data-name="Layer 1" viewBox="0 0 24 24">
  <path d="M22.515,5.908c-.032-.205-.127-.395-.271-.544-.057-.058-1.413-1.429-3.733-1.802-1.433-.231-3.002-.062-3.387-.014-.536-.069-1.983-.211-3.304,.034-1.256,.233-2.343,.833-2.994,1.262-.651-.428-1.737-1.029-2.992-1.262-1.628-.301-3.44-.017-3.518-.004-.421,.068-.753,.396-.826,.816-.02,.115-.488,2.871-.488,7.606,0,2.909,.466,5.948,.485,6.076,.032,.205,.127,.395,.271,.544,.057,.058,1.413,1.429,3.733,1.802,.553,.089,1.126,.118,1.644,.118,.76,0,1.401-.064,1.681-.096,.283,.038,.933,.112,1.704,.112,.524,0,1.105-.034,1.663-.138,1.264-.234,2.356-.841,3.006-1.27,.652,.428,1.733,1.023,2.981,1.254,.559,.104,1.14,.138,1.664,.138,1.004,0,1.803-.125,1.854-.134,.421-.068,.753-.396,.826-.816,.02-.115,.488-2.871,.488-7.606,0-2.909-.466-5.948-.485-6.076ZM5.808,18.448c-1.186-.19-2.022-.742-2.396-1.035-.12-.876-.411-3.22-.411-5.413,0-3.165,.221-5.432,.355-6.526,.599-.043,1.412-.055,2.111,.074,.997,.185,1.886,.71,2.357,1.033v11.941c-.562,.033-1.32,.038-2.017-.074Zm6.01,.004c-.681,.126-1.435,.117-1.993,.082V6.581c.473-.323,1.361-.848,2.357-1.033h0c.681-.126,1.435-.118,1.993-.082v11.953c-.473,.323-1.361,.848-2.358,1.033Zm8.827,.059c-.598,.043-1.412,.055-2.111-.074-.997-.185-1.886-.71-2.357-1.033V5.462c.564-.032,1.321-.037,2.017,.074,1.186,.19,2.022,.742,2.396,1.035,.12,.876,.411,3.22,.411,5.413,0,3.165-.221,5.432-.355,6.526Z"/>
</svg>
