<?xml version="1.0" encoding="UTF-8"?>
<svg xmlns="http://www.w3.org/2000/svg" id="Layer_1" data-name="Layer 1" viewBox="0 0 24 24">
  <path d="M12,4.274c.553,0,1-.447,1-1v-1.274c0-.553-.447-1-1-1s-1,.447-1,1v1.274c0,.553,.447,1,1,1Z"/>
  <path d="M16.437,4.594c.553,0,1-.447,1-1v-1.275c0-.553-.447-1-1-1s-1,.447-1,1v1.275c0,.553,.447,1,1,1Z"/>
  <path d="M7.563,4.594c.553,0,1-.447,1-1v-1.275c0-.553-.447-1-1-1s-1,.447-1,1v1.275c0,.553,.447,1,1,1Z"/>
  <path d="M21.256,6.609c-.169-.047-4.204-1.148-9.256-1.148S2.913,6.562,2.744,6.609c-.434,.12-.733,.515-.733,.964v3.697c0,3.306,2.378,5.4,5.285,6.193-1.132,1.099-2.247,2.51-2.869,4.189-.192,.519,.072,1.094,.59,1.285,.115,.043,.232,.062,.348,.062,.406,0,.788-.249,.938-.652,.723-1.951,2.328-3.514,3.626-4.525,.03,0,.059,0,.089,0h.983v4.177c0,.553,.447,1,1,1s1-.447,1-1v-4.177h.983c.029,0,.059,0,.088,0,1.296,1.01,2.902,2.572,3.626,4.525,.149,.403,.531,.652,.938,.652,.115,0,.233-.02,.348-.062,.518-.192,.782-.768,.59-1.285-.623-1.68-1.737-3.091-2.869-4.189,2.907-.793,5.285-2.887,5.285-6.193v-3.697c0-.449-.3-.844-.733-.964Zm-1.267,4.661c0,3.128-3.113,4.553-6.006,4.553h-3.967c-2.893,0-6.006-1.425-6.006-4.553v-2.912c1.352-.306,4.426-.897,7.989-.897s6.635,.592,7.989,.897v2.912Z"/>
</svg>
