<?xml version="1.0" encoding="UTF-8"?>
<svg xmlns="http://www.w3.org/2000/svg" id="Layer_1" data-name="Layer 1" viewBox="0 0 24 24">
  <path d="M21.806,2.858c-.1-.325-.357-.578-.685-.67-.173-.049-4.273-1.188-9.121-1.188S3.052,2.139,2.88,2.188c-.329,.093-.588,.347-.687,.674-.049,.161-1.193,4.007-1.193,9.139,0,5.175,1.146,8.982,1.194,9.142,.1,.325,.358,.578,.686,.67,.172,.049,4.272,1.188,9.121,1.188s8.947-1.139,9.12-1.188c.329-.093,.588-.347,.687-.674,.049-.161,1.193-4.007,1.193-9.139,0-5.175-1.146-8.982-1.194-9.142Zm-1.247,3.678c-1.074-.236-2.707-.544-4.646-.747,.005-.239,.008-.477,.008-.712,0-.349-.007-1.155-.022-1.833,1.874,.224,3.378,.55,4.138,.732,.133,.523,.336,1.408,.521,2.56Zm-6.664-3.475c.016,.655,.026,1.573,.026,2.016,0,1.719-.17,3.662-.266,4.62-.405,.13-1.011,.28-1.655,.28s-1.251-.15-1.656-.28c-.096-.955-.265-2.889-.265-4.621,0-.444,.01-1.362,.027-2.016,.614-.038,1.248-.06,1.894-.06s1.281,.022,1.895,.06Zm-5.794,.184c-.014,.678-.022,1.483-.022,1.833,0,.236,.003,.474,.008,.712-1.935,.203-3.567,.511-4.641,.746,.185-1.148,.387-2.035,.518-2.56,.762-.182,2.266-.507,4.137-.732Zm11.934,16.781c-1.242,.298-4.458,.975-8.035,.975s-6.796-.678-8.038-.976c-.3-1.184-.962-4.23-.962-8.024,0-1.198,.068-2.327,.17-3.348,.88-.212,2.727-.614,5.008-.861,.098,1.493,.235,2.664,.244,2.739,.041,.342,.254,.64,.566,.787,.057,.027,1.414,.66,3.012,.66s2.954-.632,3.012-.66c.312-.147,.526-.445,.566-.788,.009-.076,.145-1.251,.243-2.739,2.286,.248,4.133,.65,5.012,.862,.101,1.017,.167,2.145,.167,3.348,0,3.752-.665,6.829-.965,8.025Z"/>
  <path d="M16.937,16.511h-3.234c-.553,0-1,.448-1,1s.447,1,1,1h3.234c.553,0,1-.448,1-1s-.447-1-1-1Z"/>
</svg>
