<?xml version="1.0" encoding="UTF-8"?>
<svg xmlns="http://www.w3.org/2000/svg" id="Layer_1" data-name="Layer 1" viewBox="0 0 24 24">
  <path d="M12.01,1C6.547,1,3.286,4.275,3.286,9.761c0,4.767,2.854,6.688,4.555,7.408,.153,.065,.245,.204,.245,.371,0,2.433,0,5.46,3.924,5.46s3.925-3.031,3.925-5.466c0-.167,.092-.306,.244-.371,1.693-.721,4.535-2.642,4.535-7.402,0-5.567-3.173-8.761-8.704-8.761Zm0,20c-1.228,0-1.75-.112-1.886-2.103,.575,.073,1.199,.109,1.886,.109s1.313-.037,1.889-.111c-.129,2-.634,2.104-1.889,2.104Zm3.385-5.677c-.671,.286-1.163,.854-1.362,1.531-.311,.054-.645,.094-1.004,.119v-5.007c.74-.267,1.325-.782,1.742-1.201,.39-.391,.388-1.024-.003-1.414-.392-.39-1.023-.388-1.415,.003-1.076,1.084-1.654,1.035-2.685,0-.391-.392-1.023-.394-1.415-.003-.391,.39-.393,1.023-.003,1.414,.596,.598,1.184,.998,1.778,1.208v5.003c-.373-.025-.72-.065-1.042-.12-.201-.677-.693-1.243-1.367-1.528-1.521-.645-3.334-2.133-3.334-5.566,0-5.588,3.656-6.761,6.724-6.761s6.704,1.173,6.704,6.761c0,3.429-1.805,4.917-3.319,5.562Z"/>
</svg>
