<?xml version="1.0" encoding="UTF-8"?>
<svg xmlns="http://www.w3.org/2000/svg" id="Layer_1" data-name="Layer 1" viewBox="0 0 24 24">
  <path d="M22.048,6.313h0c-.687-2.045-2.317-3.675-4.361-4.361-3.774-1.266-7.601-1.266-11.374,0-2.045,.686-3.675,2.316-4.361,4.36-1.266,3.774-1.266,7.6,0,11.374,.686,2.044,2.316,3.675,4.361,4.361,1.884,.632,3.797,.952,5.687,.952,3.022,0,6.084-.398,9.101-1.183,.351-.091,.625-.365,.716-.716,.785-3.017,1.183-6.079,1.183-9.101,0-1.889-.32-3.802-.952-5.687Zm-2.022,13.712c-2.667,.647-5.364,.975-8.025,.975-1.672,0-3.372-.286-5.05-.849-1.454-.488-2.613-1.647-3.101-3.101-1.125-3.351-1.125-6.75,0-10.101,.487-1.454,1.646-2.613,3.101-3.1,1.675-.562,3.363-.844,5.05-.844s3.375,.281,5.051,.844c1.454,.487,2.613,1.646,3.101,3.101,.563,1.679,.849,3.378,.849,5.05,0,2.662-.328,5.358-.975,8.025Z"/>
  <path d="M17.064,11H6.936c-.552,0-1,.448-1,1s.448,1,1,1h10.128c.552,0,1-.448,1-1s-.448-1-1-1Z"/>
  <path d="M16.064,15.021H7.936c-.552,0-1,.448-1,1s.448,1,1,1h8.128c.552,0,1-.448,1-1s-.448-1-1-1Z"/>
  <path d="M7.936,8.979h2.904c.552,0,1-.448,1-1s-.448-1-1-1h-2.904c-.552,0-1,.448-1,1s.448,1,1,1Z"/>
</svg>
