<?xml version="1.0" encoding="UTF-8"?>
<svg xmlns="http://www.w3.org/2000/svg" id="Layer_1" data-name="Layer 1" viewBox="0 0 24 24">
  <path d="M17.252,18.54c.48-.454,.804-1.125,1.179-1.903,.435-.903,.929-1.928,1.729-2.726,1.912-1.908,2.841-3.696,2.841-5.468,0-1.426-.587-2.783-1.833-4.218l.952-.95c.391-.39,.392-1.023,.001-1.415-.39-.391-1.023-.392-1.415-.001l-.958,.956C16.573,.109,13.479,.446,10.077,3.841c-.792,.791-1.82,1.285-2.726,1.72-.783,.376-1.458,.701-1.914,1.179-1.498,1.577-1.394,3.849,.192,6.378-.83,.851-1.233,1.689-1.233,2.559,0,1.171,.744,2.049,1.304,2.608,.87,.868,1.745,1.302,2.621,1.302,.853,0,1.706-.412,2.554-1.236,1.323,.826,2.577,1.248,3.697,1.248,1.02,0,1.929-.349,2.681-1.06ZM6.887,8.119c.202-.213,.775-.488,1.33-.754,.998-.48,2.24-1.077,3.273-2.108,1.592-1.589,2.894-2.243,4.067-2.243,1.257,0,2.366,.752,3.525,1.909,1.309,1.306,1.918,2.425,1.918,3.521,0,1.212-.737,2.538-2.254,4.052-1.041,1.039-1.638,2.277-2.117,3.273-.265,.549-.539,1.118-.751,1.318-1.984,1.875-6.027-2.048-6.482-2.501-.455-.454-4.387-4.491-2.509-6.467Zm.225,8.752c-.482-.482-.717-.872-.717-1.192,0-.3,.205-.633,.443-.918,.346,.41,.727,.824,1.144,1.24,.419,.418,.835,.799,1.247,1.146-.851,.719-1.352,.489-2.118-.276Z"/>
  <path d="M20.771,16.422c-.552,0-1,.448-1,1,0,1.965-1.603,3.564-3.573,3.564-.552,0-1,.448-1,1s.448,1,1,1c3.073,0,5.573-2.496,5.573-5.564,0-.552-.448-1-1-1Z"/>
  <path d="M7.573,3.213c0-.552-.448-1-1-1C3.5,2.213,1,4.709,1,7.777c0,.552,.448,1,1,1s1-.448,1-1c0-1.965,1.603-3.564,3.573-3.564,.552,0,1-.448,1-1Z"/>
</svg>
