<?xml version="1.0" encoding="UTF-8"?>
<svg xmlns="http://www.w3.org/2000/svg" id="Layer_1" data-name="Layer 1" viewBox="0 0 24 24">
  <path d="M22.368,12.278c-.129-.22-.338-.382-.583-.453-.513-.149-1.119-.332-1.581-.473,.06-4.68-.655-8.161-.687-8.314-.076-.365-.349-.657-.708-.758-.149-.042-3.693-1.027-7.881-1.027s-7.731,.985-7.88,1.027c-.287,.081-.522,.285-.643,.557-.058,.129-1.406,3.234-1.406,9.346,0,4.306,.995,5.827,1.194,6.088,.13,.17,.311,.293,.516,.353,.036,.011,.345,.099,.969,.212-.082,.278-.125,.569-.125,.866,0,1.68,1.367,3.047,3.046,3.047s3.046-1.367,3.046-3.047c0-.109-.007-.218-.018-.326,.669,.02,1.391,.031,2.169,.031,1.139,0,2.181-.023,3.128-.062-.014,.118-.022,.237-.022,.357,0,1.68,1.367,3.047,3.046,3.047s3.046-1.367,3.046-3.047c0-.31-.047-.614-.136-.903,.535-.086,.824-.149,.864-.158,.271-.06,.504-.229,.645-.468,.065-.11,.632-1.125,.632-2.935,0-1.831-.567-2.848-.632-2.958Zm-6.375-1.192v-3.875h2.064c.094,1.122,.161,2.44,.151,3.875h-2.215ZM10.93,3.252c2.938,0,5.594,.535,6.741,.803,.049,.292,.109,.682,.171,1.155H3.751c.122-.492,.236-.868,.323-1.128,1.078-.257,3.821-.83,6.855-.83Zm-1.133,7.833h-2.197v-3.875h2.197v3.875ZM3.356,7.21h2.244v3.875H3.016c.044-1.525,.177-2.817,.34-3.875Zm-.339,5.875h6.779v4.292c-3.408-.097-5.363-.424-6.137-.585-.203-.48-.56-1.605-.642-3.707Zm4.629,6.615c0,.578-.469,1.047-1.046,1.047s-1.046-.47-1.046-1.047c0-.208,.062-.409,.175-.579,.533,.057,1.141,.11,1.829,.156,.051,.116,.089,.257,.089,.423Zm4.15-2.295V7.21h2.196v10.164c-.686,.02-1.418,.031-2.196,.031h0Zm7.199,2.295c0,.578-.469,1.047-1.046,1.047s-1.046-.47-1.046-1.047c0-.192,.049-.349,.113-.474,.657-.048,1.247-.102,1.769-.157,.136,.18,.211,.4,.211,.631Zm1.793-2.92c-.762,.13-2.381,.365-4.796,.507v-4.201h3.045c.304,.094,1.038,.319,1.731,.525,.104,.319,.231,.866,.231,1.625,0,.704-.113,1.225-.211,1.544Z"/>
</svg>
