<?xml version="1.0" encoding="UTF-8"?>
<svg xmlns="http://www.w3.org/2000/svg" id="Layer_1" data-name="Layer 1" viewBox="0 0 24 24">
  <path d="M22.437,9.424c-.063-.306-.267-.565-.548-.7-.282-.134-.61-.13-.889,.013l-2.414,1.239c-.266-1.397-.58-2.273-.602-2.336-.114-.316-.381-.554-.709-.631-.069-.016-.932-.218-2.265-.415l-1.739-3.406c-.151-.296-.534-.509-.864-.55-2.968-.363-5.975-.359-8.937,.012-.548,.068-.937,.568-.868,1.116s.562,.941,1.116,.868c2.633-.329,5.301-.353,8.016-.06l.891,1.746c-.824-.067-1.716-.111-2.643-.111-3.868,0-7.155,.767-7.294,.799-.329,.078-.597,.317-.711,.635-.04,.111-.977,2.759-.977,6.277,0,3.548,.938,6.17,.979,6.281,.114,.316,.381,.554,.709,.631,.138,.033,3.418,.799,7.294,.799s7.154-.767,7.293-.799c.329-.078,.597-.317,.711-.635,.023-.063,.334-.942,.599-2.333l2.416,1.24c.144,.074,.3,.11,.457,.11,.147,0,.295-.033,.432-.098,.281-.135,.484-.394,.548-.7,.748-3.614,.748-5.379,0-8.994Zm-12.455,10.208c-2.742,0-5.22-.42-6.284-.63-.248-.873-.697-2.771-.697-5.082,0-2.293,.45-4.202,.699-5.081,1.066-.209,3.547-.63,6.282-.63s5.219,.42,6.283,.63c.248,.873,.697,2.771,.697,5.081,0,2.293-.45,4.202-.699,5.082-1.066,.209-3.546,.63-6.281,.63Zm10.745-2.916l-1.849-.949c.052-.579,.084-1.198,.084-1.847s-.032-1.268-.083-1.846l1.848-.949c.365,2.105,.365,3.486,0,5.591Z"/>
</svg>
