<?xml version="1.0" encoding="UTF-8"?>
<svg xmlns="http://www.w3.org/2000/svg" id="Layer_1" data-name="Layer 1" viewBox="0 0 24 24">
  <path d="M14.202,3h7.638c.553,0,1-.447,1-1s-.447-1-1-1h-7.638c-.553,0-1,.447-1,1s.447,1,1,1Z"/>
  <path d="M21.84,4.511h-7.34c-.553,0-1,.447-1,1s.447,1,1,1h7.34c.553,0,1-.447,1-1s-.447-1-1-1Z"/>
  <path d="M21.84,8.021h-6.638c-.553,0-1,.447-1,1s.447,1,1,1h6.638c.553,0,1-.447,1-1s-.447-1-1-1Z"/>
  <path d="M21.84,11.532h-4.404c-.553,0-1,.447-1,1s.447,1,1,1h4.404c.553,0,1-.447,1-1s-.447-1-1-1Z"/>
  <path d="M12.453,10.101c-.011-1.73-.04-4.551-.082-5.199-.142-2.188-2.005-3.901-4.241-3.901s-4.099,1.714-4.241,3.901c-.041,.643-.07,3.5-.081,5.2-1.78,1.069-2.648,3.03-2.648,5.969,0,6.211,3.979,6.93,6.971,6.93s6.97-.719,6.97-6.93c0-2.939-.868-4.9-2.648-5.97Zm-4.322,10.899c-3.069,0-4.971-.824-4.971-4.93,0-3.162,1.172-4.055,2.054-4.45,.357-.16,.588-.516,.59-.907,.009-2,.042-5.088,.081-5.683,.074-1.139,1.06-2.03,2.245-2.03s2.171,.892,2.245,2.031c.039,.592,.072,3.68,.081,5.681,.002,.392,.233,.747,.591,.907,.882,.396,2.054,1.287,2.054,4.451,0,4.105-1.902,4.93-4.97,4.93Z"/>
  <path d="M9.13,13.303v-4.281c0-.553-.448-1-1-1s-1,.447-1,1v4.281c-1.139,.409-1.955,1.495-1.955,2.768,0,1.622,1.325,2.941,2.955,2.941s2.954-1.319,2.954-2.941c0-1.273-.816-2.359-1.954-2.768Zm-1,3.709c-.526,0-.955-.422-.955-.941s.428-.941,.955-.941,.954,.422,.954,.941-.428,.941-.954,.941Z"/>
</svg>
