<?xml version="1.0" encoding="UTF-8"?>
<svg xmlns="http://www.w3.org/2000/svg" id="Layer_1" data-name="Layer 1" viewBox="0 0 24 24">
  <path d="M18.579,11.583c.974-.529,1.482-1.552,1.482-3.024,0-2.286-1.162-3.445-3.455-3.445-.386,0-.737,.033-1.056,.098l.003-1.7c0-.04-.002-.08-.007-.119-.029-.245-.396-2.392-4.28-2.392-3.668,0-4.521,1.929-4.606,2.149-.199,.515,.047,1.117,.562,1.316,.388,.15,.805,.055,1.073-.22v4.336c-.579,.397-1.167,.894-1.756,1.48-2.291,2.281-3.392,5.17-2.946,7.727,.332,1.907,1.479,3.41,3.227,4.229,1.396,.655,3.215,.982,5.051,.982s3.671-.324,5.13-.974c2.4-1.068,3.179-2.784,3.41-4.036,.399-2.164-.515-4.55-1.831-6.408Zm-1.974-4.469c1.092,0,1.455,.209,1.455,1.445,0,1.099-.319,1.328-.859,1.406-.574-.562-1.121-1.023-1.658-1.395l.002-1.254c.211-.135,.559-.202,1.06-.202Zm-3.047-3.485s0-.001,0-.003c.002,.001,.001,.002,0,.003Zm-3.752,6.358c.302-.18,.488-.507,.488-.859V3.064c.28-.04,.603-.064,.971-.064,1.643,0,2.204,.475,2.287,.614l-.009,5.498c0,.352,.184,.678,.485,.859,.584,.351,1.192,.844,1.859,1.509,.171,.17,.34,.354,.507,.549H7.437c.162-.187,.332-.37,.512-.549,.639-.637,1.264-1.139,1.856-1.493Zm8.637,7.642c-.212,1.149-.95,1.991-2.256,2.572-2.376,1.056-6.276,1.061-8.52,.008-1.157-.543-1.886-1.498-2.106-2.762-.188-1.082,.015-2.265,.557-3.417h11.609c.592,1.173,.927,2.457,.716,3.6Z"/>
</svg>
