<?xml version="1.0" encoding="UTF-8"?>
<svg xmlns="http://www.w3.org/2000/svg" id="Layer_1" data-name="Layer 1" viewBox="0 0 24 24">
  <path d="M22.371,3.915c-.063-.323-.28-.594-.582-.725-.096-.042-2.394-1.03-5.094-1.03-2.013,0-3.789,.954-4.695,1.544-.906-.59-2.681-1.544-4.695-1.544-2.7,0-4.998,.988-5.094,1.03-.302,.131-.519,.402-.582,.725-.026,.132-.629,3.277-.629,7.476,0,2.388,.195,4.427,.359,5.717,.181,1.42,1.237,2.59,2.629,2.912l7.787,1.796c.074,.017,.149,.025,.225,.025,.074,0,.148-.009,.22-.025,.002,0,.003,0,.005,0l7.787-1.796c1.392-.321,2.448-1.491,2.629-2.911,.164-1.29,.359-3.329,.359-5.717,0-4.199-.603-7.344-.629-7.476ZM3.344,16.855c-.157-1.233-.344-3.182-.344-5.465,0-3.013,.333-5.499,.5-6.552,.734-.254,2.204-.679,3.805-.679,1.576,0,3.036,.84,3.695,1.281v14.143l-6.562-1.513c-.58-.134-1.02-.622-1.095-1.215Zm17.312,0c-.075,.593-.515,1.081-1.094,1.214l-6.562,1.513V5.442c.661-.441,2.128-1.282,3.695-1.282,1.601,0,3.071,.426,3.806,.68,.167,1.051,.5,3.53,.5,6.551,0,2.283-.187,4.232-.344,5.465Z"/>
</svg>
