<?xml version="1.0" encoding="UTF-8"?>
<svg xmlns="http://www.w3.org/2000/svg" id="Layer_1" data-name="Layer 1" viewBox="0 0 24 24">
  <path d="M22.8,9.069c-.087-.33-.335-.593-.659-.698-.067-.022-.639-.183-1.31-.229-.531-2.802-1.442-4.64-1.496-4.747-.107-.212-.285-.379-.504-.471-.111-.047-2.764-1.149-6.831-1.149s-6.718,1.102-6.83,1.149c-.22,.093-.4,.262-.506,.476-.054,.108-.961,1.957-1.491,4.745-.673,.046-1.247,.206-1.313,.228-.324,.105-.573,.368-.659,.698-.021,.078-.201,.794-.201,1.745,0,.96,.181,1.67,.201,1.748,.087,.328,.334,.59,.657,.695,.016,.005,.059,.019,.125,.037-.044,.429-.091,1.057-.091,1.781,0,1.342,.158,2.34,.165,2.382,.068,.422,.397,.755,.819,.827,.037,.006,.255,.043,.621,.096v.819c0,1.669,1.357,3.027,3.024,3.027s3.024-1.358,3.024-3.027v-.254c.784,.035,1.607,.056,2.454,.056s1.669-.021,2.453-.056v.254c0,1.669,1.356,3.027,3.024,3.027s3.025-1.358,3.025-3.027v-.82c.365-.053,.582-.09,.619-.096,.423-.072,.753-.405,.82-.829,.007-.042,.165-1.05,.165-2.38,0-.727-.046-1.353-.09-1.781,.066-.018,.109-.032,.125-.037,.322-.105,.569-.367,.656-.695,.021-.078,.201-.788,.201-1.748,0-.951-.18-1.667-.2-1.745ZM6.298,4.638c.794-.268,2.877-.864,5.702-.864s4.914,.597,5.704,.865c.388,.905,1.373,3.504,1.49,6.8-1.705-.324-4.319-.705-7.195-.705s-5.487,.381-7.194,.705c.118-3.271,1.103-5.887,1.492-6.801Zm-2.348,11.785c-.031-.356-.059-.824-.059-1.349,0-.555,.032-1.049,.065-1.415,1.328-.3,4.519-.926,8.043-.926s6.718,.625,8.043,.926c.033,.364,.064,.856,.064,1.415,0,.522-.028,.99-.059,1.349-1.387,.195-4.554,.578-8.049,.578s-6.665-.383-8.049-.578Z"/>
  <circle cx="8.35" cy="14.868" r=".999"/>
  <circle cx="15.649" cy="14.868" r=".999"/>
</svg>
