<?xml version="1.0" encoding="UTF-8"?>
<svg xmlns="http://www.w3.org/2000/svg" id="Layer_1" data-name="Layer 1" viewBox="0 0 24 24">
  <g>
    <path d="M6.489,5.185c.982-.288,2.043-.143,2.883,.383l.785,.527c-1.854,1.163-3.022,2.682-3.708,4.778-.172,.525,.115,1.088,.639,1.261,.621,.205,1.124-.218,1.261-.639,.635-1.941,1.711-3.169,3.664-4.154l5.2,3.491c.171,.115,.365,.17,.557,.17,.322,0,.638-.155,.831-.442,.308-.459,.186-1.08-.272-1.388L10.462,3.891c-1.352-.847-3.003-1.077-4.537-.625-.53,.156-.833,.712-.677,1.242,.156,.53,.712,.834,1.242,.677Z"/>
    <path d="M2.139,16.943c.963,0,1.836-.395,2.465-1.032,.629,.637,1.502,1.032,2.465,1.032s1.836-.395,2.465-1.032c.629,.637,1.502,1.032,2.465,1.032s1.836-.395,2.465-1.032c.629,.637,1.502,1.032,2.465,1.032s1.836-.395,2.465-1.032c.628,.637,1.501,1.032,2.465,1.032,.552,0,1-.448,1-1s-.448-1-1-1c-.808,0-1.465-.656-1.465-1.463,0-.552-.448-1-1-1s-1,.448-1,1c0,.807-.657,1.463-1.465,1.463s-1.465-.656-1.465-1.463c0-.552-.448-1-1-1s-1,.448-1,1c0,.807-.657,1.463-1.465,1.463s-1.465-.656-1.465-1.463c0-.552-.448-1-1-1s-1,.448-1,1c0,.807-.657,1.463-1.465,1.463s-1.465-.656-1.465-1.463c0-.552-.448-1-1-1s-1,.448-1,1c0,.807-.657,1.463-1.465,1.463-.552,0-1,.448-1,1s.448,1,1,1Z"/>
    <path d="M21.861,21c-.808,0-1.465-.656-1.465-1.463,0-.552-.448-1-1-1s-1,.448-1,1c0,.807-.657,1.463-1.465,1.463s-1.465-.656-1.465-1.463c0-.552-.448-1-1-1s-1,.448-1,1c0,.807-.657,1.463-1.465,1.463s-1.465-.656-1.465-1.463c0-.552-.448-1-1-1s-1,.448-1,1c0,.807-.657,1.463-1.465,1.463s-1.465-.656-1.465-1.463c0-.552-.448-1-1-1s-1,.448-1,1c0,.807-.657,1.463-1.465,1.463-.552,0-1,.448-1,1s.448,1,1,1c.963,0,1.836-.395,2.465-1.032,.629,.637,1.502,1.032,2.465,1.032s1.836-.395,2.465-1.032c.629,.637,1.502,1.032,2.465,1.032s1.836-.395,2.465-1.032c.629,.637,1.502,1.032,2.465,1.032s1.836-.395,2.465-1.032c.628,.637,1.501,1.032,2.465,1.032,.552,0,1-.448,1-1s-.448-1-1-1Z"/>
  </g>
  <path d="M15.76,5.833c1.847,1.324,3.07,.156,3.638-.637,.562-.784,1.203-2.318-.621-3.623-1.843-1.29-3.056-.144-3.615,.655-.555,.793-1.218,2.303,.598,3.605Z"/>
</svg>
