<?xml version="1.0" encoding="UTF-8"?>
<svg xmlns="http://www.w3.org/2000/svg" id="Layer_1" data-name="Layer 1" viewBox="0 0 24 24">
  <path d="M23,9.018c0-1.419-.95-2.622-2.25-3.007,.191-.434,.295-.908,.295-1.398,0-1.924-1.569-3.49-3.499-3.49-1.098,0-2.097,.516-2.743,1.328-1.255-.916-3.146-.96-4.459-.054-.424-.221-.897-.337-1.391-.337-1.144,0-2.137,.623-2.646,1.562-.132-.018-.266-.026-.4-.026-1.497,0-2.742,1.096-2.972,2.525-1.147,.474-1.936,1.597-1.936,2.897,0,1.317,.818,2.446,1.974,2.91l1.773,9.125c.058,.296,.245,.55,.512,.692,.087,.046,2.181,1.133,6.741,1.133s6.654-1.086,6.741-1.133c.267-.142,.454-.396,.512-.692l1.773-9.125c1.156-.464,1.974-1.593,1.974-2.91ZM4.023,7.888c.271-.028,.521-.167,.688-.383,.167-.216,.238-.491,.197-.762-.007-.048-.011-.096-.011-.146,0-.553,.453-1.002,1.01-1.002,.187,0,.368,.051,.525,.146,.295,.179,.662,.194,.972,.038,.309-.157,.515-.461,.544-.806,.045-.512,.486-.914,1.005-.914,.277,0,.535,.109,.728,.308,.193,.2,.455,.307,.739,.305,.278-.006,.541-.127,.727-.335,.352-.396,.857-.623,1.386-.623,.699,0,1.331,.386,1.649,1.007,.198,.388,.618,.607,1.057,.53,.43-.073,.763-.416,.823-.848,.103-.73,.74-1.281,1.484-1.281,.826,0,1.499,.668,1.499,1.49,0,.583-.347,1.116-.883,1.357-.43,.193-.666,.661-.566,1.122,.099,.461,.506,.79,.978,.79h1.282c.631,0,1.145,.51,1.145,1.136s-.514,1.136-1.145,1.136h-.682c-1.493-.361-4.183-.888-7.174-.888s-5.681,.527-7.174,.888h-.682c-.631,0-1.145-.51-1.145-1.136,0-.583,.439-1.069,1.023-1.13Zm1.032,4.271c.676-.169,1.711-.4,2.956-.584l.611,9.055c-.964-.155-1.629-.35-2.015-.487l-1.552-7.984Zm5.586,8.682l-.64-9.493c.643-.051,1.313-.082,1.999-.082s1.356,.031,1.999,.082l-.64,9.493c-.421,.023-.873,.037-1.359,.037s-.937-.013-1.359-.037Zm6.751-.698c-.388,.137-1.052,.332-2.015,.487l.611-9.054c1.243,.184,2.278,.414,2.955,.584l-1.551,7.983Z"/>
  <g>
    <circle cx="13.515" cy="7.33" r="1.001"/>
    <circle cx="9.319" cy="6.81" r="1.001"/>
  </g>
</svg>
