<?xml version="1.0" encoding="UTF-8"?>
<svg xmlns="http://www.w3.org/2000/svg" id="Layer_1" data-name="Layer 1" viewBox="0 0 24 24">
  <path d="M19.93,11.623c-.053-.121-.129-.231-.225-.322-.079-.076-.685-.626-1.976-1.044,.482-.905,.8-1.87,.817-2.853-.101-3.306-3.214-6.357-6.56-6.403-3.318,.045-6.432,3.097-6.533,6.403,0,.016-.028,1.227,.576,2.431-.697,.01-1.233,.094-1.269,.1-.372,.06-.678,.322-.793,.681-.03,.092-.729,2.301-.729,5.77,0,2.966,.732,4.688,.763,4.76,.053,.122,.13,.232,.226,.324,.164,.157,1.706,1.532,5.392,1.532,2.421,0,3.912-.589,4.699-1.042,.509,.317,1.276,.708,2.165,.872,1.248,.23,2.63,.014,2.688,.004,.365-.059,.669-.314,.788-.665,.033-.096,.802-2.389,.802-5.789,0-2.821-.797-4.681-.832-4.759ZM11.986,3c2.234,.03,4.493,2.241,4.561,4.416-.039,2.278-2.924,4.97-4.56,6.231-1.623-1.206-4.472-3.812-4.534-6.208,.083-2.214,2.334-4.409,4.533-4.439Zm6.249,17.921c-.396,.024-.92,.03-1.389-.058-1.018-.188-1.883-.892-1.889-.897-.298-.249-.713-.297-1.065-.132-.108,.051-.205,.12-.287,.203-.193,.15-1.364,.962-3.986,.962-2.28,0-3.471-.62-3.861-.872-.164-.497-.52-1.798-.52-3.744,0-2.113,.286-3.715,.473-4.538,.394-.022,.913-.026,1.376,.059,.093,.017,.184,.039,.273,.064,1.699,2.151,3.94,3.646,4.09,3.745,.167,.11,.359,.165,.55,.165,.199,0,.398-.059,.569-.177,.361-.249,2.396-1.698,3.993-3.696,.867,.203,1.387,.488,1.618,.638,.179,.514,.582,1.879,.582,3.738,0,2.081-.321,3.71-.527,4.54Z"/>
  <path d="M12,6.522c-.552,0-.999,.447-.999,.999s.447,.999,.999,.999,.999-.447,.999-.999-.447-.999-.999-.999Z"/>
</svg>
