<?xml version="1.0" encoding="UTF-8"?>
<svg xmlns="http://www.w3.org/2000/svg" id="Layer_1" data-name="Layer 1" viewBox="0 0 24 24">
  <path d="M8.453,5.101c-.355-.278-.855-.285-1.217-.014-.147,.11-3.631,2.81-6.204,12.776-.138,.535,.184,1.08,.718,1.218,.537,.139,1.081-.184,1.218-.718,.293-1.133,.596-2.164,.903-3.101h7.925c.307,.937,.611,1.968,.903,3.101,.116,.451,.523,.75,.967,.75,.083,0,.167-.01,.251-.032,.535-.138,.856-.684,.718-1.218-2.493-9.656-5.813-12.473-6.183-12.762Zm-3.869,8.162c1.281-3.307,2.534-5.102,3.25-5.95,.713,.844,1.966,2.639,3.249,5.95H4.584Z"/>
  <path d="M22,11.431c-.318,0-.602,.149-.785,.38-.542-.253-1.206-.38-1.991-.38-2.506,0-3.776,1.292-3.776,3.841s1.271,3.841,3.776,3.841c.785,0,1.449-.127,1.991-.38,.183,.232,.466,.38,.785,.38,.553,0,1-.448,1-1v-5.682c0-.552-.447-1-1-1Zm-2.775,5.682c-1.253,0-1.776-.256-1.776-1.841s.523-1.841,1.776-1.841,1.775,.256,1.775,1.841-.523,1.841-1.775,1.841Z"/>
</svg>
