<?xml version="1.0" encoding="UTF-8"?>
<svg xmlns="http://www.w3.org/2000/svg" id="Layer_1" data-name="Layer 1" viewBox="0 0 24 24">
  <path d="M22.108,2.516c-.102-.131-.207-.251-.312-.357-.105-.106-.225-.211-.356-.315-1.681-1.32-4.172-1.062-5.663,.575l-1.415,1.504c-1.104-.282-2.951-.262-4.998,1.796-.244,.245-.344,.598-.264,.934,.012,.054,.184,.757,.725,1.789-.301,.294-.612,.601-.931,.921-3.198,3.192-5.095,5.434-6.125,6.751-.954,1.221-1.067,2.864-.371,4.125l-1.05,1.056c-.39,.392-.388,1.025,.004,1.414,.195,.194,.45,.291,.705,.291,.257,0,.514-.098,.709-.295l1.065-1.071c.522,.271,1.104,.409,1.692,.409,.817,0,1.644-.265,2.33-.798,1.323-1.028,3.574-2.928,6.789-6.139,.315-.315,.618-.621,.908-.917,1.018,.537,1.71,.708,1.763,.721,.077,.019,.155,.027,.232,.027,.263,0,.519-.104,.709-.295,2.067-2.079,2.08-3.93,1.792-5.034l1.477-1.401c1.638-1.506,1.895-4.007,.585-5.691ZM13.228,13.691c-3.143,3.139-5.326,4.981-6.604,5.975-.675,.524-1.621,.507-2.246-.081-.562-.583-.576-1.546-.034-2.24,.994-1.273,2.835-3.446,5.961-6.568,.209-.208,.413-.411,.613-.608,.373,.499,.817,1.024,1.346,1.555,.534,.537,1.06,.987,1.561,1.364-.194,.197-.393,.397-.598,.602Zm6.929-6.946l-1.96,1.86c-.315,.299-.401,.768-.212,1.16,.206,.426,.505,1.521-.735,3.014-.725-.295-2.104-.995-3.566-2.465-1.468-1.476-2.164-2.871-2.456-3.598,1.405-1.184,2.462-.981,2.991-.732,.392,.185,.859,.096,1.155-.22l1.871-1.989c.8-.877,2.101-1.035,2.958-.362,.064,.05,.123,.102,.175,.154,.051,.051,.101,.109,.151,.174,.677,.871,.519,2.185-.371,3.003Z"/>
</svg>
