<?xml version="1.0" encoding="UTF-8"?>
<svg xmlns="http://www.w3.org/2000/svg" id="Layer_1" data-name="Layer 1" viewBox="0 0 24 24">
  <circle cx="11.34" cy="6.3" r="1"/>
  <circle cx="16.955" cy="8.759" r="1"/>
  <circle cx="6.585" cy="9.846" r="1"/>
  <circle cx="7.585" cy="15.68" r="1"/>
  <path d="M12,23c-5.121,0-11-1.25-11-11S6.879,1,12,1s11,1.25,11,11c0,.73-.033,1.429-.098,2.077-.151,1.518-1.481,2.687-3.004,2.585-.179-.011-.362-.016-.551-.016-2.187,0-3.371,.537-3.371,3.371v.02c.003,1.562-1.188,2.851-2.711,2.931-.412,.021-.834,.032-1.266,.032Zm0-20C6.598,3,3,4.53,3,12s3.598,9,9,9c.396,0,.783-.009,1.161-.029,.466-.025,.816-.425,.815-.932v-.022c0-3.614,1.757-5.371,5.371-5.371,.231,0,.456,.006,.674,.02,.448,.032,.844-.327,.891-.788,.059-.582,.088-1.214,.088-1.878,0-7.47-3.598-9-9-9Z"/>
</svg>
