<?xml version="1.0" encoding="UTF-8"?>
<svg xmlns="http://www.w3.org/2000/svg" id="Layer_1" data-name="Layer 1" viewBox="0 0 24 24">
  <path d="M12,10.392c-2.725,0-4.106,1.375-4.106,4.086,0,1.863,.712,4.085,4.106,4.085,2.725,0,4.106-1.374,4.106-4.085s-1.382-4.086-4.106-4.086Zm0,6.171c-1.595,0-2.106-.507-2.106-2.085,0-1.785,.65-2.086,2.106-2.086s2.106,.301,2.106,2.086-.65,2.085-2.106,2.085Z"/>
  <path d="M20.749,14.003c-.32-1.772-.953-2.833-1.462-3.686-.474-.795-.788-1.319-.788-2.221,0-4.443-2.43-7.097-6.5-7.097s-6.5,2.653-6.5,7.097c0,.901-.313,1.426-.788,2.221-.509,.853-1.142,1.913-1.462,3.686-.452,2.505-.01,4.577,1.313,6.16,1.529,1.829,4.169,2.837,7.436,2.837s5.907-1.008,7.436-2.837c1.323-1.583,1.765-3.655,1.313-6.16Zm-2.848,4.878c-1.142,1.366-3.238,2.119-5.901,2.119s-4.759-.753-5.901-2.119c-.925-1.107-1.221-2.629-.88-4.522,.255-1.415,.741-2.229,1.211-3.016,.526-.882,1.07-1.793,1.07-3.246,0-3.334,1.556-5.097,4.5-5.097s4.5,1.763,4.5,5.097c0,1.453,.544,2.364,1.07,3.246,.47,.787,.956,1.601,1.211,3.016,.341,1.894,.045,3.415-.88,4.522Z"/>
</svg>
