<?xml version="1.0" encoding="UTF-8"?>
<svg xmlns="http://www.w3.org/2000/svg" id="Layer_1" data-name="Layer 1" viewBox="0 0 24 24">
  <path d="M19.51,1.296c-.331-.335-.849-.393-1.245-.141-.182,.115-4.51,2.878-9.338,7.75C4.099,13.775,1.354,18.147,1.239,18.331c-.245,.394-.188,.904,.139,1.233,2.1,2.119,5.531,3.436,8.955,3.436,2.395,0,5.886-.642,8.916-3.699,5.83-5.881,3.854-14.379,.261-18.005ZM10.347,10.313c1.585-1.599,3.126-2.97,4.472-4.086,.389,2.105,.041,4.692-1.952,6.703-2.29,2.312-5.016,2.271-6.628,1.965,1.116-1.374,2.496-2.955,4.109-4.582Zm7.482,7.579c-2.546,2.568-5.481,3.107-7.496,3.107-2.556,0-5.185-.888-6.938-2.306,.328-.483,.828-1.196,1.487-2.069,.869,.255,1.842,.41,2.858,.41,2.194,0,4.587-.72,6.545-2.696,2.873-2.898,3.069-6.705,2.257-9.491,.881-.678,1.601-1.194,2.09-1.532,2.692,3.38,3.652,10.081-.804,14.576Z"/>
</svg>
