<?xml version="1.0" encoding="UTF-8"?>
<svg xmlns="http://www.w3.org/2000/svg" id="Layer_1" data-name="Layer 1" viewBox="0 0 24 24">
  <path d="M22.946,1.992c-.043-.482-.426-.864-.908-.907-4.65-.415-9.125,1.544-11.963,5.222l-5.926,7.478c-.469-.171-.955-.309-1.454-.411-.546-.116-1.07,.238-1.18,.779-.111,.541,.238,1.069,.779,1.18,1.262,.259,2.414,.8,3.387,1.557l-2.001,1.993-.973-.97c-.392-.391-1.025-.389-1.414,.002-.39,.391-.389,1.024,.002,1.414l3.358,3.348c.195,.195,.451,.292,.706,.292s.513-.098,.708-.294c.39-.391,.389-1.024-.002-1.414l-.969-.966,2.002-1.994c.762,.973,1.307,2.124,1.566,3.385,.097,.473,.59,.902,1.181,.778,.541-.113,.89-.64,.778-1.181-.102-.499-.241-.985-.413-1.453l7.487-5.899c3.701-2.839,5.663-7.302,5.25-11.939Zm-6.478,10.36l-7.154,5.637c-.832-1.347-1.97-2.482-3.321-3.312l5.656-7.137c2.251-2.916,5.646-4.567,9.349-4.507,.056,3.637-1.597,7.069-4.53,9.32Z"/>
</svg>
