<?xml version="1.0" encoding="UTF-8"?>
<svg xmlns="http://www.w3.org/2000/svg" id="Layer_1" data-name="Layer 1" viewBox="0 0 24 24">
  <circle cx="12" cy="12" r="1"/>
  <g>
    <path d="M12,1C6.878,1,1,2.25,1,12s5.878,11,11,11,11-1.25,11-11S17.122,1,12,1Zm0,20c-5.402,0-9-1.53-9-9S6.598,3,12,3s9,1.53,9,9-3.598,9-9,9Z"/>
    <path d="M12,7.127c-3.279,0-4.873,1.594-4.873,4.873s1.594,4.873,4.873,4.873,4.873-1.594,4.873-4.873-1.594-4.873-4.873-4.873Zm0,7.746c-1.905,0-2.873-.444-2.873-2.873s.968-2.873,2.873-2.873,2.873,.444,2.873,2.873-.968,2.873-2.873,2.873Z"/>
  </g>
</svg>
