<?xml version="1.0" encoding="UTF-8"?>
<svg xmlns="http://www.w3.org/2000/svg" id="Layer_1" data-name="Layer 1" viewBox="0 0 24 24">
  <path d="M20.266,21H3.735c-.552,0-1,.447-1,1s.448,1,1,1H20.266c.553,0,1-.447,1-1s-.447-1-1-1Z"/>
  <path d="M12.05,18.866c5.783,0,7.735-3.26,7.735-12.92,0-1.493-.065-2.857-.195-4.054-.06-.55-.563-.948-1.102-.887-.55,.06-.946,.553-.887,1.102,.122,1.126,.184,2.417,.184,3.839,0,10.16-2.271,10.92-5.735,10.92s-5.735-.76-5.735-10.92c0-1.419,.062-2.71,.186-3.838,.06-.549-.336-1.042-.885-1.103-.559-.062-1.043,.336-1.103,.886-.131,1.199-.198,2.563-.198,4.055,0,9.539,2.024,12.92,7.735,12.92Z"/>
</svg>
