<?xml version="1.0" encoding="UTF-8"?>
<svg xmlns="http://www.w3.org/2000/svg" id="Layer_1" data-name="Layer 1" viewBox="0 0 24 24">
  <path d="M19.009,9.522c-.114-.293-.36-.515-.663-.6-.011-.003-.048-.013-.108-.029-.049-4.956-.575-6.401-.685-6.648-.118-.266-.346-.468-.624-.552-.093-.028-2.313-.692-4.93-.692s-4.835,.664-4.929,.692c-.274,.083-.5,.279-.619,.54-.111,.241-.642,1.657-.691,6.661-.059,.015-.095,.025-.106,.028-.303,.084-.549,.307-.664,.6-.032,.083-.797,2.089-.797,6.188,0,4.02,3.501,7.291,7.805,7.291s7.805-3.27,7.805-7.29c0-4.1-.764-6.105-.796-6.188ZM8.165,3.472c.746-.179,2.216-.472,3.835-.472,1.611,0,3.082,.292,3.83,.471,.139,.651,.356,2.114,.403,5.001-1.133-.191-2.624-.37-4.232-.37s-3.1,.18-4.234,.371c.047-2.919,.265-4.373,.398-5.001Zm3.835,17.528c-3.147,0-5.805-2.423-5.805-5.291,0-2.592,.327-4.24,.521-4.989,.935-.213,3.007-.618,5.285-.618s4.351,.404,5.284,.617c.194,.751,.521,2.399,.521,4.991,0,2.867-2.658,5.29-5.805,5.29Z"/>
  <path d="M10.297,4.505c-.552,0-1,.448-1,1v.442c0,.552,.448,1,1,1s1-.448,1-1v-.442c0-.552-.448-1-1-1Z"/>
  <path d="M13.703,6.947c.552,0,1-.448,1-1v-.442c0-.552-.448-1-1-1s-1,.448-1,1v.442c0,.552,.448,1,1,1Z"/>
</svg>
