<?xml version="1.0" encoding="UTF-8"?>
<svg xmlns="http://www.w3.org/2000/svg" id="Layer_1" data-name="Layer 1" viewBox="0 0 24 24">
  <g>
    <path d="M12.313,23h-2.085c-.553,0-1-.448-1-1s.447-1,1-1h2.085c.553,0,1,.448,1,1s-.447,1-1,1Z"/>
    <path d="M15.313,18.855h-5.085c-.553,0-1-.448-1-1s.447-1,1-1h5.085c.553,0,1,.448,1,1s-.447,1-1,1Z"/>
    <path d="M18.313,14.71H10.229c-.553,0-1-.448-1-1s.447-1,1-1h8.085c.553,0,1,.448,1,1s-.447,1-1,1Z"/>
    <path d="M21.313,10.566H10.229c-.553,0-1-.448-1-1s.447-1,1-1h11.085c.553,0,1,.448,1,1s-.447,1-1,1Z"/>
  </g>
  <path d="M2.229,6.674c.491,.252,1.094,.059,1.347-.432,.558-1.085,1.175-1.836,1.708-2.345V22.001c0,.552,.448,1,1,1s1-.448,1-1V3.897c.534,.509,1.15,1.261,1.708,2.345,.252,.49,.855,.685,1.347,.432,.491-.252,.685-.855,.432-1.347C9.062,2.007,6.734,1.101,6.635,1.064c-.26-.095-.518-.078-.703,0-.097,.041-2.427,.943-4.135,4.263-.253,.491-.06,1.094,.432,1.347Z"/>
</svg>
