<?xml version="1.0" encoding="UTF-8"?>
<svg xmlns="http://www.w3.org/2000/svg" id="Layer_1" data-name="Layer 1" viewBox="0 0 24 24">
  <path d="M20.312,4.829c-.101-.205-.22-.395-.353-.571,.367-.237,.705-.563,.975-1.006,.288-.472,.139-1.087-.333-1.374-.47-.289-1.086-.14-1.374,.333-.226,.37-.594,.518-.928,.571l-.008-.792c-.006-.549-.452-.99-1-.99h-.01c-.553,.006-.996,.458-.99,1.01l.008,.8c-.332-.048-.694-.189-.928-.543-.306-.46-.926-.586-1.387-.279-.46,.306-.585,.927-.279,1.387,.236,.354,.514,.63,.814,.84-.189,.239-.349,.507-.472,.799-.795,1.881-2.396,5.02-4.397,4.889-4.864-.322-6.952,2.672-7.292,5.575-.303,2.573,.832,5.706,4.049,6.906,1.148,.429,2.349,.634,3.555,.634,3.817,0,7.68-2.056,10.025-5.595,2.141-3.229,2.28-8.643,.325-12.595Zm-1.991,11.489c-2.893,4.362-7.938,5.415-11.215,4.193-2.352-.878-2.957-3.134-2.762-4.8,.172-1.463,1.004-3.832,4.593-3.832,.187,0,.381,.006,.582,.02,2.445,.158,4.593-1.895,6.37-6.107,.098-.232,.248-.424,.435-.569l.016,1.555c.006,.549,.452,.99,1,.99h.01c.553-.006,.996-.458,.99-1.01l-.013-1.335c.074,.087,.14,.184,.193,.292,1.638,3.309,1.55,7.966-.198,10.603Z"/>
</svg>
