<?xml version="1.0" encoding="UTF-8"?>
<svg xmlns="http://www.w3.org/2000/svg" id="Layer_1" data-name="Layer 1" viewBox="0 0 24 24">
  <path d="M21.78,6.49c-.122-.311-.391-.54-.717-.611-.073-.016-.867-.188-2.131-.379-.542-1.832-1.607-3.047-1.656-3.102-.107-.12-.241-.213-.392-.271-.07-.027-1.76-.657-4.886-.657s-4.813,.629-4.884,.656c-.153,.058-.289,.152-.397,.275-.049,.056-1.107,1.277-1.65,3.098-1.263,.191-2.058,.362-2.132,.378-.327,.072-.597,.303-.719,.615-.05,.128-1.218,3.185-1.218,7.251,0,4.101,1.17,7.127,1.22,7.254,.122,.311,.391,.54,.717,.611,.171,.038,4.245,.919,9.063,.919s8.892-.881,9.063-.919c.327-.071,.597-.302,.719-.614,.05-.129,1.218-3.186,1.218-7.251,0-4.101-1.17-7.128-1.22-7.255ZM8.064,3.923c.52-.146,1.858-.453,3.936-.453,2.088,0,3.425,.308,3.937,.453,.18,.242,.487,.695,.759,1.291-1.379-.144-2.991-.255-4.696-.255s-3.312,.11-4.691,.255c.271-.594,.576-1.047,.756-1.291Zm12.024,15.841c-1.253,.233-4.496,.765-8.089,.765s-6.841-.531-8.09-.765c-.306-.968-.91-3.237-.91-6.02,0-2.762,.606-5.045,.911-6.021,1.253-.234,4.496-.765,8.089-.765s6.841,.531,8.09,.765c.306,.968,.91,3.238,.91,6.021,0,2.761-.606,5.044-.911,6.02Z"/>
  <path d="M12,8.884c-3.271,0-4.861,1.59-4.861,4.861s1.59,4.86,4.861,4.86,4.861-1.59,4.861-4.86-1.59-4.861-4.861-4.861Zm0,7.722c-1.897,0-2.861-.442-2.861-2.86s.964-2.861,2.861-2.861,2.861,.442,2.861,2.861-.964,2.86-2.861,2.86Z"/>
</svg>
