<?xml version="1.0" encoding="UTF-8"?>
<svg xmlns="http://www.w3.org/2000/svg" id="Layer_1" data-name="Layer 1" viewBox="0 0 24 24">
  <path d="M12,1.994C6.878,1.994,1,3.244,1,12.994c0,2.446,.366,4.785,1.03,6.584,.355,.96,1.096,1.738,2.035,2.136,.945,.4,1.981,.392,2.92-.022l2.088-.921c.505-.223,.734-.813,.512-1.318s-.814-.733-1.318-.512l-2.089,.921c-.429,.188-.902,.191-1.333,.011-.438-.187-.772-.536-.938-.987-.584-1.582-.906-3.675-.906-5.891C3,5.524,6.598,3.994,12,3.994s9,1.53,9,9c0,2.215-.325,4.308-.915,5.893-.169,.451-.503,.802-.942,.986-.431,.182-.902,.178-1.331-.012l-2.076-.92c-.506-.225-1.096,.005-1.319,.509-.224,.505,.004,1.096,.509,1.319l2.077,.92c.479,.212,.983,.318,1.488,.318,.483,0,.968-.097,1.429-.292,.938-.396,1.683-1.172,2.04-2.131,.671-1.803,1.041-4.144,1.041-6.591C23,3.244,17.121,1.994,12,1.994Z"/>
  <path d="M16.919,15.812c.091,.026,.183,.038,.273,.038,.436,0,.837-.287,.961-.728,.15-.531-.158-1.084-.689-1.234l-3.287-.931c-.187-1.031-1.092-1.817-2.177-1.817-1.22,0-2.213,.993-2.213,2.213s.993,2.213,2.213,2.213c.631,0,1.202-.267,1.605-.693l3.314,.939Z"/>
</svg>
