<?xml version="1.0" encoding="UTF-8"?>
<svg xmlns="http://www.w3.org/2000/svg" id="Layer_1" data-name="Layer 1" viewBox="0 0 24 24">
  <path d="M7.057,14.089c.272-.48,.103-1.091-.377-1.362-.543-.308-1.266-.975-1.266-3.213,0-3.065,1.327-3.665,3.62-3.665,1.701,0,2.639,.37,3.135,1.238,.274,.48,.885,.648,1.364,.372,.479-.274,.646-.885,.372-1.364-.01-.017-.02-.033-.029-.05l.842-.85c.389-.393,.385-1.025-.008-1.414-.392-.388-1.025-.386-1.414,.008l-.822,.83c-.767-.464-1.636-.655-2.44-.728v-1.479c0-.553-.448-1-1-1s-1,.447-1,1v1.485c-.961,.097-1.77,.34-2.429,.733l-.833-.842c-.388-.393-1.021-.395-1.415-.008-.393,.389-.396,1.021-.007,1.414l.845,.853c-.394,.667-.638,1.489-.734,2.466h-1.46c-.552,0-1,.447-1,1s.448,1,1,1h1.459c.094,.984,.335,1.806,.727,2.473l-.837,.845c-.389,.393-.386,1.026,.007,1.415,.195,.192,.449,.289,.704,.289,.257,0,.515-.099,.71-.296l.823-.831c.033,.02,.066,.04,.1,.059,.156,.088,.325,.13,.492,.13,.349,0,.688-.183,.871-.508Z"/>
  <path d="M15.938,18.213h-1.146c.19-.432,.423-.695,.423-.695,.376-.404,.353-1.037-.052-1.413s-1.039-.354-1.413,.052c-.054,.058-.535,.59-.872,1.452-.302,.775-.332,1.494-.334,1.574-.008,.27,.093,.532,.282,.727s.447,.304,.718,.304h1.146c-.188,.425-.416,.688-.429,.701-.37,.405-.345,1.033,.058,1.407,.192,.179,.437,.268,.681,.268,.269,0,.536-.107,.732-.319,.054-.058,.535-.59,.872-1.451,.303-.776,.332-1.497,.335-1.576,.008-.271-.095-.532-.282-.726-.188-.194-.447-.304-.718-.304Z"/>
  <path d="M20.308,14.189c-.169-2.925-2.605-5.253-5.577-5.253-3.08,0-5.586,2.502-5.586,5.578,0,.121,.004,.241,.012,.361-1.564,.537-2.676,2.019-2.676,3.749,0,2.186,1.781,3.964,3.969,3.964h1.318c.552,0,1-.447,1-1s-.448-1-1-1h-1.318c-1.086,0-1.969-.881-1.969-1.964,0-1.045,.818-1.906,1.863-1.961,.3-.017,.577-.166,.754-.408,.178-.242,.237-.551,.161-.842-.075-.292-.114-.595-.114-.899,0-1.973,1.609-3.578,3.586-3.578s3.587,1.605,3.587,3.578c0,.107-.006,.214-.015,.319-.045,.507,.299,.966,.798,1.067,1.101,.223,1.899,1.198,1.899,2.32,0,1.306-1.064,2.367-2.373,2.367-.553,0-1,.447-1,1s.447,1,1,1c2.411,0,4.373-1.959,4.373-4.367,0-1.783-1.093-3.365-2.692-4.032Z"/>
</svg>
