<?xml version="1.0" encoding="UTF-8"?>
<svg xmlns="http://www.w3.org/2000/svg" id="Layer_1" data-name="Layer 1" viewBox="0 0 24 24">
  <path d="M22.663,6.904c-.044-.256-.187-.487-.402-.641-3.047-2.188-5.823-3.402-9.667-5.082l-.194-.085c-.255-.111-.546-.111-.801,0l-.202,.088C7.558,2.863,4.783,4.076,1.738,6.263c-.23,.165-.378,.42-.41,.699-.051,.336-.328,2.342-.328,6.128,0,3.806,.308,4.964,.37,5.158,.068,.214,.207,.399,.393,.525,3.28,2.215,7.251,3.867,10.119,4.208,.004,0,.069,.007,.118,.007,.03,0,.113-.006,.119-.007,2.867-.341,6.839-1.993,10.119-4.208,.187-.126,.325-.311,.393-.525,.062-.194,.37-1.352,.37-5.158,0-4.08-.337-6.183-.337-6.186ZM12,3.104c3.111,1.36,5.504,2.417,7.904,3.971-2.4,1.554-4.793,2.611-7.904,3.97-3.112-1.36-5.505-2.416-7.906-3.97,2.4-1.554,4.793-2.61,7.906-3.971ZM3.218,17.338c-.083-.522-.218-1.757-.218-4.249,0-1.861,.07-3.275,.143-4.248,2.423,1.554,4.806,2.615,7.856,3.949v8.008c-2.328-.523-5.276-1.826-7.781-3.46Zm17.564,0c-2.506,1.635-5.455,2.937-7.783,3.46V12.791c3.05-1.333,5.433-2.396,7.857-3.95,.073,.973,.143,2.388,.143,4.248,0,2.501-.137,3.736-.217,4.248Z"/>
</svg>
