<?xml version="1.0" encoding="UTF-8"?>
<svg xmlns="http://www.w3.org/2000/svg" id="Layer_1" data-name="Layer 1" viewBox="0 0 24 24">
  <circle cx="9" cy="10.77" r="1"/>
  <circle cx="15" cy="15.231" r="1"/>
  <g>
    <path d="M12.477,1.121c-.305-.166-.676-.161-.975,.012-.386,.221-9.436,5.5-9.546,12.014,.152,4.996,5.027,9.784,10.058,9.853,5.003-.069,10.03-5.027,10.03-9.901C22.044,6.5,12.862,1.33,12.477,1.121Zm-.463,19.879c-3.946-.054-7.938-3.974-8.058-7.866,.078-4.58,6.257-8.828,8.057-9.969,1.798,1.088,7.924,5.144,8.031,9.945-.136,3.932-4.119,7.835-8.03,7.89Z"/>
    <path d="M14.491,8.587c-.482-.272-1.09-.102-1.362,.379l-4,7.085c-.271,.481-.104,1.095,.38,1.362,.291,.161,.888,.301,1.362-.379l4-7.085c.271-.481,.102-1.091-.38-1.362Z"/>
  </g>
</svg>
