<?xml version="1.0" encoding="UTF-8"?>
<svg xmlns="http://www.w3.org/2000/svg" id="Layer_1" data-name="Layer 1" viewBox="0 0 24 24">
  <path d="M21.488,21.591c-.735-1.641-1.794-2.923-2.814-3.878,.25-.126,.439-.352,.514-.626,.034-.125,.845-3.104,.845-7.072,0-4.001-.811-6.975-.845-7.099-.082-.298-.298-.54-.583-.658-.125-.051-3.096-1.258-6.605-1.258s-6.479,1.206-6.604,1.258c-.287,.117-.503,.361-.585,.661-.034,.126-.844,3.129-.844,7.096,0,4.001,.811,6.951,.846,7.074,.076,.274,.264,.499,.514,.625-1.02,.954-2.079,2.236-2.815,3.877-.227,.504,0,1.096,.503,1.321,.133,.06,.271,.088,.408,.088,.382,0,.747-.22,.913-.591,.867-1.932,2.291-3.282,3.403-4.108,1.152,.21,2.649,.404,4.262,.404s3.108-.193,4.261-.404c1.112,.825,2.537,2.175,3.403,4.108,.166,.371,.53,.591,.913,.591,.137,0,.275-.028,.408-.088,.504-.226,.729-.817,.503-1.321ZM13,11.171v-3.554h4.931c.062,.736,.102,1.542,.102,2.397,0,.396-.009,.782-.025,1.156h-5.008Zm-7.009,0c-.016-.374-.025-.76-.025-1.156,0-.852,.041-1.659,.104-2.397h4.929v3.554H5.991ZM12,3c2.346,0,4.471,.627,5.379,.938,.084,.374,.202,.95,.314,1.68H6.31c.112-.727,.229-1.305,.313-1.681,.907-.311,3.026-.937,5.377-.937Zm-5.392,13.011c-.128-.573-.322-1.569-.464-2.84h2.122v1.24c0,.553,.447,1,1,1s1-.447,1-1v-1.24h3.467v1.24c0,.553,.447,1,1,1s1-.447,1-1v-1.24h2.121c-.142,1.267-.336,2.265-.463,2.84-.957,.24-3.069,.694-5.391,.694s-4.437-.454-5.392-.694Z"/>
</svg>
