<?xml version="1.0" encoding="UTF-8"?>
<svg xmlns="http://www.w3.org/2000/svg" id="Layer_1" data-name="Layer 1" viewBox="0 0 24 24">
  <path d="M10.121,4.242c.553,0,1-.448,1-1v-1.242c0-.552-.447-1-1-1s-1,.448-1,1v1.242c0,.552,.447,1,1,1Z"/>
  <path d="M14.385,4.862c.553,0,1-.448,1-1v-1.242c0-.552-.447-1-1-1s-1,.448-1,1v1.242c0,.552,.447,1,1,1Z"/>
  <path d="M5.858,4.862c.553,0,1-.448,1-1v-1.242c0-.552-.447-1-1-1s-1,.448-1,1v1.242c0,.552,.447,1,1,1Z"/>
  <path d="M18.883,9.394h-.725v-1.168c0-.35-.183-.674-.481-.855-.12-.073-2.993-1.784-7.556-1.784s-7.435,1.711-7.555,1.784c-.299,.181-.481,.505-.481,.855v8.471c0,3.111,2.221,5.719,5.28,6.2,.438,.069,1.597,.103,2.756,.103s2.318-.034,2.756-.103c3.061-.481,5.281-3.088,5.281-6.2v-.013h.725c1.672,0,3.032-1.315,3.032-2.932v-1.425c0-1.617-1.36-2.932-3.032-2.932Zm-2.725,7.302c0,2.121-1.511,3.897-3.592,4.224-.686,.107-4.205,.107-4.891,0-2.081-.327-3.591-2.104-3.591-4.224v-7.86c.914-.424,3.072-1.25,6.036-1.25s5.122,.825,6.037,1.25v7.86Zm3.757-2.945c0,.514-.463,.932-1.032,.932h-.725v-3.289h.725c.569,0,1.032,.418,1.032,.932v1.425Z"/>
</svg>
