<?xml version="1.0" encoding="UTF-8"?>
<svg xmlns="http://www.w3.org/2000/svg" id="Layer_1" data-name="Layer 1" viewBox="0 0 24 24">
  <path d="M18.886,7.885c.506-.566,.816-1.318,.816-2.143,0-1.855-1.628-3.337-3.457-3.144-.54-.967-1.561-1.599-2.72-1.599-.544,0-1.065,.139-1.526,.401-.46-.262-.981-.401-1.526-.401-1.159,0-2.18,.631-2.72,1.599-1.828-.201-3.457,1.288-3.457,3.144,0,.825,.309,1.577,.816,2.143-.091,.301-.91,3.101-.91,6.776,0,3.97,1.781,6.897,1.856,7.02,.094,.152,.228,.277,.387,.36,.187,.097,1.926,.953,5.555,.958,3.625-.005,5.365-.861,5.552-.958,.159-.083,.293-.208,.387-.36,.076-.123,1.856-3.05,1.856-7.02,0-3.676-.819-6.476-.91-6.776ZM7.422,4.581c.174,0,.342,.041,.5,.121,.285,.146,.623,.147,.908,.002,.286-.145,.485-.418,.535-.734,.09-.562,.556-.97,1.109-.97,.304,0,.588,.124,.802,.348,.377,.396,1.071,.396,1.448,0,.213-.224,.498-.348,.802-.348,.553,0,1.019,.408,1.109,.97,.05,.316,.25,.589,.535,.734,.285,.145,.624,.144,.908-.002,.157-.08,.325-.121,.5-.121,.62,0,1.125,.521,1.125,1.162,0,.646-.493,1.172-1.102,1.184-1.605-.115-3.223,.23-4.59,.996-1.343-.759-2.973-1.128-4.641-.997-.595-.029-1.071-.549-1.071-1.183,0-.641,.504-1.162,1.125-1.162Zm8.961,15.788c-.543,.201-1.976,.628-4.382,.631-2.416-.003-3.851-.433-4.387-.631-.388-.732-1.412-2.929-1.412-5.707,0-2.566,.443-4.7,.681-5.66,2.678-.477,5.435,.814,6.19,2.998,.036,.105,.071,.211,.104,.318,.163,.528,.723,.823,1.251,.659,.527-.163,.823-.723,.659-1.251-.039-.127-.081-.254-.124-.38-.264-.762-.68-1.446-1.211-2.037,1.045-.399,2.224-.51,3.364-.306,.238,.956,.68,3.082,.68,5.659,0,2.758-1.026,4.971-1.413,5.707Z"/>
  <g>
    <circle cx="10.45" cy="15.512" r="1"/>
    <circle cx="12.21" cy="18.186" r="1"/>
    <circle cx="9.33" cy="18.186" r="1"/>
  </g>
</svg>
