<?xml version="1.0" encoding="UTF-8"?>
<svg xmlns="http://www.w3.org/2000/svg" id="Layer_1" data-name="Layer 1" viewBox="0 0 24 24">
  <path d="M21.933,16.484c-.72-.722-1.438-1.073-2.192-1.073h0c-.995,0-1.729,.62-2.195,1.087-1.816,1.82-1.01,3.393-.014,4.391,.721,.722,1.438,1.073,2.194,1.072,.995,0,1.729-.619,2.194-1.086,1.816-1.82,1.01-3.393,.014-4.391Zm-1.43,2.979c-.325,.326-.595,.498-.779,.498-.188,0-.465-.172-.777-.484-.679-.68-.606-.944,.013-1.565,.327-.327,.597-.5,.78-.5,.189,0,.465,.173,.777,.485,.679,.68,.606,.944-.014,1.566Z"/>
  <path d="M20.594,6.229c.362-.73,.28-1.578-.227-2.325-.368-.542-.955-1.031-1.654-1.378-1.758-.872-3.439-.567-4.088,.743l-5.802,11.692c-.15,.301-.518,.426-.819,.276-.303-.15-.427-.518-.276-.82,.814-1.646,.139-3.648-1.506-4.463-1.648-.816-3.648-.141-4.465,1.504-.862,1.738-.995,3.71-.374,5.553,.621,1.842,1.921,3.331,3.659,4.192,1.036,.514,2.136,.757,3.221,.757,2.679,0,5.261-1.483,6.53-4.04l5.801-11.692Zm-4.178-2.071c.013-.026,.052-.104,.306-.118,.305-.026,.719,.087,1.103,.277s.716,.456,.888,.709c.142,.209,.104,.287,.091,.313l-1.698,3.423c-.307-.281-.68-.535-1.112-.75-.434-.215-.864-.359-1.274-.433l1.698-3.422Zm-3.414,12.874c-1.294,2.603-4.466,3.672-7.071,2.381h0c-1.26-.625-2.202-1.704-2.652-3.041-.451-1.336-.354-2.766,.27-4.024,.232-.468,.705-.74,1.195-.74,.199,0,.4,.045,.59,.139,.658,.326,.928,1.126,.603,1.782-.311,.625-.358,1.333-.135,1.995,.223,.66,.688,1.195,1.314,1.506,1.291,.639,2.86,.11,3.499-1.18l3.08-6.206c.089-.173,.717-.183,1.41,.161,.687,.341,1.06,.843,.979,1.019l-3.08,6.208Z"/>
</svg>
