<?xml version="1.0" encoding="UTF-8"?>
<svg xmlns="http://www.w3.org/2000/svg" id="Layer_1" data-name="Layer 1" viewBox="0 0 24 24">
  <g>
    <path d="M12.314,15.434h-2.085c-.552,0-1-.448-1-1s.448-1,1-1h2.085c.552,0,1,.448,1,1s-.448,1-1,1Z"/>
    <path d="M15.314,11.29h-5.085c-.552,0-1-.448-1-1s.448-1,1-1h5.085c.553,0,1,.448,1,1s-.447,1-1,1Z"/>
    <path d="M18.314,7.145H10.229c-.552,0-1-.448-1-1s.448-1,1-1h8.085c.553,0,1,.448,1,1s-.447,1-1,1Z"/>
    <path d="M21.314,3H10.229c-.552,0-1-.448-1-1s.448-1,1-1h11.085c.553,0,1,.448,1,1s-.447,1-1,1Z"/>
  </g>
  <path d="M10.339,17.326c-.491-.252-1.094-.059-1.347,.432-.558,1.085-1.175,1.836-1.708,2.345V1.999c0-.552-.448-1-1-1s-1,.448-1,1V20.103c-.534-.509-1.15-1.261-1.708-2.345-.252-.49-.855-.685-1.347-.432-.491,.252-.685,.855-.432,1.347,1.708,3.32,4.036,4.227,4.135,4.263,.26,.095,.518,.078,.703,0,.097-.041,2.427-.943,4.135-4.263,.253-.491,.06-1.094-.432-1.347Z"/>
</svg>
