<?xml version="1.0" encoding="UTF-8"?>
<svg xmlns="http://www.w3.org/2000/svg" id="Layer_1" data-name="Layer 1" viewBox="0 0 24 24">
  <path d="M22,17.567h-2.05c.311-1.363,.722-3.682,.722-6.438,0-4.381-1.021-7.609-1.064-7.744-.104-.323-.365-.572-.693-.66-.152-.041-3.784-1.001-8.078-1.001S2.911,2.684,2.758,2.725c-.33,.088-.591,.338-.695,.663-.043,.137-1.063,3.397-1.063,7.741,0,4.381,1.021,7.609,1.064,7.744,.104,.323,.365,.572,.693,.66,.031,.009,.7,.186,1.79,.391,.379,1.355,1.626,2.352,3.103,2.352,1.246,0,2.33-.711,2.865-1.747,.766,.004,2.259,.005,2.451,.005,1.923,0,5.126-.791,5.815-.967h3.219c.552,0,1-.447,1-1s-.448-1-1-1ZM3.822,4.525c1.143-.257,3.933-.802,7.014-.802s5.875,.546,7.015,.802c.272,1.046,.821,3.539,.821,6.604,0,.366-.008,.724-.022,1.072h-1.505V7.521c0-.553-.448-1-1-1s-1,.447-1,1v4.68h-1.629V7.521c0-.553-.448-1-1-1s-1,.447-1,1v4.68h-1.628V7.521c0-.553-.448-1-1-1s-1,.447-1,1v4.68h-1.628V7.521c0-.553-.448-1-1-1s-1,.447-1,1v4.68h-1.236c-.014-.348-.022-.706-.022-1.072,0-3.041,.55-5.55,.822-6.604Zm3.828,15.751c-.673,0-1.221-.545-1.221-1.215s.547-1.215,1.221-1.215,1.22,.545,1.22,1.215-.547,1.215-1.22,1.215Zm3.176-1.746c-.255-1.52-1.582-2.683-3.176-2.683-1.368,0-2.54,.856-3.006,2.06-.328-.064-.606-.125-.824-.174-.173-.665-.458-1.918-.643-3.531h15.314c-.185,1.611-.471,2.87-.644,3.537-1.076,.26-3.467,.796-4.883,.796-.168,0-1.351-.001-2.14-.004Z"/>
</svg>
