<?xml version="1.0" encoding="UTF-8"?>
<svg xmlns="http://www.w3.org/2000/svg" id="Layer_1" data-name="Layer 1" viewBox="0 0 24 24">
  <path d="M21.982,6.274c-.38-.88-.993-1.61-1.77-2.121,.402-.365,.806-.831,1.11-1.408,.257-.489,.068-1.093-.421-1.35-.489-.258-1.093-.068-1.351,.42-.312,.594-.824,1.013-1.2,1.261-.342-.298-.795-.785-1.025-1.418-.188-.519-.766-.787-1.281-.598-.52,.189-.787,.763-.598,1.282,.174,.478,.417,.898,.682,1.257-.158,.051-.313,.111-.467,.179-2.412,1.074-3.515,3.939-2.457,6.385,.246,.573,.04,.996-1.007,2.059-1.035,1.051-1.442,1.264-1.987,1.021-1.165-.521-2.465-.55-3.653-.089-1.203,.469-2.15,1.386-2.667,2.583-.065,.149-.121,.3-.169,.452-.346-.257-.75-.495-1.21-.668-.519-.194-1.093,.067-1.288,.584-.193,.517,.068,1.094,.585,1.288,.631,.237,1.115,.709,1.406,1.057-.241,.384-.658,.919-1.255,1.243-.485,.263-.666,.87-.402,1.355,.181,.334,.524,.523,.88,.523,.161,0,.324-.039,.476-.121,.562-.304,1.014-.702,1.369-1.099,.49,.756,1.193,1.381,2.068,1.771,1.305,.583,2.649,.87,3.999,.87,2.952,0,5.722-1.201,8.533-4.026,3.814-3.834,4.924-8.482,3.103-12.693Zm-4.528,11.291c-2.05,2.01-5.695,4.785-10.292,2.732-1.417-.631-2.062-2.321-1.437-3.767,.303-.702,.856-1.239,1.558-1.512,.322-.126,.659-.188,.995-.188,.38,0,.759,.08,1.117,.24,1.953,.867,3.375-.579,4.228-1.444,.9-.915,2.261-2.297,1.417-4.255-.625-1.445,.019-3.135,1.437-3.766,.674-.3,1.424-.319,2.112-.052,.701,.274,1.255,.811,1.558,1.514,2.028,4.691-.998,8.837-2.692,10.498Z"/>
</svg>
