<?xml version="1.0" encoding="UTF-8"?>
<svg xmlns="http://www.w3.org/2000/svg" id="Layer_1" data-name="Layer 1" viewBox="0 0 24 24">
  <path d="M22,19.161c-.663,0-1.286-.288-1.756-.812-.379-.422-1.109-.422-1.488,0-.939,1.047-2.572,1.047-3.512,0-.379-.422-1.109-.422-1.488,0-.939,1.047-2.572,1.047-3.512,0-.379-.422-1.109-.422-1.488,0-.939,1.047-2.572,1.047-3.512,0-.189-.211-.46-.332-.744-.332s-.554,.121-.744,.332c-.47,.523-1.094,.812-1.756,.812-.552,0-1,.447-1,1s.448,1,1,1c.907,0,1.768-.281,2.5-.807,1.463,1.051,3.537,1.051,5,0,1.464,1.052,3.539,1.05,5.003-.002,1.468,1.045,3.532,1.041,4.997-.002,.733,.522,1.606,.811,2.5,.811,.553,0,1-.447,1-1s-.447-1-1-1Z"/>
  <path d="M22,14.102c-.663,0-1.287-.288-1.755-.811-.381-.424-1.109-.424-1.49,0-.936,1.045-2.574,1.045-3.51,0-.381-.424-1.109-.424-1.49,0-.936,1.045-2.573,1.045-3.51,0-.379-.424-1.11-.424-1.489,0-.938,1.045-2.573,1.045-3.511,0-.189-.212-.46-.333-.745-.333s-.555,.121-.745,.332c-.469,.523-1.092,.812-1.755,.812-.552,0-1,.447-1,1s.448,1,1,1c.907,0,1.769-.281,2.5-.806,1.462,1.049,3.538,1.049,5,0,1.464,1.05,3.542,1.048,5.003-.002,1.466,1.041,3.531,1.042,4.997-.003,.733,.522,1.606,.811,2.5,.811,.553,0,1-.447,1-1s-.447-1-1-1Z"/>
  <path d="M22,9.042c-.663,0-1.287-.288-1.755-.811-.381-.424-1.109-.424-1.49,0-.936,1.045-2.574,1.045-3.51,0-.381-.424-1.109-.424-1.49,0-.936,1.045-2.573,1.045-3.51,0-.379-.424-1.11-.424-1.489,0-.938,1.045-2.573,1.045-3.511,0-.189-.212-.46-.333-.745-.333s-.555,.121-.745,.332c-.469,.523-1.092,.812-1.755,.812-.552,0-1,.447-1,1s.448,1,1,1c.907,0,1.769-.281,2.5-.806,1.462,1.049,3.538,1.049,5,0,1.464,1.05,3.542,1.048,5.003-.002,1.466,1.042,3.531,1.041,4.997-.003,.733,.522,1.606,.811,2.5,.811,.553,0,1-.447,1-1s-.447-1-1-1Z"/>
  <path d="M2,5.982c.907,0,1.769-.281,2.5-.806,1.462,1.049,3.538,1.049,5,0,1.464,1.05,3.542,1.049,5.003-.002,1.466,1.042,3.531,1.041,4.997-.003,.733,.522,1.606,.811,2.5,.811,.553,0,1-.447,1-1s-.447-1-1-1c-.663,0-1.287-.288-1.755-.811-.381-.424-1.109-.424-1.49,0-.936,1.045-2.574,1.045-3.51,0-.381-.424-1.109-.424-1.49,0-.936,1.045-2.573,1.045-3.51,0-.379-.424-1.11-.424-1.489,0-.938,1.045-2.573,1.045-3.511,0-.189-.212-.46-.333-.745-.333s-.555,.121-.745,.332c-.469,.523-1.092,.812-1.755,.812-.552,0-1,.447-1,1s.448,1,1,1Z"/>
</svg>
