<?xml version="1.0" encoding="UTF-8"?>
<svg xmlns="http://www.w3.org/2000/svg" id="Layer_1" data-name="Layer 1" viewBox="0 0 24 24">
  <path d="M19.934,8.98c-.188-.253-.486-.402-.802-.402h-4.17l1.104-4.917c.083-.37-.05-.755-.344-.995-.084-.068-2.073-1.667-4.46-1.667-2.441,0-4.42,1.601-4.503,1.669-.167,.136-.284,.323-.336,.532L3.897,13.38c-.074,.298-.006,.614,.183,.857,.189,.242,.48,.384,.788,.384h4.023l-.865,7.261c-.04,.334,.083,.678,.35,.883,.402,.309,.836,.221,.93,.193,7.477-2.235,10.654-12.653,10.786-13.095,.09-.303,.031-.63-.157-.883Zm-9.722,11.458l.798-6.7c.034-.284-.056-.568-.246-.782-.189-.214-.462-.336-.748-.336h-3.871l2.131-8.585c.5-.338,1.687-1.036,2.986-1.036,1.092,0,2.122,.52,2.705,.88l-1.23,5.478c-.067,.296,.005,.607,.195,.844,.19,.237,.477,.375,.781,.375h4.005c-.947,2.448-3.391,7.72-7.506,9.861Z"/>
</svg>
