<?xml version="1.0" encoding="UTF-8"?>
<svg xmlns="http://www.w3.org/2000/svg" id="Layer_1" data-name="Layer 1" viewBox="0 0 24 24">
  <ellipse cx="17.114" cy="3.519" rx="2.339" ry="2.369"/>
  <path d="M22.227,18.747c-.536-.129-1.076,.208-1.201,.747-.109,.466-.389,.859-.789,1.105-.386,.237-.838,.309-1.276,.204l-5.099-1.23v-1.245c0-1.562-.582-3.046-1.615-4.152l-1.585-1.823c.036-.317,.119-.641,.244-.962l3.085,1.078c.676,.205,1.13-.202,1.274-.614,.182-.521-.093-1.092-.614-1.274l-2.601-.909c.609-.602,1.389-1.077,2.288-1.295l2.093,2.548c.721,.877,1.781,1.381,2.907,1.381h.929c.552,0,1-.448,1-1s-.448-1-1-1h-.929c-.526,0-1.022-.237-1.362-.65l-2.465-3.001c-.217-.265-.554-.399-.896-.358-1.999,.247-3.584,1.306-4.618,2.659l-4.06-1.418,.187-.474c.203-.514-.05-1.094-.563-1.297-.513-.204-1.095,.05-1.297,.563l-.216,.547-.923-.322c-.521-.181-1.091,.093-1.274,.614-.182,.521,.093,1.092,.614,1.274l.849,.297-.235,.596c-.203,.514,.045,1.108,.563,1.297,.595,.216,1.142-.17,1.297-.563l.264-.669,3.81,1.331c-.244,.657-.371,1.329-.371,1.973,0,.241,.087,.474,.245,.656l1.874,2.155c.71,.76,1.101,1.759,1.101,2.813v.763l-9.628-2.322c-.535-.129-1.077,.201-1.207,.738-.129,.537,.201,1.077,.738,1.207l16.726,4.035c.289,.07,.581,.104,.87,.104,.673,0,1.335-.186,1.924-.549,.857-.528,1.457-1.364,1.688-2.354,.125-.538-.208-1.076-.747-1.201Z"/>
</svg>
