<?xml version="1.0" encoding="UTF-8"?>
<svg xmlns="http://www.w3.org/2000/svg" id="Layer_1" data-name="Layer 1" viewBox="0 0 24 24">
  <path d="M21.331,21.592c-.775-1.732-1.915-3.058-2.982-4.016,.17-.135,.293-.324,.346-.536,.032-.124,.776-3.096,.776-7.057,0-4.017-.757-6.537-.789-6.642-.07-.232-.224-.431-.431-.559-.117-.073-2.922-1.783-6.252-1.783s-6.134,1.71-6.251,1.782c-.209,.129-.362,.329-.433,.562-.032,.106-.788,2.657-.788,6.639s.745,6.937,.776,7.06c.054,.211,.176,.398,.346,.533-1.067,.958-2.206,2.283-2.981,4.016-.226,.504,0,1.096,.505,1.321,.133,.059,.271,.087,.407,.087,.383,0,.748-.22,.914-.592,.814-1.819,2.132-3.113,3.199-3.932,1.036,.315,2.474,.597,4.305,.597,1.841,0,3.277-.28,4.309-.594,1.066,.819,2.383,2.111,3.195,3.929,.166,.372,.531,.592,.914,.592,.136,0,.274-.028,.407-.087,.504-.226,.73-.817,.505-1.321ZM7.134,4.3c.762-.399,2.721-1.3,4.866-1.3s4.109,.902,4.869,1.301c.114,.47,.303,1.369,.439,2.614-.539,.897-2.612,4.024-5.319,4.024-2.678,0-4.746-3.107-5.295-4.019,.137-1.238,.326-2.145,.439-2.62Zm9.716,11.838c-.637,.31-2.246,.936-4.85,.936-2.572,0-4.203-.63-4.852-.941-.192-.906-.613-3.215-.62-6.078,1.253,1.402,3.129,2.884,5.461,2.884,2.357,0,4.232-1.472,5.482-2.871-.008,2.84-.43,5.162-.622,6.07Z"/>
  <path d="M10.27,6.606h3.461c.553,0,1-.447,1-1s-.447-1-1-1h-3.461c-.553,0-1,.447-1,1s.447,1,1,1Z"/>
  <path d="M12,13.835c-.552,0-.999,.447-.999,.999s.447,.999,.999,.999,.999-.447,.999-.999-.447-.999-.999-.999Z"/>
</svg>
