<?xml version="1.0" encoding="UTF-8"?>
<svg xmlns="http://www.w3.org/2000/svg" id="Layer_1" data-name="Layer 1" viewBox="0 0 24 24">
  <path d="M6.66,8.073c-1.154,.079-2.19,.227-3.004,.37,.127-1.938,.674-3.493,.946-4.16,.608-.194,1.958-.547,3.748-.547s3.146,.354,3.75,.547c.099,.24,.233,.596,.371,1.042,.162,.528,.723,.824,1.25,.663,.528-.162,.825-.721,.663-1.25-.319-1.039-.635-1.674-.648-1.701-.106-.212-.285-.379-.503-.472-.08-.034-1.984-.83-4.881-.83s-4.8,.795-4.88,.829c-.22,.093-.399,.263-.506,.477-.053,.107-1.251,2.562-1.33,5.872-.272,.146-.465,.412-.515,.725-.005,.031-.118,.759-.118,1.713,0,.963,.114,1.685,.119,1.715,.067,.422,.396,.755,.818,.828,.012,.002,.075,.013,.182,.029v.317c0,1.334,1.082,2.42,2.411,2.42s2.411-1.085,2.411-2.42c0,0-.002-.854-.002-.854,.035-.551-.385-1.026-.936-1.061-1.254-.078-2.316-.203-2.982-.292-.013-.199-.022-.431-.022-.682,0-.278,.012-.533,.026-.747,.774-.167,2.159-.426,3.771-.537,.551-.038,.967-.515,.929-1.066-.038-.55-.512-.966-1.066-.929Z"/>
  <path d="M22.881,15.239c-.05-.312-.243-.577-.514-.722-.078-3.337-1.279-5.771-1.332-5.877-.106-.212-.285-.379-.503-.472-.08-.034-1.984-.829-4.881-.829s-4.8,.795-4.88,.829c-.22,.093-.399,.263-.506,.477-.053,.107-1.251,2.562-1.33,5.872-.271,.146-.465,.412-.515,.725-.005,.03-.118,.758-.118,1.713,0,.963,.114,1.685,.119,1.715,.067,.423,.396,.756,.819,.828,.016,.003,.078,.013,.181,.029v.316c0,1.334,1.082,2.42,2.412,2.42,1.285,0,2.337-1.014,2.407-2.286,.456,.017,.928,.027,1.411,.027s.956-.01,1.412-.027c.07,1.272,1.123,2.286,2.407,2.286,1.33,0,2.411-1.086,2.411-2.42v-.316c.103-.016,.166-.027,.181-.029,.423-.072,.753-.406,.82-.83,.005-.031,.118-.759,.118-1.713,0-.963-.114-1.685-.119-1.715Zm-7.23-5.9c1.797,0,3.147,.354,3.75,.547,.272,.659,.818,2.197,.943,4.158-1.195-.211-2.87-.429-4.694-.429s-3.497,.219-4.693,.43c.127-1.938,.674-3.492,.945-4.159,.608-.194,1.958-.546,3.747-.546Zm-5.327,8.297c-.013-.199-.022-.431-.022-.681,0-.278,.012-.533,.026-.748,.427-.093,1.041-.213,1.777-.321v.212c0,.552,.448,1,1,1s1-.448,1-1v-.429c.496-.034,1.015-.055,1.545-.055s1.048,.021,1.545,.055v.429c0,.552,.448,1,1,1s1-.448,1-1v-.212c.737,.108,1.351,.228,1.778,.321,.015,.213,.026,.468,.026,.747,0,.25-.009,.481-.022,.681-1.053,.141-3.094,.369-5.327,.369s-4.275-.227-5.327-.369Z"/>
</svg>
