<?xml version="1.0" encoding="UTF-8"?>
<svg xmlns="http://www.w3.org/2000/svg" id="Layer_1" data-name="Layer 1" viewBox="0 0 24 24">
  <path d="M10.978,4.276c.552,0,1-.448,1-1v-1.276c0-.552-.448-1-1-1s-1,.448-1,1v1.276c0,.552,.448,1,1,1Z"/>
  <path d="M15.419,4.595c.552,0,1-.448,1-1v-1.276c0-.552-.448-1-1-1s-1,.448-1,1v1.276c0,.552,.448,1,1,1Z"/>
  <path d="M6.537,4.595c.552,0,1-.448,1-1v-1.276c0-.552-.448-1-1-1s-1,.448-1,1v1.276c0,.552,.448,1,1,1Z"/>
  <path d="M19,11.156c.079-1.19,.114-2.206,.128-2.862,.008-.366-.185-.707-.502-.889-.136-.078-3.39-1.913-8.173-1.913-4.949,0-8.062,1.846-8.191,1.924-.307,.185-.491,.52-.482,.878,.061,2.761,.468,11.894,3.137,13.518,1.543,.94,4.297,1.188,5.538,1.188s3.995-.248,5.538-1.188c.832-.506,1.444-1.742,1.894-3.287,.197,.032,.396,.048,.598,.048,2.062,0,3.738-1.672,3.738-3.727,0-1.88-1.404-3.439-3.221-3.69Zm-10.937,.444l.958-.59,.957,.59v2.077c-.182,.07-.486,.144-.957,.144-.468,0-.776-.08-.958-.148v-2.073Zm6.888,8.503c-1.004,.611-3.277,.896-4.498,.896s-3.494-.285-4.498-.896c-1.114-.677-1.99-6.229-2.16-11.232,.719-.338,2.186-.923,4.225-1.21v1.616l-1.482,.913c-.295,.182-.476,.504-.476,.852v3.147c0,.219,.072,.432,.205,.606,.13,.171,.876,1.026,2.753,1.026,1.952,0,2.66-.889,2.782-1.067,.114-.166,.175-.363,.175-.565v-3.147c0-.347-.18-.669-.476-.852l-1.481-.913v-1.779c.142-.003,.286-.006,.432-.006,3.188,0,5.636,.93,6.658,1.392-.171,5-1.047,10.542-2.16,11.22Zm3.532-3.531c-.045,0-.09-.002-.135-.006,.214-1.113,.37-2.285,.484-3.404,.765,.172,1.389,.856,1.389,1.683,0,.952-.78,1.727-1.738,1.727Z"/>
</svg>
