<?xml version="1.0" encoding="UTF-8"?>
<svg xmlns="http://www.w3.org/2000/svg" id="Layer_1" data-name="Layer 1" viewBox="0 0 24 24">
  <path d="M13.054,7.756c0,.552,.448,1,1,1s1.006,.462,1.006,1.031c0,.552,.448,1,1,1s1-.448,1-1c0-1.671-1.349-3.031-3.006-3.031-.552,0-1,.448-1,1Z"/>
  <path d="M13.784,4.687c2.991,0,5.425,2.47,5.425,5.506,0,.552,.448,1,1,1s1-.448,1-1c0-4.139-3.331-7.506-7.425-7.506-.552,0-1,.448-1,1s.448,1,1,1Z"/>
  <path d="M22.772,15.934c-.48-1.47-1.67-2.622-3.182-3.083-1.727-.526-3.596-.082-4.88,1.158l-.18,.174c-.915-.324-2.165-1.159-2.874-1.837-.699-.714-1.539-1.943-1.868-2.846l.167-.17c1.259-1.274,1.708-3.132,1.174-4.85-.467-1.499-1.631-2.676-3.114-3.149-1.694-.542-3.524-.096-4.788,1.162-.373,.326-2.765,2.575-2.116,6.072,.662,3.352,3.052,6.998,5.152,9.149,2.151,2.053,5.834,4.417,9.224,5.071,.414,.075,.81,.108,1.188,.108,2.829,0,4.628-1.875,4.919-2.2,1.276-1.254,1.728-3.074,1.178-4.76Zm-2.598,3.352c-.024,.023-.047,.048-.069,.074-.017,.019-1.666,1.931-4.249,1.46-2.965-.573-6.335-2.761-8.186-4.527-1.808-1.853-4.018-5.182-4.594-8.104-.468-2.52,1.395-4.128,1.47-4.192,.026-.021,.051-.044,.075-.068,.529-.535,1.232-.822,1.953-.822,.278,0,.559,.042,.834,.13,.862,.275,1.54,.962,1.812,1.839,.315,1.01,.051,2.103-.688,2.851l-.569,.577c-.224,.227-.326,.547-.275,.862,.253,1.561,1.692,3.515,2.562,4.403,.875,.838,2.848,2.261,4.416,2.511,.312,.051,.626-.051,.853-.269l.582-.563c.761-.735,1.876-.997,2.907-.683,.889,.271,1.585,.94,1.863,1.79,.315,.965,.048,2.012-.697,2.731Z"/>
</svg>
