<?xml version="1.0" encoding="UTF-8"?>
<svg xmlns="http://www.w3.org/2000/svg" id="Layer_1" data-name="Layer 1" viewBox="0 0 24 24">
  <path d="M22.338,11.638c-.073-.188-1.865-4.616-8.067-4.616h-1.485c-.688-2.103-1.824-4.639-3.533-5.84-.168-.118-.369-.182-.575-.182h-2.817c-.271,0-.532,.11-.72,.306-.085,.089-.855,.922-1.543,2.812-.189,.519,.079,1.093,.597,1.281s1.094-.078,1.282-.598c.327-.896,.663-1.48,.878-1.802h1.982c.844,.721,1.653,2.118,2.336,4.021H3.305c-.396,0-.754,.233-.915,.596-.033,.073-.796,1.831-.796,4.383,0,2.58,.766,4.315,.799,4.389,.161,.358,.519,.59,.912,.59h7.368c-.683,1.904-1.492,3.3-2.336,4.021h-1.981c-.216-.323-.553-.908-.878-1.802-.188-.52-.763-.785-1.282-.598-.519,.188-.786,.763-.597,1.281,.688,1.891,1.458,2.724,1.543,2.812,.188,.195,.449,.306,.72,.306h2.817c.206,0,.406-.063,.575-.182,1.709-1.2,2.845-3.737,3.533-5.84h1.485c6.232,0,7.997-4.433,8.069-4.622,.088-.231,.088-.487-.002-.719Zm-7.258,2.43c-.594,.596-1.43,.911-2.417,.911H7.254v-5.957h5.41c2.132,0,3.252,1.5,3.256,2.981,.002,.786-.296,1.52-.839,2.064ZM3.594,12c0-1.306,.238-2.361,.421-2.979h1.239v5.957h-1.241c-.182-.612-.419-1.662-.419-2.979Zm13.674,2.473c.427-.741,.654-1.59,.652-2.476-.002-.845-.23-1.708-.672-2.474,1.804,.68,2.693,1.878,3.042,2.478-.347,.602-1.227,1.792-3.022,2.471Z"/>
</svg>
