<?xml version="1.0" encoding="UTF-8"?>
<svg xmlns="http://www.w3.org/2000/svg" id="Layer_1" data-name="Layer 1" viewBox="0 0 24 24">
  <path d="M11.967,1h-.092c-3.735,0-6.414,.862-8.188,2.635-1.785,1.785-2.61,4.433-2.596,8.332,.019,5.118,1.28,10.997,10.941,11.033h.092c3.735,0,6.414-.862,8.188-2.635,1.785-1.785,2.61-4.433,2.596-8.332-.019-5.118-1.28-10.997-10.941-11.033Zm7.566,17.182l-6.125-6.182,1.334-1.347c1.403,1.08,3.379,1.837,6.16,2.03-.057,2.439-.499,4.223-1.369,5.499Zm-6.847,2.809c-.191-2.812-.944-4.809-2.019-6.225l1.333-1.345,6.117,6.173c-1.285,.874-3.079,1.329-5.431,1.397ZM3.139,13.402c1.979,.137,3.525,.582,4.691,1.386l-3.31,3.341c-.87-1.246-1.257-2.852-1.38-4.727Zm1.328-7.584l6.125,6.182-1.334,1.346c-1.827-1.405-4.107-1.835-6.162-1.953,.049-2.478,.492-4.286,1.371-5.576Zm10.298,1.971c-.793-1.177-1.231-2.737-1.367-4.733,2.042,.157,3.553,.644,4.662,1.408l-3.295,3.326Zm-1.432,1.446l-1.333,1.345L5.883,4.405c1.297-.885,3.113-1.346,5.507-1.4,.116,2.077,.543,4.383,1.943,6.229Zm-4.084,6.963c.822,1.173,1.281,2.739,1.431,4.753-2.081-.151-3.617-.64-4.739-1.413l3.309-3.339Zm6.909-6.973l3.323-3.354c.883,1.263,1.267,2.896,1.386,4.805-1.996-.152-3.547-.618-4.709-1.451Z"/>
</svg>
