<?xml version="1.0" encoding="UTF-8"?>
<svg xmlns="http://www.w3.org/2000/svg" id="Layer_1" data-name="Layer 1" viewBox="0 0 24 24">
  <path d="M21.024,3.032C18.056,.087,12.783,.529,9.269,4.018c-1.886,1.872-2.968,4.33-2.968,6.742,0,.942,.168,1.843,.489,2.667-.23,1.219-.835,2.361-1.72,3.239l-3.774,3.746c-.189,.188-.295,.443-.295,.71s.106,.522,.296,.71l.809,.803c.195,.193,.449,.29,.704,.29s.509-.097,.705-.29l3.774-3.746c.888-.882,2.045-1.483,3.279-1.712,.839,.32,1.747,.478,2.679,.478,2.34,0,4.834-.997,6.785-2.934,1.886-1.873,2.968-4.33,2.968-6.743,0-1.924-.702-3.681-1.976-4.946Zm-4.031,6.466c-.381-.462-.781-.897-1.175-1.288s-.832-.788-1.296-1.166c2.35-2.026,4.158-2.653,4.835-2.653,.123,0,.209,.02,.254,.057,.001,.001,.003,.003,.004,.004,0,0,.002,.002,.003,.003,.234,.293-.224,2.302-2.625,5.043Zm-8.692,1.262c0-1.382,.467-2.795,1.314-4.042,.387,.001,1.002,.194,1.747,.592-1.33,1.419-2.373,2.889-3.012,4.206-.032-.245-.048-.497-.048-.756Zm1.385,3.526c-.262-.307,.311-2.701,3.37-5.856,.44,.345,.895,.744,1.354,1.199,.45,.447,.846,.891,1.19,1.32-3.212,3.067-5.612,3.61-5.913,3.336ZM16.776,3.116c-1.291,.626-2.665,1.609-3.924,2.737-.57-.348-1.15-.639-1.715-.839,1.485-1.279,3.267-1.942,4.914-1.942,.245,0,.487,.015,.725,.044Zm-4.252,12.507c1.389-.673,2.873-1.761,4.208-2.995,.401,.732,.599,1.339,.607,1.725-1.53,1.025-3.266,1.463-4.816,1.27Zm6.514-2.763c-.202-.562-.495-1.138-.846-1.705,1.209-1.333,2.162-2.699,2.76-3.932,.032,.245,.048,.497,.048,.756,0,1.704-.709,3.453-1.962,4.882Z"/>
</svg>
