<?xml version="1.0" encoding="UTF-8"?>
<svg xmlns="http://www.w3.org/2000/svg" id="Layer_1" data-name="Layer 1" viewBox="0 0 24 24">
  <path d="M6.319,10.466h-2.277c-.028-.429-.044-.883-.044-1.356,0-.871,.056-1.747,.136-2.55h3.626v1.078c0,.552,.448,1,1,1s1-.448,1-1v-1.078s4.645,.002,4.724-.008c.548-.068,.937-.568,.869-1.116-.195-1.562-.433-2.664-.443-2.71-.071-.325-.299-.593-.608-.716-.104-.041-2.58-1.01-5.502-1.01S3.402,1.969,3.297,2.01c-.31,.123-.539,.392-.609,.718-.028,.13-.69,3.229-.69,6.381,0,3.212,.678,5.587,.707,5.687,.095,.327,.351,.583,.677,.68,0,0,.104,.031,.294,.08v.886c-.002,.553,.444,1.001,.997,1.002h.002c.551,0,.999-.447,1-.998l.003-1.68c0-.473-.329-.881-.791-.98-.146-.031-.278-.061-.393-.088-.067-.302-.152-.722-.232-1.232h2.057c.552,0,1-.448,1-1s-.448-1-1-1Zm2.479-7.466c1.812,0,3.465,.443,4.263,.697,.042,.229,.093,.522,.147,.863H4.391c.054-.342,.105-.635,.147-.864,.796-.254,2.443-.696,4.262-.696Z"/>
  <path d="M21.886,16.102c-.049-.308-.237-.569-.502-.716-.079-3.264-1.25-5.644-1.302-5.747-.106-.212-.284-.38-.502-.473-.078-.033-1.943-.814-4.776-.814s-4.697,.78-4.775,.813c-.22,.093-.399,.263-.505,.477-.051,.104-1.221,2.505-1.3,5.744-.265,.147-.453,.409-.502,.717-.004,.03-.116,.744-.116,1.681,0,.944,.112,1.652,.117,1.682,.068,.422,.396,.754,.818,.827,.014,.002,.068,.012,.158,.026v.292c0,1.318,1.067,2.39,2.378,2.39,1.26,0,2.294-.99,2.373-2.236,.438,.016,.892,.025,1.356,.025s.918-.009,1.356-.025c.079,1.247,1.113,2.236,2.372,2.236,1.311,0,2.378-1.072,2.378-2.39v-.292c.089-.014,.143-.023,.158-.026,.423-.072,.752-.406,.819-.83,.005-.03,.116-.744,.116-1.68,0-.944-.111-1.652-.116-1.682Zm-7.083-5.75c1.741,0,3.052,.342,3.644,.531,.265,.645,.789,2.131,.914,4.026-1.166-.205-2.791-.415-4.558-.415s-3.391,.21-4.557,.416c.127-1.874,.653-3.378,.917-4.03,.591-.19,1.888-.528,3.64-.528Zm-5.179,8.08c-.012-.191-.021-.41-.021-.648,0-.265,.011-.508,.025-.714,.411-.089,.993-.202,1.689-.305v.454c0,.552,.448,1,1,1s1-.448,1-1v-.672c.478-.033,.976-.053,1.485-.053s1.007,.02,1.485,.052v.672c0,.552,.448,1,1,1s1-.448,1-1v-.455c.697,.103,1.279,.217,1.69,.306,.014,.205,.024,.448,.024,.714,0,.237-.008,.457-.021,.648-1.032,.138-3.013,.358-5.179,.358s-4.148-.22-5.179-.358Z"/>
</svg>
