<?xml version="1.0" encoding="UTF-8"?>
<svg xmlns="http://www.w3.org/2000/svg" id="Layer_1" data-name="Layer 1" viewBox="0 0 24 24">
  <circle cx="9.765" cy="15.5" r="1"/>
  <path d="M21.752,14.584c-.114-.265-.337-.467-.61-.556-.203-.066-1.627-.521-2.81-.744v-3.882c.626-.409,1.12-1.015,1.408-1.76,.488-1.267,.278-2.642-.562-3.677-1.608-1.981-4.198-2.952-7.918-2.966h0c-3.424-.022-5.828,.767-7.446,2.385-1.629,1.629-2.382,4.045-2.369,7.604,.016,4.425,.587,9.147,7.2,9.147,2.538,0,5.429-.931,6.159-1.181h1.529v2.128c0,.455,.307,.853,.747,.968l3.501,.917c.084,.021,.169,.032,.253,.032,.392,0,.758-.23,.918-.604,1.069-2.481,1.069-5.329,0-7.812Zm-1.349,2.371h-2.071v-1.63c.565,.126,1.217,.307,1.748,.467,.138,.38,.246,.769,.323,1.163Zm-6.202-3.523c-.249-.834-.094-1.712,.424-2.408,.423-.567,1.03-.932,1.707-1.038v3.299c-.685,.129-1.452,.336-2.015,.5l-.116-.354Zm-5.557,4.704c-4.014,0-5.18-1.604-5.2-7.154-.011-2.991,.556-4.955,1.783-6.183,1.211-1.21,3.157-1.799,5.949-1.799h.076c3.082,.012,5.166,.74,6.373,2.226,.383,.472,.476,1.107,.248,1.697-.211,.546-.656,.927-1.213,1.031-1.445,.025-2.769,.706-3.64,1.875-.899,1.208-1.168,2.729-.729,4.201l1.076,3.282c-1.113,.333-3.046,.824-4.725,.824Zm6.713-1.181l-.416-1.269c.45-.13,.947-.262,1.391-.361v1.63h-.975Zm2.975,3.356v-1.356h2.208c-.037,.625-.147,1.245-.331,1.848l-1.877-.491Z"/>
</svg>
