<?xml version="1.0" encoding="UTF-8"?>
<svg xmlns="http://www.w3.org/2000/svg" id="Layer_1" data-name="Layer 1" viewBox="0 0 24 24">
  <path d="M15.225,8.649h-.032c-1.407,0-2.437,.346-3.148,1.057-.024,.024-.047,.049-.07,.073-.708-.746-1.782-1.125-3.215-1.13-1.465-.006-2.463,.341-3.181,1.057-.943,.943-1.047,2.276-1.044,3.197,.01,2.824,1.437,4.261,4.241,4.271h.033c1.407,0,2.437-.346,3.148-1.058,.024-.024,.047-.048,.07-.073,.708,.746,1.782,1.125,3.216,1.13h.032c1.407,0,2.438-.346,3.148-1.058,.943-.943,1.048-2.276,1.044-3.196-.01-2.824-1.437-4.261-4.241-4.272Zm-6.417,6.526h-.025c-1.905-.007-2.243-.74-2.249-2.279-.003-.883,.146-1.464,.458-1.776,.313-.312,.896-.471,1.733-.471h.025c1.422,.005,1.971,.416,2.16,1.263h-1.144c-.552,0-1,.448-1,1s.448,1,1,1h1.149c-.074,.353-.199,.615-.375,.791-.313,.313-.896,.472-1.733,.472Zm6.441,0c-1.905-.007-2.243-.741-2.249-2.279-.003-.883,.146-1.464,.458-1.775,.313-.313,.896-.472,1.733-.472h.025c1.905,.007,2.243,.741,2.249,2.279,.001,.284-.014,.535-.044,.758l-1.059-1.059c-.391-.391-1.023-.391-1.414,0s-.391,1.023,0,1.414l1.08,1.08c-.223,.035-.474,.054-.754,.054h-.025Z"/>
  <path d="M21.762,6.489c-.134-.297-.404-.511-.724-.572-.032-.006-.197-.037-.475-.084v-1.069c0-.459-.378-.876-.824-.987-2.253-.558-4.562-.676-6.856-.356-.494,.069-.861,.492-.861,.99v.706c-.007,0-.014,0-.021,0-1.685,0-3.28,.095-4.649,.219v-1.084h.915c.552,0,1-.448,1-1s-.448-1-1-1h-3.83c-.552,0-1,.448-1,1s.448,1,1,1h.915v1.301c-1.411,.179-2.31,.348-2.388,.363-.322,.062-.593,.277-.726,.576-.051,.113-1.237,2.822-1.237,6.419,0,3.628,1.188,6.311,1.238,6.423,.134,.297,.404,.511,.724,.572,.047,.009,.386,.073,.953,.161v.679c0,.552,.448,1,1,1s1-.448,1-1v-.408c1.619,.189,3.765,.367,6.085,.367s4.464-.179,6.085-.368v.409c0,.552,.447,1,1,1s1-.448,1-1v-.679c.566-.088,.905-.152,.952-.161,.322-.062,.593-.277,.727-.576,.05-.113,1.236-2.822,1.236-6.419,0-3.628-1.188-6.311-1.238-6.423Zm-1.641,11.546c-1.251,.204-4.51,.671-8.121,.671s-6.878-.467-8.124-.671c-.305-.852-.876-2.763-.876-5.124,0-2.327,.574-4.261,.879-5.124,1.25-.204,4.509-.671,8.121-.671s6.878,.467,8.124,.671c.305,.852,.876,2.763,.876,5.124,0,2.327-.574,4.261-.879,5.124Z"/>
</svg>
