<?xml version="1.0" encoding="UTF-8"?>
<svg xmlns="http://www.w3.org/2000/svg" id="Layer_1" data-name="Layer 1" viewBox="0 0 24 24">
  <path d="M18.115,11.803c.798-.763,1.004-1.702,1.004-2.471,0-2.246-1.643-4.099-4.018-4.667v-1.682c.464-.086,.815-.493,.815-.983,0-.553-.447-1-1-1h-5.834c-.553,0-1,.447-1,1,0,.49,.351,.896,.815,.983v1.681c-2.375,.568-4.018,2.421-4.018,4.668,0,.763,.208,1.697,1.014,2.459-.805,.765-1.014,1.711-1.014,2.486,0,.723,.188,1.617,.918,2.365-.729,.752-.918,1.658-.918,2.393,0,3.965,5.172,3.965,7.119,3.965,2.13,0,7.119,0,7.119-3.965,0-.73-.187-1.632-.909-2.381,.723-.75,.909-1.649,.909-2.377,0-.771-.207-1.712-1.004-2.475Zm-10.295,3.844c-.821-.389-.939-.886-.939-1.369,0-.625,.201-1.12,1.152-1.483h7.932c.954,.365,1.154,.859,1.154,1.483,0,.486-.115,.986-.9,1.369H7.82Zm2.172-9.142c.514-.048,.906-.479,.906-.995V3h2.203v2.511c0,.516,.393,.947,.906,.995,1.832,.173,3.111,1.335,3.111,2.826,0,.531-.14,1.073-1.112,1.462h-7.969c-1.012-.397-1.157-.936-1.157-1.462,0-1.492,1.279-2.654,3.111-2.827Zm2.008,14.495c-5.119,0-5.119-1.377-5.119-1.965,0-.497,.117-1.007,.929-1.389h8.378c.659,.307,.931,.719,.931,1.389,0,.638,0,1.965-5.119,1.965Z"/>
</svg>
