<?xml version="1.0" encoding="UTF-8"?>
<svg xmlns="http://www.w3.org/2000/svg" id="Layer_1" data-name="Layer 1" viewBox="0 0 24 24">
  <path d="M12,1C6.879,1,1,2.25,1,12s5.879,11,11,11,11-1.25,11-11S17.121,1,12,1Zm1,19.981v-.964c0-.552-.447-1-1-1s-1,.448-1,1v.964c-4.602-.188-7.684-1.81-7.977-7.981h.96c.553,0,1-.448,1-1s-.447-1-1-1h-.96c.293-6.171,3.375-7.793,7.977-7.981v.964c0,.552,.447,1,1,1s1-.448,1-1v-.964c4.602,.188,7.684,1.81,7.977,7.981h-.96c-.553,0-1,.448-1,1s.447,1,1,1h.96c-.293,6.171-3.375,7.793-7.977,7.981Z"/>
  <path d="M14.27,11h-1.27v-1.27c0-.552-.447-1-1-1s-1,.448-1,1v1.27h-1.27c-.553,0-1,.448-1,1s.447,1,1,1h1.27v1.27c0,.552,.447,1,1,1s1-.448,1-1v-1.27h1.27c.553,0,1-.448,1-1s-.447-1-1-1Z"/>
</svg>
