<?xml version="1.0" encoding="UTF-8"?>
<svg xmlns="http://www.w3.org/2000/svg" id="Layer_1" data-name="Layer 1" viewBox="0 0 24 24">
  <circle cx="12" cy="12" r="1"/>
  <path d="M12,23c-4.848,0-8.948-1.139-9.121-1.188-.327-.092-.585-.345-.685-.67-.049-.16-1.194-3.967-1.194-9.142C1,6.869,2.145,3.022,2.193,2.861c.099-.327,.357-.581,.687-.674,.173-.048,4.283-1.188,9.12-1.188s8.948,1.139,9.121,1.188c.327,.092,.585,.345,.685,.67,.049,.16,1.194,3.967,1.194,9.142,0,5.131-1.145,8.978-1.193,9.139-.099,.327-.357,.581-.687,.674-.173,.048-4.283,1.188-9.12,1.188Zm-8.037-2.976c1.24,.298,4.46,.976,8.037,.976s6.793-.677,8.035-.975c.3-1.196,.965-4.272,.965-8.025,0-3.794-.662-6.84-.963-8.024-1.24-.298-4.46-.976-8.037-.976s-6.793,.677-8.035,.975c-.3,1.196-.965,4.272-.965,8.025,0,3.794,.662,6.84,.963,8.024Z"/>
</svg>
