<?xml version="1.0" encoding="UTF-8"?>
<svg xmlns="http://www.w3.org/2000/svg" id="Layer_1" data-name="Layer 1" viewBox="0 0 24 24">
  <path d="M22.697,8.961c.012-.067,.303-1.653,.303-3.379,0-1.195-.193-2.383-.568-3.464-.087-.29-.302-.528-.59-.643-.105-.042-1.063-.408-2.215-.408s-2.108,.366-2.215,.408c-.264,.104-.471,.316-.569,.582-.039,.105-.2,.588-.271,1.542-.465,.008-1.051,.008-1.518,0-.07-.963-.233-1.443-.272-1.548-.1-.263-.306-.472-.567-.576-.104-.042-1.062-.408-2.215-.408s-2.11,.367-2.215,.408c-.262,.104-.467,.313-.567,.576-.04,.105-.202,.584-.272,1.547-.467,.008-1.053,.008-1.519,0-.07-.953-.23-1.436-.27-1.542-.099-.266-.306-.478-.57-.583-.105-.042-1.065-.408-2.214-.408s-2.11,.367-2.215,.408c-.291,.115-.507,.358-.592,.652h0c-.37,1.057-.565,2.252-.565,3.455,0,1.727,.291,3.313,.303,3.379,.088,.474,.501,.817,.983,.817h.579c-.154,1.085-.335,2.867-.335,5.259,0,2.65,.263,4.728,.455,5.896h-.496c-.552,0-1,.448-1,1s.448,1,1,1H21.511c.553,0,1-.448,1-1s-.447-1-1-1h-.497c.193-1.168,.456-3.246,.456-5.896,0-2.392-.181-4.173-.335-5.259h.579c.482,0,.896-.344,.983-.817ZM5.016,20.934c-.175-.98-.486-3.116-.486-5.896,0-3.828,.493-6.011,.498-6.033,.068-.297-.002-.609-.192-.848-.189-.238-.478-.378-.782-.378h-.906c-.071-.568-.148-1.37-.148-2.197,0-.81,.113-1.638,.321-2.376,.53-.132,1.495-.145,2.05-.013,.044,.294,.088,.736,.088,1.339,0,.998,1.015,1.036,1.502,1.054,.334,.013,.779,.019,1.225,.019,1.873,0,2.727,0,2.727-1.073,0-.607,.043-1.049,.087-1.339,.537-.129,1.462-.129,1.999,0,.044,.292,.087,.733,.087,1.339,0,1.073,.854,1.073,2.727,1.073s2.727,0,2.727-1.073c0-.604,.044-1.047,.088-1.339,.558-.133,1.52-.12,2.051,.013,.208,.74,.321,1.568,.321,2.376,0,.824-.077,1.627-.148,2.197h-.905c-.305,0-.593,.14-.782,.378s-.261,.551-.192,.848c.006,.021,.498,2.205,.498,6.033,0,2.781-.311,4.916-.486,5.896H5.016Z"/>
  <path d="M12,9.799c-1.787,0-3.24,1.446-3.24,3.224v2.888c0,.466,.321,.87,.775,.975,.806,.186,1.635,.279,2.464,.279s1.658-.093,2.464-.279c.454-.105,.775-.509,.775-.975v-2.888c0-1.778-1.453-3.224-3.239-3.224Zm1.239,5.28c-.82,.113-1.659,.113-2.479,0v-2.056c0-.675,.556-1.224,1.24-1.224s1.239,.549,1.239,1.224v2.056Z"/>
</svg>
