<?xml version="1.0" encoding="UTF-8"?>
<svg xmlns="http://www.w3.org/2000/svg" id="Layer_1" data-name="Layer 1" viewBox="0 0 24 24">
  <path d="M22.481,14.294c-.08-.33-.322-.597-.643-.708-.054-.018-.27-.081-.554-.127-.323-1.651-.818-2.723-.848-2.789-.101-.215-.274-.388-.491-.486-.068-.031-1.702-.761-4.173-.761s-4.104,.729-4.172,.761c-.218,.099-.394,.272-.494,.49-.031,.066-.522,1.142-.845,2.783-.286,.045-.502,.11-.557,.129-.319,.112-.561,.377-.642,.706-.013,.053-.127,.538-.127,1.174,0,.641,.115,1.123,.128,1.176,.062,.249,.216,.461,.426,.598-.018,.25-.033,.558-.033,.898,0,.866,.096,1.516,.1,1.542,.063,.423,.389,.759,.81,.836,.005,0,.014,.003,.028,.005v.204c0,1.252,.979,2.271,2.181,2.271,1.129,0,2.059-.897,2.17-2.041,.333,.011,.677,.018,1.027,.018s.693-.007,1.026-.018c.111,1.145,1.042,2.041,2.17,2.041,1.203,0,2.182-1.019,2.182-2.271v-.204c.013-.002,.023-.004,.027-.005,.421-.077,.747-.414,.81-.837,.004-.027,.1-.683,.1-1.541,0-.341-.015-.649-.033-.898,.211-.137,.366-.35,.427-.6,.014-.053,.127-.534,.127-1.174,0-.634-.113-1.118-.126-1.171Zm-6.709-2.871c1.407,0,2.479,.283,2.998,.454,.225,.598,.641,1.89,.758,3.515-.992-.178-2.32-.349-3.756-.349s-2.763,.172-3.757,.35c.118-1.616,.535-2.914,.76-3.515,.522-.172,1.595-.455,2.997-.455Zm-4.302,7.241c-.008-.158-.014-.336-.014-.526,0-.217,.008-.419,.018-.595,.304-.068,.702-.15,1.167-.227v.161c0,.552,.447,1,1,1s1-.448,1-1v-.396c.366-.024,.745-.038,1.131-.038s.764,.014,1.13,.038v.396c0,.552,.447,1,1,1s1-.448,1-1v-.162c.465,.077,.863,.159,1.167,.227,.01,.175,.018,.376,.018,.595,0,.189-.006,.367-.014,.526-.903,.126-2.526,.31-4.301,.31s-3.397-.184-4.302-.31Z"/>
  <path d="M13.081,3.658v2.218c0,.552,.447,1,1,1s1-.448,1-1V2.97c0-.38-.216-.728-.557-.896-.088-.044-2.214-1.074-6.288-1.074S2.04,2.029,1.951,2.073c-.342,.168-.559,.516-.559,.897V22c0,.552,.447,1,1,1H7.024c.553,0,1-.448,1-1s-.447-1-1-1H3.393V3.659c.794-.257,2.421-.659,4.844-.659s4.056,.401,4.845,.658Z"/>
  <rect x="4.615" y="5.868" width="2.953" height="3.51" rx="1" ry="1"/>
  <rect x="4.615" y="10.73" width="2.953" height="3.51" rx="1" ry="1"/>
  <rect x="4.615" y="15.591" width="2.953" height="3.51" rx="1" ry="1"/>
  <rect x="8.905" y="5.868" width="2.953" height="3.51" rx="1" ry="1"/>
</svg>
