<?xml version="1.0" encoding="UTF-8"?>
<svg xmlns="http://www.w3.org/2000/svg" id="Layer_1" data-name="Layer 1" viewBox="0 0 24 24">
  <path d="M22.437,9.116c-.496-.241-1.095-.034-1.336,.462-.015,.03-1.512,3.07-4.952,6.505-2.811,2.808-5.458,4.389-6.304,4.859-3.695-.705-6.094-3.1-6.8-6.79,.471-.845,2.054-3.488,4.865-6.295,2.825-2.822,5.407-4.346,6.237-4.8,2.223,.453,3.563,1.79,3.994,3.98-.455,.829-1.989,3.419-4.808,6.234-1.911,1.909-3.47,2.715-4.185,3.016-.624-.505-.917-.803-1.43-1.457,.3-.716,1.106-2.274,3.022-4.187,.964-.963,1.99-1.865,3.05-2.681,.438-.337,.519-.965,.182-1.402-.336-.438-.963-.519-1.402-.183-1.127,.868-2.218,1.827-3.243,2.851-3.076,3.072-3.681,5.445-3.705,5.544-.072,.298-.003,.612,.183,.851,.972,1.273,1.306,1.612,2.539,2.578,.241,.188,.556,.257,.853,.184,.1-.024,2.475-.628,5.551-3.7,3.659-3.655,5.269-6.908,5.335-7.045,.089-.182,.121-.388,.09-.588-.506-3.345-2.646-5.485-6.027-6.028-.204-.032-.41-.003-.595,.087-.136,.066-3.379,1.66-7.055,5.33C2.854,10.08,1.175,13.398,1.105,13.538c-.094,.188-.126,.399-.093,.606,.778,4.834,4.001,8.053,8.842,8.831,.053,.008,.105,.013,.158,.013,.154,0,.307-.036,.446-.105,.14-.07,3.463-1.747,7.104-5.384,3.675-3.67,5.271-6.91,5.337-7.046,.241-.497,.034-1.095-.463-1.336Z"/>
</svg>
