<?xml version="1.0" encoding="UTF-8"?>
<svg xmlns="http://www.w3.org/2000/svg" id="Layer_1" data-name="Layer 1" viewBox="0 0 24 24">
  <path d="M12,5.103c-2.968,0-6.914,.715-6.914,6.897s3.946,6.897,6.914,6.897,6.914-.715,6.914-6.897-3.946-6.897-6.914-6.897Zm0,11.795c-3.112,0-4.914-.801-4.914-4.897s1.88-4.897,4.914-4.897c3.112,0,4.914,.801,4.914,4.897s-1.88,4.897-4.914,4.897Z"/>
  <path d="M12,8.323c-.552,0-1,.448-1,1v2.369c0,.552,.448,1,1,1s1-.448,1-1v-2.369c0-.552-.448-1-1-1Z"/>
  <path d="M21.183,7.625c-.392-.391-1.025-.389-1.414,.002-.39,.391-.389,1.024,.002,1.414,.793,.791,1.229,1.842,1.229,2.959s-.437,2.169-1.229,2.959c-.391,.39-.392,1.023-.002,1.414,.195,.196,.452,.294,.708,.294s.511-.097,.706-.292c1.172-1.168,1.817-2.722,1.817-4.375s-.646-3.207-1.817-4.375Z"/>
  <path d="M4.231,7.626c-.39-.391-1.022-.393-1.414-.002-1.172,1.168-1.817,2.722-1.817,4.375s.646,3.207,1.817,4.375c.195,.195,.451,.292,.706,.292s.513-.098,.708-.294c.39-.391,.389-1.024-.002-1.414-.793-.791-1.229-1.842-1.229-2.959s.437-2.169,1.229-2.959c.391-.39,.392-1.023,.002-1.414Z"/>
  <path d="M12,13.678c-.552,0-.999,.447-.999,.999s.447,.999,.999,.999,.999-.447,.999-.999-.447-.999-.999-.999Z"/>
</svg>
