<?xml version="1.0" encoding="UTF-8"?>
<svg xmlns="http://www.w3.org/2000/svg" id="Layer_1" data-name="Layer 1" viewBox="0 0 24 24">
  <path d="M12,1C6.879,1,1,2.25,1,12s5.879,11,11,11,11-1.25,11-11S17.121,1,12,1Zm7.928,16.539c-.332-.273-.67-.581-1.011-.923-.404-.404-.758-.799-1.063-1.185l.959-.359c.517-.194,.778-.771,.585-1.288-.193-.518-.771-.776-1.288-.585l-1.321,.495c-.294-.691-.415-1.359-.365-2.01,.035-.453,.15-.911,.351-1.381l1.334,.5c.658,.219,1.138-.184,1.288-.585,.193-.517-.068-1.093-.585-1.288l-.959-.359c.304-.379,.657-.769,1.063-1.175,.352-.352,.687-.661,1.013-.932,.693,1.323,1.07,3.118,1.07,5.536s-.378,4.216-1.072,5.539ZM4.07,6.464c.325,.271,.66,.579,1.013,.932,.406,.406,.759,.796,1.063,1.175l-.959,.359c-.517,.194-.778,.771-.585,1.288,.15,.401,.646,.807,1.288,.585l1.334-.5c.201,.47,.316,.928,.351,1.381,.05,.651-.071,1.319-.365,2.01l-1.321-.495c-.519-.191-1.095,.068-1.288,.585-.193,.517,.068,1.093,.585,1.288l.959,.359c-.305,.387-.659,.781-1.063,1.185-.342,.342-.68,.65-1.011,.923-.694-1.323-1.072-3.119-1.072-5.539s.377-4.214,1.07-5.536Zm1.212,12.669c.402-.327,.808-.696,1.215-1.103,.63-.63,1.163-1.252,1.599-1.868l1.142,.428c.66,.225,1.138-.184,1.288-.585,.193-.517-.068-1.093-.585-1.288l-.854-.32c.397-.96,.557-1.912,.483-2.867-.05-.648-.205-1.288-.471-1.931l.842-.316c.517-.194,.778-.771,.585-1.288-.194-.518-.771-.777-1.288-.585l-1.139,.427c-.434-.604-.966-1.22-1.602-1.856-.42-.42-.822-.788-1.216-1.112,1.581-1.453,3.906-1.869,6.719-1.869s5.138,.415,6.719,1.869c-.394,.324-.797,.693-1.216,1.112-.636,.636-1.168,1.252-1.602,1.856l-1.139-.427c-.518-.192-1.094,.067-1.288,.585-.193,.517,.068,1.093,.585,1.288l.842,.316c-.266,.643-.421,1.283-.471,1.931-.074,.955,.086,1.907,.483,2.867l-.854,.32c-.517,.194-.778,.771-.585,1.288,.15,.401,.66,.816,1.288,.585l1.142-.428c.436,.616,.968,1.238,1.599,1.868,.406,.407,.813,.776,1.215,1.103-1.581,1.452-3.905,1.867-6.718,1.867s-5.136-.415-6.718-1.867Z"/>
</svg>
