<?xml version="1.0" encoding="UTF-8"?>
<svg xmlns="http://www.w3.org/2000/svg" id="Layer_1" data-name="Layer 1" viewBox="0 0 24 24">
  <path d="M22.238,7.397c-.887-2.636-2.991-4.737-5.629-5.621-3.022-1.014-6.187-1.013-9.211,0-2.64,.885-4.744,2.987-5.629,5.623-1.026,3.053-1.026,6.149,0,9.202,.885,2.637,2.99,4.739,5.629,5.623,1.513,.507,3.062,.764,4.606,.764s3.093-.257,4.605-.763c.523-.175,.807-.742,.631-1.266-.176-.524-.742-.804-1.266-.631-2.613,.875-5.327,.875-7.941,0-2.048-.687-3.682-2.317-4.369-4.363-.883-2.63-.883-5.298,0-7.929,.687-2.045,2.32-3.676,4.369-4.363,2.614-.875,5.326-.875,7.941,0,2.047,.686,3.681,2.316,4.368,4.361,.772,2.301,.863,4.648,.271,6.979-.29,.411-.768,.662-1.274,.662-.818,0-1.49-.633-1.552-1.434,.434-1.755,.358-3.525-.231-5.273-.396-1.18-1.339-2.121-2.519-2.516-2.016-.675-4.057-.675-6.071,0-1.181,.396-2.122,1.336-2.519,2.516-.676,2.012-.676,4.052,0,6.064,.396,1.18,1.338,2.12,2.519,2.516,1.007,.337,2.021,.506,3.035,.506s2.028-.169,3.035-.506c.629-.211,1.19-.576,1.637-1.049,.637,.728,1.587,1.176,2.665,1.176,1.252,0,2.426-.669,3.063-1.748,.046-.079,.081-.163,.104-.251,.737-2.765,.646-5.55-.27-8.279Zm-7.836,8.255c-1.613,.542-3.184,.542-4.798,0-.59-.198-1.061-.667-1.259-1.256-.542-1.612-.542-3.179,0-4.791,.198-.589,.668-1.059,1.259-1.256,1.614-.542,3.185-.542,4.799,0,.59,.198,1.061,.667,1.258,1.257,.542,1.611,.542,3.179,0,4.791-.197,.589-.668,1.059-1.259,1.256Z"/>
</svg>
