<?xml version="1.0" encoding="UTF-8"?>
<svg xmlns="http://www.w3.org/2000/svg" id="Layer_1" data-name="Layer 1" viewBox="0 0 24 24">
  <path d="M14.017,21.637c-.536,0-.977-.423-.999-.958-.002-.05,.003-.129,.008-.179,.288-2.621,.209-5.876-.647-6.832-.272-.304-.476-.312-.753-.005-.854,.952-.938,4.212-.654,6.839,.006,.049,.01,.127,.008,.177-.022,.536-.463,.958-.999,.958-2.445,0-6.045-4.095-7.747-7.771-1.729-3.734-1.635-7.022,.263-9.259,1.172-1.381,2.68-2.176,4.244-2.241,1.478-.055,2.854,.514,4.002,1.659,.845,.845,1.704,.847,2.551,0,1.146-1.145,2.525-1.717,3.98-1.659,1.551,.064,3.051,.859,4.224,2.241,1.907,2.248,2.002,5.551,.267,9.301-1.692,3.656-5.29,7.729-7.746,7.729Zm-2.021-10.156c.726,0,1.373,.295,1.872,.853,1.3,1.45,1.396,4.592,1.276,6.805,1.392-.952,3.472-3.191,4.804-6.07,.805-1.738,1.878-4.981,.023-7.167-.807-.95-1.794-1.496-2.78-1.536-.856-.025-1.743,.335-2.484,1.076-1.636,1.632-3.745,1.631-5.379,0-.741-.741-1.607-1.102-2.506-1.076-1,.041-1.995,.586-2.801,1.536-1.842,2.17-.773,5.396,.027,7.125,1.315,2.843,3.415,5.116,4.808,6.093-.116-2.223-.012-5.352,1.281-6.792,.497-.553,1.14-.846,1.858-.846Z"/>
</svg>
