<?xml version="1.0" encoding="UTF-8"?>
<svg xmlns="http://www.w3.org/2000/svg" id="Layer_1" data-name="Layer 1" viewBox="0 0 24 24">
  <path d="M22,19.673c-.663,0-1.287-.288-1.755-.811-.381-.424-1.109-.424-1.49,0-.936,1.045-2.574,1.045-3.51,0-.381-.424-1.109-.424-1.49,0-.936,1.045-2.574,1.045-3.51,0-.381-.424-1.109-.424-1.49,0-.936,1.045-2.574,1.045-3.51,0-.381-.424-1.109-.424-1.49,0-.468,.522-1.092,.811-1.755,.811-.553,0-1,.447-1,1s.447,1,1,1c.894,0,1.767-.288,2.5-.811,1.467,1.045,3.533,1.045,5,0,1.467,1.045,3.533,1.045,5,0,1.467,1.045,3.533,1.045,5,0,.733,.522,1.606,.811,2.5,.811,.553,0,1-.447,1-1s-.447-1-1-1Z"/>
  <path d="M2,16.614c.894,0,1.767-.288,2.5-.811,1.467,1.045,3.533,1.045,5,0,1.467,1.045,3.533,1.045,5,0,1.467,1.045,3.533,1.045,5,0,.733,.522,1.606,.811,2.5,.811,.553,0,1-.447,1-1s-.447-1-1-1c-.663,0-1.286-.288-1.755-.812-.381-.424-1.109-.424-1.49,0-.938,1.047-2.572,1.047-3.51,0-.381-.424-1.109-.424-1.49,0-.938,1.047-2.572,1.047-3.51,0-.381-.424-1.109-.424-1.49,0-.938,1.047-2.572,1.047-3.51,0-.381-.424-1.109-.424-1.49,0-.469,.523-1.092,.812-1.755,.812-.553,0-1,.447-1,1s.447,1,1,1Z"/>
  <path d="M8.805,7.115c.508,.227,1.096,0,1.322-.502,.224-.499,.543-.923,.873-1.27v5.753c0,.553,.447,1,1,1s1-.447,1-1V5.343c.33,.347,.624,.784,.873,1.27,.413,.806,1.188,.562,1.322,.502,.504-.227,.729-.818,.502-1.322-.993-2.209-3.157-3.313-3.249-3.359-.283-.143-.613-.143-.896,0-.092,.046-2.256,1.15-3.249,3.359-.227,.504-.002,1.096,.502,1.322Z"/>
</svg>
