<?xml version="1.0" encoding="UTF-8"?>
<svg xmlns="http://www.w3.org/2000/svg" id="Layer_1" data-name="Layer 1" viewBox="0 0 24 24">
  <path d="M12,1.798C6.878,1.798,1,3.048,1,12.798c0,3.874,.899,6.635,2.75,8.439,.124,.12,.276,.207,.442,.251,.11,.029,2.758,.714,7.808,.714s7.684-.686,7.793-.714c.166-.045,.317-.13,.439-.25,1.862-1.81,2.767-4.57,2.767-8.44C23,3.048,17.122,1.798,12,1.798Zm7.027,17.814c-.747,.159-3.129,.59-7.027,.59s-6.291-.431-7.042-.59c-1.317-1.422-1.958-3.655-1.958-6.814C3,5.328,6.598,3.798,12,3.798s9,1.53,9,9c0,3.156-.646,5.39-1.973,6.814Z"/>
  <path d="M13,10.825v-3.846c0-.553-.448-1-1-1s-1,.447-1,1v3.846c-.719,.366-1.213,1.113-1.213,1.973,0,1.22,.993,2.213,2.213,2.213s2.213-.993,2.213-2.213c0-.86-.494-1.607-1.213-1.973Z"/>
  <path d="M7.328,6.63c-2.045,1.188-2.328,3.666-2.328,6.168,0,1.115,.091,2.105,.27,2.943,.101,.47,.515,.791,.977,.791,.069,0,.14-.007,.21-.022,.54-.115,.884-.646,.769-1.187-.15-.701-.226-1.551-.226-2.525,0-3.221,.64-4.036,1.332-4.438,.478-.277,.64-.89,.363-1.367-.278-.478-.89-.642-1.367-.363Z"/>
  <path d="M16.672,6.63c-.478-.276-1.089-.114-1.367,.363s-.115,1.09,.363,1.367c.691,.401,1.332,1.217,1.332,4.438,0,.973-.077,1.821-.229,2.523-.117,.54,.227,1.072,.767,1.188,.071,.016,.142,.022,.212,.022,.461,0,.875-.32,.977-.789,.182-.84,.273-1.831,.273-2.945,0-2.502-.282-4.98-2.328-6.168Z"/>
</svg>
