<?xml version="1.0" encoding="UTF-8"?>
<svg xmlns="http://www.w3.org/2000/svg" id="Layer_1" data-name="Layer 1" viewBox="0 0 24 24">
  <path d="M20.361,14.249c.255,0,.511-.098,.707-.292,.391-.391,.392-1.023,.001-1.415L10.642,2.096c-.391-.391-1.023-.391-1.415-.001-.328,.328-.381,.828-.158,1.211-.413,.336-.91,.755-1.46,1.252l-1.083-1.085c-.39-.391-1.022-.393-1.414,0-.391,.39-.392,1.023,0,1.414l1.049,1.051C2.997,9.109,1.221,11.991,1.147,12.112c-.176,.287-.195,.644-.051,.948,.055,.116,1.367,2.869,3.764,5.271,2.392,2.396,5.144,3.716,5.26,3.771,.136,.065,.283,.097,.429,.097,.183,0,.365-.05,.525-.149,.122-.076,3.03-1.884,6.174-5.034,1.125-1.126,2.008-2.151,2.614-2.899,.154,.089,.327,.133,.499,.133Zm-4.529,1.353c-2.254,2.259-4.418,3.813-5.342,4.438-.844-.463-2.638-1.543-4.214-3.123-1.582-1.585-2.659-3.383-3.119-4.227,.616-.917,2.152-3.067,4.417-5.338l4.122,4.129c.195,.196,.451,.293,.708,.293s.511-.097,.707-.292c.391-.39,.392-1.023,0-1.414l-4.086-4.094c.552-.496,1.044-.907,1.44-1.225l7.954,7.969c-.572,.714-1.447,1.741-2.587,2.883Z"/>
  <path d="M21.352,16.326c-.337-.228-.778-.228-1.116,0-.169,.113-1.648,1.153-1.648,2.7,0,1.218,.99,2.208,2.207,2.208s2.206-.991,2.206-2.208c0-1.546-1.479-2.586-1.648-2.7Z"/>
</svg>
