<?xml version="1.0" encoding="UTF-8"?>
<svg xmlns="http://www.w3.org/2000/svg" id="Layer_1" data-name="Layer 1" viewBox="0 0 24 24">
  <path d="M22.506,12.584c-1.124-2.794-4.356-4.984-6.878-6.332,.038-.897,.055-1.399,.053-1.493-.055-2.028-1.672-3.617-3.681-3.617s-3.625,1.589-3.681,3.615c-.003,.094,.015,.596,.052,1.496-2.522,1.348-5.753,3.537-6.877,6.332-1.323,3.289,.099,6.263,3.815,7.959,.273,.125,.958,.438,1.841,.644,1.122,1.079,2.887,1.671,4.899,1.671,2.575,0,4.053-.906,4.848-1.682,.851-.205,1.523-.509,1.806-.639,3.704-1.69,5.125-4.664,3.803-7.953ZM10.318,4.813c.026-.938,.764-1.672,1.682-1.672s1.656,.734,1.682,1.654c0,.062-.007,.254-.016,.494-.74-.331-1.238-.519-1.317-.549-.225-.084-.473-.084-.697,0-.079,.029-.577,.217-1.317,.549-.009-.234-.015-.419-.016-.477ZM3.35,13.33c.828-2.058,3.263-3.804,5.393-5-1.556,2.308-3.256,5.507-3.256,8.479,0,.601,.062,1.164,.182,1.685-2.414-1.252-3.194-2.987-2.319-5.164Zm4.137,3.479c0-3.522,3.065-7.724,4.512-9.51,1.447,1.792,4.515,6.007,4.515,9.531,0,1.263-.334,2.237-.994,2.895-.519,.518-1.541,1.133-3.47,1.133-3.039,0-4.562-1.365-4.562-4.049Zm10.857,1.678c.113-.513,.17-1.065,.17-1.657,0-2.977-1.705-6.189-3.263-8.503,2.216,1.258,4.607,3.03,5.4,5.002,.872,2.169,.101,3.9-2.307,5.158Z"/>
</svg>
