<?xml version="1.0" encoding="UTF-8"?>
<svg xmlns="http://www.w3.org/2000/svg" id="Layer_1" data-name="Layer 1" viewBox="0 0 24 24">
  <g>
    <path d="M21.032,9.515h0c-.552-.53-.91-1.324-1.006-2.237-.007-.062-.014-.122-.021-.183,.328-.164,.553-.503,.553-.894,0-.517-.393-.942-.896-.995-.938-3.607-3.042-4.206-4.333-4.206s-3.39,.599-4.33,4.205c-.504,.051-.898,.477-.898,.995,0,.392,.225,.731,.553,.895-.007,.064-.015,.128-.022,.193-.096,.912-.453,1.707-1.005,2.236-1.317,1.266-1.958,3.179-1.958,5.849,0,6.836,4.371,7.627,7.659,7.627s7.66-.791,7.66-7.627c0-2.68-.64-4.596-1.958-5.858ZM15.33,3c1.165,0,1.851,.97,2.253,2.2h-4.494c.393-1.179,1.071-2.2,2.241-2.2Zm-4.316,7.966c.892-.856,1.463-2.088,1.609-3.469,.01-.096,.022-.195,.034-.297h5.347c.012,.096,.023,.192,.033,.287,.146,1.383,.718,2.615,1.611,3.472,.161,.154,.307,.328,.439,.52H10.58c.13-.188,.274-.359,.433-.512Zm4.316,10.034c-3.494,0-5.659-.941-5.659-5.627,0-.705,.05-1.335,.15-1.895h11.02c.099,.56,.149,1.19,.149,1.895,0,4.686-2.166,5.627-5.66,5.627Z"/>
    <path d="M7.093,21.008c-2.019-.259-4.082-1.131-4.082-5.635,0-.587,.035-1.123,.104-1.61h2.225c.552,0,1-.448,1-1s-.448-1-1-1h-1.598c.173-.305,.376-.571,.612-.797,.892-.856,1.463-2.088,1.609-3.469,.01-.096,.022-.195,.034-.297h1.92c.552,0,1-.448,1-1s-.448-1-1-1h-1.488c.393-1.179,1.072-2.2,2.241-2.2,.552,0,1-.448,1-1s-.448-1-1-1c-1.29,0-3.39,.599-4.331,4.205-.504,.051-.898,.477-.898,.995,0,.392,.225,.731,.553,.895-.007,.064-.015,.128-.022,.193-.096,.912-.453,1.707-1.005,2.236-1.317,1.266-1.958,3.179-1.958,5.849,0,4.623,1.906,7.115,5.827,7.619,.043,.006,.086,.008,.129,.008,.495,0,.926-.368,.99-.873,.07-.548-.316-1.049-.864-1.119Z"/>
  </g>
  <g>
    <circle cx="15.25" cy="15.829" r="1.021"/>
    <circle cx="18.31" cy="15.829" r="1.021"/>
    <circle cx="16.78" cy="18.409" r="1.021"/>
  </g>
</svg>
