<?xml version="1.0" encoding="UTF-8"?>
<svg xmlns="http://www.w3.org/2000/svg" id="Layer_1" data-name="Layer 1" viewBox="0 0 24 24">
  <path d="M19.862,4.151c-2.618-2.614-6.731-5.46-12.197,0-2.083,2.079-3.095,4.08-3.095,6.114,0,1.218,.374,2.429,1.134,3.659-.651,.426-1.335,.994-2.044,1.699-1.768,1.756-2.663,3.355-2.661,4.752,0,.734,.264,1.398,.741,1.869,.327,.322,.94,.754,1.883,.754,1.11,0,2.677-.599,4.769-2.678,.698-.694,1.263-1.364,1.69-2.001,1.069,.668,2.282,1.133,3.634,1.133,1.804,0,3.856-.83,6.146-3.116,2.112-2.109,3.138-4.112,3.138-6.125,0-1.996-.997-3.922-3.138-6.062ZM6.982,18.903c-2.279,2.266-3.507,2.245-3.836,1.918-.095-.094-.146-.249-.146-.449,0-.382,.2-1.471,2.071-3.33,.658-.654,1.273-1.161,1.835-1.513,.235,.268,.488,.538,.76,.809,.259,.258,.532,.519,.82,.774-.353,.548-.856,1.148-1.503,1.792Zm11.467-3.981c-3.891,3.883-6.559,2.81-9.371,0-1.711-1.708-2.508-3.188-2.508-4.655,0-1.477,.82-3.014,2.508-4.7,1.808-1.806,3.332-2.559,4.734-2.559,1.624,0,3.084,1.009,4.637,2.559,1.741,1.739,2.551,3.216,2.551,4.646,0,1.454-.834,2.995-2.551,4.709Z"/>
  <path d="M15.622,12.092c-1.079,1.077-1.749,1.357-1.873,1.372-.005,0-.552-.08-1.845-1.371-1.067-1.067-1.325-1.684-1.334-1.825,.006-.146,.265-.803,1.334-1.87,1.249-1.248,1.866-1.375,1.864-1.384,.045,.009,.612,.145,1.853,1.384,.39,.389,1.023,.389,1.414,0,.39-.392,.39-1.024,0-1.415-1.307-1.305-2.396-1.967-3.238-1.967-.609,0-1.677,.341-3.305,1.967-1.275,1.273-1.921,2.378-1.921,3.284,0,.89,.628,1.95,1.921,3.241,1.317,1.316,2.377,1.956,3.241,1.956,1.11,0,2.409-1.063,3.303-1.955,.391-.391,.392-1.023,.001-1.414-.391-.392-1.023-.392-1.415-.002Z"/>
</svg>
