<?xml version="1.0" encoding="UTF-8"?>
<svg xmlns="http://www.w3.org/2000/svg" id="Layer_1" data-name="Layer 1" viewBox="0 0 24 24">
  <path d="M6.895,1.701c-.566,.191-1.097,.426-1.579,.7-.48,.273-.648,.883-.375,1.364,.185,.324,.522,.506,.871,.506,.167,0,.337-.042,.493-.13,.371-.211,.785-.395,1.23-.545,.523-.176,.804-.744,.627-1.267-.176-.523-.744-.808-1.267-.627Z"/>
  <path d="M3.649,5.123c-.49-.255-1.093-.065-1.35,.423-.254,.486-.473,1.02-.651,1.584-.166,.527,.127,1.088,.654,1.254,.1,.032,.201,.047,.301,.047,.425,0,.819-.273,.953-.7,.143-.453,.316-.876,.516-1.258,.256-.49,.066-1.094-.423-1.35Z"/>
  <path d="M2.048,13.774c.552-.02,.984-.482,.965-1.034-.008-.241-.013-.487-.013-.74,0-.25,.004-.493,.012-.731,.019-.552-.414-1.014-.966-1.033-.543-.022-1.014,.415-1.033,.966-.009,.259-.013,.525-.013,.797,0,.276,.004,.546,.014,.81,.019,.541,.463,.965,.999,.965,.012,0,.023,0,.035,0Z"/>
  <path d="M3.549,16.267c-.165-.527-.728-.817-1.253-.656-.527,.165-.821,.726-.656,1.253,.177,.566,.395,1.1,.646,1.585,.178,.343,.527,.539,.889,.539,.155,0,.312-.036,.46-.112,.49-.255,.681-.858,.427-1.349-.198-.381-.371-.805-.513-1.26Z"/>
  <path d="M7.514,20.405c-.444-.149-.857-.332-1.228-.543-.48-.275-1.091-.107-1.364,.374-.273,.479-.106,1.09,.374,1.364,.483,.275,1.015,.511,1.581,.702,.106,.036,.213,.053,.319,.053,.418,0,.807-.264,.948-.682,.176-.523-.105-1.091-.629-1.267Z"/>
  <path d="M12,1c-.355,0-.703,.007-1.044,.021-.552,.024-.979,.491-.956,1.042,.023,.537,.466,.957,.998,.957,0,0,.001,0,.002,0V20.98c-.57-.013-.978,.42-1,.958-.023,.552,.405,1.018,.957,1.041,.341,.014,.689,.021,1.043,.021,5.122,0,11-1.25,11-11S17.122,1,12,1Z"/>
</svg>
