<?xml version="1.0" encoding="UTF-8"?>
<svg xmlns="http://www.w3.org/2000/svg" id="Layer_1" data-name="Layer 1" viewBox="0 0 24 24">
  <path d="M3.748,8.896l1.263,1.065c-.538,.944-1.023,1.904-1.448,2.869-.045-1.312,.017-2.626,.186-3.934Zm18.188-2.082c-.045-.224-.165-.426-.34-.572l-.305-.254c-2.577-2.153-5.502-3.775-8.686-4.82,0,0-.394-.147-.585-.147-.247,0-.616,.144-.616,.144-3.193,1.047-6.118,2.67-8.695,4.823l-.305,.255c-.175,.146-.294,.348-.339,.571-.689,3.441-.689,6.93,0,10.371,.045,.224,.165,.425,.339,.571l.305,.255c2.577,2.153,5.502,3.775,8.695,4.823,0,0,.371,.145,.601,.145,.249,0,.591-.145,.591-.145,3.193-1.047,6.118-2.67,8.694-4.822l.306-.255c.175-.146,.295-.348,.34-.572,.689-3.441,.689-6.93,0-10.371ZM11.993,15.813l-.5-.512c-1.397-1.432-2.575-3.04-3.513-4.799l.335-.059c2.428-.429,4.892-.43,7.323,0l.34,.06c-.935,1.765-2.11,3.381-3.507,4.819l-.478,.492Zm-3.626-7.407c.442-.626,.909-1.24,1.398-1.836l2.227-2.817,2.196,2.797c.496,.607,.967,1.228,1.414,1.858-2.403-.382-4.833-.383-7.234-.002Zm-2.023,3.275c.975,1.778,2.178,3.415,3.59,4.884-.807-.042-1.613-.107-2.416-.198l-3.049-.327c.473-1.452,1.106-2.92,1.876-4.359Zm11.284-.026c.795,1.464,1.442,2.94,1.913,4.382l-3.152,.33c-.777,.089-1.556,.153-2.338,.195,1.408-1.476,2.607-3.121,3.577-4.907Zm-1.88-6.355l-.825-1.05c1.574,.754,3.059,1.675,4.443,2.755l-1.469,1.211c-.739-1.116-1.48-2.096-2.149-2.915Zm-7.541,.015c-.768,.936-1.485,1.914-2.142,2.92l-1.446-1.22c1.375-1.075,2.851-1.993,4.414-2.745l-.826,1.045Zm-.91,13.04c1.228,.14,2.462,.223,3.698,.252v1.963c-1.611-.609-3.142-1.381-4.581-2.309l.883,.095Zm5.698,.25c1.208-.03,2.413-.113,3.611-.249l.991-.104c-1.444,.933-2.981,1.708-4.602,2.32v-1.968Zm5.966-8.676l1.287-1.061c.171,1.31,.234,2.626,.19,3.94-.454-1.018-.956-1.981-1.477-2.879Z"/>
</svg>
