<?xml version="1.0" encoding="UTF-8"?>
<svg xmlns="http://www.w3.org/2000/svg" id="Layer_1" data-name="Layer 1" viewBox="0 0 24 24">
  <path d="M20.915,21h-1.919c-.115-1.515-.497-2.654-1.05-3.507l1.064-1.059c.391-.39,.393-1.023,.003-1.415-.39-.39-1.023-.394-1.415-.003l-1.058,1.053c-1.063-.703-2.334-.963-3.54-1.043v-1.901c0-.553-.447-1-1-1s-1,.447-1,1v1.901c-1.206,.08-2.477,.34-3.54,1.043l-1.059-1.054c-.39-.39-1.024-.387-1.414,.004s-.388,1.024,.004,1.414l1.063,1.058c-.553,.854-.935,1.992-1.051,3.508h-1.919c-.553,0-1,.447-1,1s.447,1,1,1h2.883c.553,0,1-.447,1-1,0-4.168,1.926-5.005,5.032-5.005s5.032,.837,5.032,5.005c0,.553,.447,1,1,1h2.883c.553,0,1-.447,1-1s-.447-1-1-1Z"/>
  <path d="M11.552,9.954c.141,.071,.295,.106,.448,.106s.308-.035,.448-.106c.108-.054,2.669-1.361,3.841-3.971,.227-.504,0-1.096-.502-1.322-.506-.226-1.097,0-1.322,.502-.365,.813-.93,1.468-1.465,1.957V2c0-.553-.447-1-1-1s-1,.447-1,1V7.118c-.536-.49-1.101-1.146-1.465-1.955-.227-.503-.815-.729-1.322-.502-.503,.227-.729,.818-.502,1.322,1.172,2.609,3.732,3.917,3.841,3.971Z"/>
</svg>
