<?xml version="1.0" encoding="UTF-8"?>
<svg xmlns="http://www.w3.org/2000/svg" id="Layer_1" data-name="Layer 1" viewBox="0 0 24 24">
  <path d="M22.919,7.079c-.197-.517-.776-.775-1.291-.579-1.086,.414-2.213,.457-3.106,.386l2.145-2.15c.39-.391,.389-1.024-.001-1.415-.392-.391-1.025-.389-1.415,.001l-2.14,2.145c-.071-.896-.027-2.026,.385-3.114,.196-.517-.064-1.094-.581-1.29-.515-.195-1.094,.064-1.29,.581-.526,1.389-.596,2.792-.516,3.911-2.67-1.342-5.81-1.277-5.974-1.271-.256,.007-.499,.112-.68,.293C-.361,13.416,1.068,21.746,1.134,22.097c.076,.411,.401,.731,.814,.802,.086,.015,.658,.106,1.599,.106,2.896,0,9.297-.861,15.869-7.449,.18-.181,.285-.423,.292-.679,.005-.166,.07-3.315-1.271-5.99,.245,.018,.503,.028,.771,.028,.958,0,2.05-.133,3.132-.546,.516-.197,.775-.774,.579-1.291Zm-6.421,8.471l-2.078-2.085c-.391-.391-1.023-.392-1.415-.002-.391,.39-.392,1.023-.002,1.415l1.931,1.938c-1.424,1.066-2.803,1.866-4.093,2.466l-1.8-1.775c-.39-.391-1.023-.392-1.415-.002-.391,.39-.392,1.023-.002,1.415l1.176,1.18c-2.637,.888-4.717,.949-5.771,.898-.073-1.446,.061-4.886,2.331-9.062l2.125,2.13c.195,.196,.452,.294,.708,.294s.511-.097,.706-.292c.391-.39,.392-1.023,.002-1.414l-2.477-2.483c.836-1.257,1.872-2.561,3.154-3.882,1.104,.034,4.294,.288,6.066,2.063,1.765,1.769,2.023,4.979,2.059,6.086-.404,.394-.806,.764-1.206,1.113Z"/>
</svg>
