<?xml version="1.0" encoding="UTF-8"?>
<svg xmlns="http://www.w3.org/2000/svg" id="Layer_1" data-name="Layer 1" viewBox="0 0 24 24">
  <path d="M22.348,6.584c-.037-2.696-2.186-5.69-7.586-5.584-2.809,.055-4.754,.669-6.074,1.988-.883,.883-1.4,2.035-1.475,3.273-1.73,.255-3.096,.876-4.075,1.854-.963,.963-1.491,2.245-1.486,3.609,0,.004,0,5.667,0,5.667,.025,2.696,2.146,5.608,7.651,5.608,2.865,0,4.727-.659,6.027-1.959,.874-.874,1.385-2.035,1.458-3.297,5.162-.732,5.565-4.342,5.56-5.465,0,0,0-5.684,0-5.696Zm-7.594-3.584c5.037,.02,5.591,2.558,5.595,3.647,.004,1.122-.506,2.998-3.814,3.477-.226-.684-.604-1.34-1.16-1.915,.832-.07,2.28-.302,2.68-1.061,.147-.279,.154-.611,.019-.896-.545-1.146-3.186-1.159-3.298-1.159-.027,0-2.697,.013-3.275,1.083-.024,.045-.044,.091-.061,.138-.662-.116-1.395-.182-2.204-.186,.072-.494,.287-1.146,.866-1.724,.926-.927,2.547-1.426,4.652-1.403ZM4.551,9.529c.926-.925,2.554-1.37,4.652-1.402,5.037,.02,5.59,2.558,5.595,3.647,.002,.606-.149,1.483-.882,2.216-.906,.906-2.47,1.386-4.67,1.374-5.037-.02-5.59-2.558-5.595-3.647-.002-.479,.113-1.4,.9-2.188Zm9.365,10.098c-.907,.906-2.528,1.349-4.67,1.373-5.019-.02-5.584-2.543-5.594-3.618v-1.584c1.206,.934,3.034,1.567,5.648,1.567,2.357,0,4.201-.502,5.498-1.494v1.54c.002,.606-.149,1.483-.882,2.217Zm2.882-3.908v-3.611c1.597-.227,2.737-.73,3.551-1.35v1.526c.004,1.087-.475,2.896-3.551,3.435Z"/>
  <path d="M9.225,13.367c.027,0,2.71-.013,3.279-1.092,.147-.279,.154-.611,.019-.896-.545-1.146-3.186-1.159-3.298-1.159-.027,0-2.697,.013-3.275,1.083-.153,.283-.16,.622-.02,.912,.552,1.14,3.268,1.152,3.295,1.152Z"/>
</svg>
