<?xml version="1.0" encoding="UTF-8"?>
<svg xmlns="http://www.w3.org/2000/svg" id="Layer_1" data-name="Layer 1" viewBox="0 0 24 24">
  <path d="M3.39,5.404c.046,0,.093-.003,.14-.01L20.748,2.99c.547-.076,.928-.582,.852-1.129s-.583-.932-1.129-.852L3.252,3.414c-.547,.076-.928,.582-.852,1.129,.069,.5,.498,.861,.989,.861Z"/>
  <path d="M20.609,6.621H3.391c-.553,0-1,.447-1,1,0,.175,.045,.34,.124,.483-.259,.975-.115,2.025,.433,2.915,.341,.555,.341,1.272,0,1.828-.744,1.21-.744,2.712,.002,3.925,.34,.555,.341,1.271-.005,1.834-.743,1.208-.743,2.709,0,3.917,.188,.308,.517,.477,.853,.477,.179,0,.359-.048,.522-.148,.471-.289,.618-.904,.328-1.375-.34-.554-.34-1.27,.006-1.833,.742-1.208,.742-2.709-.003-3.923-.341-.554-.341-1.271,0-1.827,.744-1.209,.744-2.712,0-3.922-.25-.406-.316-.898-.201-1.351h1.738c-.098,.82,.079,1.664,.532,2.398,.341,.555,.341,1.272,0,1.828-.744,1.21-.744,2.712,.002,3.926,.341,.554,.341,1.27-.006,1.834-.74,1.207-.74,2.708,0,3.915,.188,.308,.518,.478,.854,.478,.179,0,.358-.048,.521-.147,.471-.289,.619-.904,.33-1.375-.34-.555-.34-1.271,.005-1.834,.743-1.209,.743-2.711-.003-3.923-.341-.554-.341-1.271,0-1.827,.744-1.209,.744-2.712,0-3.922-.25-.406-.316-.898-.2-1.351h1.737c-.098,.82,.08,1.664,.532,2.398,.341,.555,.341,1.272,0,1.828-.744,1.21-.744,2.712,.002,3.925,.34,.555,.341,1.271-.005,1.834-.743,1.208-.743,2.709,0,3.917,.188,.308,.517,.477,.853,.477,.179,0,.359-.048,.522-.148,.471-.289,.618-.904,.328-1.375-.34-.554-.34-1.27,.006-1.833,.742-1.208,.742-2.709-.003-3.923-.341-.554-.341-1.271,0-1.827,.744-1.209,.744-2.712,0-3.922-.25-.406-.316-.898-.201-1.351h8.613c.553,0,1-.447,1-1s-.447-1-1-1Z"/>
</svg>
