<?xml version="1.0" encoding="UTF-8"?>
<svg xmlns="http://www.w3.org/2000/svg" id="Layer_1" data-name="Layer 1" viewBox="0 0 24 24">
  <path d="M18.47,11.295c-.282-.414-.817-1.342-1.315-3.013-.437-1.464-.492-2.558-.485-3.088,.212-.151,.541-.347,.948-.468,.466-.141,.816-.026,.819-.026h0c.515,.206,1.095-.046,1.299-.558,.205-.513-.045-1.095-.558-1.299-.099-.039-.991-.374-2.132-.033-1.219,.364-1.976,1.102-2.059,1.185-.152,.153-.251,.352-.281,.566-.009,.061-.178,1.345,.289,3.373-.532,.585-1.128,1.134-1.777,1.634-1.287,.993-2.306,1.675-3.011,2.089l-2.492-4.201h.849c.552,0,1-.448,1-1s-.448-1-1-1H3.991c-.552,0-1,.448-1,1s.448,1,1,1h1.4l2.374,4.003c-.515-.117-1.092-.176-1.73-.176-3.388,0-5.035,1.646-5.035,5.03s1.647,5.03,5.035,5.03,5.035-1.645,5.035-5.03c0-1.025-.151-1.89-.456-2.598,.943-.479,2.305-1.389,3.826-2.563,.427-.33,.835-.678,1.221-1.043,.202,.532,.402,.977,.59,1.346-2.23,.502-3.32,2.104-3.32,4.858,0,3.385,1.647,5.03,5.035,5.03s5.035-1.645,5.035-5.03c0-3.212-1.483-4.858-4.53-5.017ZM6.035,19.342c-2.013,0-3.035-.469-3.035-3.03,0-2.547,1.066-3.03,3.035-3.03,2.013,0,3.035,.469,3.035,3.03,0,2.547-1.066,3.03-3.035,3.03Zm11.931,0c-2.013,0-3.035-.469-3.035-3.03,0-2.547,1.066-3.03,3.035-3.03,2.013,0,3.035,.469,3.035,3.03,0,2.547-1.066,3.03-3.035,3.03Z"/>
</svg>
