<?xml version="1.0" encoding="UTF-8"?>
<svg xmlns="http://www.w3.org/2000/svg" id="Layer_1" data-name="Layer 1" viewBox="0 0 24 24">
  <path d="M21.059,8.174c-2.579-2.569-5.09-2.57-7.671,0-.487,.484-.976,1.175-1.376,1.806-.384-.606-.867-1.277-1.399-1.806-2.58-2.568-5.09-2.569-7.672,0-.833,.83-1.94,2.127-1.94,3.807,0,1.286,.635,2.543,1.941,3.844,1.29,1.285,2.562,1.927,3.836,1.927s2.545-.643,3.835-1.927c.487-.484,.976-1.175,1.376-1.806,.384,.606,.867,1.277,1.399,1.806,1.29,1.284,2.562,1.927,3.835,1.927,1.272,0,2.546-.643,3.837-1.927,.833-.83,1.94-2.127,1.94-3.807,0-1.286-.635-2.543-1.941-3.844Zm-11.856,6.234c-1.573,1.564-2.811,2.03-4.85,0-.897-.894-1.353-1.71-1.353-2.426,0-.712,.43-1.472,1.352-2.39,.837-.833,1.579-1.354,2.397-1.354,.72,0,1.499,.403,2.452,1.353,0,0,0,0,0,0,.705,.702,1.343,1.792,1.668,2.397-.397,.711-1.084,1.837-1.668,2.419Zm10.446,0c-1.573,1.565-2.813,2.03-4.85,0,0,0,0,0,0,0-.705-.702-1.343-1.792-1.668-2.397,.397-.711,1.084-1.837,1.668-2.419,1.573-1.565,2.811-2.03,4.85,0,.897,.894,1.353,1.71,1.353,2.426,0,.712-.43,1.472-1.352,2.39Z"/>
</svg>
