<?xml version="1.0" encoding="UTF-8"?>
<svg xmlns="http://www.w3.org/2000/svg" id="Layer_1" data-name="Layer 1" viewBox="0 0 24 24">
  <path d="M7.55,8.566c-2.838,0-3.434,1.868-3.434,3.434,0,2.279,1.155,3.434,3.434,3.434,2.838,0,3.434-1.868,3.434-3.434,0-2.279-1.155-3.434-3.434-3.434Zm0,2c.132,0,.253,.003,.363,.01l-1.785,1.785c-.008-.109-.012-.229-.012-.361,0-1.227,.358-1.434,1.434-1.434Zm0,2.868c-.132,0-.252-.003-.363-.01l1.785-1.785c.008,.109,.012,.229,.012,.361,0,1.227-.358,1.434-1.434,1.434Z"/>
  <path d="M7.55,1c-2.838,0-3.434,1.868-3.434,3.434,0,2.279,1.155,3.434,3.434,3.434,2.838,0,3.434-1.868,3.434-3.434,0-2.279-1.155-3.434-3.434-3.434Zm0,2c.132,0,.253,.003,.363,.01l-1.785,1.785c-.008-.109-.012-.229-.012-.361,0-1.227,.358-1.434,1.434-1.434Zm0,2.868c-.132,0-.252-.003-.363-.01l1.785-1.785c.008,.109,.012,.229,.012,.361,0,1.227-.358,1.434-1.434,1.434Z"/>
  <path d="M7.55,16.132c-2.838,0-3.434,1.868-3.434,3.434,0,2.279,1.155,3.434,3.434,3.434,2.838,0,3.434-1.868,3.434-3.434,0-2.279-1.155-3.434-3.434-3.434Zm0,4.868c-1.093,0-1.434-.198-1.434-1.434,0-1.227,.358-1.434,1.434-1.434,1.094,0,1.434,.198,1.434,1.434,0,1.227-.358,1.434-1.434,1.434Z"/>
  <path d="M16.45,8.566c-2.838,0-3.434,1.868-3.434,3.434,0,2.279,1.155,3.434,3.434,3.434,2.838,0,3.434-1.868,3.434-3.434,0-2.279-1.155-3.434-3.434-3.434Zm0,4.868c-1.094,0-1.434-.198-1.434-1.434,0-1.227,.358-1.434,1.434-1.434,1.093,0,1.434,.198,1.434,1.434,0,1.227-.358,1.434-1.434,1.434Z"/>
  <path d="M16.45,7.868c2.838,0,3.434-1.868,3.434-3.434,0-2.279-1.155-3.434-3.434-3.434-2.838,0-3.434,1.868-3.434,3.434,0,2.279,1.155,3.434,3.434,3.434Zm0-2c-.132,0-.253-.003-.363-.01l1.784-1.784c.008,.109,.012,.229,.012,.361,0,1.227-.358,1.434-1.434,1.434Zm0-2.868c.132,0,.253,.003,.363,.01l-1.785,1.785c-.008-.109-.012-.229-.012-.361,0-1.227,.358-1.434,1.434-1.434Z"/>
  <path d="M16.45,16.132c-2.838,0-3.434,1.868-3.434,3.434,0,2.279,1.155,3.434,3.434,3.434,2.838,0,3.434-1.868,3.434-3.434,0-2.279-1.155-3.434-3.434-3.434Zm0,4.868c-1.094,0-1.434-.198-1.434-1.434,0-1.227,.358-1.434,1.434-1.434,1.093,0,1.434,.198,1.434,1.434,0,1.227-.358,1.434-1.434,1.434Z"/>
</svg>
