<?xml version="1.0" encoding="UTF-8"?>
<svg xmlns="http://www.w3.org/2000/svg" id="Layer_1" data-name="Layer 1" viewBox="0 0 24 24">
  <path d="M21.389,9.736c-.01-1.478-.823-2.836-2.084-3.57v-2.157c0-.242-.088-.476-.247-.658-.084-.096-2.11-2.35-7.038-2.35h-.028c-4.919,.009-6.971,2.247-7.056,2.343-.164,.183-.254,.42-.254,.665v2.141c-1.276,.741-2.088,2.126-2.078,3.642l.008,1.133c.002,.342,.18,.659,.469,.841,.268,.167,.552,.301,.845,.402v4.509c0,3.123,2.229,5.739,5.3,6.22,.439,.07,1.604,.104,2.77,.104s2.327-.034,2.766-.104c3.072-.481,5.302-3.098,5.302-6.221v-4.497c.3-.101,.59-.236,.864-.407,.295-.184,.473-.508,.471-.855l-.008-1.18ZM6.031,7.717c1.253-.454,3.256-1.003,5.689-1.042,.053,0,.581-.004,1.093-.008,.55-.003,.994-.451,.994-1.001h0c0-.554-.452-1.002-1.006-.999-.524,.003-1.066,.007-1.116,.008-1.964,.031-3.678,.362-5.004,.734v-.956c.591-.461,2.218-1.448,5.313-1.453h.024c3.103,0,4.712,.993,5.285,1.446v2.393c0,.417,.285,.754,.675,.902,.838,.319,1.403,1.123,1.409,2.008l.004,.545c-.601,.193-1.273,.12-1.828-.229-1.341-.837-3.072-.836-4.329-.044-.028,.015-.061,.032-.087,.049-.697,.436-1.597,.437-2.296,0-1.34-.84-3.073-.84-4.415,0-.56,.35-1.228,.424-1.83,.22l-.004-.513c-.006-.92,.567-1.748,1.428-2.06Zm8.418,13.203c-.688,.107-4.223,.108-4.914,0-2.092-.327-3.61-2.112-3.61-4.244v-4.329c.551-.084,1.088-.277,1.573-.581,.698-.438,1.598-.437,2.296,0,1.343,.841,3.076,.84,4.419-.002,.695-.435,1.595-.438,2.304,.007,.477,.298,1.004,.488,1.545,.574v4.331c0,2.132-1.519,3.917-3.612,4.245Z"/>
</svg>
