<?xml version="1.0" encoding="UTF-8"?>
<svg xmlns="http://www.w3.org/2000/svg" id="Layer_1" data-name="Layer 1" viewBox="0 0 24 24">
  <path d="M22.95,1.954c-.045-.478-.423-.856-.9-.901-.422-.041-10.413-.897-20.568,5.989-.242,.165-.4,.427-.433,.719-.03,.279-.699,6.891,3.801,11.388,3.411,3.411,8.039,3.851,10.198,3.85,.688,0,1.127-.044,1.194-.052,.291-.032,.554-.19,.718-.433C23.848,12.364,22.99,2.374,22.95,1.954Zm-4.813,8.855c-.396-.397-.615-.924-.615-1.485s.219-1.088,.615-1.485c.69-.689,1.732-.808,2.543-.332-.17,1.17-.426,2.487-.808,3.903-.635,.076-1.275-.141-1.735-.601Zm2.858-7.8c.009,.566-.003,1.392-.083,2.418-1.432-.477-3.057-.134-4.189,.998-.774,.774-1.201,1.804-1.201,2.899s.427,2.125,1.201,2.899c.693,.693,1.597,1.103,2.543,1.186-.37,1.094-.816,2.23-1.356,3.389-1.248,.046-5.206-.044-7.936-2.773-2.714-2.712-2.815-6.673-2.773-7.929,6.193-2.873,11.751-3.117,13.794-3.087Zm-5.42,17.977c-1.442,.049-6.1-.042-9.312-3.252-3.196-3.195-3.305-7.855-3.253-9.309,.732-.48,1.464-.919,2.191-1.319,.083,2.051,.652,5.628,3.358,8.332,2.707,2.705,6.285,3.274,8.336,3.357-.401,.727-.839,1.458-1.321,2.191Z"/>
  <path d="M10.352,10.841c.362,.361,.837,.542,1.312,.542s.949-.181,1.312-.542c.351-.35,.543-.816,.543-1.312s-.192-.961-.543-1.312c-.725-.722-1.898-.722-2.623,0,0,0,0,0,0,0-.722,.723-.722,1.898,0,2.622Z"/>
</svg>
