<?xml version="1.0" encoding="UTF-8"?>
<svg xmlns="http://www.w3.org/2000/svg" id="Layer_1" data-name="Layer 1" viewBox="0 0 24 24">
  <path d="M19.709,1h-.042c-.963,0-1.692,.226-2.228,.69-.291,.253-.515,.564-.674,.935-.746-.119-1.492-.215-2.229-.286-.543-.071-1.038,.349-1.091,.899-.053,.55,.35,1.038,.899,1.091,.706,.068,1.422,.16,2.137,.275,.053,.984,.356,1.713,.925,2.218,.611,.543,1.372,.679,1.973,.709,.109,.696,.196,1.406,.26,2.12,.047,.52,.482,.911,.995,.911,.029,0,.06,0,.09-.004,.55-.049,.956-.535,.907-1.085-.067-.756-.16-1.51-.275-2.249,.215-.101,.408-.225,.581-.375,.644-.559,.96-1.396,.968-2.56h0c.009-1.492-.538-3.273-3.195-3.291Zm-1.236,3.262c.003-.531,.102-.908,.277-1.061,.153-.134,.461-.201,.915-.201h.03c.883,.006,1.216,.117,1.209,1.277-.004,.532-.103,.909-.277,1.062-.158,.137-.473,.211-.946,.201-.473-.003-.791-.074-.945-.211-.173-.153-.266-.533-.263-1.067Z"/>
  <path d="M9.464,2.34c-.738,.071-1.485,.167-2.231,.286-.386-.901-1.223-1.615-2.901-1.626h-.042c-.963,0-1.692,.226-2.228,.69-.643,.559-.959,1.396-.967,2.56-.007,1.167,.299,2.009,.935,2.573,.193,.172,.401,.302,.614,.402-.115,.739-.208,1.493-.276,2.248-.049,.551,.356,1.036,.906,1.086,.031,.003,.062,.004,.091,.004,.512,0,.948-.391,.995-.91,.064-.714,.151-1.424,.26-2.121,.822-.042,1.459-.265,1.939-.682,.584-.507,.897-1.244,.956-2.245,.716-.115,1.432-.208,2.139-.276,.55-.053,.952-.541,.899-1.091-.053-.551-.552-.953-1.091-.899Zm-4.214,2.999c-.156,.137-.475,.208-.946,.201-.473-.003-.79-.074-.945-.211-.173-.154-.266-.533-.263-1.066,.004-.532,.103-.909,.278-1.062,.153-.134,.461-.201,.914-.201h.03c.883,.006,1.216,.117,1.209,1.278-.003,.532-.102,.909-.277,1.061Z"/>
  <path d="M9.655,19.67c-.706-.068-1.422-.161-2.137-.275-.053-.984-.356-1.713-.925-2.218-.611-.543-1.372-.679-1.973-.709-.109-.696-.196-1.406-.26-2.12-.05-.549-.521-.955-1.085-.907-.55,.049-.956,.535-.907,1.085,.067,.756,.16,1.51,.275,2.249-.215,.101-.408,.225-.581,.375-.644,.559-.96,1.396-.968,2.56h0c-.009,1.492,.538,3.273,3.195,3.291h.042c.963,0,1.692-.226,2.228-.69,.291-.253,.515-.564,.674-.935,.746,.119,1.492,.215,2.229,.286,.032,.004,.064,.005,.097,.005,.51,0,.944-.387,.994-.904,.053-.55-.35-1.038-.899-1.091Zm-4.405,1.129c-.156,.137-.467,.203-.945,.201-.883-.006-1.216-.117-1.209-1.277,.004-.532,.103-.909,.277-1.062,.158-.137,.483-.208,.946-.201,.473,.003,.791,.074,.945,.211,.173,.153,.266,.533,.263,1.067-.003,.531-.102,.908-.277,1.061Z"/>
  <path d="M21.97,17.177c-.193-.172-.401-.302-.614-.402,.115-.739,.208-1.493,.275-2.248,.049-.551-.356-1.036-.906-1.086-.571-.048-1.036,.357-1.086,.906-.064,.714-.151,1.424-.26,2.121-.822,.042-1.459,.265-1.939,.682-.584,.507-.897,1.244-.956,2.245-.716,.115-1.432,.208-2.139,.276-.55,.053-.952,.541-.899,1.091,.05,.518,.484,.904,.994,.904,.032,0,.064-.002,.097-.005,.738-.071,1.485-.167,2.231-.286,.386,.901,1.223,1.615,2.901,1.626h.042c.963,0,1.692-.226,2.228-.69,.643-.559,.959-1.396,.967-2.56,.007-1.167-.299-2.009-.935-2.573Zm-1.344,3.622c-.156,.137-.482,.21-.944,.201-.883-.006-1.216-.117-1.209-1.278,.003-.532,.102-.909,.277-1.061,.157-.137,.478-.205,.946-.201,.473,.003,.79,.074,.945,.211,.173,.154,.266,.533,.263,1.066-.004,.532-.103,.909-.278,1.062Z"/>
</svg>
