<?xml version="1.0" encoding="UTF-8"?>
<svg xmlns="http://www.w3.org/2000/svg" id="Layer_1" data-name="Layer 1" viewBox="0 0 24 24">
  <path d="M16.069,7.832c-1.757-1.678-4.343-.369-9.545,4.829-.002,.002-.004,.004-.006,.006C1.298,17.972,.045,20.483,1.762,22.301c2.151,2.151,5.719-1.005,9.552-4.834,5.083-5.165,6.427-7.855,4.754-9.635ZM3.185,20.888c-.286-.303-.394-1.573,4.759-6.811,.48-.479,.925-.912,1.34-1.304,.982,.147,1.759,.935,1.901,1.929-.389,.418-.819,.868-1.295,1.352-5.191,5.187-6.442,5.086-6.706,4.835Zm9.515-7.901c-.396-.733-.999-1.337-1.729-1.734,2.788-2.368,3.524-2.151,3.674-2.011,.123,.132,.463,.841-1.945,3.744Z"/>
  <path d="M16.295,5.859l.824,.454c.201,.111,.364,.276,.474,.478l.451,.831c.217,.493,1.232,.887,1.763,0l.451-.831c.11-.202,.274-.368,.474-.478l.825-.454c.567-.252,.78-1.365,0-1.757l-.824-.454c-.2-.11-.364-.275-.474-.478l-.451-.831c-.351-.646-1.412-.646-1.763,0l-.452,.832c-.109,.202-.273,.367-.473,.477l-.825,.454c-.528,.23-.829,1.315,0,1.757Z"/>
  <path d="M22.441,14.179l-1.069-.589c-.309-.17-.561-.425-.731-.737l-.584-1.076c-.351-.646-1.412-.646-1.763,0l-.584,1.076c-.169,.312-.422,.567-.731,.737l-1.068,.589c-.703,.364-.658,1.433,0,1.757l1.069,.59c.309,.17,.561,.425,.731,.737l.584,1.076c.279,.564,1.302,.809,1.763,0l.584-1.076c.169-.312,.422-.567,.731-.737l1.068-.589c.501-.254,.862-1.223,0-1.757Z"/>
  <path d="M12.148,3.887l-1.069-.589c-.309-.17-.561-.425-.731-.737l-.584-1.076c-.351-.646-1.412-.646-1.763,0l-.584,1.076c-.169,.312-.422,.567-.731,.737l-1.068,.589c-.703,.364-.658,1.433,0,1.757l1.069,.59c.309,.17,.561,.425,.731,.737l.584,1.076c.279,.564,1.302,.809,1.763,0l.584-1.076c.169-.312,.422-.567,.731-.737l1.068-.589c.501-.254,.862-1.223,0-1.757Z"/>
</svg>
