<?xml version="1.0" encoding="UTF-8"?>
<svg xmlns="http://www.w3.org/2000/svg" id="Layer_1" data-name="Layer 1" viewBox="0 0 24 24">
  <path d="M12.014,23c-5.726,0-9.511-3.528-9.642-8.988C2.46,7.364,7.871,1.061,12,1c1.979-.03,4.407,1.432,6.313,3.814,2.091,2.614,3.269,5.867,3.316,9.16,0,.013,0,.025,0,.038-.131,5.46-3.905,8.988-9.614,8.988Zm.048-20c-.011,0-.022,0-.034,0-2.83,.042-7.58,5.201-7.657,11.001,.105,4.368,2.963,6.999,7.643,6.999,4.655,0,7.5-2.623,7.614-7.017-.061-3.836-1.828-6.607-2.878-7.919-1.493-1.866-3.328-3.064-4.688-3.064Z"/>
  <g>
    <circle cx="15.74" cy="10.886" r="1.013"/>
    <circle cx="14.18" cy="8.059" r="1.013"/>
  </g>
</svg>
