<?xml version="1.0" encoding="UTF-8"?>
<svg xmlns="http://www.w3.org/2000/svg" id="Layer_1" data-name="Layer 1" viewBox="0 0 24 24">
  <path d="M8.146,1c-.552,0-1,.448-1,1,0,3.181-.857,5.153-5.125,5.153-.552,0-1,.448-1,1s.448,1,1,1c6.386,0,7.125-4.082,7.125-7.153,0-.552-.448-1-1-1Z"/>
  <path d="M21.979,9.153c.552,0,1-.448,1-1s-.448-1-1-1c-4.268,0-5.125-1.972-5.125-5.153,0-.552-.448-1-1-1s-1,.448-1,1c0,3.071,.739,7.153,7.125,7.153Z"/>
  <path d="M21.979,14.847c-6.386,0-7.125,4.082-7.125,7.153,0,.553,.448,1,1,1s1-.447,1-1c0-3.182,.857-5.153,5.125-5.153,.552,0,1-.447,1-1s-.448-1-1-1Z"/>
  <path d="M2.021,14.847c-.552,0-1,.447-1,1s.448,1,1,1c4.268,0,5.125,1.972,5.125,5.153,0,.553,.448,1,1,1s1-.447,1-1c0-3.071-.739-7.153-7.125-7.153Z"/>
</svg>
