<?xml version="1.0" encoding="UTF-8"?>
<svg xmlns="http://www.w3.org/2000/svg" id="Layer_1" data-name="Layer 1" viewBox="0 0 24 24">
  <path d="M12,1C6.878,1,1,2.25,1,12s5.878,11,11,11,11-1.25,11-11S17.122,1,12,1Zm4.877,9.487l3.765-2.047c.234,1.003,.357,2.18,.357,3.56s-.123,2.558-.357,3.56l-3.765-2.047v-3.027Zm3.088-3.955l-3.925,2.134c-.972-.738-2.281-1.395-3.04-1.749V3.019c3.198,.13,5.661,.953,6.965,3.513Zm-7.965,8.806c-.771-.36-2.062-1.021-2.877-1.66v-3.352c.818-.641,2.113-1.306,2.883-1.667,.769,.351,2.058,1,2.872,1.634v3.385c-.816,.639-2.107,1.3-2.877,1.66Zm-1-12.319v3.904c-.749,.358-2.044,1.021-3.015,1.756l-3.95-2.147c1.304-2.56,3.767-3.382,6.965-3.513ZM3,12c0-1.38,.123-2.558,.357-3.56l3.765,2.047v3.027l-3.765,2.047c-.234-1.003-.357-2.18-.357-3.56Zm1.035,5.468l3.946-2.145c.971,.736,2.268,1.398,3.019,1.755v3.903c-3.198-.13-5.661-.953-6.965-3.513Zm8.965,3.513v-3.903c.751-.357,2.048-1.019,3.019-1.755l3.946,2.145c-1.304,2.56-3.767,3.382-6.965,3.513Z"/>
</svg>
