<?xml version="1.0" encoding="UTF-8"?>
<svg xmlns="http://www.w3.org/2000/svg" id="Layer_1" data-name="Layer 1" viewBox="0 0 24 24">
  <path d="M21.552,10.896h-1.402c-.447-2.92-1.418-4.881-1.471-4.987-.107-.212-.285-.379-.503-.472-.046-.019-.571-.238-1.476-.47-.279-2.668-1.868-3.968-4.839-3.968-2.998,0-4.589,1.325-4.846,4.044-.73,.201-1.15,.376-1.191,.393-.22,.093-.4,.262-.506,.476-.053,.106-1.019,2.08-1.466,4.983h-1.404c-.552,0-1,.447-1,1s.448,1,1,1h1.201c-.01,.204-.016,.411-.019,.621-.348,.12-.605,.422-.664,.789-.006,.039-.149,.952-.149,2.157,0,1.215,.143,2.121,.149,2.159,.068,.423,.397,.756,.819,.827,.03,.005,.196,.033,.474,.074v.651c0,1.558,1.265,2.824,2.819,2.824s2.819-1.267,2.819-2.824v-.124c.674,.029,1.379,.046,2.103,.046s1.429-.017,2.103-.046v.124c0,1.558,1.265,2.824,2.819,2.824s2.819-1.267,2.819-2.824v-.651c.278-.041,.443-.069,.473-.074,.423-.072,.753-.406,.82-.829,.006-.039,.149-.953,.149-2.158,0-1.215-.143-2.121-.149-2.159-.059-.366-.315-.667-.663-.786-.003-.21-.009-.417-.019-.622h1.201c.552,0,1-.447,1-1s-.448-1-1-1ZM11.861,3c1.795,0,2.502,.544,2.756,1.568-.772-.103-1.65-.172-2.617-.172-1.091,0-2.07,.088-2.91,.214,.239-1.069,.936-1.609,2.771-1.609ZM6.954,7.151c.73-.245,2.551-.756,5.046-.756s4.317,.514,5.048,.758c.352,.83,1.186,3.074,1.308,5.917-1.538-.287-3.836-.612-6.357-.612s-4.817,.326-6.357,.613c.124-2.824,.959-5.083,1.311-5.919Zm-2.091,10.438c-.024-.307-.045-.694-.045-1.126,0-.46,.024-.874,.051-1.191,.44-.099,1.082-.231,1.869-.361v.989c0,.553,.448,1,1,1s1-.447,1-1v-1.261c1.003-.107,2.112-.181,3.263-.181s2.26,.074,3.263,.182v1.261c0,.553,.448,1,1,1s1-.447,1-1v-.988c.787,.13,1.429,.262,1.869,.361,.027,.316,.051,.729,.051,1.191,0,.43-.021,.817-.046,1.126-1.28,.179-4.063,.508-7.137,.508s-5.857-.329-7.137-.508Z"/>
</svg>
