<?xml version="1.0" encoding="UTF-8"?>
<svg xmlns="http://www.w3.org/2000/svg" id="Layer_1" data-name="Layer 1" viewBox="0 0 24 24">
  <path d="M18.157,3.073c-1.379-1.415-2.653-2.073-4.01-2.073-1.403,0-2.79,.723-4.241,2.211-2.364,2.425-2.477,4.437-1.803,6.037-1.177,1.239-2.091,2.269-2.67,2.938-.734,.848-.919,2.028-.52,2.993-1.456,1.489-1.447,3.887,.027,5.364,.72,.721,1.676,1.118,2.693,1.118h.013c1.022-.003,1.98-.407,2.699-1.136l1.697-1.724c.643-.652,1.771-.653,2.414,0,.679,.688,.679,1.808,0,2.496-.387,.394-.382,1.026,.011,1.414,.195,.192,.448,.288,.702,.288,.259,0,.517-.1,.713-.298,1.439-1.462,1.439-3.841,0-5.302-1.4-1.423-3.865-1.422-5.266,0l-1.697,1.723c-.341,.346-.795,.538-1.28,.539-.5-.012-.94-.187-1.283-.531-.694-.695-.705-1.818-.036-2.528,.325,.137,.674,.205,1.026,.205,.684,0,1.377-.256,1.929-.758,.656-.597,1.657-1.533,2.85-2.723,.548,.234,1.096,.347,1.659,.347,1.403,0,2.79-.723,4.241-2.211,3.727-3.822,1.861-6.619,.134-8.39ZM7.927,14.571c-.287,.26-.693,.312-.939,.127-.03-.023-.06-.048-.09-.078-.026-.027-.051-.057-.072-.087-.197-.276-.146-.732,.119-1.039,.508-.587,1.28-1.458,2.267-2.508,.184,.217,.373,.422,.561,.614,.215,.221,.428,.423,.639,.608-1.034,1.023-1.901,1.831-2.484,2.363Zm8.665-4.504c-1.04,1.067-1.985,1.607-2.81,1.607-.781,0-1.601-.467-2.578-1.47-1.686-1.729-2.205-3.199,.134-5.597,1.04-1.067,1.985-1.607,2.81-1.607,.781,0,1.601,.467,2.578,1.47,1.686,1.729,2.204,3.199-.134,5.597Z"/>
</svg>
