<?xml version="1.0" encoding="UTF-8"?>
<svg xmlns="http://www.w3.org/2000/svg" id="Layer_1" data-name="Layer 1" viewBox="0 0 24 24">
  <path d="M21.841,18.971c-.534-.125-1.075,.21-1.2,.748-.102,.442-.366,.813-.743,1.046-.36,.222-.782,.291-1.193,.19L2.62,17.061c-.535-.126-1.078,.2-1.208,.737s.2,1.077,.737,1.208l16.083,3.893c.281,.068,.565,.102,.847,.102,.653,0,1.296-.181,1.867-.533,.836-.515,1.419-1.331,1.644-2.296,.124-.538-.211-1.076-.749-1.2Z"/>
  <path d="M12.955,6.311c2.312,0,2.631-1.691,2.631-2.683,0-.981-.379-2.63-2.661-2.628-2.289,.025-2.613,1.692-2.602,2.684,.011,.984,.358,2.627,2.631,2.627Z"/>
  <path d="M4.511,11.615c1.036-.691,2.229-1.275,3.622-1.773-.822,2.175-1.22,4.978-.569,6.313,.316,.649,.88,1.024,1.547,1.028,1.245,.013,2.387-.3,3.384-.57,.909-.248,1.769-.482,2.224-.295,.69,.283,1.611,1.677,2.045,2.576,.173,.357,.659,.755,1.335,.467,.479-.204,.707-.836,.468-1.333-.229-.477-1.453-2.89-3.09-3.561-1.079-.442-2.258-.123-3.506,.216-.856,.232-1.74,.473-2.656,.499-.323-.886,.261-4.244,1.29-5.915l2.749-.041-.432,2.787c-.084,.546,.286,1.077,.835,1.142,.637,.075,1.065-.341,1.142-.835l.613-3.958c.045-.291-.04-.587-.233-.81-.194-.223-.492-.348-.77-.344l-4.501,.068c-.053,.004-.538,.043-1.276,.265-2.104,.632-3.847,1.421-5.331,2.411-.459,.306-.583,.927-.276,1.387,.306,.458,.927,.583,1.387,.276Z"/>
</svg>
