<?xml version="1.0" encoding="UTF-8"?>
<svg xmlns="http://www.w3.org/2000/svg" id="Layer_1" data-name="Layer 1" viewBox="0 0 24 24">
  <path d="M20.109,5.783c-.39-.389-1.024-.387-1.414,.003-.39,.392-.388,1.025,.004,1.415,1.527,1.52,2.302,3.14,2.301,4.815,0,2.49-1.73,4.214-2.302,4.785-.391,.39-.391,1.021,0,1.413,.195,.195,.451,.293,.708,.293s.513-.098,.708-.292c.714-.712,2.887-2.878,2.887-6.197,0-2.227-.972-4.324-2.891-6.234Z"/>
  <path d="M17.602,8.583c-.392-.389-1.024-.387-1.414,.003-.39,.392-.388,1.025,.004,1.415,.755,.751,1.138,1.429,1.138,2.016,0,.582-.362,1.212-1.138,1.983-.392,.39-.394,1.022-.004,1.414,.195,.197,.452,.295,.709,.295,.255,0,.51-.097,.705-.291,.741-.737,1.727-1.892,1.728-3.401,0-1.154-.565-2.277-1.728-3.434Z"/>
  <path d="M12.219,3.571c-.527-.251-1.093-.197-1.513,.144-.059,.048-.111,.103-.158,.162-1.307,1.679-2.87,3.301-3.255,3.456l-4.113,.309c-.296,.022-.566,.175-.739,.417-.935,1.311-1.441,2.328-1.44,3.941,0,1.632,.527,2.692,1.44,3.973,.173,.241,.443,.394,.739,.416l4.025,.295c.474,.167,2.037,1.776,3.345,3.442,.046,.059,.099,.112,.156,.159,.245,.199,.54,.3,.848,.3,.22,0,.445-.052,.665-.156,1.411-.672,2.84-3.782,2.84-8.432s-1.429-7.754-2.84-8.426Zm-.563,14.734c-1.389-1.705-3.101-3.505-4.212-3.602l-3.639-.274c-.555-.831-.806-1.451-.805-2.43,0-.963,.24-1.558,.805-2.399l3.65-.274c1.103-.096,2.813-1.91,4.202-3.629,.549,.772,1.401,2.831,1.401,6.306s-.854,5.532-1.403,6.302Z"/>
</svg>
