<?xml version="1.0" encoding="UTF-8"?>
<svg xmlns="http://www.w3.org/2000/svg" id="Layer_1" data-name="Layer 1" viewBox="0 0 24 24">
  <path d="M9.158,7.108c.089,0,.179-.012,.269-.037,.012-.003,1.213-.333,2.573-.333s2.561,.329,2.572,.333c.532,.148,1.083-.162,1.232-.693,.148-.531-.16-1.083-.691-1.232-.059-.017-1.464-.407-3.114-.407s-3.054,.39-3.113,.407c-.531,.149-.84,.701-.692,1.232,.124,.442,.525,.731,.963,.731Z"/>
  <path d="M22.707,8.905c-.1-.326-.358-.578-.686-.67-.043-.012-1.08-.274-2.33-.27-.226-2.639-.642-4.586-.665-4.697-.068-.313-.281-.574-.574-.704-.122-.054-3.023-1.317-6.452-1.317s-6.329,1.263-6.451,1.317c-.294,.129-.508,.392-.575,.706-.024,.111-.437,2.06-.663,4.681-.049,0-.098-.002-.147-.002-1.156,0-2.144,.273-2.185,.285-.328,.092-.586,.344-.686,.67-.012,.039-.293,.97-.293,2.203,0,1.223,.28,2.161,.292,2.2,.099,.327,.358,.581,.688,.673,.042,.012,1.032,.285,2.185,.285l.142,.002c.228,2.507,.654,4.166,.678,4.26,.086,.328,.332,.591,.654,.697,.01,.003,.042,.014,.093,.03v.868c0,1.45,1.178,2.629,2.626,2.629,1.433,0,2.601-1.154,2.626-2.582,.332,.018,.672,.027,1.017,.027s.685-.01,1.017-.027c.025,1.428,1.193,2.582,2.626,2.582,1.448,0,2.626-1.179,2.626-2.629v-.868c.05-.016,.082-.026,.092-.029,.323-.106,.57-.37,.655-.7,.025-.095,.448-1.764,.676-4.257l.143-.002c1.153,0,2.143-.273,2.185-.285,.329-.092,.588-.346,.688-.673,.012-.04,.292-.978,.292-2.2,0-1.233-.281-2.164-.293-2.203ZM4.183,12.267h-.019c-.401,0-.782-.045-1.076-.094-.046-.282-.088-.652-.088-1.065,0-.415,.042-.785,.087-1.065,.301-.049,.68-.088,1.1-.087-.014,.404-.023,.816-.023,1.232,0,.369,.006,.729,.018,1.079ZM6.829,4.21c.889-.325,2.921-.962,5.171-.962s4.282,.638,5.172,.963c.136,.734,.376,2.184,.527,3.946H6.302c.151-1.755,.391-3.21,.526-3.947Zm-.664,6.978c0-.347,.006-.691,.017-1.031h4.772v3.12H6.235c-.043-.653-.07-1.354-.07-2.089Zm11.037,6.293c-.928,.25-2.957,.716-5.202,.716s-4.274-.467-5.204-.717c-.099-.473-.242-1.235-.366-2.204h1.651v.657c0,.552,.448,1,1,1s1-.448,1-1v-.657h3.838v.657c0,.552,.448,1,1,1s1-.448,1-1v-.657h1.649c-.125,.967-.267,1.73-.366,2.205Zm.562-4.205h-4.81v-3.12h4.864c.011,.339,.017,.683,.017,1.031,0,.733-.027,1.434-.071,2.089Zm3.148-1.103c-.294,.048-.675,.093-1.076,.093h-.019c.011-.35,.018-.711,.018-1.079,0-.417-.008-.828-.022-1.232,.42,0,.799,.038,1.1,.087,.046,.281,.087,.65,.087,1.065s-.042,.783-.088,1.065Z"/>
</svg>
