<?xml version="1.0" encoding="UTF-8"?>
<svg xmlns="http://www.w3.org/2000/svg" id="Layer_1" data-name="Layer 1" viewBox="0 0 24 24">
  <circle cx="17.76" cy="17.716" r="1.005"/>
  <circle cx="13.885" cy="13.841" r="1.005"/>
  <circle cx="9.74" cy="7.042" r="1.005"/>
  <circle cx="7.006" cy="9.776" r="1.005"/>
  <path d="M7.65,14.882c-.499-.407-1.035-.882-1.574-1.423-1.468-1.473-2.458-2.941-2.911-3.674,.475-.755,1.505-2.276,2.911-3.687,1.401-1.406,2.919-2.44,3.673-2.918,.725,.449,2.172,1.43,3.656,2.918,.511,.513,.963,1.024,1.356,1.505,.344-.017,.697-.027,1.055-.027,.508,0,1.003,.019,1.478,.052-.588-.831-1.415-1.88-2.473-2.942-2.303-2.31-4.518-3.503-4.61-3.553-.301-.16-.662-.156-.961,.011-.098,.055-2.434,1.378-4.59,3.542-2.152,2.159-3.477,4.505-3.532,4.604-.166,.297-.17,.659-.009,.959,.05,.094,1.258,2.331,3.541,4.621,1.106,1.109,2.191,1.961,3.031,2.552-.036-.518-.058-1.069-.058-1.644,0-.306,.006-.606,.018-.898Z"/>
  <path d="M22.246,10c-.1-.325-.357-.578-.685-.671-.109-.031-2.694-.751-5.746-.751s-5.635,.721-5.744,.751c-.329,.093-.588,.347-.687,.674-.03,.102-.753,2.54-.753,5.777,0,3.266,.724,5.679,.754,5.781,.1,.325,.357,.578,.685,.671,.109,.031,2.694,.751,5.745,.751s5.636-.721,5.745-.751c.329-.093,.588-.347,.687-.674,.03-.102,.753-2.54,.753-5.777,0-3.265-.724-5.679-.754-5.78Zm-1.776,10.441c-.872,.197-2.677,.542-4.654,.542s-3.785-.345-4.654-.542c-.195-.834-.529-2.564-.529-4.661,0-2.081,.335-3.821,.53-4.661,.872-.197,2.676-.542,4.653-.542s3.786,.345,4.655,.542c.195,.834,.529,2.564,.529,4.661,0,2.082-.335,3.821-.53,4.661Z"/>
</svg>
