<?xml version="1.0" encoding="UTF-8"?>
<svg xmlns="http://www.w3.org/2000/svg" id="Layer_1" data-name="Layer 1" viewBox="0 0 24 24">
  <path d="M9.929,10.276c-.874,0-1.711,.415-2.56,1.268-1.687,1.695-1.687,3.415,0,5.111,.542,.544,1.394,1.268,2.539,1.268,.874,0,1.711-.415,2.56-1.268,1.687-1.696,1.687-3.416,0-5.11-.542-.544-1.394-1.269-2.539-1.269Zm1.121,4.969c-.308,.31-.756,.678-1.142,.678-.3,0-.667-.222-1.121-.678-.84-.845-.967-1.318,0-2.29,.308-.31,.756-.679,1.142-.679,.3,0,.667,.222,1.121,.679,.84,.844,.967,1.317,0,2.29Z"/>
  <path d="M22.811,10.454c-.194-.321-.562-.508-.929-.479l-2.926,.215c.929-2.542,1.903-5.724,1.952-5.885,.108-.355,.012-.74-.251-1.001-.264-.262-.65-.358-1.003-.246-.159,.05-3.31,1.033-5.842,1.963l.215-2.949c.027-.376-.158-.735-.481-.93-.323-.193-.728-.19-1.047,.01-1.341,.841-8.083,5.091-9.123,6.136-3.816,3.836-2.465,9.209,.842,12.534,1.979,1.99,4.613,3.177,7.046,3.177,2.04,0,3.92-.806,5.437-2.331,1.039-1.045,5.267-7.821,6.104-9.169,.198-.319,.2-.724,.006-1.045Zm-7.527,8.805c-1.149,1.155-2.501,1.741-4.019,1.741-1.913,0-4.017-.967-5.628-2.587-2.529-2.543-3.872-6.667-.842-9.713,.564-.567,4.158-2.924,7.095-4.794l-.186,2.543c-.025,.345,.13,.679,.41,.882,.281,.203,.646,.248,.966,.116,1.485-.608,3.752-1.373,5.339-1.892-.515,1.598-1.276,3.886-1.886,5.369-.132,.32-.088,.687,.115,.967,.203,.281,.542,.439,.883,.41l2.53-.186c-1.862,2.954-4.212,6.576-4.777,7.144Z"/>
</svg>
