<?xml version="1.0" encoding="UTF-8"?>
<svg xmlns="http://www.w3.org/2000/svg" id="Layer_1" data-name="Layer 1" viewBox="0 0 24 24">
  <path d="M20.746,10.691l-.778-.729c-3.701-3.468-8.227-5.776-13.17-6.731,.009-.091,.014-.185,.014-.282,0-1.221-.724-1.949-1.937-1.949s-1.937,.729-1.937,1.949c0,.833,.337,1.437,.937,1.736V22c0,.553,.448,1,1,1s1-.447,1-1v-2.227c5.302-.834,10.162-3.208,14.094-6.892l.778-.73c.201-.189,.315-.453,.315-.729s-.114-.541-.316-.729Zm-2.146,.73c-3.56,3.335-7.943,5.51-12.726,6.325V5.095c4.784,.815,9.167,2.991,12.726,6.326h0Z"/>
</svg>
