<?xml version="1.0" encoding="UTF-8"?>
<svg xmlns="http://www.w3.org/2000/svg" id="Layer_1" data-name="Layer 1" viewBox="0 0 24 24">
  <path d="M12.74,15.204c3.066,0,7.142-.736,7.142-7.102S15.806,1.001,12.74,1.001s-7.142,.736-7.142,7.101,4.076,7.102,7.142,7.102Zm0-12.203c3.174,0,5.142,.854,5.142,5.101s-1.968,5.102-5.142,5.102-5.142-.854-5.142-5.102,1.967-5.101,5.142-5.101Z"/>
  <path d="M22.102,13.326c-.475-.284-1.088-.13-1.372,.343-1.471,2.45-4.159,3.693-7.99,3.693-7.708,0-9.327-5.035-9.327-9.259,0-1.53,.234-3.742,1.349-5.585,.286-.473,.134-1.088-.339-1.374-.471-.285-1.087-.134-1.373,.339-1.353,2.238-1.637,4.835-1.637,6.62,0,3.271,1.031,10.734,10.327,11.232v1.665H7.431c-.552,0-1,.448-1,1s.448,1,1,1h10.617c.553,0,1-.448,1-1s-.447-1-1-1h-4.308v-1.665c4.059-.216,6.985-1.773,8.704-4.637,.284-.474,.131-1.088-.343-1.372Z"/>
</svg>
