<?xml version="1.0" encoding="UTF-8"?>
<svg xmlns="http://www.w3.org/2000/svg" id="Layer_1" data-name="Layer 1" viewBox="0 0 24 24">
  <path d="M22.141,8.386c-.099-.326-.355-.58-.683-.673-.124-.036-3.078-.87-6.566-.87-1.922,0-3.778,.184-5.062,.349,.878-.892,2.228-2.018,4.04-2.84,.503-.228,.726-.82,.498-1.323-.229-.502-.82-.729-1.324-.498-3.997,1.811-6.028,4.892-6.113,5.022-.215,.331-.215,.758,0,1.089,.084,.13,2.116,3.211,6.113,5.023,.134,.061,.908,.316,1.324-.498,.251-.492,.005-1.095-.498-1.323-1.681-.762-2.969-1.796-3.851-2.658,1.226-.16,3.031-.343,4.873-.343,2.362,0,4.504,.429,5.472,.655,.224,.939,.637,3.024,.637,5.568,0,3.439-.769,6.083-.776,6.108-.156,.529,.159,1.284,.96,1.284,.431,0,.828-.281,.958-.715,.034-.118,.858-2.933,.858-6.678,0-3.776-.824-6.563-.859-6.68Z"/>
  <path d="M8.1,12.744c-2.668-1.209-4.349-3.646-4.953-4.647,.601-1,2.271-3.428,4.953-4.644,.503-.228,.726-.82,.498-1.323s-.82-.727-1.323-.498C3.22,3.468,1.189,7.483,1.104,7.652c-.139,.281-.139,.61,0,.89,.084,.17,2.118,4.181,6.17,6.022,.483,.219,1.089,.039,1.323-.498,.221-.506,.005-1.096-.498-1.323Z"/>
</svg>
