<?xml version="1.0" encoding="UTF-8"?>
<svg xmlns="http://www.w3.org/2000/svg" id="Layer_1" data-name="Layer 1" viewBox="0 0 24 24">
  <path d="M22.274,10.384c-.175-.519-.429-1.007-.754-1.452-.325-.446-.95-.544-1.397-.217-.445,.326-.542,.952-.216,1.397,.203,.279,.362,.584,.471,.908,.404,1.205,.609,2.425,.609,3.627,0,1.883-.226,3.791-.67,5.679-1.89,.446-3.797,.671-5.68,.671-1.201,0-2.421-.205-3.628-.61-.335-.112-.651-.278-.937-.491-.443-.331-1.069-.239-1.399,.202-.331,.442-.24,1.069,.202,1.399,.456,.341,.96,.606,1.498,.786,1.412,.474,2.846,.714,4.264,.714,2.243,0,4.517-.295,6.757-.878,.351-.091,.625-.365,.716-.716,.582-2.239,.877-4.512,.877-6.756,0-1.419-.24-2.854-.713-4.265Z"/>
  <path d="M13.628,16.986c1.58-.53,2.841-1.791,3.372-3.373,.948-2.829,.948-5.698,0-8.528-.531-1.581-1.792-2.842-3.372-3.372-2.831-.949-5.7-.95-8.528,0-1.582,.53-2.842,1.791-3.373,3.372-.474,1.412-.714,2.847-.714,4.264,0,2.244,.295,4.517,.878,6.756,.091,.351,.365,.625,.716,.716,2.24,.583,4.513,.878,6.756,.878,1.417,0,2.852-.24,4.265-.714ZM3.013,9.349c0-1.201,.205-2.421,.61-3.627h0c.332-.991,1.122-1.78,2.112-2.112,2.407-.809,4.848-.809,7.256,0,.99,.332,1.78,1.122,2.112,2.112,.808,2.407,.808,4.849,0,7.255-.332,.991-1.122,1.78-2.112,2.112-1.207,.405-2.428,.61-3.628,.61-1.883,0-3.791-.226-5.679-.671-.446-1.888-.671-3.796-.671-5.679Z"/>
</svg>
