<?xml version="1.0" encoding="UTF-8"?>
<svg xmlns="http://www.w3.org/2000/svg" id="Layer_1" data-name="Layer 1" viewBox="0 0 24 24">
  <path d="M3.47,12.551h2.758c.552,0,1-.447,1-1,0-3.974,1.826-4.771,4.771-4.771s4.771,.798,4.771,4.771c0,.553,.448,1,1,1h2.758c.552,0,1-.447,1-1s-.448-1-1-1h-1.796c-.113-1.432-.472-2.513-.991-3.329l.995-.995c.391-.391,.391-1.023,0-1.414s-1.023-.391-1.414,0l-.984,.984c-1.006-.657-2.202-.905-3.34-.985v-1.791c0-.553-.448-1-1-1s-1,.447-1,1v1.791c-1.138,.08-2.333,.328-3.34,.985l-.984-.984c-.391-.391-1.023-.391-1.414,0s-.391,1.023,0,1.414l.995,.995c-.519,.816-.878,1.897-.991,3.329h-1.796c-.552,0-1,.447-1,1s.448,1,1,1Z"/>
  <path d="M22,19.979c-.663,0-1.287-.288-1.755-.812-.38-.422-1.11-.423-1.489,0-.938,1.045-2.573,1.045-3.511,0-.379-.424-1.11-.424-1.489,0-.938,1.045-2.573,1.045-3.511,0-.379-.424-1.11-.424-1.489,0-.938,1.045-2.573,1.045-3.511,0-.189-.212-.46-.333-.745-.333s-.555,.121-.745,.332c-.469,.523-1.092,.812-1.755,.812-.552,0-1,.447-1,1s.448,1,1,1c.907,0,1.769-.281,2.5-.806,1.462,1.049,3.538,1.049,5,0,1.462,1.049,3.538,1.049,5,0,1.462,1.049,3.538,1.049,5,0,.731,.524,1.593,.806,2.5,.806,.552,0,1-.447,1-1s-.448-1-1-1Z"/>
  <path d="M2,17.551c.907,0,1.768-.281,2.5-.807,1.463,1.051,3.537,1.051,5,0,1.463,1.051,3.537,1.051,5,0,1.463,1.051,3.537,1.051,5,0,.732,.525,1.593,.807,2.5,.807,.552,0,1-.447,1-1s-.448-1-1-1c-.662,0-1.286-.288-1.756-.812-.38-.425-1.109-.421-1.488,0-.939,1.047-2.572,1.047-3.512,0-.379-.422-1.109-.422-1.488,0-.939,1.047-2.572,1.047-3.512,0-.379-.422-1.109-.422-1.488,0-.939,1.047-2.572,1.047-3.512,0-.189-.211-.46-.332-.744-.332s-.554,.121-.744,.332c-.47,.523-1.094,.812-1.756,.812-.552,0-1,.447-1,1s.448,1,1,1Z"/>
</svg>
