<?xml version="1.0" encoding="UTF-8"?>
<svg xmlns="http://www.w3.org/2000/svg" id="Layer_1" data-name="Layer 1" viewBox="0 0 24 24">
  <path d="M19.302,8.187c-.104-3.913-3.345-7.064-7.314-7.064-4.035,0-7.318,3.256-7.318,7.257,0,.252,.013,.504,.039,.754-2.149,.599-3.708,2.558-3.708,4.863,0,1.992,1.186,3.804,3.02,4.615,.131,.058,.269,.086,.403,.086,.384,0,.75-.222,.915-.596,.224-.505-.004-1.096-.51-1.319-1.11-.492-1.828-1.585-1.828-2.786,0-1.623,1.284-2.961,2.923-3.047,.3-.016,.577-.166,.754-.408,.178-.242,.237-.552,.161-.843-.112-.43-.169-.874-.169-1.319,0-2.899,2.386-5.257,5.318-5.257s5.317,2.358,5.317,5.257c0,.157-.008,.312-.021,.465-.046,.509,.299,.971,.8,1.071,1.69,.339,2.917,1.823,2.917,3.53,0,1.365-.767,2.598-2,3.215-.494,.247-.694,.848-.447,1.342,.248,.493,.848,.695,1.342,.446,1.916-.958,3.105-2.876,3.105-5.003,0-2.368-1.513-4.461-3.698-5.259Z"/>
  <path d="M14.796,13.261c0-1.858-1.997-3.302-2.225-3.46-.351-.244-.816-.238-1.162,.014-.226,.165-2.205,1.665-2.205,3.446,0,1.542,1.254,2.795,2.796,2.795s2.796-1.254,2.796-2.795Zm-2.796,.795c-.438,0-.796-.357-.796-.795,0-.375,.384-.898,.806-1.323,.394,.391,.786,.903,.786,1.323,0,.438-.357,.795-.796,.795Z"/>
  <path d="M15.844,16.622c-.35-.244-.816-.238-1.162,.014-.226,.165-2.205,1.665-2.205,3.446,0,1.542,1.254,2.795,2.796,2.795s2.796-1.254,2.796-2.795c0-1.858-1.997-3.302-2.225-3.46Zm-.571,4.255c-.438,0-.796-.357-.796-.795,0-.375,.384-.898,.806-1.323,.394,.391,.786,.903,.786,1.323,0,.438-.357,.795-.796,.795Z"/>
  <path d="M9.299,16.622c-.35-.244-.816-.238-1.162,.014-.226,.165-2.205,1.665-2.205,3.446,0,1.542,1.254,2.795,2.796,2.795s2.796-1.254,2.796-2.795c0-1.858-1.997-3.302-2.225-3.46Zm-.571,4.255c-.438,0-.796-.357-.796-.795,0-.375,.384-.898,.806-1.323,.394,.391,.786,.903,.786,1.323,0,.438-.357,.795-.796,.795Z"/>
</svg>
