<?xml version="1.0" encoding="UTF-8"?>
<svg xmlns="http://www.w3.org/2000/svg" id="Layer_1" data-name="Layer 1" viewBox="0 0 24 24">
  <path d="M19.49,10.344c-.118-.313-.387-.547-.713-.621-.058-.013-.719-.162-1.76-.32,0-.001,0-.003,0-.004,0-.862-.092-1.939-.228-2.679-.08-.435-.436-.766-.875-.813-.345-.038-.684-.071-1.019-.099-.649-3.291-2.121-4.477-2.298-4.608-.354-.266-.842-.266-1.196,0-.177,.131-1.649,1.318-2.299,4.608-.335,.028-.674,.061-1.018,.099-.438,.048-.794,.378-.875,.812-.136,.734-.228,1.812-.228,2.681,0,.001,0,.003,0,.004-1.04,.158-1.701,.306-1.759,.319-.329,.075-.597,.311-.715,.626-.037,.101-.915,2.488-.915,5.656,0,3.194,.879,5.561,.917,5.66,.118,.313,.386,.547,.713,.621,.128,.029,3.176,.715,6.777,.715s6.648-.686,6.776-.714c.328-.075,.598-.311,.715-.626,.038-.1,.916-2.488,.916-5.656,0-3.194-.88-5.561-.917-5.66Zm-10.417-2.526c2.037-.182,3.817-.182,5.854,0,.047,.433,.079,.908,.088,1.338-.914-.087-1.94-.148-3.015-.148s-2.101,.061-3.015,.148c.009-.431,.041-.907,.088-1.338Zm8.708,12.629c-1.008,.189-3.272,.554-5.78,.554s-4.777-.365-5.784-.554c-.231-.791-.624-2.432-.624-4.442,0-1.982,.395-3.642,.626-4.442,1.01-.189,3.281-.554,5.781-.554s4.776,.365,5.783,.554c.231,.791,.624,2.432,.624,4.442,0,1.983-.396,3.642-.627,4.442Z"/>
  <path d="M15.035,13.219c-2.135-.232-3.937-.232-6.069,0-.456,.05-.82,.404-.882,.858-.088,.648-.133,1.296-.133,1.927s.044,1.281,.132,1.925c.062,.454,.425,.809,.88,.859,1.06,.117,2.081,.177,3.036,.177s1.974-.06,3.035-.177c.455-.051,.817-.403,.88-.857,.09-.644,.135-1.292,.135-1.927,0-.628-.044-1.274-.131-1.924-.062-.456-.425-.812-.883-.861Zm-1.019,3.658c-1.402,.117-2.634,.116-4.033,0-.021-.294-.032-.586-.032-.874s.011-.579,.033-.874c1.407-.115,2.625-.115,4.033,0,.021,.295,.032,.587,.032,.874s-.011,.58-.032,.873Z"/>
</svg>
