<?xml version="1.0" encoding="UTF-8"?>
<svg xmlns="http://www.w3.org/2000/svg" id="Layer_1" data-name="Layer 1" viewBox="0 0 24 24">
  <path d="M7.535,13.713c-.495-.24-1.095-.039-1.339,.455-.526,1.068-.705,1.975-.502,2.554,.144,.413,.531,.671,.944,.671,.109,0,.221-.018,.33-.056,.487-.17,.759-.679,.645-1.17,.005-.091,.047-.442,.378-1.114,.244-.496,.041-1.096-.455-1.34Z"/>
  <path d="M21.016,9.239c-1.147-1.149-2.783-1.798-4.598-1.773-.643,.002-1.296,.086-1.929,.263v-2.323c0-.596,.488-1.081,1.089-1.081s1.09,.485,1.09,1.081c0,.553,.447,1,1,1s1-.447,1-1c0-1.699-1.386-3.081-3.09-3.081-.95,0-1.801,.43-2.368,1.106-.098-.123-.202-.241-.315-.354-1.986-1.979-5.88-2.095-6.747-1.231-.208,.206-.447,.573-.448,1.591,0,1.232,.35,2.885,1.291,4.208-1.808,.431-3.589,1.768-4.933,4.495-1.102,2.234-1.346,4.278-.726,6.076,.726,2.104,2.394,3.167,3.324,3.614,.995,.479,1.999,.713,2.973,.713,1.516,0,2.958-.57,4.175-1.676,1.561,1.552,3.502,1.788,4.538,1.788h.021c3.192-.011,6.611-2.015,6.638-7.607,.012-2.523-.656-4.478-1.984-5.808ZM7.698,3.357c.854-.072,2.71,.063,3.785,1.135,.88,.877,.998,2.585,.936,3.734-.951-.079-2.48-.354-3.415-1.286-1.063-1.061-1.318-2.78-1.306-3.583Zm-2.176,16.669c-.649-.312-1.811-1.047-2.3-2.464-.439-1.274-.228-2.802,.629-4.539,2.238-4.537,5.39-3.632,6.642-3.029,.179,.086,.351,.181,.516,.283-.749,1.166-1.219,2.738-1.228,4.796-.008,1.621,.277,3.01,.847,4.155-1.905,1.897-3.991,1.335-5.106,.799Zm10.835,.628c-.723-.02-2.09-.151-3.153-1.216-.953-.955-1.432-2.42-1.423-4.355,.024-5.056,3.256-5.612,4.644-5.617h.018c.745,0,2.131,.156,3.159,1.187,.938,.939,1.408,2.414,1.399,4.385-.022,4.874-2.919,5.611-4.644,5.617Z"/>
  <path d="M16.393,15.103c.002-.552-.443-1.002-.996-1.004h-.004c-.551,0-.998,.445-1,.996-.005,1.189,.231,2.083,.667,2.516,.195,.193,.45,.29,.705,.29,.257,0,.514-.099,.71-.295,.363-.367,.385-.944,.066-1.336-.051-.117-.151-.491-.148-1.167Z"/>
</svg>
