<?xml version="1.0" encoding="UTF-8"?>
<svg xmlns="http://www.w3.org/2000/svg" id="Layer_1" data-name="Layer 1" viewBox="0 0 24 24">
  <path d="M21.681,2.963c-.101-.211-.272-.381-.485-.479C15.909,.054,8.928,1.154,4.957,5.047,.977,8.949-.157,15.823,2.319,21.037c.101,.211,.272,.381,.485,.479,1.891,.869,3.997,1.287,6.106,1.287,3.789,0,7.583-1.349,10.133-3.85,3.979-3.902,5.114-10.776,2.638-15.99Zm-.736,4.821c-.542-.959-1.222-1.85-2.029-2.644-.755-.742-1.598-1.376-2.505-1.892,1.246,.125,2.471,.423,3.614,.905,.499,1.148,.802,2.379,.92,3.631ZM3.055,16.21c.52,.945,1.194,1.828,2.03,2.65,.755,.742,1.597,1.376,2.502,1.891-1.245-.125-2.469-.423-3.612-.905-.5-1.149-.803-2.383-.92-3.636Zm14.589,1.315c-1.325,1.3-3.046,2.235-4.923,2.769-2.337-.189-4.546-1.201-6.234-2.861-1.728-1.699-2.757-3.926-2.909-6.28,.552-1.783,1.49-3.416,2.779-4.68,1.325-1.299,3.046-2.235,4.922-2.769,2.34,.191,4.55,1.204,6.235,2.861,1.728,1.699,2.757,3.926,2.909,6.28-.552,1.783-1.49,3.416-2.779,4.68Z"/>
  <path d="M14.318,7.583c-.394-.386-1.026-.382-1.414,.012-.387,.394-.382,1.027,.012,1.414l.353,.347-1.268,1.243-.819-.806c-.394-.386-1.026-.382-1.414,.012-.387,.394-.382,1.027,.012,1.414l.794,.781-1.268,1.243-.378-.372c-.394-.387-1.026-.382-1.414,.012-.387,.394-.382,1.027,.012,1.414l2.157,2.122c.195,.191,.448,.287,.701,.287,.259,0,.517-.1,.713-.299,.387-.394,.382-1.027-.012-1.414l-.352-.347,1.268-1.243,.819,.806c.195,.191,.448,.287,.701,.287,.259,0,.517-.1,.713-.299,.387-.394,.382-1.027-.012-1.414l-.794-.781,1.268-1.243,.378,.372c.195,.191,.448,.287,.701,.287,.259,0,.517-.1,.713-.299,.387-.394,.382-1.027-.012-1.414l-2.157-2.122Z"/>
</svg>
