<?xml version="1.0" encoding="UTF-8"?>
<svg xmlns="http://www.w3.org/2000/svg" id="Layer_1" data-name="Layer 1" viewBox="0 0 24 24">
  <path d="M10.281,9.393h.719v.702c0,.552,.447,1,1,1s1-.448,1-1v-.702h.719c.553,0,1-.448,1-1s-.447-1-1-1h-.719v-.702c0-.552-.447-1-1-1s-1,.448-1,1v.702h-.719c-.553,0-1,.448-1,1s.447,1,1,1Z"/>
  <path d="M19.862,4.701c-.079-.33-.32-.596-.641-.708-.059-.021-1.332-.463-3.309-.78-.413-1.156-1.445-1.999-2.712-2.144-.802-.091-1.589-.092-2.4,0-1.266,.144-2.298,.984-2.712,2.142-1.987,.317-3.256,.764-3.314,.784-.318,.113-.558,.379-.637,.707-.038,.156-.924,3.863-.924,8.247s.886,8.089,.924,8.246c.079,.33,.32,.596,.641,.708,.127,.045,3.171,1.098,7.222,1.098,4.085,0,7.1-1.054,7.226-1.099,.318-.113,.558-.379,.637-.707,.038-.156,.924-3.863,.924-8.246s-.886-8.09-.924-8.246Zm-1.825,15.474c-.979,.279-3.252,.824-6.037,.824-2.765,0-5.051-.547-6.037-.826-.238-1.167-.749-4.045-.749-7.227s.511-6.065,.749-7.229c.6-.171,1.686-.443,3.072-.626,.456-.06,.816-.454,.867-.911,.064-.586,.538-1.06,1.123-1.126,.593-.066,1.352-.067,1.948,0,.586,.067,1.059,.541,1.126,1.14,.045,.463,.403,.837,.864,.898,1.382,.184,2.471,.455,3.074,.626,.237,1.164,.748,4.037,.748,7.227s-.511,6.064-.749,7.228Z"/>
  <path d="M15.596,12.691h-7.191c-.553,0-1,.448-1,1s.447,1,1,1h7.191c.553,0,1-.448,1-1s-.447-1-1-1Z"/>
  <path d="M11.745,16.521h-3.341c-.553,0-1,.448-1,1s.447,1,1,1h3.341c.553,0,1-.448,1-1s-.447-1-1-1Z"/>
</svg>
