<?xml version="1.0" encoding="UTF-8"?>
<svg xmlns="http://www.w3.org/2000/svg" id="Layer_1" data-name="Layer 1" viewBox="0 0 24 24">
  <path d="M20.177,6.054c-1.064-.771-2.184-1.1-3.269-1.147,.28-.466,.137-1.071-.325-1.362-.467-.292-1.084-.152-1.379,.314-.559,.889-1.454,1.534-2.2,1.953l-.003-2.563c0-.552-.448-.999-1-.999h0c-.553,0-1,.449-.999,1.001l.003,2.551c-.743-.422-1.633-1.067-2.195-1.949-.298-.467-.917-.602-1.381-.307-.458,.292-.598,.895-.32,1.358-1.09,.044-2.216,.373-3.285,1.148C1.004,8.099-.2,13.222,2.501,17.59c1.707,2.76,4.903,4.159,9.499,4.159,1.713,0,6.927,0,9.499-4.159,2.701-4.368,1.497-9.491-1.322-11.536Zm-.379,10.483c-1.986,3.212-6.36,3.212-7.798,3.212s-5.812,0-7.798-3.212c-2.278-3.684-.976-7.58,.795-8.864,.793-.575,1.619-.785,2.403-.785,1.541,0,2.92,.813,3.568,1.265-.191,1.182-1.223,2.087-2.464,2.087-.553,0-1,.447-1,1s.447,1,1,1c1.41,0,2.671-.65,3.496-1.667,.825,1.017,2.086,1.667,3.496,1.667,.553,0,1-.447,1-1s-.447-1-1-1c-1.24,0-2.272-.904-2.464-2.085,.974-.674,3.632-2.178,5.971-.482,1.771,1.284,3.073,5.181,.795,8.864Z"/>
</svg>
