<?xml version="1.0" encoding="UTF-8"?>
<svg xmlns="http://www.w3.org/2000/svg" id="Layer_1" data-name="Layer 1" viewBox="0 0 24 24">
  <path d="M15.225,8.649c-1.415-.006-2.463,.341-3.18,1.057-.024,.024-.047,.048-.07,.073-.708-.746-1.782-1.125-3.216-1.13-1.394,.031-2.464,.341-3.181,1.058-.943,.943-1.048,2.276-1.044,3.197,.01,2.824,1.437,4.261,4.241,4.271h.032c1.406,0,2.437-.346,3.147-1.057,.024-.024,.047-.048,.07-.073,.708,.746,1.782,1.125,3.216,1.13h.032c1.407,0,2.438-.346,3.148-1.058,.943-.943,1.048-2.276,1.044-3.196-.01-2.824-1.437-4.261-4.241-4.272Zm-4.684,6.055c-.312,.312-.896,.471-1.732,.471h-.025c-.307-.001-.573-.021-.804-.061l1.047-1.047c.391-.391,.391-1.023,0-1.414s-1.023-.391-1.414,0l-1.031,1.031c-.033-.234-.046-.496-.047-.788-.004-.883,.146-1.463,.458-1.775,.313-.313,.896-.472,1.733-.472h.025c1.905,.007,2.243,.741,2.249,2.279,.003,.883-.146,1.464-.459,1.776Zm6.467,0c-.313,.313-.896,.472-1.733,.472h-.025c-1.374-.005-1.933-.388-2.14-1.178h1.124c.553,0,1-.448,1-1s-.447-1-1-1h-1.166c.072-.397,.202-.687,.391-.877,.312-.312,.896-.471,1.732-.471h.025c1.905,.007,2.243,.741,2.249,2.279,.004,.882-.146,1.463-.458,1.775Z"/>
  <path d="M21.764,6.493c-.134-.299-.404-.515-.727-.576-.078-.015-.977-.184-2.388-.363v-1.302h.914c.553,0,1-.448,1-1s-.447-1-1-1h-3.829c-.553,0-1,.448-1,1s.447,1,1,1h.915v1.084c-1.369-.124-2.964-.219-4.649-.219-.007,0-.014,0-.021,0v-.706c0-.499-.367-.921-.861-.99-2.299-.323-4.605-.202-6.923,.373-.445,.111-.758,.511-.758,.97v1.069c-.278,.047-.443,.078-.475,.084-.319,.061-.59,.274-.724,.572-.051,.112-1.238,2.795-1.238,6.423,0,3.597,1.187,6.306,1.236,6.419,.134,.299,.404,.515,.727,.576,.047,.009,.386,.073,.952,.161v.679c0,.552,.447,1,1,1s1-.448,1-1v-.409c1.621,.189,3.768,.368,6.085,.368s4.466-.179,6.085-.367v.408c0,.552,.447,1,1,1s1-.448,1-1v-.679c.567-.088,.906-.153,.953-.162,.319-.061,.59-.274,.724-.572,.051-.112,1.238-2.795,1.238-6.423,0-3.597-1.187-6.306-1.236-6.419Zm-1.642,11.543c-1.245,.204-4.494,.67-8.122,.67s-6.87-.467-8.121-.671c-.305-.863-.879-2.796-.879-5.124,0-2.345,.573-4.268,.878-5.124,1.245-.204,4.494-.67,8.122-.67s6.87,.467,8.121,.671c.305,.863,.879,2.796,.879,5.124,0,2.345-.573,4.268-.878,5.124Z"/>
</svg>
