<?xml version="1.0" encoding="UTF-8"?>
<svg xmlns="http://www.w3.org/2000/svg" id="Layer_1" data-name="Layer 1" viewBox="0 0 24 24">
  <path d="M21.172,7.229c.489,0,.949-.191,1.295-.538,.71-.713,.71-1.873,0-2.585-.205-.205-.455-.349-.723-.433-.085-.272-.234-.527-.448-.742-.345-.347-.804-.538-1.292-.538h-.002c-.488,0-.948,.191-1.293,.537-.671,.673-.708,1.744-.112,2.463l-.995,.998-.569-.571c-.189-.191-.457-.303-.716-.294-.876,.007-1.687,.092-2.425,.253-.824-.269-1.653-.406-2.468-.406C6.933,5.374,1.77,8.038,1.051,13.888c-.215,1.749,.267,3.347,1.393,4.619,1.743,1.97,5.017,3.1,8.981,3.1,3.376,0,7.805-.542,9.728-3.125,.964-1.295,1.169-2.896,.611-4.759-.302-1.006-1.001-2.254-1.933-3.454,.036-.368,.056-.752,.062-1.151,.004-.269-.102-.529-.292-.719l-.588-.59,.995-.998c.327,.272,.735,.42,1.164,.42Zm-3.291,2.275c-.08,1.772-.513,3.075-1.268,3.855-1.349,1.292-2.93,1.221-4.336-.191-1.417-1.421-1.49-3.016-.228-4.347,.97-.948,2.568-1.231,3.87-1.285l1.961,1.968Zm1.967,4.792c.372,1.241,.274,2.22-.3,2.99-1.097,1.474-4.058,2.319-8.123,2.319-3.393,0-6.12-.884-7.483-2.425-.746-.843-1.051-1.869-.906-3.05,.598-4.862,4.743-6.475,7.598-6.722-.003,.003-.006,.005-.008,.008-2.045,2.155-1.952,4.966,.235,7.163,1.129,1.133,2.422,1.704,3.709,1.704,1.204,0,2.401-.5,3.454-1.507,.494-.51,.891-1.132,1.19-1.86,.325,.563,.533,1.042,.634,1.38Z"/>
</svg>
