<?xml version="1.0" encoding="UTF-8"?>
<svg xmlns="http://www.w3.org/2000/svg" id="Layer_1" data-name="Layer 1" viewBox="0 0 24 24">
  <path d="M22.404,8.214c-.095-.327-.35-.583-.676-.681-.084-.025-2.068-.607-4.434-.627-.252-1.889-.606-3.101-.629-3.178-.098-.326-.354-.581-.681-.676-.127-.036-3.147-.899-6.714-.899s-6.585,.863-6.712,.899c-.329,.095-.586,.352-.682,.679-.036,.122-.878,3.031-.878,6.903,0,3.905,.843,6.785,.878,6.906,.104,.351,.392,.616,.749,.692,.042,.009,.412,.088,1.02,.188v.56c0,1.581,1.286,2.867,2.867,2.867s2.867-1.286,2.867-2.867v-.088c1.881-.007,3.603-.192,4.808-.364h.66v.452c0,1.581,1.286,2.867,2.867,2.867s2.868-1.286,2.868-2.867v-.452h.859c.446,0,.839-.296,.961-.725,.024-.085,.596-2.109,.596-4.793,0-2.707-.571-4.713-.596-4.797Zm-1.791,1.1c.098,.455,.228,1.17,.309,2.05h-3.389c.006-.239,.01-.482,.01-.729,0-.601-.02-1.178-.054-1.724,1.302,.033,2.47,.254,3.123,.404ZM3.659,4.835c.986-.234,3.189-.683,5.612-.683s4.631,.448,5.614,.683c.228,.965,.658,3.14,.658,5.799,0,2.602-.419,4.765-.649,5.757-.231,.04-1.039,.152-1.121,.175-1.153,.16-2.771,.327-4.502,.327-2.416,0-4.605-.324-5.623-.502-.23-.986-.648-3.137-.648-5.757,0-2.64,.432-4.827,.659-5.799Zm2.854,15.013c-.479,0-.867-.389-.867-.867v-.29c.532,.057,1.116,.108,1.734,.145v.145c0,.479-.389,.867-.867,.867Zm12.07-.867c0,.479-.39,.867-.868,.867s-.867-.389-.867-.867v-.452h1.735v.452Zm-1.669-2.452c.16-.734,.362-1.831,.493-3.165h3.588c-.028,1.337-.207,2.472-.347,3.165h-3.734Z"/>
</svg>
