<?xml version="1.0" encoding="UTF-8"?>
<svg xmlns="http://www.w3.org/2000/svg" id="Layer_1" data-name="Layer 1" viewBox="0 0 24 24">
  <path d="M7.692,11.014c-1.754,0-3.181,1.427-3.181,3.181s1.427,3.182,3.181,3.182,3.18-1.427,3.18-3.182-1.427-3.181-3.18-3.181Zm0,4.363c-.651,0-1.181-.53-1.181-1.182s.53-1.181,1.181-1.181,1.18,.53,1.18,1.181-.529,1.182-1.18,1.182Z"/>
  <path d="M15.01,12.726c-1.061,0-1.924,.863-1.924,1.924s.863,1.924,1.924,1.924,1.923-.863,1.923-1.924-.862-1.924-1.923-1.924Z"/>
  <path d="M21.985,16.067c-.514-.054-.901-.486-.901-1.005,0-.541,.423-.984,.962-1.009,.276-.013,.536-.14,.716-.351,.18-.211,.264-.487,.231-.763-.269-2.34-1.008-4.001-1.137-4.285-.069-.151-.193-.292-.194-.293-1.884-1.982-5.856-5.424-11.288-6.212-2.161-.311-4.005,.112-5.479,1.264-1.939,1.517-3.165,4.296-3.549,8.037-.197,.915-.347,2.005-.347,3.2,0,3.408,1.205,5.931,1.256,6.036,.14,.288,.41,.492,.725,.548,.13,.023,3.227,.566,7.217,.71,.301,.008,.583-.113,.782-.334,.37-.409,.232-.899,.232-.943,0-.435,.354-.788,.788-.788s.787,.354,.787,.788c0,.045-.12,.55,.232,.946,.343,.386,.769,.334,.78,.334,4.028-.138,7.18-.689,7.312-.712,.317-.056,.589-.262,.728-.553,.027-.057,.674-1.419,1.027-3.449,.047-.272-.021-.553-.188-.774s-.418-.363-.693-.392ZM6.128,4.989c1.04-.814,2.333-1.097,3.959-.86,3.219,.467,5.884,2.004,7.809,3.508-1.591-.165-3.642-.315-5.849-.315-3.325,0-6.302,.341-7.881,.561,.432-1.142,1.057-2.187,1.962-2.895Zm14.592,12.754c-.166,.692-.354,1.247-.491,1.608-.939,.143-3.023,.425-5.547,.556-.331-1.169-1.408-2.028-2.682-2.028s-2.348,.856-2.681,2.023c-2.482-.133-4.529-.411-5.455-.552-.305-.8-.864-2.56-.864-4.701,0-2.125,.561-3.896,.866-4.701,1.251-.189,4.537-.627,8.181-.627s6.935,.438,8.183,.627c.184,.481,.459,1.309,.649,2.356-1.062,.467-1.795,1.526-1.795,2.756,0,1.164,.656,2.181,1.636,2.681Z"/>
</svg>
