<?xml version="1.0" encoding="UTF-8"?>
<svg xmlns="http://www.w3.org/2000/svg" id="Layer_1" data-name="Layer 1" viewBox="0 0 24 24">
  <path d="M21.078,2.97c-2.343-2.331-5.231-1.879-5.353-1.859-.204,.034-.392,.131-.539,.276-.687,.681-.982,1.733-1.011,2.79-2.128-.598-5.37-.816-8.146,1.912-2.776,2.728-2.545,5.958-1.93,8.084-1.051,.033-2.097,.325-2.772,.994-.152,.151-.252,.347-.285,.559-.019,.121-.434,3.005,1.88,5.305,1.664,1.655,3.601,1.907,4.629,1.907,.42,0,.688-.042,.724-.048,.204-.034,.392-.131,.539-.276,.687-.681,.982-1.732,1.011-2.789,2.129,.597,5.372,.816,8.147-1.913,2.817-2.768,2.591-5.977,1.968-8.086,1.039-.04,2.069-.333,2.735-.993,.152-.15,.251-.346,.284-.558,.019-.121,.434-3.005-1.88-5.305Zm-2.418,4.748c-.373-.085-.763,.052-1.001,.351-.239,.299-.287,.708-.123,1.054,.775,1.634,1.681,4.762-.967,7.363-2.623,2.579-5.816,1.701-7.485,.947-.348-.154-.755-.101-1.05,.143-.294,.244-.423,.634-.333,1.006,.241,.99,.103,1.891-.126,2.359-.649,.055-2.045-.137-3.243-1.328-1.172-1.165-1.333-2.539-1.334-3.196,.475-.224,1.373-.359,2.365-.129,.373,.089,.761-.047,1.001-.343,.241-.296,.292-.703,.132-1.05-.617-1.337-1.761-4.731,.935-7.38,2.623-2.578,5.815-1.7,7.485-.947,.349,.157,.755,.103,1.05-.142,.294-.244,.423-.634,.333-1.006-.241-.991-.103-1.891,.126-2.36,.655-.029,2.045,.138,3.243,1.328,1.17,1.163,1.333,2.535,1.334,3.196-.471,.22-1.359,.356-2.342,.134Z"/>
  <path d="M13.766,13.632c-.42,.413-.792,.574-1.326,.574-.705,0-1.432-.293-1.712-.42-.501-.226-1.096-.002-1.322,.501-.227,.504-.003,1.096,.501,1.323,.494,.223,1.48,.596,2.534,.596,1.064,0,1.932-.365,2.729-1.148,.394-.387,.399-1.021,.012-1.414-.386-.395-1.02-.399-1.414-.012Z"/>
</svg>
