<?xml version="1.0" encoding="UTF-8"?>
<svg xmlns="http://www.w3.org/2000/svg" id="Layer_1" data-name="Layer 1" viewBox="0 0 24 24">
  <path d="M18.575,4.253c-2.756-2.689-5.097-3.253-6.575-3.253s-3.819,.564-6.575,3.253C2.002,7.593,1.29,10.547,1.296,12.438c.006,1.92,.742,3.729,2.021,4.962,1.062,1.022,2.715,1.631,4.387,1.631,1.296,0,2.323-.348,3.081-.824-.147,1.211-.509,2.099-1.921,2.793h-1.425c-.553,0-1,.448-1,1s.447,1,1,1h9.121c.553,0,1-.448,1-1s-.447-1-1-1h-1.495c-1.41-.694-1.769-1.599-1.919-2.837,.77,.502,1.719,.799,2.774,.858,1.813,.104,3.622-.522,4.763-1.621,1.279-1.233,2.016-3.042,2.021-4.962,.006-1.89-.706-4.844-4.129-8.184Zm.719,11.706c-.741,.715-2.013,1.133-3.264,1.064-1.008-.056-1.839-.417-2.342-1.021l-.924-1.098c-.379-.451-1.15-.451-1.529,0l-.924,1.098s-.003,.003-.004,.004c-.499,.6-1.33,.961-2.338,1.017-1.243,.069-2.522-.349-3.264-1.063-.422-.407-1.404-1.565-1.41-3.529-.007-2.157,1.213-4.489,3.525-6.746,2.395-2.336,4.272-2.685,5.179-2.685s2.784,.349,5.179,2.685c2.312,2.257,3.532,4.589,3.525,6.746-.006,1.964-.988,3.122-1.41,3.528Z"/>
</svg>
