<?xml version="1.0" encoding="UTF-8"?>
<svg xmlns="http://www.w3.org/2000/svg" id="Layer_1" data-name="Layer 1" viewBox="0 0 24 24">
  <path d="M23,9.448c0-4.862-.819-6.495-.912-6.665-.096-.175-.241-.316-.417-.407-.127-.065-3.139-1.597-6.648-1.18-4.293,.516-6.635,3.396-6.732,3.519-.076,.096-.135,.206-.172,.324-.034,.108-.835,2.717-.835,7.521,0,.622,.013,1.25,.038,1.875-.564-.207-1.234-.31-2.011-.31-2.86,0-4.311,1.473-4.311,4.376,0,2.944,1.41,4.375,4.311,4.375,2.859,0,4.31-1.472,4.31-4.375,0-.39-.025-.752-.075-1.089-.171-1.542-.262-3.22-.262-4.852,0-.479,.009-.935,.024-1.368,.356-.495,2.438-3.179,5.954-3.6,2.542-.307,4.819,.326,5.72,.629,.013,.38,.02,.789,.02,1.228,0,.92-.031,2.043-.08,3.107-.646-.338-1.463-.505-2.454-.505-2.859,0-4.31,1.473-4.31,4.376,0,2.944,1.41,4.375,4.311,4.375,2.859,0,4.31-1.472,4.31-4.375,0-.333-.018-.647-.055-.941,.151-1.431,.278-4.155,.278-6.037ZM5.311,20.876c-1.565,0-2.311-.355-2.311-2.375s.745-2.376,2.311-2.376,2.31,.355,2.31,2.376-.745,2.375-2.31,2.375ZM15.022,5.605c-2.377,.285-4.207,1.38-5.457,2.427,.152-1.138,.326-1.885,.411-2.21,.47-.511,2.293-2.281,5.285-2.641,2.277-.278,4.383,.487,5.166,.821,.107,.334,.275,.989,.402,2.079-1.305-.359-3.435-.761-5.806-.477Zm3.444,13.196c-1.565,0-2.311-.355-2.311-2.375s.745-2.376,2.31-2.376,2.311,.355,2.311,2.376-.745,2.375-2.31,2.375Z"/>
</svg>
