<?xml version="1.0" encoding="UTF-8"?>
<svg xmlns="http://www.w3.org/2000/svg" id="Layer_1" data-name="Layer 1" viewBox="0 0 24 24">
  <path d="M21.014,11.497c-.178-.195-.424-.312-.688-.326-.098-.006-.495-.015-1.096,.126-.181-3.842-1.989-6.919-3.669-8.55-1.179-1.145-2.438-1.738-3.567-1.747-3.044,.05-6.937,4.836-7.222,10.297-.603-.142-1.001-.133-1.098-.127-.264,.014-.51,.131-.688,.326-.789,.868-2.029,6.147,.938,9.396,1.591,1.742,3.627,2.108,5.056,2.108h.004c1.1,0,2.246-.234,3.017-.582,.771,.348,1.916,.582,3.017,.582h.004c1.429,0,3.465-.366,5.056-2.108,2.967-3.248,1.727-8.527,.938-9.396Zm-14.258,.282c.003-.266,.018-.529,.041-.789h1.701c.553,0,1-.448,1-1s-.447-1-1-1h-1.325c.983-3.432,3.464-5.989,4.854-5.989,.558,0,1.378,.44,2.142,1.181,1.039,1.009,2.137,2.691,2.698,4.808h-1.365c-.553,0-1,.448-1,1s.447,1,1,1h1.707c.02,.248,.032,.501,.035,.757-.002,.128-.008,.254-.016,.379-.759,.449-1.606,1.106-2.483,2.066-1.27,1.39-2.157,2.943-2.745,4.216-.588-1.273-1.475-2.826-2.745-4.216-.877-.96-1.724-1.617-2.483-2.066-.008-.121-.013-.24-.016-.347Zm-1.355,7.765c-1.821-1.995-1.401-5.141-1.08-6.296,.701,.167,1.988,.685,3.458,2.293,1.675,1.834,2.608,4.058,3.011,5.203-1.147,.345-3.71,.637-5.389-1.2Zm13.199,0c-1.679,1.838-4.24,1.546-5.389,1.2,.402-1.145,1.336-3.369,3.011-5.203,1.461-1.6,2.742-2.121,3.44-2.291,.348,1.221,.739,4.32-1.062,6.293Z"/>
  <path d="M11.482,8.391h1.035c.553,0,1-.448,1-1s-.447-1-1-1h-1.035c-.553,0-1,.448-1,1s.447,1,1,1Z"/>
  <path d="M11.482,13.588h1.035c.553,0,1-.448,1-1s-.447-1-1-1h-1.035c-.553,0-1,.448-1,1s.447,1,1,1Z"/>
</svg>
