<?xml version="1.0" encoding="UTF-8"?>
<svg xmlns="http://www.w3.org/2000/svg" id="Layer_1" data-name="Layer 1" viewBox="0 0 24 24">
  <path d="M21.193,12.888c-.815-6.716-3.357-9.944-8.193-10.322v-.566c0-.552-.447-1-1-1s-1,.448-1,1v.566c-4.836,.378-7.379,3.606-8.193,10.322-.102,.835,.283,1.708,.979,2.224,.753,.558,1.755,.623,2.754,.182,1.302-.577,2.865-.906,4.656-.98,.046,.518,.095,1.468,.095,3.173,0,1.897-.08,2.914-.139,3.406-.215,.055-.547,.108-1.021,.108-.465,0-.795-.052-1.007-.103-.049-.372-.107-.921-.136-1.577-.023-.552-.494-.966-1.042-.956-.552,.024-.98,.491-.956,1.042,.06,1.383,.239,2.34,.247,2.38,.046,.241,.179,.457,.373,.606,.185,.142,.914,.606,2.521,.606,1.618,0,2.343-.468,2.526-.612,.155-.122,.271-.287,.333-.474,.07-.212,.3-1.161,.3-4.428,0-1.468-.033-2.465-.088-3.152,1.624,.104,3.043,.448,4.256,.959,1.338,.563,2.331,.131,2.754-.182,.696-.516,1.081-1.388,.979-2.223Zm-2.17,.616c-.206,.152-.523,.063-.753-.04-1.751-.775-3.86-1.168-6.271-1.168s-4.52,.393-6.271,1.168c-.229,.103-.547,.191-.753,.04-.144-.106-.194-.287-.184-.375,.864-7.138,3.507-8.6,7.207-8.6s6.343,1.462,7.207,8.601c.011,.088-.04,.269-.184,.375Z"/>
</svg>
