<?xml version="1.0" encoding="UTF-8"?>
<svg xmlns="http://www.w3.org/2000/svg" id="Layer_1" data-name="Layer 1" viewBox="0 0 24 24">
  <path d="M18.437,1.015c-2.682,0-3.244,1.763-3.244,3.242s.562,3.241,3.244,3.241,3.245-1.763,3.245-3.241-.563-3.242-3.245-3.242Zm0,4.483c-.964,0-1.244-.163-1.244-1.241s.28-1.242,1.244-1.242,1.245,.163,1.245,1.242-.28,1.241-1.245,1.241Z"/>
  <path d="M13.61,10.101c-.011-1.732-.04-4.557-.081-5.199-.142-2.188-2.005-3.901-4.241-3.901s-4.1,1.714-4.241,3.901c-.042,.651-.07,3.504-.081,5.2-1.78,1.069-2.648,3.03-2.648,5.969,0,6.211,3.979,6.93,6.971,6.93s6.971-.719,6.971-6.93c0-2.939-.867-4.9-2.648-5.97Zm-4.322,10.899c-3.068,0-4.971-.824-4.971-4.93,0-3.162,1.173-4.054,2.055-4.45,.358-.16,.589-.516,.591-.908,.009-1.944,.042-5.086,.08-5.682,.073-1.139,1.06-2.03,2.245-2.03s2.172,.892,2.245,2.03c.038,.586,.071,3.677,.081,5.682,.002,.393,.233,.747,.591,.907,.882,.396,2.054,1.287,2.054,4.451,0,4.105-1.902,4.93-4.971,4.93Z"/>
  <path d="M10.288,13.303v-1.303c0-.553-.447-1-1-1s-1,.447-1,1v1.303c-1.138,.409-1.954,1.495-1.954,2.768,0,1.622,1.325,2.941,2.954,2.941s2.954-1.319,2.954-2.941c0-1.273-.816-2.359-1.954-2.768Zm-1,3.709c-.526,0-.954-.422-.954-.941s.428-.941,.954-.941,.954,.422,.954,.941-.428,.941-.954,.941Z"/>
</svg>
