<?xml version="1.0" encoding="UTF-8"?>
<svg xmlns="http://www.w3.org/2000/svg" id="Layer_1" data-name="Layer 1" viewBox="0 0 24 24">
  <path d="M12,1.798C6.879,1.798,1,3.048,1,12.798c0,3.87,.905,6.631,2.767,8.44,.123,.12,.274,.205,.44,.25,.109,.028,2.742,.714,7.793,.714s7.697-.685,7.808-.714c.167-.044,.319-.131,.442-.251,1.851-1.806,2.75-4.565,2.75-8.439C23,3.048,17.121,1.798,12,1.798Zm7.042,17.814c-.752,.159-3.145,.59-7.042,.59s-6.28-.431-7.026-.59c-1.328-1.425-1.974-3.658-1.974-6.814C3,5.328,6.598,3.798,12,3.798s9,1.53,9,9c0,3.159-.642,5.393-1.958,6.814Z"/>
  <path d="M12,5.798c-4.488,0-6.801,.954-6.985,6.167-.02,.552,.411,1.015,.964,1.034,.012,0,.023,0,.036,0,.535,0,.979-.425,.998-.965,.133-3.738,1.123-4.237,4.987-4.237,3.988,0,5,.491,5,5,0,1.598-.202,2.852-.585,3.628-.245,.495-.041,1.095,.454,1.339,.143,.07,.293,.104,.441,.104,.369,0,.724-.204,.897-.558,.525-1.064,.792-2.583,.792-4.513,0-5.952-2.257-7-7-7Z"/>
  <path d="M12,10.585c-1.22,0-2.213,.993-2.213,2.213,0,.135,.013,.267,.036,.395l-2.784,1.72c-.47,.29-.615,.906-.325,1.376,.188,.307,.517,.475,.852,.475,.18,0,.36-.048,.524-.149l2.951-1.823c.29,.14,.616,.219,.959,.219,1.22,0,2.213-.993,2.213-2.213s-.993-2.213-2.213-2.213Z"/>
</svg>
