<?xml version="1.0" encoding="UTF-8"?>
<svg xmlns="http://www.w3.org/2000/svg" id="Layer_1" data-name="Layer 1" viewBox="0 0 24 24">
  <path d="M13.122,6.328c.319-.968,1.23-1.669,2.302-1.669,.553,0,1-.447,1-1s-.447-1-1-1c-.894,0-1.727,.267-2.424,.726v-1.385c0-.553-.447-1-1-1s-1,.447-1,1v1.385c-.697-.458-1.529-.726-2.424-.726-.553,0-1,.447-1,1s.447,1,1,1c1.072,0,1.983,.701,2.302,1.669-3.213,.223-6.844,1.626-6.844,8.318,0,5.621,2.605,8.354,7.966,8.354,5.435,0,7.966-2.654,7.966-8.354,0-6.692-3.631-8.096-6.844-8.318Zm4.844,8.318c0,.422-.015,.816-.043,1.186-.341-.413-.706-.789-1.142-1.186,.437-.397,.801-.773,1.142-1.186,.029,.37,.043,.764,.043,1.186Zm-.635-3.803c-.647,1.033-1.125,1.63-1.918,2.345-.629-.812-1.19-1.369-2.016-2.005,.679-.878,1.242-1.378,2.34-2.152,.679,.392,1.217,.972,1.594,1.812Zm-5.331,5.815c-.865-.645-1.366-1.146-2.01-2.012,.643-.864,1.145-1.366,2.01-2.013,.865,.646,1.367,1.148,2.01,2.013-.644,.865-1.145,1.367-2.01,2.012Zm0-8.366c.467,0,.912,.017,1.333,.058-.498,.424-.906,.846-1.333,1.375-.426-.529-.834-.951-1.333-1.375,.42-.041,.865-.058,1.333-.058Zm-3.737,.739c1.098,.774,1.661,1.274,2.34,2.152-.827,.635-1.388,1.192-2.016,2.005-.787-.711-1.271-1.315-1.917-2.346,.377-.839,.915-1.419,1.593-1.811Zm-2.229,5.616c0-.421,.015-.814,.043-1.183,.341,.412,.704,.787,1.142,1.184-.435,.396-.799,.771-1.139,1.183-.03-.369-.045-.763-.045-1.184Zm.649,3.781c.64-1.02,1.118-1.614,1.904-2.323,.627,.807,1.197,1.373,2.016,2.005-.674,.872-1.234,1.371-2.316,2.136-.677-.396-1.221-.978-1.604-1.817Zm3.988,2.511c.496-.422,.903-.843,1.328-1.37,.426,.528,.834,.95,1.332,1.374-.42,.041-.865,.058-1.332,.058-.464,0-.907-.018-1.328-.061Zm5.065-.677c-1.098-.774-1.661-1.274-2.34-2.153,.819-.632,1.389-1.198,2.016-2.005,.792,.714,1.271,1.312,1.918,2.346-.377,.84-.915,1.42-1.594,1.812Z"/>
</svg>
