<?xml version="1.0" encoding="UTF-8"?>
<svg xmlns="http://www.w3.org/2000/svg" id="Layer_1" data-name="Layer 1" viewBox="0 0 24 24">
  <path d="M11.995,14.531c-.076,0-.152-.003-.229-.009-.877-.067-1.696-.509-2.578-1.392-1.866-1.865-1.866-3.758,0-5.624,1.867-1.866,3.758-1.865,5.625,0,1.865,1.867,1.865,3.759,0,5.624-.94,.94-1.865,1.4-2.817,1.4Zm.023-6.423c-.409,0-.85,.246-1.416,.812-1.196,1.196-.966,1.829,0,2.796,.518,.519,.949,.783,1.316,.812,.416,.045,.909-.24,1.479-.812,1.195-1.195,.966-1.829,0-2.796-.508-.509-.925-.812-1.379-.812Z"/>
  <path d="M11.986,1C7.159,1.066,2.309,5.808,2.309,10.456c0,6.416,8.776,12.141,9.145,12.382,.167,.108,.356,.163,.547,.163,.198,0,.395-.059,.565-.175,.368-.252,9.021-6.25,9.126-12.418-.146-4.77-4.85-9.341-9.705-9.407Zm.001,19.773c-1.838-1.324-7.576-5.816-7.679-10.329,.13-3.709,3.938-7.393,7.677-7.444,3.774,.051,7.592,3.75,7.705,7.42-.074,4.302-5.864,8.976-7.704,10.353Z"/>
</svg>
