<?xml version="1.0" encoding="UTF-8"?>
<svg xmlns="http://www.w3.org/2000/svg" id="Layer_1" data-name="Layer 1" viewBox="0 0 24 24">
  <path d="M14.43,11.611l-1.016-1.016,1.015-1.015c.39-.39,.391-1.023,0-1.414s-1.024-.39-1.414,0l-1.015,1.015-1.016-1.016c-.391-.391-1.024-.39-1.414,0s-.391,1.023,0,1.414l1.016,1.016-1.015,1.015c-.39,.39-.391,1.023,0,1.414s1.024,.39,1.414,0l1.015-1.015,1.016,1.016c.391,.391,1.024,.39,1.414,0s.391-1.023,0-1.414Z"/>
  <path d="M11.986,1C7.159,1.066,2.309,5.808,2.309,10.456c0,6.416,8.776,12.141,9.145,12.382,.167,.108,.356,.163,.547,.163,.198,0,.395-.059,.565-.175,.368-.252,9.021-6.25,9.126-12.418-.146-4.77-4.85-9.341-9.705-9.407Zm.001,19.773c-1.838-1.324-7.576-5.816-7.679-10.329,.13-3.709,3.938-7.393,7.677-7.444,3.774,.051,7.592,3.75,7.705,7.42-.074,4.302-5.864,8.976-7.704,10.353Z"/>
</svg>
