<?xml version="1.0" encoding="UTF-8"?>
<svg xmlns="http://www.w3.org/2000/svg" id="Layer_1" data-name="Layer 1" viewBox="0 0 24 24">
  <path d="M22.383,17.135c-.801-.332-1.72-1.05-1.72-3.676s.921-3.337,1.723-3.672c.51-.213,.75-.799,.537-1.309-.212-.51-.799-.75-1.308-.537-1.746,.731-2.703,2.214-2.909,4.521h-.727c-.106-1.072-.352-1.805-.365-1.844-.115-.339-.403-.59-.754-.659-.032-.006-.232-.045-.567-.101-1.227-2.981-3.009-5.161-3.086-5.255-.121-.146-.281-.256-.462-.315-.077-.024-1.924-.617-5.078-.754-.278-.025-.538,.087-.735,.276-.197,.189-.309,.45-.309,.723v4.867c-2.525,.184-4.362,.539-4.465,.559-.359,.07-.65,.331-.761,.68-.017,.051-.397,1.271-.397,2.823,0,1.575,.389,2.721,.405,2.77,.113,.329,.39,.575,.73,.65,.039,.009,.332,.072,.821,.159v.62c0,1.548,1.254,2.807,2.795,2.807s2.795-1.259,2.795-2.807v-.043c.316,.009,.637,.014,.962,.014,.328,0,.653-.005,.971-.015v.044c0,1.548,1.254,2.807,2.795,2.807s2.795-1.259,2.795-2.807v-.622c.483-.086,.772-.149,.812-.157,.343-.075,.621-.324,.733-.657,.013-.038,.245-.74,.355-1.763h.736c.206,2.312,1.164,3.796,2.911,4.521,.125,.052,.255,.076,.383,.076,.392,0,.765-.232,.924-.617,.211-.51-.031-1.095-.541-1.307ZM8.623,5.598c1.621,.136,2.737,.387,3.225,.514,.385,.507,1.3,1.781,2.109,3.429-1.244-.135-2.792-.25-4.448-.25-.299,0-.595,.004-.886,.011v-3.704Zm-2.076,12.063c0,.444-.356,.807-.795,.807s-.795-.362-.795-.807v-.321c.486,.06,1.02,.117,1.59,.165v.156Zm-3.386-2.617c-.078-.378-.161-.933-.161-1.582,0-.656,.086-1.243,.167-1.648,1.119-.18,3.605-.522,6.342-.522,2.751,0,5.239,.344,6.352,.524,.081,.389,.167,.956,.167,1.607,0,.655-.088,1.229-.17,1.621-1.103,.2-3.598,.588-6.348,.588s-5.248-.388-6.348-.588Zm10.91,2.617c0,.444-.357,.807-.795,.807s-.795-.362-.795-.807v-.157c.57-.048,1.104-.105,1.59-.165v.322Z"/>
</svg>
