<?xml version="1.0" encoding="UTF-8"?>
<svg xmlns="http://www.w3.org/2000/svg" id="Layer_1" data-name="Layer 1" viewBox="0 0 24 24">
  <path d="M9.216,10.595c.337,0,.888-.069,1.28-.465,.554-.554,.551-1.391-.006-1.947-.266-.267-.625-.419-.984-.419h-.003c-.356,0-.698,.148-.961,.414-.514,.516-.493,1.294-.451,1.517,.175,.942,1.023,.9,1.125,.9Z"/>
  <path d="M13.159,10.859c-.266-.267-.625-.419-.984-.419h-.003c-.356,0-.698,.148-.961,.414-.514,.516-.493,1.294-.451,1.517,.175,.942,1.023,.9,1.125,.9,.337,0,.888-.069,1.28-.465,.554-.554,.551-1.391-.006-1.947Z"/>
  <path d="M14.845,13.11h-.003c-.356,0-.698,.148-.961,.414-.514,.516-.493,1.294-.451,1.517,.175,.942,1.023,.9,1.125,.9,.337,0,.888-.069,1.28-.465,.554-.554,.551-1.391-.006-1.947-.266-.267-.625-.419-.984-.419Z"/>
  <path d="M11.03,14.777h-.003c-.356,0-.698,.148-.961,.414-.514,.516-.493,1.294-.451,1.517,.175,.942,1.023,.9,1.125,.9,.337,0,.888-.069,1.28-.465,.554-.554,.551-1.391-.006-1.947-.266-.267-.625-.419-.984-.419Z"/>
  <path d="M7.847,11.594h-.003c-.356,0-.698,.148-.961,.414-.514,.516-.493,1.294-.451,1.517,.175,.942,1.023,.9,1.125,.9,.337,0,.888-.069,1.28-.465,.554-.554,.551-1.391-.006-1.947-.266-.267-.625-.419-.984-.419Z"/>
  <path d="M6.961,15.671h-.003c-.356,0-.698,.148-.961,.414-.514,.516-.493,1.294-.451,1.517,.175,.942,1.023,.9,1.125,.9,.337,0,.888-.069,1.28-.465,.554-.554,.551-1.391-.006-1.947-.266-.267-.625-.419-.984-.419Z"/>
  <path d="M22.865,8.264c-.257-.488-.862-.677-1.351-.417-1.329,.702-2.882,.362-3.921-.028l1.319-1.323c.391-.392,.389-1.024-.002-1.414-.392-.392-1.024-.389-1.414,.002l-1.309,1.313c-.384-1.045-.717-2.603-.026-3.937,.254-.49,.062-1.094-.428-1.348-.491-.253-1.094-.062-1.348,.428-.634,1.223-.716,2.503-.565,3.635-1.344-.813-2.673-1.223-3.975-1.223h0c-1.812,0-3.509,.779-5.04,2.314C.724,10.36-.271,18.023,2.868,21.174c1.174,1.178,3.106,1.826,5.441,1.826h0c3.496,0,7.107-1.445,9.424-3.77,1.646-1.651,3.638-4.804,1.087-9.041,.309,.042,.629,.066,.955,.066,.87,0,1.788-.172,2.672-.64,.488-.258,.676-.862,.417-1.351Zm-6.547,9.554c-1.955,1.962-5.023,3.182-8.008,3.182h0c-1.773,0-3.24-.451-4.025-1.238-2.112-2.12-1.53-8.604,1.937-12.084,1.143-1.146,2.362-1.727,3.624-1.727h0c1.641,0,3.432,.964,5.327,2.862,.005,.005,.009,.009,.014,.014,3.394,3.409,3.764,6.35,1.132,8.991Z"/>
</svg>
