<?xml version="1.0" encoding="UTF-8"?>
<svg xmlns="http://www.w3.org/2000/svg" id="Layer_1" data-name="Layer 1" viewBox="0 0 24 24">
  <path d="M16.129,17.337c-.127-1.921-.711-3.288-.737-3.35-.095-.218-.264-.395-.477-.5-.121-.06-1.231-.581-2.919-.581s-2.796,.521-2.917,.581c-.215,.105-.385,.284-.479,.504-.027,.063-.608,1.439-.735,3.346-.166,.157-.276,.368-.305,.603-.003,.021-.066,.541-.066,1.22,0,.686,.063,1.201,.066,1.222,.053,.42,.365,.762,.779,.853,.021,.005,.181,.039,.447,.085v.267c0,.552,.448,1,1,1s1-.448,1-1v-.025c.381,.026,.788,.043,1.21,.043s.829-.017,1.21-.043v.025c0,.552,.447,1,1,1s1-.448,1-1v-.267c.266-.046,.427-.081,.447-.085,.415-.09,.728-.433,.779-.854,.003-.021,.066-.541,.066-1.221,0-.685-.063-1.2-.066-1.222-.03-.234-.14-.445-.304-.601Zm-4.132-2.431c.751,0,1.347,.141,1.694,.25,.109,.334,.26,.873,.359,1.54-.596-.103-1.303-.185-2.053-.185s-1.456,.082-2.052,.185c.099-.665,.25-1.205,.358-1.54,.351-.11,.945-.25,1.693-.25Zm-2.499,4.502c-.002-.079-.003-.162-.003-.249,0-.116,.002-.226,.006-.327,.58-.143,1.503-.322,2.497-.322s1.918,.178,2.497,.321c.004,.102,.006,.211,.006,.327,0,.086,0,.169-.003,.249-.604,.091-1.518,.196-2.5,.196s-1.896-.105-2.499-.196Z"/>
  <path d="M21.745,7.264c-.074-.149-.185-.277-.32-.373C18.516,4.846,13.423,1.414,12,1.414c-1.442,0-6.525,3.432-9.426,5.478-.138,.097-.249,.228-.322,.378-.051,.105-1.252,2.622-1.252,7.753,0,2.06,.189,5.066,.421,6.703,.07,.493,.492,.859,.99,.859h3.131c.552,0,1-.448,1-1v-4.424c0-2.238,.36-4.104,.564-4.983,.898-.208,2.796-.58,4.893-.58s3.996,.372,4.895,.58c.204,.873,.563,2.729,.563,4.982v4.424c0,.552,.447,1,1,1h3.128c.498,0,.92-.366,.99-.859,.233-1.647,.424-4.654,.424-6.703,0-5.176-1.204-7.656-1.255-7.759Zm-1.045,13.322h-1.242v-3.424c0-3.444-.754-5.989-.785-6.096-.099-.326-.355-.58-.683-.673-.113-.032-2.809-.793-5.99-.793s-5.876,.761-5.989,.793c-.329,.094-.587,.349-.684,.676-.032,.108-.784,2.677-.784,6.093v3.424h-1.245c-.169-1.614-.298-3.935-.298-5.562,0-3.807,.709-6.002,.961-6.662,3.301-2.315,7.259-4.824,7.992-4.95,.816,.13,4.78,2.639,8.088,4.952,.253,.656,.959,2.828,.959,6.66,0,1.621-.13,3.943-.3,5.562Z"/>
</svg>
