<?xml version="1.0" encoding="UTF-8"?>
<svg xmlns="http://www.w3.org/2000/svg" id="Layer_1" data-name="Layer 1" viewBox="0 0 24 24">
  <path d="M21.771,15.46c-.382-.329-.948-.325-1.322,.012-.36,.323-1.199,1.175-1.215,2.151,.03,.971,.903,1.835,1.897,1.849,.967-.014,1.868-.918,1.868-1.852,0-.997-.945-1.916-1.229-2.161Z"/>
  <path d="M20.021,9.599c-.27-.236-.646-.309-.983-.192l-2.197,.758c-.171-.856-.346-1.382-.356-1.413-.091-.271-.294-.49-.558-.602-.087-.036-1.901-.793-4.233-.978v-.743h1.639c.553,0,1-.448,1-1s-.447-1-1-1h-5.251c-.553,0-1,.448-1,1s.447,1,1,1h1.612v.743c-1.874,.147-3.439,.662-4.03,.878-.345-.039-.693-.07-1.072-.07-1.343,0-2.494,.291-2.542,.303-.33,.084-.594,.331-.701,.654-.015,.043-.349,1.067-.349,2.405,0,1.349,.335,2.366,.35,2.409,.107,.321,.371,.566,.699,.651,.044,.011,.984,.249,2.158,.295,.148,2.036,.617,3.449,.641,3.519,.106,.316,.363,.558,.685,.646,.106,.029,2.625,.706,5.351,.706,2.746,0,4.878-.691,4.967-.721,.158-.052,.301-.143,.415-.264,.051-.054,1.255-1.34,2.249-3.118,1.307-2.336,1.811-4.814,1.831-4.919,.07-.351-.053-.713-.323-.949ZM3,11.344c0-.486,.058-.918,.118-1.235,.366-.06,.872-.122,1.412-.127-.145,.688-.296,1.626-.349,2.71-.403-.021-.782-.066-1.064-.113-.06-.315-.117-.746-.117-1.235Zm13.768,3.146c-.662,1.185-1.446,2.138-1.787,2.53-.587,.164-2.175,.549-4.098,.549-1.749,0-3.447-.321-4.285-.507-.172-.684-.436-1.99-.436-3.578,0-1.62,.284-2.978,.456-3.648,.742-.25,2.332-.704,4.075-.704,1.729,0,3.292,.452,4.021,.701,.101,.389,.239,1.013,.337,1.789,.037,.299,.208,.565,.464,.725,.255,.159,.569,.195,.854,.096l1.519-.524c-.258,.764-.625,1.684-1.121,2.571Z"/>
</svg>
