<?xml version="1.0" encoding="UTF-8"?>
<svg xmlns="http://www.w3.org/2000/svg" id="Layer_1" data-name="Layer 1" viewBox="0 0 24 24">
  <path d="M21.266,18.613c-.553,0-1,.447-1,1,0,.259-.185,.479-.448,.536-.858,.183-2.15,.422-3.737,.6v-2.114c.915-.099,1.828-.224,2.739-.378l1.119-.188c.481-.081,.834-.498,.834-.986v-3.361c0-2.022-1.386-3.768-3.371-4.245l-4.228-1.014V2c0-.553-.447-1-1-1h-.85c-3.096,0-6.212,.689-9.013,1.995-.352,.164-.577,.518-.577,.906v13.181c0,.479,.34,.891,.811,.981,1.285,.249,2.575,.441,3.867,.579v1.968c-1.124-.175-2.265-.416-3.404-.741-.523-.149-1.084,.156-1.235,.688-.151,.531,.157,1.084,.688,1.235,3.178,.904,6.358,1.205,9.185,1.205,3.794,0,6.948-.542,8.59-.894,1.176-.25,2.03-1.298,2.03-2.491,0-.553-.447-1-1-1ZM3.734,4.551c2.339-.996,4.895-1.53,7.439-1.55v2.449h-1.624c-.553,0-1,.447-1,1s.447,1,1,1h1.624v1.361l-1.301,1.285c-.393,.388-.396,1.021-.008,1.414,.195,.197,.453,.297,.711,.297,.254,0,.508-.096,.703-.289l1.184-1.169,1.346,.323v1.444c0,.553,.447,1,1,1s1-.447,1-1v-.964l1.125,.27c1.082,.26,1.838,1.205,1.838,2.3v2.516l-.286,.048c-4.9,.83-9.858,.816-14.752-.035V4.551Zm4.678,16.305v-2.045c.932,.058,1.865,.087,2.799,.087,.956,0,1.913-.03,2.869-.091v2.117c-1.711,.107-3.641,.117-5.668-.068Z"/>
</svg>
