<?xml version="1.0" encoding="UTF-8"?>
<svg xmlns="http://www.w3.org/2000/svg" id="Layer_1" data-name="Layer 1" viewBox="0 0 24 24">
  <path d="M21.818,14.575h-.101c.965-3.57,1.027-7.182,.182-10.749-.292-1.23-1.305-2.167-2.521-2.33-4.896-.657-9.862-.657-14.759,0-1.216,.164-2.229,1.1-2.521,2.331-.845,3.567-.783,7.179,.182,10.749h-.101c-.552,0-1,.448-1,1s.448,1,1,1H11v2.188c-.847,.037-1.692,.12-2.533,.25-.377,.058-.688,.326-.802,.689l-.068,.218c-.23,.726-.369,1.165-.346,2.103,.013,.552,.457,1.005,1.023,.976,.552-.013,.989-.471,.976-1.023-.011-.47,.024-.693,.136-1.073,1.737-.217,3.491-.217,5.229,0,.112,.379,.147,.603,.136,1.073-.013,.552,.424,1.01,.976,1.023,.008,0,.016,0,.024,0,.542,0,.986-.432,.999-.977,.022-.938-.116-1.377-.346-2.103l-.068-.218c-.114-.364-.425-.631-.802-.689-.841-.13-1.687-.213-2.533-.25v-2.188h8.818c.552,0,1-.448,1-1s-.448-1-1-1ZM4.046,4.288c.102-.431,.44-.756,.841-.81,4.72-.635,9.506-.635,14.226,0,.401,.054,.739,.379,.841,.809,.808,3.412,.702,6.872-.316,10.288H4.362c-1.017-3.415-1.124-6.876-.316-10.287Z"/>
</svg>
