<?xml version="1.0" encoding="UTF-8"?>
<svg xmlns="http://www.w3.org/2000/svg" id="Layer_1" data-name="Layer 1" viewBox="0 0 24 24">
  <path d="M20.885,17.897l-.733-2.129c-.367-1.067-.959-2.087-1.766-3.049,.214-.081,.396-.234,.513-.436,.144-.25,.173-.551,.079-.825l-.367-1.065c-.422-1.226-1.149-2.267-1.915-3.1,.119-.083,.22-.192,.294-.321,.144-.25,.173-.551,.079-.825-1.088-3.157-4.46-4.958-4.603-5.034-.292-.153-.639-.153-.931,0-.143,.075-3.515,1.876-4.603,5.034-.094,.273-.065,.574,.079,.825,.074,.129,.175,.238,.294,.321-.765,.834-1.492,1.874-1.915,3.1l-.367,1.065c-.094,.273-.065,.574,.079,.825,.116,.202,.298,.355,.513,.436-.807,.961-1.399,1.982-1.766,3.049l-.733,2.129c-.094,.273-.065,.574,.079,.825,.145,.251,.39,.427,.674,.482l2.972,.583c1.362,.267,2.757,.428,4.16,.479v1.733c0,.552,.448,1,1,1s1-.448,1-1v-1.733c1.403-.052,2.799-.212,4.16-.479l2.972-.583c.284-.056,.53-.231,.674-.482,.144-.25,.173-.551,.079-.825Zm-4.109-.073c-3.117,.612-6.434,.612-9.551,0l-1.845-.362,.359-1.043c.392-1.138,1.129-2.23,2.191-3.248,1.385,.216,2.873,.343,4.07,.343,.552,0,1-.448,1-1s-.448-1-1-1c-1.212,0-2.828-.151-4.217-.394-.021-.004-.495-.096-.495-.096,.487-1.392,1.528-2.512,2.419-3.269,.362,.037,.725,.065,1.088,.085,.018,0,.036,.001,.054,.001,.528,0,.969-.414,.998-.947,.029-.552-.394-1.022-.945-1.052-.515-.027-1.03-.075-1.539-.141,.789-1.23,1.99-2.116,2.642-2.539,.746,.481,1.883,1.381,2.63,2.54-.051,.007-.103,.013-.154,.02-.4,.049-.733,.333-.842,.722-.109,.388,.026,.805,.343,1.055,.946,.749,2.187,1.967,2.731,3.525l-.506,.098c-.375,.07-.678,.348-.78,.716-.102,.368,.014,.762,.299,1.015,1.249,1.108,2.102,2.309,2.536,3.566l.359,1.043-1.845,.362Z"/>
</svg>
