<?xml version="1.0" encoding="UTF-8"?>
<svg xmlns="http://www.w3.org/2000/svg" id="Layer_1" data-name="Layer 1" viewBox="0 0 24 24">
  <path d="M22.432,8.161c-.095-.327-.35-.583-.677-.68-.082-.024-2.041-.596-4.348-.596-.189,0-.376,.004-.562,.012-.536,.021-.96,.462-.96,.999V15.972H2.96c-.553,0-1,.447-1,1s.447,1,1,1h.403v.37c0,1.523,1.244,2.764,2.773,2.764,.674,0,1.293-.241,1.774-.641,.481,.4,1.1,.641,1.773,.641,1.53,0,2.774-1.24,2.774-2.764v-.37h2.697v.37c0,1.523,1.244,2.764,2.774,2.764s2.773-1.24,2.773-2.764v-.37h.768c.445,0,.838-.295,.961-.724,.023-.08,.567-1.999,.567-4.542,0-2.564-.545-4.466-.568-4.545Zm-4.546,7.811v-2.877h3.109c-.03,1.206-.19,2.232-.318,2.877h-2.791Zm2.757-6.708c.089,.416,.204,1.051,.279,1.831h-3.036v-2.199c1.145,.044,2.163,.233,2.757,.368ZM6.137,19.105c-.427,0-.773-.343-.773-.764v-.37h1.548v.37c0,.421-.348,.764-.774,.764Zm4.322-.764c0,.421-.348,.764-.774,.764s-.773-.343-.773-.764v-.37h1.548v.37Zm8.245,0c0,.421-.347,.764-.773,.764s-.774-.343-.774-.764v-.37h1.548v.37Z"/>
  <path d="M2.328,13.987c.175,.134,.389,.207,.609,.207H13.056c.551,0,.998-.445,1-.996l.03-8.353c0-.268-.105-.524-.294-.713-.292-.29-1.571-1.238-5.78-1.238s-5.462,.95-5.768,1.258c-.208,.219-1.244,1.479-1.244,4.866,0,3.663,1.017,4.729,1.328,4.969ZM3.678,5.562c.238-.139,1.342-.667,4.334-.667,2.378,0,3.572,.33,4.072,.522l-.024,6.777H3.466c-.184-.406-.466-1.331-.466-3.176,0-2.241,.526-3.222,.678-3.457Z"/>
  <path d="M5.554,10.958c.553,0,1-.447,1-1v-2.761c0-.553-.447-1-1-1s-1,.447-1,1v2.761c0,.553,.447,1,1,1Z"/>
  <path d="M9.532,10.958c.553,0,1-.447,1-1v-2.761c0-.553-.447-1-1-1s-1,.447-1,1v2.761c0,.553,.447,1,1,1Z"/>
</svg>
