<?xml version="1.0" encoding="UTF-8"?>
<svg xmlns="http://www.w3.org/2000/svg" id="Layer_1" data-name="Layer 1" viewBox="0 0 24 24">
  <g>
    <path d="M8.124,2.82c-.067,.018-1.391,.374-2.588,1.231L2.778,1.291c-.388-.388-1.016-.387-1.403,0-.388,.388-.388,1.016,0,1.404l2.765,2.766c-.842,1.189-1.217,2.495-1.236,2.562-.12,.425,.055,.878,.43,1.112,1.973,1.229,3.972,1.454,5.228,1.467,1.715,.019,1.91-.323,2.04-.905,.03-.133,.509-3.331-1.377-6.433-.229-.376-.676-.556-1.101-.444Z"/>
    <path d="M15.876,2.82c.067,.018,1.391,.374,2.588,1.231l2.759-2.76c.388-.388,1.016-.387,1.403,0,.388,.388,.388,1.016,0,1.404l-2.765,2.766c.842,1.189,1.217,2.495,1.236,2.562,.12,.425-.055,.878-.43,1.112-1.973,1.229-3.972,1.454-5.228,1.467-1.715,.019-1.91-.323-2.04-.905-.03-.133-.509-3.331,1.377-6.433,.229-.376,.676-.556,1.101-.444Z"/>
  </g>
  <g>
    <path d="M15.876,21.18c.067-.018,1.391-.374,2.588-1.231l2.759,2.76c.388,.388,1.016,.387,1.403,0,.388-.388,.388-1.016,0-1.404l-2.765-2.766c.842-1.189,1.217-2.495,1.236-2.562,.12-.425-.055-.878-.43-1.112-1.973-1.229-3.972-1.454-5.228-1.467-1.715-.019-1.91,.323-2.04,.905-.03,.133-.509,3.331,1.377,6.433,.229,.376,.676,.556,1.101,.444Z"/>
    <path d="M8.124,21.18c-.067-.018-1.391-.374-2.588-1.231l-2.759,2.76c-.388,.388-1.016,.387-1.403,0-.388-.388-.388-1.016,0-1.404l2.765-2.766c-.842-1.189-1.217-2.495-1.236-2.562-.12-.425,.055-.878,.43-1.112,1.973-1.229,3.972-1.454,5.228-1.467,1.715-.019,1.91,.323,2.04,.905,.03,.133,.509,3.331-1.377,6.433-.229,.376-.676,.556-1.101,.444Z"/>
  </g>
</svg>
