<?xml version="1.0" encoding="UTF-8"?>
<svg xmlns="http://www.w3.org/2000/svg" id="Layer_1" data-name="Layer 1" viewBox="0 0 24 24">
  <path d="M12.963,12.136v-2.133c0-.552-.447-1-1-1s-1,.448-1,1v2.133c-.562,.34-.938,.957-.938,1.661,0,1.069,.869,1.938,1.938,1.938s1.938-.87,1.938-1.938c0-.704-.376-1.321-.938-1.661Z"/>
  <path d="M20.002,7.422c.6,.556,1.22,.196,1.415,0,.391-.39,.391-1.023,0-1.414l-1.786-1.789c-.391-.392-1.024-.391-1.415,0-.391,.39-.391,1.023,0,1.414l.187,.187-.488,.489c-.933-.692-2.058-1.18-3.366-1.455,.134-.327,.208-.684,.208-1.058,0-1.542-1.254-2.796-2.795-2.796s-2.795,1.254-2.795,2.796c0,.37,.073,.723,.204,1.046-1.305,.263-2.423,.734-3.349,1.405l-.426-.427,.187-.187c.39-.391,.39-1.024,0-1.414-.391-.39-1.024-.391-1.415,0l-1.786,1.789c-.39,.391-.39,1.024,0,1.414,.195,.195,.789,.555,1.415,0l.185-.186,.405,.406c-1.16,1.508-1.823,3.562-1.823,6.137,0,5.774,3.288,9.187,9.203,9.221,5.904-.035,9.082-3.211,9.191-9.221-.044-2.517-.666-4.554-1.821-6.065l.477-.478,.185,.186ZM11.963,3c.438,0,.795,.357,.795,.796s-.356,.796-.795,.796-.795-.357-.795-.796,.356-.796,.795-.796Zm.006,18c-4.818-.028-7.108-2.317-7.203-7.204,.092-4.818,2.448-7.174,7.19-7.204,4.698,.031,7.122,2.46,7.204,7.186-.089,4.898-2.378,7.193-7.191,7.222Z"/>
</svg>
