<?xml version="1.0" encoding="UTF-8"?>
<svg xmlns="http://www.w3.org/2000/svg" id="Layer_1" data-name="Layer 1" viewBox="0 0 24 24">
  <path d="M22.186,5.654c-.288-1.088-1.198-1.925-2.319-2.131-5.072-.927-10.66-.928-15.735,0-1.12,.206-2.03,1.042-2.318,2.13-1.082,4.092-1.082,8.6,0,12.692,.288,1.088,1.198,1.925,2.319,2.131,2.537,.464,5.202,.696,7.867,.696s5.331-.232,7.867-.696t0,0c1.12-.206,2.03-1.042,2.318-2.13,1.082-4.092,1.082-8.6,0-12.692Zm-17.693-.163c2.42-.443,4.963-.665,7.507-.665s5.086,.222,7.506,.664c.362,.067,.655,.332,.746,.675,.099,.374,.187,.751,.267,1.131H3.481c.079-.38,.168-.758,.267-1.131,.091-.344,.384-.608,.746-.675Zm15.759,12.344c-.091,.344-.383,.608-.746,.675-4.84,.887-10.172,.886-15.013,0-.362-.067-.655-.332-.746-.675-.725-2.742-.921-5.686-.59-8.538H20.842c.332,2.852,.136,5.796-.59,8.538Z"/>
  <circle cx="7.63" cy="14.298" r="2.491"/>
  <path d="M17.861,13.365h-3.313c-.552,0-1,.448-1,1s.448,1,1,1h3.313c.552,0,1-.448,1-1s-.448-1-1-1Z"/>
</svg>
