<?xml version="1.0" encoding="UTF-8"?>
<svg xmlns="http://www.w3.org/2000/svg" id="Layer_1" data-name="Layer 1" viewBox="0 0 24 24">
  <path d="M20.312,15.638c-.052-.323-.258-.594-.542-.736-.076-3.548-1.374-5.822-1.431-5.919-.127-.218-.331-.38-.572-.454-.112-.034-2.774-.836-5.768-.836s-5.655,.802-5.767,.836c-.243,.074-.449,.238-.576,.459-.056,.099-1.351,2.396-1.427,5.914-.286,.142-.492,.415-.543,.74-.005,.032-.124,.797-.124,1.803,0,1.014,.119,1.772,.125,1.804,.069,.435,.415,.773,.851,.833,.019,.003,.09,.012,.206,.027v.391c0,1.379,1.117,2.502,2.49,2.502,1.356,0,2.461-1.094,2.488-2.45,.742,.037,1.514,.06,2.278,.06s1.536-.023,2.279-.06c.028,1.355,1.132,2.45,2.488,2.45,1.373,0,2.49-1.123,2.49-2.502v-.391c.115-.015,.186-.025,.205-.027,.437-.06,.782-.399,.851-.834,.006-.032,.125-.798,.125-1.803,0-1.014-.12-1.773-.125-1.805Zm-8.312-5.946c2.045,0,3.969,.431,4.78,.639,.289,.639,.857,2.123,.973,4.157-1.466-.239-3.635-.519-5.753-.519s-4.285,.28-5.752,.519c.117-2.022,.685-3.516,.974-4.158,.812-.208,2.73-.638,4.778-.638Zm-6.413,8.503c-.014-.218-.025-.474-.025-.752,0-.302,.013-.578,.029-.809,.478-.089,1.171-.209,1.986-.323v.271c0,.552,.448,1,1,1s1-.448,1-1v-.5c.788-.069,1.614-.114,2.422-.114s1.634,.045,2.422,.114v.5c0,.552,.447,1,1,1s1-.448,1-1v-.271c.815,.114,1.508,.233,1.986,.323,.017,.23,.029,.506,.029,.809,0,.277-.011,.533-.025,.752-1.275,.148-3.922,.416-6.412,.416s-5.138-.267-6.413-.416Z"/>
  <path d="M6.428,7.01c1.16-.016,2.245-1.057,2.245-2.229,0-1.271-1.339-2.524-1.603-2.753-.382-.331-.949-.325-1.325,.012-.368,.332-1.569,1.504-1.588,2.74,.035,1.171,1.083,2.213,2.271,2.229Z"/>
  <path d="M17.599,7.01c1.16-.016,2.245-1.057,2.245-2.229,0-1.271-1.339-2.524-1.603-2.753-.382-.331-.949-.325-1.325,.012-.368,.332-1.569,1.504-1.588,2.74,.035,1.171,1.083,2.213,2.271,2.229Z"/>
  <path d="M12.014,6.226c1.16-.016,2.245-1.057,2.245-2.229,0-1.271-1.339-2.524-1.603-2.753-.382-.331-.949-.325-1.325,.012-.368,.332-1.569,1.504-1.588,2.74,.035,1.171,1.083,2.213,2.271,2.229Z"/>
</svg>
