<?xml version="1.0" encoding="UTF-8"?>
<svg xmlns="http://www.w3.org/2000/svg" id="Layer_1" data-name="Layer 1" viewBox="0 0 24 24">
  <path d="M18.436,18.173c-.15-.226-.385-.381-.651-.431-.058-.011-.116-.021-.175-.031l-1.973-9.623c.427-.114,.742-.503,.742-.966,0-.552-.447-1-1-1h-.126c.179-.548,.208-1.109,.207-1.555-.008-2.358-1.173-3.558-3.465-3.567-1.146-.027-1.979,.282-2.573,.875-.797,.796-.885,1.911-.882,2.68,.002,.597,.078,1.119,.228,1.567h-.147c-.553,0-1,.448-1,1,0,.463,.314,.852,.742,.966l-1.973,9.623c-.058,.01-.116,.021-.175,.031-.269,.05-.505,.207-.654,.435-.091,.139-.891,1.41-.891,3.129,0,.293,.023,.574,.062,.838,.072,.491,.493,.854,.989,.854h12.554c.494,0,.915-.361,.988-.85,.041-.267,.064-.549,.064-.843,0-1.734-.803-2.996-.894-3.134ZM10.54,4.548c-.002-.636,.097-1.06,.296-1.258,.238-.238,.744-.29,1.134-.29h.018c1.166,.004,1.469,.328,1.473,1.575,.002,.636-.097,1.059-.296,1.258-.242,.242-.763,.285-1.151,.29-1.166-.004-1.469-.328-1.473-1.574Zm-.143,3.574h3.205l1.903,9.284c-2.321-.256-4.69-.256-7.012,0l1.903-9.284Zm-3.713,12.878c.05-.575,.228-1.065,.368-1.375,3.247-.549,6.65-.548,9.897,0,.14,.307,.317,.793,.366,1.375H6.685Z"/>
</svg>
