<?xml version="1.0" encoding="UTF-8"?>
<svg xmlns="http://www.w3.org/2000/svg" id="Layer_1" data-name="Layer 1" viewBox="0 0 24 24">
  <path d="M23.094,9.125c.008-.169-.027-.338-.102-.49,0,0-1.788-3.637-2.343-4.738-.096-.19-.25-.345-.44-.441-1.088-.552-4.726-2.35-4.726-2.35-.152-.075-.322-.11-.493-.103-1.902,.093-3.832,.093-5.734,0-.172-.008-.34,.027-.493,.103,0,0-3.637,1.798-4.726,2.35-.19,.096-.344,.251-.44,.441-.556,1.101-2.343,4.738-2.343,4.738-.075,.152-.11,.321-.102,.49,.092,1.908,.092,3.844,0,5.752-.008,.169,.027,.338,.102,.49,0,0,1.788,3.637,2.343,4.738,.096,.19,.25,.345,.44,.441,1.088,.552,2.198,1.101,3.341,1.665l1.385,.685c.152,.076,.322,.111,.493,.103,1.902-.093,3.83-.015,5.734,0,.139,.001,.314,.001,.493-.103,0,0,3.637-1.798,4.726-2.35,.19-.096,.344-.251,.44-.441,.556-1.101,1.107-2.224,1.676-3.382l.667-1.356c.075-.152,.11-.321,.102-.49-.092-1.908-.092-3.844,0-5.752Zm-2.141-.104l-.1,.19c-.805,1.529-1.975,2.833-3.4,3.794l-4.33-1.739v-3.854c1.818-1.088,3.878-1.752,5.99-1.927l.092-.008c.438,.877,1.748,3.544,1.748,3.544ZM9.42,3.011c1.795,.079,3.612,.079,5.407,0,0,0,1.548,.765,1.743,.862-1.561,.374-3.065,.983-4.447,1.807-1.382-.824-2.885-1.433-4.447-1.807,.195-.096,1.743-.862,1.743-.862Zm-4.378,2.466l.092,.008c2.112,.175,4.171,.839,5.99,1.927v3.854l-4.33,1.738c-1.426-.962-2.596-2.266-3.4-3.794l-.1-.19s1.31-2.667,1.748-3.544Zm-1.879,9.236c.033-.742,.051-1.487,.057-2.232,.728,.843,1.567,1.586,2.497,2.209,.121,1.747,.532,3.46,1.209,5.066-.57-.283-1.133-.563-1.69-.845-.502-1.001-2.073-4.198-2.073-4.198Zm6.645,6.261l-.012-.019c-1.169-1.863-1.877-3.984-2.066-6.172l4.393-1.764,4.393,1.764c-.189,2.188-.897,4.309-2.066,6.172l-.012,.019c-.77-.029-1.543-.045-2.316-.045s-1.546,.016-2.316,.045Zm10.722-5.133c-.515,1.049-1.016,2.069-1.519,3.07-.557,.281-1.12,.562-1.69,.845,.677-1.606,1.088-3.319,1.209-5.066,.93-.622,1.769-1.366,2.497-2.209,.006,.746,.024,1.491,.057,2.232l-.555,1.128Z"/>
</svg>
