<?xml version="1.0" encoding="UTF-8"?>
<svg xmlns="http://www.w3.org/2000/svg" id="Layer_1" data-name="Layer 1" viewBox="0 0 24 24">
  <path d="M16.744,15.875c2.54-.4,6.256-1.583,6.256-3.875s-3.716-3.475-6.256-3.875c-.675-1.219-1.417-2.257-2.431-3.118h1.603c.553,0,1-.448,1-1s-.447-1-1-1c0,0-5.675,.002-5.679,.002-.306,.017-.595,.174-.774,.438-.057,.084-1.301,1.954-1.894,5.422h-.614c-.767-1.073-1.725-1.735-3.108-2.169-.36-.112-.754-.014-1.018,.258-.074,.077-1.83,1.922-1.83,5.042,0,3.162,1.763,4.975,1.838,5.051,.263,.265,.653,.361,1.009,.25,1.385-.434,2.343-1.096,3.109-2.169h.614c.593,3.468,1.837,5.338,1.894,5.422,.18,.266,.471,.422,.777,.438,.015,0,5.675,.002,5.675,.002,.553,0,1-.448,1-1s-.447-1-1-1h-1.602c1.013-.861,1.756-1.899,2.43-3.118Zm-7.319-1.87c-.063-.5-.489-.874-.992-.874h-2.017c-.352,0-.677,.184-.857,.485-.391,.651-.83,1.153-1.669,1.534-.371-.58-.89-1.659-.89-3.15s.518-2.564,.892-3.149c.837,.38,1.276,.883,1.667,1.533,.181,.301,.506,.485,.857,.485h2.017c.503,0,.929-.374,.992-.874,.295-2.316,.933-3.929,1.337-4.765,2.317,.901,3.387,2.236,4.455,4.278,.151,.291,.437,.489,.763,.529,3.233,.401,5.008,1.572,5.021,1.963-.013,.391-1.787,1.562-5.021,1.963-.326,.04-.611,.238-.763,.529-1.068,2.042-2.139,3.377-4.455,4.278-.404-.837-1.042-2.451-1.337-4.765Z"/>
</svg>
