<?xml version="1.0" encoding="UTF-8"?>
<svg xmlns="http://www.w3.org/2000/svg" id="Layer_1" data-name="Layer 1" viewBox="0 0 24 24">
  <path d="M22.203,10.511c-1.428-3.888-3.332-6.723-3.413-6.842-.112-.165-.271-.293-.456-.367-.11-.045-2.757-1.086-7.532-1.086S3.399,3.258,3.289,3.302c-.252,.102-.452,.302-.553,.554-.052,.128-1.272,3.184-1.585,6.968-.018,.167-.15,1.45-.15,3.131,0,1.981,.807,3.461,.841,3.522,.146,.264,.403,.447,.7,.5,.042,.008,.303,.053,.743,.12v.631c0,1.686,1.366,3.057,3.045,3.057s3.046-1.371,3.046-3.057v-.039c.837,.04,1.719,.064,2.626,.064s1.786-.024,2.623-.064v.039c0,1.686,1.366,3.057,3.046,3.057s3.045-1.371,3.045-3.057v-.631c.441-.066,.704-.112,.745-.12,.299-.053,.558-.238,.704-.505,.034-.062,.835-1.554,.835-3.518,0-1.75-.628-3.108-.797-3.443Zm-2.485-.837c-1.42-.184-3.588-.412-6.058-.488V4.358c1.883,.194,3.127,.537,3.649,.703,.405,.641,1.443,2.361,2.409,4.613ZM11.66,4.228v4.934c-1.05,.007-2.087,.045-3.069,.1V4.3c.669-.052,1.407-.085,2.211-.085,.295,0,.581,.004,.857,.012Zm-7.224,.795c.413-.126,1.139-.319,2.155-.485v4.865c-1.343,.112-2.493,.244-3.308,.347,.306-2.157,.878-3.947,1.152-4.727Zm2.94,13.704c0,.583-.469,1.057-1.046,1.057s-1.045-.474-1.045-1.057v-.37c.619,.07,1.323,.141,2.091,.203v.167Zm11.34,0c0,.583-.469,1.057-1.045,1.057s-1.046-.474-1.046-1.057v-.167c.768-.062,1.472-.132,2.091-.203v.37Zm1.877-2.637c-1.276,.194-4.743,.662-8.591,.662s-7.323-.468-8.595-.662c-.173-.449-.407-1.223-.407-2.137,0-.867,.039-1.629,.075-2.158,1.557-.206,5.229-.635,8.927-.635,3.858,0,7.32,.465,8.594,.658,.173,.449,.405,1.222,.405,2.135,0,.905-.233,1.684-.407,2.137Z"/>
</svg>
