<?xml version="1.0" encoding="UTF-8"?>
<svg xmlns="http://www.w3.org/2000/svg" id="Layer_1" data-name="Layer 1" viewBox="0 0 24 24">
  <path d="M21.438,9.858c-.093-1.297-.927-2.384-2.087-2.826-.962-3.986-3.749-6.015-8.293-6.032h-.057c-2.692,0-4.784,.727-6.219,2.162-1.596,1.596-2.365,4.011-2.353,7.385,.009,2.525,.369,4.946,2.094,6.61,.207,2.521,.676,4.215,.696,4.289,.092,.328,.344,.586,.669,.687,.116,.035,2.866,.868,6.11,.868s5.993-.833,6.109-.868c.326-.1,.58-.36,.671-.689,.018-.063,.407-1.487,.634-3.638,1.418-.871,2.053-1.998,2.112-3.088,.025-.492,.044-1.04,.044-1.624,0-.921-.044-2.009-.132-3.234Zm-4.456,10.507c-.908,.226-2.852,.635-4.982,.635s-4.077-.41-4.983-.635c-.092-.414-.218-1.048-.329-1.842,1.328,.536,3.06,.843,5.313,.843,2.173,0,3.914-.243,5.282-.646-.104,.701-.216,1.265-.3,1.645Zm2.546-5.756c-.051,.954-1.691,2.757-7.528,2.757-6.378,0-7.553-2.299-7.569-6.826-.003-.894,.053-1.7,.169-2.423,1.363,1.092,3.094,1.634,5.227,1.634,.985,0,2.058-.116,3.218-.346,.541-.108,.894-.634,.785-1.176-.108-.542-.627-.894-1.176-.786-4.476,.89-6.395-.318-7.422-1.471,.258-.545,.579-1.009,.965-1.395,1.061-1.061,2.631-1.576,4.802-1.576h.052c3.379,.013,5.376,1.284,6.214,3.984-1.188,.407-2.082,1.528-2.179,2.876-.088,1.228-.132,2.315-.132,3.232,0,.552,.447,1,1,1s1-.448,1-1c0-.871,.043-1.91,.126-3.09,.048-.658,.557-1.177,1.206-1.183,.602,.005,1.11,.524,1.158,1.181,.083,1.177,.126,2.217,.126,3.091,0,.546-.017,1.058-.042,1.516Z"/>
</svg>
