<?xml version="1.0" encoding="UTF-8"?>
<svg xmlns="http://www.w3.org/2000/svg" id="Layer_1" data-name="Layer 1" viewBox="0 0 24 24">
  <path d="M15.459,11.558c-.231-.202-.542-.286-.846-.228-.168,.032-.374,.049-.613,.049-1.052,0-1.379-.19-1.379-1.379,0-.231,.018-.436,.052-.609,.06-.302-.022-.614-.223-.847-.201-.232-.501-.358-.805-.346-2.292,.108-3.455,1.387-3.455,3.803,0,2.528,1.282,3.811,3.811,3.811,2.404,0,3.683-1.16,3.801-3.446,.016-.307-.11-.604-.342-.806Zm-3.459,2.252c-1.277,0-1.811-.251-1.811-1.811,0-.814,.144-1.264,.452-1.511,.116,1.317,.757,2.686,2.861,2.87-.263,.334-.725,.452-1.502,.452Z"/>
  <path d="M22,11h-2.267c-.121-1.791-.572-3.114-1.229-4.091l1.274-1.274c.391-.391,.391-1.023,0-1.414s-1.023-.391-1.414,0l-1.263,1.263c-1.222-.846-2.706-1.14-4.101-1.223V2c0-.552-.448-1-1-1s-1,.448-1,1v2.262c-1.395,.083-2.88,.377-4.101,1.223l-1.263-1.263c-.391-.391-1.023-.391-1.414,0s-.391,1.023,0,1.414l1.274,1.274c-.657,.976-1.108,2.3-1.229,4.091H2c-.552,0-1,.448-1,1s.448,1,1,1h2.267c.121,1.791,.572,3.114,1.229,4.091l-1.274,1.274c-.391,.391-.391,1.023,0,1.414,.195,.195,.451,.293,.707,.293s.512-.098,.707-.293l1.263-1.263c1.222,.846,2.706,1.14,4.101,1.223v2.262c0,.552,.448,1,1,1s1-.448,1-1v-2.262c1.395-.083,2.88-.377,4.101-1.223l1.263,1.263c.195,.195,.451,.293,.707,.293s.512-.098,.707-.293c.391-.391,.391-1.023,0-1.414l-1.274-1.274c.657-.976,1.108-2.3,1.229-4.091h2.267c.552,0,1-.448,1-1s-.448-1-1-1Zm-10,6.766c-3.56,0-5.766-.964-5.766-5.766s2.206-5.766,5.766-5.766,5.766,.964,5.766,5.766-2.206,5.766-5.766,5.766Z"/>
</svg>
