<?xml version="1.0" encoding="UTF-8"?>
<svg xmlns="http://www.w3.org/2000/svg" id="Layer_1" data-name="Layer 1" viewBox="0 0 24 24">
  <path d="M22.513,7.968l-.315-.489c-1.159-1.798-2.525-3.462-4.06-4.944l-.307-.297c-.507-.49-1.168-.793-1.86-.852-1.312-.112-2.646-.172-3.975-.177-1.32,.005-2.655,.065-3.967,.177-.692,.059-1.354,.362-1.86,.853l-.307,.296c-1.534,1.483-2.9,3.147-4.06,4.945l-.315,.489c-.662,1.028-.649,2.348,.033,3.362l.364,.543c2.333,3.466,4.96,6.771,7.808,9.822l.152,.163c.554,.593,1.335,.933,2.166,.933,.81,0,1.591-.34,2.145-.933l.153-.164c2.847-3.051,5.474-6.355,7.807-9.822l.364-.542c.683-1.015,.695-2.335,.033-3.363ZM15.801,3.379c.235,.02,.463,.125,.64,.296l.307,.298c1.425,1.376,2.692,2.921,3.769,4.59l.131,.203h-3.413c-.029-.253-.075-.5-.138-.732l-.135-.493c-.408-1.494-.878-2.897-1.399-4.181,.08,.006,.159,.012,.239,.019Zm-6.832,4.688c.465-1.701,1.011-3.272,1.623-4.67l.071-.163c.446-.015,.891-.023,1.333-.025,.446,.002,.893,.011,1.341,.025l.072,.164c.612,1.397,1.158,2.968,1.623,4.67l.135,.493c.018,.065,.033,.134,.047,.205h-6.426c.013-.071,.029-.14,.047-.205l.135-.494Zm-1.716-4.096l.307-.296c.177-.171,.404-.276,.64-.296,.079-.007,.159-.013,.239-.019-.521,1.285-.991,2.688-1.399,4.181l-.135,.493c-.063,.232-.109,.479-.138,.732H3.353l.131-.203c1.076-1.669,2.344-3.214,3.769-4.591Zm-3.702,6.794h3.343c.008,.029,.015,.058,.023,.087l.156,.547c.671,2.352,1.398,4.63,2.174,6.807-2.045-2.362-3.955-4.855-5.696-7.441Zm8.449,9.114c-1.09-2.822-2.099-5.855-3.004-9.028l-.024-.085h6.057l-.025,.086c-.904,3.173-1.914,6.207-3.004,9.028Zm4.928-8.48l.156-.548c.008-.028,.015-.057,.023-.086h3.342c-1.741,2.587-3.651,5.08-5.695,7.442,.776-2.177,1.504-4.455,2.174-6.807Z"/>
</svg>
