<?xml version="1.0" encoding="UTF-8"?>
<svg xmlns="http://www.w3.org/2000/svg" id="Layer_1" data-name="Layer 1" viewBox="0 0 24 24">
  <path d="M22.789,8.85c-.465-1.258-1.554-1.999-2.866-1.945-1.002,.032-2.005,.059-3.006,.079-.445,.038-.866-.284-1.004-.728-.297-.96-.595-1.919-.898-2.877-.408-1.301-1.591-2.142-3.013-2.142s-2.605,.841-3.013,2.141c-.304,.958-.602,1.917-.898,2.877-.138,.445-.54,.769-1.004,.729-1.002-.02-2.005-.046-2.996-.078-1.311-.052-2.414,.688-2.878,1.945-.507,1.372-.081,2.893,1.066,3.789,.812,.623,1.617,1.231,2.421,1.831,.382,.285,.529,.795,.367,1.27-.334,.979-.683,1.962-1.044,2.946-.492,1.301-.142,2.657,.892,3.453,1.09,.841,2.635,.828,3.847-.036l2.558-1.837c.414-.296,.95-.297,1.365,0l2.562,1.84c.613,.436,1.312,.655,1.994,.655,.664,0,1.312-.207,1.849-.621,1.033-.796,1.383-2.152,.895-3.445-.365-.992-.712-1.976-1.047-2.954-.163-.474-.015-.984,.366-1.269,.805-.601,1.611-1.209,2.429-1.837,1.14-.891,1.566-2.412,1.059-3.784Zm-2.284,2.202c-.804,.617-1.603,1.22-2.401,1.815-1.079,.807-1.506,2.221-1.062,3.52,.339,.992,.692,1.991,1.065,3.005,.182,.48,.094,.904-.241,1.163-.3,.23-.862,.348-1.458-.076l-2.561-1.839c-.553-.396-1.201-.595-1.848-.595s-1.295,.198-1.848,.594l-2.557,1.837c-.6,.427-1.163,.31-1.461,.078-.335-.258-.423-.682-.239-1.17,.37-1.006,.723-2.005,1.062-2.997,.444-1.299,.017-2.713-1.063-3.52-.797-.595-1.596-1.198-2.393-1.81-.522-.408-.584-1.054-.415-1.514,.092-.25,.347-.658,.926-.64,1.01,.032,2.021,.059,3.032,.08,1.348-.009,2.549-.832,2.955-2.137,.295-.957,.592-1.912,.895-2.868,.171-.547,.684-.742,1.105-.742s.934,.195,1.105,.742c0,0,0,.001,0,.002,.302,.954,.599,1.909,.895,2.867,.405,1.304,1.574,2.139,2.955,2.136,1.01-.021,2.021-.047,3.043-.08,.566-.034,.821,.389,.914,.64,.17,.46,.107,1.107-.408,1.509Z"/>
</svg>
