<?xml version="1.0" encoding="UTF-8"?>
<svg xmlns="http://www.w3.org/2000/svg" id="Layer_1" data-name="Layer 1" viewBox="0 0 24 24">
  <path d="M22.776,12.763c-.063-.389-.349-.705-.729-.806-.011-.003-.038-.01-.079-.021-.036-5.23-1.954-9.066-2.036-9.229-.107-.211-.286-.377-.505-.469-.12-.05-3.003-1.238-7.428-1.238s-7.305,1.187-7.426,1.237c-.22,.092-.4,.26-.508,.474-.082,.164-1.998,4.037-2.034,9.224-.041,.01-.068,.018-.079,.021-.381,.102-.667,.418-.729,.808-.007,.045-.179,1.132-.179,2.568,0,1.449,.172,2.525,.18,2.57,.068,.423,.398,.755,.82,.826,.043,.007,.308,.052,.755,.115v.96c0,1.763,1.441,3.197,3.213,3.197s3.213-1.434,3.213-3.197v-.364c.884,.04,1.816,.065,2.775,.065s1.89-.025,2.774-.065v.364c0,1.763,1.441,3.197,3.214,3.197s3.213-1.434,3.213-3.197v-.96c.446-.064,.711-.108,.754-.115,.423-.071,.754-.405,.821-.828,.008-.045,.179-1.132,.179-2.568,0-1.449-.172-2.524-.179-2.569ZM5.696,3.956c.846-.287,3.156-.956,6.304-.956s5.466,.67,6.307,.956c.42,.964,1.542,3.862,1.654,7.54-1.855-.355-4.759-.783-7.961-.783s-6.103,.429-7.96,.784c.113-3.65,1.235-6.567,1.656-7.54Zm-2.581,12.911c-.036-.396-.07-.93-.07-1.535,0-.635,.038-1.196,.077-1.6,1.416-.32,4.959-1.02,8.879-1.02s7.466,.7,8.879,1.02c.038,.401,.076,.961,.076,1.6,0,.601-.034,1.137-.07,1.534-1.479,.208-4.997,.638-8.885,.638s-7.409-.429-8.885-.637Z"/>
  <g>
    <circle cx="8.01" cy="15.109" r=".999"/>
    <circle cx="15.99" cy="15.109" r=".999"/>
  </g>
</svg>
