<?xml version="1.0" encoding="UTF-8"?>
<svg xmlns="http://www.w3.org/2000/svg" id="Layer_1" data-name="Layer 1" viewBox="0 0 24 24">
  <path d="M22.699,6.337L17.658,1.293c-.391-.391-1.024-.39-1.415,0-.391,.391-.391,1.023,0,1.415l1.814,1.815-1.105,1.105c-1.333-1.04-2.707-1.488-2.775-1.51-.195-.063-.404-.065-.6-.003-.097,.03-2.416,.771-5.771,4.129-3.334,3.339-4.09,5.676-4.124,5.784-.019,.064-.471,1.579-.513,3.091-.029,1.044,.015,1.784,.061,2.242l-1.931,1.933c-.39,.391-.39,1.024,0,1.415,.195,.195,.451,.292,.707,.292s.512-.098,.708-.293l1.931-1.932c.356,.036,.884,.08,1.593,.071,2.441-.031,3.67-.503,3.743-.525,.098-.031,2.433-.788,5.768-4.127,3.354-3.359,4.094-5.68,4.124-5.777,.062-.202,.059-.418-.01-.619-.024-.07-.508-1.455-1.502-2.751l1.109-1.109,1.813,1.814c.195,.195,.452,.293,.708,.293s.512-.098,.707-.292c.391-.391,.391-1.023,0-1.415ZM14.335,14.78c-2.94,2.943-4.938,3.627-4.939,3.628-.013,.004-1.498,.59-4.202,.405-.026-.387-.044-.933-.024-1.639,.034-1.237,.424-2.552,.423-2.552,.002-.006,.07-.207,.254-.57l.783,.783c.195,.195,.452,.293,.708,.293s.512-.098,.707-.292c.391-.391,.391-1.024,0-1.415l-1.112-1.113c.287-.396,.631-.834,1.041-1.31l1.245,1.246c.195,.195,.452,.293,.708,.293s.512-.098,.707-.292c.391-.391,.391-1.023,0-1.415l-1.291-1.292c.429-.424,.836-.799,1.219-1.131l1.246,1.247c.195,.195,.452,.293,.708,.293s.512-.098,.707-.292c.391-.391,.391-1.023,0-1.415l-1.075-1.076c.809-.565,1.408-.873,1.736-1.021,.515,.213,1.561,.715,2.402,1.558,.806,.807,1.329,1.884,1.557,2.419-.299,.66-1.215,2.366-3.507,4.66Z"/>
</svg>
