<?xml version="1.0" encoding="UTF-8"?>
<svg xmlns="http://www.w3.org/2000/svg" id="Layer_1" data-name="Layer 1" viewBox="0 0 24 24">
  <path d="M21.561,14.653c0-1.897-.32-3.398-.451-3.934V4.445c0-.802-.35-1.56-.958-2.081-.648-.555-1.515-.792-2.389-.658-.514,.088-1.063-.019-1.546-.298-.944-.544-2.072-.546-3.019,0-.749,.434-1.636,.434-2.384,0-.945-.545-2.074-.546-3.02,0-.482,.278-1.009,.389-1.552,.296-.864-.133-1.735,.104-2.382,.659-.609,.521-.958,1.279-.958,2.081v6.272c-.135,.541-.463,2.052-.463,3.936,0,1.699,.26,3.075,.422,3.769-.12,.349-.185,.723-.185,1.112,0,1.911,1.57,3.466,3.501,3.466,1.777,0,3.248-1.317,3.471-3.017,.8,.03,1.59,.046,2.357,.046,.761,0,1.547-.015,2.346-.045,.223,1.7,1.695,3.017,3.472,3.017,1.93,0,3.5-1.555,3.5-3.466,0-.383-.063-.751-.179-1.095,.147-.64,.417-2.05,.417-3.786ZM5.161,3.884c.203-.174,.485-.25,.768-.203,.768,.122,1.59,.025,2.336-.28v3.402c0,.553,.448,1,1,1s1-.447,1-1V3.366c1.105,.477,2.378,.477,3.484,0v3.437c0,.553,.447,1,1,1s1-.447,1-1V3.399c.754,.306,1.587,.402,2.33,.282,.287-.047,.57,.028,.772,.202,.118,.101,.259,.28,.259,.562v5.215c-1.44-.152-4.113-.382-7.104-.382s-5.662,.23-7.104,.382V4.445c0-.281,.141-.461,.258-.562Zm1.017,17.116c-.828,0-1.501-.657-1.501-1.466s.673-1.465,1.501-1.465,1.5,.657,1.5,1.465-.673,1.466-1.5,1.466Zm3.121-3.033c-.579-1.125-1.761-1.897-3.121-1.897-.587,0-1.141,.144-1.627,.398-.063-.525-.111-1.142-.111-1.814,0-1.25,.167-2.321,.295-2.962,1.26-.141,4.115-.413,7.271-.413s6.009,.272,7.27,.412c.125,.636,.285,1.697,.285,2.963,0,.67-.047,1.288-.109,1.815-.487-.254-1.041-.399-1.629-.399-1.361,0-2.543,.773-3.122,1.898-1.835,.083-3.578,.082-5.403,0Zm8.525,3.033c-.827,0-1.501-.657-1.501-1.466s.674-1.465,1.501-1.465,1.5,.657,1.5,1.465-.673,1.466-1.5,1.466Z"/>
</svg>
