<?xml version="1.0" encoding="UTF-8"?>
<svg xmlns="http://www.w3.org/2000/svg" id="Layer_1" data-name="Layer 1" viewBox="0 0 24 24">
  <path d="M19.998,15.968l.499-10.658c.041-.883,.561-1.667,1.357-2.046l.576-.275c.499-.237,.71-.834,.473-1.332-.237-.5-.833-.707-1.333-.474l-.576,.275c-1.463,.697-2.419,2.138-2.495,3.758l-.516,11.013c-.19,.086-.372,.189-.542,.307-1.341,.565-3.926,1.562-6.596,2.079-2.413,.466-5.276,.596-7.072,.627-.073-.367-.151-.765-.165-.845-.496-2.815-.458-5.201-.407-6.238,.359-.162,.892-.391,1.554-.645,.382,1.366,.912,2.265,.938,2.31,.183,.306,.511,.487,.859,.487,.063,0,.126-.006,.19-.019l6.981-1.353c.414-.08,.733-.411,.798-.828,.008-.052,.164-1.091,.012-2.491,.381-.006,.76-.007,1.134,0,.546-.019,1.009-.428,1.02-.98,.011-.552-.428-1.009-.98-1.02-.519-.009-1.048-.007-1.58,.008-.373-1.233-.845-2.032-.869-2.074-.173-.289-.48-.472-.816-.486-.073-.003-1.825-.072-3.797,.311-1.968,.381-3.571,1.1-3.639,1.13-.308,.139-.525,.424-.577,.759-.008,.048-.146,.97-.036,2.246-1.557,.576-2.551,1.073-2.598,1.096-.305,.153-.511,.452-.546,.791-.014,.133-.325,3.287,.389,7.342,.01,.058,.053,.279,.104,.538-.404,.115-.732,.488-.742,.939-.013,.553,.423,1.011,.976,1.024,.049,0,.359,.008,.858,.008,1.636,0,5.298-.075,8.392-.674,1.694-.328,3.348-.834,4.707-1.315-.002,.05-.003,.099-.003,.15,0,1.929,1.564,3.493,3.493,3.493s3.493-1.564,3.493-3.493c0-1.733-1.262-3.171-2.918-3.446ZM6.361,8.116c.577-.221,1.564-.561,2.664-.773,1.102-.213,2.143-.267,2.759-.277,.203,.446,.486,1.172,.655,2.051,.153,.794,.173,1.512,.158,2.007l-5.485,1.062c-.197-.451-.444-1.122-.598-1.921-.168-.874-.175-1.655-.152-2.148Zm13.062,12.79c-.824,0-1.492-.668-1.492-1.492s.668-1.492,1.492-1.492,1.492,.668,1.492,1.492-.668,1.492-1.492,1.492Z"/>
</svg>
