<?xml version="1.0" encoding="UTF-8"?>
<svg xmlns="http://www.w3.org/2000/svg" id="Layer_1" data-name="Layer 1" viewBox="0 0 24 24">
  <path d="M23,7.776c0-1.954-1.532-4.139-3.582-4.139-.192,0-.384,.016-.572,.046-.563-1.264-1.826-2.14-3.27-2.14-.671,0-1.326,.193-1.89,.545-.563-.353-1.218-.545-1.89-.545-1.443,0-2.706,.876-3.269,2.14-.189-.031-.38-.046-.573-.046-2.05,0-3.582,2.185-3.582,4.139,0,1.998,.629,3.023,1.196,3.541-.65,1.269-1.018,2.709-1.018,4.234v2.525c-.649-.363-1.189-.671-1.551-.879v-3.354c0-.991,.194-1.951,.576-2.854,.215-.508-.022-1.095-.531-1.311-.507-.215-1.095,.023-1.311,.531-.487,1.15-.734,2.373-.734,3.633v3.933c0,.355,.189,.685,.497,.864,0,0,1.57,.914,3.559,2.001,.42,.257,3.191,1.814,8.631,1.814,5.775,0,8.564-1.769,8.681-1.844,.284-.185,.455-.5,.455-.839v-4.221c0-1.525-.368-2.965-1.018-4.234,.57-.518,1.196-1.542,1.196-3.542Zm-16.627,0c0-1.02,.828-2.139,1.582-2.139,.27,0,.536,.071,.77,.205,.299,.17,.665,.175,.968,.014,.304-.163,.502-.47,.526-.813,.058-.84,.751-1.499,1.578-1.499,.441,0,.851,.182,1.154,.511,.379,.411,1.092,.411,1.471,0,.304-.329,.714-.511,1.154-.511,.826,0,1.52,.658,1.577,1.499,.024,.343,.223,.65,.526,.813,.304,.162,.67,.157,.968-.014,.237-.136,.497-.205,.771-.205,.754,0,1.582,1.119,1.582,2.139,0,.977-.179,1.517-.346,1.808-1.677-1.999-4.178-3.27-6.967-3.27s-5.289,1.27-6.966,3.269c-.167-.294-.347-.835-.347-1.807Zm14.449,11.392c-.929,.428-3.272,1.287-7.136,1.287s-6.216-.859-7.135-1.285v-3.618c0-3.99,3.201-7.237,7.135-7.237s7.136,3.247,7.136,7.237v3.616Z"/>
  <g>
    <circle cx="16.49" cy="14.252" r="1.001"/>
    <circle cx="18.53" cy="17.439" r="1.001"/>
    <circle cx="14.7" cy="17.439" r="1.001"/>
  </g>
</svg>
