<?xml version="1.0" encoding="UTF-8"?>
<svg xmlns="http://www.w3.org/2000/svg" id="Layer_1" data-name="Layer 1" viewBox="0 0 24 24">
  <path d="M6.437,8.167h11.127c.553,0,1-.448,1-1s-.447-1-1-1H6.437c-.553,0-1,.448-1,1s.447,1,1,1Z"/>
  <path d="M6.437,4.465h11.127c.553,0,1-.448,1-1s-.447-1-1-1H6.437c-.553,0-1,.448-1,1s.447,1,1,1Z"/>
  <path d="M22.708,10.036c-.188-.188-.442-.295-.709-.295h-5.955c-.517,0-.948,.394-.996,.908-.049,.534-.132,1.071-.246,1.604-1.863,.4-3.74,.4-5.604,0-.114-.533-.197-1.07-.246-1.604-.048-.514-.479-.908-.996-.908H2.001c-.267,0-.521,.106-.709,.295-.188,.189-.293,.445-.291,.711,.031,4.996,1.145,8.766,1.191,8.924,.1,.332,.363,.588,.697,.678,.179,.048,4.436,1.185,9.11,1.185,4.837,0,8.947-1.139,9.12-1.188,.329-.093,.588-.347,.687-.674,.048-.157,1.161-3.9,1.192-8.926,.002-.267-.103-.522-.291-.711Zm-2.673,8.524c-1.242,.298-4.458,.975-8.035,.975-3.459,0-6.762-.683-8.036-.98-.268-1.07-.822-3.627-.941-6.814H7.072c.081,.534,.191,1.067,.328,1.594,.091,.351,.365,.625,.716,.716,2.578,.671,5.189,.671,7.768,0,.351-.091,.625-.365,.716-.716,.137-.527,.247-1.06,.328-1.594h4.05c-.118,3.197-.675,5.754-.942,6.819Z"/>
</svg>
