<?xml version="1.0" encoding="UTF-8"?>
<svg xmlns="http://www.w3.org/2000/svg" id="Layer_1" data-name="Layer 1" viewBox="0 0 24 24">
  <path d="M16.88,18.45c.325-.104,.574-.367,.661-.696,.035-.133,.861-3.304,.861-7.532,0-1.194-.066-2.417-.197-3.636-.024-.228-.126-.441-.289-.603L13.343,1.438c-.159-.158-.367-.258-.589-.284-.874-.102-1.731-.153-2.548-.153-3.538,0-6.547,.953-6.674,.994-.325,.104-.574,.367-.661,.697-.035,.133-.861,3.304-.861,7.532,0,4.264,.826,7.403,.862,7.534,.087,.328,.336,.589,.659,.693,.126,.041,3.129,.995,6.675,.995s6.547-.954,6.674-.994ZM4.01,10.222c0-2.973,.445-5.428,.669-6.476,.971-.256,3.141-.747,5.527-.747,.486,0,.989,.021,1.503,.061,.252,2.001,.599,3.091,.615,3.14,.094,.29,.315,.521,.6,.628,.058,.022,1.327,.492,3.37,.783,.072,.877,.109,1.751,.109,2.609,0,2.973-.445,5.428-.669,6.475-.971,.256-3.141,.747-5.527,.747s-4.56-.491-5.528-.747c-.224-1.041-.668-3.48-.668-6.476Z"/>
  <path d="M21.871,7.223c-.044-.55-.519-.959-1.076-.918-.551,.043-.962,.525-.918,1.076,.075,.95,.113,1.9,.113,2.825,0,3.586-.5,8.146-.71,9.904-1.707,.266-6.035,.89-9.073,.89-.875,0-1.79-.053-2.72-.157-.542-.064-1.044,.333-1.105,.882-.062,.549,.333,1.043,.882,1.105,1.004,.113,1.994,.17,2.943,.17,4.013,0,9.893-.994,10.141-1.036,.432-.074,.766-.42,.823-.855,.034-.253,.819-6.253,.819-10.903,0-.977-.04-1.98-.119-2.982Z"/>
</svg>
