<?xml version="1.0" encoding="UTF-8"?>
<svg xmlns="http://www.w3.org/2000/svg" id="Layer_1" data-name="Layer 1" viewBox="0 0 24 24">
  <path d="M16.354,8.624c2.751,0,3.329-1.816,3.329-3.34s-.578-3.34-3.329-3.34-3.329,1.816-3.329,3.34,.578,3.34,3.329,3.34Zm0-4.68c1.014,0,1.329,.185,1.329,1.34s-.315,1.34-1.329,1.34-1.329-.185-1.329-1.34,.315-1.34,1.329-1.34Z"/>
  <path d="M12.833,11.628c.44-.333,.528-.96,.195-1.401-1.571-2.079-3.109-3.313-3.174-3.365-.37-.295-.895-.289-1.26,.011-.236,.196-5.812,4.879-7.571,12.899-.112,.508,.185,1.017,.682,1.17,2.062,.636,4.188,1.01,6.32,1.112,.016,0,.032,0,.049,0,.53,0,.972-.417,.998-.952,.026-.552-.399-1.02-.951-1.047-1.654-.079-3.306-.336-4.922-.766,1.423-5.311,4.68-8.951,6.048-10.298,.541,.509,1.358,1.345,2.186,2.44,.333,.441,.959,.528,1.401,.195Z"/>
  <path d="M22.977,20.073c-1.254-5.719-5.243-9.065-5.412-9.205-.37-.306-.904-.305-1.274,0-.169,.14-4.152,3.486-5.406,9.205-.112,.508,.185,1.017,.682,1.17,1.754,.541,3.559,.812,5.364,.812s3.609-.271,5.364-.812c.497-.153,.794-.662,.682-1.17Zm-9.905-.488c.943-3.239,2.859-5.535,3.857-6.566,1,1.031,2.918,3.327,3.861,6.566-2.542,.625-5.177,.625-7.718,0Z"/>
</svg>
