<?xml version="1.0" encoding="UTF-8"?>
<svg xmlns="http://www.w3.org/2000/svg" id="Layer_1" data-name="Layer 1" viewBox="0 0 24 24">
  <path d="M22.707,8.579c-.1-.325-.358-.578-.686-.67-.043-.012-1.091-.275-2.34-.27-.23-2.437-.641-4.05-.665-4.143-.077-.296-.285-.541-.564-.665-.122-.054-3.023-1.317-6.452-1.317s-6.329,1.263-6.451,1.317c-.281,.124-.49,.37-.566,.667-.024,.093-.433,1.715-.663,4.14-1.249-.006-2.298,.259-2.341,.271-.328,.092-.586,.345-.686,.67-.012,.039-.293,.97-.293,2.203,0,1.223,.28,2.161,.292,2.2,.099,.327,.358,.581,.687,.673,.042,.012,1.032,.286,2.185,.286l.142,.002c.228,2.507,.654,4.166,.678,4.26,.086,.328,.332,.591,.654,.697,.01,.003,.042,.014,.093,.03v.929c0,1.45,1.178,2.629,2.626,2.629s2.627-1.179,2.627-2.629v-.014c.332,.017,.671,.027,1.016,.027s.684-.01,1.016-.027v.014c0,1.45,1.178,2.629,2.627,2.629s2.626-1.179,2.626-2.629v-.929c.05-.016,.082-.026,.092-.029,.323-.106,.57-.37,.655-.7,.025-.095,.448-1.764,.676-4.257l.143-.002c1.153,0,2.144-.274,2.185-.286,.329-.092,.588-.346,.687-.673,.012-.04,.292-.978,.292-2.2,0-1.233-.281-2.164-.293-2.203Zm-9.753,4.371v-4.272h4.804c.047,.681,.077,1.414,.077,2.184,0,.733-.027,1.434-.071,2.088h-4.81Zm-6.719,0c-.043-.653-.07-1.354-.07-2.088,0-.768,.03-1.501,.077-2.184h4.712v4.272H6.235ZM12,3.514c2.259,0,4.31,.647,5.19,.969,.096,.458,.241,1.218,.368,2.194H6.443c.128-.974,.271-1.736,.367-2.195,.879-.322,2.923-.968,5.189-.968ZM4.164,11.94c-.401,0-.782-.045-1.076-.093-.046-.282-.088-.652-.088-1.065s.042-.785,.087-1.065c.301-.049,.681-.087,1.101-.087-.015,.399-.023,.81-.023,1.231,0,.369,.006,.729,.018,1.079h-.019Zm2.632,5.213c-.099-.473-.242-1.235-.366-2.204h1.651v.657c0,.552,.448,1,1,1s1-.448,1-1v-.657h3.838v.657c0,.552,.448,1,1,1s1-.448,1-1v-.657h1.649c-.125,.967-.267,1.73-.366,2.205-.928,.25-2.957,.716-5.202,.716s-4.274-.467-5.204-.717Zm14.116-5.307c-.294,.048-.675,.093-1.076,.093h-.019c.011-.35,.018-.711,.018-1.079,0-.422-.008-.833-.023-1.231,.419,0,.799,.037,1.1,.087,.046,.281,.087,.65,.087,1.065s-.042,.783-.088,1.065Z"/>
</svg>
