<?xml version="1.0" encoding="UTF-8"?>
<svg xmlns="http://www.w3.org/2000/svg" id="Layer_1" data-name="Layer 1" viewBox="0 0 24 24">
  <path d="M9.995,15.458l5.435-5.512c.388-.393,.383-1.026-.01-1.414-.394-.389-1.027-.383-1.414,.01l-5.435,5.512c-.388,.393-.383,1.026,.01,1.414,.195,.192,.449,.288,.702,.288,.258,0,.517-.1,.712-.298Z"/>
  <path d="M20.755,3.14C17.47-.193,13.572,.378,8.49,4.934c-.411,.369-.446,1.001-.077,1.412,.369,.411,1,.445,1.412,.077,5.297-4.751,7.699-3.711,9.506-1.879,1.818,1.844,2.852,4.292-1.852,9.681-.363,.416-.32,1.048,.096,1.411,.19,.166,.424,.247,.657,.247,.279,0,.556-.116,.754-.342,4.545-5.208,5.09-9.032,1.769-12.4Z"/>
  <path d="M14.174,17.577c-5.298,4.752-7.699,3.71-9.506,1.879-1.818-1.843-2.852-4.292,1.852-9.681,.363-.417,.32-1.048-.096-1.411s-1.047-.321-1.411,.096C.468,13.667-.077,17.491,3.245,20.86c1.397,1.417,2.904,2.128,4.565,2.128,2.248,0,4.778-1.302,7.699-3.922,.411-.369,.446-1.001,.077-1.412-.369-.412-1.001-.446-1.412-.077Z"/>
</svg>
