<?xml version="1.0" encoding="UTF-8"?>
<svg xmlns="http://www.w3.org/2000/svg" id="Layer_1" data-name="Layer 1" viewBox="0 0 24 24">
  <path d="M21.787,5.21c-.117-.314-.385-.549-.712-.625,0,0-.312-.073-.868-.179-.097-.857-.299-1.439-.328-1.52-.114-.317-.381-.555-.709-.633-.051-.012-1.265-.297-2.689-.297s-2.638,.285-2.688,.297c-.33,.078-.598,.318-.711,.637-.017,.044-.109,.312-.199,.735-.582-.014-1.182-.014-1.764,0-.09-.425-.184-.693-.2-.737-.114-.317-.381-.556-.709-.634-.051-.012-1.266-.297-2.689-.297s-2.638,.285-2.689,.297c-.329,.079-.597,.318-.711,.637-.011,.033-.224,.638-.325,1.517-.556,.106-.869,.179-.869,.179-.328,.076-.597,.312-.713,.629-.05,.134-1.212,3.344-1.212,7.615,0,4.308,1.164,7.485,1.213,7.619,.117,.315,.385,.55,.712,.625,.171,.04,4.251,.971,9.075,.971s8.902-.931,9.074-.971c.329-.076,.598-.312,.714-.629,.05-.134,1.212-3.344,1.212-7.615,0-4.308-1.164-7.485-1.213-7.619Zm-1.711,14.028c-1.252,.247-4.49,.806-8.076,.806s-6.829-.56-8.078-.806c-.305-1.014-.922-3.435-.922-6.41,0-2.953,.619-5.39,.924-6.411,.252-.05,.586-.112,.986-.181,.478-.082,.828-.493,.832-.978,.004-.459,.063-.868,.125-1.169,.824-.13,2.473-.13,3.306,0,.037,.183,.073,.406,.098,.656,.05,.532,.509,.92,1.04,.905,1.098-.05,2.281-.05,3.379,0,.532,.016,.989-.373,1.04-.905,.024-.25,.061-.473,.099-.656,.831-.131,2.477-.13,3.306,0,.061,.3,.12,.707,.124,1.168,.004,.484,.354,.896,.832,.978,.401,.068,.735,.131,.988,.181,.304,1.013,.922,3.435,.922,6.411,0,2.953-.619,5.389-.924,6.41Z"/>
  <path d="M9.181,9.563h-3.063c-.553,0-1,.448-1,1s.447,1,1,1h3.063c.553,0,1-.448,1-1s-.447-1-1-1Z"/>
  <path d="M17.883,9.563h-.532v-.532c0-.552-.447-1-1-1s-1,.448-1,1v.532h-.531c-.553,0-1,.448-1,1s.447,1,1,1h.531v.532c0,.552,.447,1,1,1s1-.448,1-1v-.532h.532c.553,0,1-.448,1-1s-.447-1-1-1Z"/>
</svg>
