<?xml version="1.0" encoding="UTF-8"?>
<svg xmlns="http://www.w3.org/2000/svg" id="Layer_1" data-name="Layer 1" viewBox="0 0 24 24">
  <path d="M21.466,2.418c-1.635-1.64-4.213-1.884-6.126-.583l-.037,.025c-3.413,2.32-6.164,5.515-7.954,9.238l-.855,1.779-.462,.292c-1.422,.898-2.637,2.102-3.551,3.512-.357-.137-.777-.062-1.066,.226-.391,.39-.391,1.023,0,1.414l4.167,4.173c.195,.196,.451,.293,.708,.293s.511-.098,.707-.292c.286-.285,.362-.701,.231-1.056,1.452-.94,2.682-2.199,3.59-3.681l.214-.349,1.725-.828c3.754-1.802,6.97-4.582,9.299-8.04,1.291-1.915,1.043-4.49-.587-6.124ZM5.853,19.937l-1.876-1.879c.773-1.292,1.847-2.394,3.121-3.198l.028-.018,1.938,1.942c-.807,1.291-1.911,2.373-3.212,3.152ZM20.395,7.425c-2.131,3.163-5.073,5.706-8.506,7.354l-1.352,.648-2.059-2.063,.673-1.399c1.638-3.406,4.154-6.329,7.278-8.453l.035-.023c1.119-.762,2.627-.619,3.586,.342,.957,.958,1.102,2.47,.345,3.594Z"/>
  <path d="M18.47,16.127c-.794,0-1.55,.371-2.312,1.134-1.05,1.051-1.902,2.704,0,4.606,.761,.762,1.51,1.133,2.292,1.133h0c.793,0,1.55-.371,2.312-1.134,1.05-1.051,1.902-2.704,.001-4.606-.761-.762-1.51-1.132-2.292-1.133Zm.875,4.326c-.352,.353-.671,.547-.896,.547-.22,0-.515-.184-.877-.546-.688-.689-.771-1.006,0-1.78,.353-.353,.671-.547,.897-.547,.22,0,.515,.184,.876,.546,.688,.689,.771,1.006-.001,1.78Z"/>
</svg>
