<?xml version="1.0" encoding="UTF-8"?>
<svg xmlns="http://www.w3.org/2000/svg" id="Layer_1" data-name="Layer 1" viewBox="0 0 24 24">
  <path d="M17.784,15.728c-.052-2.804-2.643-5.106-5.777-5.132-.935-.006-1.812-.373-2.403-1.003-.489-.521-.737-1.176-.699-1.842,.099-1.649,1.547-3.103,3.091-3.109,1.255,.005,2.493,.978,2.942,2.311,.176,.523,.742,.805,1.267,.628,.523-.177,.805-.744,.628-1.267-.61-1.808-2.109-3.163-3.833-3.556v-.757c0-.552-.448-1-1-1s-1,.448-1,1v.757c-2.171,.497-3.952,2.531-4.092,4.877-.069,1.221,.37,2.402,1.237,3.326,.965,1.029,2.368,1.625,3.847,1.635,2.06,.017,3.761,1.439,3.792,3.165,.011,.818-.375,1.688-1.06,2.389-.745,.761-1.741,1.203-2.716,1.211-.992-.008-1.987-.45-2.732-1.211-.685-.7-1.071-1.571-1.06-2.389,.007-.552-.434-1.006-.986-1.014h-.014c-.545,0-.992,.438-1,.986-.019,1.346,.576,2.736,1.63,3.814,.869,.888,1.979,1.486,3.154,1.712v.742c0,.552,.448,1,1,1s1-.448,1-1v-.74c1.17-.225,2.283-.823,3.154-1.713,1.055-1.078,1.649-2.468,1.63-3.819Z"/>
</svg>
