<?xml version="1.0" encoding="UTF-8"?>
<svg xmlns="http://www.w3.org/2000/svg" id="Layer_1" data-name="Layer 1" viewBox="0 0 24 24">
  <path d="M18.544,17.91c-.146-.236-.383-.4-.655-.455-.037-.007-.075-.014-.112-.022l-1.86-8.79h.2c.552,0,1-.448,1-1,0-.488-.35-.894-.812-.982,.61-2.841,.607-2.927,.601-3.07-.02-.472-.366-.865-.831-.944-.617-.105-1.847-.243-3.075-.298v-.349c0-.552-.448-1-1-1s-1,.448-1,1v.348c-1.266,.056-2.484,.2-3.064,.299-.467,.079-.814,.475-.832,.948-.005,.142-.008,.226,.594,3.066-.464,.087-.815,.494-.815,.983,0,.552,.448,1,1,1h.206l-1.861,8.789c-.039,.008-.078,.015-.117,.023-.273,.055-.512,.221-.657,.458-.037,.059-.888,1.47-.888,3.332,0,.312,.023,.61,.062,.891,.068,.495,.491,.864,.991,.864h12.762c.499,0,.921-.368,.99-.862,.04-.282,.063-.581,.063-.893,0-1.877-.854-3.277-.89-3.336ZM12,4.325c.898,0,1.924,.075,2.721,.16-.123,.592-.291,1.378-.458,2.159h-4.524c-.166-.781-.33-1.568-.452-2.159,.793-.085,1.808-.16,2.713-.16Zm-1.866,4.319h3.739l1.789,8.456c-2.422-.293-4.896-.293-7.318,0l1.79-8.455Zm-3.56,12.356c.041-.708,.249-1.311,.406-1.674,3.296-.595,6.749-.595,10.043,0,.157,.362,.364,.962,.405,1.674H6.573Z"/>
</svg>
