<?xml version="1.0" encoding="UTF-8"?>
<svg xmlns="http://www.w3.org/2000/svg" id="Layer_1" data-name="Layer 1" viewBox="0 0 24 24">
  <path d="M20.881,7.611c.081-.363,.121-.734,.121-1.109,0-2.826-2.291-5.125-5.106-5.125-.981,0-1.927,.279-2.738,.799-1.019-.855-2.34-1.283-3.691-1.154-2.5,.232-4.407,2.274-4.555,4.722-2.244,.607-3.8,2.769-3.579,5.168,.12,1.299,.736,2.474,1.736,3.308,.81,.676,1.795,1.063,2.828,1.121l1.754,5.865c.037,.123,.097,.238,.177,.338,.119,.149,1.244,1.457,4.013,1.457,2.549,0,3.817-1.247,3.953-1.389,.109-.114,.19-.254,.236-.405l1.426-4.754c.078,.004,.155,.006,.233,.006,2.757,0,5-2.243,5-5,0-1.492-.677-2.905-1.808-3.847Zm-6.682,12.734c-.312,.224-1.078,.654-2.359,.654-1.397,0-2.103-.428-2.348-.617l-1.386-4.635c.809,.57,1.748,.934,2.738,1.054v1.443c0,.553,.448,1,1,1s1-.447,1-1v-1.534c.802-.173,1.56-.508,2.231-.99,.143,.087,.289,.167,.439,.24l-1.315,4.385Zm3.489-5.888c-.732,0-1.438-.267-1.985-.752-.388-.344-.977-.332-1.353,.025-.755,.719-1.742,1.114-2.779,1.114-1.196,0-2.325-.53-3.096-1.454-.195-.232-.478-.358-.768-.358-.133,0-.267,.026-.395,.082-.274,.117-.566,.191-.866,.22-.76,.073-1.506-.16-2.096-.652-.59-.492-.955-1.187-1.026-1.955-.121-1.317,.662-2.512,1.876-2.966,.287,.801,.774,1.52,1.428,2.091,.19,.166,.424,.247,.658,.247,.279,0,.556-.116,.753-.342,.363-.416,.321-1.048-.095-1.411-.592-.517-.957-1.233-1.03-2.018-.154-1.674,1.074-3.161,2.737-3.315,1.009-.093,1.998,.325,2.638,1.122,.175,.219,.434,.354,.713,.372,.277,.014,.555-.081,.757-.274,.579-.553,1.338-.856,2.136-.856,1.713,0,3.106,1.402,3.106,3.125,0,.394-.072,.778-.216,1.146-.179,.456,0,.976,.424,1.225,.912,.538,1.479,1.529,1.479,2.586,0,1.654-1.346,3-3,3Z"/>
</svg>
