<?xml version="1.0" encoding="UTF-8"?>
<svg xmlns="http://www.w3.org/2000/svg" id="Layer_1" data-name="Layer 1" viewBox="0 0 24 24">
  <path d="M5.469,12.965c-2.965,0-4.469,1.507-4.469,4.48,0,3.015,1.462,4.48,4.469,4.48,2.965,0,4.469-1.507,4.469-4.48,0-3.015-1.462-4.48-4.469-4.48Zm0,6.96c-1.673,0-2.469-.371-2.469-2.48s.796-2.48,2.469-2.48,2.469,.371,2.469,2.48-.796,2.48-2.469,2.48Z"/>
  <path d="M18.531,12.965c-2.965,0-4.469,1.507-4.469,4.48,0,3.015,1.462,4.48,4.469,4.48,2.965,0,4.469-1.507,4.469-4.48,0-3.015-1.462-4.48-4.469-4.48Zm0,6.96c-1.673,0-2.469-.371-2.469-2.48s.796-2.48,2.469-2.48,2.469,.371,2.469,2.48-.796,2.48-2.469,2.48Z"/>
  <path d="M15.257,6.34c1.353,0,2.129-.777,2.129-2.133s-.776-2.132-2.129-2.132-2.128,.777-2.128,2.132,.775,2.133,2.128,2.133Z"/>
  <path d="M10.42,10.652c.384-.935,1.188-1.646,2.163-1.906l3.239,3.124c.398,.383,1.031,.372,1.414-.025,.384-.397,.372-1.031-.025-1.414,0,0-3.637-3.508-3.65-3.518-.004-.003-.059-.062-.083-.079s-.102-.048-.103-.048c-.035-.019-3.554-1.379-3.554-1.379-.153-.059-.318-.08-.479-.06-2.161,.259-3.955,1.86-4.465,3.982-.116,.487,.146,.986,.613,1.167l3.217,1.241,1.422,1.605c.566,.595,.879,1.377,.879,2.202v1.902c0,.552,.447,1,1,1s1-.448,1-1v-1.902c0-1.34-.508-2.612-1.405-3.554l-1.184-1.336Zm-1.714-1.06l-1.569-.605c.46-.83,1.27-1.434,2.215-1.618l.892,.344c-.646,.494-1.176,1.136-1.537,1.879Z"/>
</svg>
