<?xml version="1.0" encoding="UTF-8"?>
<svg xmlns="http://www.w3.org/2000/svg" id="Layer_1" data-name="Layer 1" viewBox="0 0 24 24">
  <path d="M21.806,2.858c-.1-.325-.357-.578-.685-.67-.173-.049-4.273-1.188-9.121-1.188S3.053,2.139,2.88,2.188c-.329,.093-.588,.347-.687,.674-.049,.161-1.193,4.007-1.193,9.139,0,5.175,1.146,8.982,1.194,9.142,.1,.326,.357,.578,.685,.671,.173,.048,4.273,1.188,9.121,1.188s8.947-1.14,9.12-1.188c.329-.093,.588-.347,.687-.674,.049-.161,1.193-4.007,1.193-9.139,0-5.175-1.146-8.982-1.194-9.142Zm-1.771,17.167c-1.242,.299-4.458,.976-8.035,.976s-6.797-.678-8.037-.976c-.301-1.185-.963-4.23-.963-8.024,0-3.752,.665-6.829,.965-8.025,1.242-.298,4.458-.975,8.035-.975s6.797,.678,8.037,.976c.301,1.185,.963,4.23,.963,8.024,0,3.753-.665,6.829-.965,8.024Z"/>
  <path d="M12,13.021c-2.837,0-5.146,2.309-5.146,5.146,0,.553,.447,1,1,1s1-.447,1-1c0-1.734,1.411-3.146,3.146-3.146s3.146,1.411,3.146,3.146c0,.553,.447,1,1,1s1-.447,1-1c0-2.837-2.309-5.146-5.146-5.146Z"/>
  <path d="M10.368,11.454c.542,.182,1.087,.272,1.632,.272s1.09-.091,1.631-.272c.724-.242,1.301-.819,1.543-1.542,.363-1.082,.363-2.18,0-3.262-.242-.723-.818-1.3-1.543-1.543-1.082-.362-2.179-.363-3.263,0-.724,.243-1.3,.82-1.542,1.542-.363,1.083-.363,2.181,0,3.263,.243,.724,.819,1.3,1.542,1.542Zm.354-4.169c.044-.132,.149-.237,.281-.282,.335-.112,.666-.168,.996-.168s.66,.056,.995,.168c.133,.045,.238,.15,.282,.283,.225,.669,.225,1.32,0,1.99-.044,.132-.149,.238-.282,.282-.67,.226-1.321,.225-1.991,0-.132-.044-.237-.149-.281-.282h0c-.225-.67-.225-1.321,0-1.991Z"/>
</svg>
