<?xml version="1.0" encoding="UTF-8"?>
<svg xmlns="http://www.w3.org/2000/svg" id="Layer_1" data-name="Layer 1" viewBox="0 0 24 24">
  <path d="M22,18.453c-.552,0-1,.448-1,1,0,.655-.535,1.188-1.193,1.188h-.455v-2.208c0-.042-.003-.084-.008-.124,1.511-.956,2.612-2.695,2.612-5.825,0-6.229-4.359-6.95-7.638-6.95-.277,0-.57,.006-.878,.017v-1.193h5.026c.552,0,1-.448,1-1s-.448-1-1-1h-5.026c-.002-.551-.449-.997-1-.997s-.998,.446-1,.997H6.416c-.552,0-1,.448-1,1s.448,1,1,1h5.026v1.315c-3.054,.249-6.633,.769-8.441,1.049v-1.176c0-.552-.448-1-1-1s-1,.448-1,1v3.622c0,.286,.123,.559,.337,.749,.378,.335,3.484,3.066,5.451,4.165,.348,2.42,1.522,3.761,2.976,4.496v2.065H5.75c-.552,0-1,.448-1,1s.448,1,1,1h14.058c1.761,0,3.193-1.43,3.193-3.188,0-.552-.448-1-1-1Zm-2.043-5.97c0,.099-.001,.195-.004,.29-.401,.025-.793,.037-1.173,.037-2.051,0-3.916-.357-4.805-.558-.198-.837-.539-2.582-.547-4.701,.314-.012,.612-.019,.89-.019,4.11,0,5.638,1.341,5.638,4.95Zm-11.836,.032c-1.213-.53-3.81-2.668-5.088-3.774,1.641-.255,5.307-.798,8.397-1.06,.03,3.228,.742,5.592,.773,5.694,.1,.325,.358,.578,.686,.67,.111,.031,2.763,.766,5.892,.766,.284,0,.574-.007,.869-.019-.626,1.89-2.255,2.641-5.33,2.641-3.829,0-5.348-1.107-5.603-4.086-.032-.365-.26-.684-.596-.831Zm3.644,6.712c.867,.162,1.748,.206,2.555,.206,.964,0,2.021-.062,3.033-.309v1.517h-5.588v-1.414Z"/>
</svg>
