<?xml version="1.0" encoding="UTF-8"?>
<svg xmlns="http://www.w3.org/2000/svg" id="Layer_1" data-name="Layer 1" viewBox="0 0 24 24">
  <path d="M22,8.843c-.553,0-1,.447-1,1v2.711c-.656-.214-1.487-.393-2.429-.393-.878,0-1.629,.154-2.229,.349v-4.022c0-5.363-3.822-6.891-3.985-6.953-.232-.088-.489-.09-.721,.002-.163,.063-3.979,1.613-3.979,6.951v4.022c-.599-.195-1.35-.349-2.229-.349-.942,0-1.773,.18-2.429,.394v-2.711c0-.553-.448-1-1-1s-1,.447-1,1v9.498c0,.553,.448,1,1,1,.402,0,.749-.238,.908-.581l3.437,2.393c.361,.251,.781,.378,1.202,.378,.333,0,.668-.079,.976-.24,.524-.273,.899-.745,1.055-1.297,.633,.145,1.462,.273,2.422,.273s1.792-.126,2.423-.271c.156,.551,.531,1.022,1.055,1.295,.308,.161,.643,.24,.976,.24,.422,0,.841-.127,1.202-.379l3.437-2.392c.158,.343,.505,.581,.908,.581,.553,0,1-.447,1-1V9.843c0-.553-.447-1-1-1ZM12.003,3.592c.594,.365,1.751,1.309,2.177,3.287-.649-.381-1.393-.584-2.17-.584h-.013c-.745,.002-1.506,.205-2.179,.599,.425-1.978,1.588-2.932,2.185-3.302ZM7.657,20.416c0,.021,0,.07-.061,.103-.054,.027-.091,.004-.109-.007l-4.487-3.124v-2.693c.499-.227,1.372-.534,2.429-.534,1.037,0,1.802,.284,2.229,.496v5.76Zm2-1.465V10.885c0-1.774,1.216-2.587,2.346-2.59,.616-.006,1.189,.231,1.617,.658,.473,.472,.723,1.14,.723,1.932v8.069c-.513,.144-1.331,.312-2.343,.312-1.002,0-1.825-.171-2.343-.315Zm6.855,1.56c-.016,.012-.054,.036-.109,.008-.061-.032-.061-.081-.061-.103v-5.76c.429-.213,1.193-.496,2.229-.496,1.055,0,1.93,.309,2.429,.534v2.693l-4.487,3.123Z"/>
</svg>
