<?xml version="1.0" encoding="UTF-8"?>
<svg xmlns="http://www.w3.org/2000/svg" id="Layer_1" data-name="Layer 1" viewBox="0 0 24 24">
  <path d="M12,18.397c4.755,0,6.97-2.685,6.97-8.45S16.755,1.499,12,1.499s-6.969,2.685-6.969,8.45,2.214,8.449,6.969,8.449Zm0-14.899c2.353,0,4.02,.635,4.669,3.354h-1.728c-.552,0-1,.448-1,1s.448,1,1,1h1.999c.02,.344,.03,.708,.03,1.096s-.01,.752-.03,1.096h-1.999c-.552,0-1,.448-1,1s.448,1,1,1h1.728c-.649,2.719-2.316,3.354-4.669,3.354s-4.019-.635-4.669-3.354h1.727c.552,0,1-.448,1-1s-.448-1-1-1h-1.998c-.02-.344-.03-.709-.03-1.096s.01-.752,.03-1.096h1.998c.552,0,1-.448,1-1s-.448-1-1-1h-1.727c.649-2.719,2.316-3.354,4.669-3.354Z"/>
  <path d="M22.078,10.632c-.558-.04-1.032,.369-1.075,.919-.578,7.398-5.215,8.951-9.003,8.951S3.575,18.949,2.997,11.551c-.043-.551-.512-.969-1.075-.919-.55,.043-.962,.524-.919,1.075,.761,9.743,7.944,10.794,10.997,10.794s10.236-1.052,10.997-10.794c.043-.551-.369-1.032-.919-1.075Z"/>
</svg>
