<?xml version="1.0" encoding="UTF-8"?>
<svg xmlns="http://www.w3.org/2000/svg" id="Layer_1" data-name="Layer 1" viewBox="0 0 24 24">
  <path d="M19.504,5.466c-.077-.334-.319-.606-.643-.72-.118-.041-2.668-.927-5.862-1.091v-1.655c0-.552-.448-1-1-1s-1,.448-1,1v1.655c-3.187,.164-5.742,1.049-5.86,1.091-.322,.113-.563,.381-.642,.713-.036,.151-.875,3.766-.862,9.425,.011,4.476,3.763,8.117,8.365,8.117s8.363-3.627,8.363-8.086c0-5.633-.824-9.295-.859-9.448Zm-7.503,15.534c-3.501,0-6.356-2.746-6.365-6.122-.01-4.17,.472-7.22,.696-8.41,.984-.285,3.215-.839,5.668-.839s4.68,.553,5.665,.838c.221,1.204,.699,4.285,.699,8.447,0,3.299-2.914,6.086-6.363,6.086Z"/>
  <path d="M12,7.707c-.552,0-1,.448-1,1v1.843c0,.552,.448,1,1,1s1-.448,1-1v-1.843c0-.552-.448-1-1-1Z"/>
</svg>
