<?xml version="1.0" encoding="UTF-8"?>
<svg xmlns="http://www.w3.org/2000/svg" id="Layer_1" data-name="Layer 1" viewBox="0 0 24 24">
  <path d="M7.075,17.623c-.552,0-1,.448-1,1v2.958c0,.552,.448,1,1,1s1-.448,1-1v-2.958c0-.552-.448-1-1-1Z"/>
  <path d="M10.358,15.623c-.552,0-1,.448-1,1v2.958c0,.552,.448,1,1,1s1-.448,1-1v-2.958c0-.552-.448-1-1-1Z"/>
  <path d="M13.642,17.623c-.552,0-1,.448-1,1v2.958c0,.552,.448,1,1,1s1-.448,1-1v-2.958c0-.552-.448-1-1-1Z"/>
  <path d="M16.925,15.623c-.552,0-1,.448-1,1v2.958c0,.552,.448,1,1,1s1-.448,1-1v-2.958c0-.552-.448-1-1-1Z"/>
  <path d="M19.302,8.484c-.104-3.913-3.345-7.064-7.315-7.064-4.035,0-7.318,3.256-7.318,7.257,0,.252,.013,.504,.04,.754-2.15,.599-3.708,2.558-3.708,4.863,0,1.697,.852,3.272,2.28,4.211,.169,.111,.36,.165,.549,.165,.325,0,.644-.158,.836-.45,.304-.461,.176-1.082-.286-1.385-.864-.568-1.379-1.518-1.379-2.541,0-1.623,1.284-2.96,2.922-3.047,.3-.016,.577-.166,.755-.408,.177-.242,.236-.552,.161-.843-.112-.43-.169-.874-.169-1.319,0-2.899,2.386-5.257,5.318-5.257s5.318,2.358,5.318,5.257c0,.157-.007,.312-.021,.465-.046,.509,.299,.971,.8,1.071,1.69,.339,2.917,1.823,2.917,3.53,0,1.13-.522,2.174-1.433,2.863-.44,.333-.527,.96-.194,1.401,.333,.439,.959,.528,1.401,.194,1.415-1.07,2.226-2.695,2.226-4.458,0-2.368-1.512-4.461-3.698-5.259Z"/>
</svg>
