<?xml version="1.0" encoding="UTF-8"?>
<svg xmlns="http://www.w3.org/2000/svg" id="Layer_1" data-name="Layer 1" viewBox="0 0 24 24">
  <path d="M21.935,11.186c-.14-.154-.296-.29-.464-.407,.297-2.343,.184-4.743-.331-6.975-.292-1.265-1.339-2.225-2.606-2.387-4.334-.553-8.73-.553-13.067,0-1.266,.162-2.313,1.121-2.605,2.386-.515,2.231-.629,4.632-.332,6.976-.169,.117-.325,.252-.464,.406-.571,.629-.807,1.466-.646,2.297,.091,.466,.2,.934,.329,1.385,.306,1.072,1.219,1.84,2.326,1.958,2.299,.243,4.612,.38,6.927,.411v1.109c-.538,.245-.972,.68-1.215,1.219H3.442c-.552,0-1,.448-1,1s.448,1,1,1h6.343c.382,.846,1.231,1.436,2.215,1.436s1.834-.59,2.215-1.436h6.343c.552,0,1-.448,1-1s-.448-1-1-1h-6.343c-.243-.539-.677-.974-1.215-1.219v-1.109c2.315-.031,4.628-.167,6.926-.41,1.107-.117,2.02-.885,2.326-1.958,.129-.452,.238-.919,.329-1.386,.16-.83-.076-1.667-.646-2.296ZM4.81,4.254c.104-.454,.47-.796,.91-.853,4.167-.531,8.394-.532,12.56,0,.44,.057,.806,.399,.911,.853,.447,1.934,.556,4.011,.323,6.051-1.702,.156-3.432,.261-5.143,.311-.346,.01-.678,.224-.851,.524-.318,.549-.886,.877-1.519,.877s-1.201-.328-1.533-.902c-.173-.301-.49-.49-.837-.5-1.711-.05-3.44-.155-5.143-.311-.233-2.04-.123-4.118,.323-6.051Zm15.808,8.848c-.079,.41-.175,.82-.288,1.217-.08,.279-.326,.487-.614,.517-5.119,.542-10.312,.542-15.432,0-.287-.03-.533-.238-.613-.517-.113-.397-.209-.808-.288-1.216-.055-.282,.079-.48,.164-.574,.144-.159,.345-.247,.56-.247,.024,0,.049,0,.074,.003,1.614,.151,3.253,.256,4.879,.313,.707,.897,1.771,1.419,2.941,1.419s2.234-.521,2.941-1.419c1.626-.057,3.265-.163,4.879-.313,.246-.023,.474,.066,.634,.244,.085,.093,.219,.292,.164,.573Z"/>
</svg>
