<?xml version="1.0" encoding="UTF-8"?>
<svg xmlns="http://www.w3.org/2000/svg" id="Layer_1" data-name="Layer 1" viewBox="0 0 24 24">
  <path d="M23,16.776c0-1.982-1.416-3.639-3.289-4.014-.018-.358-.041-.736-.068-1.122-.192-2.747-1.846-5.084-4.167-6.272v-.875c0-1.915-1.558-3.472-3.479-3.472s-3.472,1.558-3.472,3.472v.877c-2.316,1.187-3.969,3.519-4.165,6.261-.028,.39-.051,.771-.069,1.131-1.874,.374-3.29,2.033-3.29,4.023,0,2.229,1.792,4.048,4.011,4.092,.055,.13,.137,.247,.241,.343,.194,.18,2.038,1.757,6.753,1.757,4.804,0,6.584-1.592,6.771-1.774,.096-.093,.172-.204,.224-.327,2.214-.05,4-1.866,4-4.101ZM10.524,4.494c0-.812,.66-1.472,1.479-1.472,.812,0,1.472,.661,1.472,1.472v.181c-.478-.094-.971-.144-1.475-.144s-.998,.05-1.477,.144v-.182Zm-4.171,7.281c.211-2.94,2.691-5.243,5.647-5.243s5.44,2.306,5.647,5.25c.067,.956,.107,1.892,.107,2.504,0,.829-.033,1.587-.084,2.263-1.226-1.832-3.311-3.04-5.672-3.04s-4.444,1.207-5.67,3.037c-.052-.677-.086-1.434-.086-2.26,0-.609,.041-1.548,.109-2.511Zm-3.354,5.002c0-.854,.514-1.59,1.249-1.915,.028,1.617,.173,2.959,.325,3.953-.904-.231-1.574-1.054-1.574-2.037Zm4.181,3.315c.135-2.55,2.245-4.583,4.819-4.583s4.692,2.04,4.82,4.597c-.738,.362-2.237,.873-4.815,.873-2.561,0-4.08-.524-4.824-.887Zm12.252-1.28c.149-.99,.29-2.328,.318-3.951,.735,.326,1.249,1.063,1.249,1.924,0,.973-.667,1.793-1.567,2.026Z"/>
  <path d="M10.448,11.142h3.104c.553,0,1-.448,1-1s-.447-1-1-1h-3.104c-.553,0-1,.448-1,1s.447,1,1,1Z"/>
</svg>
