<?xml version="1.0" encoding="UTF-8"?>
<svg xmlns="http://www.w3.org/2000/svg" id="Layer_1" data-name="Layer 1" viewBox="0 0 24 24">
  <path d="M22,17.567h-2.05c.311-1.363,.722-3.682,.722-6.438,0-4.38-1.021-7.608-1.064-7.744-.104-.324-.365-.572-.693-.66-.152-.041-3.785-1.001-8.078-1.001S2.911,2.684,2.758,2.725c-.329,.088-.591,.338-.694,.663-.043,.137-1.063,3.397-1.063,7.741,0,4.381,1.021,7.609,1.064,7.744,.104,.324,.365,.572,.693,.66,.031,.008,.7,.186,1.79,.391,.379,1.355,1.626,2.352,3.102,2.352,1.247,0,2.33-.71,2.865-1.747,.481,.003,1.183,.005,1.358,.005,4.103,0,6.296-.701,6.983-.967h3.145c.553,0,1-.448,1-1s-.447-1-1-1ZM3,11.129c0-.427,.011-.843,.03-1.246h2.219v3.02H3.06c-.038-.563-.06-1.157-.06-1.774Zm4.649,9.147c-.673,0-1.22-.545-1.22-1.215s.547-1.214,1.22-1.214,1.221,.545,1.221,1.214-.548,1.215-1.221,1.215Zm7.146-1.883c-.815,.085-1.786,.142-2.923,.142-.109,0-.427,0-.764-.002V9.566c.388-.137,1.013-.294,1.844-.294,.903,0,1.5,.144,1.843,.265v8.857Zm1.636-10.238c-.179-.147-1.188-.883-3.479-.883-2.065,0-3.257,.731-3.387,.815-.285,.184-.457,.5-.457,.84v7.269c-.438-.223-.934-.349-1.459-.349-1.368,0-2.539,.856-3.005,2.059-.328-.065-.606-.125-.824-.174-.147-.565-.375-1.555-.553-2.83h2.982c.553,0,1-.448,1-1v-5.02c0-.552-.447-1-1-1H3.2c.185-1.523,.456-2.713,.622-3.357,1.143-.257,3.932-.803,7.014-.803s5.877,.546,7.017,.803c.271,1.042,.819,3.525,.819,6.603,0,3.119-.579,5.678-.842,6.681-.235,.076-.578,.174-1.035,.273V8.927c0-.299-.134-.582-.364-.772Z"/>
</svg>
