<?xml version="1.0" encoding="UTF-8"?>
<svg xmlns="http://www.w3.org/2000/svg" id="Layer_1" data-name="Layer 1" viewBox="0 0 24 24">
  <path d="M22,10.617h-4.782c-.518,0-.95,.396-.996,.911-.089,.995-.246,1.807-.359,2.306-.765,.169-2.24,.438-3.862,.438s-3.098-.27-3.864-.439c-.114-.497-.271-1.307-.359-2.305-.046-.516-.478-.912-.996-.912H2c-.552,0-1,.448-1,1,0,5.175,1.146,8.982,1.194,9.142,.1,.325,.358,.578,.686,.67,.172,.049,4.272,1.188,9.121,1.188s8.948-1.139,9.12-1.188c.329-.093,.588-.347,.687-.674,.049-.161,1.193-4.007,1.193-9.139,0-.552-.448-1-1-1Zm-1.964,9.024c-1.245,.298-4.467,.976-8.036,.976s-6.796-.678-8.038-.976c-.273-1.078-.847-3.7-.947-7.024h2.872c.188,1.396,.459,2.294,.474,2.339,.099,.325,.357,.578,.685,.67,.093,.026,2.324,.646,4.954,.646s4.86-.62,4.954-.646c.329-.093,.588-.347,.687-.673,.014-.045,.283-.947,.471-2.336h2.873c-.102,3.293-.676,5.937-.949,7.024Z"/>
  <path d="M11.65,11.355c.219,.091,.53,.077,.7,0,.09-.041,2.291-.885,3.897-3.992,.254-.491,.062-1.094-.429-1.348-.491-.254-1.094-.062-1.348,.429-.479,.926-1.005,1.588-1.471,2.053V2.383c0-.552-.448-1-1-1s-1,.448-1,1v6.113c-.467-.465-.992-1.127-1.471-2.052-.254-.49-.857-.685-1.348-.429-.49,.253-.683,.857-.429,1.348,1.607,3.107,3.806,3.954,3.897,3.992Z"/>
</svg>
