<?xml version="1.0" encoding="UTF-8"?>
<svg xmlns="http://www.w3.org/2000/svg" id="Layer_1" data-name="Layer 1" viewBox="0 0 24 24">
  <path d="M20.686,7.515c-.251-1.139-1.149-2.033-2.288-2.279-.607-.131-1.215-.243-1.824-.336-.025-.357-.054-.709-.086-1.048-.132-1.39-1.191-2.501-2.576-2.702-1.375-.199-2.447-.199-3.822,0-1.385,.201-2.445,1.312-2.577,2.703-.032,.339-.061,.691-.086,1.048-.609,.094-1.217,.205-1.824,.336-1.14,.246-2.038,1.141-2.288,2.28-.927,4.21-.927,8.304,0,12.515,.25,1.139,1.148,2.034,2.288,2.28,2.123,.458,4.26,.688,6.397,.688s4.275-.229,6.397-.688c1.139-.246,2.037-1.141,2.288-2.28,.927-4.21,.927-8.304,0-12.515Zm-11.182-3.474c.044-.461,.411-.845,.873-.912,1.184-.172,2.064-.172,3.248,0,.462,.067,.829,.451,.873,.912,.019,.2,.037,.407,.053,.617-1.699-.145-3.401-.145-5.1,0,.017-.21,.034-.417,.053-.617Zm9.229,15.559c-.082,.372-.386,.675-.757,.755-3.964,.856-7.986,.856-11.951,0-.371-.08-.675-.383-.757-.754-.863-3.921-.863-7.734,0-11.655,.082-.371,.386-.674,.757-.754,.431-.093,.862-.175,1.293-.248-.037,1.01-.044,1.913-.023,2.483,.021,.552,.471,.98,1.037,.962,.552-.021,.982-.484,.962-1.037-.022-.595-.009-1.591,.037-2.675,.889-.085,1.779-.128,2.67-.128s1.781,.043,2.67,.128c.046,1.084,.059,2.08,.037,2.675-.021,.552,.41,1.016,.962,1.037,.013,0,.025,0,.038,0,.535,0,.979-.424,.998-.963,.021-.57,.014-1.474-.023-2.483,.432,.073,.863,.155,1.294,.248,.371,.08,.675,.383,.757,.754,.863,3.921,.863,7.734,0,11.655Z"/>
</svg>
