<?xml version="1.0" encoding="UTF-8"?>
<svg xmlns="http://www.w3.org/2000/svg" id="Layer_1" data-name="Layer 1" viewBox="0 0 24 24">
  <path d="M19.998,15.969l.499-10.658c.041-.884,.561-1.668,1.358-2.047l.576-.275c.499-.238,.709-.835,.471-1.334-.239-.498-.836-.71-1.333-.471l-.575,.274c-1.463,.696-2.419,2.137-2.495,3.759l-.516,11.014c-.19,.086-.371,.189-.54,.306-1.34,.565-3.926,1.562-6.597,2.08-3.82,.738-8.771,.633-8.821,.629-.533,0-1.01,.424-1.023,.976-.013,.553,.423,1.011,.976,1.024,.049,0,.359,.008,.858,.008,1.637,0,5.298-.075,8.392-.674,1.694-.328,3.348-.834,4.707-1.315-.002,.05-.003,.1-.003,.15,0,1.929,1.564,3.493,3.493,3.493s3.493-1.564,3.493-3.493c0-1.733-1.262-3.171-2.918-3.446Zm-.576,4.938c-.824,0-1.492-.668-1.492-1.492s.668-1.492,1.492-1.492,1.492,.668,1.492,1.492-.668,1.492-1.492,1.492Z"/>
</svg>
