<?xml version="1.0" encoding="UTF-8"?>
<svg xmlns="http://www.w3.org/2000/svg" id="Layer_1" data-name="Layer 1" viewBox="0 0 24 24">
  <circle cx="10" cy="5.304" r="1"/>
  <circle cx="14" cy="5.304" r="1"/>
  <circle cx="12" cy="8.389" r="1"/>
  <circle cx="14" cy="15.276" r="1"/>
  <circle cx="14" cy="18.269" r="1"/>
  <circle cx="10" cy="15.276" r="1"/>
  <circle cx="10" cy="18.269" r="1"/>
  <path d="M11.971,1c-3.432,0-5.873,.773-7.501,2.402-1.641,1.64-2.399,4.073-2.386,7.658,.021,5.742,3.831,11.939,9.95,11.939,2.385,0,4.574-.932,6.331-2.695,2.237-2.245,3.565-5.679,3.553-9.184-.016-4.328-1.064-10.087-9.946-10.121Zm4.976,17.894c-1.373,1.378-3.072,2.106-4.914,2.106-4.888,0-7.932-5.163-7.95-9.947-.011-3.016,.561-4.998,1.8-6.236,1.222-1.222,3.186-1.816,6.002-1.816h.077c6.576,.025,7.936,3.268,7.954,8.129,.011,2.984-1.099,5.887-2.97,7.765Z"/>
  <ellipse cx="16.307" cy="11.159" rx="2.333" ry="2.001"/>
  <ellipse cx="7.693" cy="11.159" rx="2.333" ry="2.001"/>
</svg>
