<?xml version="1.0" encoding="UTF-8"?>
<svg xmlns="http://www.w3.org/2000/svg" id="Layer_1" data-name="Layer 1" viewBox="0 0 24 24">
  <path d="M14.405,17.883c-.544-.083-1.057,.291-1.14,.836-.017,.108-.033,.208-.047,.299-.879,.161-2.563,.415-4.416,.415s-3.536-.254-4.416-.415c-.191-1.164-.552-3.795-.552-7.013,0-.46,.008-.924,.023-1.391h1.136c.552,0,1-.448,1-1s-.448-1-1-1h-1.028c.02-.267,.042-.533,.066-.8,.051-.55-.354-1.037-.903-1.088-.548-.055-1.037,.354-1.088,.903-.136,1.471-.206,2.943-.206,4.376,0,4.565,.678,7.92,.707,8.061,.079,.382,.372,.684,.752,.772,.104,.024,2.583,.595,5.508,.595s5.403-.57,5.507-.594c.38-.089,.675-.392,.753-.774,0,0,.077-.374,.179-1.041,.084-.546-.291-1.057-.836-1.14Z"/>
  <path d="M22.37,21.306l-1.34-1.389c.194-.791,1.075-4.503,1.135-6.813,.094-3.644-.387-5.594-.408-5.675-.039-.154-.113-.296-.218-.415l-3.144-3.58c-.365-.414-.996-.455-1.412-.091-.415,.365-.456,.997-.091,1.412l.272,.31v3.234c0,1.162,.943,2.106,2.102,2.106h.859c.044,.729,.068,1.613,.041,2.647-.039,1.483-.478,3.718-.793,5.149l-3.667-3.8c.041-.807,.063-1.612,.063-2.396,0-4.566-.678-7.92-.707-8.061-.078-.381-.37-.682-.749-.772-.104-.024-2.583-.604-5.511-.604-1.632,0-3.135,.182-4.177,.35l-1.556-1.612c-.383-.398-1.017-.407-1.414-.025-.397,.384-.409,1.017-.025,1.414L20.931,22.694c.196,.204,.458,.306,.72,.306,.25,0,.5-.093,.694-.28,.397-.384,.409-1.017,.025-1.414ZM12.052,10.614h1.695c.014,.449,.022,.913,.022,1.391,0,.128,0,.257-.002,.386l-1.715-1.777Zm-3.25-6.046c1.85,0,3.537,.259,4.416,.422,.117,.717,.3,1.995,.423,3.625h-3.518l-3.773-3.91c.738-.079,1.577-.136,2.453-.136Z"/>
</svg>
