<?xml version="1.0" encoding="UTF-8"?>
<svg xmlns="http://www.w3.org/2000/svg" id="Layer_1" data-name="Layer 1" viewBox="0 0 24 24">
  <path d="M21.518,15.844c-.126-.24-.281-.456-.462-.645,.595-.795,.74-1.861,.299-2.74-.361-.718-.862-1.364-1.387-1.901,1.156-.66,1.769-2.007,1.445-3.296-.365-1.445-1.714-2.345-3.225-2.139-.763,.104-2.048,.458-3.182,.8l.104-.109c.968-1.014,1.092-2.592,.289-3.671-.503-.673-1.266-1.088-2.092-1.138-.797-.044-1.605,.261-2.168,.851l-1.354,1.421c-.573,.547-.965,1.253-1.234,1.953-.706-.623-1.679-.887-2.581-.635-.792,.221-1.441,.773-1.782,1.515-.346,.75-.343,1.611,.023,2.396,.54,1.056,.897,1.755,1.136,2.219l-2.421,1.231c-.241,.122-.422,.337-.502,.595-.028,.092-.691,2.295,.175,5.262,.927,3.171,3.259,4.654,3.358,4.715,.23,.145,.512,.188,.777,.12l2.703-.695,4.548,.92c.426,.086,.853,.128,1.274,.128,2.319,0,4.488-1.271,5.644-3.406l.621-1.149c.432-.799,.43-1.772-.007-2.603Zm-1.753,1.651l-.621,1.149c-.942,1.743-2.851,2.656-4.762,2.269l-4.772-.966c-.065-.013-.132-.02-.198-.02-.084,0-.167,.011-.249,.031l-2.462,.633c-.549-.455-1.659-1.553-2.182-3.34-.499-1.707-.374-3.09-.266-3.728l2.895-1.473c.239-.121,.418-.336,.498-.591,.081-.255,.056-.535-.069-.771-.077-.146-1.567-3.061-1.568-3.062-.102-.218-.103-.466-.004-.682,.056-.122,.195-.338,.504-.424,.351-.097,.776,.136,.95,.506l.592,1.379c.184,.428,.636,.674,1.097,.589,.458-.083,.799-.47,.821-.936,.028-.596,.312-2.488,1.231-3.369l1.388-1.455c.158-.166,.387-.245,.601-.235,.14,.008,.404,.063,.608,.337,.224,.301,.166,.782-.133,1.095l-.741,.777c-.754,.792-.868,2.077-.884,2.327-.021,.332,.126,.653,.391,.855,.265,.203,.612,.26,.927,.154,1.033-.349,3.962-1.287,5.104-1.443,.599-.082,.922,.28,1.014,.646,.126,.502-.224,.973-.617,1.131-.134,.049-.964,.317-1.091,.352-.394,.089-.695,.405-.765,.802-.07,.397,.104,.797,.443,1.015,.655,.421,1.604,1.279,2.123,2.309,.124,.246-.037,.656-.33,.844-.529,.335-1.147-.34-1.39-.646-1.204-1.513-3.304-1.887-4.887-.87-.84,.54-1.397,1.423-1.53,2.423-.134,1.006,.178,2.013,.854,2.761,.64,.708,1.546,1.111,2.492,1.111,.017,0,.033,0,.051,0,.939-.015,1.827-.432,2.434-1.146,1.317-1.549,1.672-1.51,1.904-1.484,.344,.037,.521,.307,.581,.422,.126,.239,.133,.509,.018,.721Zm-2.942-2.108c-.332,.306-.678,.696-1.084,1.154-.736,.831-1.701,.312-1.97-.011-.376-.452-.684-1.415,.274-2.16,.253-.197,.57-.258,.869-.258,.507,0,1.012,.24,1.37,.69,.177,.223,.358,.417,.54,.584Z"/>
</svg>
