<?xml version="1.0" encoding="UTF-8"?>
<svg xmlns="http://www.w3.org/2000/svg" id="Layer_1" data-name="Layer 1" viewBox="0 0 24 24">
  <path d="M13,11.38v-3.402c0-.553-.448-1-1-1s-1,.447-1,1v3.402c-.719,.366-1.213,1.113-1.213,1.973,0,1.22,.993,2.213,2.213,2.213s2.213-.993,2.213-2.213c0-.86-.494-1.607-1.213-1.973Z"/>
  <path d="M12,1.994C6.878,1.994,1,3.244,1,12.994c0,2.446,.366,4.785,1.03,6.584,.355,.96,1.096,1.738,2.035,2.136,.945,.4,1.982,.392,2.92-.022l2.088-.921c.505-.223,.734-.813,.512-1.318s-.814-.733-1.318-.512l-2.089,.921c-.429,.188-.902,.191-1.333,.011-.438-.187-.772-.536-.938-.987-.584-1.582-.906-3.675-.906-5.891C3,5.524,6.598,3.994,12,3.994s9,1.53,9,9c0,2.217-.325,4.31-.916,5.894-.168,.45-.502,.801-.941,.985-.431,.182-.904,.178-1.332-.012l-2.077-.92c-.504-.225-1.096,.004-1.319,.509s.004,1.096,.51,1.319l2.077,.92c.479,.212,.984,.318,1.489,.318,.484,0,.968-.098,1.429-.292,.938-.396,1.682-1.172,2.039-2.13,.671-1.802,1.042-4.143,1.042-6.592C23,3.244,17.122,1.994,12,1.994Z"/>
</svg>
