<?xml version="1.0" encoding="UTF-8"?>
<svg xmlns="http://www.w3.org/2000/svg" id="Layer_1" data-name="Layer 1" viewBox="0 0 24 24">
  <path d="M17.563,9.867H6.437c-.553,0-1,.448-1,1s.447,1,1,1h11.127c.553,0,1-.448,1-1s-.447-1-1-1Z"/>
  <path d="M16.563,13.888H7.437c-.553,0-1,.448-1,1s.447,1,1,1h9.127c.553,0,1-.448,1-1s-.447-1-1-1Z"/>
  <path d="M7.437,7.846h3.096c.553,0,1-.448,1-1s-.447-1-1-1h-3.096c-.553,0-1,.448-1,1s.447,1,1,1Z"/>
  <path d="M21.795,2.883c-.11-.32-.375-.562-.703-.644-.172-.043-4.259-1.047-9.092-1.047C7.254,1.192,3.088,2.196,2.913,2.238c-.332,.082-.6,.327-.71,.651-.049,.145-1.203,3.605-1.203,8.151s1.154,8.006,1.203,8.151c.11,.326,.38,.572,.715,.652,.109,.026,2.649,.628,5.954,.907,1.32,1.184,2.582,1.897,2.639,1.929,.151,.085,.32,.128,.489,.128,.162,0,.324-.04,.473-.119,.054-.029,1.274-.689,2.652-1.933,3.372-.277,5.858-.888,5.966-.915,.33-.082,.596-.326,.705-.647,.049-.144,1.204-3.579,1.204-8.153,0-4.614-1.156-8.015-1.205-8.157Zm-1.734,15.14c-.935,.198-2.976,.584-5.433,.766-.229,.017-.446,.112-.614,.271-.784,.742-1.539,1.275-2.008,1.577-.484-.316-1.264-.867-2.025-1.583-.167-.156-.382-.251-.609-.269-2.414-.184-4.482-.569-5.433-.765-.304-1.091-.938-3.753-.938-6.979s.637-5.889,.94-6.981c1.263-.265,4.524-.867,8.06-.867,3.588,0,6.816,.601,8.062,.866,.304,1.074,.938,3.709,.938,6.982,0,3.234-.636,5.896-.939,6.982Z"/>
</svg>
