<?xml version="1.0" encoding="UTF-8"?>
<svg xmlns="http://www.w3.org/2000/svg" id="Layer_1" data-name="Layer 1" viewBox="0 0 24 24">
  <path d="M22.006,5.589c-.027-.013-.701-.33-1.624-.591-.27-.076-.523-.137-.747-.185,.086-.436,.133-.685,.135-.694,.083-.446-.145-.893-.555-1.087-.034-.016-.844-.397-1.957-.711-1.124-.317-2.001-.412-2.037-.416-.116-.011-.232,0-.343,.027-.084-.396-.401-.709-.81-.779-.036-.006-.914-.154-2.068-.154-1.164,0-2.034,.148-2.07,.154-.407,.07-.723,.381-.807,.775-.11-.028-.226-.037-.343-.024-.036,.004-.913,.098-2.036,.416-1.114,.314-1.924,.696-1.958,.711-.41,.195-.638,.641-.555,1.087,.002,.009,.049,.259,.135,.694-.224,.048-.477,.109-.747,.185-.923,.261-1.597,.578-1.624,.591-.411,.194-.639,.641-.556,1.087,.004,.022,.38,2.03,.987,4.615-.146,.08-.272,.196-.363,.34-.144,.226-.19,.5-.131,.761l2.055,8.934c.072,.313,.291,.574,.588,.698,.095,.04,2.385,.976,7.426,.976s7.331-.937,7.426-.976c.297-.125,.516-.385,.588-.698l2.055-8.934c.06-.261,.013-.535-.131-.761-.092-.143-.217-.26-.363-.34,.607-2.585,.983-4.592,.987-4.615,.083-.446-.145-.893-.556-1.087Zm-2.167,1.334c.219,.062,.422,.128,.599,.19-.164,.817-.449,2.187-.823,3.773-.375-.059-.803-.122-1.277-.185,.356-1.471,.659-2.832,.893-3.93,.182,.039,.388,.089,.608,.151Zm-4.03-2.897c.261,.053,.57,.125,.905,.219,.354,.1,.673,.208,.934,.304-.227,1.141-.692,3.383-1.313,5.928-.381-.035-.778-.068-1.187-.096v-.02c0-1.413-.025-2.769-.06-3.961,.283-.962,.541-1.798,.721-2.374Zm-2.858-.989c.071,1.342,.195,4.149,.197,7.247-.377-.01-.76-.016-1.147-.016s-.771,.005-1.147,.016c.002-3.103,.126-5.907,.197-7.248,.537-.042,1.357-.042,1.9,0Zm-5.663,1.208c.334-.095,.644-.166,.905-.219,.178,.571,.434,1.404,.72,2.378-.035,1.19-.06,2.544-.06,3.957v.02c-.409,.028-.805,.061-1.186,.096-.622-2.546-1.087-4.787-1.314-5.928,.261-.096,.58-.205,.935-.304Zm-3.126,2.678c.22-.062,.426-.112,.608-.151,.234,1.098,.537,2.459,.894,3.93-.474,.062-.903,.125-1.278,.185-.374-1.587-.659-2.956-.823-3.773,.177-.062,.38-.128,.599-.19Zm14.03,13.403c-.842,.237-2.844,.673-6.191,.673s-5.354-.437-6.191-.673l-1.694-7.367c1.51-.257,4.551-.691,7.886-.691s6.376,.434,7.886,.691l-1.694,7.366Z"/>
</svg>
