<?xml version="1.0" encoding="UTF-8"?>
<svg xmlns="http://www.w3.org/2000/svg" id="Layer_1" data-name="Layer 1" viewBox="0 0 24 24">
  <path d="M22.807,10.375c-.07-.671-.216-1.653-.424-2.839,0,0-.051-.378-.411-.647-.083-.062-2.119-1.472-5.48-2.838-2.318-.942-4.521-1.349-4.614-1.365-.118-.021-.239-.021-.357,0-.093,.017-2.295,.423-4.614,1.365C3.545,5.417,1.511,6.83,1.426,6.889c-.267,.188-.426,.493-.426,.819s.159,.632,.426,.819c.055,.038,.921,.639,2.43,1.428-.053,.872-.083,1.674-.083,2.254,0,4.117,.71,6.707,.741,6.815,.048,.174,.143,.331,.274,.456,.199,.189,2.084,1.85,6.916,1.85,4.921,0,6.742-1.675,6.933-1.867,.122-.122,.21-.273,.257-.439,.03-.107,.73-2.665,.73-6.814,0-.578-.029-1.381-.082-2.255,.422-.221,.794-.426,1.112-.609,.074,.488,.129,.905,.164,1.235,.417,4.012-.016,6.588-.021,6.613-.094,.543,.309,1.132,.901,1.168,.562,.034,.984-.338,1.07-.822,.02-.114,.488-2.852,.04-7.165ZM7.66,5.903c1.759-.715,3.49-1.102,4.04-1.214,.55,.113,2.281,.5,4.04,1.214,1.59,.646,2.87,1.308,3.748,1.806-.876,.496-2.153,1.156-3.748,1.805-1.759,.715-3.49,1.102-4.04,1.214-.55-.113-2.281-.5-4.04-1.214-1.59-.646-2.87-1.308-3.748-1.806,.876-.496,2.153-1.156,3.748-1.805Zm9.965,6.307c0,3.062-.411,5.208-.583,5.972-.501,.329-2.079,1.148-5.337,1.148-3.202,0-4.815-.823-5.34-1.159-.175-.776-.59-2.933-.59-5.961,0-.352,.013-.806,.035-1.312,.348,.155,.714,.312,1.097,.467,2.318,.942,4.521,1.349,4.614,1.365,.059,.011,.119,.016,.179,.016s.12-.005,.179-.016c.093-.017,2.295-.423,4.614-1.365,.384-.156,.75-.312,1.098-.468,.023,.506,.035,.961,.035,1.312Z"/>
</svg>
