<?xml version="1.0" encoding="UTF-8"?>
<svg xmlns="http://www.w3.org/2000/svg" id="Layer_1" data-name="Layer 1" viewBox="0 0 24 24">
  <path d="M20.947,2.885c-.09-.328-.341-.587-.666-.689-.156-.049-3.88-1.196-8.281-1.196S3.876,2.147,3.719,2.196c-.326,.102-.578,.362-.667,.691-.044,.161-1.073,3.995-1.073,9.113,0,5.161,1.03,8.957,1.074,9.115,.09,.328,.341,.587,.666,.689,.156,.049,3.88,1.196,8.281,1.196s8.124-1.147,8.281-1.196c.326-.102,.578-.362,.667-.691,.044-.161,1.073-3.995,1.073-9.113,0-5.161-1.03-8.957-1.074-9.115Zm-3.682,4.979h2.527c.103,.942,.185,1.999,.216,3.136h-2.65c-.013-1.131-.047-2.185-.092-3.136Zm.092,5.136h2.65c-.032,1.135-.114,2.192-.218,3.136h-2.526c.045-.953,.08-2.008,.093-3.136Zm2.162-7.136h-2.372c-.073-1.031-.15-1.849-.207-2.395,.964,.175,1.734,.361,2.21,.486,.096,.421,.232,1.074,.369,1.908Zm-4.624-2.695c.093,.807,.414,3.852,.462,7.832h-6.714c.049-3.947,.37-7.018,.463-7.832,.902-.101,1.882-.168,2.894-.168s1.992,.067,2.895,.168ZM6.735,16.136h-2.527c-.103-.942-.185-1.999-.216-3.136h2.65c.013,1.131,.047,2.185,.092,3.136Zm-.092-5.136H3.993c.032-1.135,.114-2.192,.218-3.136h2.526c-.045,.953-.08,2.008-.093,3.136Zm.418-7.531c-.057,.547-.134,1.366-.207,2.395h-2.37c.136-.833,.272-1.487,.367-1.909,.477-.126,1.246-.312,2.21-.486Zm-2.58,14.668h2.372c.073,1.031,.15,1.849,.207,2.395-.964-.175-1.734-.361-2.21-.486-.096-.421-.232-1.074-.369-1.908Zm4.624,2.695c-.093-.807-.414-3.852-.462-7.832h6.714c-.049,3.947-.37,7.018-.463,7.832-.902,.101-1.882,.168-2.894,.168s-1.992-.067-2.895-.168Zm7.834-.3c.057-.547,.134-1.366,.207-2.395h2.37c-.136,.833-.272,1.487-.367,1.909-.477,.126-1.246,.312-2.21,.486Z"/>
</svg>
