<?xml version="1.0" encoding="UTF-8"?>
<svg xmlns="http://www.w3.org/2000/svg" id="Layer_1" data-name="Layer 1" viewBox="0 0 24 24">
  <path d="M21.641,13.167c-.705-.657-1.636-.993-2.554-.976-.202,.008-.4,.036-.592,.081,1.057-5.746-3.366-9.243-6.12-10.357-.241-.098-.511-.099-.752,0-2.766,1.127-7.2,4.638-6.129,10.353-.189-.043-.383-.07-.581-.078-.912-.019-1.848,.318-2.554,.976-.669,.623-1.377,1.801-1.358,3.238,.019,1.436,.737,2.79,2.134,4.025,1.294,1.146,2.595,1.728,3.866,1.728s2.571-.581,3.865-1.728c.449-.397,.827-.805,1.135-1.225,.308,.42,.686,.829,1.134,1.225,1.294,1.146,2.595,1.728,3.866,1.728s2.571-.581,3.865-1.728c1.397-1.235,2.116-2.59,2.134-4.025,.019-1.438-.689-2.615-1.358-3.238ZM12.003,3.941c1.368,.671,5.811,3.309,4.364,8.675-.438-.256-.933-.403-1.455-.425-.917-.019-1.848,.318-2.554,.976-.12,.112-.241,.241-.359,.387-.118-.146-.239-.275-.359-.387-.706-.657-1.632-.993-2.554-.976-.523,.022-1.021,.17-1.46,.428-1.464-5.319,3.009-7.998,4.376-8.678Zm-2.464,14.991c-1.836,1.627-3.243,1.627-5.08,0-.958-.847-1.449-1.706-1.46-2.554-.011-.841,.468-1.512,.722-1.749,.303-.282,.685-.44,1.056-.44,.018,0,.035,0,.053,0,.218,.009,.533,.08,.8,.373,.7,.768,2.039,.768,2.74,0,.266-.293,.582-.364,.799-.373,.39-.02,.791,.144,1.108,.439,.254,.237,.733,.908,.722,1.749-.011,.848-.502,1.707-1.46,2.554Zm10,0c-1.836,1.627-3.243,1.627-5.08,0-.958-.847-1.449-1.706-1.46-2.554-.011-.841,.468-1.512,.722-1.749,.303-.282,.685-.44,1.056-.44,.018,0,.035,0,.053,0,.218,.009,.533,.08,.8,.373,.7,.768,2.039,.768,2.74,0,.266-.293,.582-.364,.799-.373,.386-.02,.792,.144,1.108,.439,.254,.237,.733,.908,.722,1.749-.011,.848-.502,1.707-1.46,2.554Z"/>
</svg>
