<?xml version="1.0" encoding="UTF-8"?>
<svg xmlns="http://www.w3.org/2000/svg" id="Layer_1" data-name="Layer 1" viewBox="0 0 24 24">
  <path d="M4.792,17.846c-2.321-1.898-3.311-4.987-2.521-7.871,.822-3,3.318-5.096,6.247-5.5-.561,.81-1.008,1.832-1.35,3.078-.372,1.355-.499,2.521-.39,3.564,.057,.549,.549,.944,1.099,.891,.549-.058,.948-.549,.891-1.099-.082-.78,.029-1.732,.33-2.828,.532-1.941,1.315-3.133,2.394-3.643,.394-.186,.622-.606,.564-1.038-.059-.432-.39-.776-.819-.851C6.333,1.687,1.654,4.657,.342,9.446c-1,3.645,.25,7.55,3.184,9.948,.186,.152,.41,.226,.632,.226,.29,0,.577-.125,.775-.367,.349-.427,.286-1.058-.142-1.407Z"/>
  <path d="M19.496,13.67c-.181-2.735-2.464-4.905-5.244-4.905-2.898,0-5.256,2.357-5.256,5.255,0,.096,.002,.191,.008,.287-1.452,.523-2.479,1.913-2.479,3.533,0,2.07,1.685,3.755,3.755,3.755h7.587c2.277,0,4.13-1.853,4.13-4.13,0-1.67-1.013-3.155-2.501-3.795Zm-1.629,5.925h-7.587c-.968,0-1.755-.787-1.755-1.755,0-.933,.729-1.703,1.661-1.752,.299-.016,.576-.166,.753-.408s.237-.551,.162-.841c-.069-.266-.104-.542-.104-.818,0-1.795,1.461-3.255,3.256-3.255s3.255,1.46,3.255,3.255c0,.098-.004,.195-.013,.292-.044,.506,.299,.965,.798,1.066,.988,.2,1.705,1.078,1.705,2.087,0,1.174-.956,2.13-2.13,2.13Z"/>
</svg>
