<?xml version="1.0" encoding="UTF-8"?>
<svg xmlns="http://www.w3.org/2000/svg" id="Layer_1" data-name="Layer 1" viewBox="0 0 24 24">
  <path d="M19.852,8.312h-.8v-2.766c.373-.056,.699-.322,.812-.709,.154-.53-.149-1.084-.68-1.239-.146-.042-3.648-1.049-8.801-1.049C5.091,2.549,1.834,3.562,1.698,3.605c-.526,.167-.817,.728-.651,1.253,.104,.329,.362,.565,.669,.657v11.471c0,1.881,1.198,3.529,2.981,4.101,.744,.239,3.215,.358,5.686,.358s4.943-.119,5.688-.358c1.783-.572,2.981-2.22,2.981-4.101v-.72h.8c1.736,0,3.148-1.424,3.148-3.175v-1.604c0-1.75-1.412-3.175-3.148-3.175Zm-4.393,10.87c-1.138,.364-9.014,.364-10.151,0-.952-.305-1.592-1.188-1.592-2.196v-6.899H12.912c.553,0,1-.448,1-1s-.447-1-1-1H3.716v-2.915c1.372-.277,3.682-.623,6.668-.623,2.872,0,5.223,.337,6.668,.613v11.824c0,1.008-.64,1.891-1.593,2.196Zm5.541-6.091c0,.648-.516,1.175-1.148,1.175h-.8v-3.954h.8c.633,0,1.148,.527,1.148,1.175v1.604Z"/>
</svg>
