<?xml version="1.0" encoding="UTF-8"?>
<svg xmlns="http://www.w3.org/2000/svg" id="Layer_1" data-name="Layer 1" viewBox="0 0 24 24">
  <path d="M21.806,2.858c-.1-.326-.358-.578-.686-.671-.172-.048-4.272-1.188-9.121-1.188S3.052,2.14,2.88,2.188c-.329,.093-.588,.347-.687,.674-.049,.161-1.193,4.007-1.193,9.139,0,5.175,1.146,8.982,1.194,9.142,.1,.326,.358,.578,.686,.671,.172,.048,4.272,1.188,9.121,1.188s8.948-1.14,9.12-1.188c.329-.093,.588-.347,.687-.674,.049-.161,1.193-4.007,1.193-9.139,0-5.175-1.146-8.982-1.194-9.142ZM13,20.983v-1.766l6.217-6.216h1.768c-.008,.258-.019,.512-.032,.762l-7.186,7.186c-.252,.015-.508,.027-.767,.035Zm0-7.983h3.389l-3.389,3.388v-3.388Zm7.985-2h-7.985V3.017c3.166,.107,5.913,.689,7.038,.958,.273,1.079,.847,3.7,.947,7.024Zm-17.963-.192L10.805,3.025c.065-.003,.13-.005,.195-.007v2.31l-5.673,5.672H3.016c.002-.064,.004-.128,.006-.192Zm7.978-2.652v2.844h-2.845l2.845-2.844ZM7.708,3.293L3.274,7.727c.219-1.728,.516-3.057,.69-3.752,.708-.169,2.056-.462,3.744-.682ZM3.015,13h7.985v7.983c-3.166-.107-5.913-.689-7.038-.958-.273-1.079-.847-3.7-.947-7.024Zm13.908,7.619l3.717-3.717c-.206,1.421-.452,2.515-.605,3.123-.617,.148-1.721,.389-3.113,.594Z"/>
</svg>
