<?xml version="1.0" encoding="UTF-8"?>
<svg xmlns="http://www.w3.org/2000/svg" id="Layer_1" data-name="Layer 1" viewBox="0 0 24 24">
  <circle cx="7.46" cy="7.461" r="1"/>
  <circle cx="16.539" cy="16.54" r="1"/>
  <path d="M12,23c-4.849,0-8.949-1.14-9.121-1.188-.328-.093-.586-.345-.686-.671-.048-.159-1.194-3.967-1.194-9.142C1,6.869,2.145,3.022,2.193,2.861c.099-.327,.357-.581,.687-.674,.172-.048,4.283-1.188,9.12-1.188s8.949,1.139,9.121,1.188c.328,.092,.586,.345,.686,.67,.048,.16,1.194,3.967,1.194,9.142,0,5.132-1.145,8.978-1.193,9.139-.099,.327-.357,.581-.687,.674-.172,.048-4.283,1.188-9.12,1.188Zm-8.038-2.976c1.241,.298,4.46,.976,8.038,.976s6.792-.678,8.036-.976c.3-1.196,.964-4.271,.964-8.024,0-3.794-.663-6.84-.962-8.024-1.241-.298-4.46-.976-8.038-.976s-6.791,.678-8.036,.976c-.3,1.196-.964,4.272-.964,8.024,0,3.794,.663,6.84,.962,8.024Z"/>
</svg>
