<?xml version="1.0" encoding="UTF-8"?>
<svg xmlns="http://www.w3.org/2000/svg" id="Layer_1" data-name="Layer 1" viewBox="0 0 24 24">
  <g>
    <path d="M5.78,17.82c-2.312-1.89-3.298-4.966-2.511-7.836,.818-2.984,3.3-5.07,6.214-5.477-.557,.806-1,1.822-1.34,3.06-.371,1.352-.498,2.514-.389,3.554,.058,.55,.549,.952,1.099,.89,.549-.058,.948-.549,.89-1.099-.082-.776,.029-1.724,.328-2.815,.531-1.934,1.311-3.12,2.384-3.627,.394-.186,.623-.606,.564-1.038-.059-.432-.39-.776-.819-.852C7.322,1.735,2.649,4.684,1.341,9.455c-.996,3.633,.25,7.524,3.174,9.914,.186,.151,.41,.226,.632,.226,.29,0,.577-.125,.775-.367,.35-.428,.286-1.058-.142-1.407Z"/>
    <path d="M16.394,17.362h-.942c.158-.324,.329-.519,.328-.519,.376-.404,.353-1.037-.052-1.413-.403-.374-1.037-.353-1.413,.052-.051,.055-.505,.557-.821,1.367-.284,.729-.312,1.407-.315,1.482-.008,.271,.093,.532,.282,.727s.447,.304,.718,.304h.942c-.156,.318-.324,.514-.335,.526-.369,.405-.343,1.034,.06,1.407,.192,.179,.436,.267,.68,.267,.269,0,.536-.107,.733-.32,.051-.055,.504-.557,.82-1.367,.284-.729,.312-1.407,.315-1.482,.008-.271-.093-.532-.282-.727s-.447-.304-.718-.304Z"/>
    <path d="M20.507,13.661c-.182-2.726-2.458-4.888-5.229-4.888-2.89,0-5.241,2.351-5.241,5.239,0,.095,.002,.188,.007,.283-1.447,.522-2.471,1.908-2.471,3.522,0,2.064,1.68,3.744,3.746,3.744h1.219c.552,0,1-.447,1-1s-.448-1-1-1h-1.219c-.962,0-1.746-.782-1.746-1.744,0-.928,.726-1.693,1.651-1.742,.3-.017,.576-.166,.753-.408s.237-.551,.162-.841c-.068-.265-.103-.538-.103-.814,0-1.786,1.454-3.239,3.241-3.239s3.241,1.453,3.241,3.239c0,.098-.004,.194-.013,.29-.044,.507,.299,.965,.798,1.066,.982,.198,1.696,1.071,1.696,2.075,0,1.168-.951,2.118-2.12,2.118-.552,0-1,.447-1,1s.448,1,1,1c2.271,0,4.12-1.848,4.12-4.118,0-1.665-1.01-3.145-2.493-3.783Z"/>
  </g>
  <g>
    <circle cx="19.116" cy="7.146" r=".995"/>
    <circle cx="17.717" cy="3.839" r=".995"/>
    <circle cx="14.43" cy="5.577" r=".995"/>
  </g>
</svg>
