<?xml version="1.0" encoding="UTF-8"?>
<svg xmlns="http://www.w3.org/2000/svg" id="Layer_1" data-name="Layer 1" viewBox="0 0 24 24">
  <circle cx="9.971" cy="10.149" r="1.431"/>
  <path d="M19.802,6.947c-2.644,0-3.199,1.741-3.199,3.202s.555,3.202,3.199,3.202c.347,0,.658-.03,.936-.086-.739,4.034-3.035,6.551-6.854,7.497-.704,.174-1.44,.019-2.014-.431-.405-.317-.686-.746-.816-1.227,2.248-.121,4.962-.723,6.54-3.206,.296-.466,.159-1.084-.307-1.38-.466-.297-1.084-.16-1.38,.307-1.014,1.595-2.844,2.306-5.934,2.306-4.304,0-6.971-1.168-6.971-6.983S5.787,3.166,9.971,3.166c3.101,0,4.933,.709,5.939,2.301,.295,.466,.911,.605,1.38,.311,.467-.295,.605-.913,.311-1.38-1.833-2.896-5.232-3.231-7.63-3.231C6.12,1.166,1,2.097,1,10.149c0,7.4,4.325,8.786,8.015,8.961,.156,1.101,.728,2.098,1.622,2.797,.777,.608,1.713,.926,2.672,.926,.351,0,.706-.042,1.056-.129,5.63-1.394,8.636-5.71,8.636-12.482,0-1.568-.555-3.275-3.198-3.275Zm0,4.404c-.944,0-1.199-.149-1.199-1.202,0-1.044,.27-1.202,1.199-1.202,.943,0,1.199,.149,1.199,1.202,0,1.044-.27,1.202-1.199,1.202Z"/>
</svg>
