<?xml version="1.0" encoding="UTF-8"?>
<svg xmlns="http://www.w3.org/2000/svg" id="Layer_1" data-name="Layer 1" viewBox="0 0 24 24">
  <path d="M12,10.056c-2.837,0-4.276,1.438-4.276,4.276s1.438,4.275,4.276,4.275,4.276-1.438,4.276-4.275-1.438-4.276-4.276-4.276Zm0,6.552c-1.542,0-2.276-.341-2.276-2.275s.734-2.276,2.276-2.276,2.276,.341,2.276,2.276-.734,2.275-2.276,2.275Z"/>
  <path d="M22.42,5.553c-.036-.2-.133-.385-.277-.529l-3.14-3.141c-.144-.145-.329-.241-.53-.277-1.537-.276-3.906-.605-6.473-.605C7.163,1,3.052,2.14,2.88,2.188c-.329,.093-.588,.347-.687,.674-.049,.161-1.193,4.007-1.193,9.139,0,5.175,1.146,8.982,1.194,9.142,.1,.326,.358,.578,.686,.671,.172,.048,4.272,1.188,9.121,1.188s8.948-1.14,9.12-1.188c.329-.093,.588-.347,.687-.674,.049-.161,1.193-4.007,1.193-9.139,0-2.146-.195-4.314-.58-6.447Zm-6.388-2.294v2.19c-.568,.219-1.794,.548-4.032,.548-2.289,0-3.5-.329-4.032-.533V3.26c1.217-.15,2.596-.26,4.032-.26,1.451,0,2.839,.113,4.032,.259Zm4.004,16.765c-1.244,.298-4.467,.976-8.036,.976s-6.796-.678-8.038-.976c-.3-1.185-.962-4.23-.962-8.024,0-3.753,.665-6.828,.964-8.024,.442-.106,1.135-.26,2.004-.414v2.499c0,.289,.125,.563,.343,.754,.227,.197,1.565,1.183,5.689,1.183,4.022,0,5.421-.965,5.66-1.158,.235-.19,.372-.477,.372-.778V3.74l2.474,2.474c.237,1.391,.494,3.44,.494,5.786,0,3.753-.665,6.828-.964,8.024Z"/>
</svg>
