<?xml version="1.0" encoding="UTF-8"?>
<svg xmlns="http://www.w3.org/2000/svg" id="Layer_1" data-name="Layer 1" viewBox="0 0 24 24">
  <g>
    <path d="M10.146,15.26c-3.279,0-4.942-1.663-4.942-4.942,0-3.326,1.617-4.942,4.942-4.942s4.942,1.617,4.942,4.942-1.616,4.942-4.942,4.942Zm0-7.885c-1.952,0-2.942,.455-2.942,2.942,0,2.172,.77,2.942,2.942,2.942,1.908,0,2.942-.469,2.942-2.942,0-2.487-.991-2.942-2.942-2.942Z"/>
    <path d="M14.389,22.668c-2.456,0-4.211-.614-5.344-1.875C1.812,20.184,.984,15.004,1,11.125c.019-4.541,1.14-9.757,9.719-9.793h.087c4.321,0,7.109,1.338,8.501,4.085,3.712,1.113,3.697,4.816,3.692,6.067-.006,1.458-.189,3.498-1.62,4.888-.135,2.815-1.134,6.271-6.931,6.295h-.061Zm.057-1h0ZM10.806,3.332h-.079c-6.387,.027-7.708,3.138-7.728,7.801-.021,5.268,1.83,7.425,6.602,7.694,.298,.017,.573,.166,.75,.407,.708,.964,2.029,1.434,4.037,1.434h.053c4.047-.017,4.896-1.842,4.954-4.782,.006-.301,.147-.583,.385-.769,.836-.652,1.212-1.775,1.22-3.641,.011-2.632-.722-3.819-2.612-4.233-.315-.069-.578-.286-.705-.583-.614-1.431-1.995-3.329-6.876-3.329Z"/>
  </g>
  <g>
    <circle cx="12.31" cy="17.646" r="1.013"/>
    <circle cx="16.43" cy="16.047" r="1.013"/>
    <circle cx="18.18" cy="10.916" r="1.013"/>
  </g>
</svg>
