<?xml version="1.0" encoding="UTF-8"?>
<svg xmlns="http://www.w3.org/2000/svg" id="Layer_1" data-name="Layer 1" viewBox="0 0 24 24">
  <g>
    <path d="M13.01,8.917c-.633-.314-1.387-.314-2.02,0-.919,.457-1.617,1.155-2.074,2.074-.314,.632-.314,1.387,0,2.02,.457,.919,1.155,1.617,2.074,2.074,.316,.157,.663,.236,1.01,.236s.693-.079,1.01-.236c.919-.457,1.617-1.155,2.074-2.074,.314-.632,.314-1.387,0-2.02-.457-.919-1.155-1.617-2.074-2.074Zm.283,3.203c-.262,.527-.646,.911-1.173,1.173-.073,.037-.165,.037-.238,0-.527-.262-.911-.646-1.173-1.173-.037-.073-.037-.165,0-.238,.262-.527,.646-.911,1.173-1.173,.073-.037,.165-.037,.238,0,.527,.262,.911,.646,1.173,1.173,.037,.073,.037,.165,0,.238Z"/>
    <path d="M22.248,6.629c-.327-1.135-1.271-1.986-2.404-2.167-5.059-.81-10.63-.81-15.688,0-1.133,.181-2.077,1.032-2.404,2.167-.997,3.463-.997,7.278,0,10.741,.327,1.135,1.271,1.986,2.404,2.167,2.529,.405,5.187,.607,7.844,.607s5.315-.202,7.844-.607c1.133-.181,2.077-1.032,2.404-2.167,.997-3.463,.997-7.278,0-10.741Zm-1.922,10.188c-.113,.394-.426,.687-.797,.747-4.855,.776-10.202,.776-15.058,0-.371-.06-.684-.353-.797-.747-.895-3.106-.895-6.528,0-9.634,.113-.394,.426-.687,.797-.747,2.428-.388,4.978-.582,7.529-.582s5.101,.194,7.529,.582c.371,.06,.684,.353,.797,.747,.895,3.106,.895,6.528,0,9.634Z"/>
  </g>
  <circle cx="6.064" cy="8.97" r="1"/>
  <circle cx="6.064" cy="15.033" r="1"/>
  <circle cx="17.936" cy="8.97" r="1"/>
  <circle cx="17.936" cy="15.033" r="1"/>
</svg>
