<?xml version="1.0" encoding="UTF-8"?>
<svg xmlns="http://www.w3.org/2000/svg" id="Layer_1" data-name="Layer 1" viewBox="0 0 24 24">
  <path d="M22.746,15.309c-.189-.212-.461-.334-.746-.334h-.012c.113-1.046,.171-2.089,.171-3.113,0-4.46-1.059-7.748-1.104-7.886-.105-.322-.367-.57-.695-.656-.158-.042-3.916-1.017-8.359-1.017S3.8,3.278,3.642,3.32c-.33,.086-.593,.335-.697,.66-.045,.139-1.103,3.459-1.103,7.882,0,1.027,.056,2.07,.168,3.113h-.01c-.285,0-.556,.122-.746,.333-.189,.212-.279,.496-.248,.779,.313,2.771,.898,4.105,.923,4.161,.132,.296,.4,.51,.719,.573,.182,.036,4.486,.876,9.354,.876s9.17-.84,9.351-.876c.32-.063,.59-.279,.722-.578,.024-.056,.607-1.401,.92-4.155,.032-.283-.058-.567-.247-.779ZM3.842,11.862c0-3.109,.575-5.671,.855-6.737,1.171-.26,4.075-.822,7.303-.822s6.134,.563,7.305,.823c.28,1.058,.854,3.604,.854,6.736,0,1.022-.062,2.066-.183,3.113h-5.422c-.495,0-.916,.363-.989,.853-.015,.103-.031,.197-.048,.284-.776,.131-2.258,.131-3.032,0-.016-.085-.032-.18-.047-.282-.072-.491-.493-.854-.989-.854H4.022c-.12-1.043-.181-2.087-.181-3.113Zm16.565,7.097c-1.308,.222-4.737,.738-8.406,.738s-7.104-.516-8.409-.738c-.123-.401-.295-1.058-.446-1.984h5.481c.043,.172,.076,.276,.084,.298,.105,.323,.367,.57,.696,.657,.049,.013,1.22,.316,2.593,.316s2.543-.303,2.593-.316c.33-.086,.594-.336,.698-.661,.007-.022,.039-.125,.082-.294h5.479c-.151,.924-.322,1.583-.445,1.984Z"/>
</svg>
