<?xml version="1.0" encoding="UTF-8"?>
<svg xmlns="http://www.w3.org/2000/svg" id="Layer_1" data-name="Layer 1" viewBox="0 0 24 24">
  <path d="M15.958,11.467c2.505,0,3.031-1.648,3.031-3.032s-.526-3.031-3.031-3.031-3.032,1.648-3.032,3.031,.526,3.032,3.032,3.032Zm0-4.063c.822,0,1.031,.101,1.031,1.031,0,.91-.207,1.032-1.031,1.032s-1.032-.102-1.032-1.032,.209-1.031,1.032-1.031Z"/>
  <path d="M21.803,3.214c-.104-.324-.364-.573-.692-.662-.172-.046-4.268-1.137-9.11-1.137S3.063,2.506,2.89,2.552c-.329,.089-.591,.34-.693,.665-.049,.155-1.197,3.853-1.197,8.783,0,4.973,1.149,8.633,1.198,8.786,.103,.324,.364,.573,.692,.662,.172,.046,4.267,1.137,9.11,1.137s8.938-1.091,9.109-1.137c.33-.089,.592-.34,.694-.665,.049-.155,1.196-3.853,1.196-8.783,0-4.973-1.148-8.632-1.197-8.786ZM3.956,4.351c1.247-.286,4.472-.936,8.044-.936s6.802,.65,8.045,.936c.302,1.149,.955,4.057,.955,7.648,0,2.512-.325,4.707-.623,6.19-.633-.78-1.402-1.662-2.283-2.522-4.285-4.18-8.482-5.172-8.659-5.213-.209-.047-.43-.026-.627,.061-.141,.062-2.993,1.351-5.673,4.355-.082-.884-.134-1.849-.134-2.871,0-3.564,.655-6.491,.956-7.649Zm-.002,15.298c-.116-.442-.285-1.145-.448-2.048,2.173-3.029,4.904-4.631,5.807-5.105,1.003,.31,4.178,1.476,7.384,4.603,.965,.942,1.794,1.923,2.442,2.743-1.57,.314-4.241,.742-7.139,.742-3.581,0-6.803-.65-8.046-.936Z"/>
</svg>
