<?xml version="1.0" encoding="UTF-8"?>
<svg xmlns="http://www.w3.org/2000/svg" id="Layer_1" data-name="Layer 1" viewBox="0 0 24 24">
  <path d="M22.993,17.384c-.016-.139-.429-3.465-4.165-8.957C15.102,2.948,12.704,1.658,12.443,1.529c-.279-.138-.606-.138-.886,0-.261,.129-2.659,1.419-6.385,6.897C1.436,13.919,1.022,17.245,1.006,17.384c-.027,.235,.031,.472,.162,.668,.124,.185,3.111,4.522,10.832,4.522,7.873,0,10.727-4.356,10.845-4.542,.122-.193,.175-.422,.148-.648Zm-10.993,3.19c-5.541,0-8.175-2.466-8.933-3.337,.22-.956,1.033-3.68,3.758-7.686,2.525-3.712,4.372-5.332,5.174-5.93,.808,.602,2.653,2.222,5.174,5.93,2.738,4.024,3.547,6.755,3.762,7.696-.728,.867-3.289,3.327-8.936,3.327Z"/>
</svg>
