<?xml version="1.0" encoding="UTF-8"?>
<svg xmlns="http://www.w3.org/2000/svg" id="Layer_1" data-name="Layer 1" viewBox="0 0 24 24">
  <path d="M21.042,5.756C18.202,1.541,14.718,1,12,1S5.798,1.541,2.959,5.756c-1.835,2.723-2.12,6.275-.692,8.638,.661,1.095,1.707,1.755,2.945,1.859,1.051,.088,2.122-.235,3.026-.886-.168,.624-.337,.987-.502,1.268-.612,1.045-.812,2.288-.566,3.5,.267,1.307,1.322,2.865,4.83,2.865,4.453,0,4.934-2.72,4.934-3.889,0-.882-.237-1.748-.686-2.504-.164-.276-.332-.632-.499-1.249,1.399,1.035,2.925,.904,3.039,.894,1.238-.104,2.284-.765,2.945-1.858,1.428-2.363,1.143-5.916-.692-8.639Zm-9.042,15.244c-2.612,0-2.807-.952-2.87-1.265-.151-.739-.036-1.462,.333-2.091,.475-.811,.862-1.877,1.187-4.354,.358-.142,.796-.232,1.35-.232,.549,0,.984,.088,1.34,.228,.323,2.477,.711,3.537,1.189,4.342,.266,.447,.406,.96,.406,1.482,0,.517,0,1.889-2.934,1.889Zm8.021-7.64c-.412,.681-.989,.866-1.4,.899-1.398,.113-2.349-1.144-2.349-1.144-.61-.72-1.746-2.058-4.272-2.058s-3.663,1.338-4.272,2.058c0,0-.993,1.299-2.349,1.144-.41-.047-.989-.219-1.4-.9-1.022-1.691-.754-4.42,.639-6.486,2.299-3.413,5.022-3.873,7.382-3.873s5.083,.46,7.383,3.873c1.393,2.066,1.661,4.795,.639,6.487Z"/>
</svg>
