<?xml version="1.0" encoding="UTF-8"?>
<svg xmlns="http://www.w3.org/2000/svg" id="Layer_1" data-name="Layer 1" viewBox="0 0 24 24">
  <path d="M19.988,19.255c-.553,0-1,.447-1,1,0,.411-.335,.745-.747,.745h-.183v-1.575c.954-.44,1.781-1.162,2.354-2.103,1.529-2.514,3.842-6.313,.871-8.938l-2.286-1.8c-.317-.249-.748-.244-1.101-.048s-.547,.625-.5,1.025c.019,.163,.077,.318,.17,.453,.335,.487,.513,1.059,.513,1.651,0,.67-.228,1.288-.61,1.781l-4.336-3.013c-.253-.265-1.024-1.023-2.065-1.591-1.25-.685-2.526-.896-2.58-.904-.332-.056-.674,.065-.9,.316-.04,.044-.976,1.086-1.841,2.664-.871,1.592-1.239,2.931-1.254,2.986-.089,.326-.007,.675,.218,.927,.036,.04,.899,1.001,2.153,1.687l3.295,1.803c-.248,.464-.596,1.056-1.003,1.59h-1.475c-.948,0-1.838-.391-2.441-1.071-.383-.434-.698-.87-.938-1.299-.141-.252-.268-.472-.383-.67-.411-.71-.582-1.018-.676-1.495-.108-.541-.636-.894-1.176-.787-.541,.107-.894,.634-.787,1.176,.163,.823,.476,1.362,.908,2.109,.11,.189,.232,.4,.367,.642,.309,.554,.708,1.108,1.187,1.649,.26,.293,.551,.553,.868,.777-.314,.423-.5,.947-.5,1.513,0,1.402,1.142,2.544,2.544,2.544h2.072c1.402,0,2.544-1.142,2.544-2.544,0-.187-.021-.369-.059-.544h4.639c.07,0,.139-.002,.208-.005v1.092h-1.526c-.553,0-1,.447-1,1s.447,1,1,1h3.709c1.515,0,2.747-1.231,2.747-2.745,0-.553-.447-1-1-1Zm-10.718,1.201c0,.3-.244,.544-.544,.544h-2.072c-.3,0-.544-.244-.544-.544s.244-.544,.544-.544h2.072c.3,0,.544,.244,.544,.544Zm2.288-2.544c.506-.852,.819-1.561,.838-1.606,.208-.475,.019-1.029-.437-1.277l-4.137-2.263c-.506-.277-.934-.62-1.223-.878,.168-.473,.461-1.204,.9-2.007,.438-.798,.898-1.441,1.207-1.84,.375,.104,.896,.281,1.401,.557,.506,.277,.934,.62,1.223,.878-.168,.472-.462,1.204-.901,2.007-.266,.484-.088,1.092,.396,1.357,.484,.267,1.093,.088,1.357-.396,.339-.618,.601-1.197,.796-1.679l2.578,1.791c-.13,.018-.263,.028-.397,.028h-1.095c-.553,0-1,.447-1,1s.447,1,1,1h1.095c2.606,0,4.746-2.037,4.908-4.602,1.448,1.374,.293,3.575-1.398,6.354-.601,.987-1.655,1.576-2.82,1.576h-4.292Z"/>
  <circle cx="12.838" cy="3.678" r="2.677"/>
</svg>
