<?xml version="1.0" encoding="UTF-8"?>
<svg xmlns="http://www.w3.org/2000/svg" id="Layer_1" data-name="Layer 1" viewBox="0 0 24 24">
  <path d="M22,19.673c-.663,0-1.287-.288-1.755-.811-.381-.424-1.109-.424-1.49,0-.936,1.045-2.574,1.045-3.51,0-.381-.424-1.109-.424-1.49,0-.936,1.045-2.574,1.045-3.51,0-.381-.424-1.109-.424-1.49,0-.936,1.045-2.574,1.045-3.51,0-.381-.424-1.109-.424-1.49,0-.468,.522-1.092,.811-1.755,.811-.553,0-1,.447-1,1s.447,1,1,1c.894,0,1.767-.288,2.5-.811,1.467,1.045,3.533,1.045,5,0,1.467,1.045,3.533,1.045,5,0,1.467,1.045,3.533,1.045,5,0,.733,.522,1.606,.811,2.5,.811,.553,0,1-.447,1-1s-.447-1-1-1Z"/>
  <path d="M2,16.614c.894,0,1.767-.288,2.5-.811,1.467,1.045,3.533,1.045,5,0,1.467,1.045,3.533,1.045,5,0,1.467,1.045,3.533,1.045,5,0,.733,.522,1.606,.811,2.5,.811,.553,0,1-.447,1-1s-.447-1-1-1c-.663,0-1.286-.288-1.755-.812-.381-.424-1.109-.424-1.49,0-.938,1.047-2.572,1.047-3.51,0-.381-.424-1.109-.424-1.49,0-.938,1.047-2.572,1.047-3.51,0-.381-.424-1.109-.424-1.49,0-.938,1.047-2.572,1.047-3.51,0-.381-.424-1.109-.424-1.49,0-.469,.523-1.092,.812-1.755,.812-.553,0-1,.447-1,1s.447,1,1,1Z"/>
  <path d="M11.552,11.99c.142,.071,.295,.106,.448,.106s.307-.035,.448-.106c.092-.046,2.256-1.15,3.249-3.359,.227-.504,.002-1.096-.502-1.322-.507-.225-1.096,0-1.322,.502-.224,.499-.543,.923-.873,1.27V3.327c0-.553-.447-1-1-1s-1,.447-1,1v5.753c-.33-.347-.649-.772-.873-1.27-.228-.503-.816-.729-1.322-.502-.504,.227-.729,.818-.502,1.322,.993,2.209,3.157,3.313,3.249,3.359Z"/>
</svg>
