<?xml version="1.0" encoding="UTF-8"?>
<svg xmlns="http://www.w3.org/2000/svg" id="Layer_1" data-name="Layer 1" viewBox="0 0 24 24">
  <path d="M19.389,19.983c-.299-.466-.917-.6-1.382-.302-2.198,1.412-6.469,1.893-9.996,.429,.808-1.475,2.182-4.282,2.253-6.425,.323,0,.647,0,.97,0,.603,0,1.206,0,1.809-.002,.553,0,.999-.45,.998-1.002,0-.552-.448-.998-1-.998h-.002c-1.118,.001-2.236,0-3.354,0-.005-.009-.009-.017-.014-.027-.589-1.145-1.479-2.875-1.419-4.589,.075-1.736,1.033-3.143,2.562-3.765,1.327-.541,2.756-.35,3.642,.482,.546,.512,1.028,1.259,1.36,2.104,.201,.515,.782,.768,1.296,.565,.515-.202,.768-.782,.565-1.296-.444-1.13-1.085-2.109-1.853-2.83-1.453-1.367-3.717-1.712-5.765-.877-2.272,.924-3.695,2.992-3.806,5.539-.062,1.772,.595,3.447,1.19,4.688-.662-.003-1.324-.006-1.986-.01-.54-.009-1.001,.442-1.006,.994-.003,.552,.441,1.003,.994,1.006,.939,.006,1.879,.01,2.819,.013-.08,1.941-1.806,5.185-2.514,6.347-.143,.234-.184,.517-.111,.781,.071,.265,.248,.489,.489,.619,2.032,1.097,4.34,1.568,6.524,1.568,2.513,0,4.861-.624,6.433-1.632,.465-.298,.6-.917,.302-1.382Z"/>
</svg>
