<?xml version="1.0" encoding="UTF-8"?>
<svg xmlns="http://www.w3.org/2000/svg" id="Layer_1" data-name="Layer 1" viewBox="0 0 24 24">
  <path d="M22,20.769h-1.8l-.857-5.255c-.062-.382-.339-.693-.711-.8-.069-.02-1.721-.488-3.665-.488-.989,0-1.904,.127-2.574,.255-.082-.567-.174-1.309-.221-2.068,.578-.124,1.479-.274,2.449-.274,1.643,0,3.084,.429,3.099,.433,.53,.16,1.087-.14,1.247-.667s-.138-1.085-.666-1.246c-.069-.021-1.729-.52-3.68-.52-.925,0-1.785,.112-2.441,.233,.064-.856,.188-1.618,.276-2.083,1.839-.248,2.77-1.423,2.77-3.504,0-2.358-1.195-3.553-3.553-3.553s-3.553,1.195-3.553,3.553c0,1.902,.779,3.048,2.318,3.42-.134,.769-.299,1.971-.299,3.222,0,2.057,.44,4.362,.458,4.459,.053,.277,.222,.519,.464,.665,.241,.147,.534,.184,.805,.104,.012-.004,.995-.292,2.258-.394-.32,3.73-2.373,4.508-5.54,4.508-3.447,0-5.583-.935-5.583-5.585,0-4.411,1.989-5.254,4.138-5.508,.548-.065,.94-.562,.875-1.111s-.566-.936-1.111-.875c-3.972,.47-5.903,2.921-5.903,7.495,0,6.799,4.328,7.585,7.583,7.585,3.059,0,7.098-.692,7.543-6.482,.536,.055,1.005,.137,1.35,.207l.887,5.436c.079,.483,.497,.839,.987,.839h2.65c.552,0,1-.448,1-1s-.448-1-1-1ZM10.119,4.785c0-1.318,.407-1.553,1.553-1.553,1.165,0,1.553,.225,1.553,1.553,0,1.319-.407,1.554-1.553,1.554-1.165,0-1.553-.225-1.553-1.554Z"/>
</svg>
