<?xml version="1.0" encoding="UTF-8"?>
<svg xmlns="http://www.w3.org/2000/svg" id="Layer_1" data-name="Layer 1" viewBox="0 0 24 24">
  <path d="M19.881,21.009c1.445-3.404,2.298-6.415,2.123-10.715-.017-.429-.305-.799-.716-.921-.363-.107-.755-.182-1.18-.227-.74-2.76-2.599-4.39-5.648-4.936,.06-.307,.059-.57,.059-.707-.008-2.17-1.577-2.5-2.512-2.503-.783,.019-1.435,.216-1.869,.65-.643,.643-.64,1.551-.639,1.85,0,.252,.023,.478,.063,.683-3.109,.517-4.983,2.156-5.693,4.968-.417,.045-.799,.117-1.157,.223-.41,.122-.7,.542-.717,.969-.174,4.253,.679,7.263,2.124,10.667-.491,.064-.87,.483-.87,.991,0,.552,.448,1,1,1h15.503c.552,0,1-.448,1-1,0-.508-.379-.928-.87-.991ZM11.944,6.003c4.038,0,5.49,1.477,6.078,3.142-1.003,.108-1.828,.378-2.486,.819-.861-.585-2.015-.872-3.49-.872-.026,0-.054,0-.083,0-1.48,0-2.635,.287-3.497,.872-.665-.445-1.5-.716-2.516-.822,.556-1.667,1.95-3.139,5.995-3.139ZM3.975,11.148c.299-.039,.613-.062,.987-.057,1.35,.005,2.254,.285,2.763,.857,.191,.214,.471,.312,.754,.335,.288-.002,.561-.128,.749-.346,.497-.574,1.414-.871,2.775-.846,1.387-.013,2.271,.272,2.769,.846,.188,.218,.461,.344,.749,.346,.278-.013,.563-.12,.754-.335,.509-.572,1.413-.853,2.764-.857,.34,0,.688,.018,.987,.057,.043,3.616-.746,6.203-2.097,9.338l-.221,.513H6.292l-.221-.513c-1.346-3.124-2.134-5.702-2.096-9.339Z"/>
</svg>
