<?xml version="1.0" encoding="UTF-8"?>
<svg xmlns="http://www.w3.org/2000/svg" id="Layer_1" data-name="Layer 1" viewBox="0 0 24 24">
  <path d="M20.875,5.683c-.08-.352-.342-.633-.687-.737l-.829-.249c-3.455-.918-6.708-3.457-6.741-3.482-.364-.286-.877-.285-1.24,.002-.032,.025-3.195,2.515-6.77,3.489l-.797,.24c-.345,.104-.607,.385-.687,.737-.399,1.763-2.263,10.686,.264,13.243,2.415,2.443,8.113,3.976,8.354,4.041,.125,.034,.328,.052,.514,0,.24-.067,5.939-1.598,8.354-4.041,2.526-2.557,.663-11.48,.264-13.243Zm-1.687,11.837c-1.598,1.617-5.508,2.967-7.188,3.443-1.681-.477-5.591-1.827-7.188-3.443-1.238-1.253-.686-6.891,.141-10.829l.208-.063c2.998-.816,5.671-2.551,6.841-3.383,1.182,.84,3.889,2.6,6.813,3.376l.234,.07c.827,3.938,1.379,9.575,.14,10.829Z"/>
  <path d="M15.268,9.877c-.49-.252-1.093-.061-1.347,.431-.848,1.645-1.915,2.593-2.511,3.032-.424-.3-1.023-.776-1.413-1.308-.326-.444-.95-.543-1.397-.217-.446,.326-.543,.951-.217,1.397,.902,1.234,2.453,2.146,2.519,2.184,.155,.09,.329,.136,.503,.136,.154,0,.309-.036,.451-.107,.092-.047,2.286-1.181,3.842-4.2,.253-.491,.061-1.094-.431-1.347Z"/>
</svg>
