<?xml version="1.0" encoding="UTF-8"?>
<svg xmlns="http://www.w3.org/2000/svg" id="Layer_1" data-name="Layer 1" viewBox="0 0 24 24">
  <path d="M21.266,2.666C18.979,.441,12.558,.099,8.343,4.211c-2.818,2.964-2.776,6.626,.053,9.94L1.292,21.271c-.39,.391-.389,1.023,.001,1.414,.195,.194,.451,.292,.707,.292s.513-.098,.708-.294l7.098-7.114c1.68,1.454,3.42,2.185,5.119,2.185,1.675,0,3.31-.711,4.804-2.139,.009-.009,.018-.018,.027-.026,4.315-4.451,3.767-10.726,1.51-12.923Zm-2.933,11.517c-3.027,2.878-5.931,1.206-7.836-.702-1.917-1.922-3.595-4.851-.731-7.865,1.925-1.878,4.404-2.585,6.473-2.585,1.611,0,2.973,.429,3.631,1.069,1.454,1.414,1.982,6.438-1.537,10.083Z"/>
</svg>
