<?xml version="1.0" encoding="UTF-8"?>
<svg xmlns="http://www.w3.org/2000/svg" id="Layer_1" data-name="Layer 1" viewBox="0 0 24 24">
  <path d="M21.076,2.134c.074-.547-.31-1.051-.856-1.125-.547-.078-1.052,.309-1.126,.856-.012,.088-1.252,8.745-7.094,10.125C6.177,10.614,4.918,1.953,4.906,1.865c-.076-.547-.579-.934-1.127-.855-.547,.075-.93,.578-.855,1.125,.046,.335,.957,6.663,5.028,10.012h-1.526c-.553,0-1,.448-1,1s.447,1,1,1h4.574v1.772H6.426c-.553,0-1,.448-1,1s.447,1,1,1h4.574v4.081c0,.552,.447,1,1,1s1-.448,1-1v-4.081h4.574c.553,0,1-.448,1-1s-.447-1-1-1h-4.574v-1.772h4.574c.553,0,1-.448,1-1s-.447-1-1-1h-1.526c4.071-3.349,4.982-9.677,5.028-10.012Z"/>
</svg>
