<?xml version="1.0" encoding="UTF-8"?>
<svg xmlns="http://www.w3.org/2000/svg" id="Layer_1" data-name="Layer 1" viewBox="0 0 24 24">
  <path d="M21.134,21.872c-.293-2.264-.755-3.729-.774-3.791-.104-.324-.364-.573-.692-.662-.018-.005-.086-.023-.2-.051,.873-3.171,1.686-9.498-3.663-14.211-2.421-2.133-5.233-2.157-5.352-2.157-.497,0-.919,.365-.99,.857-.215,1.493-.733,2.036-2.52,2.64l-1.89,.639c-.191,.064-.358,.185-.479,.346-.894,1.189-.894,3.9,0,5.09,.189,.251,.485,.399,.799,.399h4.271c-.375,.96-1.048,1.604-1.359,1.864-.734,.092-1.453,.214-2.139,.364-.28,.062-.52,.24-.66,.49-.032,.056-.77,1.4-.77,3.166,0,.093,.003,.271,.008,.468-.229,.054-.365,.09-.391,.097-.33,.089-.591,.339-.694,.665-.02,.062-.479,1.534-.772,3.787-.037,.285,.051,.573,.24,.789,.19,.216,.464,.34,.751,.34H20.142c.287,0,.562-.124,.751-.34,.189-.216,.277-.503,.241-.788Zm-14.418-5.018c0-.756,.195-1.41,.345-1.802,.558-.108,1.137-.196,1.727-.263,.159-.018,.312-.074,.444-.164,.099-.066,2.415-1.652,2.657-4.572,.023-.278-.071-.554-.261-.76s-.456-.323-.736-.323H6.004c-.151-.596-.133-1.554,.053-2.064l1.525-.516c1.824-.617,3.103-1.418,3.655-3.295,.804,.152,2.091,.546,3.244,1.562,4.591,4.046,3.791,9.598,3.022,12.302-1.406-.246-3.369-.498-5.505-.498-2.023,0-3.895,.227-5.283,.46,0-.026,0-.05,0-.069Zm-1.694,4.146c.134-.768,.275-1.379,.378-1.781,1.096-.247,3.705-.756,6.6-.756s5.506,.51,6.602,.757c.103,.4,.245,1.011,.379,1.78H5.021Z"/>
</svg>
