<?xml version="1.0" encoding="UTF-8"?>
<svg xmlns="http://www.w3.org/2000/svg" id="Layer_1" data-name="Layer 1" viewBox="0 0 24 24">
  <path d="M18.281,14.178c1.925-.727,2.993-1.986,2.993-3.656,0-2.283-1.996-3.798-5.447-4.236,.271-.491,.416-1.066,.416-1.708,0-2.173-1.662-3.578-4.233-3.578s-4.233,1.404-4.233,3.578c0,.967,.329,1.781,.921,2.388-1.766,.74-2.742,1.96-2.742,3.556,0,1.154,.51,2.112,1.46,2.833-2.997,.744-4.691,2.346-4.691,4.589,0,3.166,3.373,5.056,9.021,5.056s9.021-1.89,9.021-5.056h0c0-1.614-.877-2.897-2.486-3.766ZM12.011,3c.834,0,2.233,.205,2.233,1.578s-1.399,1.577-2.233,1.577-2.233-.205-2.233-1.577,1.399-1.578,2.233-1.578Zm1.605,5.155c3.438,0,5.659,.929,5.659,2.367s-2.221,2.367-5.659,2.367-5.659-.929-5.659-2.367,2.221-2.367,5.659-2.367Zm-1.87,12.845c-4.265,0-7.021-1.199-7.021-3.056s2.756-3.056,7.021-3.056c2.251,0,4.11,.328,5.375,.948,1.646,.807,1.646,1.786,1.646,2.107,0,1.856-2.756,3.056-7.021,3.056Z"/>
</svg>
