<?xml version="1.0" encoding="UTF-8"?>
<svg xmlns="http://www.w3.org/2000/svg" id="Layer_1" data-name="Layer 1" viewBox="0 0 24 24">
  <path d="M12,1C6.878,1,1,2.25,1,12s5.878,11,11,11,11-1.25,11-11S17.122,1,12,1Zm0,20c-5.402,0-9-1.53-9-9S6.598,3,12,3s9,1.53,9,9-3.598,9-9,9Z"/>
  <path d="M12,5c-4.743,0-7,1.048-7,7s2.257,7,7,7,7-1.048,7-7-2.257-7-7-7Zm4.804,4.429l-2.395,.905-1.409-1.024v-2.296c2.34,.078,3.408,.523,3.804,2.415Zm-5.475,3.691l-.415-1.276,1.085-.788,1.085,.788-.415,1.276h-1.342Zm-.329-6.106v2.296l-1.413,1.026-2.392-.904c.396-1.894,1.464-2.34,3.805-2.418Zm-3.995,4.485l1.932,.73,.574,1.767-1.483,2.215c-.769-.682-1.028-1.934-1.028-4.211,0-.173,.002-.34,.005-.501Zm2.96,5.415l1.201-1.794h1.683l1.201,1.793c-.575,.067-1.252,.087-2.049,.087-.79,0-1.464-.02-2.036-.086Zm6.017-.711l-1.488-2.221,.571-1.757,1.931-.729c.003,.163,.005,.33,.005,.505,0,2.268-.256,3.519-1.019,4.203Z"/>
</svg>
