<?xml version="1.0" encoding="UTF-8"?>
<svg xmlns="http://www.w3.org/2000/svg" id="Layer_1" data-name="Layer 1" viewBox="0 0 24 24">
  <path d="M22.995,17.321c-.055-.549-.548-.951-1.095-.895-.918,.092-1.735,.222-2.387,.344,.224-1.15,.462-2.83,.462-4.77,0-3.613-.812-6.28-.848-6.392-.101-.325-.359-.576-.688-.667-.121-.034-3.019-.829-6.44-.829-1.902,0-3.645,.247-4.838,.471,.124-.639,.253-1.441,.343-2.36,.054-.55-.348-1.039-.897-1.093-.559-.056-1.04,.348-1.093,.897-.133,1.358-.36,2.443-.507,3.052-.631,.144-1.757,.369-3.107,.504-.549,.055-.95,.546-.895,1.095,.052,.516,.487,.9,.994,.9,.033,0,.067-.001,.101-.005,.918-.092,1.735-.221,2.387-.344-.224,1.15-.462,2.83-.462,4.77,0,3.613,.813,6.28,.848,6.392,.101,.325,.359,.576,.687,.667,.122,.034,3.019,.829,6.441,.829,1.902,0,3.645-.247,4.838-.471-.124,.639-.253,1.441-.343,2.36-.054,.55,.348,1.039,.897,1.093,.033,.003,.066,.005,.099,.005,.509,0,.943-.386,.994-.902,.133-1.358,.36-2.443,.507-3.052,.632-.144,1.758-.369,3.107-.504,.55-.055,.95-.546,.896-1.095Zm-16.354-.056c-.22-.904-.617-2.87-.617-5.266,0-2.378,.398-4.356,.618-5.266,.955-.217,3.045-.622,5.357-.622s4.403,.405,5.359,.623c.219,.904,.616,2.87,.616,5.266,0,2.378-.398,4.355-.618,5.266-.957,.217-3.054,.623-5.357,.623s-4.403-.405-5.359-.623Z"/>
</svg>
