<?xml version="1.0" encoding="UTF-8"?>
<svg xmlns="http://www.w3.org/2000/svg" id="Layer_1" data-name="Layer 1" viewBox="0 0 24 24">
  <path d="M22.933,10.809c.191-.957-.022-1.928-.602-2.733-1.177-1.637-3.56-2.086-5.311-1.004-1.363,.84-3.146,1.303-5.02,1.303s-3.657-.463-5.02-1.303c-1.75-1.083-4.134-.632-5.311,1.004-.58,.805-.793,1.776-.602,2.733,.173,.864,.653,1.62,1.366,2.162-1.181,1.679-1.033,4.038,.445,5.546,2.656,2.712,6.102,3.078,9.122,3.078s6.466-.366,9.122-3.078c1.478-1.508,1.626-3.867,.445-5.546,.714-.543,1.193-1.298,1.366-2.162ZM3.293,9.244c.566-.788,1.773-1.004,2.637-.469,1.676,1.032,3.832,1.601,6.07,1.601s4.396-.568,6.07-1.602c.877-.541,2.061-.331,2.637,.47,.252,.35,.346,.767,.265,1.173-.087,.437-.362,.816-.773,1.07-.068,.042-.137,.083-.206,.124-1.407-.687-3.127-.453-4.752,.711-.365,.262-1.767,.743-3.222,.771-1.492-.027-2.894-.509-3.259-.77-1.623-1.165-3.344-1.399-4.75-.712-.069-.041-.138-.082-.207-.124-.412-.253-.687-.633-.773-1.07-.082-.407,.012-.823,.264-1.173Zm16.4,7.874c-2.132,2.177-4.958,2.478-7.693,2.478s-5.561-.3-7.693-2.478c-.887-.905-.887-2.377,0-3.282,.438-.447,.92-.61,1.391-.61,.735,0,1.441,.397,1.896,.724,.869,.622,2.755,1.114,4.424,1.145,1.632-.03,3.518-.522,4.387-1.145,.746-.534,2.166-1.26,3.287-.113,0,0,0,0,0,0,.887,.905,.887,2.377,0,3.282Z"/>
  <path d="M12,5.693c.552,0,1-.448,1-1v-1.288c0-.552-.448-1-1-1s-1,.448-1,1v1.288c0,.552,.448,1,1,1Z"/>
  <path d="M16.438,6.255c.552,0,1-.448,1-1v-1.288c0-.552-.448-1-1-1s-1,.448-1,1v1.288c0,.552,.448,1,1,1Z"/>
  <path d="M7.562,6.255c.552,0,1-.448,1-1v-1.288c0-.552-.448-1-1-1s-1,.448-1,1v1.288c0,.552,.448,1,1,1Z"/>
</svg>
