<?xml version="1.0" encoding="UTF-8"?>
<svg xmlns="http://www.w3.org/2000/svg" id="Layer_1" data-name="Layer 1" viewBox="0 0 24 24">
  <path d="M12,1C6.878,1,1,2.25,1,12s5.878,11,11,11,11-1.25,11-11S17.122,1,12,1Zm.11,20c-.037,0-.184,0-.221,0-.972-.006-2.632-.166-3.305-4.436h6.831c-.673,4.27-2.333,4.43-3.305,4.436Zm-3.743-6.436c-.052-.761-.08-1.612-.08-2.564s.028-1.803,.08-2.564h7.264c.052,.761,.08,1.612,.08,2.564s-.028,1.803-.08,2.564h-7.264Zm-5.368-2.564c0-.947,.058-1.799,.17-2.564h3.188c-.052,.855-.07,1.72-.07,2.564,0,.859,.017,1.721,.065,2.564H3.17c-.112-.765-.17-1.617-.17-2.564ZM11.878,3c.04,0,.203,0,.243,0,.974,.007,2.623,.182,3.294,4.436h-6.831c.67-4.253,2.32-4.429,3.294-4.436Zm5.768,6.436h3.183c.112,.765,.17,1.617,.17,2.564s-.058,1.799-.17,2.564h-3.188c.052-.855,.07-1.72,.07-2.564,0-.859-.017-1.721-.065-2.564Zm2.705-2h-2.892c-.202-1.48-.553-2.83-1.146-3.908,1.876,.59,3.277,1.758,4.038,3.908ZM7.736,3.513c-.61,1.091-.972,2.455-1.181,3.923H3.649c.768-2.169,2.187-3.339,4.088-3.923ZM3.649,16.564h2.892c.202,1.48,.553,2.83,1.146,3.908-1.876-.59-3.277-1.758-4.038-3.908Zm12.615,3.923c.61-1.091,.972-2.455,1.181-3.923h2.906c-.768,2.169-2.187,3.339-4.088,3.923Z"/>
</svg>
