<?xml version="1.0" encoding="UTF-8"?>
<svg xmlns="http://www.w3.org/2000/svg" id="Layer_1" data-name="Layer 1" viewBox="0 0 24 24">
  <path d="M19.303,8.977c-.089-4.032-3.336-7.284-7.315-7.284-4.035,0-7.318,3.344-7.318,7.454,0,.27,.015,.539,.043,.807-2.151,.613-3.712,2.622-3.712,4.986,0,1.602,.711,3.087,1.95,4.076,.185,.147,.404,.219,.623,.219,.294,0,.585-.129,.782-.376,.345-.432,.274-1.062-.157-1.405-.762-.608-1.198-1.524-1.198-2.514,0-1.69,1.284-3.084,2.925-3.174,.298-.016,.573-.165,.751-.405,.177-.241,.237-.548,.164-.838-.113-.448-.171-.911-.171-1.376,0-3.008,2.386-5.454,5.318-5.454s5.317,2.446,5.317,5.454c0,.164-.008,.325-.021,.484-.045,.506,.297,.965,.794,1.067,1.693,.35,2.923,1.895,2.923,3.673,0,1.079-.453,2.105-1.243,2.817-.411,.37-.443,1.002-.074,1.412,.369,.412,1.004,.442,1.412,.074,1.211-1.091,1.905-2.659,1.905-4.304,0-2.429-1.513-4.575-3.697-5.395Z"/>
  <path d="M12.714,10.058c-.377-.403-1.051-.403-1.428,0-.173,.186-4.254,4.614-5.552,10.191-.128,.553,.185,1.115,.706,1.266,1.818,.529,3.688,.793,5.56,.793s3.741-.264,5.56-.793c.521-.151,.834-.713,.706-1.266-1.298-5.577-5.379-10.005-5.552-10.191Zm-1.714,3.754c0-.553,.447-1,1-1s1,.447,1,1v2.873c0,.553-.447,1-1,1s-1-.447-1-1v-2.873Zm1,7.225c-.553,0-1.001-.448-1.001-1.001s.448-1.001,1.001-1.001,1.001,.448,1.001,1.001-.448,1.001-1.001,1.001Z"/>
</svg>
