<?xml version="1.0" encoding="UTF-8"?>
<svg xmlns="http://www.w3.org/2000/svg" id="Layer_1" data-name="Layer 1" viewBox="0 0 24 24">
  <path d="M20.67,5.144c-.501-.639-.558-1.492-.113-2.226,.26-.477,.089-1.068-.382-1.34-.471-.272-1.074-.112-1.356,.353-.853,1.4-.743,3.146,.279,4.448,2.383,3.033,3.014,7.823-.875,11.766-.611,.161-2.614,.603-6.223,.603-3.58,0-5.603-.441-6.221-.603-2.757-2.833-4.183-7.653-.888-11.771,1.032-1.289,1.145-3.037,.284-4.453-.285-.473-.9-.623-1.373-.336-.473,.286-.623,.901-.336,1.373,.418,.69,.365,1.54-.136,2.166-3.958,4.945-2.38,11.101,1.225,14.625,.107,.105,.237,.185,.38,.232,.018,.006,.12,.04,.307,.089v1.008c0,.553,.447,1,1,1s1-.447,1-1v-.626c.521,.072,1.133,.14,1.839,.192v.916c0,.553,.447,1,1,1s1-.447,1-1v-.823c.295,.006,.601,.01,.919,.01s.624-.003,.919-.009v.823c0,.553,.447,1,1,1s1-.447,1-1v-.915c.707-.052,1.318-.119,1.839-.19v.624c0,.553,.447,1,1,1s1-.447,1-1v-1.007c.191-.051,.294-.086,.312-.092,.141-.049,.268-.127,.374-.229,4.943-4.816,4.101-10.948,1.226-14.607Z"/>
  <path d="M12,12.094c.553,0,1-.447,1-1V7.017c0-.553-.447-1-1-1s-1,.447-1,1v4.077c0,.553,.447,1,1,1Z"/>
  <path d="M12,13.523c-.552,0-.999,.447-.999,.999s.447,.999,.999,.999,.999-.447,.999-.999-.447-.999-.999-.999Z"/>
</svg>
