<?xml version="1.0" encoding="UTF-8"?>
<svg xmlns="http://www.w3.org/2000/svg" id="Layer_1" data-name="Layer 1" viewBox="0 0 24 24">
  <path d="M12.006,3.212C6.888,3.212,1.155,4.343,1,12.323c.047,2.322,.562,5.382,1.607,6.983,.667,1.021,1.849,1.567,3.089,1.426,1.23-.14,2.254-.932,2.671-2.067,.6-1.639,1.757-2.41,3.625-2.424,1.845,.015,3.036,.823,3.643,2.472,.415,1.126,1.57,2.077,3.041,2.077,1.09,0,2.099-.53,2.696-1.438,1.06-1.607,1.581-4.688,1.628-7.067-.152-7.984-6.09-9.072-10.994-9.072Zm7.696,15.039c-.256,.387-.702,.585-1.186,.529-.475-.055-.85-.338-1.005-.759-.89-2.417-2.844-3.759-5.52-3.781-2.713,.021-4.616,1.313-5.503,3.736-.157,.426-.538,.713-1.02,.769-.486,.053-.934-.144-1.188-.532-.695-1.065-1.234-3.559-1.282-5.89,.114-5.877,3.528-7.079,9-7.11,6.38,.039,8.903,2.033,9,7.071-.048,2.39-.594,4.899-1.298,5.968Z"/>
  <path d="M9.431,10.989l-.495-.495,.495-.495c.39-.39,.391-1.023,0-1.414s-1.024-.39-1.414,0l-.495,.495-.495-.495c-.391-.391-1.024-.39-1.414,0s-.391,1.023,0,1.414l.495,.495-.495,.495c-.39,.39-.391,1.023,0,1.414s1.024,.39,1.414,0l.495-.495,.495,.495c.391,.391,1.024,.39,1.414,0s.391-1.023,0-1.414Z"/>
  <circle cx="16.28" cy="8.599" r="1"/>
  <circle cx="18.18" cy="10.497" r="1"/>
  <circle cx="16.28" cy="12.392" r="1"/>
  <circle cx="14.38" cy="10.497" r="1"/>
</svg>
