<?xml version="1.0" encoding="UTF-8"?>
<svg xmlns="http://www.w3.org/2000/svg" id="Layer_1" data-name="Layer 1" viewBox="0 0 24 24">
  <path d="M19.698,10.485c.108-.459,.162-.973,.162-1.553,0-2.668-1.142-4.119-3.484-4.411-.287-2.368-1.724-3.521-4.376-3.521s-4.089,1.154-4.376,3.521c-2.342,.292-3.484,1.743-3.484,4.411,0,.577,.055,1.09,.166,1.549-.247,.239-.364,.599-.278,.955,1.714,7.072,7.143,11.193,7.373,11.365,.177,.132,.388,.199,.598,.199s.421-.066,.598-.199c.23-.172,5.659-4.293,7.373-11.365,.086-.355-.029-.712-.274-.951Zm-1.838-1.553c0,.352-.026,.665-.076,.937-1.575-.345-3.173-.547-4.774-.607-.006-.107-.009-.217-.009-.331,0-2.097,.784-2.466,2.43-2.466s2.43,.369,2.43,2.466ZM12,3c1.527,0,2.169,.377,2.363,1.538-1.023,.148-1.809,.525-2.363,1.137-.554-.612-1.34-.989-2.363-1.137,.193-1.16,.837-1.538,2.363-1.538Zm-3.43,3.466c1.646,0,2.43,.369,2.43,2.466,0,.114-.003,.224-.008,.33-1.601,.06-3.198,.262-4.772,.606-.053-.273-.079-.585-.079-.937,0-2.097,.784-2.466,2.43-2.466Zm3.43,14.23c-1.301-1.158-4.377-4.262-5.767-8.78,3.792-.897,7.741-.897,11.533,0-1.39,4.519-4.465,7.622-5.767,8.78Z"/>
</svg>
