<?xml version="1.0" encoding="UTF-8"?>
<svg xmlns="http://www.w3.org/2000/svg" id="Layer_1" data-name="Layer 1" viewBox="0 0 24 24">
  <path d="M12,4.074c.552,0,1-.448,1-1v-1.074c0-.552-.448-1-1-1s-1,.448-1,1v1.074c0,.552,.448,1,1,1Z"/>
  <path d="M14.908,4.241c.257,0,.513-.098,.708-.294l.756-.759c.39-.392,.388-1.024-.003-1.414-.392-.39-1.024-.388-1.414,.003l-.756,.759c-.39,.392-.388,1.024,.003,1.414,.195,.194,.45,.292,.706,.292Z"/>
  <path d="M8.383,3.946c.195,.196,.452,.294,.708,.294,.255,0,.51-.097,.706-.292,.391-.39,.393-1.022,.003-1.414l-.756-.759c-.389-.391-1.022-.393-1.414-.003-.391,.39-.393,1.022-.003,1.414l.756,.759Z"/>
  <path d="M22.377,21.041c-.078-.546-.588-.924-1.131-.848l-1.865,.267-.357-2.591c1.965-.709,3.33-2.625,3.297-4.821l-.253-6.68c-.011-.291-.149-.563-.377-.745-.17-.135-1.779-1.316-5.477-.787-2.157,.308-3.471,.983-4.214,1.523-.743-.54-2.057-1.215-4.214-1.523-3.698-.532-5.306,.65-5.477,.787-.228,.182-.366,.454-.377,.745l-.253,6.702c-.033,2.177,1.332,4.091,3.297,4.799l-.357,2.591-1.865-.267c-.542-.08-1.054,.301-1.131,.848-.078,.547,.301,1.053,.848,1.131,0,0,5.655,.828,5.863,.828,.489,0,.917-.36,.988-.858,.078-.547-.301-1.053-.848-1.131l-1.875-.268,.356-2.589c2.103-.119,3.902-1.562,4.474-3.726l.57-2.4,.576,2.424c.567,2.143,2.365,3.583,4.468,3.701l.356,2.589-1.875,.268c-.547,.078-.926,.584-.848,1.131,.071,.499,.499,.858,.988,.858,.17,0,5.863-.828,5.863-.828,.547-.078,.926-.584,.848-1.131Zm-5.88-14.226c1.92-.274,3.065,.004,3.594,.205l.09,2.374h-6.751l-.324-1.363c.46-.352,1.484-.943,3.392-1.216Zm-8.994,0c1.916,.274,2.94,.869,3.392,1.213l-.324,1.365H3.819l.09-2.371c.539-.206,1.683-.481,3.594-.208Zm-1.273,9.315c-1.478-.211-2.574-1.514-2.552-3.008l.065-1.728h6.352l-.605,2.547c-.392,1.482-1.767,2.399-3.26,2.189Zm8.286-2.165l-.611-2.571h6.352l.065,1.706c.023,1.517-1.074,2.819-2.551,3.031-1.491,.212-2.868-.707-3.254-2.165Z"/>
</svg>
