<?xml version="1.0" encoding="UTF-8"?>
<svg xmlns="http://www.w3.org/2000/svg" id="Layer_1" data-name="Layer 1" viewBox="0 0 24 24">
  <path d="M12.122,17.459l-1.527-9.539c.544-.01,.981-.454,.981-1,0-.42-.259-.779-.626-.927,.466-2.04,.463-2.119,.458-2.262-.017-.464-.351-.856-.806-.945-.453-.089-1.381-.218-2.37-.276v-.272c0-.552-.447-1-1-1s-1,.448-1,1v.273c-.982,.059-1.906,.187-2.36,.276-.456,.089-.79,.481-.807,.946-.005,.137-.008,.22,.452,2.261-.369,.147-.629,.507-.629,.929,0,.547,.44,.992,.985,1l-1.528,9.538c-.269,.071-.496,.251-.626,.497-.029,.055-.719,1.372-.719,3.102,0,.288,.02,.564,.05,.824,.06,.503,.486,.882,.993,.882H12.42c.507,0,.934-.379,.993-.883,.03-.26,.05-.536,.05-.824,0-1.744-.691-3.051-.721-3.105-.131-.243-.355-.42-.62-.492Zm-3.553-9.539l1.467,9.163c-1.857-.24-3.749-.24-5.606,0l1.468-9.163h2.671Zm.643-3.318c-.086,.387-.191,.851-.298,1.318h-3.363c-.105-.467-.209-.931-.294-1.318,1.209-.137,2.755-.137,3.955,0ZM3.009,20.763c.039-.612,.188-1.135,.31-1.471,2.57-.52,5.257-.52,7.827,0,.121,.334,.271,.855,.309,1.47H3.009Z"/>
  <path d="M22.411,18.327c-.061-.125-.146-.235-.249-.323,.066-.595,.101-1.19,.101-1.775,0-1.276-.157-2.63-.279-3.489,.226-.183,.371-.463,.371-.777v-1.722c0-.552-.447-1-1-1s-1,.448-1,1v.722h-1.599v-.722c0-.552-.447-1-1-1s-1,.448-1,1v.722h-1.599v-.722c0-.552-.447-1-1-1s-1,.448-1,1v1.722c0,.314,.145,.595,.372,.778-.024,.168-.049,.354-.074,.555l.407,2.606c.067,.067,.125,.145,.171,.231l.47,.871c.122,.227,.608,1.197,.838,2.589,.647-.07,1.504-.136,2.415-.136,1.24,0,2.379,.123,3.025,.209,.083,.274,.171,.655,.205,1.098h-5.529c.003,.097,.005,.194,.005,.293,0,.37-.024,.725-.063,1.059l-.077,.648h6.642c.511,0,.939-.385,.994-.894,.025-.234,.041-.482,.041-.741,0-1.544-.528-2.678-.589-2.802Zm-2.215-.744c-.676-.068-1.528-.127-2.44-.127s-1.764,.059-2.441,.127c-.044-.453-.066-.907-.066-1.354,0-1.171,.155-2.47,.269-3.267h4.476c.114,.793,.269,2.087,.269,3.267,0,.446-.023,.899-.067,1.354Z"/>
</svg>
