<?xml version="1.0" encoding="UTF-8"?>
<svg xmlns="http://www.w3.org/2000/svg" id="Layer_1" data-name="Layer 1" viewBox="0 0 24 24">
  <path d="M20.634,4.661c-.042,.013-.142,.035-.334,.035-.223,0-.317-.029-.333-.023-.013-.029-.047-.13-.047-.363s.035-.335,.03-.346c.026-.011,.121-.041,.35-.041,.195,0,.294,.021,.336,.035,.376,.118,.787,.003,1.049-.294,.261-.296,.322-.719,.157-1.078-.729-1.586-2.42-1.586-2.976-1.586-2.137,0-2.951,1.105-3.203,2.31h-7.326c-.252-1.205-1.066-2.31-3.203-2.31-.555,0-2.241,0-2.974,1.584-.165,.359-.104,.782,.156,1.079,.262,.297,.675,.414,1.05,.295,.042-.013,.142-.035,.334-.035,.223,0,.323,.032,.333,.023,.013,.029,.047,.13,.047,.363s-.035,.335-.03,.346c-.026,.011-.121,.041-.35,.041-.195,0-.294-.021-.336-.035-.375-.118-.788-.002-1.049,.294-.261,.296-.322,.719-.157,1.078,.729,1.586,2.42,1.586,2.976,1.586,2.137,0,2.951-1.105,3.203-2.31h7.326c.252,1.205,1.066,2.31,3.203,2.31,.555,0,2.241,0,2.974-1.584,.165-.359,.104-.782-.156-1.079-.262-.297-.676-.413-1.05-.295Z"/>
  <path d="M19.903,14.789c-.075-3.61-1.399-5.923-1.456-6.022-.127-.218-.332-.38-.573-.453-.113-.035-2.825-.85-5.873-.85s-5.759,.815-5.873,.85c-.243,.074-.449,.238-.576,.458-.058,.101-1.378,2.438-1.453,6.018-.291,.14-.501,.416-.553,.744-.006,.033-.127,.81-.127,1.832,0,1.031,.122,1.801,.127,1.833,.069,.435,.415,.772,.851,.833,.02,.003,.098,.013,.227,.03v.412c0,1.394,1.13,2.528,2.52,2.528,1.377,0,2.499-1.115,2.518-2.493,.762,.038,1.556,.062,2.342,.062s1.579-.024,2.342-.062c.019,1.378,1.141,2.493,2.518,2.493,1.39,0,2.52-1.134,2.52-2.528v-.412c.128-.016,.205-.027,.226-.03,.437-.06,.783-.399,.852-.834,.006-.033,.127-.811,.127-1.832,0-1.03-.122-1.801-.127-1.833-.053-.328-.263-.603-.553-.743ZM7.114,10.115c.823-.211,2.788-.652,4.886-.652s4.064,.442,4.888,.653c.296,.649,.882,2.173,.998,4.263-1.494-.244-3.716-.532-5.886-.532s-4.39,.288-5.885,.532c.117-2.078,.704-3.611,1-4.264Zm-1.671,8.03c-.015-.226-.026-.491-.026-.781,0-.312,.014-.599,.03-.836,.493-.092,1.214-.216,2.063-.334v.295c0,.552,.447,1,1,1s1-.448,1-1v-.523c.81-.071,1.659-.118,2.489-.118s1.68,.047,2.489,.118v.524c0,.552,.447,1,1,1s1-.448,1-1v-.296c.85,.117,1.571,.242,2.063,.334,.017,.237,.03,.523,.03,.837,0,.289-.012,.554-.026,.781-1.296,.15-4.006,.424-6.557,.424s-5.263-.274-6.557-.424Z"/>
</svg>
