<?xml version="1.0" encoding="UTF-8"?>
<svg xmlns="http://www.w3.org/2000/svg" id="Layer_1" data-name="Layer 1" viewBox="0 0 24 24">
  <circle cx="8.615" cy="10.821" r=".995"/>
  <g>
    <path d="M15.721,8.175C15.721,1.744,11.665,1,8.614,1S1.508,1.744,1.508,8.175s4.056,7.175,7.106,7.175,7.106-.744,7.106-7.175Zm-12.212,0c0-4.31,1.954-5.175,5.106-5.175s5.106,.865,5.106,5.175-1.954,5.175-5.106,5.175-5.106-.865-5.106-5.175Z"/>
    <path d="M19.112,11.745c-1.625,0-3.022,1.175-3.321,2.793-.101,.543,.258,1.064,.801,1.165,.543,.104,1.064-.26,1.166-.802,.124-.67,.694-1.156,1.354-1.156,.761,0,1.379,.641,1.379,1.429s-.619,1.428-1.379,1.428H9.727c-.552,0-1,.447-1,1s.448,1,1,1h6.207c.637,0,1.155,.538,1.155,1.199s-.518,1.199-1.155,1.199c-.446,0-.857-.271-1.047-.691-.227-.504-.819-.728-1.323-.5-.503,.227-.727,.819-.5,1.322,.513,1.136,1.639,1.869,2.87,1.869,1.74,0,3.155-1.436,3.155-3.199,0-.424-.082-.829-.23-1.199h.254c1.863,0,3.379-1.538,3.379-3.428s-1.516-3.429-3.379-3.429Z"/>
    <path d="M8.614,8.617c.552,0,1-.447,1-1v-2.365c0-.553-.448-1-1-1s-1,.447-1,1v2.365c0,.553,.448,1,1,1Z"/>
    <path d="M10.015,19.704h-3.553c-.552,0-1,.447-1,1s.448,1,1,1h3.553c.552,0,1-.447,1-1s-.448-1-1-1Z"/>
  </g>
</svg>
