<?xml version="1.0" encoding="UTF-8"?>
<svg xmlns="http://www.w3.org/2000/svg" id="Layer_1" data-name="Layer 1" viewBox="0 0 24 24">
  <path d="M21.98,10.979c-5.608-.249-8.004-2.928-8.009-8.961,0-.536-.423-.976-.959-.998-.331-.014-.668-.021-1.013-.021C6.908,1,1.063,2.25,1.063,12c0,7.505,3.475,11,10.937,11,5.092,0,10.937-1.25,10.937-11.021,0-.535-.421-.976-.956-.999Zm-9.98,10.021c-6.348,0-8.937-2.607-8.937-9C3.063,4.533,6.633,3.001,11.994,3c.282,6.092,3.211,9.345,8.924,9.909-.284,6.687-3.779,8.091-8.918,8.091Z"/>
  <g>
    <circle cx="9.03" cy="10.339" r="1.001"/>
    <circle cx="7.88" cy="16.156" r="1.001"/>
    <circle cx="13.65" cy="14.99" r="1.001"/>
    <circle cx="20.27" cy="7.736" r="1.001"/>
    <circle cx="17.58" cy="3.946" r="1.001"/>
  </g>
</svg>
