<?xml version="1.0" encoding="UTF-8"?>
<svg xmlns="http://www.w3.org/2000/svg" id="Layer_1" data-name="Layer 1" viewBox="0 0 24 24">
  <path d="M21.81,20.558c-1.268-5.211-4.188-9.157-6.414-11.55-.189-.203-.454-.318-.732-.318h-5.328c-.278,0-.543,.115-.732,.318-2.226,2.393-5.146,6.339-6.414,11.55-.127,.524,.184,1.056,.704,1.2,2.979,.827,6.042,1.241,9.105,1.241s6.127-.414,9.105-1.241c.52-.145,.832-.676,.704-1.2ZM9.776,10.689h4.448c.497,.551,1.023,1.181,1.551,1.884-2.49,.515-5.06,.515-7.55,0,.528-.703,1.054-1.333,1.551-1.884Zm-5.387,9.392c.64-2.178,1.587-4.1,2.615-5.735,.66,.164,1.326,.296,1.996,.394v1.666c0,.553,.448,1,1,1s1-.447,1-1v-1.471c.333,.016,.666,.025,1,.025,.318,0,.636-.008,.954-.023v3.302c0,.553,.448,1,1,1s1-.447,1-1v-3.493c.685-.099,1.367-.233,2.042-.401,1.029,1.636,1.976,3.557,2.615,5.735-5,1.225-10.223,1.225-15.223,0Z"/>
  <path d="M8.658,7.669c.032,0,.731-.003,1.36-.006,.554-.002,.999-.454,.995-1.008h0c-.004-.551-.453-.995-1.004-.992l-1.351,.006c-.31,0-.562-.26-.562-.58,0-.312,.236-.566,.537-.58,.314-.015,.604-.177,.781-.438,.385-.566,1.14-.801,1.768-.555,.325,.127,.693,.074,.972-.138,.88-.674,2.26-.353,2.761,.649,.121,.241,.334,.424,.592,.505,.238,.075,.397,.299,.397,.556,0,.282-.203,.526-.469,.572h-1.424s0,0,0,0c-.552,0-1,.447-1,.999,0,.553,.447,1.001,1,1.001h1.488s0,0,0,0c.034,0,.067-.002,.101-.005,.899-.078,1.706-.609,2.064-1.437,.605-1.4,.011-2.83-1.153-3.428-.703-1.113-1.914-1.79-3.244-1.79-.668,0-1.31,.169-1.881,.494-1.207-.266-2.516,.165-3.34,1.087-1.125,.277-1.949,1.296-1.949,2.507,0,1.423,1.149,2.58,2.562,2.58Z"/>
</svg>
