<?xml version="1.0" encoding="UTF-8"?>
<svg xmlns="http://www.w3.org/2000/svg" id="Layer_1" data-name="Layer 1" viewBox="0 0 24 24">
  <path d="M21.571,11.78l-.021-.044c-.304-.669-.698-1.356-1.08-2.02l-.103-.179c-.539-.939-.623-2.035-.22-2.858,.383-.78,.496-1.652,.327-2.522-.306-1.57-1.567-2.813-3.141-3.093-1.159-.207-2.336,.104-3.229,.852-.896,.751-1.411,1.854-1.411,3.025,0,.559,.115,1.099,.341,1.607,.433,.97,.402,2.013-.083,2.861l-.161,.281c-.267,.463-.539,.938-.79,1.423-.245-.473-.519-.95-.787-1.415l-.092-.16c-.54-.939-.623-2.035-.219-2.859,.382-.78,.496-1.651,.326-2.521-.305-1.57-1.567-2.813-3.141-3.093-1.159-.207-2.336,.104-3.229,.852-.897,.751-1.412,1.854-1.412,3.025,0,.558,.115,1.099,.341,1.607,.433,.97,.402,2.013-.084,2.862l-.167,.29c-.385,.67-.784,1.363-1.11,2.082-1.344,2.938-.415,6.226,.561,9.078,.047,.138,.124,.264,.225,.369,1.098,1.144,2.577,1.773,4.163,1.773s3.064-.63,4.162-1.773c.101-.105,.178-.231,.225-.369,.079-.232,.158-.466,.236-.703,.077,.237,.156,.471,.236,.703,.047,.138,.124,.264,.225,.369,1.098,1.144,2.577,1.773,4.163,1.773h0c1.586,0,3.063-.63,4.161-1.773,.101-.105,.177-.23,.225-.368,.977-2.852,1.906-6.14,.562-9.078ZM15.39,3.448c.444-.372,1.007-.521,1.594-.416,.754,.134,1.383,.754,1.529,1.506,.085,.438,.03,.874-.159,1.259-.377,.767-.521,1.631-.44,2.502-.76,.524-1.827,.523-2.586-.004,.061-.851-.093-1.728-.466-2.564-.11-.25-.167-.516-.167-.793,0-.578,.254-1.122,.695-1.492Zm-9.246,0c.445-.372,1.013-.519,1.594-.416,.754,.134,1.382,.754,1.529,1.506,.085,.438,.03,.874-.159,1.259-.377,.767-.521,1.631-.44,2.503-.76,.524-1.826,.523-2.586-.003,.061-.851-.093-1.729-.466-2.565-.111-.25-.168-.517-.168-.793,0-.578,.253-1.121,.696-1.492Zm3.803,16.541c-1.399,1.306-3.742,1.307-5.141,0-.857-2.534-1.567-5.174-.536-7.427,.266-.586,.624-1.208,1.002-1.866,0,0,.213-.373,.234-.413,.574,.283,1.209,.432,1.871,.432s1.3-.15,1.874-.434c.043,.085,.229,.414,.229,.414,.379,.658,.737,1.28,1.003,1.867,0,.003,.016,.035,.023,.05,1.008,2.204,.298,4.843-.56,7.377Zm9.245,0c-1.396,1.306-3.741,1.308-5.14,0-.857-2.535-1.567-5.175-.536-7.428,.268-.589,.627-1.214,1.007-1.875,0,0,.208-.364,.23-.404,.573,.283,1.209,.432,1.87,.432s1.3-.15,1.875-.435c.043,.085,.239,.432,.239,.432,.375,.652,.729,1.268,1.004,1.874,.003,.005,.009,.018,.015,.03,1.006,2.204,.296,4.841-.562,7.373Z"/>
</svg>
