<?xml version="1.0" encoding="UTF-8"?>
<svg xmlns="http://www.w3.org/2000/svg" id="Layer_1" data-name="Layer 1" viewBox="0 0 24 24">
  <path d="M22.046,7.787c-.534-.535-1.217-.852-1.935-.921-.093-.737-.425-1.444-.985-2.005-.562-.564-1.271-.897-2.01-.989-.071-.72-.385-1.411-.91-1.939-1.061-1.061-2.683-1.238-3.943-.436l-.185,.116c-1.624,1.034-3.027,2.44-4.058,4.067l-.99,1.562-.262,.263c-1.161,1.164-2.009,2.617-2.452,4.202l-.442,1.583-1.441,1.445c-1.883,1.888-1.883,4.959,0,6.847,.913,.915,2.127,1.419,3.418,1.419h0c1.291,0,2.505-.504,3.419-1.419l1.442-1.445,1.578-.443c1.582-.442,3.032-1.293,4.195-2.458l.258-.259,1.562-.995c1.623-1.033,3.026-2.438,4.059-4.068l.114-.181c.802-1.265,.623-2.889-.434-3.948Zm-4.139,.287c-.875,1.381-2.064,2.573-3.442,3.449l-.974,.62-1.635-1.639,.621-.979c.875-1.38,2.065-2.573,3.443-3.45,.573-.365,1.309-.282,1.79,.198h0c.475,.476,.558,1.232,.197,1.801ZM13.151,3.302l.184-.116c.467-.295,1.065-.231,1.456,.16,.237,.238,.357,.554,.344,.877-.098,.05-.194,.104-.288,.164-1.624,1.034-3.028,2.44-4.058,4.067l-.38,.599-1.319-1.322,.621-.98c.875-1.38,2.065-2.573,3.44-3.449ZM5.853,21.002h0c-.756,0-1.468-.295-2.002-.831-1.106-1.109-1.106-2.913,0-4.022l.918-.921,4.01,4.019-.922,.925c-.536,.536-1.247,.831-2.003,.831Zm5.899-3.232l-1.268,.355-4.596-4.606,.355-1.273c.303-1.087,.847-2.095,1.585-2.945l6.863,6.879c-.849,.741-1.855,1.287-2.94,1.591Zm9.037-7.104l-.114,.181c-.875,1.381-2.064,2.573-3.442,3.449l-.975,.621-1.32-1.323,.602-.383c1.623-1.033,3.026-2.438,4.058-4.066,.06-.094,.114-.191,.164-.288,.32-.012,.634,.108,.869,.343,.392,.394,.458,.996,.159,1.468Z"/>
</svg>
