<?xml version="1.0" encoding="UTF-8"?>
<svg xmlns="http://www.w3.org/2000/svg" id="Layer_1" data-name="Layer 1" viewBox="0 0 24 24">
  <path d="M12,7.924c-2.705,0-4.076,1.372-4.076,4.076s1.372,4.076,4.076,4.076,4.076-1.372,4.076-4.076-1.372-4.076-4.076-4.076Zm0,6.152c-1.436,0-2.076-.3-2.076-2.076s.641-2.076,2.076-2.076,2.076,.3,2.076,2.076-.641,2.076-2.076,2.076Z"/>
  <path d="M19.439,6.03c-1.234-1.039-2.613-1.493-3.767-1.675l1.475-1.472c.269-.268,.363-.665,.242-1.025-.12-.36-.434-.621-.81-.673-.345-.049-8.48-1.137-12.697,2.53-1.637,1.424-2.467,3.349-2.467,5.722,0,3.812,1.039,6.642,3.088,8.411,1.264,1.091,2.687,1.574,3.865,1.775l-1.518,1.514c-.27,.269-.363,.668-.241,1.029s.439,.621,.816,.67c.127,.017,1.31,.167,2.964,.167,2.851,0,7.101-.444,9.76-2.775,1.614-1.415,2.432-3.314,2.432-5.645,0-3.92-1.058-6.798-3.144-8.554Zm-.604,12.692c-2.345,2.059-6.486,2.325-9.005,2.27l1.575-1.571c.306-.305,.381-.771,.188-1.157-.193-.386-.615-.605-1.039-.541-.029,.002-2.7,.373-4.741-1.389-1.589-1.373-2.395-3.693-2.395-6.897,0-1.792,.581-3.169,1.777-4.211,2.355-2.05,6.486-2.283,8.992-2.213l-1.59,1.586c-.309,.308-.382,.781-.182,1.168,.202,.387,.632,.599,1.059,.525,.025-.005,2.654-.437,4.68,1.268,1.613,1.357,2.431,3.721,2.431,7.023,0,1.752-.572,3.106-1.748,4.139Z"/>
</svg>
