<?xml version="1.0" encoding="UTF-8"?>
<svg xmlns="http://www.w3.org/2000/svg" id="Layer_1" data-name="Layer 1" viewBox="0 0 24 24">
  <g>
    <circle cx="14.6" cy="6.924" r="1"/>
    <circle cx="12.152" cy="9.372" r="1"/>
    <circle cx="9.699" cy="11.825" r="1"/>
    <circle cx="15.143" cy="9.918" r="1"/>
    <circle cx="12.69" cy="12.372" r="1"/>
  </g>
  <path d="M20.203,9.218C20.203,1.852,15.521,1,12,1S3.796,1.852,3.796,9.218c0,4.009,1.337,6.493,4.084,7.573,.277,1.325,1.006,2.516,2.091,3.375l1.029,.816v1.018c0,.553,.448,1,1,1s1-.447,1-1v-1.018l1.029-.816c1.088-.862,1.817-2.055,2.093-3.382,2.744-1.086,4.081-3.567,4.081-7.566Zm-7.416,9.382l-.787,.623-.787-.624c-.724-.573-1.207-1.369-1.383-2.256,1.432-.293,2.907-.293,4.341,0-.178,.886-.66,1.683-1.384,2.257Zm3.01-3.856c-.084-.055-.176-.099-.277-.128-2.304-.656-4.737-.656-7.04,0-.103,.029-.198,.075-.283,.132-1.238-.626-2.401-1.98-2.401-5.53,0-5.178,2.374-6.218,6.204-6.218s6.203,1.04,6.203,6.218c0,3.539-1.164,4.896-2.406,5.526Z"/>
</svg>
