<?xml version="1.0" encoding="UTF-8"?>
<svg xmlns="http://www.w3.org/2000/svg" id="Layer_1" data-name="Layer 1" viewBox="0 0 24 24">
  <path d="M20.042,17.367c-.159-.03-.318-.059-.477-.086,.161-1.219,.316-2.873,.316-4.733,0-1.07-.05-2.159-.148-3.25,.222-.005,.39-.007,.392-.007,.313-.005,.606-.158,.791-.412,.046-.062,1.116-1.556,1.116-3.542,0-2.002-1.074-3.484-1.119-3.546-.17-.231-.431-.377-.717-.403-.043-.004-4.368-.388-8.195-.388S3.848,1.384,3.805,1.388c-.288,.026-.55,.174-.72,.408-.046,.062-1.116,1.556-1.116,3.542,0,2.002,1.074,3.484,1.119,3.546,.186,.252,.477,.402,.789,.407,0,0,.169,.002,.393,.007-.1,1.094-.15,2.184-.15,3.25,0,1.865,.153,3.515,.314,4.733-.159,.028-.317,.057-.475,.086-.269,.05-.505,.208-.654,.438-.048,.074-1.182,1.845-1.182,4.195,0,.552,.447,1,1,1H20.878c.553,0,1-.448,1-1,0-2.37-1.137-4.125-1.185-4.199-.149-.227-.385-.383-.651-.434ZM6.119,12.548c0-1.336,.084-2.711,.25-4.087,.032-.267-.045-.536-.213-.746-.169-.209-.414-.343-.682-.369-.18-.018-.634-.033-1.007-.042-.214-.417-.499-1.13-.499-1.967,0-.849,.303-1.583,.519-1.999,.709-.057,2.096-.159,3.71-.237v2.448c0,.552,.447,1,1,1s1-.448,1-1V3.026c.601-.016,1.208-.026,1.803-.026s1.202,.01,1.803,.026v2.523c0,.552,.447,1,1,1s1-.448,1-1V3.101c1.616,.077,3.003,.18,3.711,.237,.217,.415,.518,1.145,.518,1.999,0,.827-.287,1.545-.502,1.967-.372,.01-.823,.025-1.002,.042-.268,.026-.513,.16-.682,.369-.168,.21-.245,.479-.213,.745,.165,1.37,.248,2.745,.248,4.087,0,1.737-.143,3.285-.294,4.433-3.693-.472-7.484-.471-11.176,0-.15-1.147-.292-2.691-.292-4.434Zm-1.906,8.452c.136-.764,.396-1.386,.576-1.751,4.729-.829,9.695-.83,14.424,0,.18,.362,.44,.983,.575,1.75H4.213Z"/>
  <path d="M14.119,13.375v-2.731c0-1.162-.949-2.104-2.119-2.104s-2.119,.942-2.119,2.104v2.731c1.394,.322,2.844,.322,4.239,0Z"/>
</svg>
