<?xml version="1.0" encoding="UTF-8"?>
<svg xmlns="http://www.w3.org/2000/svg" id="Layer_1" data-name="Layer 1" viewBox="0 0 24 24">
  <path d="M15.141,14.075H5.444c-.552,0-1,.447-1,1s.448,1,1,1H15.141c.552,0,1-.447,1-1s-.448-1-1-1Z"/>
  <path d="M20.504,14.075h-1.826c-.552,0-1,.447-1,1s.448,1,1,1h1.826c.552,0,1-.447,1-1s-.448-1-1-1Z"/>
  <path d="M15.141,21H5.444c-.552,0-1,.447-1,1s.448,1,1,1H15.141c.552,0,1-.447,1-1s-.448-1-1-1Z"/>
  <path d="M20.504,21h-1.826c-.552,0-1,.447-1,1s.448,1,1,1h1.826c.552,0,1-.447,1-1s-.448-1-1-1Z"/>
  <path d="M7.859,18.538c0,.553,.448,1,1,1h9.697c.552,0,1-.447,1-1s-.448-1-1-1H8.859c-.552,0-1,.447-1,1Z"/>
  <path d="M6.321,18.538c0-.553-.448-1-1-1h-1.826c-.552,0-1,.447-1,1s.448,1,1,1h1.826c.552,0,1-.447,1-1Z"/>
  <path d="M6.116,11.038c1.382,1.227,3.411,1.653,5.154,1.092,.89,.507,1.892,.772,2.927,.772,1.689,0,3.27-.706,4.395-1.95,1.688-.367,2.913-1.861,2.913-3.636,0-1.491-.868-2.809-2.199-3.4-1.068-1.809-2.991-2.917-5.109-2.917-1.126,0-2.203,.31-3.144,.901-.455-.125-.926-.188-1.404-.188-1.598,0-3.101,.718-4.107,1.941-1.743,.314-3.045,1.836-3.045,3.662,0,2.022,1.616,3.673,3.62,3.721Zm.011-5.439c.314-.014,.603-.175,.78-.435,.856-1.252,2.55-1.766,3.943-1.226,.324,.126,.692,.075,.969-.136,.688-.524,1.511-.802,2.378-.802,1.493,0,2.84,.832,3.516,2.17,.122,.241,.335,.422,.593,.503,.717,.225,1.199,.886,1.199,1.643,0,.889-.661,1.625-1.537,1.713-.27,.027-.517,.163-.685,.375-.753,.952-1.878,1.498-3.087,1.498-.807,0-1.583-.243-2.244-.704-.17-.119-.37-.179-.571-.179-.136,0-.273,.028-.402,.084-1.26,.553-2.794,.244-3.747-.768-.216-.229-.526-.342-.842-.309-.061,.007-.123,.011-.186,.011-.942,0-1.708-.772-1.708-1.722,0-.923,.716-1.678,1.631-1.719Z"/>
</svg>
