<?xml version="1.0" encoding="UTF-8"?>
<svg xmlns="http://www.w3.org/2000/svg" id="Layer_1" data-name="Layer 1" viewBox="0 0 24 24">
  <g>
    <path d="M15.137,5.723c.142,1.526,.167,3.106,.075,4.694-.032,.551,.389,1.023,.94,1.056,.02,0,.039,.002,.059,.002,.525,0,.967-.41,.997-.942,.099-1.688,.071-3.368-.079-4.995-.094-1.003-.238-2.024-.429-3.035-.102-.543-.622-.899-1.167-.798-.543,.102-.9,.625-.798,1.167,.179,.951,.313,1.91,.401,2.852Z"/>
    <path d="M5.121,17.887c.181,0,.364-.049,.529-.152,.468-.292,.61-.909,.318-1.378-.019-.029-1.857-3.006-3.002-7.296-.143-.534-.692-.854-1.224-.708-.534,.143-.851,.69-.708,1.224,1.228,4.597,3.158,7.711,3.239,7.841,.19,.304,.515,.47,.848,.47Z"/>
    <path d="M22.898,14.583c-.142-.534-.69-.851-1.224-.708-.533,.142-.851,.689-.708,1.224,.067,.255,.031,.522-.103,.753-.138,.236-.36,.406-.628,.477l-2.669,.703c-.475-1.551-1.124-3.029-1.155-3.1-.198-.449-.69-.688-1.17-.562l-4.704,1.241c-.591,.155-1.17,.202-1.575,.213-.209-.465-.514-1.221-.761-2.146-.243-.909-.356-1.721-.408-2.233,.357-.189,.881-.433,1.467-.587,.591-.155,1.17-.202,1.574-.213,.21,.468,.517,1.228,.762,2.145,.143,.533,.69,.854,1.225,.708,.533-.143,.851-.69,.708-1.224-.479-1.795-1.156-3.046-1.185-3.098-.161-.296-.46-.49-.796-.519-.054-.003-1.376-.106-2.797,.267-1.416,.373-2.516,1.114-2.562,1.146-.281,.191-.445,.512-.437,.852,.001,.061,.042,1.493,.517,3.272,.479,1.795,1.156,3.047,1.185,3.099,.161,.296,.46,.49,.796,.519,.056,.003,1.377,.106,2.796-.267l3.862-1.019c.212,.53,.49,1.268,.723,2.016l-11.524,3.037c-.534,.141-.853,.688-.712,1.222,.118,.448,.523,.745,.966,.745,.084,0,.17-.011,.255-.033l16.128-4.25c.785-.207,1.441-.706,1.848-1.405,.402-.693,.511-1.5,.305-2.273Z"/>
  </g>
  <circle cx="7.717" cy="4.146" r="2.694"/>
</svg>
