<?xml version="1.0" encoding="UTF-8"?>
<svg xmlns="http://www.w3.org/2000/svg" id="Layer_1" data-name="Layer 1" viewBox="0 0 24 24">
  <path d="M8.224,8.021h6.078c.553,0,1-.448,1-1s-.447-1-1-1h-6.078c-.553,0-1,.448-1,1s.447,1,1,1Z"/>
  <path d="M15.302,11.061c0-.552-.447-1-1-1h-6.078c-.553,0-1,.448-1,1s.447,1,1,1h6.078c.553,0,1-.448,1-1Z"/>
  <path d="M8.224,14.1c-.553,0-1,.448-1,1s.447,1,1,1h3.229c.553,0,1-.448,1-1s-.447-1-1-1h-3.229Z"/>
  <path d="M22.041,15.953c0-1.568-.509-2.64-1.516-3.21,.026-.54,.042-1.103,.042-1.682,0-.711-.022-1.394-.06-2.043-.211-3.635-.903-6.14-.933-6.245-.092-.328-.344-.586-.669-.687-.145-.044-3.581-1.086-7.643-1.086S3.766,2.042,3.621,2.086c-.327,.1-.58,.36-.671,.689-.04,.146-.991,3.634-.991,8.285,0,4.69,.951,8.143,.992,8.287,.092,.328,.344,.586,.669,.687,.145,.044,3.582,1.086,7.643,1.086,.358,0,.711-.008,1.059-.023,.552-.023,.979-.49,.956-1.042-.022-.552-.499-.962-1.042-.957-.318,.014-.644,.021-.973,.021-2.855,0-5.437-.574-6.518-.852-.255-1.113-.786-3.844-.786-7.208,0-3.34,.533-6.088,.787-7.209,1.084-.278,3.668-.852,6.517-.852s5.438,.574,6.519,.852c.204,.89,.586,2.814,.729,5.281,.035,.612,.056,1.257,.056,1.928,0,.41-.008,.812-.022,1.202-.064-.002-.129-.003-.196-.003-2.45,0-3.692,1.243-3.692,3.694,0,1.221,.308,2.142,.921,2.759v3.083c0,.513,.312,.958,.794,1.132,.483,.176,1.007,.033,1.336-.362l.485-.583c.105-.128,.207-.128,.312,0l.486,.583c.301,.351,.817,.556,1.335,.362,.481-.18,.794-.619,.794-1.132v-3.083c.612-.617,.921-1.538,.921-2.759Zm-3.692-1.694c1.249,0,1.692,.256,1.692,1.694,0,1.458-.499,1.693-1.692,1.693-1.249,0-1.692-.256-1.692-1.693,0-1.458,.499-1.694,1.692-1.694Z"/>
</svg>
