<?xml version="1.0" encoding="UTF-8"?>
<svg xmlns="http://www.w3.org/2000/svg" id="Layer_1" data-name="Layer 1" viewBox="0 0 24 24">
  <path d="M12,7.324c-3.15,0-4.682,1.529-4.682,4.676s1.532,4.676,4.682,4.676,4.682-1.529,4.682-4.676-1.532-4.676-4.682-4.676Zm0,7.352c-1.779,0-2.682-.414-2.682-2.676s.903-2.676,2.682-2.676,2.682,.414,2.682,2.676-.903,2.676-2.682,2.676Z"/>
  <path d="M21.503,6.437h0c-1.246-2.123-2.7-3.206-4.426-3.294-.952-1.44-2.62-2.143-5.077-2.143s-4.131,.702-5.082,2.143c-1.725,.09-3.177,1.173-4.422,3.294-1.271,2.165-1.491,3.993-.664,5.563-.827,1.57-.607,3.398,.664,5.564,1.244,2.118,2.696,3.2,4.424,3.29,.951,1.442,2.621,2.146,5.08,2.146s4.129-.703,5.08-2.146c1.727-.09,3.18-1.173,4.423-3.291,1.271-2.165,1.491-3.993,.664-5.563,.827-1.57,.607-3.398-.664-5.563Zm-1.321,6.151c.495,.682,.897,1.748-.403,3.963-1.292,2.201-2.436,2.367-3.188,2.298-.415-.043-.814,.189-.993,.568-.321,.68-1.044,1.583-3.598,1.583s-3.276-.903-3.598-1.583c-.166-.352-.52-.572-.903-.572-.03,0-.06,0-.089,.004-.75,.067-1.896-.099-3.188-2.297-1.3-2.216-.898-3.282-.403-3.964,.254-.351,.254-.825,0-1.176-.495-.682-.897-1.748,.403-3.963,1.294-2.203,2.438-2.365,3.186-2.301,.409,.036,.814-.189,.994-.569,.32-.678,1.042-1.579,3.599-1.579s3.275,.902,3.596,1.581c.18,.379,.572,.607,.995,.568,.749-.075,1.894,.097,3.188,2.3h0c1.3,2.215,.898,3.281,.403,3.963-.254,.351-.254,.825,0,1.176Z"/>
</svg>
