<?xml version="1.0" encoding="UTF-8"?>
<svg xmlns="http://www.w3.org/2000/svg" id="Layer_1" data-name="Layer 1" viewBox="0 0 24 24">
  <path d="M16.097,13.97c-.155-3.176-2.812-5.712-6.054-5.712-3.343,0-6.062,2.694-6.062,6.006,0,.153,.006,.306,.018,.458-1.724,.552-2.957,2.157-2.957,4.036,0,2.338,1.918,4.241,4.276,4.241H14.342c2.604,0,4.722-2.101,4.722-4.682,0-1.934-1.207-3.648-2.967-4.348Zm-1.755,7.03H5.318c-1.255,0-2.276-1.005-2.276-2.241,0-1.192,.945-2.175,2.152-2.238,.301-.016,.577-.166,.755-.408s.236-.552,.161-.842c-.086-.329-.129-.668-.129-1.006,0-2.209,1.822-4.006,4.062-4.006s4.061,1.797,4.061,4.006c0,.119-.006,.235-.017,.352-.047,.51,.298,.973,.8,1.073,1.262,.252,2.177,1.358,2.177,2.629,0,1.479-1.221,2.682-2.722,2.682Z"/>
  <path d="M12.677,6.498c.19,.167,.426,.25,.661,.25,.276,0,.553-.115,.75-.339,1.969-2.234,4.836-3.451,7.813-3.406,.558,.012,1.01-.424,1.023-.976,.013-.552-.425-1.01-.977-1.023-3.568-.095-7.001,1.403-9.36,4.083-.365,.415-.325,1.046,.089,1.412Z"/>
  <path d="M22.001,5.164c-2.211-.098-4.373,.741-5.93,2.296-.391,.39-.391,1.023,0,1.414,.195,.196,.451,.293,.707,.293s.512-.098,.707-.292c1.161-1.16,2.785-1.773,4.43-1.713,.556,.03,1.018-.404,1.042-.956,.023-.552-.404-1.019-.956-1.042Z"/>
  <path d="M22.005,9.327c-1.187-.107-2.356,.354-3.142,1.243-.365,.415-.325,1.046,.089,1.412,.189,.167,.426,.25,.661,.25,.276,0,.553-.114,.75-.338,.362-.412,.909-.622,1.454-.575,.554,.051,1.038-.353,1.09-.902,.051-.55-.353-1.037-.902-1.089Z"/>
</svg>
