<?xml version="1.0" encoding="UTF-8"?>
<svg xmlns="http://www.w3.org/2000/svg" id="Layer_1" data-name="Layer 1" viewBox="0 0 24 24">
  <path d="M21.667,21H10.502c.344-.686,.408-1.464,.178-2.198l-.063-.201c.737-.19,1.507-.404,2.291-.643,.789-.24,1.551-.494,2.272-.749l.067,.214c.396,1.272,1.582,2.123,2.857,2.091,1.4-.035,2.268-.882,2.641-1.587,.37-.7,.444-1.502,.208-2.257l-.228-.73c.314-.148,.5-.24,.532-.256,.386-.192,.604-.61,.543-1.037-.006-.042-.15-1.024-.536-2.261-.39-1.247-.828-2.13-.847-2.167-.174-.35-.521-.565-.929-.553,0,0,0,0,0,0-1.441-4.448-4.099-7.215-4.213-7.333-.164-.169-.383-.274-.617-.298-.116-.011-2.925-.275-6.742,.888C4.11,3.083,1.931,4.867,1.84,4.943c-.185,.153-.309,.369-.348,.606-.027,.161-.633,3.957,.697,8.395-.33,.211-.507,.596-.451,.984,.006,.042,.15,1.024,.536,2.261,.389,1.247,.828,2.13,.846,2.167,.171,.342,.519,.553,.894,.553,.043,0,.086-.003,.129-.008,.036-.005,.247-.032,.598-.086l.231,.741c.048,.155,.109,.303,.179,.444h-1.735c-.552,0-1,.448-1,1s.448,1,1,1H21.667c.552,0,1-.448,1-1s-.448-1-1-1ZM3.419,6.257c.674-.479,2.449-1.62,5.082-2.423,2.652-.808,4.776-.848,5.591-.829,.626,.73,2.282,2.836,3.342,5.826-1.693,.189-4.241,.584-6.922,1.401-2.684,.819-5.022,1.916-6.53,2.704-.822-3.035-.663-5.713-.563-6.68Zm.423,9.035c.606-.344,1.649-.908,2.974-1.511l.338,1.084c.282,.849,1.153,.688,1.252,.657,.527-.165,.821-.726,.657-1.252l-.398-1.274c.764-.3,1.58-.591,2.429-.85,.854-.261,1.699-.476,2.505-.654l.401,1.285c.34,.884,1.153,.688,1.252,.657,.527-.165,.821-.725,.657-1.252l-.334-1.07c1.44-.239,2.625-.354,3.318-.406,.135,.326,.304,.767,.463,1.275,.147,.47,.254,.9,.328,1.237-1.254,.582-4.1,1.834-7.358,2.828-3.275,.999-6.344,1.548-7.704,1.765-.13-.319-.289-.738-.438-1.215-.156-.501-.268-.957-.343-1.302Z"/>
</svg>
