<?xml version="1.0" encoding="UTF-8"?>
<svg xmlns="http://www.w3.org/2000/svg" id="Layer_1" data-name="Layer 1" viewBox="0 0 24 24">
  <path d="M20.722,12.149c-.108-7.175-2.811-10.383-8.722-10.383S3.38,4.982,3.278,12.175c-1.256,.73-2.278,2.085-2.278,4.603,0,4.89,3.638,5.456,6.375,5.456,.431,0,.813-.276,.949-.685,1.02-3.076,1.02-6.464,0-9.541-.136-.409-.518-.685-.949-.685-.474,0-1.239,0-2.077,.148,.269-6.359,2.882-7.705,6.702-7.705s6.434,1.347,6.703,7.709c-.703-.119-1.416-.152-2.078-.152-.431,0-.813,.276-.949,.685-1.021,3.076-1.021,6.464,0,9.541,.136,.409,.519,.685,.949,.685,1.577,0,6.375,0,6.375-5.456,0-2.52-.967-3.892-2.278-4.629ZM6.637,20.216c-2.669-.138-3.637-1.091-3.637-3.438s.968-3.299,3.637-3.437c.604,2.241,.604,4.634,0,6.875Zm13.301-.692c-.561,.398-1.407,.626-2.576,.69-.604-2.24-.604-4.633,0-6.873,2.668,.138,3.637,1.091,3.637,3.437,0,1.785-.605,2.422-1.062,2.746Z"/>
</svg>
