<?xml version="1.0" encoding="UTF-8"?>
<svg xmlns="http://www.w3.org/2000/svg" id="Layer_1" data-name="Layer 1" viewBox="0 0 24 24">
  <path d="M8.474,16.002c.261-.985,.424-1.991,.489-3.003l6.076,.002c.065,1.011,.227,2.016,.488,3.001,.141,.529,.682,.848,1.213,.712,4.014-1.021,6.093-4.155,6.112-4.187,.167-.276,.227-.681,0-1.055-.019-.031-2.098-3.165-6.112-4.187-.531-.136-1.073,.183-1.213,.712-.261,.985-.424,1.991-.489,3.003l-6.076-.002c-.065-1.011-.227-2.016-.488-3.001-.141-.529-.682-.848-1.213-.712C3.246,8.308,1.167,11.441,1.148,11.473c-.167,.276-.227,.681,0,1.055,.019,.031,2.098,3.165,6.112,4.187,.531,.136,1.073-.183,1.213-.712Z"/>
</svg>
