<?xml version="1.0" encoding="UTF-8"?>
<svg xmlns="http://www.w3.org/2000/svg" id="Layer_1" data-name="Layer 1" viewBox="0 0 24 24">
  <path d="M16.549,16.619c-.527-.166-1.088,.131-1.251,.659l-1.074,3.463c-.164,.528,.132,1.087,.659,1.251,.27,.084,.979,.117,1.251-.659l1.074-3.463c.164-.528-.131-1.088-.659-1.251Z"/>
  <path d="M12.609,16.619c-.527-.166-1.088,.131-1.251,.659l-1.074,3.463c-.164,.528,.132,1.087,.659,1.251,.27,.084,.979,.117,1.251-.659l1.074-3.463c.164-.528-.131-1.088-.659-1.251Z"/>
  <path d="M8.668,16.619c-.527-.166-1.088,.131-1.251,.659l-1.074,3.463c-.164,.528,.132,1.087,.659,1.251,.27,.084,.979,.117,1.251-.659l1.074-3.463c.164-.528-.131-1.088-.659-1.251Z"/>
  <path d="M19.302,9.027c-.104-3.913-3.345-7.064-7.315-7.064-4.035,0-7.317,3.256-7.317,7.257,0,.252,.013,.504,.039,.754-2.15,.599-3.708,2.558-3.708,4.863,0,1.993,1.186,3.805,3.02,4.615,.506,.224,1.096-.005,1.319-.51,.223-.505-.005-1.096-.51-1.319-1.111-.491-1.829-1.584-1.829-2.786,0-1.623,1.284-2.96,2.922-3.047,.3-.016,.577-.166,.755-.408,.177-.242,.236-.552,.161-.843-.112-.428-.168-.872-.168-1.319,0-2.899,2.385-5.257,5.317-5.257s5.318,2.358,5.318,5.257c0,.157-.008,.312-.021,.465-.046,.509,.299,.971,.8,1.071,1.69,.339,2.917,1.823,2.917,3.53,0,1.495-.952,2.852-2.369,3.375-.518,.191-.783,.767-.592,1.285,.149,.404,.532,.654,.938,.654,.115,0,.232-.02,.347-.062,2.198-.812,3.676-2.922,3.676-5.251,0-2.368-1.513-4.461-3.698-5.259Z"/>
  <path d="M15.041,13.234c.255-.49,.065-1.094-.425-1.349l-.452-.235,.452-.235c.49-.255,.68-.859,.425-1.349-.255-.489-.858-.681-1.349-.425l-.692,.361v-.781c0-.552-.448-1-1-1s-1,.448-1,1v.781l-.692-.361c-.49-.256-1.094-.064-1.349,.425-.255,.49-.065,1.094,.425,1.349l.452,.235-.452,.235c-.49,.255-.68,.859-.425,1.349,.178,.342,.526,.538,.888,.538,.155,0,.313-.036,.461-.113l.692-.361v.781c0,.552,.448,1,1,1s1-.448,1-1v-.781l.692,.361c.147,.077,.306,.113,.461,.113,.361,0,.71-.196,.888-.538Z"/>
</svg>
