<?xml version="1.0" encoding="UTF-8"?>
<svg xmlns="http://www.w3.org/2000/svg" id="Layer_1" data-name="Layer 1" viewBox="0 0 24 24">
  <path d="M11.994,1C4.929,1.044,1,5.17,1,11.982c0,6.912,3.933,10.977,11.006,11.018,7.162-.042,10.861-3.737,10.994-11.017-.122-7.037-4.026-10.938-11.006-10.983Zm.012,20c-6.026-.035-8.888-2.895-9.006-9,.113-6.019,3.059-8.963,8.994-9,5.873,.038,8.903,3.072,9.006,8.981-.112,6.117-2.974,8.983-8.994,9.019Z"/>
  <path d="M13,11.586v-3.99c0-.552-.448-1-1-1s-1,.448-1,1v4.404c0,.265,.105,.52,.293,.707l1.915,1.915c.589,.551,1.219,.195,1.414,0,.391-.391,.391-1.023,0-1.414l-1.622-1.622Z"/>
</svg>
