<?xml version="1.0" encoding="UTF-8"?>
<svg xmlns="http://www.w3.org/2000/svg" id="Layer_1" data-name="Layer 1" viewBox="0 0 24 24">
  <path d="M20.223,15.962c-.26-2.506-2.194-4.591-4.747-5.396,.198-.187,.384-.387,.557-.602,1.049-1.305,1.428-2.919,1.069-4.544-.566-2.562-3.093-4.422-6.008-4.422H5.6c-.486,0-.902,.35-.985,.829-1.076,6.213-1.155,12.527-.233,18.766l.229,1.555c.072,.491,.493,.854,.989,.854h.004s6.194-.024,7.797-.024c2.031,0,3.945-.831,5.252-2.28,1.191-1.322,1.749-3.004,1.57-4.736ZM11.094,2.998c1.984,0,3.689,1.2,4.055,2.854,.226,1.021-.015,2.037-.676,2.86-.753,.938-2.251,1.498-3.589,1.498H5.779c.073-2.411,.29-4.819,.668-7.212h4.646Zm6.073,16.361c-.928,1.029-2.301,1.619-3.767,1.619-1.232,0-5.175,.014-6.938,.021l-.103-.697c-.397-2.688-.594-5.39-.607-8.091h7.398c2.62,0,4.853,1.739,5.082,3.958,.121,1.162-.258,2.294-1.065,3.19Z"/>
</svg>
