<?xml version="1.0" encoding="UTF-8"?>
<svg xmlns="http://www.w3.org/2000/svg" id="Layer_1" data-name="Layer 1" viewBox="0 0 24 24">
  <path d="M19.797,4.156c-2.463-2.48-6.294-5.216-11.332-.833-.592-.296-1.329-.446-2.211-.446-2.661,0-4.01,1.356-4.01,4.03,0,1.98,.74,3.237,2.204,3.756,.06,1.069,.408,2.126,1.055,3.201l-2.155,1.12c-1.208,.627-2.021,1.762-2.232,3.112-.212,1.354,.229,2.679,1.183,3.658,1.448,1.486,3.202,1.257,3.633,1.196,1.326-.19,2.483-1.03,3.109-2.251l1.111-2.167c3.184,1.918,6.349,1.226,9.646-2.093,5.468-5.505,2.618-9.646,0-12.283Zm-13.543,.721c1.721,0,2.011,.626,2.011,2.03s-.29,2.031-2.011,2.031-2.01-.626-2.01-2.031,.29-2.03,2.01-2.03Zm4.135,11.396c-.234-.182-.539-.25-.828-.183-.29,.065-.536,.255-.671,.52l-1.629,3.178c-.33,.644-.927,1.077-1.637,1.187-.708,.11-1.401-.12-1.906-.629-.511-.514-.739-1.221-.627-1.94,.112-.715,.541-1.315,1.179-1.646l3.155-1.639c.262-.136,.45-.381,.515-.668,.064-.288,0-.59-.18-.825-.719-.943-1.14-1.831-1.274-2.693,.765-.024,1.414-.167,1.947-.427l6.742,6.8c-1.951,.742-3.45-.006-4.787-1.034Zm7.988-1.243c-.492,.496-.961,.907-1.408,1.246l-7.128-7.189c.281-.588,.423-1.314,.423-2.18,0-.849-.136-1.564-.407-2.146,2.987-2.572,5.413-2.324,8.52,.804,2.901,2.921,3.914,5.523,0,9.464Z"/>
</svg>
