<?xml version="1.0" encoding="UTF-8"?>
<svg xmlns="http://www.w3.org/2000/svg" id="Layer_1" data-name="Layer 1" viewBox="0 0 24 24">
  <path d="M21.925,20.353h-.007c-.549-.012-.986-.463-.978-1.012,.019-1.325,.06-3.248,.06-3.711,0-6.729-2.944-10-9-10S3,8.902,3,15.63c0,.413,.032,2.457,.053,3.71,.009,.55-.428,1.001-.978,1.013h0c-.555,.012-1.013-.426-1.022-.98-.021-1.264-.053-3.324-.053-3.743C1,5.712,6.981,3.63,12,3.63s11,2.082,11,12c0,.418-.032,2.478-.053,3.743-.009,.555-.468,.993-1.022,.98Z"/>
  <path d="M17.922,20.37h-.007c-.549-.013-.985-.463-.977-1.013,.02-1.326,.062-3.241,.062-3.727,0-4.654-1.121-6-5-6s-5,1.346-5,6c0,.485,.042,2.394,.062,3.713,.008,.549-.428,.999-.977,1.012h-.007c-.555,.013-1.014-.425-1.023-.979-.021-1.259-.055-3.308-.055-3.746,0-5.757,1.963-8,7-8s7,2.243,7,8c0,.438-.034,2.497-.055,3.76-.009,.555-.469,.993-1.023,.98Z"/>
  <path d="M13.901,20.353c-.014,0-.027,0-.04,0-.553-.021-.982-.486-.96-1.038,0-.003,.099-2.492,.099-3.322,0-.574-.045-1.598-.082-2.334-.545-.031-1.291-.031-1.836,0-.037,.736-.082,1.76-.082,2.334,0,.545,.043,2.239,.072,3.337,.015,.547-.414,1.003-.961,1.024h0c-.557,.022-1.024-.412-1.039-.969-.03-1.115-.072-2.827-.072-3.392,0-1.018,.126-3.224,.132-3.317,.027-.485,.4-.88,.883-.936,.038-.005,.947-.108,1.985-.108s1.947,.104,1.985,.108c.482,.056,.855,.45,.883,.936,.006,.094,.132,2.3,.132,3.317,0,.85-.097,3.297-.101,3.4-.021,.539-.464,.961-.998,.961Z"/>
</svg>
