<?xml version="1.0" encoding="UTF-8"?>
<svg xmlns="http://www.w3.org/2000/svg" id="Layer_1" data-name="Layer 1" viewBox="0 0 24 24">
  <path d="M19.246,7.327c.377,.327,.877,.488,1.527,.492h.022c1.393,0,2.195-.8,2.204-2.198,.005-.759-.222-1.342-.673-1.733-.377-.327-.877-.488-1.527-.492h-.022c-1.021,0-1.724,.431-2.031,1.211h-3.461c-.251-1.229-1.078-2.36-3.264-2.374h-.039c-2.181,0-3.008,1.14-3.263,2.374h-3.462c-.112-.285-.28-.526-.503-.719-.377-.327-.877-.488-1.527-.492-1.427,0-2.218,.793-2.227,2.198-.004,.759,.222,1.342,.673,1.732,.377,.327,.877,.488,1.527,.492h.022c1.022,0,1.725-.431,2.032-1.211h1.839c-1.223,1.195-2.001,2.816-2.138,4.583-.108,1.398-.165,2.799-.172,4.17-.703,.084-1.205,.223-1.235,.231-.329,.092-.588,.346-.687,.673-.012,.041-.3,1.007-.3,2.267,0,1.271,.289,2.229,.301,2.27,.1,.326,.357,.578,.685,.67,.043,.012,1.061,.295,2.251,.295s2.208-.283,2.251-.294c.329-.092,.588-.346,.687-.673,.012-.041,.3-1.007,.3-2.267,0-1.271-.289-2.23-.301-2.27-.099-.325-.357-.578-.685-.67-.03-.009-.547-.152-1.268-.236,.006-1.318,.061-2.666,.166-4.011,.119-1.529,.899-2.905,2.101-3.781,.148,.263,.333,.492,.559,.688,.745,.646,1.709,.726,2.37,.73h.039c1.6,0,2.471-.613,2.922-1.426,1.209,.875,1.994,2.254,2.112,3.79,.104,1.341,.159,2.689,.165,4.011-.72,.084-1.237,.227-1.267,.235-.329,.092-.588,.346-.687,.673-.013,.041-.301,1.007-.301,2.268,0,1.271,.289,2.23,.302,2.27,.1,.325,.357,.578,.686,.669,.042,.012,1.061,.295,2.251,.295s2.208-.283,2.251-.294c.329-.092,.588-.346,.687-.673,.013-.041,.301-1.007,.301-2.267,0-1.271-.289-2.23-.302-2.271-.1-.325-.357-.578-.686-.669-.029-.008-.531-.148-1.235-.232-.006-1.375-.063-2.775-.171-4.169-.136-1.77-.913-3.39-2.136-4.584h1.833c.112,.285,.28,.526,.504,.719ZM7.038,18.532c0,.442-.046,.837-.096,1.133-.618,.104-1.67,.103-2.285,0-.049-.295-.095-.689-.095-1.133,0-.442,.046-.837,.096-1.134,.619-.103,1.671-.103,2.285,0,.049,.295,.095,.689,.095,1.134Zm12.4,0c0,.442-.046,.837-.096,1.133-.618,.103-1.67,.103-2.286,0-.049-.294-.095-.688-.095-1.133,0-.442,.046-.837,.096-1.134,.617-.104,1.67-.104,2.285,0,.05,.295,.096,.689,.096,1.134ZM11.992,6.981c-.531-.003-.892-.084-1.072-.241-.25-.217-.299-.74-.297-1.141,.007-1.166,.325-1.366,1.335-1.366h.051c1.051,.007,1.377,.198,1.37,1.382-.007,1.185-.339,1.36-1.386,1.366Z"/>
</svg>
