<?xml version="1.0" encoding="UTF-8"?>
<svg xmlns="http://www.w3.org/2000/svg" id="Layer_1" data-name="Layer 1" viewBox="0 0 24 24">
  <path d="M18.868,14.747c-.078-3.413-1.311-5.903-1.365-6.011-.107-.212-.285-.379-.504-.471-.081-.035-2.031-.846-4.999-.846s-4.916,.811-4.998,.845c-.221,.093-.4,.262-.507,.476-.054,.109-1.285,2.621-1.363,6.007-.278,.144-.477,.412-.527,.73-.005,.031-.122,.774-.122,1.75,0,.983,.117,1.72,.122,1.751,.068,.422,.397,.754,.819,.826,.017,.003,.089,.015,.208,.034v.342c0,1.352,1.099,2.452,2.448,2.452,1.312,0,2.387-1.039,2.446-2.338,.475,.018,.969,.028,1.474,.028s.998-.01,1.474-.028c.06,1.299,1.134,2.338,2.446,2.338,1.35,0,2.448-1.1,2.448-2.452v-.343c.119-.018,.191-.031,.208-.033,.422-.072,.752-.405,.819-.828,.005-.031,.122-.774,.122-1.749,0-.984-.117-1.721-.122-1.751-.051-.316-.25-.584-.527-.728Zm-6.868-5.328c1.858,0,3.253,.366,3.869,.564,.279,.677,.85,2.277,.977,4.296-1.227-.217-2.959-.444-4.846-.444s-3.618,.227-4.846,.445c.128-2.006,.699-3.615,.978-4.296,.621-.199,2.017-.564,3.868-.564Zm-5.494,8.523c-.014-.208-.023-.451-.023-.715,0-.291,.013-.558,.028-.781,.446-.096,1.096-.223,1.877-.337v.242c0,.552,.447,1,1,1s1-.448,1-1v-.458c.518-.036,1.059-.058,1.612-.058s1.095,.022,1.612,.058v.459c0,.552,.447,1,1,1s1-.448,1-1v-.243c.782,.113,1.431,.24,1.877,.337,.016,.222,.028,.489,.028,.781,0,.263-.01,.506-.024,.715-1.073,.145-3.179,.38-5.493,.38s-4.42-.236-5.494-.38Z"/>
  <path d="M22.767,9.333c-.829-.991-2.18-2.466-3.91-3.867-3.021-2.445-6.294-3.944-6.432-4.007-.258-.117-.551-.119-.812-.007-.131,.057-3.243,1.421-6.447,4.014-1.82,1.473-3.145,2.918-3.935,3.87-.353,.425-.294,1.056,.131,1.408,.187,.155,.413,.23,.638,.23,.288,0,.573-.123,.771-.361,.732-.883,1.961-2.223,3.653-3.593,2.335-1.89,4.666-3.102,5.581-3.545,.945,.469,3.375,1.749,5.595,3.545,1.604,1.299,2.862,2.673,3.635,3.596,.354,.423,.983,.48,1.408,.125,.424-.354,.479-.985,.125-1.409Z"/>
</svg>
