<?xml version="1.0" encoding="UTF-8"?>
<svg xmlns="http://www.w3.org/2000/svg" id="Layer_1" data-name="Layer 1" viewBox="0 0 24 24">
  <path d="M21.778,3.22c-.123-.309-.392-.537-.718-.607-.171-.037-4.243-.906-9.061-.906S3.111,2.576,2.939,2.613c-.327,.071-.597,.3-.72,.611-.05,.126-1.22,3.145-1.22,7.159,0,4.048,1.171,7.038,1.221,7.163,.123,.31,.393,.538,.718,.608,.159,.034,3.692,.788,8.061,.893v1.247h-3.479c-.552,0-1,.448-1,1s.448,1,1,1h8.957c.553,0,1-.448,1-1s-.447-1-1-1h-3.479v-1.247c4.36-.106,7.901-.858,8.061-.893,.327-.07,.597-.3,.72-.611,.05-.126,1.22-3.145,1.22-7.159,0-4.048-1.172-7.037-1.222-7.163ZM3.908,4.461c1.252-.23,4.497-.754,8.092-.754s6.844,.524,8.094,.754c.305,.956,.906,3.187,.906,5.921,0,.578-.028,1.135-.074,1.663-1.356,.25-4.944,.835-8.926,.835s-7.575-.584-8.928-.835c-.045-.526-.072-1.082-.072-1.663,0-2.714,.603-4.958,.908-5.921Zm8.092,12.597c-3.605,0-6.846-.524-8.095-.754-.147-.458-.362-1.211-.546-2.174,1.722,.294,4.985,.75,8.641,.75s6.911-.456,8.636-.75c-.184,.959-.398,1.714-.544,2.174-1.251,.23-4.49,.754-8.092,.754Z"/>
</svg>
