<?xml version="1.0" encoding="UTF-8"?>
<svg xmlns="http://www.w3.org/2000/svg" id="Layer_1" data-name="Layer 1" viewBox="0 0 24 24">
  <path d="M21.505,21h-.65c-1.373-.597-2.763-2.383-3.656-4.728-.569-1.496-.82-2.862-.775-4.022h.271c.553,0,1-.448,1-1,0-.511-.388-.916-.883-.976,.816-1.164,.92-2.61,.916-3.655-.014-3.767-1.892-5.605-5.741-5.619-2-.026-3.405,.453-4.359,1.409-1.224,1.224-1.359,2.974-1.354,4.183,.006,1.554,.347,2.761,.995,3.666-.534,.021-.962,.454-.962,.992,0,.552,.447,1,1,1h.271c.045,1.16-.206,2.526-.775,4.022-.892,2.345-2.283,4.13-3.656,4.728h-.65c-.553,0-1,.448-1,1s.447,1,1,1H21.505c.553,0,1-.448,1-1s-.447-1-1-1ZM9.041,3.823c.546-.546,1.521-.823,2.9-.823h.037c3.125,.011,3.741,1.338,3.749,3.626,.005,1.354-.239,2.232-.769,2.762-.546,.546-1.521,.823-2.9,.823h-.037c-3.125-.011-3.741-1.338-3.749-3.626-.005-1.354,.239-2.232,.769-2.762Zm-.371,13.161c.661-1.736,.953-3.317,.91-4.733h4.841c-.043,1.417,.249,2.998,.91,4.733,.607,1.597,1.423,2.965,2.348,4.017H6.322c.925-1.051,1.741-2.42,2.348-4.017Z"/>
</svg>
