<?xml version="1.0" encoding="UTF-8"?>
<svg xmlns="http://www.w3.org/2000/svg" id="Layer_1" data-name="Layer 1" viewBox="0 0 24 24">
  <path d="M20.166,4.031c-.174-1.21-1.106-2.212-2.319-2.494-1.034-.241-2.084-.419-3.123-.532-.499-.052-.97,.277-1.083,.772-.167,.735-.828,1.229-1.639,1.231-.816-.002-1.477-.497-1.644-1.231-.113-.495-.584-.824-1.083-.772-1.038,.112-2.088,.291-3.122,.532-1.213,.282-2.145,1.284-2.319,2.494-.761,5.288-.761,10.65,0,15.938,.174,1.21,1.106,2.212,2.319,2.494,1.034,.241,2.084,.419,3.123,.532,.499,.054,.97-.277,1.083-.772,.167-.735,.828-1.23,1.639-1.232,.816,.002,1.477,.497,1.644,1.232,.104,.459,.513,.778,.974,.778,.036,0,.072-.002,.108-.006,1.038-.112,2.088-.291,3.122-.532,1.213-.282,2.145-1.284,2.319-2.494,.761-5.288,.761-10.65,0-15.938Zm-2.772,16.483c-.704,.164-1.415,.297-2.124,.396-.616-1.16-1.855-1.917-3.272-1.92-1.413,.004-2.652,.76-3.268,1.92-.708-.1-1.42-.232-2.124-.396-.416-.097-.734-.43-.792-.831-.179-1.246-.314-2.496-.406-3.748h1.68c.552,0,1-.448,1-1s-.448-1-1-1h-1.789c-.115-3.211,.056-6.429,.515-9.62,.058-.4,.376-.734,.792-.831,.704-.164,1.415-.297,2.124-.396,.616,1.161,1.855,1.917,3.272,1.92,1.413-.003,2.652-.76,3.268-1.92,.708,.1,1.42,.232,2.124,.396,.416,.097,.734,.43,.792,.831,.459,3.19,.631,6.408,.515,9.62h-1.789c-.552,0-1,.448-1,1s.448,1,1,1h1.68c-.092,1.252-.227,2.502-.406,3.748-.058,.4-.376,.734-.792,.831Z"/>
  <path d="M12.694,13.936h-1.389c-.552,0-1,.448-1,1s.448,1,1,1h1.389c.552,0,1-.448,1-1s-.448-1-1-1Z"/>
</svg>
