<?xml version="1.0" encoding="UTF-8"?>
<svg xmlns="http://www.w3.org/2000/svg" id="Layer_1" data-name="Layer 1" viewBox="0 0 24 24">
  <path d="M22.249,10.442c.641-.729,.892-1.729,.671-2.675h0s-.083-.343-.083-.343c-.297-1.167-1.3-2.057-2.497-2.215-.82-.108-1.653-.2-2.495-.275,.02-.15,.03-.302,.03-.455,0-1.896-1.542-3.438-3.438-3.438-.952,0-1.814,.389-2.438,1.016-.623-.627-1.486-1.016-2.438-1.016-1.896,0-3.438,1.542-3.438,3.438,0,.154,.011,.307,.031,.458-.843,.076-1.677,.168-2.498,.277-1.197,.159-2.2,1.05-2.495,2.216l-.083,.342c-.22,.947,.031,1.947,.672,2.676,.126,.144,.263,.273,.409,.387-.607,3.072-.497,6.583,.301,9.447,.318,1.137,1.278,1.984,2.448,2.156,2.352,.346,4.721,.518,7.089,.518s4.738-.173,7.09-.518c1.169-.172,2.13-1.019,2.447-2.156,.799-2.865,.908-6.377,.302-9.452,.146-.114,.284-.244,.41-.388Zm-2.171-3.251c.394,.052,.723,.343,.82,.729l.074,.299h0c.075,.325-.007,.654-.226,.903-.214,.242-.507,.365-.842,.331-2.262-.228-4.58-.355-6.905-.383v-2.385c2.401,.036,4.791,.205,7.078,.507ZM14.438,3.042c.793,0,1.438,.645,1.438,1.438,0,.089-.001,.213-.015,.309-.942-.054-1.891-.089-2.843-.103-.008-.067-.017-.151-.017-.206,0-.792,.645-1.438,1.438-1.438Zm-4.875,0c.792,0,1.438,.645,1.438,1.438,0,.055-.009,.14-.017,.207-.951,.015-1.901,.05-2.843,.105-.014-.098-.015-.223-.015-.312,0-.792,.645-1.438,1.438-1.438ZM3.027,8.226l.074-.304c.097-.381,.426-.673,.819-.725,2.288-.303,4.678-.474,7.08-.512v2.385c-2.326,.029-4.645,.159-6.906,.388-.327,.037-.628-.089-.841-.331-.219-.249-.301-.577-.226-.901Zm1.362,11.519c-.687-2.464-.8-5.593-.311-8.284,.072-.002,.145-.006,.218-.013,2.196-.223,4.447-.348,6.705-.378v9.875c-1.938-.042-3.874-.203-5.799-.486-.388-.057-.707-.338-.812-.715Zm15.222,0c-.104,.372-.431,.659-.812,.715-1.924,.283-3.861,.444-5.799,.486V11.069c2.258,.028,4.509,.152,6.705,.373,.072,.007,.144,.011,.216,.013,.49,2.693,.378,5.824-.309,8.288Z"/>
</svg>
