<?xml version="1.0" encoding="UTF-8"?>
<svg xmlns="http://www.w3.org/2000/svg" id="Layer_1" data-name="Layer 1" viewBox="0 0 24 24">
  <path d="M22,19.941c-.663,0-1.286-.288-1.756-.811-.379-.423-1.109-.423-1.488,0-.939,1.046-2.572,1.046-3.512,0-.379-.423-1.109-.423-1.488,0-.939,1.046-2.572,1.046-3.512,0-.379-.423-1.109-.423-1.488,0-.939,1.046-2.572,1.046-3.512,0-.379-.423-1.109-.423-1.488,0-.47,.523-1.093,.811-1.756,.811-.553,0-1,.448-1,1s.447,1,1,1c.894,0,1.767-.288,2.5-.81,1.467,1.044,3.533,1.044,5,0,1.467,1.044,3.533,1.044,5,0,1.467,1.044,3.533,1.044,5,0,.733,.522,1.606,.81,2.5,.81,.553,0,1-.448,1-1s-.447-1-1-1Z"/>
  <path d="M5.002,17.884c.545-.088,.916-.601,.828-1.146-.218-1.352-.328-2.719-.328-4.064,0-2.756,.483-4.383,.682-4.933,2.298-1.636,5.037-3.41,5.814-3.665,.775,.257,3.518,2.032,5.82,3.667,.199,.548,.68,2.16,.68,4.932,0,1.34-.111,2.707-.33,4.064-.088,.545,.283,1.059,.828,1.146,.054,.009,.107,.013,.16,.013,.482,0,.907-.35,.986-.841,.236-1.462,.355-2.937,.355-4.383,0-3.999-.925-5.936-.964-6.016-.073-.149-.182-.278-.316-.375-.303-.217-.597-.425-.882-.625v-1.838c0-.552-.447-1-1-1s-1,.448-1,1v.473c-2.25-1.484-3.705-2.234-4.336-2.234-.88,0-3.309,1.421-7.219,4.225-.136,.098-.246,.229-.318,.38-.039,.082-.961,2.047-.961,6.01,0,1.451,.119,2.926,.354,4.383,.088,.545,.601,.917,1.146,.828Z"/>
  <path d="M14.371,17.897c.553,0,1-.448,1-1v-2.372c0-1.859-1.513-3.372-3.371-3.372s-3.371,1.513-3.371,3.372v2.372c0,.552,.447,1,1,1s1-.448,1-1v-2.372c0-.756,.615-1.372,1.371-1.372s1.371,.615,1.371,1.372v2.372c0,.552,.447,1,1,1Z"/>
</svg>
