<?xml version="1.0" encoding="UTF-8"?>
<svg xmlns="http://www.w3.org/2000/svg" id="Layer_1" data-name="Layer 1" viewBox="0 0 24 24">
  <path d="M22,19.309c-.574,0-1.041-.462-1.041-1.03V7.229c0-.553-.448-1-1-1s-1,.447-1,1v4.457h-1.556c.031-.429,.049-.878,.049-1.345,0-.229-.004-.454-.012-.674-.011-.277-.135-.537-.344-.718-.208-.182-.48-.271-.759-.239-.741,.077-1.467,.125-2.167,.143l-1.588-5.737c-.073-.263-.25-.484-.49-.614-.115-.062-1.175-.604-2.974-.604s-2.86,.541-2.976,.604c-.254,.136-.438,.375-.503,.656,0,0-.032,.139-.078,.376-1.605,.205-2.684,.461-2.736,.473-.33,.079-.597,.319-.709,.639-.036,.101-.875,2.506-.875,5.696,0,2.073,.35,3.8,.608,4.794-.554,.653-.85,1.426-.85,2.3,0,2.878,3.199,4.666,8.348,4.666s8.347-1.788,8.347-4.666c0-.874-.296-1.647-.851-2.301,.099-.384,.211-.874,.312-1.448h1.803v4.592c0,1.671,1.364,3.03,3.041,3.03,.552,0,1-.447,1-1s-.448-1-1-1ZM9.119,3.898c.762,0,1.331,.128,1.669,.232l1.298,4.691c-1.782-.1-3.299-.359-4.073-.512-.197-.71-.515-2.093-.586-3.817,.021-.137,.041-.263,.06-.374,.347-.103,.902-.221,1.631-.221Zm-5.274,1.937c.387-.076,.957-.179,1.65-.274,.212,2.298,.767,3.867,.794,3.942,.114,.318,.38,.557,.708,.636,.124,.029,3.057,.725,6.522,.725,.624,0,1.269-.022,1.929-.068-.033,1.191-.19,2.241-.354,3.042-1.422-.689-3.377-1.067-5.745-1.067s-4.325,.379-5.747,1.068c-.184-.894-.359-2.107-.359-3.496,0-2.012,.38-3.694,.603-4.507Zm5.503,14.267c-3.797,0-6.348-1.071-6.348-2.666s2.551-2.666,6.348-2.666,6.347,1.071,6.347,2.666-2.551,2.666-6.347,2.666Z"/>
  <path d="M12.59,16.437c-.552,0-.999,.447-.999,.999s.447,.999,.999,.999,.999-.447,.999-.999-.447-.999-.999-.999Z"/>
  <path d="M9.344,16.437c-.552,0-.999,.447-.999,.999s.447,.999,.999,.999,.999-.447,.999-.999-.447-.999-.999-.999Z"/>
  <path d="M6.11,16.437c-.552,0-.999,.447-.999,.999s.447,.999,.999,.999,.999-.447,.999-.999-.447-.999-.999-.999Z"/>
</svg>
