<?xml version="1.0" encoding="UTF-8"?>
<svg xmlns="http://www.w3.org/2000/svg" id="Layer_1" data-name="Layer 1" viewBox="0 0 24 24">
  <g>
    <circle cx="15.04" cy="18.537" r="1"/>
    <circle cx="8.2" cy="18.537" r="1"/>
    <circle cx="11.62" cy="18.537" r="1"/>
  </g>
  <g>
    <circle cx="16.069" cy="15.202" r="1"/>
    <circle cx="9.229" cy="15.202" r="1"/>
    <circle cx="12.649" cy="15.202" r="1"/>
  </g>
  <g>
    <circle cx="14" cy="21.851" r="1"/>
    <circle cx="7.16" cy="21.851" r="1"/>
    <circle cx="10.58" cy="21.851" r="1"/>
  </g>
  <path d="M19.302,8.213c-.104-3.913-3.345-7.064-7.314-7.064-4.035,0-7.318,3.256-7.318,7.257,0,.252,.013,.504,.039,.754-2.149,.599-3.708,2.558-3.708,4.863,0,1.992,1.186,3.804,3.02,4.615,.504,.223,1.095-.005,1.318-.51,.224-.505-.004-1.096-.51-1.319-1.11-.492-1.828-1.585-1.828-2.786,0-1.623,1.284-2.96,2.923-3.047,.3-.016,.577-.166,.754-.408,.178-.242,.237-.552,.161-.843-.112-.43-.169-.874-.169-1.319,0-2.899,2.386-5.257,5.318-5.257s5.317,2.358,5.317,5.257c0,.157-.008,.312-.021,.465-.046,.509,.299,.971,.8,1.071,1.69,.339,2.917,1.823,2.917,3.53,0,1.495-.952,2.852-2.369,3.375-.518,.191-.783,.767-.592,1.285,.149,.404,.532,.654,.938,.654,.115,0,.232-.02,.347-.062,2.198-.812,3.676-2.922,3.676-5.251,0-2.368-1.513-4.461-3.698-5.259Z"/>
</svg>
