<?xml version="1.0" encoding="UTF-8"?>
<svg xmlns="http://www.w3.org/2000/svg" id="Layer_1" data-name="Layer 1" viewBox="0 0 24 24">
  <path d="M21.806,2.858c-.1-.326-.357-.578-.685-.671-.173-.048-4.273-1.188-9.121-1.188S3.053,2.14,2.88,2.188c-.329,.093-.588,.347-.687,.674-.049,.161-1.193,4.007-1.193,9.139,0,5.175,1.146,8.982,1.194,9.142,.1,.326,.357,.578,.685,.671,.173,.048,4.273,1.188,9.121,1.188s8.947-1.14,9.12-1.188c.329-.093,.588-.347,.687-.674,.049-.161,1.193-4.007,1.193-9.139,0-5.175-1.146-8.982-1.194-9.142Zm-1.771,17.166c-1.242,.299-4.458,.976-8.035,.976s-6.797-.678-8.037-.976c-.301-1.185-.963-4.23-.963-8.024,0-3.753,.665-6.829,.965-8.024,1.242-.299,4.458-.976,8.035-.976s6.797,.678,8.037,.976c.301,1.185,.963,4.23,.963,8.024,0,3.753-.665,6.829-.965,8.024Z"/>
  <path d="M17.299,7.135c-.099-.325-.357-.578-.685-.671-.088-.024-2.165-.602-4.614-.602s-4.526,.577-4.614,.602c-.329,.093-.588,.347-.687,.674-.018,.057-.422,1.412-.561,3.348-.04,.551,.374,1.029,.926,1.068,.024,.002,.048,.003,.072,.003,.52,0,.959-.401,.996-.929,.073-1.018,.23-1.858,.345-2.37,.552-.12,1.468-.288,2.522-.36v8.24h-2.319c-.553,0-1,.447-1,1s.447,1,1,1h6.639c.553,0,1-.447,1-1s-.447-1-1-1h-2.319V7.898c1.056,.072,1.972,.241,2.522,.36,.114,.51,.271,1.348,.345,2.37,.038,.55,.502,.967,1.068,.926,.551-.039,.966-.518,.926-1.068-.139-1.948-.545-3.294-.562-3.351Z"/>
</svg>
