<?xml version="1.0" encoding="UTF-8"?>
<svg xmlns="http://www.w3.org/2000/svg" id="Layer_1" data-name="Layer 1" viewBox="0 0 24 24">
  <path d="M23,11.842c0-4.634-.756-8.04-.788-8.183-.073-.327-.306-.595-.618-.714-.118-.045-2.92-1.101-6.229-1.101s-6.11,1.056-6.229,1.101c-.313,.12-.547,.389-.619,.717-.032,.145-.788,3.586-.788,8.181,0,.501,.009,1.005,.027,1.512-.616-.246-1.358-.369-2.227-.369-3.047,0-4.528,1.5-4.528,4.585s1.481,4.585,4.528,4.585,4.527-1.5,4.527-4.585c0-.347-.019-.673-.056-.98-.001-.016-.002-.032-.004-.049-.177-1.575-.267-3.156-.267-4.7,0-3.335,.428-6.079,.633-7.201,.894-.279,2.845-.797,5.003-.797s4.109,.52,5.004,.798c.205,1.115,.632,3.841,.632,7.2,0,.578-.013,1.161-.038,1.746-.699-.403-1.601-.602-2.711-.602-3.047,0-4.528,1.5-4.528,4.585s1.481,4.585,4.528,4.585,4.527-1.5,4.527-4.585c0-.32-.016-.623-.048-.909,.179-1.61,.27-3.231,.27-4.82ZM5.528,20.156c-1.713,0-2.528-.387-2.528-2.585,0-2.185,.852-2.585,2.528-2.585,1.712,0,2.527,.387,2.527,2.585,0,2.185-.852,2.585-2.527,2.585Zm12.723,0c-1.713,0-2.528-.387-2.528-2.585,0-2.185,.852-2.585,2.528-2.585,1.712,0,2.527,.387,2.527,2.585,0,2.185-.852,2.585-2.527,2.585Z"/>
</svg>
