<?xml version="1.0" encoding="UTF-8"?>
<svg xmlns="http://www.w3.org/2000/svg" id="Layer_1" data-name="Layer 1" viewBox="0 0 24 24">
  <path d="M19.302,8.438c-.104-3.913-3.345-7.064-7.315-7.064-4.035,0-7.318,3.256-7.318,7.257,0,.252,.013,.504,.04,.754-2.15,.598-3.708,2.557-3.708,4.863,0,1.697,.852,3.271,2.28,4.211,.169,.112,.36,.165,.549,.165,.325,0,.644-.158,.836-.45,.304-.461,.176-1.081-.285-1.385-.864-.569-1.379-1.519-1.379-2.542,0-1.623,1.284-2.96,2.922-3.046,.3-.016,.577-.166,.755-.408,.177-.243,.236-.552,.161-.843-.112-.43-.169-.875-.169-1.32,0-2.899,2.386-5.257,5.318-5.257s5.318,2.358,5.318,5.257c0,.157-.007,.312-.021,.465-.046,.509,.299,.971,.8,1.071,1.69,.339,2.917,1.823,2.917,3.53,0,1.13-.522,2.174-1.433,2.863-.44,.333-.528,.96-.194,1.4,.332,.44,.96,.527,1.4,.194,1.415-1.07,2.227-2.695,2.227-4.458,0-2.368-1.512-4.461-3.698-5.259Z"/>
  <path d="M16.827,16.625h-.542c-.552,0-1,.448-1,1s.448,1,1,1h.542c.552,0,1-.448,1-1s-.448-1-1-1Z"/>
  <path d="M7.173,18.625h5.761c.552,0,1-.448,1-1s-.448-1-1-1H7.173c-.552,0-1,.448-1,1s.448,1,1,1Z"/>
  <path d="M7.715,20.625h-.542c-.552,0-1,.448-1,1s.448,1,1,1h.542c.552,0,1-.448,1-1s-.448-1-1-1Z"/>
  <path d="M16.827,20.625h-5.761c-.552,0-1,.448-1,1s.448,1,1,1h5.761c.552,0,1-.448,1-1s-.448-1-1-1Z"/>
  <path d="M7.173,14.625h.542c.552,0,1-.448,1-1s-.448-1-1-1h-.542c-.552,0-1,.448-1,1s.448,1,1,1Z"/>
  <path d="M16.827,12.625h-5.761c-.552,0-1,.448-1,1s.448,1,1,1h5.761c.552,0,1-.448,1-1s-.448-1-1-1Z"/>
</svg>
