<?xml version="1.0" encoding="UTF-8"?>
<svg xmlns="http://www.w3.org/2000/svg" id="Layer_1" data-name="Layer 1" viewBox="0 0 24 24">
  <path d="M22.216,10.048C22.216,1.938,17.046,1,13.157,1c-.552,0-1,.448-1,1v7.048H6.032c-.386-1.914-1.927-2.35-3.248-2.35-.552,0-1,.448-1,1s.448,.995,1,1c1.32,.012,1.328,.499,1.34,1.35,.051,3.591,.952,5.946,.987,6.034,.116,.286,.358,.503,.656,.586,.101,.029,1.871,.52,4.331,.789-.624,.475-1.313,1.037-2.011,1.675-.177-.052-.364-.081-.558-.081-1.089,0-1.976,.886-1.976,1.974s.886,1.974,1.976,1.974,1.975-.886,1.975-1.974c0-.148-.017-.293-.048-.432,1.503-1.357,2.984-2.342,3.721-2.801,.716,.436,2.15,1.38,3.706,2.798-.032,.14-.049,.285-.049,.435,0,1.088,.886,1.974,1.975,1.974s1.975-.886,1.975-1.974-.886-1.974-1.975-1.974c-.193,0-.379,.028-.555,.08-.705-.649-1.384-1.209-1.995-1.676,2.448-.27,4.211-.758,4.312-.786,.3-.084,.543-.303,.659-.592,.036-.089,.986-3.035,.986-6.029ZM14.157,3.024c3.523,.179,5.756,1.438,6.03,6.024h-6.03V3.024Zm5.367,11.846c-1.044,.246-3.568,.762-6.354,.762s-5.314-.516-6.355-.762c-.189-.643-.505-1.942-.639-3.822h13.989c-.135,1.871-.451,3.176-.64,3.822Z"/>
</svg>
